<svg xmlns="http://www.w3.org/2000/svg" viewBox="0 0 1600 1000" width="1600" height="1000" font-family="'DM Sans','Aventa',Helvetica,Arial,sans-serif"><defs><pattern id="soil" width="10" height="10" patternUnits="userSpaceOnUse"><circle cx="2" cy="2" r="0.8" fill="#8B714E"/><circle cx="7" cy="6" r="0.8" fill="#8B714E"/></pattern></defs><rect width="1600" height="1000" fill="#FEF5F0"/><text x="40.00" y="46.00" fill="#1B2117" text-anchor="start" style="font-family:'DM Sans','Aventa',Helvetica,Arial,sans-serif;font-size:22px;font-weight:700;letter-spacing:0.28em;">ZION ZENITH · FACHADA LATERAL ESQUERDA</text>
<text x="40.00" y="68.00" fill="#8B714E" text-anchor="start" style="font-family:'DM Sans','Aventa',Helvetica,Arial,sans-serif;font-size:12px;font-weight:400;letter-spacing:0.08em;">Vista da passarela e dos painéis ripados (olhar para -y, frente à direita) · J1 janela do café · J2 fresta do closet · postes PE02 / PE06 / PE04</text>
<line x1="40" y1="82" x2="1560" y2="82" stroke="#1B2117" stroke-width="0.6" opacity="0.5"/>
<polygon points="1562.00,787.60 -22.00,787.60 -22.00,731.92 1562.00,731.92" fill="url(#soil)" stroke="none" stroke-width="1.0" opacity="1.0" stroke-linejoin="round" stroke-linecap="round" />
<line x1="1562.00" y1="731.92" x2="-22.00" y2="731.92" stroke="#1B2117" stroke-width="1.0" opacity="1.0" stroke-linecap="round"/>
<polygon points="1383.44,787.60 1375.76,787.60 1375.76,749.20 1383.44,749.20" fill="#3A3B3A" stroke="none" stroke-width="1.0" opacity="1.0" stroke-linejoin="round" stroke-linecap="round" />
<polygon points="1153.04,787.60 1145.36,787.60 1145.36,749.20 1153.04,749.20" fill="#3A3B3A" stroke="none" stroke-width="1.0" opacity="1.0" stroke-linejoin="round" stroke-linecap="round" />
<polygon points="922.64,787.60 914.96,787.60 914.96,749.20 922.64,749.20" fill="#3A3B3A" stroke="none" stroke-width="1.0" opacity="1.0" stroke-linejoin="round" stroke-linecap="round" />
<polygon points="692.24,787.60 684.56,787.60 684.56,749.20 692.24,749.20" fill="#3A3B3A" stroke="none" stroke-width="1.0" opacity="1.0" stroke-linejoin="round" stroke-linecap="round" />
<polygon points="461.84,787.60 454.16,787.60 454.16,749.20 461.84,749.20" fill="#3A3B3A" stroke="none" stroke-width="1.0" opacity="1.0" stroke-linejoin="round" stroke-linecap="round" />
<polygon points="231.44,787.60 223.76,787.60 223.76,749.20 231.44,749.20" fill="#3A3B3A" stroke="none" stroke-width="1.0" opacity="1.0" stroke-linejoin="round" stroke-linecap="round" />
<polygon points="1418.00,749.20 218.00,749.20 218.00,734.80 1418.00,734.80" fill="#B99A73" stroke="#1B2117" stroke-width="0.9" opacity="1.0" stroke-linejoin="round" stroke-linecap="round" />
<polygon points="1418.00,734.80 218.00,734.80 218.00,730.00 1418.00,730.00" fill="#1B2117" stroke="none" stroke-width="1.0" opacity="1.0" stroke-linejoin="round" stroke-linecap="round" />
<polygon points="1446.80,758.80 1418.00,758.80 1418.00,744.40 1446.80,744.40" fill="#B99A73" stroke="#1B2117" stroke-width="0.7" opacity="1.0" stroke-linejoin="round" stroke-linecap="round" />
<polygon points="1475.60,754.00 1446.80,754.00 1446.80,739.60 1475.60,739.60" fill="#B99A73" stroke="#1B2117" stroke-width="0.7" opacity="1.0" stroke-linejoin="round" stroke-linecap="round" />
<polygon points="1504.40,749.20 1475.60,749.20 1475.60,734.80 1504.40,734.80" fill="#B99A73" stroke="#1B2117" stroke-width="0.7" opacity="1.0" stroke-linejoin="round" stroke-linecap="round" />
<polygon points="1360.40,475.60 1352.66,477.03 1344.92,477.22 1337.18,476.39 1329.44,475.55 1321.70,474.72 1313.96,476.41 1306.22,475.47 1298.48,474.52 1290.74,473.57 1283.00,472.62 1275.26,471.66 1267.52,472.54 1259.78,471.48 1252.04,470.41 1244.30,469.33 1236.56,468.25 1228.82,468.45 1221.08,467.26 1213.34,466.05 1205.60,464.84 1197.86,463.61 1190.12,462.37 1182.38,461.80 1174.64,460.44 1166.90,459.04 1159.16,457.62 1151.42,456.16 1143.68,454.84 1135.94,453.13 1128.20,451.56 1120.46,450.57 1112.72,448.22 1104.98,444.51 1097.24,439.44 1089.50,433.02 1081.76,425.24 1074.02,416.10 1066.28,405.62 1058.54,393.79 1050.80,380.61 1043.06,366.10 1035.32,350.26 1027.58,333.13 1019.84,314.77 1012.10,295.28 1004.36,288.28 996.62,288.24 988.88,288.18 981.14,288.11 973.40,288.03 965.66,287.92 957.92,287.80 950.18,287.64 942.44,288.01 934.70,291.28 926.96,294.06 919.22,297.03 911.48,299.90 903.74,302.65 896.00,305.25 888.26,307.69 880.52,309.95 872.78,312.01 865.04,313.84 857.30,315.42 849.56,316.74 841.82,317.77 834.08,318.50 826.34,318.89 818.60,318.91 810.86,318.56 803.12,317.81 795.38,316.65 787.64,315.09 779.90,313.11 772.16,310.76 764.42,308.03 756.68,304.94 748.94,301.52 741.20,297.78 733.46,293.74 725.72,289.40 717.98,284.78 710.24,279.91 702.50,274.80 694.76,269.46 687.02,263.91 679.28,258.15 671.54,252.20 663.80,246.07 656.06,239.76 648.32,233.28 640.58,226.65 632.84,219.85 625.10,212.91 617.36,205.82 609.62,198.59 601.88,191.23 594.14,183.74 586.40,176.12 578.66,172.50 570.92,172.57 563.18,172.64 555.44,172.70 547.70,172.76 539.96,172.81 532.22,172.86 524.48,172.90 516.74,172.93 509.00,172.97 501.26,173.00 493.52,173.03 485.78,173.05 478.04,173.07 470.30,173.09 462.56,184.36 454.82,200.98 447.08,217.08 439.34,232.65 431.60,247.68 423.86,262.19 416.12,276.16 408.38,289.60 400.64,302.50 392.90,314.87 385.16,326.70 377.42,338.00 369.68,348.76 361.94,358.99 354.20,368.68 346.46,377.83 338.72,386.46 330.98,394.54 323.24,402.09 315.50,409.11 307.76,415.58 300.02,421.53 292.28,426.94 284.54,431.81 276.80,436.14 269.06,439.95 261.32,443.21 253.58,445.94 245.84,448.14 238.10,449.79 230.36,450.92 222.62,451.50 214.88,452.70 207.14,454.98 199.40,457.08 191.66,459.09 183.92,461.05 176.18,462.96 168.44,464.84 160.70,466.68 152.96,468.51 145.22,470.31 137.48,472.09 129.74,473.85 122.00,475.60 122.00,475.60 137.68,478.42 153.35,481.10 169.03,483.63 184.70,486.01 200.38,488.25 216.06,490.35 231.73,492.30 247.41,494.10 263.08,495.76 278.76,497.27 294.44,498.64 310.11,499.86 325.79,500.94 341.46,501.87 357.14,502.65 372.82,503.29 388.49,503.79 404.17,504.14 419.84,504.34 435.52,504.40 451.19,504.31 466.87,504.08 482.55,503.70 498.22,503.18 513.90,502.51 529.57,501.70 545.25,500.74 560.93,499.63 576.60,498.38 592.28,496.99 607.95,495.45 623.63,493.76 639.31,491.93 654.98,489.95 670.66,487.83 686.33,485.56 702.01,483.15 717.69,480.59 733.36,477.89 749.04,476.17 764.71,479.00 780.39,481.69 796.07,484.22 811.74,486.61 827.42,488.84 843.09,490.93 858.77,492.86 874.45,494.65 890.12,496.28 905.80,497.77 921.47,499.10 937.15,500.29 952.83,501.33 968.50,502.21 984.18,502.95 999.85,503.53 1015.53,503.97 1031.21,504.25 1046.88,504.39 1062.56,504.37 1078.23,504.21 1093.91,503.89 1109.58,503.43 1125.26,502.82 1140.94,502.05 1156.61,501.14 1172.29,500.07 1187.96,498.86 1203.64,497.49 1219.32,495.98 1234.99,494.31 1250.67,492.50 1266.34,490.54 1282.02,488.42 1297.70,486.16 1313.37,483.74 1329.05,481.18 1344.72,478.46 1360.40,475.60" fill="#EDE6D6" stroke="#1B2117" stroke-width="1.8" opacity="1.0" stroke-linejoin="round" stroke-linecap="round" />
<polygon points="1130.00,730.00 218.00,730.00 218.00,466.00 1130.00,466.00" fill="#C9B08C" stroke="#1B2117" stroke-width="1.0" opacity="1.0" stroke-linejoin="round" stroke-linecap="round" />
<line x1="1126.16" y1="730.00" x2="1126.16" y2="466.00" stroke="#B99A73" stroke-width="1.4" opacity="0.9" stroke-linecap="round"/>
<line x1="1118.48" y1="730.00" x2="1118.48" y2="466.00" stroke="#B99A73" stroke-width="1.4" opacity="0.9" stroke-linecap="round"/>
<line x1="1110.80" y1="730.00" x2="1110.80" y2="466.00" stroke="#B99A73" stroke-width="1.4" opacity="0.9" stroke-linecap="round"/>
<line x1="1103.12" y1="730.00" x2="1103.12" y2="466.00" stroke="#B99A73" stroke-width="1.4" opacity="0.9" stroke-linecap="round"/>
<line x1="1095.44" y1="730.00" x2="1095.44" y2="466.00" stroke="#B99A73" stroke-width="1.4" opacity="0.9" stroke-linecap="round"/>
<line x1="1087.76" y1="730.00" x2="1087.76" y2="466.00" stroke="#B99A73" stroke-width="1.4" opacity="0.9" stroke-linecap="round"/>
<line x1="1080.08" y1="730.00" x2="1080.08" y2="466.00" stroke="#B99A73" stroke-width="1.4" opacity="0.9" stroke-linecap="round"/>
<line x1="1072.40" y1="730.00" x2="1072.40" y2="466.00" stroke="#B99A73" stroke-width="1.4" opacity="0.9" stroke-linecap="round"/>
<line x1="1064.72" y1="730.00" x2="1064.72" y2="466.00" stroke="#B99A73" stroke-width="1.4" opacity="0.9" stroke-linecap="round"/>
<line x1="1057.04" y1="730.00" x2="1057.04" y2="466.00" stroke="#B99A73" stroke-width="1.4" opacity="0.9" stroke-linecap="round"/>
<line x1="1049.36" y1="730.00" x2="1049.36" y2="466.00" stroke="#B99A73" stroke-width="1.4" opacity="0.9" stroke-linecap="round"/>
<line x1="1041.68" y1="730.00" x2="1041.68" y2="466.00" stroke="#B99A73" stroke-width="1.4" opacity="0.9" stroke-linecap="round"/>
<line x1="1034.00" y1="730.00" x2="1034.00" y2="466.00" stroke="#B99A73" stroke-width="1.4" opacity="0.9" stroke-linecap="round"/>
<line x1="1026.32" y1="730.00" x2="1026.32" y2="466.00" stroke="#B99A73" stroke-width="1.4" opacity="0.9" stroke-linecap="round"/>
<line x1="1018.64" y1="730.00" x2="1018.64" y2="466.00" stroke="#B99A73" stroke-width="1.4" opacity="0.9" stroke-linecap="round"/>
<line x1="1010.96" y1="730.00" x2="1010.96" y2="466.00" stroke="#B99A73" stroke-width="1.4" opacity="0.9" stroke-linecap="round"/>
<line x1="1003.28" y1="730.00" x2="1003.28" y2="466.00" stroke="#B99A73" stroke-width="1.4" opacity="0.9" stroke-linecap="round"/>
<line x1="995.60" y1="730.00" x2="995.60" y2="466.00" stroke="#B99A73" stroke-width="1.4" opacity="0.9" stroke-linecap="round"/>
<line x1="987.92" y1="730.00" x2="987.92" y2="466.00" stroke="#B99A73" stroke-width="1.4" opacity="0.9" stroke-linecap="round"/>
<line x1="980.24" y1="730.00" x2="980.24" y2="466.00" stroke="#B99A73" stroke-width="1.4" opacity="0.9" stroke-linecap="round"/>
<line x1="972.56" y1="730.00" x2="972.56" y2="466.00" stroke="#B99A73" stroke-width="1.4" opacity="0.9" stroke-linecap="round"/>
<line x1="964.88" y1="730.00" x2="964.88" y2="466.00" stroke="#B99A73" stroke-width="1.4" opacity="0.9" stroke-linecap="round"/>
<line x1="957.20" y1="730.00" x2="957.20" y2="466.00" stroke="#B99A73" stroke-width="1.4" opacity="0.9" stroke-linecap="round"/>
<line x1="949.52" y1="730.00" x2="949.52" y2="466.00" stroke="#B99A73" stroke-width="1.4" opacity="0.9" stroke-linecap="round"/>
<line x1="941.84" y1="730.00" x2="941.84" y2="466.00" stroke="#B99A73" stroke-width="1.4" opacity="0.9" stroke-linecap="round"/>
<line x1="934.16" y1="730.00" x2="934.16" y2="466.00" stroke="#B99A73" stroke-width="1.4" opacity="0.9" stroke-linecap="round"/>
<line x1="926.48" y1="730.00" x2="926.48" y2="466.00" stroke="#B99A73" stroke-width="1.4" opacity="0.9" stroke-linecap="round"/>
<line x1="918.80" y1="730.00" x2="918.80" y2="466.00" stroke="#B99A73" stroke-width="1.4" opacity="0.9" stroke-linecap="round"/>
<line x1="911.12" y1="730.00" x2="911.12" y2="466.00" stroke="#B99A73" stroke-width="1.4" opacity="0.9" stroke-linecap="round"/>
<line x1="903.44" y1="730.00" x2="903.44" y2="466.00" stroke="#B99A73" stroke-width="1.4" opacity="0.9" stroke-linecap="round"/>
<line x1="895.76" y1="730.00" x2="895.76" y2="466.00" stroke="#B99A73" stroke-width="1.4" opacity="0.9" stroke-linecap="round"/>
<line x1="888.08" y1="730.00" x2="888.08" y2="466.00" stroke="#B99A73" stroke-width="1.4" opacity="0.9" stroke-linecap="round"/>
<line x1="880.40" y1="730.00" x2="880.40" y2="466.00" stroke="#B99A73" stroke-width="1.4" opacity="0.9" stroke-linecap="round"/>
<line x1="872.72" y1="730.00" x2="872.72" y2="466.00" stroke="#B99A73" stroke-width="1.4" opacity="0.9" stroke-linecap="round"/>
<line x1="865.04" y1="730.00" x2="865.04" y2="466.00" stroke="#B99A73" stroke-width="1.4" opacity="0.9" stroke-linecap="round"/>
<line x1="857.36" y1="730.00" x2="857.36" y2="466.00" stroke="#B99A73" stroke-width="1.4" opacity="0.9" stroke-linecap="round"/>
<line x1="849.68" y1="730.00" x2="849.68" y2="466.00" stroke="#B99A73" stroke-width="1.4" opacity="0.9" stroke-linecap="round"/>
<line x1="842.00" y1="730.00" x2="842.00" y2="466.00" stroke="#B99A73" stroke-width="1.4" opacity="0.9" stroke-linecap="round"/>
<line x1="834.32" y1="730.00" x2="834.32" y2="466.00" stroke="#B99A73" stroke-width="1.4" opacity="0.9" stroke-linecap="round"/>
<line x1="826.64" y1="730.00" x2="826.64" y2="466.00" stroke="#B99A73" stroke-width="1.4" opacity="0.9" stroke-linecap="round"/>
<line x1="818.96" y1="730.00" x2="818.96" y2="466.00" stroke="#B99A73" stroke-width="1.4" opacity="0.9" stroke-linecap="round"/>
<line x1="811.28" y1="730.00" x2="811.28" y2="466.00" stroke="#B99A73" stroke-width="1.4" opacity="0.9" stroke-linecap="round"/>
<line x1="803.60" y1="730.00" x2="803.60" y2="466.00" stroke="#B99A73" stroke-width="1.4" opacity="0.9" stroke-linecap="round"/>
<line x1="795.92" y1="730.00" x2="795.92" y2="466.00" stroke="#B99A73" stroke-width="1.4" opacity="0.9" stroke-linecap="round"/>
<line x1="788.24" y1="730.00" x2="788.24" y2="466.00" stroke="#B99A73" stroke-width="1.4" opacity="0.9" stroke-linecap="round"/>
<line x1="780.56" y1="730.00" x2="780.56" y2="466.00" stroke="#B99A73" stroke-width="1.4" opacity="0.9" stroke-linecap="round"/>
<line x1="772.88" y1="730.00" x2="772.88" y2="466.00" stroke="#B99A73" stroke-width="1.4" opacity="0.9" stroke-linecap="round"/>
<line x1="765.20" y1="730.00" x2="765.20" y2="466.00" stroke="#B99A73" stroke-width="1.4" opacity="0.9" stroke-linecap="round"/>
<line x1="757.52" y1="730.00" x2="757.52" y2="466.00" stroke="#B99A73" stroke-width="1.4" opacity="0.9" stroke-linecap="round"/>
<line x1="749.84" y1="730.00" x2="749.84" y2="466.00" stroke="#B99A73" stroke-width="1.4" opacity="0.9" stroke-linecap="round"/>
<line x1="742.16" y1="730.00" x2="742.16" y2="466.00" stroke="#B99A73" stroke-width="1.4" opacity="0.9" stroke-linecap="round"/>
<line x1="734.48" y1="730.00" x2="734.48" y2="466.00" stroke="#B99A73" stroke-width="1.4" opacity="0.9" stroke-linecap="round"/>
<line x1="726.80" y1="730.00" x2="726.80" y2="466.00" stroke="#B99A73" stroke-width="1.4" opacity="0.9" stroke-linecap="round"/>
<line x1="719.12" y1="730.00" x2="719.12" y2="466.00" stroke="#B99A73" stroke-width="1.4" opacity="0.9" stroke-linecap="round"/>
<line x1="711.44" y1="730.00" x2="711.44" y2="466.00" stroke="#B99A73" stroke-width="1.4" opacity="0.9" stroke-linecap="round"/>
<line x1="703.76" y1="730.00" x2="703.76" y2="466.00" stroke="#B99A73" stroke-width="1.4" opacity="0.9" stroke-linecap="round"/>
<line x1="696.08" y1="730.00" x2="696.08" y2="466.00" stroke="#B99A73" stroke-width="1.4" opacity="0.9" stroke-linecap="round"/>
<line x1="688.40" y1="730.00" x2="688.40" y2="466.00" stroke="#B99A73" stroke-width="1.4" opacity="0.9" stroke-linecap="round"/>
<line x1="680.72" y1="730.00" x2="680.72" y2="466.00" stroke="#B99A73" stroke-width="1.4" opacity="0.9" stroke-linecap="round"/>
<line x1="673.04" y1="730.00" x2="673.04" y2="466.00" stroke="#B99A73" stroke-width="1.4" opacity="0.9" stroke-linecap="round"/>
<line x1="665.36" y1="730.00" x2="665.36" y2="466.00" stroke="#B99A73" stroke-width="1.4" opacity="0.9" stroke-linecap="round"/>
<line x1="657.68" y1="730.00" x2="657.68" y2="466.00" stroke="#B99A73" stroke-width="1.4" opacity="0.9" stroke-linecap="round"/>
<line x1="650.00" y1="730.00" x2="650.00" y2="466.00" stroke="#B99A73" stroke-width="1.4" opacity="0.9" stroke-linecap="round"/>
<line x1="642.32" y1="730.00" x2="642.32" y2="466.00" stroke="#B99A73" stroke-width="1.4" opacity="0.9" stroke-linecap="round"/>
<line x1="634.64" y1="730.00" x2="634.64" y2="466.00" stroke="#B99A73" stroke-width="1.4" opacity="0.9" stroke-linecap="round"/>
<line x1="626.96" y1="730.00" x2="626.96" y2="466.00" stroke="#B99A73" stroke-width="1.4" opacity="0.9" stroke-linecap="round"/>
<line x1="619.28" y1="730.00" x2="619.28" y2="466.00" stroke="#B99A73" stroke-width="1.4" opacity="0.9" stroke-linecap="round"/>
<line x1="611.60" y1="730.00" x2="611.60" y2="466.00" stroke="#B99A73" stroke-width="1.4" opacity="0.9" stroke-linecap="round"/>
<line x1="603.92" y1="730.00" x2="603.92" y2="466.00" stroke="#B99A73" stroke-width="1.4" opacity="0.9" stroke-linecap="round"/>
<line x1="596.24" y1="730.00" x2="596.24" y2="466.00" stroke="#B99A73" stroke-width="1.4" opacity="0.9" stroke-linecap="round"/>
<line x1="588.56" y1="730.00" x2="588.56" y2="466.00" stroke="#B99A73" stroke-width="1.4" opacity="0.9" stroke-linecap="round"/>
<line x1="580.88" y1="730.00" x2="580.88" y2="466.00" stroke="#B99A73" stroke-width="1.4" opacity="0.9" stroke-linecap="round"/>
<line x1="573.20" y1="730.00" x2="573.20" y2="466.00" stroke="#B99A73" stroke-width="1.4" opacity="0.9" stroke-linecap="round"/>
<line x1="565.52" y1="730.00" x2="565.52" y2="466.00" stroke="#B99A73" stroke-width="1.4" opacity="0.9" stroke-linecap="round"/>
<line x1="557.84" y1="730.00" x2="557.84" y2="466.00" stroke="#B99A73" stroke-width="1.4" opacity="0.9" stroke-linecap="round"/>
<line x1="550.16" y1="730.00" x2="550.16" y2="466.00" stroke="#B99A73" stroke-width="1.4" opacity="0.9" stroke-linecap="round"/>
<line x1="542.48" y1="730.00" x2="542.48" y2="466.00" stroke="#B99A73" stroke-width="1.4" opacity="0.9" stroke-linecap="round"/>
<line x1="534.80" y1="730.00" x2="534.80" y2="466.00" stroke="#B99A73" stroke-width="1.4" opacity="0.9" stroke-linecap="round"/>
<line x1="527.12" y1="730.00" x2="527.12" y2="466.00" stroke="#B99A73" stroke-width="1.4" opacity="0.9" stroke-linecap="round"/>
<line x1="519.44" y1="730.00" x2="519.44" y2="466.00" stroke="#B99A73" stroke-width="1.4" opacity="0.9" stroke-linecap="round"/>
<line x1="511.76" y1="730.00" x2="511.76" y2="466.00" stroke="#B99A73" stroke-width="1.4" opacity="0.9" stroke-linecap="round"/>
<line x1="504.08" y1="730.00" x2="504.08" y2="466.00" stroke="#B99A73" stroke-width="1.4" opacity="0.9" stroke-linecap="round"/>
<line x1="496.40" y1="730.00" x2="496.40" y2="466.00" stroke="#B99A73" stroke-width="1.4" opacity="0.9" stroke-linecap="round"/>
<line x1="488.72" y1="730.00" x2="488.72" y2="466.00" stroke="#B99A73" stroke-width="1.4" opacity="0.9" stroke-linecap="round"/>
<line x1="481.04" y1="730.00" x2="481.04" y2="466.00" stroke="#B99A73" stroke-width="1.4" opacity="0.9" stroke-linecap="round"/>
<line x1="473.36" y1="730.00" x2="473.36" y2="466.00" stroke="#B99A73" stroke-width="1.4" opacity="0.9" stroke-linecap="round"/>
<line x1="465.68" y1="730.00" x2="465.68" y2="466.00" stroke="#B99A73" stroke-width="1.4" opacity="0.9" stroke-linecap="round"/>
<line x1="458.00" y1="730.00" x2="458.00" y2="466.00" stroke="#B99A73" stroke-width="1.4" opacity="0.9" stroke-linecap="round"/>
<line x1="450.32" y1="730.00" x2="450.32" y2="466.00" stroke="#B99A73" stroke-width="1.4" opacity="0.9" stroke-linecap="round"/>
<line x1="442.64" y1="730.00" x2="442.64" y2="466.00" stroke="#B99A73" stroke-width="1.4" opacity="0.9" stroke-linecap="round"/>
<line x1="434.96" y1="730.00" x2="434.96" y2="466.00" stroke="#B99A73" stroke-width="1.4" opacity="0.9" stroke-linecap="round"/>
<line x1="427.28" y1="730.00" x2="427.28" y2="466.00" stroke="#B99A73" stroke-width="1.4" opacity="0.9" stroke-linecap="round"/>
<line x1="419.60" y1="730.00" x2="419.60" y2="466.00" stroke="#B99A73" stroke-width="1.4" opacity="0.9" stroke-linecap="round"/>
<line x1="411.92" y1="730.00" x2="411.92" y2="466.00" stroke="#B99A73" stroke-width="1.4" opacity="0.9" stroke-linecap="round"/>
<line x1="404.24" y1="730.00" x2="404.24" y2="466.00" stroke="#B99A73" stroke-width="1.4" opacity="0.9" stroke-linecap="round"/>
<line x1="396.56" y1="730.00" x2="396.56" y2="466.00" stroke="#B99A73" stroke-width="1.4" opacity="0.9" stroke-linecap="round"/>
<line x1="388.88" y1="730.00" x2="388.88" y2="466.00" stroke="#B99A73" stroke-width="1.4" opacity="0.9" stroke-linecap="round"/>
<line x1="381.20" y1="730.00" x2="381.20" y2="466.00" stroke="#B99A73" stroke-width="1.4" opacity="0.9" stroke-linecap="round"/>
<line x1="373.52" y1="730.00" x2="373.52" y2="466.00" stroke="#B99A73" stroke-width="1.4" opacity="0.9" stroke-linecap="round"/>
<line x1="365.84" y1="730.00" x2="365.84" y2="466.00" stroke="#B99A73" stroke-width="1.4" opacity="0.9" stroke-linecap="round"/>
<line x1="358.16" y1="730.00" x2="358.16" y2="466.00" stroke="#B99A73" stroke-width="1.4" opacity="0.9" stroke-linecap="round"/>
<line x1="350.48" y1="730.00" x2="350.48" y2="466.00" stroke="#B99A73" stroke-width="1.4" opacity="0.9" stroke-linecap="round"/>
<line x1="342.80" y1="730.00" x2="342.80" y2="466.00" stroke="#B99A73" stroke-width="1.4" opacity="0.9" stroke-linecap="round"/>
<line x1="335.12" y1="730.00" x2="335.12" y2="466.00" stroke="#B99A73" stroke-width="1.4" opacity="0.9" stroke-linecap="round"/>
<line x1="327.44" y1="730.00" x2="327.44" y2="466.00" stroke="#B99A73" stroke-width="1.4" opacity="0.9" stroke-linecap="round"/>
<line x1="319.76" y1="730.00" x2="319.76" y2="466.00" stroke="#B99A73" stroke-width="1.4" opacity="0.9" stroke-linecap="round"/>
<line x1="312.08" y1="730.00" x2="312.08" y2="466.00" stroke="#B99A73" stroke-width="1.4" opacity="0.9" stroke-linecap="round"/>
<line x1="304.40" y1="730.00" x2="304.40" y2="466.00" stroke="#B99A73" stroke-width="1.4" opacity="0.9" stroke-linecap="round"/>
<line x1="296.72" y1="730.00" x2="296.72" y2="466.00" stroke="#B99A73" stroke-width="1.4" opacity="0.9" stroke-linecap="round"/>
<line x1="289.04" y1="730.00" x2="289.04" y2="466.00" stroke="#B99A73" stroke-width="1.4" opacity="0.9" stroke-linecap="round"/>
<line x1="281.36" y1="730.00" x2="281.36" y2="466.00" stroke="#B99A73" stroke-width="1.4" opacity="0.9" stroke-linecap="round"/>
<line x1="273.68" y1="730.00" x2="273.68" y2="466.00" stroke="#B99A73" stroke-width="1.4" opacity="0.9" stroke-linecap="round"/>
<line x1="266.00" y1="730.00" x2="266.00" y2="466.00" stroke="#B99A73" stroke-width="1.4" opacity="0.9" stroke-linecap="round"/>
<line x1="258.32" y1="730.00" x2="258.32" y2="466.00" stroke="#B99A73" stroke-width="1.4" opacity="0.9" stroke-linecap="round"/>
<line x1="250.64" y1="730.00" x2="250.64" y2="466.00" stroke="#B99A73" stroke-width="1.4" opacity="0.9" stroke-linecap="round"/>
<line x1="242.96" y1="730.00" x2="242.96" y2="466.00" stroke="#B99A73" stroke-width="1.4" opacity="0.9" stroke-linecap="round"/>
<line x1="235.28" y1="730.00" x2="235.28" y2="466.00" stroke="#B99A73" stroke-width="1.4" opacity="0.9" stroke-linecap="round"/>
<line x1="227.60" y1="730.00" x2="227.60" y2="466.00" stroke="#B99A73" stroke-width="1.4" opacity="0.9" stroke-linecap="round"/>
<line x1="219.92" y1="730.00" x2="219.92" y2="466.00" stroke="#B99A73" stroke-width="1.4" opacity="0.9" stroke-linecap="round"/>
<polygon points="1082.00,624.40 870.80,624.40 870.80,518.80 1082.00,518.80" fill="#BFD0D6" stroke="#1B2117" stroke-width="0.9" opacity="1.0" stroke-linejoin="round" stroke-linecap="round" />
<text x="976.40" y="504.40" fill="#1B2117" text-anchor="middle" style="font-family:'DM Sans','Aventa',Helvetica,Arial,sans-serif;font-size:9.5px;font-weight:400;letter-spacing:0em;">J1 2,20 x 1,10</text>
<polygon points="755.60,547.60 563.60,547.60 563.60,499.60 755.60,499.60" fill="#BFD0D6" stroke="#1B2117" stroke-width="0.9" opacity="1.0" stroke-linejoin="round" stroke-linecap="round" />
<text x="659.60" y="485.20" fill="#1B2117" text-anchor="middle" style="font-family:'DM Sans','Aventa',Helvetica,Arial,sans-serif;font-size:9.5px;font-weight:400;letter-spacing:0em;">J2 2,00 x 0,50</text>
<polygon points="1130.00,466.00 218.00,466.00 218.00,451.60 1130.00,451.60" fill="#3A3B3A" stroke="#1B2117" stroke-width="0.6" opacity="1.0" stroke-linejoin="round" stroke-linecap="round" />
<line x1="1360.40" y1="734.80" x2="1360.40" y2="475.60" stroke="#3A3B3A" stroke-width="4" opacity="1.0" stroke-linecap="round"/>
<line x1="746.00" y1="734.80" x2="746.00" y2="475.60" stroke="#3A3B3A" stroke-width="4" opacity="1.0" stroke-linecap="round"/>
<line x1="122.00" y1="734.80" x2="122.00" y2="475.60" stroke="#3A3B3A" stroke-width="4" opacity="1.0" stroke-linecap="round"/>
<line x1="525.20" y1="730.00" x2="525.20" y2="245.20" stroke="#3A3B3A" stroke-width="1.0" stroke-dasharray="6 4" opacity="0.6" stroke-linecap="round"/>
<circle cx="525.20" cy="173.20" r="7.68" fill="none" stroke="#1B2117" stroke-width="0.8" opacity="1.0"/>
<line x1="976.40" y1="730.00" x2="976.40" y2="346.00" stroke="#3A3B3A" stroke-width="1.0" stroke-dasharray="6 4" opacity="0.6" stroke-linecap="round"/>
<circle cx="976.40" cy="288.40" r="7.68" fill="none" stroke="#1B2117" stroke-width="0.8" opacity="1.0"/>
<polygon points="184.40,730.00 107.60,730.00 107.60,670.48 184.40,670.48" fill="#E5E1D8" stroke="#1B2117" stroke-width="0.8" opacity="1.0" stroke-linejoin="round" stroke-linecap="round" />
<line x1="189.20" y1="730.00" x2="189.20" y2="605.20" stroke="#B99A73" stroke-width="1.4" opacity="0.9" stroke-linecap="round"/>
<line x1="179.60" y1="730.00" x2="179.60" y2="605.20" stroke="#B99A73" stroke-width="1.4" opacity="0.9" stroke-linecap="round"/>
<line x1="170.00" y1="730.00" x2="170.00" y2="605.20" stroke="#B99A73" stroke-width="1.4" opacity="0.9" stroke-linecap="round"/>
<line x1="160.40" y1="730.00" x2="160.40" y2="605.20" stroke="#B99A73" stroke-width="1.4" opacity="0.9" stroke-linecap="round"/>
<line x1="150.80" y1="730.00" x2="150.80" y2="605.20" stroke="#B99A73" stroke-width="1.4" opacity="0.9" stroke-linecap="round"/>
<line x1="141.20" y1="730.00" x2="141.20" y2="605.20" stroke="#B99A73" stroke-width="1.4" opacity="0.9" stroke-linecap="round"/>
<line x1="131.60" y1="730.00" x2="131.60" y2="605.20" stroke="#B99A73" stroke-width="1.4" opacity="0.9" stroke-linecap="round"/>
<line x1="122.00" y1="730.00" x2="122.00" y2="605.20" stroke="#B99A73" stroke-width="1.4" opacity="0.9" stroke-linecap="round"/>
<line x1="112.40" y1="730.00" x2="112.40" y2="605.20" stroke="#B99A73" stroke-width="1.4" opacity="0.9" stroke-linecap="round"/>
<line x1="102.80" y1="730.00" x2="102.80" y2="605.20" stroke="#B99A73" stroke-width="1.4" opacity="0.9" stroke-linecap="round"/>
<line x1="525.20" y1="173.20" x2="650.00" y2="120.40" stroke="#1B2117" stroke-width="0.7" opacity="1.0" stroke-linecap="round"/>
<circle cx="525.20" cy="173.20" r="2.2" fill="#1B2117" stroke="#1B2117" stroke-width="1.0"/>
<text x="650.00" y="117.40" fill="#1B2117" text-anchor="end" style="font-family:'DM Sans','Aventa',Helvetica,Arial,sans-serif;font-size:12px;font-weight:400;letter-spacing:0em;">cume principal 5,80 (OC1)</text>
<line x1="976.40" y1="288.40" x2="1072.40" y2="202.00" stroke="#1B2117" stroke-width="0.7" opacity="1.0" stroke-linecap="round"/>
<circle cx="976.40" cy="288.40" r="2.2" fill="#1B2117" stroke="#1B2117" stroke-width="1.0"/>
<text x="1072.40" y="199.00" fill="#1B2117" text-anchor="end" style="font-family:'DM Sans','Aventa',Helvetica,Arial,sans-serif;font-size:12px;font-weight:400;letter-spacing:0em;">cume secundário 4,60 (RE1)</text>
<line x1="1274.00" y1="509.20" x2="1341.20" y2="384.40" stroke="#1B2117" stroke-width="0.7" opacity="1.0" stroke-linecap="round"/>
<circle cx="1274.00" cy="509.20" r="2.2" fill="#1B2117" stroke="#1B2117" stroke-width="1.0"/>
<text x="1341.20" y="381.40" fill="#1B2117" text-anchor="start" style="font-family:'DM Sans','Aventa',Helvetica,Arial,sans-serif;font-size:12px;font-weight:400;letter-spacing:0em;">balanço 2,40 sobre o terraço</text>
<line x1="410.00" y1="614.80" x2="314.00" y2="835.60" stroke="#1B2117" stroke-width="0.7" opacity="1.0" stroke-linecap="round"/>
<circle cx="410.00" cy="614.80" r="2.2" fill="#1B2117" stroke="#1B2117" stroke-width="1.0"/>
<text x="314.00" y="832.60" fill="#1B2117" text-anchor="start" style="font-family:'DM Sans','Aventa',Helvetica,Arial,sans-serif;font-size:12px;font-weight:400;letter-spacing:0em;">painel SIP 100 mm + ripado termotratado 40 x 40</text>
<line x1="746.00" y1="538.00" x2="592.40" y2="835.60" stroke="#1B2117" stroke-width="0.7" opacity="1.0" stroke-linecap="round"/>
<circle cx="746.00" cy="538.00" r="2.2" fill="#1B2117" stroke="#1B2117" stroke-width="1.0"/>
<text x="592.40" y="832.60" fill="#1B2117" text-anchor="start" style="font-family:'DM Sans','Aventa',Helvetica,Arial,sans-serif;font-size:12px;font-weight:400;letter-spacing:0em;">poste externo PE06 estaiado</text>
<line x1="1130.00" y1="821.20" x2="1130.00" y2="862.48" stroke="#8B714E" stroke-width="0.7" opacity="1.0" stroke-linecap="round"/>
<line x1="218.00" y1="821.20" x2="218.00" y2="862.48" stroke="#8B714E" stroke-width="0.7" opacity="1.0" stroke-linecap="round"/>
<line x1="1130.00" y1="854.80" x2="218.00" y2="854.80" stroke="#8B714E" stroke-width="0.8" opacity="1.0" stroke-linecap="round"/>
<line x1="1126.0" y1="858.8" x2="1134.0" y2="850.8" stroke="#8B714E" stroke-width="1.1"/>
<line x1="214.0" y1="858.8" x2="222.0" y2="850.8" stroke="#8B714E" stroke-width="1.1"/>
<text x="674.00" y="850.80" fill="#8B714E" text-anchor="middle" style="font-family:'DM Sans','Aventa',Helvetica,Arial,sans-serif;font-size:13px;font-weight:400;letter-spacing:0em;">9,50 (corpo)</text>
<line x1="1418.00" y1="821.20" x2="1418.00" y2="862.48" stroke="#8B714E" stroke-width="0.7" opacity="1.0" stroke-linecap="round"/>
<line x1="1130.00" y1="821.20" x2="1130.00" y2="862.48" stroke="#8B714E" stroke-width="0.7" opacity="1.0" stroke-linecap="round"/>
<line x1="1418.00" y1="854.80" x2="1130.00" y2="854.80" stroke="#8B714E" stroke-width="0.8" opacity="1.0" stroke-linecap="round"/>
<line x1="1414.0" y1="858.8" x2="1422.0" y2="850.8" stroke="#8B714E" stroke-width="1.1"/>
<line x1="1126.0" y1="858.8" x2="1134.0" y2="850.8" stroke="#8B714E" stroke-width="1.1"/>
<text x="1274.00" y="850.80" fill="#8B714E" text-anchor="middle" style="font-family:'DM Sans','Aventa',Helvetica,Arial,sans-serif;font-size:13px;font-weight:400;letter-spacing:0em;">3,00 (terraço)</text>
<line x1="1360.40" y1="821.20" x2="1360.40" y2="920.08" stroke="#8B714E" stroke-width="0.7" opacity="1.0" stroke-linecap="round"/>
<line x1="122.00" y1="821.20" x2="122.00" y2="920.08" stroke="#8B714E" stroke-width="0.7" opacity="1.0" stroke-linecap="round"/>
<line x1="1360.40" y1="912.40" x2="122.00" y2="912.40" stroke="#8B714E" stroke-width="0.8" opacity="1.0" stroke-linecap="round"/>
<line x1="1356.4" y1="916.4" x2="1364.4" y2="908.4" stroke="#8B714E" stroke-width="1.1"/>
<line x1="118.0" y1="916.4" x2="126.0" y2="908.4" stroke="#8B714E" stroke-width="1.1"/>
<text x="741.20" y="908.40" fill="#8B714E" text-anchor="middle" style="font-family:'DM Sans','Aventa',Helvetica,Arial,sans-serif;font-size:13px;font-weight:400;letter-spacing:0em;">12,90 (cobertura)</text>
<line x1="45.20" y1="730.00" x2="91.28" y2="730.00" stroke="#8B714E" stroke-width="0.7" opacity="1.0" stroke-linecap="round"/>
<line x1="45.20" y1="173.20" x2="91.28" y2="173.20" stroke="#8B714E" stroke-width="0.7" opacity="1.0" stroke-linecap="round"/>
<line x1="83.60" y1="730.00" x2="83.60" y2="173.20" stroke="#8B714E" stroke-width="0.8" opacity="1.0" stroke-linecap="round"/>
<line x1="79.6" y1="734.0" x2="87.6" y2="726.0" stroke="#8B714E" stroke-width="1.1"/>
<line x1="79.6" y1="177.2" x2="87.6" y2="169.2" stroke="#8B714E" stroke-width="1.1"/>
<text x="83.60" y="447.60" fill="#8B714E" text-anchor="middle" style="font-family:'DM Sans','Aventa',Helvetica,Arial,sans-serif;font-size:13px;font-weight:400;letter-spacing:0em;" transform="rotate(-90 83.60 451.60)">5,80</text>
<line x1="1523.60" y1="730.00" x2="1487.12" y2="730.00" stroke="#8B714E" stroke-width="0.7" opacity="1.0" stroke-linecap="round"/>
<line x1="1523.60" y1="451.60" x2="1487.12" y2="451.60" stroke="#8B714E" stroke-width="0.7" opacity="1.0" stroke-linecap="round"/>
<line x1="1494.80" y1="730.00" x2="1494.80" y2="451.60" stroke="#8B714E" stroke-width="0.8" opacity="1.0" stroke-linecap="round"/>
<line x1="1490.8" y1="734.0" x2="1498.8" y2="726.0" stroke="#8B714E" stroke-width="1.1"/>
<line x1="1490.8" y1="455.6" x2="1498.8" y2="447.6" stroke="#8B714E" stroke-width="1.1"/>
<text x="1494.80" y="586.80" fill="#8B714E" text-anchor="middle" style="font-family:'DM Sans','Aventa',Helvetica,Arial,sans-serif;font-size:13px;font-weight:400;letter-spacing:0em;" transform="rotate(-90 1494.80 590.80)">2,90 (beiral)</text>
<text x="1571.60" y="158.80" fill="#8B714E" text-anchor="end" style="font-family:'DM Sans','Aventa',Helvetica,Arial,sans-serif;font-size:10px;font-weight:400;letter-spacing:0em;">+5,80</text>
<text x="1571.60" y="718.48" fill="#8B714E" text-anchor="end" style="font-family:'DM Sans','Aventa',Helvetica,Arial,sans-serif;font-size:10px;font-weight:400;letter-spacing:0em;">+0,00</text>
<text x="1571.60" y="778.00" fill="#8B714E" text-anchor="end" style="font-family:'DM Sans','Aventa',Helvetica,Arial,sans-serif;font-size:10px;font-weight:400;letter-spacing:0em;">-0,60</text>
<rect x="26.0" y="948.9" width="96.0" height="11.5" fill="#1B2117" stroke="#1B2117" stroke-width="0.7"/>
<rect x="122.0" y="948.9" width="96.0" height="11.5" fill="#FEF5F0" stroke="#1B2117" stroke-width="0.7"/>
<rect x="218.0" y="948.9" width="96.0" height="11.5" fill="#1B2117" stroke="#1B2117" stroke-width="0.7"/>
<rect x="314.0" y="948.9" width="96.0" height="11.5" fill="#FEF5F0" stroke="#1B2117" stroke-width="0.7"/>
<rect x="410.0" y="948.9" width="96.0" height="11.5" fill="#1B2117" stroke="#1B2117" stroke-width="0.7"/>
<text x="26.00" y="974.40" fill="#1B2117" text-anchor="middle" style="font-family:'DM Sans','Aventa',Helvetica,Arial,sans-serif;font-size:10px;font-weight:400;letter-spacing:0em;">0</text>
<text x="122.00" y="974.40" fill="#1B2117" text-anchor="middle" style="font-family:'DM Sans','Aventa',Helvetica,Arial,sans-serif;font-size:10px;font-weight:400;letter-spacing:0em;">1</text>
<text x="218.00" y="974.40" fill="#1B2117" text-anchor="middle" style="font-family:'DM Sans','Aventa',Helvetica,Arial,sans-serif;font-size:10px;font-weight:400;letter-spacing:0em;">2</text>
<text x="314.00" y="974.40" fill="#1B2117" text-anchor="middle" style="font-family:'DM Sans','Aventa',Helvetica,Arial,sans-serif;font-size:10px;font-weight:400;letter-spacing:0em;">3</text>
<text x="410.00" y="974.40" fill="#1B2117" text-anchor="middle" style="font-family:'DM Sans','Aventa',Helvetica,Arial,sans-serif;font-size:10px;font-weight:400;letter-spacing:0em;">4</text>
<text x="506.00" y="974.40" fill="#1B2117" text-anchor="middle" style="font-family:'DM Sans','Aventa',Helvetica,Arial,sans-serif;font-size:10px;font-weight:400;letter-spacing:0em;">5</text>
<text x="520.00" y="958.40" fill="#1B2117" text-anchor="start" style="font-family:'DM Sans','Aventa',Helvetica,Arial,sans-serif;font-size:10px;font-weight:400;letter-spacing:0em;">m</text>
<rect x="1010" y="880" width="560" height="96" fill="#FEF5F0" stroke="#1B2117" stroke-width="1.2"/>
<line x1="1210" y1="880" x2="1210" y2="976" stroke="#1B2117" stroke-width="0.8"/>
<line x1="1010" y1="926" x2="1570" y2="926" stroke="#1B2117" stroke-width="0.8"/>
<text x="1110.00" y="904.00" fill="#1B2117" text-anchor="middle" style="font-family:'DM Sans','Aventa',Helvetica,Arial,sans-serif;font-size:20px;font-weight:800;letter-spacing:0.35em;">ZION</text>
<text x="1110.00" y="918.00" fill="#8B714E" text-anchor="middle" style="font-family:'DM Sans','Aventa',Helvetica,Arial,sans-serif;font-size:8.5px;font-weight:400;letter-spacing:0.3em;">GLAMPING COLLECTION</text>
<text x="1110.00" y="948.00" fill="#1B2117" text-anchor="middle" style="font-family:'DM Sans','Aventa',Helvetica,Arial,sans-serif;font-size:12px;font-weight:700;letter-spacing:0.2em;">ZION ZENITH</text>
<text x="1110.00" y="964.00" fill="#8B714E" text-anchor="middle" style="font-family:'DM Sans','Aventa',Helvetica,Arial,sans-serif;font-size:7.5px;font-weight:400;letter-spacing:0.2em;">ZION HOTEL GROUP INTERNATIONAL</text>
<text x="1224.00" y="902.00" fill="#1B2117" text-anchor="start" style="font-family:'DM Sans','Aventa',Helvetica,Arial,sans-serif;font-size:14px;font-weight:700;letter-spacing:0.12em;">FACHADA LATERAL ESQUERDA</text>
<text x="1224.00" y="918.00" fill="#8B714E" text-anchor="start" style="font-family:'DM Sans','Aventa',Helvetica,Arial,sans-serif;font-size:10px;font-weight:400;letter-spacing:0em;">Complementa a fachada lateral direita (PA-08a)</text>
<text x="1224.00" y="946.00" fill="#1B2117" text-anchor="start" style="font-family:'DM Sans','Aventa',Helvetica,Arial,sans-serif;font-size:10px;font-weight:400;letter-spacing:0.15em;">ESCALA 1:50 (A1)</text>
<text x="1224.00" y="964.00" fill="#8B714E" text-anchor="start" style="font-family:'DM Sans','Aventa',Helvetica,Arial,sans-serif;font-size:8px;font-weight:400;letter-spacing:0.1em;">PROJETO CONCEITUAL · ESTUDO PRELIMINAR</text>
<text x="1556.00" y="946.00" fill="#1B2117" text-anchor="end" style="font-family:'DM Sans','Aventa',Helvetica,Arial,sans-serif;font-size:10px;font-weight:600;letter-spacing:0.15em;">FOLHA PA-08b</text>
<text x="1556.00" y="964.00" fill="#8B714E" text-anchor="end" style="font-family:'DM Sans','Aventa',Helvetica,Arial,sans-serif;font-size:8px;font-weight:400;letter-spacing:0.15em;">SET 2026</text></svg>