<svg xmlns="http://www.w3.org/2000/svg" viewBox="0 0 1600 1000" width="1600" height="1000" font-family="'DM Sans','Aventa',Helvetica,Arial,sans-serif"><defs><pattern id="wood" width="60" height="9" patternUnits="userSpaceOnUse"><rect width="60" height="9" fill="#D9C4A3"/><line x1="0" y1="8.5" x2="60" y2="8.5" stroke="#B99A73" stroke-width="0.6" opacity="0.7"/></pattern></defs><rect width="1600" height="1000" fill="#FEF5F0"/><g transform="translate(40.00,22.00) scale(0.4400)"><circle cx="50" cy="50" r="46.5" fill="none" stroke="#1B2117" stroke-width="3.2"/><polygon points="27,30 73,30 73,38.5 41,61.5 73,61.5 73,70 27,70 27,61.5 59,38.5 27,38.5" fill="#1B2117"/></g>
<text x="100.00" y="46.00" fill="#1B2117" text-anchor="start" style="font-family:'DM Sans','Aventa',Helvetica,Arial,sans-serif;font-size:22px;font-weight:700;letter-spacing:0.28em;">ZION CASULO · QUADRO DE ESQUADRIAS</text>
<text x="100.00" y="68.00" fill="#8B714E" text-anchor="start" style="font-family:'DM Sans','Aventa',Helvetica,Arial,sans-serif;font-size:12px;font-weight:400;letter-spacing:0.08em;">Vistas externas em 1:50 · dimensões em metros (largura x altura) · vidro insulado 6 lam + 12 Ar + 6 temp low-e · alumínio bronze com ruptura térmica</text>
<line x1="40" y1="82" x2="1560" y2="82" stroke="#1B2117" stroke-width="0.6" opacity="0.5"/>
<polygon points="120.00,380.00 170.00,380.00 170.00,260.00 120.00,260.00" fill="#BFD0D6" stroke="#1B2117" stroke-width="1.2" opacity="1.0" stroke-linejoin="round" stroke-linecap="round" />
<line x1="120.00" y1="380.00" x2="120.00" y2="401.50" stroke="#8B714E" stroke-width="0.7" opacity="1.0" stroke-linecap="round"/>
<line x1="170.00" y1="380.00" x2="170.00" y2="401.50" stroke="#8B714E" stroke-width="0.7" opacity="1.0" stroke-linecap="round"/>
<line x1="120.00" y1="397.50" x2="170.00" y2="397.50" stroke="#8B714E" stroke-width="0.8" opacity="1.0" stroke-linecap="round"/>
<line x1="116.0" y1="401.5" x2="124.0" y2="393.5" stroke="#8B714E" stroke-width="1.1"/>
<line x1="166.0" y1="401.5" x2="174.0" y2="393.5" stroke="#8B714E" stroke-width="1.1"/>
<text x="145.00" y="393.50" fill="#8B714E" text-anchor="middle" style="font-family:'DM Sans','Aventa',Helvetica,Arial,sans-serif;font-size:10px;font-weight:400;letter-spacing:0em;">1,00</text>
<line x1="170.00" y1="380.00" x2="191.50" y2="380.00" stroke="#8B714E" stroke-width="0.7" opacity="1.0" stroke-linecap="round"/>
<line x1="170.00" y1="260.00" x2="191.50" y2="260.00" stroke="#8B714E" stroke-width="0.7" opacity="1.0" stroke-linecap="round"/>
<line x1="187.50" y1="380.00" x2="187.50" y2="260.00" stroke="#8B714E" stroke-width="0.8" opacity="1.0" stroke-linecap="round"/>
<line x1="183.5" y1="384.0" x2="191.5" y2="376.0" stroke="#8B714E" stroke-width="1.1"/>
<line x1="183.5" y1="264.0" x2="191.5" y2="256.0" stroke="#8B714E" stroke-width="1.1"/>
<text x="187.50" y="316.00" fill="#8B714E" text-anchor="middle" style="font-family:'DM Sans','Aventa',Helvetica,Arial,sans-serif;font-size:10px;font-weight:400;letter-spacing:0em;" transform="rotate(-90 187.50 320.00)">2,40</text>
<text x="145.00" y="237.50" fill="#1B2117" text-anchor="middle" style="font-family:'DM Sans','Aventa',Helvetica,Arial,sans-serif;font-size:11px;font-weight:700;letter-spacing:0em;">PV1 · 1 un.</text>
<polygon points="255.74,379.34 254.29,370.17 253.24,360.91 252.62,351.59 252.42,342.25 252.64,332.91 253.29,323.59 254.35,314.34 255.83,305.18 257.73,296.13 260.03,287.23 262.72,278.50 265.81,269.97 269.28,261.67 273.12,253.62 277.31,245.86 281.85,238.39 286.72,231.26 291.91,224.47 297.39,218.05 303.16,212.03 309.19,206.41 315.46,201.22 321.96,196.48 328.66,192.19 335.55,188.38 342.59,185.05 349.78,182.21 357.08,179.88 364.48,178.06 371.95,176.75 379.46,175.97 387.00,175.70 394.54,175.97 402.05,176.75 409.52,178.06 416.92,179.88 424.22,182.21 431.41,185.05 438.45,188.38 445.34,192.19 452.04,196.48 458.54,201.22 464.81,206.41 470.84,212.03 476.61,218.05 482.09,224.47 487.28,231.26 492.15,238.39 496.69,245.86 500.88,253.62 504.72,261.67 508.19,269.97 511.28,278.50 513.97,287.23 516.27,296.13 518.17,305.18 519.65,314.34 520.71,323.59 521.36,332.91 521.58,342.25 521.38,351.59 520.76,360.91 519.71,370.17 518.26,379.34" fill="#BFD0D6" stroke="#1B2117" stroke-width="1.2" opacity="1.0" stroke-linejoin="round" stroke-linecap="round" />
<line x1="307.00" y1="380.00" x2="307.00" y2="208.37" stroke="#1B2117" stroke-width="1.0" opacity="1.0" stroke-linecap="round"/>
<line x1="362.00" y1="380.00" x2="362.00" y2="178.61" stroke="#1B2117" stroke-width="1.0" opacity="1.0" stroke-linecap="round"/>
<line x1="412.00" y1="380.00" x2="412.00" y2="178.61" stroke="#1B2117" stroke-width="1.0" opacity="1.0" stroke-linecap="round"/>
<line x1="467.00" y1="380.00" x2="467.00" y2="208.37" stroke="#1B2117" stroke-width="1.0" opacity="1.0" stroke-linecap="round"/>
<line x1="272.00" y1="260.00" x2="502.00" y2="260.00" stroke="#1B2117" stroke-width="1.0" opacity="1.0" stroke-linecap="round"/>
<polygon points="307.00,380.00 357.00,380.00 357.00,260.00 307.00,260.00" fill="none" stroke="#1B2117" stroke-width="1.6" opacity="1.0" stroke-linejoin="round" stroke-linecap="round" />
<text x="332.00" y="320.00" fill="#1B2117" text-anchor="middle" style="font-family:'DM Sans','Aventa',Helvetica,Arial,sans-serif;font-size:9px;font-weight:400;letter-spacing:0em;">PV1</text>
<line x1="265.00" y1="380.00" x2="265.00" y2="401.50" stroke="#8B714E" stroke-width="0.7" opacity="1.0" stroke-linecap="round"/>
<line x1="509.00" y1="380.00" x2="509.00" y2="401.50" stroke="#8B714E" stroke-width="0.7" opacity="1.0" stroke-linecap="round"/>
<line x1="265.00" y1="397.50" x2="509.00" y2="397.50" stroke="#8B714E" stroke-width="0.8" opacity="1.0" stroke-linecap="round"/>
<line x1="261.0" y1="401.5" x2="269.0" y2="393.5" stroke="#8B714E" stroke-width="1.1"/>
<line x1="505.0" y1="401.5" x2="513.0" y2="393.5" stroke="#8B714E" stroke-width="1.1"/>
<text x="387.00" y="393.50" fill="#8B714E" text-anchor="middle" style="font-family:'DM Sans','Aventa',Helvetica,Arial,sans-serif;font-size:10px;font-weight:400;letter-spacing:0em;">4,88</text>
<line x1="509.00" y1="380.00" x2="530.50" y2="380.00" stroke="#8B714E" stroke-width="0.7" opacity="1.0" stroke-linecap="round"/>
<line x1="509.00" y1="173.50" x2="530.50" y2="173.50" stroke="#8B714E" stroke-width="0.7" opacity="1.0" stroke-linecap="round"/>
<line x1="526.50" y1="380.00" x2="526.50" y2="173.50" stroke="#8B714E" stroke-width="0.8" opacity="1.0" stroke-linecap="round"/>
<line x1="522.5" y1="384.0" x2="530.5" y2="376.0" stroke="#8B714E" stroke-width="1.1"/>
<line x1="522.5" y1="177.5" x2="530.5" y2="169.5" stroke="#8B714E" stroke-width="1.1"/>
<text x="526.50" y="272.75" fill="#8B714E" text-anchor="middle" style="font-family:'DM Sans','Aventa',Helvetica,Arial,sans-serif;font-size:10px;font-weight:400;letter-spacing:0em;" transform="rotate(-90 526.50 276.75)">4,13</text>
<text x="387.00" y="151.00" fill="#1B2117" text-anchor="middle" style="font-family:'DM Sans','Aventa',Helvetica,Arial,sans-serif;font-size:11px;font-weight:700;letter-spacing:0em;">V1 · 1 un.</text>
<polygon points="684.00,356.25 682.77,353.22 680.68,350.41 678.17,347.85 675.39,345.49 672.39,343.31 669.20,341.29 665.79,339.39 662.12,337.61 658.15,335.96 653.83,334.47 649.10,333.23 644.00,332.50 638.90,333.23 634.17,334.47 629.85,335.96 625.88,337.61 622.21,339.39 618.80,341.29 615.61,343.31 612.61,345.49 609.83,347.85 607.32,350.41 605.23,353.22 604.00,356.25 605.23,359.28 607.32,362.09 609.83,364.65 612.61,367.01 615.61,369.19 618.80,371.21 622.21,373.11 625.88,374.89 629.85,376.54 634.17,378.03 638.90,379.27 644.00,380.00 649.10,379.27 653.83,378.03 658.15,376.54 662.12,374.89 665.79,373.11 669.20,371.21 672.39,369.19 675.39,367.01 678.17,364.65 680.68,362.09 682.77,359.28" fill="#BFD0D6" stroke="#1B2117" stroke-width="1.2" opacity="1.0" stroke-linejoin="round" stroke-linecap="round" />
<polygon points="689.50,356.25 688.11,352.52 685.73,349.06 682.87,345.90 679.70,343.00 676.30,340.32 672.66,337.82 668.78,335.49 664.61,333.30 660.10,331.26 655.18,329.43 649.81,327.90 644.00,327.00 638.19,327.90 632.82,329.43 627.90,331.26 623.39,333.30 619.22,335.49 615.34,337.82 611.70,340.32 608.30,343.00 605.13,345.90 602.27,349.06 599.89,352.52 598.50,356.25 599.89,359.98 602.27,363.44 605.13,366.60 608.30,369.50 611.70,372.18 615.34,374.68 619.22,377.01 623.39,379.20 627.90,381.24 632.82,383.07 638.19,384.60 644.00,385.50 649.81,384.60 655.18,383.07 660.10,381.24 664.61,379.20 668.78,377.01 672.66,374.68 676.30,372.18 679.70,369.50 682.87,366.60 685.73,363.44 688.11,359.98" fill="none" stroke="#B99A73" stroke-width="3" opacity="1.0" stroke-linejoin="round" stroke-linecap="round" />
<polyline points="609.00,372.50 644.00,338.50 679.00,372.50" fill="none" stroke="#1B2117" stroke-width="0.6" stroke-dasharray="3 2" opacity="1.0" stroke-linejoin="round" stroke-linecap="round" />
<line x1="604.00" y1="380.00" x2="604.00" y2="401.50" stroke="#8B714E" stroke-width="0.7" opacity="1.0" stroke-linecap="round"/>
<line x1="684.00" y1="380.00" x2="684.00" y2="401.50" stroke="#8B714E" stroke-width="0.7" opacity="1.0" stroke-linecap="round"/>
<line x1="604.00" y1="397.50" x2="684.00" y2="397.50" stroke="#8B714E" stroke-width="0.8" opacity="1.0" stroke-linecap="round"/>
<line x1="600.0" y1="401.5" x2="608.0" y2="393.5" stroke="#8B714E" stroke-width="1.1"/>
<line x1="680.0" y1="401.5" x2="688.0" y2="393.5" stroke="#8B714E" stroke-width="1.1"/>
<text x="644.00" y="393.50" fill="#8B714E" text-anchor="middle" style="font-family:'DM Sans','Aventa',Helvetica,Arial,sans-serif;font-size:10px;font-weight:400;letter-spacing:0em;">1,60</text>
<line x1="684.00" y1="380.00" x2="705.50" y2="380.00" stroke="#8B714E" stroke-width="0.7" opacity="1.0" stroke-linecap="round"/>
<line x1="684.00" y1="332.50" x2="705.50" y2="332.50" stroke="#8B714E" stroke-width="0.7" opacity="1.0" stroke-linecap="round"/>
<line x1="701.50" y1="380.00" x2="701.50" y2="332.50" stroke="#8B714E" stroke-width="0.8" opacity="1.0" stroke-linecap="round"/>
<line x1="697.5" y1="384.0" x2="705.5" y2="376.0" stroke="#8B714E" stroke-width="1.1"/>
<line x1="697.5" y1="336.5" x2="705.5" y2="328.5" stroke="#8B714E" stroke-width="1.1"/>
<text x="701.50" y="352.25" fill="#8B714E" text-anchor="middle" style="font-family:'DM Sans','Aventa',Helvetica,Arial,sans-serif;font-size:10px;font-weight:400;letter-spacing:0em;" transform="rotate(-90 701.50 356.25)">0,95</text>
<text x="644.00" y="310.00" fill="#1B2117" text-anchor="middle" style="font-family:'DM Sans','Aventa',Helvetica,Arial,sans-serif;font-size:11px;font-weight:700;letter-spacing:0em;">JO1 · 2 un.</text>
<polygon points="859.00,356.25 857.77,353.22 855.68,350.41 853.17,347.85 850.39,345.49 847.39,343.31 844.20,341.29 840.79,339.39 837.12,337.61 833.15,335.96 828.83,334.47 824.10,333.23 819.00,332.50 813.90,333.23 809.17,334.47 804.85,335.96 800.88,337.61 797.21,339.39 793.80,341.29 790.61,343.31 787.61,345.49 784.83,347.85 782.32,350.41 780.23,353.22 779.00,356.25 780.23,359.28 782.32,362.09 784.83,364.65 787.61,367.01 790.61,369.19 793.80,371.21 797.21,373.11 800.88,374.89 804.85,376.54 809.17,378.03 813.90,379.27 819.00,380.00 824.10,379.27 828.83,378.03 833.15,376.54 837.12,374.89 840.79,373.11 844.20,371.21 847.39,369.19 850.39,367.01 853.17,364.65 855.68,362.09 857.77,359.28" fill="#BFD0D6" stroke="#1B2117" stroke-width="1.2" opacity="1.0" stroke-linejoin="round" stroke-linecap="round" />
<polygon points="864.50,356.25 863.11,352.52 860.73,349.06 857.87,345.90 854.70,343.00 851.30,340.32 847.66,337.82 843.78,335.49 839.61,333.30 835.10,331.26 830.18,329.43 824.81,327.90 819.00,327.00 813.19,327.90 807.82,329.43 802.90,331.26 798.39,333.30 794.22,335.49 790.34,337.82 786.70,340.32 783.30,343.00 780.13,345.90 777.27,349.06 774.89,352.52 773.50,356.25 774.89,359.98 777.27,363.44 780.13,366.60 783.30,369.50 786.70,372.18 790.34,374.68 794.22,377.01 798.39,379.20 802.90,381.24 807.82,383.07 813.19,384.60 819.00,385.50 824.81,384.60 830.18,383.07 835.10,381.24 839.61,379.20 843.78,377.01 847.66,374.68 851.30,372.18 854.70,369.50 857.87,366.60 860.73,363.44 863.11,359.98" fill="none" stroke="#B99A73" stroke-width="3" opacity="1.0" stroke-linejoin="round" stroke-linecap="round" />
<line x1="779.00" y1="380.00" x2="779.00" y2="401.50" stroke="#8B714E" stroke-width="0.7" opacity="1.0" stroke-linecap="round"/>
<line x1="859.00" y1="380.00" x2="859.00" y2="401.50" stroke="#8B714E" stroke-width="0.7" opacity="1.0" stroke-linecap="round"/>
<line x1="779.00" y1="397.50" x2="859.00" y2="397.50" stroke="#8B714E" stroke-width="0.8" opacity="1.0" stroke-linecap="round"/>
<line x1="775.0" y1="401.5" x2="783.0" y2="393.5" stroke="#8B714E" stroke-width="1.1"/>
<line x1="855.0" y1="401.5" x2="863.0" y2="393.5" stroke="#8B714E" stroke-width="1.1"/>
<text x="819.00" y="393.50" fill="#8B714E" text-anchor="middle" style="font-family:'DM Sans','Aventa',Helvetica,Arial,sans-serif;font-size:10px;font-weight:400;letter-spacing:0em;">1,60</text>
<line x1="859.00" y1="380.00" x2="880.50" y2="380.00" stroke="#8B714E" stroke-width="0.7" opacity="1.0" stroke-linecap="round"/>
<line x1="859.00" y1="332.50" x2="880.50" y2="332.50" stroke="#8B714E" stroke-width="0.7" opacity="1.0" stroke-linecap="round"/>
<line x1="876.50" y1="380.00" x2="876.50" y2="332.50" stroke="#8B714E" stroke-width="0.8" opacity="1.0" stroke-linecap="round"/>
<line x1="872.5" y1="384.0" x2="880.5" y2="376.0" stroke="#8B714E" stroke-width="1.1"/>
<line x1="872.5" y1="336.5" x2="880.5" y2="328.5" stroke="#8B714E" stroke-width="1.1"/>
<text x="876.50" y="352.25" fill="#8B714E" text-anchor="middle" style="font-family:'DM Sans','Aventa',Helvetica,Arial,sans-serif;font-size:10px;font-weight:400;letter-spacing:0em;" transform="rotate(-90 876.50 356.25)">0,95</text>
<text x="819.00" y="310.00" fill="#1B2117" text-anchor="middle" style="font-family:'DM Sans','Aventa',Helvetica,Arial,sans-serif;font-size:11px;font-weight:700;letter-spacing:0em;">JO2 · 1 un.</text>
<polygon points="1024.00,360.00 1022.93,357.45 1021.10,355.09 1018.90,352.92 1016.46,350.94 1013.84,349.11 1011.05,347.40 1008.06,345.80 1004.86,344.31 1001.38,342.92 997.60,341.66 993.47,340.61 989.00,340.00 984.53,340.61 980.40,341.66 976.62,342.92 973.14,344.31 969.94,345.80 966.95,347.40 964.16,349.11 961.54,350.94 959.10,352.92 956.90,355.09 955.07,357.45 954.00,360.00 955.07,362.55 956.90,364.91 959.10,367.08 961.54,369.06 964.16,370.89 966.95,372.60 969.94,374.20 973.14,375.69 976.62,377.08 980.40,378.34 984.53,379.39 989.00,380.00 993.47,379.39 997.60,378.34 1001.38,377.08 1004.86,375.69 1008.06,374.20 1011.05,372.60 1013.84,370.89 1016.46,369.06 1018.90,367.08 1021.10,364.91 1022.93,362.55" fill="#BFD0D6" stroke="#1B2117" stroke-width="1.2" opacity="1.0" stroke-linejoin="round" stroke-linecap="round" />
<polygon points="1029.50,360.00 1028.26,356.75 1026.14,353.73 1023.60,350.98 1020.78,348.45 1017.75,346.11 1014.51,343.94 1011.06,341.90 1007.35,339.99 1003.33,338.22 998.95,336.62 994.17,335.28 989.00,334.50 983.83,335.28 979.05,336.62 974.67,338.22 970.65,339.99 966.94,341.90 963.49,343.94 960.25,346.11 957.22,348.45 954.40,350.98 951.86,353.73 949.74,356.75 948.50,360.00 949.74,363.25 951.86,366.27 954.40,369.02 957.22,371.55 960.25,373.89 963.49,376.06 966.94,378.10 970.65,380.01 974.67,381.78 979.05,383.38 983.83,384.72 989.00,385.50 994.17,384.72 998.95,383.38 1003.33,381.78 1007.35,380.01 1011.06,378.10 1014.51,376.06 1017.75,373.89 1020.78,371.55 1023.60,369.02 1026.14,366.27 1028.26,363.25" fill="none" stroke="#B99A73" stroke-width="3" opacity="1.0" stroke-linejoin="round" stroke-linecap="round" />
<line x1="954.00" y1="380.00" x2="954.00" y2="401.50" stroke="#8B714E" stroke-width="0.7" opacity="1.0" stroke-linecap="round"/>
<line x1="1024.00" y1="380.00" x2="1024.00" y2="401.50" stroke="#8B714E" stroke-width="0.7" opacity="1.0" stroke-linecap="round"/>
<line x1="954.00" y1="397.50" x2="1024.00" y2="397.50" stroke="#8B714E" stroke-width="0.8" opacity="1.0" stroke-linecap="round"/>
<line x1="950.0" y1="401.5" x2="958.0" y2="393.5" stroke="#8B714E" stroke-width="1.1"/>
<line x1="1020.0" y1="401.5" x2="1028.0" y2="393.5" stroke="#8B714E" stroke-width="1.1"/>
<text x="989.00" y="393.50" fill="#8B714E" text-anchor="middle" style="font-family:'DM Sans','Aventa',Helvetica,Arial,sans-serif;font-size:10px;font-weight:400;letter-spacing:0em;">1,40</text>
<line x1="1024.00" y1="380.00" x2="1045.50" y2="380.00" stroke="#8B714E" stroke-width="0.7" opacity="1.0" stroke-linecap="round"/>
<line x1="1024.00" y1="340.00" x2="1045.50" y2="340.00" stroke="#8B714E" stroke-width="0.7" opacity="1.0" stroke-linecap="round"/>
<line x1="1041.50" y1="380.00" x2="1041.50" y2="340.00" stroke="#8B714E" stroke-width="0.8" opacity="1.0" stroke-linecap="round"/>
<line x1="1037.5" y1="384.0" x2="1045.5" y2="376.0" stroke="#8B714E" stroke-width="1.1"/>
<line x1="1037.5" y1="344.0" x2="1045.5" y2="336.0" stroke="#8B714E" stroke-width="1.1"/>
<text x="1041.50" y="356.00" fill="#8B714E" text-anchor="middle" style="font-family:'DM Sans','Aventa',Helvetica,Arial,sans-serif;font-size:10px;font-weight:400;letter-spacing:0em;" transform="rotate(-90 1041.50 360.00)">0,80</text>
<text x="989.00" y="317.50" fill="#1B2117" text-anchor="middle" style="font-family:'DM Sans','Aventa',Helvetica,Arial,sans-serif;font-size:11px;font-weight:700;letter-spacing:0em;">JO3 · 1 un.</text>
<polygon points="1174.00,365.00 1173.16,363.09 1171.72,361.31 1169.99,359.69 1168.08,358.20 1166.02,356.83 1163.82,355.55 1161.48,354.35 1158.96,353.23 1156.23,352.19 1153.26,351.24 1150.01,350.46 1146.50,350.00 1142.99,350.46 1139.74,351.24 1136.77,352.19 1134.04,353.23 1131.52,354.35 1129.18,355.55 1126.98,356.83 1124.92,358.20 1123.01,359.69 1121.28,361.31 1119.84,363.09 1119.00,365.00 1119.84,366.91 1121.28,368.69 1123.01,370.31 1124.92,371.80 1126.98,373.17 1129.18,374.45 1131.52,375.65 1134.04,376.77 1136.77,377.81 1139.74,378.76 1142.99,379.54 1146.50,380.00 1150.01,379.54 1153.26,378.76 1156.23,377.81 1158.96,376.77 1161.48,375.65 1163.82,374.45 1166.02,373.17 1168.08,371.80 1169.99,370.31 1171.72,368.69 1173.16,366.91" fill="#BFD0D6" stroke="#1B2117" stroke-width="1.2" opacity="1.0" stroke-linejoin="round" stroke-linecap="round" />
<polygon points="1179.50,365.00 1178.49,362.38 1176.76,359.96 1174.69,357.75 1172.39,355.71 1169.92,353.83 1167.29,352.09 1164.47,350.45 1161.45,348.91 1158.18,347.49 1154.61,346.20 1150.71,345.13 1146.50,344.50 1142.29,345.13 1138.39,346.20 1134.82,347.49 1131.55,348.91 1128.53,350.45 1125.71,352.09 1123.08,353.83 1120.61,355.71 1118.31,357.75 1116.24,359.96 1114.51,362.38 1113.50,365.00 1114.51,367.62 1116.24,370.04 1118.31,372.25 1120.61,374.29 1123.08,376.17 1125.71,377.91 1128.53,379.55 1131.55,381.09 1134.82,382.51 1138.39,383.80 1142.29,384.87 1146.50,385.50 1150.71,384.87 1154.61,383.80 1158.18,382.51 1161.45,381.09 1164.47,379.55 1167.29,377.91 1169.92,376.17 1172.39,374.29 1174.69,372.25 1176.76,370.04 1178.49,367.62" fill="none" stroke="#B99A73" stroke-width="3" opacity="1.0" stroke-linejoin="round" stroke-linecap="round" />
<line x1="1119.00" y1="380.00" x2="1119.00" y2="401.50" stroke="#8B714E" stroke-width="0.7" opacity="1.0" stroke-linecap="round"/>
<line x1="1174.00" y1="380.00" x2="1174.00" y2="401.50" stroke="#8B714E" stroke-width="0.7" opacity="1.0" stroke-linecap="round"/>
<line x1="1119.00" y1="397.50" x2="1174.00" y2="397.50" stroke="#8B714E" stroke-width="0.8" opacity="1.0" stroke-linecap="round"/>
<line x1="1115.0" y1="401.5" x2="1123.0" y2="393.5" stroke="#8B714E" stroke-width="1.1"/>
<line x1="1170.0" y1="401.5" x2="1178.0" y2="393.5" stroke="#8B714E" stroke-width="1.1"/>
<text x="1146.50" y="393.50" fill="#8B714E" text-anchor="middle" style="font-family:'DM Sans','Aventa',Helvetica,Arial,sans-serif;font-size:10px;font-weight:400;letter-spacing:0em;">1,10</text>
<line x1="1174.00" y1="380.00" x2="1195.50" y2="380.00" stroke="#8B714E" stroke-width="0.7" opacity="1.0" stroke-linecap="round"/>
<line x1="1174.00" y1="350.00" x2="1195.50" y2="350.00" stroke="#8B714E" stroke-width="0.7" opacity="1.0" stroke-linecap="round"/>
<line x1="1191.50" y1="380.00" x2="1191.50" y2="350.00" stroke="#8B714E" stroke-width="0.8" opacity="1.0" stroke-linecap="round"/>
<line x1="1187.5" y1="384.0" x2="1195.5" y2="376.0" stroke="#8B714E" stroke-width="1.1"/>
<line x1="1187.5" y1="354.0" x2="1195.5" y2="346.0" stroke="#8B714E" stroke-width="1.1"/>
<text x="1191.50" y="361.00" fill="#8B714E" text-anchor="middle" style="font-family:'DM Sans','Aventa',Helvetica,Arial,sans-serif;font-size:10px;font-weight:400;letter-spacing:0em;" transform="rotate(-90 1191.50 365.00)">0,60</text>
<text x="1146.50" y="327.50" fill="#1B2117" text-anchor="middle" style="font-family:'DM Sans','Aventa',Helvetica,Arial,sans-serif;font-size:11px;font-weight:700;letter-spacing:0em;">JO4 · 1 un.</text>
<polygon points="1314.00,367.50 1313.31,365.90 1312.13,364.43 1310.72,363.08 1309.16,361.84 1307.47,360.69 1305.67,359.63 1303.75,358.63 1301.69,357.69 1299.46,356.82 1297.03,356.04 1294.37,355.38 1291.50,355.00 1288.63,355.38 1285.97,356.04 1283.54,356.82 1281.31,357.69 1279.25,358.63 1277.33,359.63 1275.53,360.69 1273.84,361.84 1272.28,363.08 1270.87,364.43 1269.69,365.90 1269.00,367.50 1269.69,369.10 1270.87,370.57 1272.28,371.92 1273.84,373.16 1275.53,374.31 1277.33,375.37 1279.25,376.37 1281.31,377.31 1283.54,378.18 1285.97,378.96 1288.63,379.62 1291.50,380.00 1294.37,379.62 1297.03,378.96 1299.46,378.18 1301.69,377.31 1303.75,376.37 1305.67,375.37 1307.47,374.31 1309.16,373.16 1310.72,371.92 1312.13,370.57 1313.31,369.10" fill="#BFD0D6" stroke="#1B2117" stroke-width="1.2" opacity="1.0" stroke-linejoin="round" stroke-linecap="round" />
<polygon points="1319.50,367.50 1318.64,365.20 1317.18,363.08 1315.42,361.13 1313.47,359.35 1311.37,357.70 1309.14,356.16 1306.75,354.72 1304.18,353.38 1301.41,352.12 1298.38,350.99 1295.07,350.05 1291.50,349.50 1287.93,350.05 1284.62,350.99 1281.59,352.12 1278.82,353.38 1276.25,354.72 1273.86,356.16 1271.63,357.70 1269.53,359.35 1267.58,361.13 1265.82,363.08 1264.36,365.20 1263.50,367.50 1264.36,369.80 1265.82,371.92 1267.58,373.87 1269.53,375.65 1271.63,377.30 1273.86,378.84 1276.25,380.28 1278.82,381.62 1281.59,382.88 1284.62,384.01 1287.93,384.95 1291.50,385.50 1295.07,384.95 1298.38,384.01 1301.41,382.88 1304.18,381.62 1306.75,380.28 1309.14,378.84 1311.37,377.30 1313.47,375.65 1315.42,373.87 1317.18,371.92 1318.64,369.80" fill="none" stroke="#B99A73" stroke-width="3" opacity="1.0" stroke-linejoin="round" stroke-linecap="round" />
<line x1="1269.00" y1="380.00" x2="1269.00" y2="401.50" stroke="#8B714E" stroke-width="0.7" opacity="1.0" stroke-linecap="round"/>
<line x1="1314.00" y1="380.00" x2="1314.00" y2="401.50" stroke="#8B714E" stroke-width="0.7" opacity="1.0" stroke-linecap="round"/>
<line x1="1269.00" y1="397.50" x2="1314.00" y2="397.50" stroke="#8B714E" stroke-width="0.8" opacity="1.0" stroke-linecap="round"/>
<line x1="1265.0" y1="401.5" x2="1273.0" y2="393.5" stroke="#8B714E" stroke-width="1.1"/>
<line x1="1310.0" y1="401.5" x2="1318.0" y2="393.5" stroke="#8B714E" stroke-width="1.1"/>
<text x="1291.50" y="393.50" fill="#8B714E" text-anchor="middle" style="font-family:'DM Sans','Aventa',Helvetica,Arial,sans-serif;font-size:10px;font-weight:400;letter-spacing:0em;">0,90</text>
<line x1="1314.00" y1="380.00" x2="1335.50" y2="380.00" stroke="#8B714E" stroke-width="0.7" opacity="1.0" stroke-linecap="round"/>
<line x1="1314.00" y1="355.00" x2="1335.50" y2="355.00" stroke="#8B714E" stroke-width="0.7" opacity="1.0" stroke-linecap="round"/>
<line x1="1331.50" y1="380.00" x2="1331.50" y2="355.00" stroke="#8B714E" stroke-width="0.8" opacity="1.0" stroke-linecap="round"/>
<line x1="1327.5" y1="384.0" x2="1335.5" y2="376.0" stroke="#8B714E" stroke-width="1.1"/>
<line x1="1327.5" y1="359.0" x2="1335.5" y2="351.0" stroke="#8B714E" stroke-width="1.1"/>
<text x="1331.50" y="363.50" fill="#8B714E" text-anchor="middle" style="font-family:'DM Sans','Aventa',Helvetica,Arial,sans-serif;font-size:10px;font-weight:400;letter-spacing:0em;" transform="rotate(-90 1331.50 367.50)">0,50</text>
<text x="1291.50" y="332.50" fill="#1B2117" text-anchor="middle" style="font-family:'DM Sans','Aventa',Helvetica,Arial,sans-serif;font-size:11px;font-weight:700;letter-spacing:0em;">JO5 · 1 un.</text>
<polygon points="120.00,610.00 178.75,610.00 178.75,575.00 120.00,575.00" fill="#BFD0D6" stroke="#1B2117" stroke-width="1.2" opacity="1.0" stroke-linejoin="round" stroke-linecap="round" />
<line x1="120.00" y1="610.00" x2="120.00" y2="631.50" stroke="#8B714E" stroke-width="0.7" opacity="1.0" stroke-linecap="round"/>
<line x1="178.75" y1="610.00" x2="178.75" y2="631.50" stroke="#8B714E" stroke-width="0.7" opacity="1.0" stroke-linecap="round"/>
<line x1="120.00" y1="627.50" x2="178.75" y2="627.50" stroke="#8B714E" stroke-width="0.8" opacity="1.0" stroke-linecap="round"/>
<line x1="116.0" y1="631.5" x2="124.0" y2="623.5" stroke="#8B714E" stroke-width="1.1"/>
<line x1="174.8" y1="631.5" x2="182.8" y2="623.5" stroke="#8B714E" stroke-width="1.1"/>
<text x="149.38" y="623.50" fill="#8B714E" text-anchor="middle" style="font-family:'DM Sans','Aventa',Helvetica,Arial,sans-serif;font-size:10px;font-weight:400;letter-spacing:0em;">1,18</text>
<line x1="178.75" y1="610.00" x2="200.25" y2="610.00" stroke="#8B714E" stroke-width="0.7" opacity="1.0" stroke-linecap="round"/>
<line x1="178.75" y1="575.00" x2="200.25" y2="575.00" stroke="#8B714E" stroke-width="0.7" opacity="1.0" stroke-linecap="round"/>
<line x1="196.25" y1="610.00" x2="196.25" y2="575.00" stroke="#8B714E" stroke-width="0.8" opacity="1.0" stroke-linecap="round"/>
<line x1="192.2" y1="614.0" x2="200.2" y2="606.0" stroke="#8B714E" stroke-width="1.1"/>
<line x1="192.2" y1="579.0" x2="200.2" y2="571.0" stroke="#8B714E" stroke-width="1.1"/>
<text x="196.25" y="588.50" fill="#8B714E" text-anchor="middle" style="font-family:'DM Sans','Aventa',Helvetica,Arial,sans-serif;font-size:10px;font-weight:400;letter-spacing:0em;" transform="rotate(-90 196.25 592.50)">0,70</text>
<text x="149.38" y="552.50" fill="#1B2117" text-anchor="middle" style="font-family:'DM Sans','Aventa',Helvetica,Arial,sans-serif;font-size:11px;font-weight:700;letter-spacing:0em;">CL1 · 4 un.</text>
<polygon points="273.75,610.00 316.25,610.00 316.25,505.00 273.75,505.00" fill="#D9C4A3" stroke="#1B2117" stroke-width="1.2" opacity="1.0" stroke-linejoin="round" stroke-linecap="round" />
<path d="M299.2,557.5 l10,-5 v10 z" fill="#1B2117"/>
<polygon points="273.75,610.00 316.25,610.00 316.25,505.00 273.75,505.00" fill="url(#wood)" stroke="#1B2117" stroke-width="1.2" opacity="1.0" stroke-linejoin="round" stroke-linecap="round" />
<line x1="273.75" y1="610.00" x2="273.75" y2="631.50" stroke="#8B714E" stroke-width="0.7" opacity="1.0" stroke-linecap="round"/>
<line x1="316.25" y1="610.00" x2="316.25" y2="631.50" stroke="#8B714E" stroke-width="0.7" opacity="1.0" stroke-linecap="round"/>
<line x1="273.75" y1="627.50" x2="316.25" y2="627.50" stroke="#8B714E" stroke-width="0.8" opacity="1.0" stroke-linecap="round"/>
<line x1="269.8" y1="631.5" x2="277.8" y2="623.5" stroke="#8B714E" stroke-width="1.1"/>
<line x1="312.2" y1="631.5" x2="320.2" y2="623.5" stroke="#8B714E" stroke-width="1.1"/>
<text x="295.00" y="623.50" fill="#8B714E" text-anchor="middle" style="font-family:'DM Sans','Aventa',Helvetica,Arial,sans-serif;font-size:10px;font-weight:400;letter-spacing:0em;">0,85</text>
<line x1="316.25" y1="610.00" x2="337.75" y2="610.00" stroke="#8B714E" stroke-width="0.7" opacity="1.0" stroke-linecap="round"/>
<line x1="316.25" y1="505.00" x2="337.75" y2="505.00" stroke="#8B714E" stroke-width="0.7" opacity="1.0" stroke-linecap="round"/>
<line x1="333.75" y1="610.00" x2="333.75" y2="505.00" stroke="#8B714E" stroke-width="0.8" opacity="1.0" stroke-linecap="round"/>
<line x1="329.8" y1="614.0" x2="337.8" y2="606.0" stroke="#8B714E" stroke-width="1.1"/>
<line x1="329.8" y1="509.0" x2="337.8" y2="501.0" stroke="#8B714E" stroke-width="1.1"/>
<text x="333.75" y="553.50" fill="#8B714E" text-anchor="middle" style="font-family:'DM Sans','Aventa',Helvetica,Arial,sans-serif;font-size:10px;font-weight:400;letter-spacing:0em;" transform="rotate(-90 333.75 557.50)">2,10</text>
<text x="295.00" y="482.50" fill="#1B2117" text-anchor="middle" style="font-family:'DM Sans','Aventa',Helvetica,Arial,sans-serif;font-size:11px;font-weight:700;letter-spacing:0em;">PC1 · 1 un.</text>
<text x="60.00" y="668.00" fill="#8B714E" text-anchor="start" style="font-family:'DM Sans','Aventa',Helvetica,Arial,sans-serif;font-size:9px;font-weight:400;letter-spacing:0.15em;">CÓD.</text>
<text x="120.00" y="668.00" fill="#8B714E" text-anchor="start" style="font-family:'DM Sans','Aventa',Helvetica,Arial,sans-serif;font-size:9px;font-weight:400;letter-spacing:0.15em;">ESQUADRIA</text>
<text x="460.00" y="668.00" fill="#8B714E" text-anchor="start" style="font-family:'DM Sans','Aventa',Helvetica,Arial,sans-serif;font-size:9px;font-weight:400;letter-spacing:0.15em;">L X H (M)</text>
<text x="560.00" y="668.00" fill="#8B714E" text-anchor="start" style="font-family:'DM Sans','Aventa',Helvetica,Arial,sans-serif;font-size:9px;font-weight:400;letter-spacing:0.15em;">QTD</text>
<text x="610.00" y="668.00" fill="#8B714E" text-anchor="start" style="font-family:'DM Sans','Aventa',Helvetica,Arial,sans-serif;font-size:9px;font-weight:400;letter-spacing:0.15em;">ESPECIFICAÇÃO</text>
<text x="1210.00" y="668.00" fill="#8B714E" text-anchor="start" style="font-family:'DM Sans','Aventa',Helvetica,Arial,sans-serif;font-size:9px;font-weight:400;letter-spacing:0.15em;">LOCALIZAÇÃO</text>
<line x1="60" y1="674" x2="1540" y2="674" stroke="#1B2117" stroke-width="0.8"/>
<text x="60.00" y="692.00" fill="#1B2117" text-anchor="start" style="font-family:'DM Sans','Aventa',Helvetica,Arial,sans-serif;font-size:10px;font-weight:700;letter-spacing:0em;">PV1</text>
<text x="120.00" y="692.00" fill="#1B2117" text-anchor="start" style="font-family:'DM Sans','Aventa',Helvetica,Arial,sans-serif;font-size:10px;font-weight:400;letter-spacing:0em;">Porta pivotante de vidro</text>
<text x="460.00" y="692.00" fill="#1B2117" text-anchor="start" style="font-family:'DM Sans','Aventa',Helvetica,Arial,sans-serif;font-size:10px;font-weight:400;letter-spacing:0em;">1,00 x 2,40</text>
<text x="560.00" y="692.00" fill="#1B2117" text-anchor="start" style="font-family:'DM Sans','Aventa',Helvetica,Arial,sans-serif;font-size:10px;font-weight:400;letter-spacing:0em;">1</text>
<text x="610.00" y="692.00" fill="#1B2117" text-anchor="start" style="font-family:'DM Sans','Aventa',Helvetica,Arial,sans-serif;font-size:9.5px;font-weight:400;letter-spacing:0em;">Vidro insulado 6 lam + 12 + 6 temp low-e; pivô de piso; alumínio bronze RPT</text>
<text x="1210.00" y="692.00" fill="#8B714E" text-anchor="start" style="font-family:'DM Sans','Aventa',Helvetica,Arial,sans-serif;font-size:9.5px;font-weight:400;letter-spacing:0em;">Fachada, à esquerda (y +0,60 a +1,60)</text>
<line x1="60" y1="698" x2="1540" y2="698" stroke="#DED6BF" stroke-width="0.5"/>
<text x="60.00" y="711.00" fill="#1B2117" text-anchor="start" style="font-family:'DM Sans','Aventa',Helvetica,Arial,sans-serif;font-size:10px;font-weight:700;letter-spacing:0em;">V1</text>
<text x="120.00" y="711.00" fill="#1B2117" text-anchor="start" style="font-family:'DM Sans','Aventa',Helvetica,Arial,sans-serif;font-size:10px;font-weight:400;letter-spacing:0em;">Fachada panorâmica fixa (anel inclinado 8°)</text>
<text x="460.00" y="711.00" fill="#1B2117" text-anchor="start" style="font-family:'DM Sans','Aventa',Helvetica,Arial,sans-serif;font-size:10px;font-weight:400;letter-spacing:0em;">4,88 x 4,13</text>
<text x="560.00" y="711.00" fill="#1B2117" text-anchor="start" style="font-family:'DM Sans','Aventa',Helvetica,Arial,sans-serif;font-size:10px;font-weight:400;letter-spacing:0em;">1</text>
<text x="610.00" y="711.00" fill="#1B2117" text-anchor="start" style="font-family:'DM Sans','Aventa',Helvetica,Arial,sans-serif;font-size:9.5px;font-weight:400;letter-spacing:0em;">8 painéis de vidro insulado entre 4 montantes e travessa a 2,40; anel de alumínio curvo</text>
<text x="1210.00" y="711.00" fill="#8B714E" text-anchor="start" style="font-family:'DM Sans','Aventa',Helvetica,Arial,sans-serif;font-size:9.5px;font-weight:400;letter-spacing:0em;">Fachada frontal, x 0,90</text>
<line x1="60" y1="717" x2="1540" y2="717" stroke="#DED6BF" stroke-width="0.5"/>
<text x="60.00" y="730.00" fill="#1B2117" text-anchor="start" style="font-family:'DM Sans','Aventa',Helvetica,Arial,sans-serif;font-size:10px;font-weight:700;letter-spacing:0em;">JO1</text>
<text x="120.00" y="730.00" fill="#1B2117" text-anchor="start" style="font-family:'DM Sans','Aventa',Helvetica,Arial,sans-serif;font-size:10px;font-weight:400;letter-spacing:0em;">Janela Olho basculante</text>
<text x="460.00" y="730.00" fill="#1B2117" text-anchor="start" style="font-family:'DM Sans','Aventa',Helvetica,Arial,sans-serif;font-size:10px;font-weight:400;letter-spacing:0em;">1,60 x 0,95</text>
<text x="560.00" y="730.00" fill="#1B2117" text-anchor="start" style="font-family:'DM Sans','Aventa',Helvetica,Arial,sans-serif;font-size:10px;font-weight:400;letter-spacing:0em;">2</text>
<text x="610.00" y="730.00" fill="#1B2117" text-anchor="start" style="font-family:'DM Sans','Aventa',Helvetica,Arial,sans-serif;font-size:9.5px;font-weight:400;letter-spacing:0em;">Lente em requadro de madeira laminada 220 mm; vidro insulado; ferragem basculante 15°</text>
<text x="1210.00" y="730.00" fill="#8B714E" text-anchor="start" style="font-family:'DM Sans','Aventa',Helvetica,Arial,sans-serif;font-size:9.5px;font-weight:400;letter-spacing:0em;">Estar dir. (x 2,30) e suíte dir. (x 4,90)</text>
<line x1="60" y1="736" x2="1540" y2="736" stroke="#DED6BF" stroke-width="0.5"/>
<text x="60.00" y="749.00" fill="#1B2117" text-anchor="start" style="font-family:'DM Sans','Aventa',Helvetica,Arial,sans-serif;font-size:10px;font-weight:700;letter-spacing:0em;">JO2</text>
<text x="120.00" y="749.00" fill="#1B2117" text-anchor="start" style="font-family:'DM Sans','Aventa',Helvetica,Arial,sans-serif;font-size:10px;font-weight:400;letter-spacing:0em;">Janela Olho fixa</text>
<text x="460.00" y="749.00" fill="#1B2117" text-anchor="start" style="font-family:'DM Sans','Aventa',Helvetica,Arial,sans-serif;font-size:10px;font-weight:400;letter-spacing:0em;">1,60 x 0,95</text>
<text x="560.00" y="749.00" fill="#1B2117" text-anchor="start" style="font-family:'DM Sans','Aventa',Helvetica,Arial,sans-serif;font-size:10px;font-weight:400;letter-spacing:0em;">1</text>
<text x="610.00" y="749.00" fill="#1B2117" text-anchor="start" style="font-family:'DM Sans','Aventa',Helvetica,Arial,sans-serif;font-size:9.5px;font-weight:400;letter-spacing:0em;">Idem, fixa</text>
<text x="1210.00" y="749.00" fill="#8B714E" text-anchor="start" style="font-family:'DM Sans','Aventa',Helvetica,Arial,sans-serif;font-size:9.5px;font-weight:400;letter-spacing:0em;">Estar esq. (x 3,40)</text>
<line x1="60" y1="755" x2="1540" y2="755" stroke="#DED6BF" stroke-width="0.5"/>
<text x="60.00" y="768.00" fill="#1B2117" text-anchor="start" style="font-family:'DM Sans','Aventa',Helvetica,Arial,sans-serif;font-size:10px;font-weight:700;letter-spacing:0em;">JO3</text>
<text x="120.00" y="768.00" fill="#1B2117" text-anchor="start" style="font-family:'DM Sans','Aventa',Helvetica,Arial,sans-serif;font-size:10px;font-weight:400;letter-spacing:0em;">Janela Olho fixa</text>
<text x="460.00" y="768.00" fill="#1B2117" text-anchor="start" style="font-family:'DM Sans','Aventa',Helvetica,Arial,sans-serif;font-size:10px;font-weight:400;letter-spacing:0em;">1,40 x 0,80</text>
<text x="560.00" y="768.00" fill="#1B2117" text-anchor="start" style="font-family:'DM Sans','Aventa',Helvetica,Arial,sans-serif;font-size:10px;font-weight:400;letter-spacing:0em;">1</text>
<text x="610.00" y="768.00" fill="#1B2117" text-anchor="start" style="font-family:'DM Sans','Aventa',Helvetica,Arial,sans-serif;font-size:9.5px;font-weight:400;letter-spacing:0em;">Idem, fixa</text>
<text x="1210.00" y="768.00" fill="#8B714E" text-anchor="start" style="font-family:'DM Sans','Aventa',Helvetica,Arial,sans-serif;font-size:9.5px;font-weight:400;letter-spacing:0em;">Suíte esq. (x 5,70)</text>
<line x1="60" y1="774" x2="1540" y2="774" stroke="#DED6BF" stroke-width="0.5"/>
<text x="60.00" y="787.00" fill="#1B2117" text-anchor="start" style="font-family:'DM Sans','Aventa',Helvetica,Arial,sans-serif;font-size:10px;font-weight:700;letter-spacing:0em;">JO4</text>
<text x="120.00" y="787.00" fill="#1B2117" text-anchor="start" style="font-family:'DM Sans','Aventa',Helvetica,Arial,sans-serif;font-size:10px;font-weight:400;letter-spacing:0em;">Olho do banho fixo (alto)</text>
<text x="460.00" y="787.00" fill="#1B2117" text-anchor="start" style="font-family:'DM Sans','Aventa',Helvetica,Arial,sans-serif;font-size:10px;font-weight:400;letter-spacing:0em;">1,10 x 0,60</text>
<text x="560.00" y="787.00" fill="#1B2117" text-anchor="start" style="font-family:'DM Sans','Aventa',Helvetica,Arial,sans-serif;font-size:10px;font-weight:400;letter-spacing:0em;">1</text>
<text x="610.00" y="787.00" fill="#1B2117" text-anchor="start" style="font-family:'DM Sans','Aventa',Helvetica,Arial,sans-serif;font-size:9.5px;font-weight:400;letter-spacing:0em;">Idem, vidro jateado</text>
<text x="1210.00" y="787.00" fill="#8B714E" text-anchor="start" style="font-family:'DM Sans','Aventa',Helvetica,Arial,sans-serif;font-size:9.5px;font-weight:400;letter-spacing:0em;">Banho dir. (x 7,90), peitoril 1,60</text>
<line x1="60" y1="793" x2="1540" y2="793" stroke="#DED6BF" stroke-width="0.5"/>
<text x="60.00" y="806.00" fill="#1B2117" text-anchor="start" style="font-family:'DM Sans','Aventa',Helvetica,Arial,sans-serif;font-size:10px;font-weight:700;letter-spacing:0em;">JO5</text>
<text x="120.00" y="806.00" fill="#1B2117" text-anchor="start" style="font-family:'DM Sans','Aventa',Helvetica,Arial,sans-serif;font-size:10px;font-weight:400;letter-spacing:0em;">Olho da banheira fixo (baixo)</text>
<text x="460.00" y="806.00" fill="#1B2117" text-anchor="start" style="font-family:'DM Sans','Aventa',Helvetica,Arial,sans-serif;font-size:10px;font-weight:400;letter-spacing:0em;">0,90 x 0,50</text>
<text x="560.00" y="806.00" fill="#1B2117" text-anchor="start" style="font-family:'DM Sans','Aventa',Helvetica,Arial,sans-serif;font-size:10px;font-weight:400;letter-spacing:0em;">1</text>
<text x="610.00" y="806.00" fill="#1B2117" text-anchor="start" style="font-family:'DM Sans','Aventa',Helvetica,Arial,sans-serif;font-size:9.5px;font-weight:400;letter-spacing:0em;">Idem, vidro jateado</text>
<text x="1210.00" y="806.00" fill="#8B714E" text-anchor="start" style="font-family:'DM Sans','Aventa',Helvetica,Arial,sans-serif;font-size:9.5px;font-weight:400;letter-spacing:0em;">Cauda esq. (x 8,50), peitoril 1,15</text>
<line x1="60" y1="812" x2="1540" y2="812" stroke="#DED6BF" stroke-width="0.5"/>
<text x="60.00" y="825.00" fill="#1B2117" text-anchor="start" style="font-family:'DM Sans','Aventa',Helvetica,Arial,sans-serif;font-size:10px;font-weight:700;letter-spacing:0em;">CL1</text>
<text x="120.00" y="825.00" fill="#1B2117" text-anchor="start" style="font-family:'DM Sans','Aventa',Helvetica,Arial,sans-serif;font-size:10px;font-weight:400;letter-spacing:0em;">Espinha de Luz (claraboia)</text>
<text x="460.00" y="825.00" fill="#1B2117" text-anchor="start" style="font-family:'DM Sans','Aventa',Helvetica,Arial,sans-serif;font-size:10px;font-weight:400;letter-spacing:0em;">1,18 x 0,70</text>
<text x="560.00" y="825.00" fill="#1B2117" text-anchor="start" style="font-family:'DM Sans','Aventa',Helvetica,Arial,sans-serif;font-size:10px;font-weight:400;letter-spacing:0em;">4</text>
<text x="610.00" y="825.00" fill="#1B2117" text-anchor="start" style="font-family:'DM Sans','Aventa',Helvetica,Arial,sans-serif;font-size:9.5px;font-weight:400;letter-spacing:0em;">Vidro laminado 8 + 8 mm sobre berços com EPDM; junta de silicone estrutural</text>
<text x="1210.00" y="825.00" fill="#8B714E" text-anchor="start" style="font-family:'DM Sans','Aventa',Helvetica,Arial,sans-serif;font-size:9.5px;font-weight:400;letter-spacing:0em;">Cumeeira, x 1,90 a 6,60</text>
<line x1="60" y1="831" x2="1540" y2="831" stroke="#DED6BF" stroke-width="0.5"/>
<text x="60.00" y="844.00" fill="#1B2117" text-anchor="start" style="font-family:'DM Sans','Aventa',Helvetica,Arial,sans-serif;font-size:10px;font-weight:700;letter-spacing:0em;">PC1</text>
<text x="120.00" y="844.00" fill="#1B2117" text-anchor="start" style="font-family:'DM Sans','Aventa',Helvetica,Arial,sans-serif;font-size:10px;font-weight:400;letter-spacing:0em;">Porta de correr do banho</text>
<text x="460.00" y="844.00" fill="#1B2117" text-anchor="start" style="font-family:'DM Sans','Aventa',Helvetica,Arial,sans-serif;font-size:10px;font-weight:400;letter-spacing:0em;">0,85 x 2,10</text>
<text x="560.00" y="844.00" fill="#1B2117" text-anchor="start" style="font-family:'DM Sans','Aventa',Helvetica,Arial,sans-serif;font-size:10px;font-weight:400;letter-spacing:0em;">1</text>
<text x="610.00" y="844.00" fill="#1B2117" text-anchor="start" style="font-family:'DM Sans','Aventa',Helvetica,Arial,sans-serif;font-size:9.5px;font-weight:400;letter-spacing:0em;">Folha de madeira laminada com trilho superior embutido</text>
<text x="1210.00" y="844.00" fill="#8B714E" text-anchor="start" style="font-family:'DM Sans','Aventa',Helvetica,Arial,sans-serif;font-size:9.5px;font-weight:400;letter-spacing:0em;">Parede da cabeceira, y +1,00 a +1,85</text>
<line x1="60" y1="850" x2="1540" y2="850" stroke="#DED6BF" stroke-width="0.5"/>
<rect x="1010" y="880" width="560" height="96" fill="#FEF5F0" stroke="#1B2117" stroke-width="1.2"/>
<line x1="1210" y1="880" x2="1210" y2="976" stroke="#1B2117" stroke-width="0.8"/>
<line x1="1010" y1="926" x2="1570" y2="926" stroke="#1B2117" stroke-width="0.8"/>
<g transform="translate(1024.00,888.00) scale(0.3200)"><circle cx="50" cy="50" r="46.5" fill="none" stroke="#1B2117" stroke-width="3.2"/><polygon points="27,30 73,30 73,38.5 41,61.5 73,61.5 73,70 27,70 27,61.5 59,38.5 27,38.5" fill="#1B2117"/></g>
<text x="1068.00" y="906.00" fill="#1B2117" text-anchor="start" style="font-family:'DM Sans','Aventa',Helvetica,Arial,sans-serif;font-size:19px;font-weight:800;letter-spacing:0.35em;">ZION</text>
<text x="1068.00" y="919.00" fill="#8B714E" text-anchor="start" style="font-family:'DM Sans','Aventa',Helvetica,Arial,sans-serif;font-size:7.5px;font-weight:400;letter-spacing:0.28em;">GLAMPING COLLECTION</text>
<text x="1110.00" y="948.00" fill="#1B2117" text-anchor="middle" style="font-family:'DM Sans','Aventa',Helvetica,Arial,sans-serif;font-size:12px;font-weight:700;letter-spacing:0.2em;">ZION CASULO</text>
<text x="1110.00" y="964.00" fill="#8B714E" text-anchor="middle" style="font-family:'DM Sans','Aventa',Helvetica,Arial,sans-serif;font-size:7.5px;font-weight:400;letter-spacing:0.2em;">ZION HOTEL GROUP INTERNATIONAL</text>
<text x="1224.00" y="902.00" fill="#1B2117" text-anchor="start" style="font-family:'DM Sans','Aventa',Helvetica,Arial,sans-serif;font-size:14px;font-weight:700;letter-spacing:0.12em;">QUADRO DE ESQUADRIAS</text>
<text x="1224.00" y="918.00" fill="#8B714E" text-anchor="start" style="font-family:'DM Sans','Aventa',Helvetica,Arial,sans-serif;font-size:10px;font-weight:400;letter-spacing:0em;">9 tipos · 13 unidades</text>
<text x="1224.00" y="946.00" fill="#1B2117" text-anchor="start" style="font-family:'DM Sans','Aventa',Helvetica,Arial,sans-serif;font-size:10px;font-weight:400;letter-spacing:0.15em;">ESCALA 1:50 (A1)</text>
<text x="1224.00" y="964.00" fill="#8B714E" text-anchor="start" style="font-family:'DM Sans','Aventa',Helvetica,Arial,sans-serif;font-size:8px;font-weight:400;letter-spacing:0.1em;">PROJETO CONCEITUAL · ESTUDO PRELIMINAR</text>
<text x="1556.00" y="946.00" fill="#1B2117" text-anchor="end" style="font-family:'DM Sans','Aventa',Helvetica,Arial,sans-serif;font-size:10px;font-weight:600;letter-spacing:0.15em;">FOLHA PA-09</text>
<text x="1556.00" y="964.00" fill="#8B714E" text-anchor="end" style="font-family:'DM Sans','Aventa',Helvetica,Arial,sans-serif;font-size:8px;font-weight:400;letter-spacing:0.15em;">SET 2026</text></svg>