<svg xmlns="http://www.w3.org/2000/svg" viewBox="0 0 1600 1000" width="1600" height="1000" font-family="'DM Sans','Aventa',Helvetica,Arial,sans-serif"><defs><pattern id="soil" width="10" height="10" patternUnits="userSpaceOnUse"><circle cx="2" cy="2" r="0.8" fill="#8B714E"/><circle cx="7" cy="6" r="0.8" fill="#8B714E"/></pattern><pattern id="insul" width="12" height="8" patternUnits="userSpaceOnUse"><path d="M0 4 Q3 0 6 4 T12 4" fill="none" stroke="#8B714E" stroke-width="0.8"/></pattern><pattern id="deck" width="9" height="60" patternUnits="userSpaceOnUse"><rect width="9" height="60" fill="#B99A73"/><line x1="8.5" y1="0" x2="8.5" y2="60" stroke="#8B714E" stroke-width="0.9" opacity="0.8"/></pattern><pattern id="hatch" width="7" height="7" patternUnits="userSpaceOnUse" patternTransform="rotate(45)"><line x1="0" y1="0" x2="0" y2="7" stroke="#1B2117" stroke-width="0.8"/></pattern></defs><rect width="1600" height="1000" fill="#FEF5F0"/><text x="40.00" y="46.00" fill="#1B2117" text-anchor="start" style="font-family:'DM Sans','Aventa',Helvetica,Arial,sans-serif;font-size:22px;font-weight:700;letter-spacing:0.28em;">ZION LODGE · CORTE LONGITUDINAL A-A</text>
<text x="40.00" y="68.00" fill="#8B714E" text-anchor="start" style="font-family:'DM Sans','Aventa',Helvetica,Arial,sans-serif;font-size:12px;font-weight:400;letter-spacing:0.08em;">Plano y = 0 (eixo da porta e da lanterna) · olhar para +y · deck, vela, pilares, caibros, membrana, forro tensionado, banho e ático técnico</text>
<line x1="40" y1="82" x2="1560" y2="82" stroke="#1B2117" stroke-width="0.6" opacity="0.5"/>
<polygon points="124.40,765.60 1401.20,765.60 1401.20,691.68 124.40,691.68" fill="url(#soil)" stroke="none" stroke-width="1.0" opacity="1.0" stroke-linejoin="round" stroke-linecap="round" />
<line x1="124.40" y1="691.68" x2="1401.20" y2="691.68" stroke="#1B2117" stroke-width="1.0" opacity="1.0" stroke-linecap="round"/>
<polygon points="315.91,765.60 322.63,765.60 322.63,708.48 315.91,708.48" fill="#3A3B3A" stroke="none" stroke-width="1.0" opacity="1.0" stroke-linejoin="round" stroke-linecap="round" />
<polygon points="309.19,710.16 329.35,710.16 329.35,706.80 309.19,706.80" fill="#3A3B3A" stroke="none" stroke-width="1.0" opacity="1.0" stroke-linejoin="round" stroke-linecap="round" />
<polygon points="431.84,765.60 438.56,765.60 438.56,708.48 431.84,708.48" fill="#3A3B3A" stroke="none" stroke-width="1.0" opacity="1.0" stroke-linejoin="round" stroke-linecap="round" />
<polygon points="425.12,710.16 445.28,710.16 445.28,706.80 425.12,706.80" fill="#3A3B3A" stroke="none" stroke-width="1.0" opacity="1.0" stroke-linejoin="round" stroke-linecap="round" />
<polygon points="625.04,765.60 631.76,765.60 631.76,708.48 625.04,708.48" fill="#3A3B3A" stroke="none" stroke-width="1.0" opacity="1.0" stroke-linejoin="round" stroke-linecap="round" />
<polygon points="618.32,710.16 638.48,710.16 638.48,706.80 618.32,706.80" fill="#3A3B3A" stroke="none" stroke-width="1.0" opacity="1.0" stroke-linejoin="round" stroke-linecap="round" />
<polygon points="826.64,765.60 833.36,765.60 833.36,708.48 826.64,708.48" fill="#3A3B3A" stroke="none" stroke-width="1.0" opacity="1.0" stroke-linejoin="round" stroke-linecap="round" />
<polygon points="819.92,710.16 840.08,710.16 840.08,706.80 819.92,706.80" fill="#3A3B3A" stroke="none" stroke-width="1.0" opacity="1.0" stroke-linejoin="round" stroke-linecap="round" />
<polygon points="1028.24,765.60 1034.96,765.60 1034.96,708.48 1028.24,708.48" fill="#3A3B3A" stroke="none" stroke-width="1.0" opacity="1.0" stroke-linejoin="round" stroke-linecap="round" />
<polygon points="1021.52,710.16 1041.68,710.16 1041.68,706.80 1021.52,706.80" fill="#3A3B3A" stroke="none" stroke-width="1.0" opacity="1.0" stroke-linejoin="round" stroke-linecap="round" />
<polygon points="541.04,765.60 547.76,765.60 547.76,708.48 541.04,708.48" fill="#3A3B3A" stroke="none" stroke-width="1.0" opacity="1.0" stroke-linejoin="round" stroke-linecap="round" />
<polygon points="534.32,710.16 554.48,710.16 554.48,706.80 534.32,706.80" fill="#3A3B3A" stroke="none" stroke-width="1.0" opacity="1.0" stroke-linejoin="round" stroke-linecap="round" />
<polygon points="1112.24,765.60 1118.96,765.60 1118.96,708.48 1112.24,708.48" fill="#3A3B3A" stroke="none" stroke-width="1.0" opacity="1.0" stroke-linejoin="round" stroke-linecap="round" />
<polygon points="1105.52,710.16 1125.68,710.16 1125.68,706.80 1105.52,706.80" fill="#3A3B3A" stroke="none" stroke-width="1.0" opacity="1.0" stroke-linejoin="round" stroke-linecap="round" />
<polygon points="544.40,706.80 1115.60,706.80 1115.60,694.20 544.40,694.20" fill="url(#insul)" stroke="#1B2117" stroke-width="0.9" opacity="1.0" stroke-linejoin="round" stroke-linecap="round" />
<polygon points="544.40,694.20 1115.60,694.20 1115.60,690.00 544.40,690.00" fill="#B99A73" stroke="#1B2117" stroke-width="0.5" opacity="1.0" stroke-linejoin="round" stroke-linecap="round" />
<polygon points="326.00,706.80 544.40,706.80 544.40,694.20 326.00,694.20" fill="url(#deck)" stroke="#1B2117" stroke-width="0.9" opacity="1.0" stroke-linejoin="round" stroke-linecap="round" />
<polygon points="300.80,715.20 326.00,715.20 326.00,702.60 300.80,702.60" fill="#B99A73" stroke="#1B2117" stroke-width="0.7" opacity="1.0" stroke-linejoin="round" stroke-linecap="round" />
<polygon points="275.60,711.00 300.80,711.00 300.80,698.40 275.60,698.40" fill="#B99A73" stroke="#1B2117" stroke-width="0.7" opacity="1.0" stroke-linejoin="round" stroke-linecap="round" />
<polygon points="250.40,706.80 275.60,706.80 275.60,694.20 250.40,694.20" fill="#B99A73" stroke="#1B2117" stroke-width="0.7" opacity="1.0" stroke-linejoin="round" stroke-linecap="round" />
<polygon points="544.40,690.00 711.70,690.00 711.70,475.80 544.40,475.80" fill="#BFD0D6" stroke="#1B2117" stroke-width="0.7" opacity="0.8" stroke-linejoin="round" stroke-linecap="round" />
<polygon points="711.70,690.00 948.30,690.00 948.30,475.80 711.70,475.80" fill="#BFD0D6" stroke="#1B2117" stroke-width="0.7" opacity="0.8" stroke-linejoin="round" stroke-linecap="round" />
<polygon points="948.30,690.00 1115.60,690.00 1115.60,475.80 948.30,475.80" fill="#EDE3D3" stroke="#1B2117" stroke-width="0.7" opacity="1.0" stroke-linejoin="round" stroke-linecap="round" />
<polygon points="701.62,690.00 721.78,690.00 721.78,463.20 701.62,463.20" fill="#B99A73" stroke="#1B2117" stroke-width="0.7" opacity="1.0" stroke-linejoin="round" stroke-linecap="round" />
<polygon points="938.22,690.00 958.38,690.00 958.38,463.20 938.22,463.20" fill="#B99A73" stroke="#1B2117" stroke-width="0.7" opacity="1.0" stroke-linejoin="round" stroke-linecap="round" />
<polygon points="846.80,690.00 989.60,690.00 989.60,614.40 846.80,614.40" fill="#B99A73" stroke="#1B2117" stroke-width="0.7" opacity="0.7" stroke-linejoin="round" stroke-linecap="round" />
<polygon points="586.40,690.00 670.40,690.00 670.40,627.00 586.40,627.00" fill="#DED6BF" stroke="#1B2117" stroke-width="0.7" opacity="0.7" stroke-linejoin="round" stroke-linecap="round" />
<polygon points="783.80,690.00 834.20,690.00 834.20,648.00 783.80,648.00" fill="#B99A73" stroke="#1B2117" stroke-width="0.7" opacity="1.0" stroke-linejoin="round" stroke-linecap="round" />
<polygon points="977.00,690.00 1035.80,690.00 1035.80,618.60 977.00,618.60" fill="#EFEDE6" stroke="#1B2117" stroke-width="0.7" opacity="1.0" stroke-linejoin="round" stroke-linecap="round" />
<polygon points="1056.80,690.00 1107.20,690.00 1107.20,654.72 1056.80,654.72" fill="#FFFFFF" stroke="#1B2117" stroke-width="0.7" opacity="1.0" stroke-linejoin="round" stroke-linecap="round" />
<polygon points="534.32,690.00 554.48,690.00 554.48,463.20 534.32,463.20" fill="#B99A73" stroke="#1B2117" stroke-width="0.7" opacity="1.0" stroke-linejoin="round" stroke-linecap="round" />
<polygon points="1105.52,690.00 1125.68,690.00 1125.68,463.20 1105.52,463.20" fill="#B99A73" stroke="#1B2117" stroke-width="0.7" opacity="1.0" stroke-linejoin="round" stroke-linecap="round" />
<polygon points="534.32,475.80 1125.68,475.80 1125.68,463.20 534.32,463.20" fill="#B9B7B0" stroke="#1B2117" stroke-width="0.5" opacity="1.0" stroke-linejoin="round" stroke-linecap="round" />
<polygon points="538.10,475.80 550.70,475.80 550.70,463.20 538.10,463.20" fill="#3A3B3A" stroke="none" stroke-width="1.0" opacity="1.0" stroke-linejoin="round" stroke-linecap="round" />
<polygon points="1109.30,475.80 1121.90,475.80 1121.90,463.20 1109.30,463.20" fill="#3A3B3A" stroke="none" stroke-width="1.0" opacity="1.0" stroke-linejoin="round" stroke-linecap="round" />
<polygon points="541.88,690.00 546.92,690.00 546.92,488.40 541.88,488.40" fill="#BFD0D6" stroke="#1B2117" stroke-width="1.0" opacity="1.0" stroke-linejoin="round" stroke-linecap="round" />
<polygon points="541.88,488.40 546.92,488.40 546.92,475.80 541.88,475.80" fill="#BFD0D6" stroke="#1B2117" stroke-width="0.8" opacity="1.0" stroke-linejoin="round" stroke-linecap="round" />
<line x1="536.00" y1="488.40" x2="552.80" y2="488.40" stroke="#1B2117" stroke-width="1.2" opacity="1.0" stroke-linecap="round"/>
<polygon points="1107.20,690.00 1115.60,690.00 1115.60,475.80 1107.20,475.80" fill="url(#hatch)" stroke="#1B2117" stroke-width="1.0" opacity="1.0" stroke-linejoin="round" stroke-linecap="round" />
<polygon points="1107.20,555.60 1115.60,555.60 1115.60,505.20 1107.20,505.20" fill="#BFD0D6" stroke="#1B2117" stroke-width="0.8" opacity="1.0" stroke-linejoin="round" stroke-linecap="round" />
<polygon points="960.20,690.00 968.60,690.00 968.60,488.40 960.20,488.40" fill="#EDE3D3" stroke="#1B2117" stroke-width="0.8" opacity="1.0" stroke-linejoin="round" stroke-linecap="round" />
<polygon points="960.20,513.60 968.60,513.60 968.60,488.40 960.20,488.40" fill="url(#hatch)" stroke="#1B2117" stroke-width="0.9" opacity="1.0" stroke-linejoin="round" stroke-linecap="round" />
<polygon points="970.28,690.00 974.48,690.00 974.48,513.60 970.28,513.60" fill="#F7F3EC" stroke="#1B2117" stroke-width="0.7" opacity="1.0" stroke-linejoin="round" stroke-linecap="round" />
<polygon points="960.20,488.40 1107.20,488.40 1107.20,484.20 960.20,484.20" fill="#DED6BF" stroke="#1B2117" stroke-width="0.6" opacity="1.0" stroke-linejoin="round" stroke-linecap="round" />
<polygon points="998.00,480.00 1082.00,480.00 1082.00,463.20 998.00,463.20" fill="#E5E1D8" stroke="#1B2117" stroke-width="0.8" opacity="1.0" stroke-linejoin="round" stroke-linecap="round" />
<text x="1040.00" y="474.60" fill="#1B2117" text-anchor="middle" style="font-family:'DM Sans','Aventa',Helvetica,Arial,sans-serif;font-size:9px;font-weight:400;letter-spacing:0em;">AC</text>
<polygon points="953.48,517.80 960.20,517.80 960.20,501.00 953.48,501.00" fill="#1B2117" stroke="none" stroke-width="1.0" opacity="1.0" stroke-linejoin="round" stroke-linecap="round" />
<polygon points="549.56,426.05 555.78,421.38 561.99,416.76 568.20,412.21 574.41,407.72 580.62,403.30 586.84,398.93 593.05,394.62 599.26,390.38 605.48,386.19 611.69,382.07 617.90,378.01 624.11,374.01 630.33,370.07 636.54,366.19 642.75,362.38 648.96,358.63 655.17,354.94 661.39,351.32 667.60,347.77 673.81,344.28 680.02,340.87 686.24,337.52 692.45,334.25 698.66,331.06 704.88,327.95 711.09,324.92 717.30,321.98 723.51,319.14 729.73,316.41 735.94,313.79 742.15,311.31 748.36,308.98 754.58,306.84 760.79,304.96 767.00,303.60 893.00,303.60 899.21,304.96 905.42,306.84 911.64,308.98 917.85,311.31 924.06,313.79 930.27,316.41 936.49,319.14 942.70,321.98 948.91,324.92 955.12,327.95 961.34,331.06 967.55,334.25 973.76,337.52 979.98,340.87 986.19,344.28 992.40,347.77 998.61,351.32 1004.83,354.94 1011.04,358.63 1017.25,362.38 1023.46,366.19 1029.67,370.07 1035.89,374.01 1042.10,378.01 1048.31,382.07 1054.53,386.19 1060.74,390.38 1066.95,394.62 1073.16,398.93 1079.38,403.30 1085.59,407.72 1091.80,412.21 1098.01,416.76 1104.22,421.38 1110.44,426.05 1110.44,437.89 1104.22,433.77 1098.01,429.68 1091.80,425.62 1085.59,421.59 1079.38,417.60 1073.16,413.63 1066.95,409.70 1060.74,405.81 1054.53,401.95 1048.31,398.13 1042.10,394.35 1035.89,390.60 1029.67,386.90 1023.46,383.24 1017.25,379.62 1011.04,376.05 1004.83,372.52 998.61,369.04 992.40,365.61 986.19,362.24 979.98,358.92 973.76,355.66 967.55,352.46 961.34,349.33 955.12,346.27 948.91,343.29 942.70,340.38 936.49,337.57 930.27,334.86 924.06,332.25 917.85,329.78 911.64,327.45 905.42,325.32 899.21,323.44 893.00,322.08 767.00,322.08 760.79,323.44 754.58,325.32 748.36,327.45 742.15,329.78 735.94,332.25 729.73,334.86 723.51,337.57 717.30,340.38 711.09,343.29 704.88,346.27 698.66,349.33 692.45,352.46 686.24,355.66 680.02,358.92 673.81,362.24 667.60,365.61 661.39,369.04 655.17,372.52 648.96,376.05 642.75,379.62 636.54,383.24 630.33,386.90 624.11,390.60 617.90,394.35 611.69,398.13 605.48,401.95 599.26,405.81 593.05,409.70 586.84,413.63 580.62,417.60 574.41,421.59 568.20,425.62 561.99,429.68 555.78,433.77 549.56,437.89" fill="url(#insul)" stroke="none" stroke-width="1.0" opacity="1.0" stroke-linejoin="round" stroke-linecap="round" />
<polyline points="468.80,492.60 475.01,487.09 481.22,481.64 487.44,476.27 493.65,470.95 499.86,465.71 506.08,460.53 512.29,455.41 518.50,450.36 524.71,445.37 530.92,440.45 537.14,435.59 543.35,430.79 549.56,426.05 555.78,421.38 561.99,416.76 568.20,412.21 574.41,407.72 580.62,403.30 586.84,398.93 593.05,394.62 599.26,390.38 605.48,386.19 611.69,382.07 617.90,378.01 624.11,374.01 630.33,370.07 636.54,366.19 642.75,362.38 648.96,358.63 655.17,354.94 661.39,351.32 667.60,347.77 673.81,344.28 680.02,340.87 686.24,337.52 692.45,334.25 698.66,331.06 704.88,327.95 711.09,324.92 717.30,321.98 723.51,319.14 729.73,316.41 735.94,313.79 742.15,311.31 748.36,308.98 754.58,306.84 760.79,304.96 767.00,303.60 893.00,303.60 899.21,304.96 905.42,306.84 911.64,308.98 917.85,311.31 924.06,313.79 930.27,316.41 936.49,319.14 942.70,321.98 948.91,324.92 955.12,327.95 961.34,331.06 967.55,334.25 973.76,337.52 979.98,340.87 986.19,344.28 992.40,347.77 998.61,351.32 1004.83,354.94 1011.04,358.63 1017.25,362.38 1023.46,366.19 1029.67,370.07 1035.89,374.01 1042.10,378.01 1048.31,382.07 1054.53,386.19 1060.74,390.38 1066.95,394.62 1073.16,398.93 1079.38,403.30 1085.59,407.72 1091.80,412.21 1098.01,416.76 1104.22,421.38 1110.44,426.05 1116.65,430.79 1122.86,435.59 1129.08,440.45 1135.29,445.37 1141.50,450.36 1147.71,455.41 1153.92,460.53 1160.14,465.71 1166.35,470.95 1172.56,476.27 1178.78,481.64 1184.99,487.09 1191.20,492.60" fill="none" stroke="#8B714E" stroke-width="3.2" opacity="1.0" stroke-linejoin="round" stroke-linecap="round" />
<polyline points="549.56,437.89 555.78,433.77 561.99,429.68 568.20,425.62 574.41,421.59 580.62,417.60 586.84,413.63 593.05,409.70 599.26,405.81 605.48,401.95 611.69,398.13 617.90,394.35 624.11,390.60 630.33,386.90 636.54,383.24 642.75,379.62 648.96,376.05 655.17,372.52 661.39,369.04 667.60,365.61 673.81,362.24 680.02,358.92 686.24,355.66 692.45,352.46 698.66,349.33 704.88,346.27 711.09,343.29 717.30,340.38 723.51,337.57 729.73,334.86 735.94,332.25 742.15,329.78 748.36,327.45 754.58,325.32 760.79,323.44 767.00,322.08 893.00,322.08 899.21,323.44 905.42,325.32 911.64,327.45 917.85,329.78 924.06,332.25 930.27,334.86 936.49,337.57 942.70,340.38 948.91,343.29 955.12,346.27 961.34,349.33 967.55,352.46 973.76,355.66 979.98,358.92 986.19,362.24 992.40,365.61 998.61,369.04 1004.83,372.52 1011.04,376.05 1017.25,379.62 1023.46,383.24 1029.67,386.90 1035.89,390.60 1042.10,394.35 1048.31,398.13 1054.53,401.95 1060.74,405.81 1066.95,409.70 1073.16,413.63 1079.38,417.60 1085.59,421.59 1091.80,425.62 1098.01,429.68 1104.22,433.77 1110.44,437.89" fill="none" stroke="#1B2117" stroke-width="1.2" opacity="1.0" stroke-linejoin="round" stroke-linecap="round" />
<line x1="544.40" y1="463.20" x2="772.04" y2="303.60" stroke="#3A3B3A" stroke-width="2.4" opacity="1.0" stroke-linecap="round"/>
<line x1="711.70" y1="463.20" x2="805.64" y2="303.60" stroke="#3A3B3A" stroke-width="2.4" opacity="1.0" stroke-linecap="round"/>
<line x1="948.30" y1="463.20" x2="854.36" y2="303.60" stroke="#3A3B3A" stroke-width="2.4" opacity="1.0" stroke-linecap="round"/>
<line x1="1115.60" y1="463.20" x2="887.96" y2="303.60" stroke="#3A3B3A" stroke-width="2.4" opacity="1.0" stroke-linecap="round"/>
<polygon points="762.80,313.68 897.20,313.68 897.20,303.60 762.80,303.60" fill="#3A3B3A" stroke="none" stroke-width="1.0" opacity="1.0" stroke-linejoin="round" stroke-linecap="round" />
<polygon points="767.00,303.60 893.00,303.60 893.00,265.80 767.00,265.80" fill="#BFD0D6" stroke="#1B2117" stroke-width="0.9" opacity="1.0" stroke-linejoin="round" stroke-linecap="round" />
<line x1="798.50" y1="303.60" x2="798.50" y2="265.80" stroke="#1B2117" stroke-width="0.6" opacity="1.0" stroke-linecap="round"/>
<line x1="830.00" y1="303.60" x2="830.00" y2="265.80" stroke="#1B2117" stroke-width="0.6" opacity="1.0" stroke-linecap="round"/>
<line x1="861.50" y1="303.60" x2="861.50" y2="265.80" stroke="#1B2117" stroke-width="0.6" opacity="1.0" stroke-linecap="round"/>
<polygon points="746.00,265.80 914.00,265.80 914.00,253.20 746.00,253.20" fill="#EDE6D6" stroke="#1B2117" stroke-width="1.2" opacity="1.0" stroke-linejoin="round" stroke-linecap="round" />
<line x1="746.00" y1="265.80" x2="733.40" y2="282.60" stroke="#1B2117" stroke-width="0.7" opacity="1.0" stroke-linecap="round"/>
<line x1="914.00" y1="265.80" x2="926.60" y2="282.60" stroke="#1B2117" stroke-width="0.7" opacity="1.0" stroke-linecap="round"/>
<line x1="302.47" y1="690.00" x2="302.47" y2="488.40" stroke="#3A3B3A" stroke-width="4" opacity="1.0" stroke-linecap="round"/>
<line x1="302.47" y1="484.20" x2="544.40" y2="450.60" stroke="#1B2117" stroke-width="1.8" opacity="1.0" stroke-linecap="round"/>
<polygon points="783.80,690.00 951.80,690.00 951.80,660.60 783.80,660.60" fill="#B99A73" stroke="#1B2117" stroke-width="0.8" opacity="1.0" stroke-linejoin="round" stroke-linecap="round" />
<polygon points="783.80,660.60 951.80,660.60 951.80,637.92 783.80,637.92" fill="#FFFFFF" stroke="#1B2117" stroke-width="0.8" opacity="1.0" stroke-linejoin="round" stroke-linecap="round" />
<polygon points="909.80,637.92 947.60,637.92 947.60,622.80 909.80,622.80" fill="#F4EFE8" stroke="#1B2117" stroke-width="0.6" opacity="1.0" stroke-linejoin="round" stroke-linecap="round" />
<polygon points="951.80,690.00 956.00,690.00 956.00,597.60 951.80,597.60" fill="#D9C4A3" stroke="#1B2117" stroke-width="0.6" opacity="1.0" stroke-linejoin="round" stroke-linecap="round" />
<polygon points="603.20,690.00 704.00,690.00 704.00,622.80 603.20,622.80" fill="#DED6BF" stroke="#1B2117" stroke-width="0.8" opacity="1.0" stroke-linejoin="round" stroke-linecap="round" />
<polygon points="708.20,690.00 758.60,690.00 758.60,652.20 708.20,652.20" fill="#B99A73" stroke="#1B2117" stroke-width="0.7" opacity="1.0" stroke-linejoin="round" stroke-linecap="round" />
<g transform="translate(468.8,690.0) scale(0.840)"><circle cx="0" cy="-165" r="11" fill="none" stroke="#1B2117" stroke-width="1.5"/><path d="M0 -152 V-70 M0 -70 L-16 0 M0 -70 L16 0 M-22 -100 L0 -135 L22 -100" fill="none" stroke="#1B2117" stroke-width="1.5" stroke-linecap="round"/></g>
<line x1="830.00" y1="253.20" x2="964.40" y2="198.60" stroke="#1B2117" stroke-width="0.7" opacity="1.0" stroke-linecap="round"/>
<circle cx="830.00" cy="253.20" r="2.2" fill="#1B2117" stroke="#1B2117" stroke-width="1.0"/>
<text x="964.40" y="195.60" fill="#1B2117" text-anchor="start" style="font-family:'DM Sans','Aventa',Helvetica,Arial,sans-serif;font-size:12px;font-weight:400;letter-spacing:0em;">Lanterna Zion: anel de compressão Ø1,50, vidro claro 0,45 m, tampa ventilada</text>
<line x1="662.00" y1="350.22" x2="544.40" y2="249.00" stroke="#1B2117" stroke-width="0.7" opacity="1.0" stroke-linecap="round"/>
<circle cx="662.00" cy="350.22" r="2.2" fill="#1B2117" stroke="#1B2117" stroke-width="1.0"/>
<text x="544.40" y="246.00" fill="#1B2117" text-anchor="end" style="font-family:'DM Sans','Aventa',Helvetica,Arial,sans-serif;font-size:12px;font-weight:400;letter-spacing:0em;">Membrana PVDF · câmara ventilada · lã PET 50 mm · forro tensionado</text>
<line x1="1048.40" y1="400.70" x2="1275.20" y2="312.00" stroke="#1B2117" stroke-width="0.7" opacity="1.0" stroke-linecap="round"/>
<circle cx="1048.40" cy="400.70" r="2.2" fill="#1B2117" stroke="#1B2117" stroke-width="1.0"/>
<text x="1275.20" y="309.00" fill="#1B2117" text-anchor="end" style="font-family:'DM Sans','Aventa',Helvetica,Arial,sans-serif;font-size:12px;font-weight:400;letter-spacing:0em;">Forro tensionado a 0,22 m da membrana</text>
<line x1="1014.80" y1="391.38" x2="1275.20" y2="358.20" stroke="#1B2117" stroke-width="0.7" opacity="1.0" stroke-linecap="round"/>
<circle cx="1014.80" cy="391.38" r="2.2" fill="#1B2117" stroke="#1B2117" stroke-width="1.0"/>
<text x="1275.20" y="355.20" fill="#1B2117" text-anchor="end" style="font-family:'DM Sans','Aventa',Helvetica,Arial,sans-serif;font-size:12px;font-weight:400;letter-spacing:0em;">Caibro C1 Ø76,1 (beiral -> lanterna)</text>
<line x1="1119.80" y1="469.92" x2="1275.20" y2="404.40" stroke="#1B2117" stroke-width="0.7" opacity="1.0" stroke-linecap="round"/>
<circle cx="1119.80" cy="469.92" r="2.2" fill="#1B2117" stroke="#1B2117" stroke-width="1.0"/>
<text x="1275.20" y="401.40" fill="#1B2117" text-anchor="end" style="font-family:'DM Sans','Aventa',Helvetica,Arial,sans-serif;font-size:12px;font-weight:400;letter-spacing:0em;">Anel de beiral 150 x 100 a 2,70 m</text>
<line x1="1040.00" y1="471.60" x2="1275.20" y2="543.00" stroke="#1B2117" stroke-width="0.7" opacity="1.0" stroke-linecap="round"/>
<circle cx="1040.00" cy="471.60" r="2.2" fill="#1B2117" stroke="#1B2117" stroke-width="1.0"/>
<text x="1275.20" y="540.00" fill="#1B2117" text-anchor="end" style="font-family:'DM Sans','Aventa',Helvetica,Arial,sans-serif;font-size:12px;font-weight:400;letter-spacing:0em;">Ático técnico (AC, quadro)</text>
<line x1="1111.40" y1="530.40" x2="1275.20" y2="505.20" stroke="#1B2117" stroke-width="0.7" opacity="1.0" stroke-linecap="round"/>
<circle cx="1111.40" cy="530.40" r="2.2" fill="#1B2117" stroke="#1B2117" stroke-width="1.0"/>
<text x="1275.20" y="502.20" fill="#1B2117" text-anchor="end" style="font-family:'DM Sans','Aventa',Helvetica,Arial,sans-serif;font-size:12px;font-weight:400;letter-spacing:0em;">J1 fresta 1,60 x 0,60 em corte</text>
<line x1="1111.40" y1="622.80" x2="1275.20" y2="580.80" stroke="#1B2117" stroke-width="0.7" opacity="1.0" stroke-linecap="round"/>
<circle cx="1111.40" cy="622.80" r="2.2" fill="#1B2117" stroke="#1B2117" stroke-width="1.0"/>
<text x="1275.20" y="577.80" fill="#1B2117" text-anchor="end" style="font-family:'DM Sans','Aventa',Helvetica,Arial,sans-serif;font-size:12px;font-weight:400;letter-spacing:0em;">Painel SIP 100 mm + ripado</text>
<text x="1035.80" y="508.20" fill="#8B714E" text-anchor="middle" style="font-family:'DM Sans','Aventa',Helvetica,Arial,sans-serif;font-size:8.5px;font-weight:400;letter-spacing:0em;">porta de correr 0,90 x 2,10</text>
<text x="1035.80" y="529.20" fill="#8B714E" text-anchor="middle" style="font-family:'DM Sans','Aventa',Helvetica,Arial,sans-serif;font-size:8.5px;font-weight:400;letter-spacing:0em;">(o plano corta o vão)</text>
<line x1="541.88" y1="564.00" x2="258.80" y2="404.40" stroke="#1B2117" stroke-width="0.7" opacity="1.0" stroke-linecap="round"/>
<circle cx="541.88" cy="564.00" r="2.2" fill="#1B2117" stroke="#1B2117" stroke-width="1.0"/>
<text x="258.80" y="401.40" fill="#1B2117" text-anchor="end" style="font-family:'DM Sans','Aventa',Helvetica,Arial,sans-serif;font-size:12px;font-weight:400;letter-spacing:0em;">PC1 porta de correr em corte</text>
<line x1="394.87" y1="471.60" x2="258.80" y2="337.20" stroke="#1B2117" stroke-width="0.7" opacity="1.0" stroke-linecap="round"/>
<circle cx="394.87" cy="471.60" r="2.2" fill="#1B2117" stroke="#1B2117" stroke-width="1.0"/>
<text x="258.80" y="334.20" fill="#1B2117" text-anchor="end" style="font-family:'DM Sans','Aventa',Helvetica,Arial,sans-serif;font-size:12px;font-weight:400;letter-spacing:0em;">Vela: postes Ø76 h 2,40 + cabo</text>
<line x1="544.40" y1="505.20" x2="258.80" y2="463.20" stroke="#1B2117" stroke-width="0.7" opacity="1.0" stroke-linecap="round"/>
<circle cx="544.40" cy="505.20" r="2.2" fill="#1B2117" stroke="#1B2117" stroke-width="1.0"/>
<text x="258.80" y="460.20" fill="#1B2117" text-anchor="end" style="font-family:'DM Sans','Aventa',Helvetica,Arial,sans-serif;font-size:12px;font-weight:400;letter-spacing:0em;">Pilar P4 Ø101,6 + madeira</text>
<line x1="368.00" y1="700.08" x2="258.80" y2="580.80" stroke="#1B2117" stroke-width="0.7" opacity="1.0" stroke-linecap="round"/>
<circle cx="368.00" cy="700.08" r="2.2" fill="#1B2117" stroke="#1B2117" stroke-width="1.0"/>
<text x="258.80" y="577.80" fill="#1B2117" text-anchor="end" style="font-family:'DM Sans','Aventa',Helvetica,Arial,sans-serif;font-size:12px;font-weight:400;letter-spacing:0em;">Deck cumaru · vigas U 150</text>
<line x1="435.20" y1="736.20" x2="258.80" y2="648.00" stroke="#1B2117" stroke-width="0.7" opacity="1.0" stroke-linecap="round"/>
<circle cx="435.20" cy="736.20" r="2.2" fill="#1B2117" stroke="#1B2117" stroke-width="1.0"/>
<text x="258.80" y="645.00" fill="#1B2117" text-anchor="end" style="font-family:'DM Sans','Aventa',Helvetica,Arial,sans-serif;font-size:12px;font-weight:400;letter-spacing:0em;">Estacas Ø76, cabeçote ajustável</text>
<line x1="863.60" y1="637.92" x2="830.00" y2="559.80" stroke="#1B2117" stroke-width="0.7" opacity="1.0" stroke-linecap="round"/>
<circle cx="863.60" cy="637.92" r="2.2" fill="#1B2117" stroke="#1B2117" stroke-width="1.0"/>
<text x="830.00" y="556.80" fill="#1B2117" text-anchor="end" style="font-family:'DM Sans','Aventa',Helvetica,Arial,sans-serif;font-size:11px;font-weight:400;letter-spacing:0em;">Cama king sob a lanterna</text>
<line x1="326.00" y1="778.20" x2="326.00" y2="810.12" stroke="#8B714E" stroke-width="0.7" opacity="1.0" stroke-linecap="round"/>
<line x1="544.40" y1="778.20" x2="544.40" y2="810.12" stroke="#8B714E" stroke-width="0.7" opacity="1.0" stroke-linecap="round"/>
<line x1="326.00" y1="803.40" x2="544.40" y2="803.40" stroke="#8B714E" stroke-width="0.8" opacity="1.0" stroke-linecap="round"/>
<line x1="322.0" y1="807.4" x2="330.0" y2="799.4" stroke="#8B714E" stroke-width="1.1"/>
<line x1="540.4" y1="807.4" x2="548.4" y2="799.4" stroke="#8B714E" stroke-width="1.1"/>
<text x="435.20" y="799.40" fill="#8B714E" text-anchor="middle" style="font-family:'DM Sans','Aventa',Helvetica,Arial,sans-serif;font-size:13px;font-weight:400;letter-spacing:0em;">2,60 (deck)</text>
<line x1="544.40" y1="778.20" x2="544.40" y2="810.12" stroke="#8B714E" stroke-width="0.7" opacity="1.0" stroke-linecap="round"/>
<line x1="960.20" y1="778.20" x2="960.20" y2="810.12" stroke="#8B714E" stroke-width="0.7" opacity="1.0" stroke-linecap="round"/>
<line x1="544.40" y1="803.40" x2="960.20" y2="803.40" stroke="#8B714E" stroke-width="0.8" opacity="1.0" stroke-linecap="round"/>
<line x1="540.4" y1="807.4" x2="548.4" y2="799.4" stroke="#8B714E" stroke-width="1.1"/>
<line x1="956.2" y1="807.4" x2="964.2" y2="799.4" stroke="#8B714E" stroke-width="1.1"/>
<text x="752.30" y="799.40" fill="#8B714E" text-anchor="middle" style="font-family:'DM Sans','Aventa',Helvetica,Arial,sans-serif;font-size:13px;font-weight:400;letter-spacing:0em;">4,95 (estar + suíte)</text>
<line x1="960.20" y1="778.20" x2="960.20" y2="810.12" stroke="#8B714E" stroke-width="0.7" opacity="1.0" stroke-linecap="round"/>
<line x1="1115.60" y1="778.20" x2="1115.60" y2="810.12" stroke="#8B714E" stroke-width="0.7" opacity="1.0" stroke-linecap="round"/>
<line x1="960.20" y1="803.40" x2="1115.60" y2="803.40" stroke="#8B714E" stroke-width="0.8" opacity="1.0" stroke-linecap="round"/>
<line x1="956.2" y1="807.4" x2="964.2" y2="799.4" stroke="#8B714E" stroke-width="1.1"/>
<line x1="1111.6" y1="807.4" x2="1119.6" y2="799.4" stroke="#8B714E" stroke-width="1.1"/>
<text x="1037.90" y="799.40" fill="#8B714E" text-anchor="middle" style="font-family:'DM Sans','Aventa',Helvetica,Arial,sans-serif;font-size:13px;font-weight:400;letter-spacing:0em;">1,85 (banho)</text>
<line x1="302.47" y1="778.20" x2="302.47" y2="856.32" stroke="#8B714E" stroke-width="0.7" opacity="1.0" stroke-linecap="round"/>
<line x1="1115.60" y1="778.20" x2="1115.60" y2="856.32" stroke="#8B714E" stroke-width="0.7" opacity="1.0" stroke-linecap="round"/>
<line x1="302.47" y1="849.60" x2="1115.60" y2="849.60" stroke="#8B714E" stroke-width="0.8" opacity="1.0" stroke-linecap="round"/>
<line x1="298.5" y1="853.6" x2="306.5" y2="845.6" stroke="#8B714E" stroke-width="1.1"/>
<line x1="1111.6" y1="853.6" x2="1119.6" y2="845.6" stroke="#8B714E" stroke-width="1.1"/>
<text x="709.03" y="845.60" fill="#8B714E" text-anchor="middle" style="font-family:'DM Sans','Aventa',Helvetica,Arial,sans-serif;font-size:13px;font-weight:400;letter-spacing:0em;">9,68 (vela + deck + pavilhão)</text>
<line x1="1317.20" y1="690.00" x2="1310.48" y2="690.00" stroke="#8B714E" stroke-width="0.7" opacity="1.0" stroke-linecap="round"/>
<line x1="1317.20" y1="253.20" x2="1310.48" y2="253.20" stroke="#8B714E" stroke-width="0.7" opacity="1.0" stroke-linecap="round"/>
<line x1="1317.20" y1="690.00" x2="1317.20" y2="253.20" stroke="#8B714E" stroke-width="0.8" opacity="1.0" stroke-linecap="round"/>
<line x1="1313.2" y1="694.0" x2="1321.2" y2="686.0" stroke="#8B714E" stroke-width="1.1"/>
<line x1="1313.2" y1="257.2" x2="1321.2" y2="249.2" stroke="#8B714E" stroke-width="1.1"/>
<text x="1317.20" y="467.60" fill="#8B714E" text-anchor="middle" style="font-family:'DM Sans','Aventa',Helvetica,Arial,sans-serif;font-size:13px;font-weight:400;letter-spacing:0em;" transform="rotate(-90 1317.20 471.60)">5,20</text>
<line x1="1367.60" y1="690.00" x2="1360.88" y2="690.00" stroke="#8B714E" stroke-width="0.7" opacity="1.0" stroke-linecap="round"/>
<line x1="1367.60" y1="303.60" x2="1360.88" y2="303.60" stroke="#8B714E" stroke-width="0.7" opacity="1.0" stroke-linecap="round"/>
<line x1="1367.60" y1="690.00" x2="1367.60" y2="303.60" stroke="#8B714E" stroke-width="0.8" opacity="1.0" stroke-linecap="round"/>
<line x1="1363.6" y1="694.0" x2="1371.6" y2="686.0" stroke="#8B714E" stroke-width="1.1"/>
<line x1="1363.6" y1="307.6" x2="1371.6" y2="299.6" stroke="#8B714E" stroke-width="1.1"/>
<text x="1367.60" y="492.80" fill="#8B714E" text-anchor="middle" style="font-family:'DM Sans','Aventa',Helvetica,Arial,sans-serif;font-size:13px;font-weight:400;letter-spacing:0em;" transform="rotate(-90 1367.60 496.80)">4,60 (anel)</text>
<line x1="1418.00" y1="690.00" x2="1411.28" y2="690.00" stroke="#8B714E" stroke-width="0.7" opacity="1.0" stroke-linecap="round"/>
<line x1="1418.00" y1="463.20" x2="1411.28" y2="463.20" stroke="#8B714E" stroke-width="0.7" opacity="1.0" stroke-linecap="round"/>
<line x1="1418.00" y1="690.00" x2="1418.00" y2="463.20" stroke="#8B714E" stroke-width="0.8" opacity="1.0" stroke-linecap="round"/>
<line x1="1414.0" y1="694.0" x2="1422.0" y2="686.0" stroke="#8B714E" stroke-width="1.1"/>
<line x1="1414.0" y1="467.2" x2="1422.0" y2="459.2" stroke="#8B714E" stroke-width="1.1"/>
<text x="1418.00" y="572.60" fill="#8B714E" text-anchor="middle" style="font-family:'DM Sans','Aventa',Helvetica,Arial,sans-serif;font-size:13px;font-weight:400;letter-spacing:0em;" transform="rotate(-90 1418.00 576.60)">2,70 (beiral)</text>
<line x1="1182.80" y1="690.00" x2="1176.08" y2="690.00" stroke="#8B714E" stroke-width="0.7" opacity="1.0" stroke-linecap="round"/>
<line x1="1182.80" y1="488.40" x2="1176.08" y2="488.40" stroke="#8B714E" stroke-width="0.7" opacity="1.0" stroke-linecap="round"/>
<line x1="1182.80" y1="690.00" x2="1182.80" y2="488.40" stroke="#8B714E" stroke-width="0.8" opacity="1.0" stroke-linecap="round"/>
<line x1="1178.8" y1="694.0" x2="1186.8" y2="686.0" stroke="#8B714E" stroke-width="1.1"/>
<line x1="1178.8" y1="492.4" x2="1186.8" y2="484.4" stroke="#8B714E" stroke-width="1.1"/>
<text x="1182.80" y="585.20" fill="#8B714E" text-anchor="middle" style="font-family:'DM Sans','Aventa',Helvetica,Arial,sans-serif;font-size:10px;font-weight:400;letter-spacing:0em;" transform="rotate(-90 1182.80 589.20)">2,40 (forro)</text>
<line x1="200.00" y1="690.00" x2="193.28" y2="690.00" stroke="#8B714E" stroke-width="0.7" opacity="1.0" stroke-linecap="round"/>
<line x1="200.00" y1="488.40" x2="193.28" y2="488.40" stroke="#8B714E" stroke-width="0.7" opacity="1.0" stroke-linecap="round"/>
<line x1="200.00" y1="690.00" x2="200.00" y2="488.40" stroke="#8B714E" stroke-width="0.8" opacity="1.0" stroke-linecap="round"/>
<line x1="196.0" y1="694.0" x2="204.0" y2="686.0" stroke="#8B714E" stroke-width="1.1"/>
<line x1="196.0" y1="492.4" x2="204.0" y2="484.4" stroke="#8B714E" stroke-width="1.1"/>
<text x="200.00" y="585.20" fill="#8B714E" text-anchor="middle" style="font-family:'DM Sans','Aventa',Helvetica,Arial,sans-serif;font-size:10px;font-weight:400;letter-spacing:0em;" transform="rotate(-90 200.00 589.20)">2,40 (PC1)</text>
<line x1="200.00" y1="765.60" x2="193.28" y2="765.60" stroke="#8B714E" stroke-width="0.7" opacity="1.0" stroke-linecap="round"/>
<line x1="200.00" y1="690.00" x2="193.28" y2="690.00" stroke="#8B714E" stroke-width="0.7" opacity="1.0" stroke-linecap="round"/>
<line x1="200.00" y1="765.60" x2="200.00" y2="690.00" stroke="#8B714E" stroke-width="0.8" opacity="1.0" stroke-linecap="round"/>
<line x1="196.0" y1="769.6" x2="204.0" y2="761.6" stroke="#8B714E" stroke-width="1.1"/>
<line x1="196.0" y1="694.0" x2="204.0" y2="686.0" stroke="#8B714E" stroke-width="1.1"/>
<text x="200.00" y="723.80" fill="#8B714E" text-anchor="middle" style="font-family:'DM Sans','Aventa',Helvetica,Arial,sans-serif;font-size:10px;font-weight:400;letter-spacing:0em;" transform="rotate(-90 200.00 727.80)">0,90 (máx.)</text>
<rect x="132.8" y="864.7" width="84.0" height="10.1" fill="#1B2117" stroke="#1B2117" stroke-width="0.7"/>
<rect x="216.8" y="864.7" width="84.0" height="10.1" fill="#FEF5F0" stroke="#1B2117" stroke-width="0.7"/>
<rect x="300.8" y="864.7" width="84.0" height="10.1" fill="#1B2117" stroke="#1B2117" stroke-width="0.7"/>
<rect x="384.8" y="864.7" width="84.0" height="10.1" fill="#FEF5F0" stroke="#1B2117" stroke-width="0.7"/>
<rect x="468.8" y="864.7" width="84.0" height="10.1" fill="#1B2117" stroke="#1B2117" stroke-width="0.7"/>
<text x="132.80" y="888.80" fill="#1B2117" text-anchor="middle" style="font-family:'DM Sans','Aventa',Helvetica,Arial,sans-serif;font-size:10px;font-weight:400;letter-spacing:0em;">0</text>
<text x="216.80" y="888.80" fill="#1B2117" text-anchor="middle" style="font-family:'DM Sans','Aventa',Helvetica,Arial,sans-serif;font-size:10px;font-weight:400;letter-spacing:0em;">1</text>
<text x="300.80" y="888.80" fill="#1B2117" text-anchor="middle" style="font-family:'DM Sans','Aventa',Helvetica,Arial,sans-serif;font-size:10px;font-weight:400;letter-spacing:0em;">2</text>
<text x="384.80" y="888.80" fill="#1B2117" text-anchor="middle" style="font-family:'DM Sans','Aventa',Helvetica,Arial,sans-serif;font-size:10px;font-weight:400;letter-spacing:0em;">3</text>
<text x="468.80" y="888.80" fill="#1B2117" text-anchor="middle" style="font-family:'DM Sans','Aventa',Helvetica,Arial,sans-serif;font-size:10px;font-weight:400;letter-spacing:0em;">4</text>
<text x="552.80" y="888.80" fill="#1B2117" text-anchor="middle" style="font-family:'DM Sans','Aventa',Helvetica,Arial,sans-serif;font-size:10px;font-weight:400;letter-spacing:0em;">5</text>
<text x="566.80" y="872.80" fill="#1B2117" text-anchor="start" style="font-family:'DM Sans','Aventa',Helvetica,Arial,sans-serif;font-size:10px;font-weight:400;letter-spacing:0em;">m</text>
<rect x="1010" y="880" width="560" height="96" fill="#FEF5F0" stroke="#1B2117" stroke-width="1.2"/>
<line x1="1210" y1="880" x2="1210" y2="976" stroke="#1B2117" stroke-width="0.8"/>
<line x1="1010" y1="926" x2="1570" y2="926" stroke="#1B2117" stroke-width="0.8"/>
<text x="1110.00" y="904.00" fill="#1B2117" text-anchor="middle" style="font-family:'DM Sans','Aventa',Helvetica,Arial,sans-serif;font-size:20px;font-weight:800;letter-spacing:0.35em;">ZION</text>
<text x="1110.00" y="918.00" fill="#8B714E" text-anchor="middle" style="font-family:'DM Sans','Aventa',Helvetica,Arial,sans-serif;font-size:8.5px;font-weight:400;letter-spacing:0.3em;">GLAMPING COLLECTION</text>
<text x="1110.00" y="948.00" fill="#1B2117" text-anchor="middle" style="font-family:'DM Sans','Aventa',Helvetica,Arial,sans-serif;font-size:12px;font-weight:700;letter-spacing:0.2em;">ZION LODGE</text>
<text x="1110.00" y="964.00" fill="#8B714E" text-anchor="middle" style="font-family:'DM Sans','Aventa',Helvetica,Arial,sans-serif;font-size:7.5px;font-weight:400;letter-spacing:0.2em;">ZION HOTEL GROUP INTERNATIONAL</text>
<text x="1224.00" y="902.00" fill="#1B2117" text-anchor="start" style="font-family:'DM Sans','Aventa',Helvetica,Arial,sans-serif;font-size:14px;font-weight:700;letter-spacing:0.12em;">CORTE LONGITUDINAL A-A</text>
<text x="1224.00" y="918.00" fill="#8B714E" text-anchor="start" style="font-family:'DM Sans','Aventa',Helvetica,Arial,sans-serif;font-size:10px;font-weight:400;letter-spacing:0em;">Deck e vela, cama sob a lanterna, banho com ático técnico, envelope em</text>
<text x="1224.00" y="946.00" fill="#1B2117" text-anchor="start" style="font-family:'DM Sans','Aventa',Helvetica,Arial,sans-serif;font-size:10px;font-weight:400;letter-spacing:0.15em;">ESCALA 1:50 (A1)</text>
<text x="1224.00" y="964.00" fill="#8B714E" text-anchor="start" style="font-family:'DM Sans','Aventa',Helvetica,Arial,sans-serif;font-size:8px;font-weight:400;letter-spacing:0.1em;">PROJETO CONCEITUAL · ESTUDO PRELIMINAR</text>
<text x="1556.00" y="946.00" fill="#1B2117" text-anchor="end" style="font-family:'DM Sans','Aventa',Helvetica,Arial,sans-serif;font-size:10px;font-weight:600;letter-spacing:0.15em;">FOLHA 06/LG</text>
<text x="1556.00" y="964.00" fill="#8B714E" text-anchor="end" style="font-family:'DM Sans','Aventa',Helvetica,Arial,sans-serif;font-size:8px;font-weight:400;letter-spacing:0.15em;">SET 2026</text></svg>