  0
SECTION
  2
HEADER
  9
$ACADVER
  1
AC1024
  9
$ACADMAINTVER
 70
6
  9
$DWGCODEPAGE
  3
ANSI_1252
  9
$LASTSAVEDBY
  1
ezdxf
  9
$INSBASE
 10
0.0
 20
0.0
 30
0.0
  9
$EXTMIN
 10
1e+20
 20
1e+20
 30
1e+20
  9
$EXTMAX
 10
-1e+20
 20
-1e+20
 30
-1e+20
  9
$LIMMIN
 10
0.0
 20
0.0
  9
$LIMMAX
 10
420.0
 20
297.0
  9
$ORTHOMODE
 70
0
  9
$REGENMODE
 70
1
  9
$FILLMODE
 70
1
  9
$QTEXTMODE
 70
0
  9
$MIRRTEXT
 70
1
  9
$LTSCALE
 40
1.0
  9
$ATTMODE
 70
1
  9
$TEXTSIZE
 40
2.5
  9
$TRACEWID
 40
1.0
  9
$TEXTSTYLE
  7
OpenSans
  9
$CLAYER
  8
0
  9
$CELTYPE
  6
ByLayer
  9
$CECOLOR
 62
256
  9
$CELTSCALE
 40
1.0
  9
$DISPSILH
 70
0
  9
$DIMSCALE
 40
1.0
  9
$DIMASZ
 40
0.175
  9
$DIMEXO
 40
0.125
  9
$DIMDLI
 40
3.75
  9
$DIMRND
 40
0.0
  9
$DIMDLE
 40
0.0
  9
$DIMEXE
 40
0.375
  9
$DIMTP
 40
0.0
  9
$DIMTM
 40
0.0
  9
$DIMTXT
 40
0.25
  9
$DIMCEN
 40
2.5
  9
$DIMTSZ
 40
0.0
  9
$DIMTOL
 70
0
  9
$DIMLIM
 70
0
  9
$DIMTIH
 70
0
  9
$DIMTOH
 70
0
  9
$DIMSE1
 70
0
  9
$DIMSE2
 70
0
  9
$DIMTAD
 70
1
  9
$DIMZIN
 70
12
  9
$DIMBLK
  1
ARCHTICK
  9
$DIMASO
 70
1
  9
$DIMSHO
 70
1
  9
$DIMPOST
  1

  9
$DIMAPOST
  1

  9
$DIMALT
 70
0
  9
$DIMALTD
 70
3
  9
$DIMALTF
 40
0.03937007874
  9
$DIMLFAC
 40
100.0
  9
$DIMTOFL
 70
1
  9
$DIMTVP
 40
0.0
  9
$DIMTIX
 70
0
  9
$DIMSOXD
 70
0
  9
$DIMSAH
 70
0
  9
$DIMBLK1
  1

  9
$DIMBLK2
  1

  9
$DIMSTYLE
  2
EZDXF
  9
$DIMCLRD
 70
0
  9
$DIMCLRE
 70
0
  9
$DIMCLRT
 70
0
  9
$DIMTFAC
 40
0.5
  9
$DIMGAP
 40
0.1
  9
$DIMJUST
 70
0
  9
$DIMSD1
 70
0
  9
$DIMSD2
 70
0
  9
$DIMTOLJ
 70
0
  9
$DIMTZIN
 70
8
  9
$DIMALTZ
 70
0
  9
$DIMALTTZ
 70
0
  9
$DIMUPT
 70
1
  9
$DIMDEC
 70
2
  9
$DIMTDEC
 70
2
  9
$DIMALTU
 70
2
  9
$DIMALTTD
 70
3
  9
$DIMTXSTY
  7
OpenSansCondensed-Light
  9
$DIMAUNIT
 70
0
  9
$DIMADEC
 70
2
  9
$DIMALTRND
 40
0.0
  9
$DIMAZIN
 70
3
  9
$DIMDSEP
 70
46
  9
$DIMATFIT
 70
3
  9
$DIMFRAC
 70
0
  9
$DIMLDRBLK
  1

  9
$DIMLUNIT
 70
2
  9
$DIMLWD
 70
-2
  9
$DIMLWE
 70
-2
  9
$DIMTMOVE
 70
2
  9
$DIMFXL
 40
1.0
  9
$DIMFXLON
 70
0
  9
$DIMJOGANG
 40
0.785398163397
  9
$DIMTFILL
 70
0
  9
$DIMTFILLCLR
 70
0
  9
$DIMARCSYM
 70
0
  9
$DIMLTYPE
  6

  9
$DIMLTEX1
  6

  9
$DIMLTEX2
  6

  9
$DIMTXTDIRECTION
 70
0
  9
$LUNITS
 70
2
  9
$LUPREC
 70
4
  9
$SKETCHINC
 40
1.0
  9
$FILLETRAD
 40
10.0
  9
$AUNITS
 70
0
  9
$AUPREC
 70
2
  9
$MENU
  1
.
  9
$ELEVATION
 40
0.0
  9
$PELEVATION
 40
0.0
  9
$THICKNESS
 40
0.0
  9
$LIMCHECK
 70
0
  9
$CHAMFERA
 40
0.0
  9
$CHAMFERB
 40
0.0
  9
$CHAMFERC
 40
0.0
  9
$CHAMFERD
 40
0.0
  9
$SKPOLY
 70
0
  9
$TDCREATE
 40
2461301.6927314815
  9
$TDUCREATE
 40
2458532.153996898
  9
$TDUPDATE
 40
2461301.6927314815
  9
$TDUUPDATE
 40
2458532.1544311
  9
$TDINDWG
 40
0.0
  9
$TDUSRTIMER
 40
0.0
  9
$USRTIMER
 70
1
  9
$ANGBASE
 50
0.0
  9
$ANGDIR
 70
0
  9
$PDMODE
 70
0
  9
$PDSIZE
 40
0.0
  9
$PLINEWID
 40
0.0
  9
$SPLFRAME
 70
0
  9
$SPLINETYPE
 70
6
  9
$SPLINESEGS
 70
8
  9
$HANDSEED
  5
174
  9
$SURFTAB1
 70
6
  9
$SURFTAB2
 70
6
  9
$SURFTYPE
 70
6
  9
$SURFU
 70
6
  9
$SURFV
 70
6
  9
$UCSBASE
  2

  9
$UCSNAME
  2

  9
$UCSORG
 10
0.0
 20
0.0
 30
0.0
  9
$UCSXDIR
 10
1.0
 20
0.0
 30
0.0
  9
$UCSYDIR
 10
0.0
 20
1.0
 30
0.0
  9
$UCSORTHOREF
  2

  9
$UCSORTHOVIEW
 70
0
  9
$UCSORGTOP
 10
0.0
 20
0.0
 30
0.0
  9
$UCSORGBOTTOM
 10
0.0
 20
0.0
 30
0.0
  9
$UCSORGLEFT
 10
0.0
 20
0.0
 30
0.0
  9
$UCSORGRIGHT
 10
0.0
 20
0.0
 30
0.0
  9
$UCSORGFRONT
 10
0.0
 20
0.0
 30
0.0
  9
$UCSORGBACK
 10
0.0
 20
0.0
 30
0.0
  9
$PUCSBASE
  2

  9
$PUCSNAME
  2

  9
$PUCSORG
 10
0.0
 20
0.0
 30
0.0
  9
$PUCSXDIR
 10
1.0
 20
0.0
 30
0.0
  9
$PUCSYDIR
 10
0.0
 20
1.0
 30
0.0
  9
$PUCSORTHOREF
  2

  9
$PUCSORTHOVIEW
 70
0
  9
$PUCSORGTOP
 10
0.0
 20
0.0
 30
0.0
  9
$PUCSORGBOTTOM
 10
0.0
 20
0.0
 30
0.0
  9
$PUCSORGLEFT
 10
0.0
 20
0.0
 30
0.0
  9
$PUCSORGRIGHT
 10
0.0
 20
0.0
 30
0.0
  9
$PUCSORGFRONT
 10
0.0
 20
0.0
 30
0.0
  9
$PUCSORGBACK
 10
0.0
 20
0.0
 30
0.0
  9
$USERI1
 70
0
  9
$USERI2
 70
0
  9
$USERI3
 70
0
  9
$USERI4
 70
0
  9
$USERI5
 70
0
  9
$USERR1
 40
0.0
  9
$USERR2
 40
0.0
  9
$USERR3
 40
0.0
  9
$USERR4
 40
0.0
  9
$USERR5
 40
0.0
  9
$WORLDVIEW
 70
1
  9
$SHADEDGE
 70
3
  9
$SHADEDIF
 70
70
  9
$TILEMODE
 70
1
  9
$MAXACTVP
 70
64
  9
$PINSBASE
 10
0.0
 20
0.0
 30
0.0
  9
$PLIMCHECK
 70
0
  9
$PEXTMIN
 10
1e+20
 20
1e+20
 30
1e+20
  9
$PEXTMAX
 10
-1e+20
 20
-1e+20
 30
-1e+20
  9
$PLIMMIN
 10
0.0
 20
0.0
  9
$PLIMMAX
 10
420.0
 20
297.0
  9
$UNITMODE
 70
0
  9
$VISRETAIN
 70
1
  9
$PLINEGEN
 70
0
  9
$PSLTSCALE
 70
1
  9
$TREEDEPTH
 70
3020
  9
$CMLSTYLE
  2
Standard
  9
$CMLJUST
 70
0
  9
$CMLSCALE
 40
20.0
  9
$PROXYGRAPHICS
 70
1
  9
$MEASUREMENT
 70
1
  9
$CELWEIGHT
370
-1
  9
$ENDCAPS
280
0
  9
$JOINSTYLE
280
0
  9
$LWDISPLAY
290
0
  9
$INSUNITS
 70
6
  9
$HYPERLINKBASE
  1

  9
$STYLESHEET
  1

  9
$XEDIT
290
1
  9
$CEPSNTYPE
380
0
  9
$PSTYLEMODE
290
1
  9
$FINGERPRINTGUID
  2
{9BF0F06C-1DA3-4F64-AB62-0152C3946D06}
  9
$VERSIONGUID
  2
{13EC61E3-3AF9-46E7-BA06-3A4B503600B4}
  9
$EXTNAMES
290
1
  9
$PSVPSCALE
 40
0.0
  9
$OLESTARTUP
290
0
  9
$SORTENTS
280
127
  9
$INDEXCTL
280
0
  9
$HIDETEXT
280
1
  9
$XCLIPFRAME
280
1
  9
$HALOGAP
280
0
  9
$OBSCOLOR
 70
257
  9
$OBSLTYPE
280
0
  9
$INTERSECTIONDISPLAY
280
0
  9
$INTERSECTIONCOLOR
 70
257
  9
$DIMASSOC
280
2
  9
$PROJECTNAME
  1

  9
$CAMERADISPLAY
290
0
  9
$LENSLENGTH
 40
50.0
  9
$CAMERAHEIGHT
 40
0.0
  9
$STEPSPERSEC
 40
24.0
  9
$STEPSIZE
 40
100.0
  9
$3DDWFPREC
 40
2.0
  9
$PSOLWIDTH
 40
0.005
  9
$PSOLHEIGHT
 40
0.08
  9
$LOFTANG1
 40
1.570796326795
  9
$LOFTANG2
 40
1.570796326795
  9
$LOFTMAG1
 40
0.0
  9
$LOFTMAG2
 40
0.0
  9
$LOFTPARAM
 70
7
  9
$LOFTNORMALS
280
1
  9
$LATITUDE
 40
37.795
  9
$LONGITUDE
 40
-122.394
  9
$NORTHDIRECTION
 40
0.0
  9
$TIMEZONE
 70
-8000
  9
$LIGHTGLYPHDISPLAY
280
1
  9
$TILEMODELIGHTSYNCH
280
1
  9
$CMATERIAL
347
20
  9
$SOLIDHIST
280
0
  9
$SHOWHIST
280
1
  9
$DWFFRAME
280
2
  9
$DGNFRAME
280
2
  9
$REALWORLDSCALE
290
1
  9
$INTERFERECOLOR
 62
256
  9
$CSHADOW
280
0
  9
$SHADOWPLANELOCATION
 40
0.0
  0
ENDSEC
  0
SECTION
  2
CLASSES
  0
CLASS
  1
ACDBDICTIONARYWDFLT
  2
AcDbDictionaryWithDefault
  3
ObjectDBX Classes
 90
0
 91
0
280
0
281
0
  0
CLASS
  1
SUN
  2
AcDbSun
  3
SCENEOE
 90
1153
 91
0
280
0
281
0
  0
CLASS
  1
VISUALSTYLE
  2
AcDbVisualStyle
  3
ObjectDBX Classes
 90
4095
 91
0
280
0
281
0
  0
CLASS
  1
MATERIAL
  2
AcDbMaterial
  3
ObjectDBX Classes
 90
1153
 91
0
280
0
281
0
  0
CLASS
  1
SCALE
  2
AcDbScale
  3
ObjectDBX Classes
 90
1153
 91
0
280
0
281
0
  0
CLASS
  1
TABLESTYLE
  2
AcDbTableStyle
  3
ObjectDBX Classes
 90
4095
 91
0
280
0
281
0
  0
CLASS
  1
MLEADERSTYLE
  2
AcDbMLeaderStyle
  3
ACDB_MLEADERSTYLE_CLASS
 90
4095
 91
0
280
0
281
0
  0
CLASS
  1
DICTIONARYVAR
  2
AcDbDictionaryVar
  3
ObjectDBX Classes
 90
0
 91
0
280
0
281
0
  0
CLASS
  1
CELLSTYLEMAP
  2
AcDbCellStyleMap
  3
ObjectDBX Classes
 90
1152
 91
0
280
0
281
0
  0
CLASS
  1
MENTALRAYRENDERSETTINGS
  2
AcDbMentalRayRenderSettings
  3
SCENEOE
 90
1024
 91
0
280
0
281
0
  0
CLASS
  1
ACDBDETAILVIEWSTYLE
  2
AcDbDetailViewStyle
  3
ObjectDBX Classes
 90
1025
 91
0
280
0
281
0
  0
CLASS
  1
ACDBSECTIONVIEWSTYLE
  2
AcDbSectionViewStyle
  3
ObjectDBX Classes
 90
1025
 91
0
280
0
281
0
  0
CLASS
  1
RASTERVARIABLES
  2
AcDbRasterVariables
  3
ISM
 90
0
 91
0
280
0
281
0
  0
CLASS
  1
ACDBPLACEHOLDER
  2
AcDbPlaceHolder
  3
ObjectDBX Classes
 90
0
 91
0
280
0
281
0
  0
CLASS
  1
LAYOUT
  2
AcDbLayout
  3
ObjectDBX Classes
 90
0
 91
0
280
0
281
0
  0
ENDSEC
  0
SECTION
  2
TABLES
  0
TABLE
  2
VPORT
  5
8
330
0
100
AcDbSymbolTable
 70
1
  0
VPORT
  5
23
330
8
100
AcDbSymbolTableRecord
100
AcDbViewportTableRecord
  2
*Active
 70
0
 10
0.0
 20
0.0
 11
1.0
 21
1.0
 12
0.0
 22
0.0
 13
0.0
 23
0.0
 14
0.5
 24
0.5
 15
0.5
 25
0.5
 16
0.0
 26
0.0
 36
1.0
 17
0.0
 27
0.0
 37
0.0
 40
1000.0
 41
1.34
 42
50.0
 43
0.0
 44
0.0
 50
0.0
 51
0.0
 71
0
 72
1000
 73
1
 74
3
 75
0
 76
0
 77
0
 78
0
281
0
 65
0
146
0.0
  0
ENDTAB
  0
TABLE
  2
LTYPE
  5
2
330
0
100
AcDbSymbolTable
 70
21
  0
LTYPE
  5
24
330
2
100
AcDbSymbolTableRecord
100
AcDbLinetypeTableRecord
  2
ByBlock
 70
0
  3

 72
65
 73
0
 40
0.0
  0
LTYPE
  5
25
330
2
100
AcDbSymbolTableRecord
100
AcDbLinetypeTableRecord
  2
ByLayer
 70
0
  3

 72
65
 73
0
 40
0.0
  0
LTYPE
  5
26
330
2
100
AcDbSymbolTableRecord
100
AcDbLinetypeTableRecord
  2
Continuous
 70
0
  3

 72
65
 73
0
 40
0.0
  0
LTYPE
  5
2F
330
2
100
AcDbSymbolTableRecord
100
AcDbLinetypeTableRecord
  2
CENTER
 70
0
  3
Center ____ _ ____ _ ____ _ ____ _ ____ _ ____
 72
65
 73
4
 40
5.08
 49
3.175
 74
0
 49
-0.635
 74
0
 49
0.635
 74
0
 49
-0.635
 74
0
  0
LTYPE
  5
30
330
2
100
AcDbSymbolTableRecord
100
AcDbLinetypeTableRecord
  2
CENTERX2
 70
0
  3
Center (2x) ________  __  ________  __  ________
 72
65
 73
4
 40
8.89
 49
6.35
 74
0
 49
-0.635
 74
0
 49
1.27
 74
0
 49
-0.635
 74
0
  0
LTYPE
  5
31
330
2
100
AcDbSymbolTableRecord
100
AcDbLinetypeTableRecord
  2
CENTER2
 70
0
  3
Center (.5x) ____ _ ____ _ ____ _ ____ _ ____
 72
65
 73
4
 40
2.54
 49
1.587
 74
0
 49
-0.318
 74
0
 49
0.318
 74
0
 49
-0.318
 74
0
  0
LTYPE
  5
32
330
2
100
AcDbSymbolTableRecord
100
AcDbLinetypeTableRecord
  2
DASHED
 70
0
  3
Dashed __ __ __ __ __ __ __ __ __ __ __ __ __ _
 72
65
 73
2
 40
1.524
 49
1.27
 74
0
 49
-0.254
 74
0
  0
LTYPE
  5
33
330
2
100
AcDbSymbolTableRecord
100
AcDbLinetypeTableRecord
  2
DASHEDX2
 70
0
  3
Dashed (2x) ____  ____  ____  ____  ____  ____
 72
65
 73
2
 40
3.048
 49
2.54
 74
0
 49
-0.508
 74
0
  0
LTYPE
  5
34
330
2
100
AcDbSymbolTableRecord
100
AcDbLinetypeTableRecord
  2
DASHED2
 70
0
  3
Dashed (.5x) _ _ _ _ _ _ _ _ _ _ _ _ _ _
 72
65
 73
2
 40
0.762
 49
0.635
 74
0
 49
-0.127
 74
0
  0
LTYPE
  5
35
330
2
100
AcDbSymbolTableRecord
100
AcDbLinetypeTableRecord
  2
PHANTOM
 70
0
  3
Phantom ______  __  __  ______  __  __  ______
 72
65
 73
6
 40
6.35
 49
3.175
 74
0
 49
-0.635
 74
0
 49
0.635
 74
0
 49
-0.635
 74
0
 49
0.635
 74
0
 49
-0.635
 74
0
  0
LTYPE
  5
36
330
2
100
AcDbSymbolTableRecord
100
AcDbLinetypeTableRecord
  2
PHANTOMX2
 70
0
  3
Phantom (2x)____________    ____    ____    ____________
 72
65
 73
6
 40
10.795
 49
6.35
 74
0
 49
-0.635
 74
0
 49
1.27
 74
0
 49
-0.635
 74
0
 49
1.27
 74
0
 49
-0.635
 74
0
  0
LTYPE
  5
37
330
2
100
AcDbSymbolTableRecord
100
AcDbLinetypeTableRecord
  2
PHANTOM2
 70
0
  3
Phantom (.5x) ___ _ _ ___ _ _ ___ _ _ ___ _ _ ___
 72
65
 73
6
 40
3.175
 49
1.587
 74
0
 49
-0.318
 74
0
 49
0.318
 74
0
 49
-0.318
 74
0
 49
0.318
 74
0
 49
-0.318
 74
0
  0
LTYPE
  5
38
330
2
100
AcDbSymbolTableRecord
100
AcDbLinetypeTableRecord
  2
DASHDOT
 70
0
  3
Dash dot __ . __ . __ . __ . __ . __ . __ . __
 72
65
 73
4
 40
3.556
 49
2.54
 74
0
 49
-0.508
 74
0
 49
0.0
 74
0
 49
-0.508
 74
0
  0
LTYPE
  5
39
330
2
100
AcDbSymbolTableRecord
100
AcDbLinetypeTableRecord
  2
DASHDOTX2
 70
0
  3
Dash dot (2x) ____  .  ____  .  ____  .  ____
 72
65
 73
4
 40
6.096
 49
5.08
 74
0
 49
-0.508
 74
0
 49
0.0
 74
0
 49
-0.508
 74
0
  0
LTYPE
  5
3A
330
2
100
AcDbSymbolTableRecord
100
AcDbLinetypeTableRecord
  2
DASHDOT2
 70
0
  3
Dash dot (.5x) _ . _ . _ . _ . _ . _ . _ . _
 72
65
 73
4
 40
1.778
 49
1.27
 74
0
 49
-0.254
 74
0
 49
0.0
 74
0
 49
-0.254
 74
0
  0
LTYPE
  5
3B
330
2
100
AcDbSymbolTableRecord
100
AcDbLinetypeTableRecord
  2
DOT
 70
0
  3
Dot .  .  .  .  .  .  .  .  .  .  .  .  .  .  .  .
 72
65
 73
2
 40
0.508
 49
0.0
 74
0
 49
-0.508
 74
0
  0
LTYPE
  5
3C
330
2
100
AcDbSymbolTableRecord
100
AcDbLinetypeTableRecord
  2
DOTX2
 70
0
  3
Dot (2x) .    .    .    .    .    .    .    . 
 72
65
 73
2
 40
1.016
 49
0.0
 74
0
 49
-1.016
 74
0
  0
LTYPE
  5
3D
330
2
100
AcDbSymbolTableRecord
100
AcDbLinetypeTableRecord
  2
DOT2
 70
0
  3
Dot (.5) . . . . . . . . . . . . . . . . . . . 
 72
65
 73
2
 40
0.254
 49
0.0
 74
0
 49
-0.254
 74
0
  0
LTYPE
  5
3E
330
2
100
AcDbSymbolTableRecord
100
AcDbLinetypeTableRecord
  2
DIVIDE
 70
0
  3
Divide __ . . __ . . __ . . __ . . __ . . __
 72
65
 73
6
 40
4.064
 49
2.54
 74
0
 49
-0.508
 74
0
 49
0.0
 74
0
 49
-0.508
 74
0
 49
0.0
 74
0
 49
-0.508
 74
0
  0
LTYPE
  5
3F
330
2
100
AcDbSymbolTableRecord
100
AcDbLinetypeTableRecord
  2
DIVIDEX2
 70
0
  3
Divide (2x) ____  . .  ____  . .  ____  . .  ____
 72
65
 73
6
 40
6.604
 49
5.08
 74
0
 49
-0.508
 74
0
 49
0.0
 74
0
 49
-0.508
 74
0
 49
0.0
 74
0
 49
-0.508
 74
0
  0
LTYPE
  5
40
330
2
100
AcDbSymbolTableRecord
100
AcDbLinetypeTableRecord
  2
DIVIDE2
 70
0
  3
Divide(.5x) _ . _ . _ . _ . _ . _ . _ . _
 72
65
 73
6
 40
2.032
 49
1.27
 74
0
 49
-0.254
 74
0
 49
0.0
 74
0
 49
-0.254
 74
0
 49
0.0
 74
0
 49
-0.254
 74
0
  0
ENDTAB
  0
TABLE
  2
LAYER
  5
1
330
0
100
AcDbSymbolTable
 70
17
  0
LAYER
  5
27
330
1
100
AcDbSymbolTableRecord
100
AcDbLayerTableRecord
  2
0
 70
0
 62
7
  6
Continuous
370
-3
390
13
347
21
  0
LAYER
  5
28
330
1
100
AcDbSymbolTableRecord
100
AcDbLayerTableRecord
  2
Defpoints
 70
0
 62
7
  6
Continuous
290
0
370
-3
390
13
347
21
  0
LAYER
  5
8A
330
1
100
AcDbSymbolTableRecord
100
AcDbLayerTableRecord
  2
EIXOS
 70
0
 62
8
  6
CENTER
370
-3
390
13
347
21
  0
LAYER
  5
8B
330
1
100
AcDbSymbolTableRecord
100
AcDbLayerTableRecord
  2
PAREDES
 70
0
 62
7
  6
CONTINUOUS
370
-3
390
13
347
21
  0
LAYER
  5
8C
330
1
100
AcDbSymbolTableRecord
100
AcDbLayerTableRecord
  2
ESQUADRIAS
 70
0
 62
4
  6
CONTINUOUS
370
-3
390
13
347
21
  0
LAYER
  5
8D
330
1
100
AcDbSymbolTableRecord
100
AcDbLayerTableRecord
  2
MOBILIARIO
 70
0
 62
9
  6
CONTINUOUS
370
-3
390
13
347
21
  0
LAYER
  5
8E
330
1
100
AcDbSymbolTableRecord
100
AcDbLayerTableRecord
  2
ESTRUTURA
 70
0
 62
1
  6
CONTINUOUS
370
-3
390
13
347
21
  0
LAYER
  5
8F
330
1
100
AcDbSymbolTableRecord
100
AcDbLayerTableRecord
  2
COBERTURA
 70
0
 62
3
  6
CONTINUOUS
370
-3
390
13
347
21
  0
LAYER
  5
90
330
1
100
AcDbSymbolTableRecord
100
AcDbLayerTableRecord
  2
COBERTURA_OCULTA
 70
0
 62
3
  6
CONTINUOUS
370
-3
390
13
347
21
  0
LAYER
  5
91
330
1
100
AcDbSymbolTableRecord
100
AcDbLayerTableRecord
  2
DECK
 70
0
 62
32
  6
CONTINUOUS
370
-3
390
13
347
21
  0
LAYER
  5
92
330
1
100
AcDbSymbolTableRecord
100
AcDbLayerTableRecord
  2
FUNDACAO
 70
0
 62
5
  6
CONTINUOUS
370
-3
390
13
347
21
  0
LAYER
  5
93
330
1
100
AcDbSymbolTableRecord
100
AcDbLayerTableRecord
  2
COTAS
 70
0
 62
2
  6
CONTINUOUS
370
-3
390
13
347
21
  0
LAYER
  5
94
330
1
100
AcDbSymbolTableRecord
100
AcDbLayerTableRecord
  2
TEXTO
 70
0
 62
7
  6
CONTINUOUS
370
-3
390
13
347
21
  0
LAYER
  5
95
330
1
100
AcDbSymbolTableRecord
100
AcDbLayerTableRecord
  2
HACHURA
 70
0
 62
8
  6
CONTINUOUS
370
-3
390
13
347
21
  0
LAYER
  5
96
330
1
100
AcDbSymbolTableRecord
100
AcDbLayerTableRecord
  2
MEMBRANA_3D
 70
0
 62
3
  6
CONTINUOUS
370
-3
390
13
347
21
  0
LAYER
  5
97
330
1
100
AcDbSymbolTableRecord
100
AcDbLayerTableRecord
  2
VIDRO_3D
 70
0
 62
4
  6
CONTINUOUS
370
-3
390
13
347
21
  0
LAYER
  5
98
330
1
100
AcDbSymbolTableRecord
100
AcDbLayerTableRecord
  2
ACO_3D
 70
0
 62
1
  6
CONTINUOUS
370
-3
390
13
347
21
  0
ENDTAB
  0
TABLE
  2
STYLE
  5
5
330
0
100
AcDbSymbolTable
 70
27
  0
STYLE
  5
29
330
5
100
AcDbSymbolTableRecord
100
AcDbTextStyleTableRecord
  2
Standard
 70
0
 40
0.0
 41
1.0
 50
0.0
 71
0
 42
2.5
  3
txt
  4

  0
STYLE
  5
41
330
5
100
AcDbSymbolTableRecord
100
AcDbTextStyleTableRecord
  2
OpenSans-Light
 70
0
 40
0.0
 41
1.0
 50
0.0
 71
0
 42
2.5
  3
OpenSans-Light.ttf
  4

  0
STYLE
  5
42
330
5
100
AcDbSymbolTableRecord
100
AcDbTextStyleTableRecord
  2
OpenSans-Light-Italic
 70
0
 40
0.0
 41
1.0
 50
0.0
 71
0
 42
2.5
  3
OpenSans-LightItalic.ttf
  4

  0
STYLE
  5
43
330
5
100
AcDbSymbolTableRecord
100
AcDbTextStyleTableRecord
  2
OpenSans
 70
0
 40
0.0
 41
1.0
 50
0.0
 71
0
 42
2.5
  3
OpenSans-Regular.ttf
  4

  0
STYLE
  5
44
330
5
100
AcDbSymbolTableRecord
100
AcDbTextStyleTableRecord
  2
OpenSans-Italic
 70
0
 40
0.0
 41
1.0
 50
0.0
 71
0
 42
2.5
  3
OpenSans-Italic.ttf
  4

  0
STYLE
  5
45
330
5
100
AcDbSymbolTableRecord
100
AcDbTextStyleTableRecord
  2
OpenSans-SemiBold
 70
0
 40
0.0
 41
1.0
 50
0.0
 71
0
 42
2.5
  3
OpenSans-SemiBold.ttf
  4

  0
STYLE
  5
46
330
5
100
AcDbSymbolTableRecord
100
AcDbTextStyleTableRecord
  2
OpenSans-SemiBoldItalic
 70
0
 40
0.0
 41
1.0
 50
0.0
 71
0
 42
2.5
  3
OpenSans-SemiBoldItalic.ttf
  4

  0
STYLE
  5
47
330
5
100
AcDbSymbolTableRecord
100
AcDbTextStyleTableRecord
  2
OpenSans-Bold
 70
0
 40
0.0
 41
1.0
 50
0.0
 71
0
 42
2.5
  3
OpenSans-Bold.ttf
  4

  0
STYLE
  5
48
330
5
100
AcDbSymbolTableRecord
100
AcDbTextStyleTableRecord
  2
OpenSans-BoldItalic
 70
0
 40
0.0
 41
1.0
 50
0.0
 71
0
 42
2.5
  3
OpenSans-BoldItalic.ttf
  4

  0
STYLE
  5
49
330
5
100
AcDbSymbolTableRecord
100
AcDbTextStyleTableRecord
  2
OpenSans-ExtraBold
 70
0
 40
0.0
 41
1.0
 50
0.0
 71
0
 42
2.5
  3
OpenSans-ExtraBold.ttf
  4

  0
STYLE
  5
4A
330
5
100
AcDbSymbolTableRecord
100
AcDbTextStyleTableRecord
  2
OpenSans-ExtraBoldItalic
 70
0
 40
0.0
 41
1.0
 50
0.0
 71
0
 42
2.5
  3
OpenSans-ExtraBoldItalic.ttf
  4

  0
STYLE
  5
4B
330
5
100
AcDbSymbolTableRecord
100
AcDbTextStyleTableRecord
  2
OpenSansCondensed-Bold
 70
0
 40
0.0
 41
1.0
 50
0.0
 71
0
 42
2.5
  3
OpenSansCondensed-Bold.ttf
  4

  0
STYLE
  5
4C
330
5
100
AcDbSymbolTableRecord
100
AcDbTextStyleTableRecord
  2
OpenSansCondensed-Light
 70
0
 40
0.0
 41
1.0
 50
0.0
 71
0
 42
2.5
  3
OpenSansCondensed-Light.ttf
  4

  0
STYLE
  5
4D
330
5
100
AcDbSymbolTableRecord
100
AcDbTextStyleTableRecord
  2
OpenSansCondensed-Italic
 70
0
 40
0.0
 41
1.0
 50
0.0
 71
0
 42
2.5
  3
OpenSansCondensed-LightItalic.ttf
  4

  0
STYLE
  5
4E
330
5
100
AcDbSymbolTableRecord
100
AcDbTextStyleTableRecord
  2
LiberationSans
 70
0
 40
0.0
 41
1.0
 50
0.0
 71
0
 42
2.5
  3
LiberationSans-Regular.ttf
  4

  0
STYLE
  5
4F
330
5
100
AcDbSymbolTableRecord
100
AcDbTextStyleTableRecord
  2
LiberationSans-Bold
 70
0
 40
0.0
 41
1.0
 50
0.0
 71
0
 42
2.5
  3
LiberationSans-Bold.ttf
  4

  0
STYLE
  5
50
330
5
100
AcDbSymbolTableRecord
100
AcDbTextStyleTableRecord
  2
LiberationSans-BoldItalic
 70
0
 40
0.0
 41
1.0
 50
0.0
 71
0
 42
2.5
  3
LiberationSans-BoldItalic.ttf
  4

  0
STYLE
  5
51
330
5
100
AcDbSymbolTableRecord
100
AcDbTextStyleTableRecord
  2
LiberationSans-Italic
 70
0
 40
0.0
 41
1.0
 50
0.0
 71
0
 42
2.5
  3
LiberationSans-Italic.ttf
  4

  0
STYLE
  5
52
330
5
100
AcDbSymbolTableRecord
100
AcDbTextStyleTableRecord
  2
LiberationSerif
 70
0
 40
0.0
 41
1.0
 50
0.0
 71
0
 42
2.5
  3
LiberationSerif-Regular.ttf
  4

  0
STYLE
  5
53
330
5
100
AcDbSymbolTableRecord
100
AcDbTextStyleTableRecord
  2
LiberationSerif-Bold
 70
0
 40
0.0
 41
1.0
 50
0.0
 71
0
 42
2.5
  3
LiberationSerif-Bold.ttf
  4

  0
STYLE
  5
54
330
5
100
AcDbSymbolTableRecord
100
AcDbTextStyleTableRecord
  2
LiberationSerif-BoldItalic
 70
0
 40
0.0
 41
1.0
 50
0.0
 71
0
 42
2.5
  3
LiberationSerif-BoldItalic.ttf
  4

  0
STYLE
  5
55
330
5
100
AcDbSymbolTableRecord
100
AcDbTextStyleTableRecord
  2
LiberationSerif-Italic
 70
0
 40
0.0
 41
1.0
 50
0.0
 71
0
 42
2.5
  3
LiberationSerif-Italic.ttf
  4

  0
STYLE
  5
56
330
5
100
AcDbSymbolTableRecord
100
AcDbTextStyleTableRecord
  2
LiberationMono
 70
0
 40
0.0
 41
1.0
 50
0.0
 71
0
 42
2.5
  3
LiberationMono-Regular.ttf
  4

  0
STYLE
  5
57
330
5
100
AcDbSymbolTableRecord
100
AcDbTextStyleTableRecord
  2
LiberationMono-Bold
 70
0
 40
0.0
 41
1.0
 50
0.0
 71
0
 42
2.5
  3
LiberationMono-Bold.ttf
  4

  0
STYLE
  5
58
330
5
100
AcDbSymbolTableRecord
100
AcDbTextStyleTableRecord
  2
LiberationMono-BoldItalic
 70
0
 40
0.0
 41
1.0
 50
0.0
 71
0
 42
2.5
  3
LiberationMono-BoldItalic.ttf
  4

  0
STYLE
  5
59
330
5
100
AcDbSymbolTableRecord
100
AcDbTextStyleTableRecord
  2
LiberationMono-Italic
 70
0
 40
0.0
 41
1.0
 50
0.0
 71
0
 42
2.5
  3
LiberationMono-Italic.ttf
  4

  0
STYLE
  5
99
330
5
100
AcDbSymbolTableRecord
100
AcDbTextStyleTableRecord
  2
ZION
 70
0
 40
0.0
 41
1.0
 50
0.0
 71
0
 42
2.5
  3
arial.ttf
  4

  0
ENDTAB
  0
TABLE
  2
VIEW
  5
7
330
0
100
AcDbSymbolTable
 70
0
  0
ENDTAB
  0
TABLE
  2
UCS
  5
6
330
0
100
AcDbSymbolTable
 70
0
  0
ENDTAB
  0
TABLE
  2
APPID
  5
3
330
0
100
AcDbSymbolTable
 70
3
  0
APPID
  5
2A
330
3
100
AcDbSymbolTableRecord
100
AcDbRegAppTableRecord
  2
ACAD
 70
0
  0
APPID
  5
171
330
3
100
AcDbSymbolTableRecord
100
AcDbRegAppTableRecord
  2
HATCHBACKGROUNDCOLOR
 70
0
  0
APPID
  5
172
330
3
100
AcDbSymbolTableRecord
100
AcDbRegAppTableRecord
  2
EZDXF
 70
0
  0
ENDTAB
  0
TABLE
  2
DIMSTYLE
  5
4
330
0
100
AcDbSymbolTable
 70
13
100
AcDbDimStyleTable
  0
DIMSTYLE
105
2B
330
4
100
AcDbSymbolTableRecord
100
AcDbDimStyleTableRecord
  2
Standard
 70
0
 40
1.0
 41
2.5
 42
0.625
 43
3.75
 44
1.25
 45
0.0
 46
0.0
 47
0.0
 48
0.0
 49
2.5
140
2.5
141
2.5
142
0.0
143
0.03937007874
144
1.0
145
0.0
146
1.0
147
0.625
148
0.0
 69
0
 70
0
 71
0
 72
0
 73
0
 74
0
 75
0
 76
0
 77
1
 78
8
 79
3
170
0
171
3
172
1
173
0
174
0
175
0
176
0
177
0
178
0
179
2
271
2
272
2
273
2
274
3
275
0
276
0
277
2
278
44
279
0
280
0
281
0
282
0
283
0
284
8
285
0
286
0
288
0
289
3
290
0
371
-2
372
-2
  0
DIMSTYLE
105
73
330
4
100
AcDbSymbolTableRecord
100
AcDbDimStyleTableRecord
  2
EZDXF
 70
0
 40
1.0
 41
0.175
 42
0.125
 43
3.75
 44
0.375
 45
0.0
 46
0.0
 47
0.0
 48
0.0
 49
2.5
140
0.25
141
2.5
142
0.0
143
0.03937007874
144
100.0
145
0.0
146
0.5
147
0.1
148
0.0
 69
0
 70
0
 71
0
 72
0
 73
0
 74
0
 75
0
 76
0
 77
1
 78
12
 79
3
170
0
171
3
172
1
173
0
174
0
175
0
176
0
177
0
178
0
179
2
271
2
272
2
273
2
274
3
275
0
276
0
277
2
278
46
279
2
280
0
281
0
282
0
283
0
284
8
285
0
286
0
288
1
289
3
290
0
340
4C
342
74
371
-2
372
-2
  0
DIMSTYLE
105
7C
330
4
100
AcDbSymbolTableRecord
100
AcDbDimStyleTableRecord
  2
EZ_M_100_H25_CM
 70
0
 40
1.0
 41
0.25
 42
0.125
 43
3.75
 44
0.375
 45
0.0
 46
0.0
 47
0.0
 48
0.0
 49
2.5
140
0.25
141
2.5
142
0.125
143
0.03937007874
144
100.0
145
0.0
146
0.5
147
0.1
148
0.0
 69
0
 70
0
 71
0
 72
0
 73
0
 74
0
 75
0
 76
0
 77
1
 78
12
 79
3
170
0
171
3
172
1
173
0
174
0
175
0
176
0
177
0
178
0
179
2
271
2
272
2
273
2
274
3
275
0
276
0
277
2
278
46
279
2
280
0
281
0
282
0
283
0
284
8
285
0
286
0
288
1
289
3
290
0
340
4C
371
-2
372
-2
  0
DIMSTYLE
105
7D
330
4
100
AcDbSymbolTableRecord
100
AcDbDimStyleTableRecord
  2
EZ_M_50_H25_CM
 70
0
 40
1.0
 41
0.125
 42
0.0625
 43
3.75
 44
0.1875
 45
0.0
 46
0.0
 47
0.0
 48
0.0
 49
2.5
140
0.125
141
2.5
142
0.0625
143
0.03937007874
144
100.0
145
0.0
146
0.5
147
0.05
148
0.0
 69
0
 70
0
 71
0
 72
0
 73
0
 74
0
 75
0
 76
0
 77
1
 78
12
 79
3
170
0
171
3
172
1
173
0
174
0
175
0
176
0
177
0
178
0
179
2
271
2
272
2
273
2
274
3
275
0
276
0
277
2
278
46
279
2
280
0
281
0
282
0
283
0
284
8
285
0
286
0
288
1
289
3
290
0
340
4C
371
-2
372
-2
  0
DIMSTYLE
105
7E
330
4
100
AcDbSymbolTableRecord
100
AcDbDimStyleTableRecord
  2
EZ_M_25_H25_CM
 70
0
 40
1.0
 41
0.0625
 42
0.03125
 43
3.75
 44
0.09375
 45
0.0
 46
0.0
 47
0.0
 48
0.0
 49
2.5
140
0.0625
141
2.5
142
0.03125
143
0.03937007874
144
100.0
145
0.0
146
0.5
147
0.025
148
0.0
 69
0
 70
0
 71
0
 72
0
 73
0
 74
0
 75
0
 76
0
 77
1
 78
12
 79
3
170
0
171
3
172
1
173
0
174
0
175
0
176
0
177
0
178
0
179
2
271
2
272
2
273
2
274
3
275
0
276
0
277
2
278
46
279
2
280
0
281
0
282
0
283
0
284
8
285
0
286
0
288
1
289
3
290
0
340
4C
371
-2
372
-2
  0
DIMSTYLE
105
7F
330
4
100
AcDbSymbolTableRecord
100
AcDbDimStyleTableRecord
  2
EZ_M_20_H25_CM
 70
0
 40
1.0
 41
0.05
 42
0.025
 43
3.75
 44
0.07500000000000001
 45
0.0
 46
0.0
 47
0.0
 48
0.0
 49
2.5
140
0.05
141
2.5
142
0.025
143
0.03937007874
144
100.0
145
0.0
146
0.5
147
0.020000000000000004
148
0.0
 69
0
 70
0
 71
0
 72
0
 73
0
 74
0
 75
0
 76
0
 77
1
 78
12
 79
3
170
0
171
3
172
1
173
0
174
0
175
0
176
0
177
0
178
0
179
2
271
2
272
2
273
2
274
3
275
0
276
0
277
2
278
46
279
2
280
0
281
0
282
0
283
0
284
8
285
0
286
0
288
1
289
3
290
0
340
4C
371
-2
372
-2
  0
DIMSTYLE
105
80
330
4
100
AcDbSymbolTableRecord
100
AcDbDimStyleTableRecord
  2
EZ_M_10_H25_CM
 70
0
 40
1.0
 41
0.025
 42
0.0125
 43
3.75
 44
0.037500000000000006
 45
0.0
 46
0.0
 47
0.0
 48
0.0
 49
2.5
140
0.025
141
2.5
142
0.0125
143
0.03937007874
144
100.0
145
0.0
146
0.5
147
0.010000000000000002
148
0.0
 69
0
 70
0
 71
0
 72
0
 73
0
 74
0
 75
0
 76
0
 77
1
 78
12
 79
3
170
0
171
3
172
1
173
0
174
0
175
0
176
0
177
0
178
0
179
2
271
2
272
2
273
2
274
3
275
0
276
0
277
2
278
46
279
2
280
0
281
0
282
0
283
0
284
8
285
0
286
0
288
1
289
3
290
0
340
4C
371
-2
372
-2
  0
DIMSTYLE
105
81
330
4
100
AcDbSymbolTableRecord
100
AcDbDimStyleTableRecord
  2
EZ_M_5_H25_CM
 70
0
 40
1.0
 41
0.0125
 42
0.00625
 43
3.75
 44
0.018750000000000003
 45
0.0
 46
0.0
 47
0.0
 48
0.0
 49
2.5
140
0.0125
141
2.5
142
0.00625
143
0.03937007874
144
100.0
145
0.0
146
0.5
147
0.005000000000000001
148
0.0
 69
0
 70
0
 71
0
 72
0
 73
0
 74
0
 75
0
 76
0
 77
1
 78
12
 79
3
170
0
171
3
172
1
173
0
174
0
175
0
176
0
177
0
178
0
179
2
271
2
272
2
273
2
274
3
275
0
276
0
277
2
278
46
279
2
280
0
281
0
282
0
283
0
284
8
285
0
286
0
288
1
289
3
290
0
340
4C
371
-2
372
-2
  0
DIMSTYLE
105
82
330
4
100
AcDbSymbolTableRecord
100
AcDbDimStyleTableRecord
  2
EZ_M_1_H25_CM
 70
0
 40
1.0
 41
0.0025
 42
0.00125
 43
3.75
 44
0.00375
 45
0.0
 46
0.0
 47
0.0
 48
0.0
 49
2.5
140
0.0025
141
2.5
142
0.00125
143
0.03937007874
144
100.0
145
0.0
146
0.5
147
0.001
148
0.0
 69
0
 70
0
 71
0
 72
0
 73
0
 74
0
 75
0
 76
0
 77
1
 78
12
 79
3
170
0
171
3
172
1
173
0
174
0
175
0
176
0
177
0
178
0
179
2
271
2
272
2
273
2
274
3
275
0
276
0
277
2
278
46
279
2
280
0
281
0
282
0
283
0
284
8
285
0
286
0
288
1
289
3
290
0
340
4C
371
-2
372
-2
  0
DIMSTYLE
105
83
330
4
100
AcDbSymbolTableRecord
100
AcDbDimStyleTableRecord
  2
EZ_RADIUS
 70
0
 40
1.0
 41
0.25
 42
0.125
 43
3.75
 44
0.375
 45
0.0
 46
0.0
 47
0.0
 48
0.0
 49
2.5
140
0.25
141
0.0
142
0.0
143
0.03937007874
144
100.0
145
0.0
146
0.5
147
0.1
148
0.0
 69
0
 70
0
 71
0
 72
0
 73
0
 74
0
 75
0
 76
0
 77
1
 78
12
 79
3
170
0
171
3
172
0
173
0
174
0
175
0
176
0
177
0
178
0
179
2
271
2
272
2
273
2
274
3
275
0
276
0
277
2
278
46
279
1
280
0
281
0
282
0
283
0
284
8
285
0
286
0
288
1
289
3
290
0
340
4C
342
84
371
-2
372
-2
  0
DIMSTYLE
105
88
330
4
100
AcDbSymbolTableRecord
100
AcDbDimStyleTableRecord
  2
EZ_RADIUS_INSIDE
 70
0
 40
1.0
 41
0.25
 42
0.125
 43
3.75
 44
0.375
 45
0.0
 46
0.0
 47
0.0
 48
0.0
 49
2.5
140
0.25
141
0.0
142
0.0
143
0.03937007874
144
100.0
145
0.0
146
0.5
147
0.1
148
0.0
 69
0
 70
0
 71
0
 72
0
 73
0
 74
0
 75
0
 76
0
 77
0
 78
12
 79
3
170
0
171
3
172
0
173
0
174
1
175
0
176
0
177
0
178
0
179
2
271
2
272
2
273
2
274
3
275
0
276
0
277
2
278
46
279
0
280
0
281
0
282
0
283
0
284
8
285
0
286
0
288
1
289
0
290
0
340
4C
342
84
371
-2
372
-2
  0
DIMSTYLE
105
89
330
4
100
AcDbSymbolTableRecord
100
AcDbDimStyleTableRecord
  2
EZ_CURVED
 70
0
 40
1.0
 41
0.25
 42
0.125
 43
3.75
 44
0.375
 45
0.0
 46
0.0
 47
0.0
 48
0.0
 49
2.5
140
0.25
141
2.5
142
0.0
143
0.03937007874
144
100.0
145
0.0
146
0.5
147
0.1
148
0.0
 69
0
 70
0
 71
0
 72
0
 73
0
 74
0
 75
0
 76
0
 77
1
 78
12
 79
2
 90
2
170
0
171
3
172
1
173
0
174
0
175
0
176
0
177
0
178
0
179
2
271
2
272
2
273
2
274
3
275
0
276
0
277
2
278
46
279
2
280
0
281
0
282
0
283
0
284
8
285
0
286
0
288
1
289
3
290
0
340
4C
371
-2
372
-2
  0
DIMSTYLE
105
9A
330
4
100
AcDbSymbolTableRecord
100
AcDbDimStyleTableRecord
  2
ZION_M
 70
0
 40
1.0
 41
0.08
 42
0.05
 43
3.75
 44
0.06
 45
0.0
 46
0.0
 47
0.0
 48
0.0
 49
2.5
140
0.12
141
2.5
142
0.0
143
0.03937007874
144
1.0
145
0.0
146
1.0
147
0.03
148
0.0
 69
0
 70
0
 71
0
 72
0
 73
0
 74
0
 75
0
 76
0
 77
1
 78
8
 79
3
170
0
171
3
172
1
173
0
174
0
175
0
176
2
177
2
178
2
179
2
271
2
272
2
273
2
274
3
275
0
276
0
277
2
278
44
279
0
280
0
281
0
282
0
283
0
284
8
285
0
286
0
288
0
289
3
290
0
340
99
371
-2
372
-2
  0
ENDTAB
  0
TABLE
  2
BLOCK_RECORD
  5
9
330
0
100
AcDbSymbolTable
 70
15
  0
BLOCK_RECORD
  5
17
330
9
100
AcDbSymbolTableRecord
100
AcDbBlockTableRecord
  2
*Model_Space
340
1A
 70
0
280
1
281
0
  0
BLOCK_RECORD
  5
1B
330
9
100
AcDbSymbolTableRecord
100
AcDbBlockTableRecord
  2
*Paper_Space
340
1E
 70
0
280
1
281
0
  0
BLOCK_RECORD
  5
74
330
9
100
AcDbSymbolTableRecord
100
AcDbBlockTableRecord
  2
_ARCHTICK
340
0
 70
0
280
1
281
0
  0
BLOCK_RECORD
  5
78
330
9
100
AcDbSymbolTableRecord
100
AcDbBlockTableRecord
  2
_CLOSEDFILLED
340
0
 70
0
280
1
281
0
  0
BLOCK_RECORD
  5
84
330
9
100
AcDbSymbolTableRecord
100
AcDbBlockTableRecord
  2
_CLOSEDBLANK
340
0
 70
0
280
1
281
0
  0
BLOCK_RECORD
  5
C5
330
9
100
AcDbSymbolTableRecord
100
AcDbBlockTableRecord
  2
*D1
340
0
 70
0
280
1
281
0
  0
BLOCK_RECORD
  5
D4
330
9
100
AcDbSymbolTableRecord
100
AcDbBlockTableRecord
  2
*D2
340
0
 70
0
280
1
281
0
  0
BLOCK_RECORD
  5
E3
330
9
100
AcDbSymbolTableRecord
100
AcDbBlockTableRecord
  2
*D3
340
0
 70
0
280
1
281
0
  0
BLOCK_RECORD
  5
F2
330
9
100
AcDbSymbolTableRecord
100
AcDbBlockTableRecord
  2
*D4
340
0
 70
0
280
1
281
0
  0
BLOCK_RECORD
  5
101
330
9
100
AcDbSymbolTableRecord
100
AcDbBlockTableRecord
  2
*D5
340
0
 70
0
280
1
281
0
  0
BLOCK_RECORD
  5
110
330
9
100
AcDbSymbolTableRecord
100
AcDbBlockTableRecord
  2
*D6
340
0
 70
0
280
1
281
0
  0
BLOCK_RECORD
  5
11F
330
9
100
AcDbSymbolTableRecord
100
AcDbBlockTableRecord
  2
*D7
340
0
 70
0
280
1
281
0
  0
BLOCK_RECORD
  5
12E
330
9
100
AcDbSymbolTableRecord
100
AcDbBlockTableRecord
  2
*D8
340
0
 70
0
280
1
281
0
  0
BLOCK_RECORD
  5
13D
330
9
100
AcDbSymbolTableRecord
100
AcDbBlockTableRecord
  2
*D9
340
0
 70
0
280
1
281
0
  0
BLOCK_RECORD
  5
14C
330
9
100
AcDbSymbolTableRecord
100
AcDbBlockTableRecord
  2
*D10
340
0
 70
0
280
1
281
0
  0
ENDTAB
  0
ENDSEC
  0
SECTION
  2
BLOCKS
  0
BLOCK
  5
18
330
17
100
AcDbEntity
  8
0
100
AcDbBlockBegin
  2
*Model_Space
 70
0
 10
0.0
 20
0.0
 30
0.0
  3
*Model_Space
  1

  0
ENDBLK
  5
19
330
17
100
AcDbEntity
  8
0
100
AcDbBlockEnd
  0
BLOCK
  5
1C
330
1B
100
AcDbEntity
  8
0
100
AcDbBlockBegin
  2
*Paper_Space
 70
0
 10
0.0
 20
0.0
 30
0.0
  3
*Paper_Space
  1

  0
ENDBLK
  5
1D
330
1B
100
AcDbEntity
  8
0
100
AcDbBlockEnd
  0
BLOCK
  5
75
330
74
100
AcDbEntity
  8
0
100
AcDbBlockBegin
  2
_ARCHTICK
 70
0
 10
0.0
 20
0.0
 30
0.0
  3
_ARCHTICK
  1

  0
LWPOLYLINE
  5
77
330
74
100
AcDbEntity
  8
0
  6
BYBLOCK
 62
0
100
AcDbPolyline
 90
2
 70
0
 43
0.15
 10
-0.5
 20
-0.5
 10
0.5
 20
0.5
  0
ENDBLK
  5
76
330
74
100
AcDbEntity
  8
0
100
AcDbBlockEnd
  0
BLOCK
  5
79
330
78
100
AcDbEntity
  8
0
100
AcDbBlockBegin
  2
_CLOSEDFILLED
 70
0
 10
0.0
 20
0.0
 30
0.0
  3
_CLOSEDFILLED
  1

  0
SOLID
  5
7B
330
78
100
AcDbEntity
  8
0
  6
BYBLOCK
 62
0
100
AcDbTrace
 10
-1.0
 20
0.16439898372402537
 30
0.0
 11
0.0
 21
0.0
 31
0.0
 12
-1.0
 22
-0.16439898372402537
 32
0.0
 13
-1.0
 23
-0.16439898372402537
 33
0.0
  0
ENDBLK
  5
7A
330
78
100
AcDbEntity
  8
0
100
AcDbBlockEnd
  0
BLOCK
  5
85
330
84
100
AcDbEntity
  8
0
100
AcDbBlockBegin
  2
_CLOSEDBLANK
 70
0
 10
0.0
 20
0.0
 30
0.0
  3
_CLOSEDBLANK
  1

  0
LWPOLYLINE
  5
87
330
84
100
AcDbEntity
  8
0
  6
BYBLOCK
 62
0
100
AcDbPolyline
 90
3
 70
1
 10
-1.0
 20
0.16439898372402537
 10
0.0
 20
0.0
 10
-1.0
 20
-0.16439898372402537
  0
ENDBLK
  5
86
330
84
100
AcDbEntity
  8
0
100
AcDbBlockEnd
  0
BLOCK
  5
C6
330
C5
100
AcDbEntity
  8
0
100
AcDbBlockBegin
  2
*D1
 70
1
 10
0.0
 20
0.0
 30
0.0
  3
*D1
  1

  0
LINE
  5
C8
330
C5
100
AcDbEntity
  8
0
 62
2
100
AcDbLine
 10
0.45
 20
-3.65
 30
0.0
 11
0.45
 21
-4.159999999999999
 31
0.0
  0
LINE
  5
C9
330
C5
100
AcDbEntity
  8
0
 62
2
100
AcDbLine
 10
9.6
 20
-3.65
 30
0.0
 11
9.6
 21
-4.159999999999999
 31
0.0
  0
INSERT
  5
CA
330
C5
100
AcDbEntity
  8
COTAS
 62
2
100
AcDbBlockReference
  2
_CLOSEDFILLED
 10
0.45
 20
-4.1
 30
0.0
 41
0.08
 42
0.08
 50
180.0
  0
INSERT
  5
CC
330
C5
100
AcDbEntity
  8
COTAS
 62
2
100
AcDbBlockReference
  2
_CLOSEDFILLED
 10
9.6
 20
-4.1
 30
0.0
 41
0.08
 42
0.08
  0
LINE
  5
CE
330
C5
100
AcDbEntity
  8
0
 62
2
100
AcDbLine
 10
0.53
 20
-4.1
 30
0.0
 11
9.52
 21
-4.1
 31
0.0
  0
MTEXT
  5
CF
330
C5
100
AcDbEntity
  8
COTAS
 62
2
100
AcDbMText
 10
5.025
 20
-4.01
 30
0.0
 40
0.12
 71
5
  1
9,60
  7
ZION
  0
POINT
  5
D0
330
C5
100
AcDbEntity
  8
Defpoints
100
AcDbPoint
 10
0.45
 20
-4.1
 30
0.0
  0
POINT
  5
D1
330
C5
100
AcDbEntity
  8
Defpoints
100
AcDbPoint
 10
0.45
 20
-3.6
 30
0.0
  0
POINT
  5
D2
330
C5
100
AcDbEntity
  8
Defpoints
100
AcDbPoint
 10
9.6
 20
-3.6
 30
0.0
  0
ENDBLK
  5
C7
330
C5
100
AcDbEntity
  8
0
100
AcDbBlockEnd
  0
BLOCK
  5
D5
330
D4
100
AcDbEntity
  8
0
100
AcDbBlockBegin
  2
*D2
 70
1
 10
0.0
 20
0.0
 30
0.0
  3
*D2
  1

  0
LINE
  5
D7
330
D4
100
AcDbEntity
  8
0
 62
2
100
AcDbLine
 10
-3.7
 20
-3.65
 30
0.0
 11
-3.7
 21
-4.159999999999999
 31
0.0
  0
LINE
  5
D8
330
D4
100
AcDbEntity
  8
0
 62
2
100
AcDbLine
 10
0.9
 20
-3.65
 30
0.0
 11
0.9
 21
-4.159999999999999
 31
0.0
  0
INSERT
  5
D9
330
D4
100
AcDbEntity
  8
COTAS
 62
2
100
AcDbBlockReference
  2
_CLOSEDFILLED
 10
-3.7
 20
-4.1
 30
0.0
 41
0.08
 42
0.08
 50
180.0
  0
INSERT
  5
DB
330
D4
100
AcDbEntity
  8
COTAS
 62
2
100
AcDbBlockReference
  2
_CLOSEDFILLED
 10
0.9
 20
-4.1
 30
0.0
 41
0.08
 42
0.08
  0
LINE
  5
DD
330
D4
100
AcDbEntity
  8
0
 62
2
100
AcDbLine
 10
-3.62
 20
-4.1
 30
0.0
 11
0.8200000000000001
 21
-4.1
 31
0.0
  0
MTEXT
  5
DE
330
D4
100
AcDbEntity
  8
COTAS
 62
2
100
AcDbMText
 10
-1.4
 20
-4.01
 30
0.0
 40
0.12
 71
5
  1
4,60
  7
ZION
  0
POINT
  5
DF
330
D4
100
AcDbEntity
  8
Defpoints
100
AcDbPoint
 10
-3.7
 20
-4.1
 30
0.0
  0
POINT
  5
E0
330
D4
100
AcDbEntity
  8
Defpoints
100
AcDbPoint
 10
-3.7
 20
-3.6
 30
0.0
  0
POINT
  5
E1
330
D4
100
AcDbEntity
  8
Defpoints
100
AcDbPoint
 10
0.9
 20
-3.6
 30
0.0
  0
ENDBLK
  5
D6
330
D4
100
AcDbEntity
  8
0
100
AcDbBlockEnd
  0
BLOCK
  5
E4
330
E3
100
AcDbEntity
  8
0
100
AcDbBlockBegin
  2
*D3
 70
1
 10
0.0
 20
0.0
 30
0.0
  3
*D3
  1

  0
LINE
  5
E6
330
E3
100
AcDbEntity
  8
0
 62
2
100
AcDbLine
 10
10.25
 20
-3.0
 30
0.0
 11
10.86
 21
-3.0
 31
0.0
  0
LINE
  5
E7
330
E3
100
AcDbEntity
  8
0
 62
2
100
AcDbLine
 10
10.25
 20
3.0
 30
0.0
 11
10.86
 21
3.0
 31
0.0
  0
INSERT
  5
E8
330
E3
100
AcDbEntity
  8
COTAS
 62
2
100
AcDbBlockReference
  2
_CLOSEDFILLED
 10
10.799999999999999
 20
-3.0
 30
0.0
 41
0.08
 42
0.08
 50
270.0
  0
INSERT
  5
EA
330
E3
100
AcDbEntity
  8
COTAS
 62
2
100
AcDbBlockReference
  2
_CLOSEDFILLED
 10
10.799999999999999
 20
3.0
 30
0.0
 41
0.08
 42
0.08
 50
90.0
  0
LINE
  5
EC
330
E3
100
AcDbEntity
  8
0
 62
2
100
AcDbLine
 10
10.799999999999999
 20
-2.92
 30
0.0
 11
10.799999999999999
 21
2.92
 31
0.0
  0
MTEXT
  5
ED
330
E3
100
AcDbEntity
  8
COTAS
 62
2
100
AcDbMText
 10
10.709999999999999
 20
0.0
 30
0.0
 40
0.12
 71
5
  1
6,00
  7
ZION
 50
90.0
  0
POINT
  5
EE
330
E3
100
AcDbEntity
  8
Defpoints
100
AcDbPoint
 10
10.799999999999999
 20
-3.0
 30
0.0
  0
POINT
  5
EF
330
E3
100
AcDbEntity
  8
Defpoints
100
AcDbPoint
 10
10.2
 20
-3.0
 30
0.0
  0
POINT
  5
F0
330
E3
100
AcDbEntity
  8
Defpoints
100
AcDbPoint
 10
10.2
 20
3.0
 30
0.0
  0
ENDBLK
  5
E5
330
E3
100
AcDbEntity
  8
0
100
AcDbBlockEnd
  0
BLOCK
  5
F3
330
F2
100
AcDbEntity
  8
0
100
AcDbBlockBegin
  2
*D4
 70
1
 10
0.0
 20
0.0
 30
0.0
  3
*D4
  1

  0
LINE
  5
F5
330
F2
100
AcDbEntity
  8
0
 62
2
100
AcDbLine
 10
0.45
 20
3.65
 30
0.0
 11
0.45
 21
4.159999999999999
 31
0.0
  0
LINE
  5
F6
330
F2
100
AcDbEntity
  8
0
 62
2
100
AcDbLine
 10
1.65
 20
3.65
 30
0.0
 11
1.65
 21
4.159999999999999
 31
0.0
  0
INSERT
  5
F7
330
F2
100
AcDbEntity
  8
COTAS
 62
2
100
AcDbBlockReference
  2
_CLOSEDFILLED
 10
0.45
 20
4.1
 30
0.0
 41
0.08
 42
0.08
 50
180.0
  0
INSERT
  5
F9
330
F2
100
AcDbEntity
  8
COTAS
 62
2
100
AcDbBlockReference
  2
_CLOSEDFILLED
 10
1.65
 20
4.1
 30
0.0
 41
0.08
 42
0.08
  0
LINE
  5
FB
330
F2
100
AcDbEntity
  8
0
 62
2
100
AcDbLine
 10
0.53
 20
4.1
 30
0.0
 11
1.5699999999999998
 21
4.1
 31
0.0
  0
MTEXT
  5
FC
330
F2
100
AcDbEntity
  8
COTAS
 62
2
100
AcDbMText
 10
1.05
 20
4.1899999999999995
 30
0.0
 40
0.12
 71
5
  1
1,2
  7
ZION
  0
POINT
  5
FD
330
F2
100
AcDbEntity
  8
Defpoints
100
AcDbPoint
 10
0.45
 20
4.1
 30
0.0
  0
POINT
  5
FE
330
F2
100
AcDbEntity
  8
Defpoints
100
AcDbPoint
 10
0.45
 20
3.6
 30
0.0
  0
POINT
  5
FF
330
F2
100
AcDbEntity
  8
Defpoints
100
AcDbPoint
 10
1.65
 20
3.6
 30
0.0
  0
ENDBLK
  5
F4
330
F2
100
AcDbEntity
  8
0
100
AcDbBlockEnd
  0
BLOCK
  5
102
330
101
100
AcDbEntity
  8
0
100
AcDbBlockBegin
  2
*D5
 70
1
 10
0.0
 20
0.0
 30
0.0
  3
*D5
  1

  0
LINE
  5
104
330
101
100
AcDbEntity
  8
0
 62
2
100
AcDbLine
 10
1.65
 20
3.65
 30
0.0
 11
1.65
 21
4.159999999999999
 31
0.0
  0
LINE
  5
105
330
101
100
AcDbEntity
  8
0
 62
2
100
AcDbLine
 10
2.85
 20
3.65
 30
0.0
 11
2.85
 21
4.159999999999999
 31
0.0
  0
INSERT
  5
106
330
101
100
AcDbEntity
  8
COTAS
 62
2
100
AcDbBlockReference
  2
_CLOSEDFILLED
 10
1.65
 20
4.1
 30
0.0
 41
0.08
 42
0.08
 50
180.0
  0
INSERT
  5
108
330
101
100
AcDbEntity
  8
COTAS
 62
2
100
AcDbBlockReference
  2
_CLOSEDFILLED
 10
2.85
 20
4.1
 30
0.0
 41
0.08
 42
0.08
  0
LINE
  5
10A
330
101
100
AcDbEntity
  8
0
 62
2
100
AcDbLine
 10
1.73
 20
4.1
 30
0.0
 11
2.77
 21
4.1
 31
0.0
  0
MTEXT
  5
10B
330
101
100
AcDbEntity
  8
COTAS
 62
2
100
AcDbMText
 10
2.25
 20
4.1899999999999995
 30
0.0
 40
0.12
 71
5
  1
1,2
  7
ZION
  0
POINT
  5
10C
330
101
100
AcDbEntity
  8
Defpoints
100
AcDbPoint
 10
1.65
 20
4.1
 30
0.0
  0
POINT
  5
10D
330
101
100
AcDbEntity
  8
Defpoints
100
AcDbPoint
 10
1.65
 20
3.6
 30
0.0
  0
POINT
  5
10E
330
101
100
AcDbEntity
  8
Defpoints
100
AcDbPoint
 10
2.85
 20
3.6
 30
0.0
  0
ENDBLK
  5
103
330
101
100
AcDbEntity
  8
0
100
AcDbBlockEnd
  0
BLOCK
  5
111
330
110
100
AcDbEntity
  8
0
100
AcDbBlockBegin
  2
*D6
 70
1
 10
0.0
 20
0.0
 30
0.0
  3
*D6
  1

  0
LINE
  5
113
330
110
100
AcDbEntity
  8
0
 62
2
100
AcDbLine
 10
2.85
 20
3.65
 30
0.0
 11
2.85
 21
4.159999999999999
 31
0.0
  0
LINE
  5
114
330
110
100
AcDbEntity
  8
0
 62
2
100
AcDbLine
 10
4.05
 20
3.65
 30
0.0
 11
4.05
 21
4.159999999999999
 31
0.0
  0
INSERT
  5
115
330
110
100
AcDbEntity
  8
COTAS
 62
2
100
AcDbBlockReference
  2
_CLOSEDFILLED
 10
2.85
 20
4.1
 30
0.0
 41
0.08
 42
0.08
 50
180.0
  0
INSERT
  5
117
330
110
100
AcDbEntity
  8
COTAS
 62
2
100
AcDbBlockReference
  2
_CLOSEDFILLED
 10
4.05
 20
4.1
 30
0.0
 41
0.08
 42
0.08
  0
LINE
  5
119
330
110
100
AcDbEntity
  8
0
 62
2
100
AcDbLine
 10
2.93
 20
4.1
 30
0.0
 11
3.9699999999999998
 21
4.1
 31
0.0
  0
MTEXT
  5
11A
330
110
100
AcDbEntity
  8
COTAS
 62
2
100
AcDbMText
 10
3.45
 20
4.1899999999999995
 30
0.0
 40
0.12
 71
5
  1
1,2
  7
ZION
  0
POINT
  5
11B
330
110
100
AcDbEntity
  8
Defpoints
100
AcDbPoint
 10
2.85
 20
4.1
 30
0.0
  0
POINT
  5
11C
330
110
100
AcDbEntity
  8
Defpoints
100
AcDbPoint
 10
2.85
 20
3.6
 30
0.0
  0
POINT
  5
11D
330
110
100
AcDbEntity
  8
Defpoints
100
AcDbPoint
 10
4.05
 20
3.6
 30
0.0
  0
ENDBLK
  5
112
330
110
100
AcDbEntity
  8
0
100
AcDbBlockEnd
  0
BLOCK
  5
120
330
11F
100
AcDbEntity
  8
0
100
AcDbBlockBegin
  2
*D7
 70
1
 10
0.0
 20
0.0
 30
0.0
  3
*D7
  1

  0
LINE
  5
122
330
11F
100
AcDbEntity
  8
0
 62
2
100
AcDbLine
 10
4.05
 20
3.65
 30
0.0
 11
4.05
 21
4.159999999999999
 31
0.0
  0
LINE
  5
123
330
11F
100
AcDbEntity
  8
0
 62
2
100
AcDbLine
 10
5.25
 20
3.65
 30
0.0
 11
5.25
 21
4.159999999999999
 31
0.0
  0
INSERT
  5
124
330
11F
100
AcDbEntity
  8
COTAS
 62
2
100
AcDbBlockReference
  2
_CLOSEDFILLED
 10
4.05
 20
4.1
 30
0.0
 41
0.08
 42
0.08
 50
180.0
  0
INSERT
  5
126
330
11F
100
AcDbEntity
  8
COTAS
 62
2
100
AcDbBlockReference
  2
_CLOSEDFILLED
 10
5.25
 20
4.1
 30
0.0
 41
0.08
 42
0.08
  0
LINE
  5
128
330
11F
100
AcDbEntity
  8
0
 62
2
100
AcDbLine
 10
4.13
 20
4.1
 30
0.0
 11
5.17
 21
4.1
 31
0.0
  0
MTEXT
  5
129
330
11F
100
AcDbEntity
  8
COTAS
 62
2
100
AcDbMText
 10
4.65
 20
4.1899999999999995
 30
0.0
 40
0.12
 71
5
  1
1,2
  7
ZION
  0
POINT
  5
12A
330
11F
100
AcDbEntity
  8
Defpoints
100
AcDbPoint
 10
4.05
 20
4.1
 30
0.0
  0
POINT
  5
12B
330
11F
100
AcDbEntity
  8
Defpoints
100
AcDbPoint
 10
4.05
 20
3.6
 30
0.0
  0
POINT
  5
12C
330
11F
100
AcDbEntity
  8
Defpoints
100
AcDbPoint
 10
5.25
 20
3.6
 30
0.0
  0
ENDBLK
  5
121
330
11F
100
AcDbEntity
  8
0
100
AcDbBlockEnd
  0
BLOCK
  5
12F
330
12E
100
AcDbEntity
  8
0
100
AcDbBlockBegin
  2
*D8
 70
1
 10
0.0
 20
0.0
 30
0.0
  3
*D8
  1

  0
LINE
  5
131
330
12E
100
AcDbEntity
  8
0
 62
2
100
AcDbLine
 10
5.25
 20
3.65
 30
0.0
 11
5.25
 21
4.159999999999999
 31
0.0
  0
LINE
  5
132
330
12E
100
AcDbEntity
  8
0
 62
2
100
AcDbLine
 10
6.45
 20
3.65
 30
0.0
 11
6.45
 21
4.159999999999999
 31
0.0
  0
INSERT
  5
133
330
12E
100
AcDbEntity
  8
COTAS
 62
2
100
AcDbBlockReference
  2
_CLOSEDFILLED
 10
5.25
 20
4.1
 30
0.0
 41
0.08
 42
0.08
 50
180.0
  0
INSERT
  5
135
330
12E
100
AcDbEntity
  8
COTAS
 62
2
100
AcDbBlockReference
  2
_CLOSEDFILLED
 10
6.45
 20
4.1
 30
0.0
 41
0.08
 42
0.08
  0
LINE
  5
137
330
12E
100
AcDbEntity
  8
0
 62
2
100
AcDbLine
 10
5.33
 20
4.1
 30
0.0
 11
6.37
 21
4.1
 31
0.0
  0
MTEXT
  5
138
330
12E
100
AcDbEntity
  8
COTAS
 62
2
100
AcDbMText
 10
5.85
 20
4.1899999999999995
 30
0.0
 40
0.12
 71
5
  1
1,2
  7
ZION
  0
POINT
  5
139
330
12E
100
AcDbEntity
  8
Defpoints
100
AcDbPoint
 10
5.25
 20
4.1
 30
0.0
  0
POINT
  5
13A
330
12E
100
AcDbEntity
  8
Defpoints
100
AcDbPoint
 10
5.25
 20
3.6
 30
0.0
  0
POINT
  5
13B
330
12E
100
AcDbEntity
  8
Defpoints
100
AcDbPoint
 10
6.45
 20
3.6
 30
0.0
  0
ENDBLK
  5
130
330
12E
100
AcDbEntity
  8
0
100
AcDbBlockEnd
  0
BLOCK
  5
13E
330
13D
100
AcDbEntity
  8
0
100
AcDbBlockBegin
  2
*D9
 70
1
 10
0.0
 20
0.0
 30
0.0
  3
*D9
  1

  0
LINE
  5
140
330
13D
100
AcDbEntity
  8
0
 62
2
100
AcDbLine
 10
6.45
 20
3.65
 30
0.0
 11
6.45
 21
4.159999999999999
 31
0.0
  0
LINE
  5
141
330
13D
100
AcDbEntity
  8
0
 62
2
100
AcDbLine
 10
7.65
 20
3.65
 30
0.0
 11
7.65
 21
4.159999999999999
 31
0.0
  0
INSERT
  5
142
330
13D
100
AcDbEntity
  8
COTAS
 62
2
100
AcDbBlockReference
  2
_CLOSEDFILLED
 10
6.45
 20
4.1
 30
0.0
 41
0.08
 42
0.08
 50
180.0
  0
INSERT
  5
144
330
13D
100
AcDbEntity
  8
COTAS
 62
2
100
AcDbBlockReference
  2
_CLOSEDFILLED
 10
7.65
 20
4.1
 30
0.0
 41
0.08
 42
0.08
  0
LINE
  5
146
330
13D
100
AcDbEntity
  8
0
 62
2
100
AcDbLine
 10
6.53
 20
4.1
 30
0.0
 11
7.57
 21
4.1
 31
0.0
  0
MTEXT
  5
147
330
13D
100
AcDbEntity
  8
COTAS
 62
2
100
AcDbMText
 10
7.050000000000001
 20
4.1899999999999995
 30
0.0
 40
0.12
 71
5
  1
1,2
  7
ZION
  0
POINT
  5
148
330
13D
100
AcDbEntity
  8
Defpoints
100
AcDbPoint
 10
6.45
 20
4.1
 30
0.0
  0
POINT
  5
149
330
13D
100
AcDbEntity
  8
Defpoints
100
AcDbPoint
 10
6.45
 20
3.6
 30
0.0
  0
POINT
  5
14A
330
13D
100
AcDbEntity
  8
Defpoints
100
AcDbPoint
 10
7.65
 20
3.6
 30
0.0
  0
ENDBLK
  5
13F
330
13D
100
AcDbEntity
  8
0
100
AcDbBlockEnd
  0
BLOCK
  5
14D
330
14C
100
AcDbEntity
  8
0
100
AcDbBlockBegin
  2
*D10
 70
1
 10
0.0
 20
0.0
 30
0.0
  3
*D10
  1

  0
LINE
  5
14F
330
14C
100
AcDbEntity
  8
0
 62
2
100
AcDbLine
 10
7.65
 20
3.65
 30
0.0
 11
7.65
 21
4.159999999999999
 31
0.0
  0
LINE
  5
150
330
14C
100
AcDbEntity
  8
0
 62
2
100
AcDbLine
 10
8.75
 20
3.65
 30
0.0
 11
8.75
 21
4.159999999999999
 31
0.0
  0
INSERT
  5
151
330
14C
100
AcDbEntity
  8
COTAS
 62
2
100
AcDbBlockReference
  2
_CLOSEDFILLED
 10
7.65
 20
4.1
 30
0.0
 41
0.08
 42
0.08
 50
180.0
  0
INSERT
  5
153
330
14C
100
AcDbEntity
  8
COTAS
 62
2
100
AcDbBlockReference
  2
_CLOSEDFILLED
 10
8.75
 20
4.1
 30
0.0
 41
0.08
 42
0.08
  0
LINE
  5
155
330
14C
100
AcDbEntity
  8
0
 62
2
100
AcDbLine
 10
7.73
 20
4.1
 30
0.0
 11
8.67
 21
4.1
 31
0.0
  0
MTEXT
  5
156
330
14C
100
AcDbEntity
  8
COTAS
 62
2
100
AcDbMText
 10
8.2
 20
4.1899999999999995
 30
0.0
 40
0.12
 71
5
  1
1,1
  7
ZION
  0
POINT
  5
157
330
14C
100
AcDbEntity
  8
Defpoints
100
AcDbPoint
 10
7.65
 20
4.1
 30
0.0
  0
POINT
  5
158
330
14C
100
AcDbEntity
  8
Defpoints
100
AcDbPoint
 10
7.65
 20
3.6
 30
0.0
  0
POINT
  5
159
330
14C
100
AcDbEntity
  8
Defpoints
100
AcDbPoint
 10
8.75
 20
3.6
 30
0.0
  0
ENDBLK
  5
14E
330
14C
100
AcDbEntity
  8
0
100
AcDbBlockEnd
  0
ENDSEC
  0
SECTION
  2
ENTITIES
  0
LWPOLYLINE
  5
9B
330
17
100
AcDbEntity
  8
COBERTURA_OCULTA
100
AcDbPolyline
 90
240
 70
1
 10
0.5
 20
-2.484931905878817
 10
0.5764705882352941
 20
-2.5529026920495985
 10
0.6529411764705882
 20
-2.6110911051113495
 10
0.7294117647058823
 20
-2.661383174323169
 10
0.8058823529411765
 20
-2.705152198511852
 10
0.8823529411764706
 20
-2.7434347117139395
 10
0.9588235294117646
 20
-2.7770362021510016
 10
1.0352941176470587
 20
-2.8065979489875037
 10
1.111764705882353
 20
-2.8326410675503793
 10
1.1882352941176468
 20
-2.8555965516509194
 10
1.2647058823529411
 20
-2.87582636743163
 10
1.3411764705882352
 20
-2.8936386341239584
 10
1.4176470588235293
 20
-2.909298783025016
 10
1.4941176470588236
 20
-2.9230379112091596
 10
1.5705882352941176
 20
-2.9350591344530605
 10
1.6470588235294117
 20
-2.9455424845236147
 10
1.7235294117647058
 20
-2.9546487283498344
 10
1.7999999999999998
 20
-2.9625223756546553
 10
1.876470588235294
 20
-2.9692940666304883
 10
1.9529411764705882
 20
-2.9750824795890147
 10
2.0294117647058822
 20
-2.9799958623328338
 10
2.105882352941176
 20
-2.9841332652645027
 10
2.1823529411764704
 20
-2.9875855356988783
 10
2.2588235294117647
 20
-2.9904361193085407
 10
2.3352941176470585
 20
-2.992761704644777
 10
2.411764705882353
 20
-2.994632739232442
 10
2.488235294117647
 20
-2.9961138401345346
 10
2.564705882352941
 20
-2.9972641176248493
 10
2.6411764705882352
 20
-2.9981374273378014
 10
2.717647058823529
 20
-2.9987825637234913
 10
2.7941176470588234
 20
-2.9992434056315984
 10
2.870588235294117
 20
-2.999559023236657
 10
2.9470588235294115
 20
-2.9997637541920907
 10
3.023529411764706
 20
-2.9998872557796235
 10
3.0999999999999996
 20
-2.999954538842851
 10
3.176470588235294
 20
-2.9999859884126447
 10
3.252941176470588
 20
-2.99999737511359
 10
3.329411764705882
 20
-2.999999860660283
 10
3.4058823529411764
 20
-2.99999999914596
 10
3.48235294117647
 20
-2.9999976565126496
 10
3.5588235294117645
 20
-2.999983189838209
 10
3.6352941176470583
 20
-2.9999453404497185
 10
3.7117647058823526
 20
-2.9998728477107908
 10
3.788235294117647
 20
-2.9997544468430846
 10
3.8647058823529408
 20
-2.999578865900379
 10
3.941176470588235
 20
-2.9993348218922247
 10
4.017647058823529
 20
-2.999011016052389
 10
4.094117647058823
 20
-2.998596128245021
 10
4.170588235294117
 20
-2.998078810498705
 10
4.247058823529411
 20
-2.9974476796553877
 10
4.323529411764706
 20
-2.996691309117388
 10
4.3999999999999995
 20
-2.9957982196714874
 10
4.476470588235294
 20
-2.99475686936428
 10
4.552941176470588
 20
-2.9935556423975385
 10
4.629411764705882
 20
-2.9921828370063355
 10
4.705882352941176
 20
-2.9906266522758713
 10
4.7823529411764705
 20
-2.9888751738454307
 10
4.858823529411764
 20
-2.986916358439494
 10
4.935294117647058
 20
-2.9847380171566407
 10
5.011764705882353
 20
-2.9823277974364184
 10
5.088235294117647
 20
-2.9796731636126426
 10
5.164705882352941
 20
-2.976761375948474
 10
5.241176470588234
 20
-2.9735794680338867
 10
5.317647058823529
 20
-2.970114222409549
 10
5.394117647058823
 20
-2.9663521442624265
 10
5.470588235294117
 20
-2.9622794330172084
 10
5.547058823529412
 20
-2.957881951623614
 10
5.623529411764705
 20
-2.953145193312211
 10
5.699999999999999
 20
-2.9480542455601184
 10
5.776470588235293
 20
-2.9425937509720765
 10
5.852941176470588
 20
-2.9367478647411613
 10
5.929411764705882
 20
-2.930500208305902
 10
6.005882352941176
 20
-2.9238338187655524
 10
6.08235294117647
 20
-2.9167310935514346
 10
6.158823529411764
 20
-2.9091737297779137
 10
6.235294117647058
 20
-2.9011426576096113
 10
6.311764705882353
 20
-2.8926179668795013
 10
6.388235294117647
 20
-2.88357882607239
 10
6.46470588235294
 20
-2.8740033926463195
 10
6.541176470588234
 20
-2.8638687134959104
 10
6.617647058823529
 20
-2.8531506141608203
 10
6.694117647058823
 20
-2.841823575142122
 10
6.770588235294117
 20
-2.829860593400395
 10
6.847058823529411
 20
-2.8172330267602277
 10
6.923529411764705
 20
-2.803910418522091
 10
6.999999999999999
 20
-2.7898602990654684
 10
7.076470588235294
 20
-2.775047960592907
 10
7.152941176470588
 20
-2.7594362003820443
 10
7.2294117647058815
 20
-2.742985026941391
 10
7.305882352941175
 20
-2.725651322252289
 10
7.38235294117647
 20
-2.707388451753576
 10
7.458823529411764
 20
-2.688145811792679
 10
7.535294117647058
 20
-2.667868301799913
 10
7.6117647058823525
 20
-2.6464957052683156
 10
7.688235294117646
 20
-2.6239619595008836
 10
7.76470588235294
 20
-2.6001942886885083
 10
7.841176470588234
 20
-2.5751121677377804
 10
7.917647058823529
 20
-2.5486260747111187
 10
7.994117647058823
 20
-2.520635976807957
 10
8.070588235294117
 20
-2.4910294770891936
 10
8.147058823529411
 20
-2.459679524515723
 10
8.223529411764705
 20
-2.426441555128867
 10
8.299999999999999
 20
-2.3911498823822352
 10
8.376470588235293
 20
-2.353613081893754
 10
8.452941176470588
 20
-2.31360800752388
 10
8.529411764705882
 20
-2.2708719106096766
 10
8.605882352941176
 20
-2.225091876335507
 10
8.68235294117647
 20
-2.1758903769105546
 10
8.758823529411764
 20
-2.122805053729304
 10
8.835294117647058
 20
-2.065259656865152
 10
8.911764705882351
 20
-2.0025209421011736
 10
8.988235294117645
 20
-1.933632300825034
 10
9.064705882352941
 20
-1.8573068087370608
 10
9.141176470588235
 20
-1.7717448650848096
 10
9.217647058823529
 20
-1.6742999580294056
 10
9.294117647058822
 20
-1.5608042921045109
 10
9.370588235294116
 20
-1.4240112015946522
 10
9.44705882352941
 20
-1.2491660993813607
 10
9.523529411764706
 20
-0.9955736464356002
 10
9.6
 20
-0.0
 10
9.6
 20
0.0
 10
9.523529411764706
 20
0.9955736464356002
 10
9.447058823529412
 20
1.249166099381355
 10
9.370588235294118
 20
1.4240112015946482
 10
9.294117647058822
 20
1.5608042921045109
 10
9.217647058823529
 20
1.6742999580294056
 10
9.141176470588235
 20
1.7717448650848096
 10
9.064705882352941
 20
1.8573068087370608
 10
8.988235294117647
 20
1.9336323008250327
 10
8.911764705882353
 20
2.0025209421011727
 10
8.83529411764706
 20
2.06525965686515
 10
8.758823529411764
 20
2.122805053729304
 10
8.68235294117647
 20
2.1758903769105546
 10
8.605882352941176
 20
2.225091876335507
 10
8.529411764705882
 20
2.2708719106096766
 10
8.452941176470588
 20
2.31360800752388
 10
8.376470588235295
 20
2.3536130818937533
 10
8.3
 20
2.3911498823822344
 10
8.223529411764705
 20
2.426441555128867
 10
8.147058823529411
 20
2.459679524515723
 10
8.070588235294117
 20
2.4910294770891936
 10
7.9941176470588236
 20
2.520635976807957
 10
7.91764705882353
 20
2.5486260747111187
 10
7.841176470588235
 20
2.57511216773778
 10
7.764705882352941
 20
2.600194288688508
 10
7.688235294117646
 20
2.6239619595008836
 10
7.6117647058823525
 20
2.6464957052683156
 10
7.535294117647059
 20
2.667868301799913
 10
7.458823529411765
 20
2.688145811792679
 10
7.382352941176471
 20
2.7073884517535753
 10
7.305882352941176
 20
2.725651322252289
 10
7.229411764705882
 20
2.7429850269413905
 10
7.152941176470588
 20
2.7594362003820443
 10
7.076470588235294
 20
2.775047960592907
 10
7.0
 20
2.7898602990654684
 10
6.923529411764706
 20
2.803910418522091
 10
6.847058823529412
 20
2.8172330267602277
 10
6.770588235294118
 20
2.8298605934003946
 10
6.694117647058823
 20
2.841823575142122
 10
6.617647058823529
 20
2.8531506141608203
 10
6.541176470588235
 20
2.8638687134959104
 10
6.464705882352941
 20
2.8740033926463195
 10
6.3882352941176475
 20
2.88357882607239
 10
6.311764705882353
 20
2.8926179668795013
 10
6.235294117647059
 20
2.901142657609611
 10
6.158823529411764
 20
2.9091737297779137
 10
6.08235294117647
 20
2.9167310935514346
 10
6.0058823529411764
 20
2.9238338187655524
 10
5.929411764705883
 20
2.9305002083059017
 10
5.852941176470589
 20
2.9367478647411613
 10
5.776470588235294
 20
2.9425937509720765
 10
5.7
 20
2.9480542455601184
 10
5.623529411764705
 20
2.953145193312211
 10
5.547058823529412
 20
2.957881951623614
 10
5.470588235294118
 20
2.9622794330172084
 10
5.394117647058824
 20
2.966352144262426
 10
5.317647058823529
 20
2.970114222409549
 10
5.241176470588235
 20
2.9735794680338867
 10
5.1647058823529415
 20
2.976761375948474
 10
5.088235294117647
 20
2.9796731636126426
 10
5.011764705882353
 20
2.9823277974364184
 10
4.935294117647059
 20
2.9847380171566407
 10
4.858823529411765
 20
2.9869163584394935
 10
4.7823529411764705
 20
2.9888751738454307
 10
4.705882352941177
 20
2.9906266522758713
 10
4.629411764705883
 20
2.9921828370063355
 10
4.552941176470588
 20
2.9935556423975385
 10
4.476470588235294
 20
2.99475686936428
 10
4.4
 20
2.9957982196714874
 10
4.3235294117647065
 20
2.9966913091173875
 10
4.247058823529412
 20
2.9974476796553877
 10
4.170588235294118
 20
2.998078810498705
 10
4.094117647058824
 20
2.998596128245021
 10
4.017647058823529
 20
2.999011016052389
 10
3.9411764705882355
 20
2.9993348218922247
 10
3.8647058823529417
 20
2.999578865900379
 10
3.788235294117647
 20
2.9997544468430846
 10
3.711764705882353
 20
2.9998728477107908
 10
3.6352941176470592
 20
2.9999453404497185
 10
3.5588235294117654
 20
2.999983189838209
 10
3.4823529411764707
 20
2.9999976565126496
 10
3.405882352941177
 20
2.99999999914596
 10
3.329411764705883
 20
2.999999860660283
 10
3.2529411764705882
 20
2.99999737511359
 10
3.1764705882352944
 20
2.9999859884126447
 10
3.1000000000000005
 20
2.999954538842851
 10
3.023529411764706
 20
2.9998872557796235
 10
2.947058823529412
 20
2.9997637541920907
 10
2.870588235294118
 20
2.999559023236657
 10
2.7941176470588243
 20
2.9992434056315984
 10
2.7176470588235295
 20
2.9987825637234913
 10
2.6411764705882357
 20
2.9981374273378014
 10
2.564705882352942
 20
2.9972641176248493
 10
2.488235294117647
 20
2.9961138401345346
 10
2.4117647058823533
 20
2.994632739232442
 10
2.3352941176470594
 20
2.992761704644777
 10
2.2588235294117656
 20
2.9904361193085407
 10
2.182352941176471
 20
2.9875855356988783
 10
2.105882352941177
 20
2.9841332652645027
 10
2.029411764705883
 20
2.9799958623328338
 10
1.9529411764705884
 20
2.9750824795890147
 10
1.8764705882352946
 20
2.9692940666304883
 10
1.8000000000000007
 20
2.9625223756546557
 10
1.723529411764706
 20
2.9546487283498344
 10
1.6470588235294121
 20
2.9455424845236147
 10
1.5705882352941174
 20
2.9350591344530605
 10
1.4941176470588236
 20
2.9230379112091596
 10
1.4176470588235297
 20
2.909298783025016
 10
1.3411764705882359
 20
2.8936386341239584
 10
1.264705882352942
 20
2.87582636743163
 10
1.1882352941176482
 20
2.85559655165092
 10
1.1117647058823543
 20
2.8326410675503797
 10
1.0352941176470587
 20
2.8065979489875037
 10
0.9588235294117649
 20
2.777036202151002
 10
0.882352941176471
 20
2.74343471171394
 10
0.8058823529411772
 20
2.7051521985118523
 10
0.7294117647058833
 20
2.661383174323169
 10
0.6529411764705895
 20
2.611091105111351
 10
0.5764705882352938
 20
2.552902692049598
 10
0.5
 20
2.484931905878817
  0
LWPOLYLINE
  5
9C
330
17
100
AcDbEntity
  8
COBERTURA
100
AcDbPolyline
 90
81
 70
0
 10
0.45
 20
2.3730840916416054
 10
0.4285516427123808
 20
2.3949598755941746
 10
0.40692816452512653
 20
2.4120140729844475
 10
0.3851730983061238
 20
2.4242123499224055
 10
0.36333024183921536
 20
2.431530148565236
 10
0.3414435696495264
 20
2.4339527365577296
 10
0.3195571444729709
 20
2.4314752366917824
 10
0.29771502854817067
 20
2.4241026367253045
 10
0.2759611949093751
 20
2.411849779340751
 10
0.2543394388589689
 20
2.3947413322635054
 10
0.2328932897977944
 20
2.3728117386002645
 10
0.21166592359079198
 20
2.346105147497409
 10
0.1907000756443873
 20
2.3146753252589587
 10
0.17003795487061923
 20
2.278585547103051
 10
0.14972115871121794
 20
2.237908469774865
 10
0.12979058939270915
 20
2.1927259852724403
 10
0.11028637158114007
 20
2.1431290559798852
 10
0.09124777160220843
 20
2.0892175315398793
 10
0.0727131183894213
 20
2.0310999478341474
 10
0.05471972631943206
 20
1.968893308476604
 10
0.03730382008990624
 20
1.9027228492590775
 10
0.020500461791153834
 20
1.8327217860238172
 10
0.00434348031834747
 20
1.7590310464703982
 10
-0.011134596733561875
 20
1.6817989864369365
 10
-0.02590260855512444
 20
1.6011810912268094
 10
-0.03993082385602659
 20
1.5173396625821833
 10
-0.05319100072078681
 20
1.4304434919345295
 10
-0.06565644346600935
 20
1.3406675205899534
 10
-0.07730205638472815
 20
1.2481924875334645
 10
-0.08810439426964284
 20
1.1532045655612249
 10
-0.09804170961353348
 20
1.0558949864733267
 10
-0.10709399639182454
 20
0.9564596560816778
 10
-0.11524303033916078
 20
0.8550987598080543
 10
-0.12247240563890366
 20
0.7520163596663528
 10
-0.12876756795168626
 20
0.6474199834403989
 10
-0.134115843716534
 20
0.5415202068843897
 10
-0.13850646566555996
 20
0.4345302297870975
 10
-0.14193059450086837
 20
0.3266654467533025
 10
-0.144381336690025
 20
0.21814301356658428
 10
-0.1458537583442719
 20
0.10918141000645408
 10
-0.1463448951515403
 20
1.2299288078842396e-15
 10
-0.1458537583442719
 20
-0.1091814100064527
 10
-0.144381336690025
 20
-0.2181430135665829
 10
-0.14193059450086848
 20
-0.32666544675330117
 10
-0.13850646566556007
 20
-0.4345302297870961
 10
-0.134115843716534
 20
-0.5415202068843885
 10
-0.12876756795168626
 20
-0.6474199834403975
 10
-0.12247240563890377
 20
-0.7520163596663516
 10
-0.11524303033916089
 20
-0.8550987598080529
 10
-0.10709399639182465
 20
-0.9564596560816756
 10
-0.09804170961353348
 20
-1.0558949864733265
 10
-0.08810439426964306
 20
-1.1532045655612235
 10
-0.07730205638472826
 20
-1.248192487533464
 10
-0.06565644346600946
 20
-1.3406675205899525
 10
-0.05319100072078692
 20
-1.4304434919345288
 10
-0.03993082385602664
 20
-1.5173396625821831
 10
-0.025902608555124496
 20
-1.6011810912268094
 10
-0.011134596733561875
 20
-1.6817989864369363
 10
0.004343480318347415
 20
-1.7590310464703975
 10
0.020500461791153668
 20
-1.8327217860238167
 10
0.037303820089906126
 20
-1.902722849259077
 10
0.054719726319431894
 20
-1.968893308476604
 10
0.07271311838942107
 20
-2.0310999478341465
 10
0.09124777160220832
 20
-2.0892175315398793
 10
0.11028637158113985
 20
-2.143129055979885
 10
0.12979058939270904
 20
-2.1927259852724394
 10
0.14972115871121783
 20
-2.2379084697748644
 10
0.17003795487061912
 20
-2.278585547103051
 10
0.19070007564438723
 20
-2.3146753252589582
 10
0.21166592359079195
 20
-2.346105147497409
 10
0.23289328979779436
 20
-2.3728117386002645
 10
0.2543394388589687
 20
-2.3947413322635054
 10
0.2759611949093749
 20
-2.4118497793407507
 10
0.29771502854817034
 20
-2.424102636725304
 10
0.31955714447297096
 20
-2.4314752366917824
 10
0.34144356964952627
 20
-2.4339527365577296
 10
0.3633302418392153
 20
-2.431530148565236
 10
0.38517309830612356
 20
-2.424212349922406
 10
0.4069281645251263
 20
-2.4120140729844475
 10
0.4285516427123806
 20
-2.394959875594175
 10
0.4499999999999997
 20
-2.3730840916416063
  0
LWPOLYLINE
  5
9D
330
17
100
AcDbEntity
  8
COBERTURA_OCULTA
100
AcDbPolyline
 90
49
 70
0
 10
0.1422606838465103
 20
2.2216243604733688
 10
-0.03991828458107971
 20
2.1743667639050606
 10
-0.18977886775703978
 20
2.1214153400938565
 10
-0.32929418551302536
 20
2.063302207586087
 10
-0.46226479459006076
 20
2.000229751658835
 10
-0.590365939734124
 20
1.9323711334536606
 10
-0.7145265115713959
 20
1.859896233408331
 10
-0.8353271167396372
 20
1.782978944770813
 10
-0.9531587049868739
 20
1.7017998640875138
 10
-1.0682982567872252
 20
1.61654736346862
 10
-1.180949435815631
 20
1.5274179634958711
 10
-1.2912663551801278
 20
1.434616356924511
 10
-1.3993683913360306
 20
1.3383552373406031
 10
-1.50534989480982
 20
1.2388550083213328
 10
-1.6092868201924568
 20
1.1363434134134975
 10
-1.7112414075198188
 20
1.0310551100526477
 10
-1.8112655823253065
 20
0.9232312015703902
 10
-1.9094034849241452
 20
0.8131187364892497
 10
-2.005693390877639
 20
0.7009701814510095
 10
-2.1001691950569192
 20
0.587042872416193
 10
-2.1928615759070875
 20
0.4715984477170472
 10
-2.283798920656562
 20
0.3549022658769178
 10
-2.373008068571947
 20
0.23722281067434003
 10
-2.4605149134010116
 20
0.11883108564243765
 10
-2.5463448951515404
 20
1.5201735863977341e-16
 10
-2.4605149134010116
 20
-0.11883108564243734
 10
-2.373008068571947
 20
-0.23722281067433973
 10
-2.283798920656562
 20
-0.35490226587691753
 10
-2.192861575907087
 20
-0.4715984477170473
 10
-2.1001691950569197
 20
-0.5870428724161922
 10
-2.005693390877639
 20
-0.7009701814510092
 10
-1.9094034849241452
 20
-0.8131187364892494
 10
-1.8112655823253065
 20
-0.9232312015703898
 10
-1.711241407519819
 20
-1.0310551100526473
 10
-1.6092868201924568
 20
-1.1363434134134973
 10
-1.505349894809819
 20
-1.2388550083213334
 10
-1.39936839133603
 20
-1.3383552373406036
 10
-1.2912663551801276
 20
-1.434616356924511
 10
-1.1809494358156303
 20
-1.5274179634958716
 10
-1.0682982567872252
 20
-1.6165473634686198
 10
-0.9531587049868739
 20
-1.7017998640875136
 10
-0.8353271167396372
 20
-1.7829789447708129
 10
-0.7145265115713963
 20
-1.8598962334083304
 10
-0.5903659397341245
 20
-1.9323711334536604
 10
-0.4622647945900615
 20
-2.0002297516588348
 10
-0.3292941855130261
 20
-2.063302207586087
 10
-0.18977886775703978
 20
-2.1214153400938565
 10
-0.03991828458107971
 20
-2.1743667639050606
 10
0.1422606838465103
 20
-2.2216243604733688
  0
LWPOLYLINE
  5
9E
330
17
100
AcDbEntity
  8
COBERTURA_OCULTA
100
AcDbPolyline
 90
18
 70
0
 10
1.3317102372759604
 20
1.751806555791902e-16
 10
-0.13405573852503433
 20
1.4383187722104865e-16
 10
-0.2840557385250343
 20
1.4401166706757494e-16
 10
-0.4340557385250343
 20
1.4419145691410126e-16
 10
-0.5840557385250342
 20
1.4437124676062756e-16
 10
-0.7340557385250344
 20
1.4455103660715388e-16
 10
-0.8840557385250343
 20
1.4473082645368022e-16
 10
-1.0340557385250342
 20
1.4491061630020652e-16
 10
-1.1840557385250343
 20
1.4509040614673281e-16
 10
-1.3340557385250342
 20
1.4527019599325914e-16
 10
-1.4840557385250341
 20
1.4544998583978543e-16
 10
-1.6340557385250343
 20
1.4562977568631175e-16
 10
-1.7840557385250342
 20
1.4580956553283805e-16
 10
-1.934055738525034
 20
1.4598935537936437e-16
 10
-2.0840557385250342
 20
1.4616914522589071e-16
 10
-2.2340557385250346
 20
1.46348935072417e-16
 10
-2.3840557385250345
 20
1.465287249189433e-16
 10
-2.5340557385250344
 20
1.4670851476546962e-16
  0
LWPOLYLINE
  5
9F
330
17
100
AcDbEntity
  8
PAREDES
100
AcDbPolyline
 90
242
 70
1
 10
0.9
 20
-2.683634731948139
 10
0.9708333333333333
 20
-2.7133618239838704
 10
1.0416666666666667
 20
-2.7397824079124473
 10
1.1125
 20
-2.76329009372623
 10
1.1833333333333333
 20
-2.784215481313594
 10
1.2541666666666667
 20
-2.802839896931568
 10
1.325
 20
-2.819405528612597
 10
1.3958333333333335
 20
-2.83412304143473
 10
1.4666666666666668
 20
-2.8471773904753506
 10
1.5375
 20
-2.858732319670315
 10
1.6083333333333334
 20
-2.8689338857712876
 10
1.6791666666666667
 20
-2.8779132475835394
 10
1.75
 20
-2.8857888935037668
 10
1.8208333333333333
 20
-2.8926684339591633
 10
1.8916666666666666
 20
-2.8986500527231267
 10
1.9625
 20
-2.903823687800297
 10
2.033333333333333
 20
-2.9082719957286303
 10
2.1041666666666665
 20
-2.912071140806653
 10
2.175
 20
-2.9152914416126863
 10
2.2458333333333336
 20
-2.917997900341363
 10
2.316666666666667
 20
-2.920250635314675
 10
2.3875
 20
-2.922105233086887
 10
2.4583333333333335
 20
-2.92361303353725
 10
2.529166666666667
 20
-2.9248213590008607
 10
2.6
 20
-2.925773696656599
 10
2.6708333333333334
 20
-2.926509841945631
 10
2.7416666666666667
 20
-2.9270660096395007
 10
2.8125
 20
-2.9274749182411584
 10
2.8833333333333333
 20
-2.9277658526300803
 10
2.9541666666666666
 20
-2.9279647092112477
 10
3.025
 20
-2.928094027264246
 10
3.095833333333333
 20
-2.9281730096877006
 10
3.1666666666666665
 20
-2.9282175358763003
 10
3.2375
 20
-2.92824016903816
 10
3.308333333333333
 20
-2.92825015984858
 10
3.3791666666666664
 20
-2.928253447934855
 10
3.4499999999999997
 20
-2.92824885072168
 10
3.520833333333333
 20
-2.928221585873937
 10
3.591666666666667
 20
-2.928162349506481
 10
3.6625
 20
-2.92806235335393
 10
3.7333333333333334
 20
-2.927912783235499
 10
3.8041666666666667
 20
-2.9277047976054824
 10
3.875
 20
-2.927429525493939
 10
3.9458333333333333
 20
-2.9270780638359817
 10
4.016666666666667
 20
-2.926641474186465
 10
4.0875
 20
-2.9261107788151426
 10
4.158333333333333
 20
-2.925476956175289
 10
4.229166666666667
 20
-2.9247309357365214
 10
4.3
 20
-2.9238635921700165
 10
4.370833333333334
 20
-2.9228657388714456
 10
4.441666666666666
 20
-2.921728120803831
 10
4.5125
 20
-2.920441406639019
 10
4.583333333333333
 20
-2.9189961801726336
 10
4.654166666666667
 20
-2.917382930983089
 10
4.7250000000000005
 20
-2.915592044300588
 10
4.795833333333333
 20
-2.9136137900467927
 10
4.866666666666667
 20
-2.9114383110001616
 10
4.9375
 20
-2.9090556100355576
 10
5.008333333333334
 20
-2.906455536379702
 10
5.079166666666667
 20
-2.9036277708162133
 10
5.15
 20
-2.9005618097652466
 10
5.220833333333334
 20
-2.897246948153011
 10
5.291666666666667
 20
-2.893672260975566
 10
5.362500000000001
 20
-2.889826583449066
 10
5.433333333333334
 20
-2.885698489624922
 10
5.504166666666667
 20
-2.8812762693328535
 10
5.575
 20
-2.8765479032973196
 10
5.645833333333334
 20
-2.8715010362530187
 10
5.716666666666667
 20
-2.8661229478626145
 10
5.7875000000000005
 20
-2.860400521214195
 10
5.858333333333333
 20
-2.8543202086466852
 10
5.929166666666667
 20
-2.8478679946178103
 10
6.0
 20
-2.8410293552906656
 10
6.070833333333334
 20
-2.833789214470427
 10
6.141666666666667
 20
-2.82613189547137
 10
6.2125
 20
-2.8180410684347086
 10
6.283333333333334
 20
-2.809499692548463
 10
6.354166666666667
 20
-2.800489952539612
 10
6.425000000000001
 20
-2.790993188714042
 10
6.495833333333334
 20
-2.7809898197084784
 10
6.566666666666667
 20
-2.7704592569872695
 10
6.6375
 20
-2.7593798099615303
 10
6.708333333333334
 20
-2.7477285804234737
 10
6.779166666666667
 20
-2.7354813447684867
 10
6.8500000000000005
 20
-2.7226124222135777
 10
6.920833333333333
 20
-2.7090945269032374
 10
6.991666666666667
 20
-2.6948986014097898
 10
7.0625
 20
-2.6799936286689126
 10
7.133333333333334
 20
-2.66434641882151
 10
7.204166666666667
 20
-2.647921366734059
 10
7.275
 20
-2.6306801751065865
 10
7.345833333333334
 20
-2.6125815370057692
 10
7.416666666666667
 20
-2.593580770321402
 10
7.487500000000001
 20
-2.5736293949596805
 10
7.558333333333334
 20
-2.5526746414521693
 10
7.629166666666667
 20
-2.5306588769344343
 10
7.7
 20
-2.507518930941971
 10
7.770833333333334
 20
-2.483185298920265
 10
7.841666666666667
 20
-2.457581195385171
 10
7.9125000000000005
 20
-2.430621420785391
 10
7.983333333333333
 20
-2.4022109955789386
 10
8.054166666666667
 20
-2.372243500784029
 10
8.125
 20
-2.3405990447555944
 10
8.195833333333333
 20
-2.3071417488712074
 10
8.266666666666666
 20
-2.271716606703824
 10
8.3375
 20
-2.234145516746748
 10
8.408333333333333
 20
-2.1942222093927737
 10
8.479166666666666
 20
-2.1517056710600055
 10
8.55
 20
-2.106311489664734
 10
8.620833333333334
 20
-2.0577002679912626
 10
8.691666666666666
 20
-2.0054618082338833
 10
8.7625
 20
-1.9490930411667984
 10
8.833333333333334
 20
-1.8879664286905244
 10
8.904166666666667
 20
-1.8212833572196088
 10
8.975
 20
-1.7480029182740227
 10
9.045833333333334
 20
-1.666728341333912
 10
9.116666666666667
 20
-1.5755161481363786
 10
9.1875
 20
-1.4715334476417132
 10
9.258333333333333
 20
-1.350386572680458
 10
9.329166666666667
 20
-1.2046376734340356
 10
9.4
 20
-1.0198774240368957
 10
9.4
 20
1.0198774240368957
 10
9.329166666666667
 20
1.2046376734340356
 10
9.258333333333333
 20
1.350386572680458
 10
9.1875
 20
1.4715334476417132
 10
9.116666666666667
 20
1.5755161481363786
 10
9.045833333333334
 20
1.666728341333912
 10
8.975
 20
1.7480029182740227
 10
8.904166666666667
 20
1.8212833572196088
 10
8.833333333333334
 20
1.8879664286905244
 10
8.7625
 20
1.9490930411667984
 10
8.691666666666666
 20
2.0054618082338833
 10
8.620833333333334
 20
2.0577002679912626
 10
8.55
 20
2.106311489664734
 10
8.479166666666666
 20
2.1517056710600055
 10
8.408333333333333
 20
2.1942222093927737
 10
8.3375
 20
2.234145516746748
 10
8.266666666666666
 20
2.271716606703824
 10
8.195833333333333
 20
2.3071417488712074
 10
8.125
 20
2.3405990447555944
 10
8.054166666666667
 20
2.372243500784029
 10
7.983333333333333
 20
2.4022109955789386
 10
7.9125000000000005
 20
2.430621420785391
 10
7.841666666666667
 20
2.457581195385171
 10
7.770833333333334
 20
2.483185298920265
 10
7.7
 20
2.507518930941971
 10
7.629166666666667
 20
2.5306588769344343
 10
7.558333333333334
 20
2.5526746414521693
 10
7.487500000000001
 20
2.5736293949596805
 10
7.416666666666667
 20
2.593580770321402
 10
7.345833333333334
 20
2.6125815370057692
 10
7.275
 20
2.6306801751065865
 10
7.204166666666667
 20
2.647921366734059
 10
7.133333333333334
 20
2.66434641882151
 10
7.0625
 20
2.6799936286689126
 10
6.991666666666667
 20
2.6948986014097898
 10
6.920833333333333
 20
2.7090945269032374
 10
6.8500000000000005
 20
2.7226124222135777
 10
6.779166666666667
 20
2.7354813447684867
 10
6.708333333333334
 20
2.7477285804234737
 10
6.6375
 20
2.7593798099615303
 10
6.566666666666667
 20
2.7704592569872695
 10
6.495833333333334
 20
2.7809898197084784
 10
6.425000000000001
 20
2.790993188714042
 10
6.354166666666667
 20
2.800489952539612
 10
6.283333333333334
 20
2.809499692548463
 10
6.2125
 20
2.8180410684347086
 10
6.141666666666667
 20
2.82613189547137
 10
6.070833333333334
 20
2.833789214470427
 10
6.0
 20
2.8410293552906656
 10
5.929166666666667
 20
2.8478679946178103
 10
5.858333333333333
 20
2.8543202086466852
 10
5.7875000000000005
 20
2.860400521214195
 10
5.716666666666667
 20
2.8661229478626145
 10
5.645833333333334
 20
2.8715010362530187
 10
5.575
 20
2.8765479032973196
 10
5.504166666666667
 20
2.8812762693328535
 10
5.433333333333334
 20
2.885698489624922
 10
5.362500000000001
 20
2.889826583449066
 10
5.291666666666667
 20
2.893672260975566
 10
5.220833333333334
 20
2.897246948153011
 10
5.15
 20
2.9005618097652466
 10
5.079166666666667
 20
2.9036277708162133
 10
5.008333333333334
 20
2.906455536379702
 10
4.9375
 20
2.9090556100355576
 10
4.866666666666667
 20
2.9114383110001616
 10
4.795833333333333
 20
2.9136137900467927
 10
4.7250000000000005
 20
2.915592044300588
 10
4.654166666666667
 20
2.917382930983089
 10
4.583333333333333
 20
2.9189961801726336
 10
4.5125
 20
2.920441406639019
 10
4.441666666666666
 20
2.921728120803831
 10
4.370833333333334
 20
2.9228657388714456
 10
4.3
 20
2.9238635921700165
 10
4.229166666666667
 20
2.9247309357365214
 10
4.158333333333333
 20
2.925476956175289
 10
4.0875
 20
2.9261107788151426
 10
4.016666666666667
 20
2.926641474186465
 10
3.9458333333333333
 20
2.9270780638359817
 10
3.875
 20
2.927429525493939
 10
3.8041666666666667
 20
2.9277047976054824
 10
3.7333333333333334
 20
2.927912783235499
 10
3.6625
 20
2.92806235335393
 10
3.591666666666667
 20
2.928162349506481
 10
3.520833333333333
 20
2.928221585873937
 10
3.4499999999999997
 20
2.92824885072168
 10
3.3791666666666664
 20
2.928253447934855
 10
3.308333333333333
 20
2.92825015984858
 10
3.2375
 20
2.92824016903816
 10
3.1666666666666665
 20
2.9282175358763003
 10
3.095833333333333
 20
2.9281730096877006
 10
3.025
 20
2.928094027264246
 10
2.9541666666666666
 20
2.9279647092112477
 10
2.8833333333333333
 20
2.9277658526300803
 10
2.8125
 20
2.9274749182411584
 10
2.7416666666666667
 20
2.9270660096395007
 10
2.6708333333333334
 20
2.926509841945631
 10
2.6
 20
2.925773696656599
 10
2.529166666666667
 20
2.9248213590008607
 10
2.4583333333333335
 20
2.92361303353725
 10
2.3875
 20
2.922105233086887
 10
2.316666666666667
 20
2.920250635314675
 10
2.2458333333333336
 20
2.917997900341363
 10
2.175
 20
2.9152914416126863
 10
2.1041666666666665
 20
2.912071140806653
 10
2.033333333333333
 20
2.9082719957286303
 10
1.9625
 20
2.903823687800297
 10
1.8916666666666666
 20
2.8986500527231267
 10
1.8208333333333333
 20
2.8926684339591633
 10
1.75
 20
2.8857888935037668
 10
1.6791666666666667
 20
2.8779132475835394
 10
1.6083333333333334
 20
2.8689338857712876
 10
1.5375
 20
2.858732319670315
 10
1.4666666666666668
 20
2.8471773904753506
 10
1.3958333333333335
 20
2.83412304143473
 10
1.325
 20
2.819405528612597
 10
1.2541666666666667
 20
2.802839896931568
 10
1.1833333333333333
 20
2.784215481313594
 10
1.1125
 20
2.76329009372623
 10
1.0416666666666667
 20
2.7397824079124473
 10
0.9708333333333333
 20
2.7133618239838704
 10
0.9
 20
2.683634731948139
  0
LWPOLYLINE
  5
A0
330
17
100
AcDbEntity
  8
ESQUADRIAS
100
AcDbPolyline
 90
2
 70
0
 10
0.9
 20
-2.683634731948139
 10
0.9
 20
2.683634731948139
  0
LWPOLYLINE
  5
A1
330
17
100
AcDbEntity
  8
DECK
100
AcDbPolyline
 90
4
 70
1
 10
-3.7
 20
-3.25
 10
0.9
 20
-3.25
 10
0.9
 20
3.25
 10
-3.7
 20
3.25
  0
LWPOLYLINE
  5
A2
330
17
100
AcDbEntity
  8
DECK
100
AcDbPolyline
 90
2
 70
0
 10
-4.0
 20
-3.25
 10
-4.0
 20
3.25
  0
LWPOLYLINE
  5
A3
330
17
100
AcDbEntity
  8
DECK
100
AcDbPolyline
 90
2
 70
0
 10
-4.3
 20
-3.25
 10
-4.3
 20
3.25
  0
LWPOLYLINE
  5
A4
330
17
100
AcDbEntity
  8
DECK
100
AcDbPolyline
 90
2
 70
0
 10
-4.6
 20
-3.25
 10
-4.6
 20
3.25
  0
LWPOLYLINE
  5
A5
330
17
100
AcDbEntity
  8
ESQUADRIAS
100
AcDbPolyline
 90
48
 70
1
 10
2.692397413130791
 20
2.936279542243237
 10
2.675810657323996
 20
2.9257779126886834
 10
2.648119428243478
 20
2.9153537598429344
 10
2.6150045248510145
 20
2.905218374205941
 10
2.5783689659072175
 20
2.895405155276955
 10
2.5389471722920276
 20
2.8858817581259095
 10
2.496873230231147
 20
2.8765940749814303
 10
2.451918500702434
 20
2.8674922925575985
 10
2.4036121807055975
 20
2.858554119687656
 10
2.3513243705060844
 20
2.8498173899143255
 10
2.294374175261881
 20
2.841441608345492
 10
2.2322701508671687
 20
2.8338531106095437
 10
2.165475063164307
 20
2.828391642712894
 10
2.0997473934523385
 20
2.829937061094577
 10
2.0394731006456586
 20
2.8338262436992006
 10
1.9847269710705358
 20
2.83869829170987
 10
1.9348873039090935
 20
2.8440798998782446
 10
1.889222764444616
 20
2.8497660153818254
 10
1.8470941494040574
 20
2.8556813322499783
 10
1.808046398675327
 20
2.861822734930155
 10
1.7718836264005062
 20
2.8682331542855644
 10
1.7387843467975939
 20
2.8749916040546584
 10
1.7095323413402261
 20
2.8822151083157346
 10
1.6860698931254976
 20
2.8900796403658986
 10
1.674060096572568
 20
2.898976183046251
 10
1.6932439969441588
 20
2.9099439416612194
 10
1.7230762770287997
 20
2.920488159057274
 10
1.7578210083545158
 20
2.930144149655191
 10
1.7955952767227517
 20
2.9388987807885147
 10
1.8356973747554102
 20
2.9468415782818207
 10
1.8780175496698766
 20
2.9540803594372558
 10
1.922792946402905
 20
2.960709859419854
 10
1.9704850931735232
 20
2.966797515145725
 10
2.0216983153163217
 20
2.972372886761232
 10
2.0770784131580764
 20
2.977411928017604
 10
2.1370919786592246
 20
2.9817998962035603
 10
2.201320192939169
 20
2.9851472163860318
 10
2.264427614785856
 20
2.9859260925765425
 10
2.3225290954303444
 20
2.985413151658075
 10
2.375616601606099
 20
2.984015584445829
 10
2.424294876286855
 20
2.98189627498228
 10
2.4692637680744056
 20
2.979126235824739
 10
2.511138790452895
 20
2.9757136985172408
 10
2.550367033476775
 20
2.9716153453711462
 10
2.587154228016103
 20
2.966740227522322
 10
2.62134793031712
 20
2.9609507765673686
 10
2.6521993570075235
 20
2.954066860075488
 10
2.6777887987469042
 20
2.9458875778927487
  0
LWPOLYLINE
  5
A6
330
17
100
AcDbEntity
  8
ESQUADRIAS
100
AcDbPolyline
 90
48
 70
1
 10
5.12
 20
2.916465245912755
 10
5.105604044216546
 20
2.906660290504205
 10
5.081014086485988
 20
2.8973640721018117
 10
5.051490115192803
 20
2.888552663422874
 10
5.0187959180078865
 20
2.8801831846755546
 10
4.983615711009546
 20
2.872197356948969
 10
4.946081446725295
 20
2.8645414147462853
 10
4.905992338671414
 20
2.8571827924880107
 10
4.862924422537889
 20
2.8501298414174068
 10
4.816302650871595
 20
2.8434637183467086
 10
4.765489876400359
 20
2.837399889926802
 10
4.709981410332027
 20
2.8324298380151127
 10
4.65
 20
2.829944360079652
 10
4.590018589667974
 20
2.834671165326938
 10
4.534510123599642
 20
2.84173422048652
 10
4.483697349128406
 20
2.8497410072679314
 10
4.437075577462112
 20
2.858220806963403
 10
4.394007661328587
 20
2.866982040061196
 10
4.353918553274705
 20
2.875964574994587
 10
4.316384288990456
 20
2.885175251679628
 10
4.281204081992114
 20
2.8946529538818053
 10
4.248509884807198
 20
2.9044436444117316
 10
4.218985913514013
 20
2.9145729273604815
 10
4.194395955783455
 20
2.9250007362740127
 10
4.180000000000001
 20
2.9355068518112604
 10
4.194395955783455
 20
2.945105059733773
 10
4.218985913514013
 20
2.953275658886988
 10
4.248509884807198
 20
2.9601611847053038
 10
4.281204081992114
 20
2.965969493887991
 10
4.316384288990455
 20
2.9708878500773896
 10
4.353918553274705
 20
2.9750625076695787
 10
4.394007661328587
 20
2.978596118759429
 10
4.437075577462112
 20
2.9815485803334325
 10
4.483697349128406
 20
2.983935604932746
 10
4.534510123599642
 20
2.985720590013167
 10
4.590018589667974
 20
2.9867880465418617
 10
4.65
 20
2.9867859887028554
 10
4.709981410332027
 20
2.984426442943804
 10
4.765489876400359
 20
2.9811666454877503
 10
4.816302650871595
 20
2.977362717829421
 10
4.862924422537889
 20
2.973108502233652
 10
4.905992338671414
 20
2.9684153780430944
 10
4.946081446725295
 20
2.9632457363263898
 10
4.983615711009545
 20
2.957524408895627
 10
5.018795918007886
 20
2.9511432281030765
 10
5.051490115192803
 20
2.9439653582858063
 10
5.081014086485988
 20
2.9358382865448367
 10
5.105604044216546
 20
2.926638555105388
  0
LWPOLYLINE
  5
A7
330
17
100
AcDbEntity
  8
ESQUADRIAS
100
AcDbPolyline
 90
48
 70
1
 10
8.6
 20
1.964670074124483
 10
8.587748122737485
 20
1.9559515318507967
 10
8.56682049913701
 20
1.9523600184762715
 10
8.541693715057704
 20
1.9514600020049402
 10
8.51386886638969
 20
1.9523046207387404
 10
8.483928264688974
 20
1.954415756104333
 10
8.451984209978974
 20
1.9575659157170306
 10
8.417865820145883
 20
1.9616899994503771
 10
8.38121227450033
 20
1.9668517343387322
 10
8.341534170954548
 20
1.9732456474369169
 10
8.298289256510943
 20
1.9812374200010248
 10
8.251048008793214
 20
1.9914838895205582
 10
8.2
 20
2.0055796935592216
 10
8.148951991206784
 20
2.028366466572458
 10
8.101710743489056
 20
2.05260712373028
 10
8.058465829045451
 20
2.076655523529064
 10
8.018787725499669
 20
2.1001797022518627
 10
7.982134179854116
 20
2.1232013972360164
 10
7.948015790021024
 20
2.1458758856321665
 10
7.916071735311025
 20
2.168401972202507
 10
7.886131133610309
 20
2.1909714303352046
 10
7.858306284942294
 20
2.213720294466027
 10
7.833179500862989
 20
2.2366476466484033
 10
7.812251877262514
 20
2.259428352692121
 10
7.799999999999999
 20
2.2806496734263826
 10
7.812251877262514
 20
2.2943540823472977
 10
7.833179500862989
 20
2.3037082729255216
 10
7.858306284942294
 20
2.3099564184814447
 10
7.886131133610309
 20
2.313708902637575
 10
7.916071735311025
 20
2.3153335152869507
 10
7.948015790021024
 20
2.315020130540243
 10
7.982134179854115
 20
2.3128067790759053
 10
8.018787725499669
 20
2.308586344534484
 10
8.058465829045451
 20
2.3020971617301798
 10
8.101710743489056
 20
2.2928974586468804
 10
8.148951991206784
 20
2.2803140787608154
 10
8.2
 20
2.263140748775018
 10
8.251048008793214
 20
2.238850240199854
 10
8.298289256510943
 20
2.213172795113708
 10
8.341534170954548
 20
2.187461113743731
 10
8.38121227450033
 20
2.1620278734956697
 10
8.417865820145883
 20
2.1368721474470207
 10
8.451984209978974
 20
2.111867015276757
 10
8.483928264688974
 20
2.0868475314643584
 10
8.51386886638969
 20
2.061672059764201
 10
8.541693715057704
 20
2.0362949954923963
 10
8.566820499137009
 20
2.0108969479535723
 10
8.587748122737485
 20
1.9861861858236276
  0
LWPOLYLINE
  5
A8
330
17
100
AcDbEntity
  8
ESQUADRIAS
100
AcDbPolyline
 90
48
 70
1
 10
3.92
 20
-2.9368754523282563
 10
3.9056040442165454
 20
-2.9466349677337074
 10
3.8810140864859877
 20
-2.955082006510745
 10
3.851490115192803
 20
-2.962306188367944
 10
3.818795918007886
 20
-2.968500040547178
 10
3.783615711009545
 20
-2.973847619371157
 10
3.746081446725295
 20
-2.97849901819735
 10
3.7059923386714138
 20
-2.9825661361372138
 10
3.662924422537888
 20
-2.9861232839067933
 10
3.6163026508715954
 20
-2.989206181118563
 10
3.5654898764003584
 20
-2.991804198888311
 10
3.509981410332027
 20
-2.993832255898295
 10
3.45
 20
-2.9949620156197563
 10
3.3900185896679735
 20
-2.993837807790583
 10
3.334510123599642
 20
-2.9918229984313616
 10
3.283697349128405
 20
-2.989247332180306
 10
3.2370755774621123
 20
-2.986195023234274
 10
3.1940076613285866
 20
-2.9826752507688856
 10
3.153918553274705
 20
-2.978650775332609
 10
3.116384288990455
 20
-2.974045802746001
 10
3.0812040819921145
 20
-2.968746875999851
 10
3.048397121332538
 20
-2.962602008391298
 10
3.016562921165496
 20
-2.955424462531279
 10
2.989903350965398
 20
-2.947017324601385
 10
2.9741428042171347
 20
-2.937280877249648
 10
2.9895837185025105
 20
-2.926899947348752
 10
3.0162196749252232
 20
-2.9166935708937114
 10
3.0483733760240943
 20
-2.906838525771079
 10
3.081204081992114
 20
-2.897363554024768
 10
3.116384288990455
 20
-2.888242094773424
 10
3.1539185532747047
 20
-2.8794333191496655
 10
3.1940076613285866
 20
-2.870908318664896
 10
3.237075577462112
 20
-2.862675055961776
 10
3.283697349128405
 20
-2.8548138536563625
 10
3.334510123599642
 20
-2.8475423402708606
 10
3.3900185896679735
 20
-2.8413618827875644
 10
3.45
 20
-2.8376910487774225
 10
3.5099814103320264
 20
-2.8413566136527155
 10
3.5654898764003584
 20
-2.847524447335736
 10
3.616302650871595
 20
-2.8547745532545883
 10
3.662924422537888
 20
-2.862606284035725
 10
3.7059923386714133
 20
-2.8708032927812788
 10
3.746081446725295
 20
-2.8792866169731965
 10
3.783615711009545
 20
-2.888049629154643
 10
3.818795918007886
 20
-2.897122653714203
 10
3.851490115192803
 20
-2.9065482738107606
 10
3.8810140864859877
 20
-2.91635560276559
 10
3.9056040442165454
 20
-2.9265202005835964
  0
LWPOLYLINE
  5
A9
330
17
100
AcDbEntity
  8
ESQUADRIAS
100
AcDbPolyline
 90
48
 70
1
 10
6.319999999999999
 20
-2.8317319785984543
 10
6.305604044216545
 20
-2.842716448697018
 10
6.281014086485987
 20
-2.853526928976284
 10
6.251490115192802
 20
-2.8636470428234406
 10
6.218795918007886
 20
-2.8730491653878154
 10
6.183615711009545
 20
-2.8818188038231494
 10
6.146081446725295
 20
-2.8900683994956293
 10
6.105992338671413
 20
-2.8979059560344065
 10
6.062924422537888
 20
-2.905420768997181
 10
6.016302650871594
 20
-2.912671993318377
 10
5.965489876400358
 20
-2.9196697736906247
 10
5.909981410332026
 20
-2.9263289224957094
 10
5.85
 20
-2.9322574039456697
 10
5.790018589667973
 20
-2.935738068255298
 10
5.734510123599641
 20
-2.9377880838466153
 10
5.683697349128405
 20
-2.9387688285406592
 10
5.637075577462111
 20
-2.9388459849540487
 10
5.594007661328586
 20
-2.938108472897946
 10
5.553918553274705
 20
-2.936584908804887
 10
5.516384288990455
 20
-2.934248587873964
 10
5.4812040819921135
 20
-2.9310170972045793
 10
5.448509884807197
 20
-2.9267482656832486
 10
5.418985913514012
 20
-2.9212351860671673
 10
5.394395955783454
 20
-2.9142066560990223
 10
5.38
 20
-2.9053146754265855
 10
5.394395955783454
 20
-2.894313256014987
 10
5.418985913514012
 20
-2.882952345523
 10
5.448509884807197
 20
-2.8716596390013938
 10
5.4812040819921135
 20
-2.860540985261299
 10
5.516384288990454
 20
-2.8495930628244106
 10
5.553918553274705
 20
-2.8387686468483957
 10
5.594007661328586
 20
-2.8280115489636724
 10
5.637075577462111
 20
-2.8172845473868287
 10
5.683697349128405
 20
-2.806605486971228
 10
5.734510123599641
 20
-2.796113259334703
 10
5.790018589667973
 20
-2.7862211584350742
 10
5.85
 20
-2.778279171652898
 10
5.909981410332026
 20
-2.7772912197318758
 10
5.965489876400358
 20
-2.77886870465002
 10
6.016302650871594
 20
-2.7816822877674947
 10
6.062924422537888
 20
-2.7852419208284918
 10
6.105992338671413
 20
-2.789315502498323
 10
6.146081446725295
 20
-2.7938015805830805
 10
6.183615711009544
 20
-2.7986759218793633
 10
6.218795918007885
 20
-2.803966888525107
 10
6.251490115192802
 20
-2.8097461369134917
 10
6.281014086485987
 20
-2.816131406379708
 10
6.305604044216545
 20
-2.8233110659246456
  0
LWPOLYLINE
  5
AA
330
17
100
AcDbEntity
  8
ESQUADRIAS
100
AcDbPolyline
 90
48
 70
1
 10
8.6
 20
-2.103001515213474
 10
8.587748122737485
 20
-2.120663146698603
 10
8.56682049913701
 20
-2.142087536437938
 10
8.541693715057704
 20
-2.1646035340256566
 10
8.51386886638969
 20
-2.1874106298377662
 10
8.483928264688974
 20
-2.2102626628277275
 10
8.451984209978974
 20
-2.23315994895209
 10
8.417865820145883
 20
-2.256217382362188
 10
8.38121227450033
 20
-2.2795935467631003
 10
8.341534170954548
 20
-2.3034363052567466
 10
8.298289256510943
 20
-2.3278114273155195
 10
8.251048008793214
 20
-2.352556397721704
 10
8.2
 20
-2.3767466955717382
 10
8.148951991206784
 20
-2.396126091187213
 10
8.101710743489056
 20
-2.4116656944658934
 10
8.058465829045451
 20
-2.4241501470544735
 10
8.018787725499669
 20
-2.4341215012354773
 10
7.982134179854116
 20
-2.4419780393649115
 10
7.948015790021024
 20
-2.4479809567283826
 10
7.916071735311025
 20
-2.45226119477997
 10
7.886131133610309
 20
-2.4548188563793936
 10
7.858306284942294
 20
-2.45550857707682
 10
7.833179500862989
 20
-2.454001824431962
 10
7.812251877262514
 20
-2.4496958959030164
 10
7.799999999999999
 20
-2.441229080676121
 10
7.812251877262514
 20
-2.424716091620147
 10
7.833179500862989
 20
-2.4060382933610875
 10
7.858306284942294
 20
-2.386677959461056
 10
7.886131133610309
 20
-2.3670337745340726
 10
7.916071735311025
 20
-2.347171874514752
 10
7.948015790021024
 20
-2.3270045254528484
 10
7.982134179854115
 20
-2.3063672625507756
 10
8.018787725499669
 20
-2.285063566387204
 10
8.058465829045451
 20
-2.262908333209119
 10
8.101710743489056
 20
-2.239803700556426
 10
8.148951991206784
 20
-2.215926504689285
 10
8.2
 20
-2.1925322263623275
 10
8.251048008793214
 20
-2.175633450452071
 10
8.298289256510943
 20
-2.1619251213230593
 10
8.341534170954548
 20
-2.1502237460478497
 10
8.38121227450033
 20
-2.139998417184938
 10
8.417865820145883
 20
-2.130922483328917
 10
8.451984209978974
 20
-2.1227997272562744
 10
8.483928264688974
 20
-2.115543959396547
 10
8.51386886638969
 20
-2.1091881489118838
 10
8.541693715057704
 20
-2.1039273060820265
 10
8.566820499137009
 20
-2.1002203784401017
 10
8.587748122737485
 20
-2.0990385236410964
  0
LWPOLYLINE
  5
AB
330
17
100
AcDbEntity
  8
ESQUADRIAS
100
AcDbPolyline
 90
4
 70
1
 10
1.6346153846153846
 20
-0.36225
 10
6.6
 20
-0.36225
 10
6.6
 20
0.36225
 10
1.6346153846153846
 20
0.36225
  0
LWPOLYLINE
  5
AC
330
17
100
AcDbEntity
  8
EIXOS
100
AcDbPolyline
 90
2
 70
0
 10
0.45
 20
-3.9
 10
0.45
 20
3.9
  0
CIRCLE
  5
AD
330
17
100
AcDbEntity
  8
EIXOS
100
AcDbCircle
 10
0.45
 20
4.15
 30
0.0
 40
0.2
  0
TEXT
  5
AE
330
17
100
AcDbEntity
  8
TEXTO
100
AcDbText
 10
0.45
 20
4.15
 30
0.0
 40
0.15
  1
A0
  7
ZION
 72
1
 11
0.45
 21
4.15
 31
0.0
100
AcDbText
 73
2
  0
LWPOLYLINE
  5
AF
330
17
100
AcDbEntity
  8
EIXOS
100
AcDbPolyline
 90
2
 70
0
 10
1.65
 20
-3.9
 10
1.65
 20
3.9
  0
CIRCLE
  5
B0
330
17
100
AcDbEntity
  8
EIXOS
100
AcDbCircle
 10
1.65
 20
4.15
 30
0.0
 40
0.2
  0
TEXT
  5
B1
330
17
100
AcDbEntity
  8
TEXTO
100
AcDbText
 10
1.65
 20
4.15
 30
0.0
 40
0.15
  1
A1
  7
ZION
 72
1
 11
1.65
 21
4.15
 31
0.0
100
AcDbText
 73
2
  0
LWPOLYLINE
  5
B2
330
17
100
AcDbEntity
  8
EIXOS
100
AcDbPolyline
 90
2
 70
0
 10
2.85
 20
-3.9
 10
2.85
 20
3.9
  0
CIRCLE
  5
B3
330
17
100
AcDbEntity
  8
EIXOS
100
AcDbCircle
 10
2.85
 20
4.15
 30
0.0
 40
0.2
  0
TEXT
  5
B4
330
17
100
AcDbEntity
  8
TEXTO
100
AcDbText
 10
2.85
 20
4.15
 30
0.0
 40
0.15
  1
A2
  7
ZION
 72
1
 11
2.85
 21
4.15
 31
0.0
100
AcDbText
 73
2
  0
LWPOLYLINE
  5
B5
330
17
100
AcDbEntity
  8
EIXOS
100
AcDbPolyline
 90
2
 70
0
 10
4.05
 20
-3.9
 10
4.05
 20
3.9
  0
CIRCLE
  5
B6
330
17
100
AcDbEntity
  8
EIXOS
100
AcDbCircle
 10
4.05
 20
4.15
 30
0.0
 40
0.2
  0
TEXT
  5
B7
330
17
100
AcDbEntity
  8
TEXTO
100
AcDbText
 10
4.05
 20
4.15
 30
0.0
 40
0.15
  1
A3
  7
ZION
 72
1
 11
4.05
 21
4.15
 31
0.0
100
AcDbText
 73
2
  0
LWPOLYLINE
  5
B8
330
17
100
AcDbEntity
  8
EIXOS
100
AcDbPolyline
 90
2
 70
0
 10
5.25
 20
-3.9
 10
5.25
 20
3.9
  0
CIRCLE
  5
B9
330
17
100
AcDbEntity
  8
EIXOS
100
AcDbCircle
 10
5.25
 20
4.15
 30
0.0
 40
0.2
  0
TEXT
  5
BA
330
17
100
AcDbEntity
  8
TEXTO
100
AcDbText
 10
5.25
 20
4.15
 30
0.0
 40
0.15
  1
A4
  7
ZION
 72
1
 11
5.25
 21
4.15
 31
0.0
100
AcDbText
 73
2
  0
LWPOLYLINE
  5
BB
330
17
100
AcDbEntity
  8
EIXOS
100
AcDbPolyline
 90
2
 70
0
 10
6.45
 20
-3.9
 10
6.45
 20
3.9
  0
CIRCLE
  5
BC
330
17
100
AcDbEntity
  8
EIXOS
100
AcDbCircle
 10
6.45
 20
4.15
 30
0.0
 40
0.2
  0
TEXT
  5
BD
330
17
100
AcDbEntity
  8
TEXTO
100
AcDbText
 10
6.45
 20
4.15
 30
0.0
 40
0.15
  1
A5
  7
ZION
 72
1
 11
6.45
 21
4.15
 31
0.0
100
AcDbText
 73
2
  0
LWPOLYLINE
  5
BE
330
17
100
AcDbEntity
  8
EIXOS
100
AcDbPolyline
 90
2
 70
0
 10
7.65
 20
-3.9
 10
7.65
 20
3.9
  0
CIRCLE
  5
BF
330
17
100
AcDbEntity
  8
EIXOS
100
AcDbCircle
 10
7.65
 20
4.15
 30
0.0
 40
0.2
  0
TEXT
  5
C0
330
17
100
AcDbEntity
  8
TEXTO
100
AcDbText
 10
7.65
 20
4.15
 30
0.0
 40
0.15
  1
A6
  7
ZION
 72
1
 11
7.65
 21
4.15
 31
0.0
100
AcDbText
 73
2
  0
LWPOLYLINE
  5
C1
330
17
100
AcDbEntity
  8
EIXOS
100
AcDbPolyline
 90
2
 70
0
 10
8.75
 20
-3.9
 10
8.75
 20
3.9
  0
CIRCLE
  5
C2
330
17
100
AcDbEntity
  8
EIXOS
100
AcDbCircle
 10
8.75
 20
4.15
 30
0.0
 40
0.2
  0
TEXT
  5
C3
330
17
100
AcDbEntity
  8
TEXTO
100
AcDbText
 10
8.75
 20
4.15
 30
0.0
 40
0.15
  1
A7
  7
ZION
 72
1
 11
8.75
 21
4.15
 31
0.0
100
AcDbText
 73
2
  0
DIMENSION
  5
C4
330
17
100
AcDbEntity
  8
COTAS
100
AcDbDimension
280
0
  2
*D1
  3
ZION_M
 10
0.45
 20
-4.1
 30
0.0
 11
5.025
 21
-4.01
 31
0.0
 70
32
 71
5
  1
9,60
100
AcDbAlignedDimension
 13
0.45
 23
-3.6
 33
0.0
 14
9.6
 24
-3.6
 34
0.0
 50
0.0
100
AcDbRotatedDimension
  0
DIMENSION
  5
D3
330
17
100
AcDbEntity
  8
COTAS
100
AcDbDimension
280
0
  2
*D2
  3
ZION_M
 10
-3.7
 20
-4.1
 30
0.0
 11
-1.4
 21
-4.01
 31
0.0
 70
32
 71
5
  1
4,60
100
AcDbAlignedDimension
 13
-3.7
 23
-3.6
 33
0.0
 14
0.9
 24
-3.6
 34
0.0
 50
0.0
100
AcDbRotatedDimension
  0
DIMENSION
  5
E2
330
17
100
AcDbEntity
  8
COTAS
100
AcDbDimension
280
0
  2
*D3
  3
ZION_M
 10
10.799999999999999
 20
-3.0
 30
0.0
 11
10.709999999999999
 21
0.0
 31
0.0
 70
32
 71
5
  1
6,00
100
AcDbAlignedDimension
 13
10.2
 23
-3.0
 33
0.0
 14
10.2
 24
3.0
 34
0.0
 50
90.0
100
AcDbRotatedDimension
  0
DIMENSION
  5
F1
330
17
100
AcDbEntity
  8
COTAS
100
AcDbDimension
280
0
  2
*D4
  3
ZION_M
 10
0.45
 20
4.1
 30
0.0
 11
1.05
 21
4.1899999999999995
 31
0.0
 70
32
 71
5
  1
<>
100
AcDbAlignedDimension
 13
0.45
 23
3.6
 33
0.0
 14
1.65
 24
3.6
 34
0.0
 50
0.0
100
AcDbRotatedDimension
  0
DIMENSION
  5
100
330
17
100
AcDbEntity
  8
COTAS
100
AcDbDimension
280
0
  2
*D5
  3
ZION_M
 10
1.65
 20
4.1
 30
0.0
 11
2.25
 21
4.1899999999999995
 31
0.0
 70
32
 71
5
  1
<>
100
AcDbAlignedDimension
 13
1.65
 23
3.6
 33
0.0
 14
2.85
 24
3.6
 34
0.0
 50
0.0
100
AcDbRotatedDimension
  0
DIMENSION
  5
10F
330
17
100
AcDbEntity
  8
COTAS
100
AcDbDimension
280
0
  2
*D6
  3
ZION_M
 10
2.85
 20
4.1
 30
0.0
 11
3.45
 21
4.1899999999999995
 31
0.0
 70
32
 71
5
  1
<>
100
AcDbAlignedDimension
 13
2.85
 23
3.6
 33
0.0
 14
4.05
 24
3.6
 34
0.0
 50
0.0
100
AcDbRotatedDimension
  0
DIMENSION
  5
11E
330
17
100
AcDbEntity
  8
COTAS
100
AcDbDimension
280
0
  2
*D7
  3
ZION_M
 10
4.05
 20
4.1
 30
0.0
 11
4.65
 21
4.1899999999999995
 31
0.0
 70
32
 71
5
  1
<>
100
AcDbAlignedDimension
 13
4.05
 23
3.6
 33
0.0
 14
5.25
 24
3.6
 34
0.0
 50
0.0
100
AcDbRotatedDimension
  0
DIMENSION
  5
12D
330
17
100
AcDbEntity
  8
COTAS
100
AcDbDimension
280
0
  2
*D8
  3
ZION_M
 10
5.25
 20
4.1
 30
0.0
 11
5.85
 21
4.1899999999999995
 31
0.0
 70
32
 71
5
  1
<>
100
AcDbAlignedDimension
 13
5.25
 23
3.6
 33
0.0
 14
6.45
 24
3.6
 34
0.0
 50
0.0
100
AcDbRotatedDimension
  0
DIMENSION
  5
13C
330
17
100
AcDbEntity
  8
COTAS
100
AcDbDimension
280
0
  2
*D9
  3
ZION_M
 10
6.45
 20
4.1
 30
0.0
 11
7.050000000000001
 21
4.1899999999999995
 31
0.0
 70
32
 71
5
  1
<>
100
AcDbAlignedDimension
 13
6.45
 23
3.6
 33
0.0
 14
7.65
 24
3.6
 34
0.0
 50
0.0
100
AcDbRotatedDimension
  0
DIMENSION
  5
14B
330
17
100
AcDbEntity
  8
COTAS
100
AcDbDimension
280
0
  2
*D10
  3
ZION_M
 10
7.65
 20
4.1
 30
0.0
 11
8.2
 21
4.1899999999999995
 31
0.0
 70
32
 71
5
  1
<>
100
AcDbAlignedDimension
 13
7.65
 23
3.6
 33
0.0
 14
8.75
 24
3.6
 34
0.0
 50
0.0
100
AcDbRotatedDimension
  0
HATCH
  5
15A
330
17
100
AcDbEntity
  8
TEXTO
 62
7
100
AcDbHatch
 10
0.0
 20
0.0
 30
0.0
210
0.0
220
0.0
230
1.0
  2
SOLID
 70
1
 71
0
 91
1
 92
3
 72
0
 73
1
 93
6
 10
-4.65
 20
5.95
 10
-3.95
 20
5.95
 10
-3.95
 20
5.8625
 10
-3.9962000000000004
 20
5.8625
 10
-4.1313
 20
5.7715
 10
-4.65
 20
5.7715
 97
0
 75
0
 76
1
 98
0
  0
LWPOLYLINE
  5
15B
330
17
100
AcDbEntity
  8
TEXTO
100
AcDbPolyline
 90
6
 70
1
 10
-4.65
 20
5.95
 10
-3.95
 20
5.95
 10
-3.95
 20
5.8625
 10
-3.9962000000000004
 20
5.8625
 10
-4.1313
 20
5.7715
 10
-4.65
 20
5.7715
  0
HATCH
  5
15C
330
17
100
AcDbEntity
  8
TEXTO
 62
7
100
AcDbHatch
 10
0.0
 20
0.0
 30
0.0
210
0.0
220
0.0
230
1.0
  2
SOLID
 70
1
 71
0
 91
1
 92
3
 72
0
 73
1
 93
6
 10
-4.1313
 20
5.7715
 10
-3.95
 20
5.7715
 10
-3.95
 20
5.5111
 10
-4.304200000000001
 20
5.5111
 10
-4.4316
 20
5.425
 10
-4.65
 20
5.425
 97
0
 75
0
 76
1
 98
0
  0
LWPOLYLINE
  5
15D
330
17
100
AcDbEntity
  8
TEXTO
100
AcDbPolyline
 90
6
 70
1
 10
-4.1313
 20
5.7715
 10
-3.95
 20
5.7715
 10
-3.95
 20
5.5111
 10
-4.304200000000001
 20
5.5111
 10
-4.4316
 20
5.425
 10
-4.65
 20
5.425
  0
HATCH
  5
15E
330
17
100
AcDbEntity
  8
TEXTO
 62
7
100
AcDbHatch
 10
0.0
 20
0.0
 30
0.0
210
0.0
220
0.0
230
1.0
  2
SOLID
 70
1
 71
0
 91
1
 92
3
 72
0
 73
1
 93
5
 10
-4.65
 20
5.3361
 10
-4.128500000000001
 20
5.3361
 10
-3.95
 20
5.4677
 10
-3.95
 20
5.25
 10
-4.65
 20
5.25
 97
0
 75
0
 76
1
 98
0
  0
LWPOLYLINE
  5
15F
330
17
100
AcDbEntity
  8
TEXTO
100
AcDbPolyline
 90
5
 70
1
 10
-4.65
 20
5.3361
 10
-4.128500000000001
 20
5.3361
 10
-3.95
 20
5.4677
 10
-3.95
 20
5.25
 10
-4.65
 20
5.25
  0
HATCH
  5
160
330
17
100
AcDbEntity
  8
TEXTO
 62
7
100
AcDbHatch
 10
0.0
 20
0.0
 30
0.0
210
0.0
220
0.0
230
1.0
  2
SOLID
 70
1
 71
0
 91
1
 92
3
 72
0
 73
1
 93
10
 10
-6.203125000000001
 20
5.55
 10
-5.950000000000001
 20
5.55
 10
-5.950000000000001
 20
5.503125
 10
-6.24375
 20
5.296875
 10
-5.953125000000001
 20
5.296875
 10
-5.953125000000001
 20
5.253125
 10
-6.300000000000001
 20
5.253125
 10
-6.300000000000001
 20
5.30625
 10
-6.018750000000001
 20
5.503125
 10
-6.203125000000001
 20
5.503125
 97
0
 75
0
 76
1
 98
0
  0
LWPOLYLINE
  5
161
330
17
100
AcDbEntity
  8
TEXTO
100
AcDbPolyline
 90
10
 70
1
 10
-6.203125000000001
 20
5.55
 10
-5.950000000000001
 20
5.55
 10
-5.950000000000001
 20
5.503125
 10
-6.24375
 20
5.296875
 10
-5.953125000000001
 20
5.296875
 10
-5.953125000000001
 20
5.253125
 10
-6.300000000000001
 20
5.253125
 10
-6.300000000000001
 20
5.30625
 10
-6.018750000000001
 20
5.503125
 10
-6.203125000000001
 20
5.503125
  0
HATCH
  5
162
330
17
100
AcDbEntity
  8
TEXTO
 62
7
100
AcDbHatch
 10
0.0
 20
0.0
 30
0.0
210
0.0
220
0.0
230
1.0
  2
SOLID
 70
1
 71
0
 91
1
 92
3
 72
0
 73
1
 93
4
 10
-5.9
 20
5.55
 10
-5.853125
 20
5.55
 10
-5.853125
 20
5.253125
 10
-5.9
 20
5.253125
 97
0
 75
0
 76
1
 98
0
  0
LWPOLYLINE
  5
163
330
17
100
AcDbEntity
  8
TEXTO
100
AcDbPolyline
 90
4
 70
1
 10
-5.9
 20
5.55
 10
-5.853125
 20
5.55
 10
-5.853125
 20
5.253125
 10
-5.9
 20
5.253125
  0
HATCH
  5
164
330
17
100
AcDbEntity
  8
TEXTO
 62
7
100
AcDbHatch
 10
0.0
 20
0.0
 30
0.0
210
0.0
220
0.0
230
1.0
  2
SOLID
 70
1
 71
0
 91
1
 92
3
 72
0
 73
1
 93
4
 10
-5.471875000000001
 20
5.55
 10
-5.4281250000000005
 20
5.55
 10
-5.4281250000000005
 20
5.253125
 10
-5.471875000000001
 20
5.253125
 97
0
 75
0
 76
1
 98
0
  0
LWPOLYLINE
  5
165
330
17
100
AcDbEntity
  8
TEXTO
100
AcDbPolyline
 90
4
 70
1
 10
-5.471875000000001
 20
5.55
 10
-5.4281250000000005
 20
5.55
 10
-5.4281250000000005
 20
5.253125
 10
-5.471875000000001
 20
5.253125
  0
HATCH
  5
166
330
17
100
AcDbEntity
  8
TEXTO
 62
7
100
AcDbHatch
 10
0.0
 20
0.0
 30
0.0
210
0.0
220
0.0
230
1.0
  2
SOLID
 70
1
 71
0
 91
1
 92
3
 72
0
 73
1
 93
4
 10
-5.4593750000000005
 20
5.55
 10
-5.393750000000001
 20
5.55
 10
-5.106250000000001
 20
5.253125
 10
-5.1781250000000005
 20
5.253125
 97
0
 75
0
 76
1
 98
0
  0
LWPOLYLINE
  5
167
330
17
100
AcDbEntity
  8
TEXTO
100
AcDbPolyline
 90
4
 70
1
 10
-5.4593750000000005
 20
5.55
 10
-5.393750000000001
 20
5.55
 10
-5.106250000000001
 20
5.253125
 10
-5.1781250000000005
 20
5.253125
  0
HATCH
  5
168
330
17
100
AcDbEntity
  8
TEXTO
 62
7
100
AcDbHatch
 10
0.0
 20
0.0
 30
0.0
210
0.0
220
0.0
230
1.0
  2
SOLID
 70
1
 71
0
 91
1
 92
3
 72
0
 73
1
 93
4
 10
-5.143750000000001
 20
5.465625
 10
-5.096875000000001
 20
5.465625
 10
-5.096875000000001
 20
5.253125
 10
-5.143750000000001
 20
5.253125
 97
0
 75
0
 76
1
 98
0
  0
LWPOLYLINE
  5
169
330
17
100
AcDbEntity
  8
TEXTO
100
AcDbPolyline
 90
4
 70
1
 10
-5.143750000000001
 20
5.465625
 10
-5.096875000000001
 20
5.465625
 10
-5.096875000000001
 20
5.253125
 10
-5.143750000000001
 20
5.253125
  0
HATCH
  5
16A
330
17
100
AcDbEntity
  8
TEXTO
 62
7
100
AcDbHatch
 10
0.0
 20
0.0
 30
0.0
210
0.0
220
0.0
230
1.0
  2
SOLID
 70
1
 71
0
 91
2
 92
1
 93
1
 72
2
 10
-5.6625000000000005
 20
5.4015625
 40
0.1484375
 50
0
 51
360
 73
1
 97
0
 92
1
 93
1
 72
2
 10
-5.6625000000000005
 20
5.4015625
 40
0.09999999999999999
 50
0
 51
360
 73
1
 97
0
 75
0
 76
1
 98
0
  0
CIRCLE
  5
16B
330
17
100
AcDbEntity
  8
TEXTO
100
AcDbCircle
 10
-5.6625000000000005
 20
5.4015625
 30
0.0
 40
0.1484375
  0
CIRCLE
  5
16C
330
17
100
AcDbEntity
  8
TEXTO
100
AcDbCircle
 10
-5.6625000000000005
 20
5.4015625
 30
0.0
 40
0.09999999999999999
  0
TEXT
  5
16D
330
17
100
AcDbEntity
  8
TEXTO
100
AcDbText
 10
-5.2
 20
5.3999999999999995
 30
0.0
 40
0.09
  1
HOTEL GROUP
  7
ZION
 11
-5.2
 21
5.3999999999999995
 31
0.0
100
AcDbText
 73
2
  0
TEXT
  5
16E
330
17
100
AcDbEntity
  8
TEXTO
100
AcDbText
 10
-5.2
 20
5.279999999999999
 30
0.0
 40
0.09
  1
INTERNATIONAL
  7
ZION
 11
-5.2
 21
5.279999999999999
 31
0.0
100
AcDbText
 73
2
  0
TEXT
  5
16F
330
17
100
AcDbEntity
  8
TEXTO
100
AcDbText
 10
-3.7
 20
5.6
 30
0.0
 40
0.35
  1
ZION CASULO · PLANTA BAIXA (COTADA) · escala 1:50 · unidades em metros
  7
ZION
 11
-3.7
 21
5.6
 31
0.0
100
AcDbText
 73
2
  0
TEXT
  5
170
330
17
100
AcDbEntity
  8
TEXTO
100
AcDbText
 10
-3.7
 20
5.279999999999999
 30
0.0
 40
0.13
  1
ZION GLAMPING COLLECTION · ZION HOTEL GROUP INTERNATIONAL
  7
ZION
 11
-3.7
 21
5.279999999999999
 31
0.0
100
AcDbText
 73
2
  0
ENDSEC
  0
SECTION
  2
OBJECTS
  0
DICTIONARY
  5
A
330
0
100
AcDbDictionary
281
1
  3
ACAD_COLOR
350
B
  3
ACAD_GROUP
350
C
  3
ACAD_LAYOUT
350
D
  3
ACAD_MATERIAL
350
E
  3
ACAD_MLEADERSTYLE
350
F
  3
ACAD_MLINESTYLE
350
10
  3
ACAD_PLOTSETTINGS
350
11
  3
ACAD_PLOTSTYLENAME
350
12
  3
ACAD_SCALELIST
350
14
  3
ACAD_TABLESTYLE
350
15
  3
ACAD_VISUALSTYLE
350
16
  3
EZDXF_META
350
2D
  0
DICTIONARY
  5
B
330
A
100
AcDbDictionary
281
1
  0
DICTIONARY
  5
C
330
A
100
AcDbDictionary
281
1
  0
DICTIONARY
  5
D
330
A
100
AcDbDictionary
281
1
  3
Model
350
1A
  3
Layout1
350
1E
  0
DICTIONARY
  5
E
330
A
100
AcDbDictionary
281
1
  3
ByBlock
350
1F
  3
ByLayer
350
20
  3
Global
350
21
  0
DICTIONARY
  5
F
330
A
100
AcDbDictionary
281
1
  3
Standard
350
2C
  0
DICTIONARY
  5
10
330
A
100
AcDbDictionary
281
1
  3
Standard
350
22
  0
DICTIONARY
  5
11
330
A
100
AcDbDictionary
281
1
  0
ACDBDICTIONARYWDFLT
  5
12
330
A
100
AcDbDictionary
281
1
  3
Normal
350
13
100
AcDbDictionaryWithDefault
340
13
  0
ACDBPLACEHOLDER
  5
13
330
12
  0
DICTIONARY
  5
14
330
A
100
AcDbDictionary
281
1
  0
DICTIONARY
  5
15
330
A
100
AcDbDictionary
281
1
  0
DICTIONARY
  5
16
330
A
100
AcDbDictionary
281
1
  3
2dWireframe
350
5A
  3
Basic
350
5B
  3
Brighten
350
5C
  3
ColorChange
350
5D
  3
Conceptual
350
5E
  3
Dim
350
5F
  3
EdgeColorOff
350
60
  3
Facepattern
350
61
  3
Flat
350
62
  3
FlatWithEdges
350
63
  3
Gouraud
350
64
  3
GouraudWithEdges
350
65
  3
Hidden
350
66
  3
JitterOff
350
67
  3
Linepattern
350
68
  3
Modeling
350
69
  3
OverhangOff
350
6A
  3
Realistic
350
6B
  3
Shaded
350
6C
  3
Shaded with edges
350
6D
  3
Shades of Gray
350
6E
  3
Sketchy
350
6F
  3
Thicken
350
70
  3
Wireframe
350
71
  3
X-Ray
350
72
  0
LAYOUT
  5
1A
330
D
100
AcDbPlotSettings
  1

  4
A3
  6

 40
7.5
 41
20.0
 42
7.5
 43
20.0
 44
420.0
 45
297.0
 46
0.0
 47
0.0
 48
0.0
 49
0.0
140
0.0
141
0.0
142
1.0
143
1.0
 70
1024
 72
1
 73
0
 74
5
  7

 75
16
 76
0
 77
2
 78
300
147
1.0
148
0.0
149
0.0
100
AcDbLayout
  1
Model
 70
1
 71
0
 10
0.0
 20
0.0
 11
420.0
 21
297.0
 12
0.0
 22
0.0
 32
0.0
 14
1e+20
 24
1e+20
 34
1e+20
 15
-1e+20
 25
-1e+20
 35
-1e+20
146
0.0
 13
0.0
 23
0.0
 33
0.0
 16
1.0
 26
0.0
 36
0.0
 17
0.0
 27
1.0
 37
0.0
 76
1
330
17
  0
LAYOUT
  5
1E
330
D
100
AcDbPlotSettings
  1

  4
A3
  6

 40
7.5
 41
20.0
 42
7.5
 43
20.0
 44
420.0
 45
297.0
 46
0.0
 47
0.0
 48
0.0
 49
0.0
140
0.0
141
0.0
142
1.0
143
1.0
 70
0
 72
1
 73
0
 74
5
  7

 75
16
 76
0
 77
2
 78
300
147
1.0
148
0.0
149
0.0
100
AcDbLayout
  1
Layout1
 70
1
 71
1
 10
0.0
 20
0.0
 11
420.0
 21
297.0
 12
0.0
 22
0.0
 32
0.0
 14
1e+20
 24
1e+20
 34
1e+20
 15
-1e+20
 25
-1e+20
 35
-1e+20
146
0.0
 13
0.0
 23
0.0
 33
0.0
 16
1.0
 26
0.0
 36
0.0
 17
0.0
 27
1.0
 37
0.0
 76
1
330
1B
  0
MATERIAL
  5
1F
102
{ACAD_REACTORS
330
E
102
}
330
E
100
AcDbMaterial
  1
ByBlock
  2

 70
0
 40
1.0
 71
1
 41
1.0
 91
-1023410177
 42
1.0
 72
1
  3

 73
1
 74
1
 75
1
 44
0.5
 73
0
 45
1.0
 46
1.0
 77
1
  4

 78
1
 79
1
170
1
 48
1.0
171
1
  6

172
1
173
1
174
1
140
1.0
141
1.0
175
1
  7

176
1
177
1
178
1
143
1.0
179
1
  8

270
1
271
1
272
1
145
1.0
146
1.0
273
1
  9

274
1
275
1
276
1
 42
1.0
 72
1
  3

 73
1
 74
1
 75
1
 94
63
  0
MATERIAL
  5
20
102
{ACAD_REACTORS
330
E
102
}
330
E
100
AcDbMaterial
  1
ByLayer
  2

 70
0
 40
1.0
 71
1
 41
1.0
 91
-1023410177
 42
1.0
 72
1
  3

 73
1
 74
1
 75
1
 44
0.5
 73
0
 45
1.0
 46
1.0
 77
1
  4

 78
1
 79
1
170
1
 48
1.0
171
1
  6

172
1
173
1
174
1
140
1.0
141
1.0
175
1
  7

176
1
177
1
178
1
143
1.0
179
1
  8

270
1
271
1
272
1
145
1.0
146
1.0
273
1
  9

274
1
275
1
276
1
 42
1.0
 72
1
  3

 73
1
 74
1
 75
1
 94
63
  0
MATERIAL
  5
21
102
{ACAD_REACTORS
330
E
102
}
330
E
100
AcDbMaterial
  1
Global
  2

 70
0
 40
1.0
 71
1
 41
1.0
 91
-1023410177
 42
1.0
 72
1
  3

 73
1
 74
1
 75
1
 44
0.5
 73
0
 45
1.0
 46
1.0
 77
1
  4

 78
1
 79
1
170
1
 48
1.0
171
1
  6

172
1
173
1
174
1
140
1.0
141
1.0
175
1
  7

176
1
177
1
178
1
143
1.0
179
1
  8

270
1
271
1
272
1
145
1.0
146
1.0
273
1
  9

274
1
275
1
276
1
 42
1.0
 72
1
  3

 73
1
 74
1
 75
1
 94
63
  0
MLINESTYLE
  5
22
102
{ACAD_REACTORS
330
10
102
}
330
10
100
AcDbMlineStyle
  2
Standard
 70
0
  3

 62
256
 51
90.0
 52
90.0
 71
2
 49
0.5
 62
256
  6
BYLAYER
 49
-0.5
 62
256
  6
BYLAYER
  0
MLEADERSTYLE
  5
2C
102
{ACAD_REACTORS
330
F
102
}
330
F
100
AcDbMLeaderStyle
179
2
170
2
171
1
172
0
 90
2
 40
0.0
 41
0.0
173
1
 91
-1056964608
 92
-2
290
1
 42
2.0
291
1
 43
8.0
  3
Standard
 44
4.0
300

342
29
174
1
175
1
176
0
178
1
 93
-1056964608
 45
4.0
292
0
297
0
 46
4.0
 94
-1056964608
 47
1.0
 49
1.0
140
1.0
294
1
141
0.0
177
0
142
1.0
295
0
296
0
143
3.75
271
0
272
9
273
9
  0
DICTIONARY
  5
2D
330
A
100
AcDbDictionary
280
1
281
1
  3
CREATED_BY_EZDXF
350
2E
  3
WRITTEN_BY_EZDXF
350
173
  0
DICTIONARYVAR
  5
2E
330
2D
100
DictionaryVariables
280
0
  1
1.4.4 @ 2026-09-17T16:37:32.382908+00:00
  0
VISUALSTYLE
  5
5A
102
{ACAD_REACTORS
330
16
102
}
330
16
100
AcDbVisualStyle
  2
2dWireframe
 70
4
 90
0
 40
0.6
 62
7
290
0
291
0
  0
VISUALSTYLE
  5
5B
102
{ACAD_REACTORS
330
16
102
}
330
16
100
AcDbVisualStyle
  2
Basic
 70
7
 90
1
 40
0.6
 62
7
290
0
291
1
  0
VISUALSTYLE
  5
5C
102
{ACAD_REACTORS
330
16
102
}
330
16
100
AcDbVisualStyle
  2
Brighten
 70
12
 90
2
 40
0.6
 62
7
290
0
291
1
  0
VISUALSTYLE
  5
5D
102
{ACAD_REACTORS
330
16
102
}
330
16
100
AcDbVisualStyle
  2
ColorChange
 70
16
 90
2
 40
0.6
 62
8
290
0
291
1
  0
VISUALSTYLE
  5
5E
102
{ACAD_REACTORS
330
16
102
}
330
16
100
AcDbVisualStyle
  2
Conceptual
 70
9
 90
3
 40
0.6
 62
7
290
0
291
0
  0
VISUALSTYLE
  5
5F
102
{ACAD_REACTORS
330
16
102
}
330
16
100
AcDbVisualStyle
  2
Dim
 70
11
 90
2
 40
0.6
 62
7
290
0
291
1
  0
VISUALSTYLE
  5
60
102
{ACAD_REACTORS
330
16
102
}
330
16
100
AcDbVisualStyle
  2
EdgeColorOff
 70
22
 90
2
 40
0.6
 62
7
290
0
291
1
  0
VISUALSTYLE
  5
61
102
{ACAD_REACTORS
330
16
102
}
330
16
100
AcDbVisualStyle
  2
Facepattern
 70
15
 90
2
 40
0.6
 62
7
290
0
291
1
  0
VISUALSTYLE
  5
62
102
{ACAD_REACTORS
330
16
102
}
330
16
100
AcDbVisualStyle
  2
Flat
 70
0
 90
2
 40
0.6
 62
7
290
0
291
1
  0
VISUALSTYLE
  5
63
102
{ACAD_REACTORS
330
16
102
}
330
16
100
AcDbVisualStyle
  2
FlatWithEdges
 70
1
 90
2
 40
0.6
 62
7
290
0
291
1
  0
VISUALSTYLE
  5
64
102
{ACAD_REACTORS
330
16
102
}
330
16
100
AcDbVisualStyle
  2
Gouraud
 70
2
 90
2
 40
0.6
 62
7
290
0
291
1
  0
VISUALSTYLE
  5
65
102
{ACAD_REACTORS
330
16
102
}
330
16
100
AcDbVisualStyle
  2
GouraudWithEdges
 70
3
 90
2
 40
0.6
 62
7
290
0
291
1
  0
VISUALSTYLE
  5
66
102
{ACAD_REACTORS
330
16
102
}
330
16
100
AcDbVisualStyle
  2
Hidden
 70
6
 90
1
 40
0.6
 62
7
290
0
291
0
  0
VISUALSTYLE
  5
67
102
{ACAD_REACTORS
330
16
102
}
330
16
100
AcDbVisualStyle
  2
JitterOff
 70
20
 90
2
 40
0.6
 62
7
290
0
291
1
  0
VISUALSTYLE
  5
68
102
{ACAD_REACTORS
330
16
102
}
330
16
100
AcDbVisualStyle
  2
Linepattern
 70
14
 90
2
 40
0.6
 62
7
290
0
291
1
  0
VISUALSTYLE
  5
69
102
{ACAD_REACTORS
330
16
102
}
330
16
100
AcDbVisualStyle
  2
Modeling
 70
10
 90
2
 40
0.6
 62
7
290
0
291
0
  0
VISUALSTYLE
  5
6A
102
{ACAD_REACTORS
330
16
102
}
330
16
100
AcDbVisualStyle
  2
OverhangOff
 70
21
 90
2
 40
0.6
 62
7
290
0
291
1
  0
VISUALSTYLE
  5
6B
102
{ACAD_REACTORS
330
16
102
}
330
16
100
AcDbVisualStyle
  2
Realistic
 70
8
 90
2
 40
0.6
 62
7
290
0
291
0
  0
VISUALSTYLE
  5
6C
102
{ACAD_REACTORS
330
16
102
}
330
16
100
AcDbVisualStyle
  2
Shaded
 70
27
 90
2
 40
0.6
 62
7
290
0
291
0
  0
VISUALSTYLE
  5
6D
102
{ACAD_REACTORS
330
16
102
}
330
16
100
AcDbVisualStyle
  2
Shaded with edges
 70
26
 90
2
 40
0.6
 62
7
290
0
291
0
  0
VISUALSTYLE
  5
6E
102
{ACAD_REACTORS
330
16
102
}
330
16
100
AcDbVisualStyle
  2
Shades of Gray
 70
23
 90
2
 40
0.6
 62
7
290
0
291
0
  0
VISUALSTYLE
  5
6F
102
{ACAD_REACTORS
330
16
102
}
330
16
100
AcDbVisualStyle
  2
Sketchy
 70
24
 90
1
 40
0.6
 62
7
290
0
291
0
  0
VISUALSTYLE
  5
70
102
{ACAD_REACTORS
330
16
102
}
330
16
100
AcDbVisualStyle
  2
Thicken
 70
13
 90
2
 40
0.6
 62
7
290
0
291
1
  0
VISUALSTYLE
  5
71
102
{ACAD_REACTORS
330
16
102
}
330
16
100
AcDbVisualStyle
  2
Wireframe
 70
5
 90
0
 40
0.6
 62
7
290
0
291
0
  0
VISUALSTYLE
  5
72
102
{ACAD_REACTORS
330
16
102
}
330
16
100
AcDbVisualStyle
  2
X-Ray
 70
25
 90
2
 40
0.5
 62
7
290
0
291
0
  0
DICTIONARYVAR
  5
173
330
2D
100
DictionaryVariables
280
0
  1
1.4.4 @ 2026-09-17T16:37:32.399223+00:00
  0
ENDSEC
  0
EOF
