  0
SECTION
  2
HEADER
  9
$ACADVER
  1
AC1024
  9
$ACADMAINTVER
 70
6
  9
$DWGCODEPAGE
  3
ANSI_1252
  9
$LASTSAVEDBY
  1
ezdxf
  9
$INSBASE
 10
0.0
 20
0.0
 30
0.0
  9
$EXTMIN
 10
1e+20
 20
1e+20
 30
1e+20
  9
$EXTMAX
 10
-1e+20
 20
-1e+20
 30
-1e+20
  9
$LIMMIN
 10
0.0
 20
0.0
  9
$LIMMAX
 10
420.0
 20
297.0
  9
$ORTHOMODE
 70
0
  9
$REGENMODE
 70
1
  9
$FILLMODE
 70
1
  9
$QTEXTMODE
 70
0
  9
$MIRRTEXT
 70
1
  9
$LTSCALE
 40
1.0
  9
$ATTMODE
 70
1
  9
$TEXTSIZE
 40
2.5
  9
$TRACEWID
 40
1.0
  9
$TEXTSTYLE
  7
OpenSans
  9
$CLAYER
  8
0
  9
$CELTYPE
  6
ByLayer
  9
$CECOLOR
 62
256
  9
$CELTSCALE
 40
1.0
  9
$DISPSILH
 70
0
  9
$DIMSCALE
 40
1.0
  9
$DIMASZ
 40
0.175
  9
$DIMEXO
 40
0.125
  9
$DIMDLI
 40
3.75
  9
$DIMRND
 40
0.0
  9
$DIMDLE
 40
0.0
  9
$DIMEXE
 40
0.375
  9
$DIMTP
 40
0.0
  9
$DIMTM
 40
0.0
  9
$DIMTXT
 40
0.25
  9
$DIMCEN
 40
2.5
  9
$DIMTSZ
 40
0.0
  9
$DIMTOL
 70
0
  9
$DIMLIM
 70
0
  9
$DIMTIH
 70
0
  9
$DIMTOH
 70
0
  9
$DIMSE1
 70
0
  9
$DIMSE2
 70
0
  9
$DIMTAD
 70
1
  9
$DIMZIN
 70
12
  9
$DIMBLK
  1
ARCHTICK
  9
$DIMASO
 70
1
  9
$DIMSHO
 70
1
  9
$DIMPOST
  1

  9
$DIMAPOST
  1

  9
$DIMALT
 70
0
  9
$DIMALTD
 70
3
  9
$DIMALTF
 40
0.03937007874
  9
$DIMLFAC
 40
100.0
  9
$DIMTOFL
 70
1
  9
$DIMTVP
 40
0.0
  9
$DIMTIX
 70
0
  9
$DIMSOXD
 70
0
  9
$DIMSAH
 70
0
  9
$DIMBLK1
  1

  9
$DIMBLK2
  1

  9
$DIMSTYLE
  2
EZDXF
  9
$DIMCLRD
 70
0
  9
$DIMCLRE
 70
0
  9
$DIMCLRT
 70
0
  9
$DIMTFAC
 40
0.5
  9
$DIMGAP
 40
0.1
  9
$DIMJUST
 70
0
  9
$DIMSD1
 70
0
  9
$DIMSD2
 70
0
  9
$DIMTOLJ
 70
0
  9
$DIMTZIN
 70
8
  9
$DIMALTZ
 70
0
  9
$DIMALTTZ
 70
0
  9
$DIMUPT
 70
1
  9
$DIMDEC
 70
2
  9
$DIMTDEC
 70
2
  9
$DIMALTU
 70
2
  9
$DIMALTTD
 70
3
  9
$DIMTXSTY
  7
OpenSansCondensed-Light
  9
$DIMAUNIT
 70
0
  9
$DIMADEC
 70
2
  9
$DIMALTRND
 40
0.0
  9
$DIMAZIN
 70
3
  9
$DIMDSEP
 70
46
  9
$DIMATFIT
 70
3
  9
$DIMFRAC
 70
0
  9
$DIMLDRBLK
  1

  9
$DIMLUNIT
 70
2
  9
$DIMLWD
 70
-2
  9
$DIMLWE
 70
-2
  9
$DIMTMOVE
 70
2
  9
$DIMFXL
 40
1.0
  9
$DIMFXLON
 70
0
  9
$DIMJOGANG
 40
0.785398163397
  9
$DIMTFILL
 70
0
  9
$DIMTFILLCLR
 70
0
  9
$DIMARCSYM
 70
0
  9
$DIMLTYPE
  6

  9
$DIMLTEX1
  6

  9
$DIMLTEX2
  6

  9
$DIMTXTDIRECTION
 70
0
  9
$LUNITS
 70
2
  9
$LUPREC
 70
4
  9
$SKETCHINC
 40
1.0
  9
$FILLETRAD
 40
10.0
  9
$AUNITS
 70
0
  9
$AUPREC
 70
2
  9
$MENU
  1
.
  9
$ELEVATION
 40
0.0
  9
$PELEVATION
 40
0.0
  9
$THICKNESS
 40
0.0
  9
$LIMCHECK
 70
0
  9
$CHAMFERA
 40
0.0
  9
$CHAMFERB
 40
0.0
  9
$CHAMFERC
 40
0.0
  9
$CHAMFERD
 40
0.0
  9
$SKPOLY
 70
0
  9
$TDCREATE
 40
2461300.086898148
  9
$TDUCREATE
 40
2458532.153996898
  9
$TDUPDATE
 40
2461300.086898148
  9
$TDUUPDATE
 40
2458532.1544311
  9
$TDINDWG
 40
0.0
  9
$TDUSRTIMER
 40
0.0
  9
$USRTIMER
 70
1
  9
$ANGBASE
 50
0.0
  9
$ANGDIR
 70
0
  9
$PDMODE
 70
0
  9
$PDSIZE
 40
0.0
  9
$PLINEWID
 40
0.0
  9
$SPLFRAME
 70
0
  9
$SPLINETYPE
 70
6
  9
$SPLINESEGS
 70
8
  9
$HANDSEED
  5
D7
  9
$SURFTAB1
 70
6
  9
$SURFTAB2
 70
6
  9
$SURFTYPE
 70
6
  9
$SURFU
 70
6
  9
$SURFV
 70
6
  9
$UCSBASE
  2

  9
$UCSNAME
  2

  9
$UCSORG
 10
0.0
 20
0.0
 30
0.0
  9
$UCSXDIR
 10
1.0
 20
0.0
 30
0.0
  9
$UCSYDIR
 10
0.0
 20
1.0
 30
0.0
  9
$UCSORTHOREF
  2

  9
$UCSORTHOVIEW
 70
0
  9
$UCSORGTOP
 10
0.0
 20
0.0
 30
0.0
  9
$UCSORGBOTTOM
 10
0.0
 20
0.0
 30
0.0
  9
$UCSORGLEFT
 10
0.0
 20
0.0
 30
0.0
  9
$UCSORGRIGHT
 10
0.0
 20
0.0
 30
0.0
  9
$UCSORGFRONT
 10
0.0
 20
0.0
 30
0.0
  9
$UCSORGBACK
 10
0.0
 20
0.0
 30
0.0
  9
$PUCSBASE
  2

  9
$PUCSNAME
  2

  9
$PUCSORG
 10
0.0
 20
0.0
 30
0.0
  9
$PUCSXDIR
 10
1.0
 20
0.0
 30
0.0
  9
$PUCSYDIR
 10
0.0
 20
1.0
 30
0.0
  9
$PUCSORTHOREF
  2

  9
$PUCSORTHOVIEW
 70
0
  9
$PUCSORGTOP
 10
0.0
 20
0.0
 30
0.0
  9
$PUCSORGBOTTOM
 10
0.0
 20
0.0
 30
0.0
  9
$PUCSORGLEFT
 10
0.0
 20
0.0
 30
0.0
  9
$PUCSORGRIGHT
 10
0.0
 20
0.0
 30
0.0
  9
$PUCSORGFRONT
 10
0.0
 20
0.0
 30
0.0
  9
$PUCSORGBACK
 10
0.0
 20
0.0
 30
0.0
  9
$USERI1
 70
0
  9
$USERI2
 70
0
  9
$USERI3
 70
0
  9
$USERI4
 70
0
  9
$USERI5
 70
0
  9
$USERR1
 40
0.0
  9
$USERR2
 40
0.0
  9
$USERR3
 40
0.0
  9
$USERR4
 40
0.0
  9
$USERR5
 40
0.0
  9
$WORLDVIEW
 70
1
  9
$SHADEDGE
 70
3
  9
$SHADEDIF
 70
70
  9
$TILEMODE
 70
1
  9
$MAXACTVP
 70
64
  9
$PINSBASE
 10
0.0
 20
0.0
 30
0.0
  9
$PLIMCHECK
 70
0
  9
$PEXTMIN
 10
1e+20
 20
1e+20
 30
1e+20
  9
$PEXTMAX
 10
-1e+20
 20
-1e+20
 30
-1e+20
  9
$PLIMMIN
 10
0.0
 20
0.0
  9
$PLIMMAX
 10
420.0
 20
297.0
  9
$UNITMODE
 70
0
  9
$VISRETAIN
 70
1
  9
$PLINEGEN
 70
0
  9
$PSLTSCALE
 70
1
  9
$TREEDEPTH
 70
3020
  9
$CMLSTYLE
  2
Standard
  9
$CMLJUST
 70
0
  9
$CMLSCALE
 40
20.0
  9
$PROXYGRAPHICS
 70
1
  9
$MEASUREMENT
 70
1
  9
$CELWEIGHT
370
-1
  9
$ENDCAPS
280
0
  9
$JOINSTYLE
280
0
  9
$LWDISPLAY
290
0
  9
$INSUNITS
 70
6
  9
$HYPERLINKBASE
  1

  9
$STYLESHEET
  1

  9
$XEDIT
290
1
  9
$CEPSNTYPE
380
0
  9
$PSTYLEMODE
290
1
  9
$FINGERPRINTGUID
  2
{BA847042-D142-4620-B8B2-74F5A69CD9A5}
  9
$VERSIONGUID
  2
{1D3EF4AB-405B-4C5D-915F-941461CBA4F4}
  9
$EXTNAMES
290
1
  9
$PSVPSCALE
 40
0.0
  9
$OLESTARTUP
290
0
  9
$SORTENTS
280
127
  9
$INDEXCTL
280
0
  9
$HIDETEXT
280
1
  9
$XCLIPFRAME
280
1
  9
$HALOGAP
280
0
  9
$OBSCOLOR
 70
257
  9
$OBSLTYPE
280
0
  9
$INTERSECTIONDISPLAY
280
0
  9
$INTERSECTIONCOLOR
 70
257
  9
$DIMASSOC
280
2
  9
$PROJECTNAME
  1

  9
$CAMERADISPLAY
290
0
  9
$LENSLENGTH
 40
50.0
  9
$CAMERAHEIGHT
 40
0.0
  9
$STEPSPERSEC
 40
24.0
  9
$STEPSIZE
 40
100.0
  9
$3DDWFPREC
 40
2.0
  9
$PSOLWIDTH
 40
0.005
  9
$PSOLHEIGHT
 40
0.08
  9
$LOFTANG1
 40
1.570796326795
  9
$LOFTANG2
 40
1.570796326795
  9
$LOFTMAG1
 40
0.0
  9
$LOFTMAG2
 40
0.0
  9
$LOFTPARAM
 70
7
  9
$LOFTNORMALS
280
1
  9
$LATITUDE
 40
37.795
  9
$LONGITUDE
 40
-122.394
  9
$NORTHDIRECTION
 40
0.0
  9
$TIMEZONE
 70
-8000
  9
$LIGHTGLYPHDISPLAY
280
1
  9
$TILEMODELIGHTSYNCH
280
1
  9
$CMATERIAL
347
20
  9
$SOLIDHIST
280
0
  9
$SHOWHIST
280
1
  9
$DWFFRAME
280
2
  9
$DGNFRAME
280
2
  9
$REALWORLDSCALE
290
1
  9
$INTERFERECOLOR
 62
256
  9
$CSHADOW
280
0
  9
$SHADOWPLANELOCATION
 40
0.0
  0
ENDSEC
  0
SECTION
  2
CLASSES
  0
CLASS
  1
ACDBDICTIONARYWDFLT
  2
AcDbDictionaryWithDefault
  3
ObjectDBX Classes
 90
0
 91
0
280
0
281
0
  0
CLASS
  1
SUN
  2
AcDbSun
  3
SCENEOE
 90
1153
 91
0
280
0
281
0
  0
CLASS
  1
VISUALSTYLE
  2
AcDbVisualStyle
  3
ObjectDBX Classes
 90
4095
 91
0
280
0
281
0
  0
CLASS
  1
MATERIAL
  2
AcDbMaterial
  3
ObjectDBX Classes
 90
1153
 91
0
280
0
281
0
  0
CLASS
  1
SCALE
  2
AcDbScale
  3
ObjectDBX Classes
 90
1153
 91
0
280
0
281
0
  0
CLASS
  1
TABLESTYLE
  2
AcDbTableStyle
  3
ObjectDBX Classes
 90
4095
 91
0
280
0
281
0
  0
CLASS
  1
MLEADERSTYLE
  2
AcDbMLeaderStyle
  3
ACDB_MLEADERSTYLE_CLASS
 90
4095
 91
0
280
0
281
0
  0
CLASS
  1
DICTIONARYVAR
  2
AcDbDictionaryVar
  3
ObjectDBX Classes
 90
0
 91
0
280
0
281
0
  0
CLASS
  1
CELLSTYLEMAP
  2
AcDbCellStyleMap
  3
ObjectDBX Classes
 90
1152
 91
0
280
0
281
0
  0
CLASS
  1
MENTALRAYRENDERSETTINGS
  2
AcDbMentalRayRenderSettings
  3
SCENEOE
 90
1024
 91
0
280
0
281
0
  0
CLASS
  1
ACDBDETAILVIEWSTYLE
  2
AcDbDetailViewStyle
  3
ObjectDBX Classes
 90
1025
 91
0
280
0
281
0
  0
CLASS
  1
ACDBSECTIONVIEWSTYLE
  2
AcDbSectionViewStyle
  3
ObjectDBX Classes
 90
1025
 91
0
280
0
281
0
  0
CLASS
  1
RASTERVARIABLES
  2
AcDbRasterVariables
  3
ISM
 90
0
 91
0
280
0
281
0
  0
CLASS
  1
LAYOUT
  2
AcDbLayout
  3
ObjectDBX Classes
 90
0
 91
0
280
0
281
0
  0
CLASS
  1
ACDBPLACEHOLDER
  2
AcDbPlaceHolder
  3
ObjectDBX Classes
 90
0
 91
0
280
0
281
0
  0
ENDSEC
  0
SECTION
  2
TABLES
  0
TABLE
  2
VPORT
  5
8
330
0
100
AcDbSymbolTable
 70
1
  0
VPORT
  5
23
330
8
100
AcDbSymbolTableRecord
100
AcDbViewportTableRecord
  2
*Active
 70
0
 10
0.0
 20
0.0
 11
1.0
 21
1.0
 12
0.0
 22
0.0
 13
0.0
 23
0.0
 14
0.5
 24
0.5
 15
0.5
 25
0.5
 16
0.0
 26
0.0
 36
1.0
 17
0.0
 27
0.0
 37
0.0
 40
1000.0
 41
1.34
 42
50.0
 43
0.0
 44
0.0
 50
0.0
 51
0.0
 71
0
 72
1000
 73
1
 74
3
 75
0
 76
0
 77
0
 78
0
281
0
 65
0
146
0.0
  0
ENDTAB
  0
TABLE
  2
LTYPE
  5
2
330
0
100
AcDbSymbolTable
 70
21
  0
LTYPE
  5
24
330
2
100
AcDbSymbolTableRecord
100
AcDbLinetypeTableRecord
  2
ByBlock
 70
0
  3

 72
65
 73
0
 40
0.0
  0
LTYPE
  5
25
330
2
100
AcDbSymbolTableRecord
100
AcDbLinetypeTableRecord
  2
ByLayer
 70
0
  3

 72
65
 73
0
 40
0.0
  0
LTYPE
  5
26
330
2
100
AcDbSymbolTableRecord
100
AcDbLinetypeTableRecord
  2
Continuous
 70
0
  3

 72
65
 73
0
 40
0.0
  0
LTYPE
  5
2F
330
2
100
AcDbSymbolTableRecord
100
AcDbLinetypeTableRecord
  2
CENTER
 70
0
  3
Center ____ _ ____ _ ____ _ ____ _ ____ _ ____
 72
65
 73
4
 40
5.08
 49
3.175
 74
0
 49
-0.635
 74
0
 49
0.635
 74
0
 49
-0.635
 74
0
  0
LTYPE
  5
30
330
2
100
AcDbSymbolTableRecord
100
AcDbLinetypeTableRecord
  2
CENTERX2
 70
0
  3
Center (2x) ________  __  ________  __  ________
 72
65
 73
4
 40
8.89
 49
6.35
 74
0
 49
-0.635
 74
0
 49
1.27
 74
0
 49
-0.635
 74
0
  0
LTYPE
  5
31
330
2
100
AcDbSymbolTableRecord
100
AcDbLinetypeTableRecord
  2
CENTER2
 70
0
  3
Center (.5x) ____ _ ____ _ ____ _ ____ _ ____
 72
65
 73
4
 40
2.54
 49
1.587
 74
0
 49
-0.318
 74
0
 49
0.318
 74
0
 49
-0.318
 74
0
  0
LTYPE
  5
32
330
2
100
AcDbSymbolTableRecord
100
AcDbLinetypeTableRecord
  2
DASHED
 70
0
  3
Dashed __ __ __ __ __ __ __ __ __ __ __ __ __ _
 72
65
 73
2
 40
1.524
 49
1.27
 74
0
 49
-0.254
 74
0
  0
LTYPE
  5
33
330
2
100
AcDbSymbolTableRecord
100
AcDbLinetypeTableRecord
  2
DASHEDX2
 70
0
  3
Dashed (2x) ____  ____  ____  ____  ____  ____
 72
65
 73
2
 40
3.048
 49
2.54
 74
0
 49
-0.508
 74
0
  0
LTYPE
  5
34
330
2
100
AcDbSymbolTableRecord
100
AcDbLinetypeTableRecord
  2
DASHED2
 70
0
  3
Dashed (.5x) _ _ _ _ _ _ _ _ _ _ _ _ _ _
 72
65
 73
2
 40
0.762
 49
0.635
 74
0
 49
-0.127
 74
0
  0
LTYPE
  5
35
330
2
100
AcDbSymbolTableRecord
100
AcDbLinetypeTableRecord
  2
PHANTOM
 70
0
  3
Phantom ______  __  __  ______  __  __  ______
 72
65
 73
6
 40
6.35
 49
3.175
 74
0
 49
-0.635
 74
0
 49
0.635
 74
0
 49
-0.635
 74
0
 49
0.635
 74
0
 49
-0.635
 74
0
  0
LTYPE
  5
36
330
2
100
AcDbSymbolTableRecord
100
AcDbLinetypeTableRecord
  2
PHANTOMX2
 70
0
  3
Phantom (2x)____________    ____    ____    ____________
 72
65
 73
6
 40
10.795
 49
6.35
 74
0
 49
-0.635
 74
0
 49
1.27
 74
0
 49
-0.635
 74
0
 49
1.27
 74
0
 49
-0.635
 74
0
  0
LTYPE
  5
37
330
2
100
AcDbSymbolTableRecord
100
AcDbLinetypeTableRecord
  2
PHANTOM2
 70
0
  3
Phantom (.5x) ___ _ _ ___ _ _ ___ _ _ ___ _ _ ___
 72
65
 73
6
 40
3.175
 49
1.587
 74
0
 49
-0.318
 74
0
 49
0.318
 74
0
 49
-0.318
 74
0
 49
0.318
 74
0
 49
-0.318
 74
0
  0
LTYPE
  5
38
330
2
100
AcDbSymbolTableRecord
100
AcDbLinetypeTableRecord
  2
DASHDOT
 70
0
  3
Dash dot __ . __ . __ . __ . __ . __ . __ . __
 72
65
 73
4
 40
3.556
 49
2.54
 74
0
 49
-0.508
 74
0
 49
0.0
 74
0
 49
-0.508
 74
0
  0
LTYPE
  5
39
330
2
100
AcDbSymbolTableRecord
100
AcDbLinetypeTableRecord
  2
DASHDOTX2
 70
0
  3
Dash dot (2x) ____  .  ____  .  ____  .  ____
 72
65
 73
4
 40
6.096
 49
5.08
 74
0
 49
-0.508
 74
0
 49
0.0
 74
0
 49
-0.508
 74
0
  0
LTYPE
  5
3A
330
2
100
AcDbSymbolTableRecord
100
AcDbLinetypeTableRecord
  2
DASHDOT2
 70
0
  3
Dash dot (.5x) _ . _ . _ . _ . _ . _ . _ . _
 72
65
 73
4
 40
1.778
 49
1.27
 74
0
 49
-0.254
 74
0
 49
0.0
 74
0
 49
-0.254
 74
0
  0
LTYPE
  5
3B
330
2
100
AcDbSymbolTableRecord
100
AcDbLinetypeTableRecord
  2
DOT
 70
0
  3
Dot .  .  .  .  .  .  .  .  .  .  .  .  .  .  .  .
 72
65
 73
2
 40
0.508
 49
0.0
 74
0
 49
-0.508
 74
0
  0
LTYPE
  5
3C
330
2
100
AcDbSymbolTableRecord
100
AcDbLinetypeTableRecord
  2
DOTX2
 70
0
  3
Dot (2x) .    .    .    .    .    .    .    . 
 72
65
 73
2
 40
1.016
 49
0.0
 74
0
 49
-1.016
 74
0
  0
LTYPE
  5
3D
330
2
100
AcDbSymbolTableRecord
100
AcDbLinetypeTableRecord
  2
DOT2
 70
0
  3
Dot (.5) . . . . . . . . . . . . . . . . . . . 
 72
65
 73
2
 40
0.254
 49
0.0
 74
0
 49
-0.254
 74
0
  0
LTYPE
  5
3E
330
2
100
AcDbSymbolTableRecord
100
AcDbLinetypeTableRecord
  2
DIVIDE
 70
0
  3
Divide __ . . __ . . __ . . __ . . __ . . __
 72
65
 73
6
 40
4.064
 49
2.54
 74
0
 49
-0.508
 74
0
 49
0.0
 74
0
 49
-0.508
 74
0
 49
0.0
 74
0
 49
-0.508
 74
0
  0
LTYPE
  5
3F
330
2
100
AcDbSymbolTableRecord
100
AcDbLinetypeTableRecord
  2
DIVIDEX2
 70
0
  3
Divide (2x) ____  . .  ____  . .  ____  . .  ____
 72
65
 73
6
 40
6.604
 49
5.08
 74
0
 49
-0.508
 74
0
 49
0.0
 74
0
 49
-0.508
 74
0
 49
0.0
 74
0
 49
-0.508
 74
0
  0
LTYPE
  5
40
330
2
100
AcDbSymbolTableRecord
100
AcDbLinetypeTableRecord
  2
DIVIDE2
 70
0
  3
Divide(.5x) _ . _ . _ . _ . _ . _ . _ . _
 72
65
 73
6
 40
2.032
 49
1.27
 74
0
 49
-0.254
 74
0
 49
0.0
 74
0
 49
-0.254
 74
0
 49
0.0
 74
0
 49
-0.254
 74
0
  0
ENDTAB
  0
TABLE
  2
LAYER
  5
1
330
0
100
AcDbSymbolTable
 70
17
  0
LAYER
  5
27
330
1
100
AcDbSymbolTableRecord
100
AcDbLayerTableRecord
  2
0
 70
0
 62
7
  6
Continuous
370
-3
390
13
347
21
  0
LAYER
  5
28
330
1
100
AcDbSymbolTableRecord
100
AcDbLayerTableRecord
  2
Defpoints
 70
0
 62
7
  6
Continuous
290
0
370
-3
390
13
347
21
  0
LAYER
  5
8A
330
1
100
AcDbSymbolTableRecord
100
AcDbLayerTableRecord
  2
EIXOS
 70
0
 62
8
  6
CENTER
370
-3
390
13
347
21
  0
LAYER
  5
8B
330
1
100
AcDbSymbolTableRecord
100
AcDbLayerTableRecord
  2
PAREDES
 70
0
 62
7
  6
CONTINUOUS
370
-3
390
13
347
21
  0
LAYER
  5
8C
330
1
100
AcDbSymbolTableRecord
100
AcDbLayerTableRecord
  2
ESQUADRIAS
 70
0
 62
4
  6
CONTINUOUS
370
-3
390
13
347
21
  0
LAYER
  5
8D
330
1
100
AcDbSymbolTableRecord
100
AcDbLayerTableRecord
  2
MOBILIARIO
 70
0
 62
9
  6
CONTINUOUS
370
-3
390
13
347
21
  0
LAYER
  5
8E
330
1
100
AcDbSymbolTableRecord
100
AcDbLayerTableRecord
  2
ESTRUTURA
 70
0
 62
1
  6
CONTINUOUS
370
-3
390
13
347
21
  0
LAYER
  5
8F
330
1
100
AcDbSymbolTableRecord
100
AcDbLayerTableRecord
  2
COBERTURA
 70
0
 62
3
  6
CONTINUOUS
370
-3
390
13
347
21
  0
LAYER
  5
90
330
1
100
AcDbSymbolTableRecord
100
AcDbLayerTableRecord
  2
COBERTURA_OCULTA
 70
0
 62
3
  6
CONTINUOUS
370
-3
390
13
347
21
  0
LAYER
  5
91
330
1
100
AcDbSymbolTableRecord
100
AcDbLayerTableRecord
  2
DECK
 70
0
 62
32
  6
CONTINUOUS
370
-3
390
13
347
21
  0
LAYER
  5
92
330
1
100
AcDbSymbolTableRecord
100
AcDbLayerTableRecord
  2
FUNDACAO
 70
0
 62
5
  6
CONTINUOUS
370
-3
390
13
347
21
  0
LAYER
  5
93
330
1
100
AcDbSymbolTableRecord
100
AcDbLayerTableRecord
  2
COTAS
 70
0
 62
2
  6
CONTINUOUS
370
-3
390
13
347
21
  0
LAYER
  5
94
330
1
100
AcDbSymbolTableRecord
100
AcDbLayerTableRecord
  2
TEXTO
 70
0
 62
7
  6
CONTINUOUS
370
-3
390
13
347
21
  0
LAYER
  5
95
330
1
100
AcDbSymbolTableRecord
100
AcDbLayerTableRecord
  2
HACHURA
 70
0
 62
8
  6
CONTINUOUS
370
-3
390
13
347
21
  0
LAYER
  5
96
330
1
100
AcDbSymbolTableRecord
100
AcDbLayerTableRecord
  2
MEMBRANA_3D
 70
0
 62
3
  6
CONTINUOUS
370
-3
390
13
347
21
  0
LAYER
  5
97
330
1
100
AcDbSymbolTableRecord
100
AcDbLayerTableRecord
  2
VIDRO_3D
 70
0
 62
4
  6
CONTINUOUS
370
-3
390
13
347
21
  0
LAYER
  5
98
330
1
100
AcDbSymbolTableRecord
100
AcDbLayerTableRecord
  2
ACO_3D
 70
0
 62
1
  6
CONTINUOUS
370
-3
390
13
347
21
  0
ENDTAB
  0
TABLE
  2
STYLE
  5
5
330
0
100
AcDbSymbolTable
 70
27
  0
STYLE
  5
29
330
5
100
AcDbSymbolTableRecord
100
AcDbTextStyleTableRecord
  2
Standard
 70
0
 40
0.0
 41
1.0
 50
0.0
 71
0
 42
2.5
  3
txt
  4

  0
STYLE
  5
41
330
5
100
AcDbSymbolTableRecord
100
AcDbTextStyleTableRecord
  2
OpenSans-Light
 70
0
 40
0.0
 41
1.0
 50
0.0
 71
0
 42
2.5
  3
OpenSans-Light.ttf
  4

  0
STYLE
  5
42
330
5
100
AcDbSymbolTableRecord
100
AcDbTextStyleTableRecord
  2
OpenSans-Light-Italic
 70
0
 40
0.0
 41
1.0
 50
0.0
 71
0
 42
2.5
  3
OpenSans-LightItalic.ttf
  4

  0
STYLE
  5
43
330
5
100
AcDbSymbolTableRecord
100
AcDbTextStyleTableRecord
  2
OpenSans
 70
0
 40
0.0
 41
1.0
 50
0.0
 71
0
 42
2.5
  3
OpenSans-Regular.ttf
  4

  0
STYLE
  5
44
330
5
100
AcDbSymbolTableRecord
100
AcDbTextStyleTableRecord
  2
OpenSans-Italic
 70
0
 40
0.0
 41
1.0
 50
0.0
 71
0
 42
2.5
  3
OpenSans-Italic.ttf
  4

  0
STYLE
  5
45
330
5
100
AcDbSymbolTableRecord
100
AcDbTextStyleTableRecord
  2
OpenSans-SemiBold
 70
0
 40
0.0
 41
1.0
 50
0.0
 71
0
 42
2.5
  3
OpenSans-SemiBold.ttf
  4

  0
STYLE
  5
46
330
5
100
AcDbSymbolTableRecord
100
AcDbTextStyleTableRecord
  2
OpenSans-SemiBoldItalic
 70
0
 40
0.0
 41
1.0
 50
0.0
 71
0
 42
2.5
  3
OpenSans-SemiBoldItalic.ttf
  4

  0
STYLE
  5
47
330
5
100
AcDbSymbolTableRecord
100
AcDbTextStyleTableRecord
  2
OpenSans-Bold
 70
0
 40
0.0
 41
1.0
 50
0.0
 71
0
 42
2.5
  3
OpenSans-Bold.ttf
  4

  0
STYLE
  5
48
330
5
100
AcDbSymbolTableRecord
100
AcDbTextStyleTableRecord
  2
OpenSans-BoldItalic
 70
0
 40
0.0
 41
1.0
 50
0.0
 71
0
 42
2.5
  3
OpenSans-BoldItalic.ttf
  4

  0
STYLE
  5
49
330
5
100
AcDbSymbolTableRecord
100
AcDbTextStyleTableRecord
  2
OpenSans-ExtraBold
 70
0
 40
0.0
 41
1.0
 50
0.0
 71
0
 42
2.5
  3
OpenSans-ExtraBold.ttf
  4

  0
STYLE
  5
4A
330
5
100
AcDbSymbolTableRecord
100
AcDbTextStyleTableRecord
  2
OpenSans-ExtraBoldItalic
 70
0
 40
0.0
 41
1.0
 50
0.0
 71
0
 42
2.5
  3
OpenSans-ExtraBoldItalic.ttf
  4

  0
STYLE
  5
4B
330
5
100
AcDbSymbolTableRecord
100
AcDbTextStyleTableRecord
  2
OpenSansCondensed-Bold
 70
0
 40
0.0
 41
1.0
 50
0.0
 71
0
 42
2.5
  3
OpenSansCondensed-Bold.ttf
  4

  0
STYLE
  5
4C
330
5
100
AcDbSymbolTableRecord
100
AcDbTextStyleTableRecord
  2
OpenSansCondensed-Light
 70
0
 40
0.0
 41
1.0
 50
0.0
 71
0
 42
2.5
  3
OpenSansCondensed-Light.ttf
  4

  0
STYLE
  5
4D
330
5
100
AcDbSymbolTableRecord
100
AcDbTextStyleTableRecord
  2
OpenSansCondensed-Italic
 70
0
 40
0.0
 41
1.0
 50
0.0
 71
0
 42
2.5
  3
OpenSansCondensed-LightItalic.ttf
  4

  0
STYLE
  5
4E
330
5
100
AcDbSymbolTableRecord
100
AcDbTextStyleTableRecord
  2
LiberationSans
 70
0
 40
0.0
 41
1.0
 50
0.0
 71
0
 42
2.5
  3
LiberationSans-Regular.ttf
  4

  0
STYLE
  5
4F
330
5
100
AcDbSymbolTableRecord
100
AcDbTextStyleTableRecord
  2
LiberationSans-Bold
 70
0
 40
0.0
 41
1.0
 50
0.0
 71
0
 42
2.5
  3
LiberationSans-Bold.ttf
  4

  0
STYLE
  5
50
330
5
100
AcDbSymbolTableRecord
100
AcDbTextStyleTableRecord
  2
LiberationSans-BoldItalic
 70
0
 40
0.0
 41
1.0
 50
0.0
 71
0
 42
2.5
  3
LiberationSans-BoldItalic.ttf
  4

  0
STYLE
  5
51
330
5
100
AcDbSymbolTableRecord
100
AcDbTextStyleTableRecord
  2
LiberationSans-Italic
 70
0
 40
0.0
 41
1.0
 50
0.0
 71
0
 42
2.5
  3
LiberationSans-Italic.ttf
  4

  0
STYLE
  5
52
330
5
100
AcDbSymbolTableRecord
100
AcDbTextStyleTableRecord
  2
LiberationSerif
 70
0
 40
0.0
 41
1.0
 50
0.0
 71
0
 42
2.5
  3
LiberationSerif-Regular.ttf
  4

  0
STYLE
  5
53
330
5
100
AcDbSymbolTableRecord
100
AcDbTextStyleTableRecord
  2
LiberationSerif-Bold
 70
0
 40
0.0
 41
1.0
 50
0.0
 71
0
 42
2.5
  3
LiberationSerif-Bold.ttf
  4

  0
STYLE
  5
54
330
5
100
AcDbSymbolTableRecord
100
AcDbTextStyleTableRecord
  2
LiberationSerif-BoldItalic
 70
0
 40
0.0
 41
1.0
 50
0.0
 71
0
 42
2.5
  3
LiberationSerif-BoldItalic.ttf
  4

  0
STYLE
  5
55
330
5
100
AcDbSymbolTableRecord
100
AcDbTextStyleTableRecord
  2
LiberationSerif-Italic
 70
0
 40
0.0
 41
1.0
 50
0.0
 71
0
 42
2.5
  3
LiberationSerif-Italic.ttf
  4

  0
STYLE
  5
56
330
5
100
AcDbSymbolTableRecord
100
AcDbTextStyleTableRecord
  2
LiberationMono
 70
0
 40
0.0
 41
1.0
 50
0.0
 71
0
 42
2.5
  3
LiberationMono-Regular.ttf
  4

  0
STYLE
  5
57
330
5
100
AcDbSymbolTableRecord
100
AcDbTextStyleTableRecord
  2
LiberationMono-Bold
 70
0
 40
0.0
 41
1.0
 50
0.0
 71
0
 42
2.5
  3
LiberationMono-Bold.ttf
  4

  0
STYLE
  5
58
330
5
100
AcDbSymbolTableRecord
100
AcDbTextStyleTableRecord
  2
LiberationMono-BoldItalic
 70
0
 40
0.0
 41
1.0
 50
0.0
 71
0
 42
2.5
  3
LiberationMono-BoldItalic.ttf
  4

  0
STYLE
  5
59
330
5
100
AcDbSymbolTableRecord
100
AcDbTextStyleTableRecord
  2
LiberationMono-Italic
 70
0
 40
0.0
 41
1.0
 50
0.0
 71
0
 42
2.5
  3
LiberationMono-Italic.ttf
  4

  0
STYLE
  5
99
330
5
100
AcDbSymbolTableRecord
100
AcDbTextStyleTableRecord
  2
ZION
 70
0
 40
0.0
 41
1.0
 50
0.0
 71
0
 42
2.5
  3
arial.ttf
  4

  0
ENDTAB
  0
TABLE
  2
VIEW
  5
7
330
0
100
AcDbSymbolTable
 70
0
  0
ENDTAB
  0
TABLE
  2
UCS
  5
6
330
0
100
AcDbSymbolTable
 70
0
  0
ENDTAB
  0
TABLE
  2
APPID
  5
3
330
0
100
AcDbSymbolTable
 70
3
  0
APPID
  5
2A
330
3
100
AcDbSymbolTableRecord
100
AcDbRegAppTableRecord
  2
ACAD
 70
0
  0
APPID
  5
D4
330
3
100
AcDbSymbolTableRecord
100
AcDbRegAppTableRecord
  2
HATCHBACKGROUNDCOLOR
 70
0
  0
APPID
  5
D5
330
3
100
AcDbSymbolTableRecord
100
AcDbRegAppTableRecord
  2
EZDXF
 70
0
  0
ENDTAB
  0
TABLE
  2
DIMSTYLE
  5
4
330
0
100
AcDbSymbolTable
 70
13
100
AcDbDimStyleTable
  0
DIMSTYLE
105
2B
330
4
100
AcDbSymbolTableRecord
100
AcDbDimStyleTableRecord
  2
Standard
 70
0
 40
1.0
 41
2.5
 42
0.625
 43
3.75
 44
1.25
 45
0.0
 46
0.0
 47
0.0
 48
0.0
 49
2.5
140
2.5
141
2.5
142
0.0
143
0.03937007874
144
1.0
145
0.0
146
1.0
147
0.625
148
0.0
 69
0
 70
0
 71
0
 72
0
 73
0
 74
0
 75
0
 76
0
 77
1
 78
8
 79
3
170
0
171
3
172
1
173
0
174
0
175
0
176
0
177
0
178
0
179
2
271
2
272
2
273
2
274
3
275
0
276
0
277
2
278
44
279
0
280
0
281
0
282
0
283
0
284
8
285
0
286
0
288
0
289
3
290
0
371
-2
372
-2
  0
DIMSTYLE
105
73
330
4
100
AcDbSymbolTableRecord
100
AcDbDimStyleTableRecord
  2
EZDXF
 70
0
 40
1.0
 41
0.175
 42
0.125
 43
3.75
 44
0.375
 45
0.0
 46
0.0
 47
0.0
 48
0.0
 49
2.5
140
0.25
141
2.5
142
0.0
143
0.03937007874
144
100.0
145
0.0
146
0.5
147
0.1
148
0.0
 69
0
 70
0
 71
0
 72
0
 73
0
 74
0
 75
0
 76
0
 77
1
 78
12
 79
3
170
0
171
3
172
1
173
0
174
0
175
0
176
0
177
0
178
0
179
2
271
2
272
2
273
2
274
3
275
0
276
0
277
2
278
46
279
2
280
0
281
0
282
0
283
0
284
8
285
0
286
0
288
1
289
3
290
0
340
4C
342
74
371
-2
372
-2
  0
DIMSTYLE
105
7C
330
4
100
AcDbSymbolTableRecord
100
AcDbDimStyleTableRecord
  2
EZ_M_100_H25_CM
 70
0
 40
1.0
 41
0.25
 42
0.125
 43
3.75
 44
0.375
 45
0.0
 46
0.0
 47
0.0
 48
0.0
 49
2.5
140
0.25
141
2.5
142
0.125
143
0.03937007874
144
100.0
145
0.0
146
0.5
147
0.1
148
0.0
 69
0
 70
0
 71
0
 72
0
 73
0
 74
0
 75
0
 76
0
 77
1
 78
12
 79
3
170
0
171
3
172
1
173
0
174
0
175
0
176
0
177
0
178
0
179
2
271
2
272
2
273
2
274
3
275
0
276
0
277
2
278
46
279
2
280
0
281
0
282
0
283
0
284
8
285
0
286
0
288
1
289
3
290
0
340
4C
371
-2
372
-2
  0
DIMSTYLE
105
7D
330
4
100
AcDbSymbolTableRecord
100
AcDbDimStyleTableRecord
  2
EZ_M_50_H25_CM
 70
0
 40
1.0
 41
0.125
 42
0.0625
 43
3.75
 44
0.1875
 45
0.0
 46
0.0
 47
0.0
 48
0.0
 49
2.5
140
0.125
141
2.5
142
0.0625
143
0.03937007874
144
100.0
145
0.0
146
0.5
147
0.05
148
0.0
 69
0
 70
0
 71
0
 72
0
 73
0
 74
0
 75
0
 76
0
 77
1
 78
12
 79
3
170
0
171
3
172
1
173
0
174
0
175
0
176
0
177
0
178
0
179
2
271
2
272
2
273
2
274
3
275
0
276
0
277
2
278
46
279
2
280
0
281
0
282
0
283
0
284
8
285
0
286
0
288
1
289
3
290
0
340
4C
371
-2
372
-2
  0
DIMSTYLE
105
7E
330
4
100
AcDbSymbolTableRecord
100
AcDbDimStyleTableRecord
  2
EZ_M_25_H25_CM
 70
0
 40
1.0
 41
0.0625
 42
0.03125
 43
3.75
 44
0.09375
 45
0.0
 46
0.0
 47
0.0
 48
0.0
 49
2.5
140
0.0625
141
2.5
142
0.03125
143
0.03937007874
144
100.0
145
0.0
146
0.5
147
0.025
148
0.0
 69
0
 70
0
 71
0
 72
0
 73
0
 74
0
 75
0
 76
0
 77
1
 78
12
 79
3
170
0
171
3
172
1
173
0
174
0
175
0
176
0
177
0
178
0
179
2
271
2
272
2
273
2
274
3
275
0
276
0
277
2
278
46
279
2
280
0
281
0
282
0
283
0
284
8
285
0
286
0
288
1
289
3
290
0
340
4C
371
-2
372
-2
  0
DIMSTYLE
105
7F
330
4
100
AcDbSymbolTableRecord
100
AcDbDimStyleTableRecord
  2
EZ_M_20_H25_CM
 70
0
 40
1.0
 41
0.05
 42
0.025
 43
3.75
 44
0.07500000000000001
 45
0.0
 46
0.0
 47
0.0
 48
0.0
 49
2.5
140
0.05
141
2.5
142
0.025
143
0.03937007874
144
100.0
145
0.0
146
0.5
147
0.020000000000000004
148
0.0
 69
0
 70
0
 71
0
 72
0
 73
0
 74
0
 75
0
 76
0
 77
1
 78
12
 79
3
170
0
171
3
172
1
173
0
174
0
175
0
176
0
177
0
178
0
179
2
271
2
272
2
273
2
274
3
275
0
276
0
277
2
278
46
279
2
280
0
281
0
282
0
283
0
284
8
285
0
286
0
288
1
289
3
290
0
340
4C
371
-2
372
-2
  0
DIMSTYLE
105
80
330
4
100
AcDbSymbolTableRecord
100
AcDbDimStyleTableRecord
  2
EZ_M_10_H25_CM
 70
0
 40
1.0
 41
0.025
 42
0.0125
 43
3.75
 44
0.037500000000000006
 45
0.0
 46
0.0
 47
0.0
 48
0.0
 49
2.5
140
0.025
141
2.5
142
0.0125
143
0.03937007874
144
100.0
145
0.0
146
0.5
147
0.010000000000000002
148
0.0
 69
0
 70
0
 71
0
 72
0
 73
0
 74
0
 75
0
 76
0
 77
1
 78
12
 79
3
170
0
171
3
172
1
173
0
174
0
175
0
176
0
177
0
178
0
179
2
271
2
272
2
273
2
274
3
275
0
276
0
277
2
278
46
279
2
280
0
281
0
282
0
283
0
284
8
285
0
286
0
288
1
289
3
290
0
340
4C
371
-2
372
-2
  0
DIMSTYLE
105
81
330
4
100
AcDbSymbolTableRecord
100
AcDbDimStyleTableRecord
  2
EZ_M_5_H25_CM
 70
0
 40
1.0
 41
0.0125
 42
0.00625
 43
3.75
 44
0.018750000000000003
 45
0.0
 46
0.0
 47
0.0
 48
0.0
 49
2.5
140
0.0125
141
2.5
142
0.00625
143
0.03937007874
144
100.0
145
0.0
146
0.5
147
0.005000000000000001
148
0.0
 69
0
 70
0
 71
0
 72
0
 73
0
 74
0
 75
0
 76
0
 77
1
 78
12
 79
3
170
0
171
3
172
1
173
0
174
0
175
0
176
0
177
0
178
0
179
2
271
2
272
2
273
2
274
3
275
0
276
0
277
2
278
46
279
2
280
0
281
0
282
0
283
0
284
8
285
0
286
0
288
1
289
3
290
0
340
4C
371
-2
372
-2
  0
DIMSTYLE
105
82
330
4
100
AcDbSymbolTableRecord
100
AcDbDimStyleTableRecord
  2
EZ_M_1_H25_CM
 70
0
 40
1.0
 41
0.0025
 42
0.00125
 43
3.75
 44
0.00375
 45
0.0
 46
0.0
 47
0.0
 48
0.0
 49
2.5
140
0.0025
141
2.5
142
0.00125
143
0.03937007874
144
100.0
145
0.0
146
0.5
147
0.001
148
0.0
 69
0
 70
0
 71
0
 72
0
 73
0
 74
0
 75
0
 76
0
 77
1
 78
12
 79
3
170
0
171
3
172
1
173
0
174
0
175
0
176
0
177
0
178
0
179
2
271
2
272
2
273
2
274
3
275
0
276
0
277
2
278
46
279
2
280
0
281
0
282
0
283
0
284
8
285
0
286
0
288
1
289
3
290
0
340
4C
371
-2
372
-2
  0
DIMSTYLE
105
83
330
4
100
AcDbSymbolTableRecord
100
AcDbDimStyleTableRecord
  2
EZ_RADIUS
 70
0
 40
1.0
 41
0.25
 42
0.125
 43
3.75
 44
0.375
 45
0.0
 46
0.0
 47
0.0
 48
0.0
 49
2.5
140
0.25
141
0.0
142
0.0
143
0.03937007874
144
100.0
145
0.0
146
0.5
147
0.1
148
0.0
 69
0
 70
0
 71
0
 72
0
 73
0
 74
0
 75
0
 76
0
 77
1
 78
12
 79
3
170
0
171
3
172
0
173
0
174
0
175
0
176
0
177
0
178
0
179
2
271
2
272
2
273
2
274
3
275
0
276
0
277
2
278
46
279
1
280
0
281
0
282
0
283
0
284
8
285
0
286
0
288
1
289
3
290
0
340
4C
342
84
371
-2
372
-2
  0
DIMSTYLE
105
88
330
4
100
AcDbSymbolTableRecord
100
AcDbDimStyleTableRecord
  2
EZ_RADIUS_INSIDE
 70
0
 40
1.0
 41
0.25
 42
0.125
 43
3.75
 44
0.375
 45
0.0
 46
0.0
 47
0.0
 48
0.0
 49
2.5
140
0.25
141
0.0
142
0.0
143
0.03937007874
144
100.0
145
0.0
146
0.5
147
0.1
148
0.0
 69
0
 70
0
 71
0
 72
0
 73
0
 74
0
 75
0
 76
0
 77
0
 78
12
 79
3
170
0
171
3
172
0
173
0
174
1
175
0
176
0
177
0
178
0
179
2
271
2
272
2
273
2
274
3
275
0
276
0
277
2
278
46
279
0
280
0
281
0
282
0
283
0
284
8
285
0
286
0
288
1
289
0
290
0
340
4C
342
84
371
-2
372
-2
  0
DIMSTYLE
105
89
330
4
100
AcDbSymbolTableRecord
100
AcDbDimStyleTableRecord
  2
EZ_CURVED
 70
0
 40
1.0
 41
0.25
 42
0.125
 43
3.75
 44
0.375
 45
0.0
 46
0.0
 47
0.0
 48
0.0
 49
2.5
140
0.25
141
2.5
142
0.0
143
0.03937007874
144
100.0
145
0.0
146
0.5
147
0.1
148
0.0
 69
0
 70
0
 71
0
 72
0
 73
0
 74
0
 75
0
 76
0
 77
1
 78
12
 79
2
 90
2
170
0
171
3
172
1
173
0
174
0
175
0
176
0
177
0
178
0
179
2
271
2
272
2
273
2
274
3
275
0
276
0
277
2
278
46
279
2
280
0
281
0
282
0
283
0
284
8
285
0
286
0
288
1
289
3
290
0
340
4C
371
-2
372
-2
  0
DIMSTYLE
105
9A
330
4
100
AcDbSymbolTableRecord
100
AcDbDimStyleTableRecord
  2
ZION_M
 70
0
 40
1.0
 41
0.08
 42
0.05
 43
3.75
 44
0.06
 45
0.0
 46
0.0
 47
0.0
 48
0.0
 49
2.5
140
0.12
141
2.5
142
0.0
143
0.03937007874
144
1.0
145
0.0
146
1.0
147
0.03
148
0.0
 69
0
 70
0
 71
0
 72
0
 73
0
 74
0
 75
0
 76
0
 77
1
 78
8
 79
3
170
0
171
3
172
1
173
0
174
0
175
0
176
2
177
2
178
2
179
2
271
2
272
2
273
2
274
3
275
0
276
0
277
2
278
44
279
0
280
0
281
0
282
0
283
0
284
8
285
0
286
0
288
0
289
3
290
0
340
99
371
-2
372
-2
  0
ENDTAB
  0
TABLE
  2
BLOCK_RECORD
  5
9
330
0
100
AcDbSymbolTable
 70
7
  0
BLOCK_RECORD
  5
17
330
9
100
AcDbSymbolTableRecord
100
AcDbBlockTableRecord
  2
*Model_Space
340
1A
 70
0
280
1
281
0
  0
BLOCK_RECORD
  5
1B
330
9
100
AcDbSymbolTableRecord
100
AcDbBlockTableRecord
  2
*Paper_Space
340
1E
 70
0
280
1
281
0
  0
BLOCK_RECORD
  5
74
330
9
100
AcDbSymbolTableRecord
100
AcDbBlockTableRecord
  2
_ARCHTICK
340
0
 70
0
280
1
281
0
  0
BLOCK_RECORD
  5
78
330
9
100
AcDbSymbolTableRecord
100
AcDbBlockTableRecord
  2
_CLOSEDFILLED
340
0
 70
0
280
1
281
0
  0
BLOCK_RECORD
  5
84
330
9
100
AcDbSymbolTableRecord
100
AcDbBlockTableRecord
  2
_CLOSEDBLANK
340
0
 70
0
280
1
281
0
  0
BLOCK_RECORD
  5
B2
330
9
100
AcDbSymbolTableRecord
100
AcDbBlockTableRecord
  2
*D1
340
0
 70
0
280
1
281
0
  0
BLOCK_RECORD
  5
C1
330
9
100
AcDbSymbolTableRecord
100
AcDbBlockTableRecord
  2
*D2
340
0
 70
0
280
1
281
0
  0
ENDTAB
  0
ENDSEC
  0
SECTION
  2
BLOCKS
  0
BLOCK
  5
18
330
17
100
AcDbEntity
  8
0
100
AcDbBlockBegin
  2
*Model_Space
 70
0
 10
0.0
 20
0.0
 30
0.0
  3
*Model_Space
  1

  0
ENDBLK
  5
19
330
17
100
AcDbEntity
  8
0
100
AcDbBlockEnd
  0
BLOCK
  5
1C
330
1B
100
AcDbEntity
  8
0
100
AcDbBlockBegin
  2
*Paper_Space
 70
0
 10
0.0
 20
0.0
 30
0.0
  3
*Paper_Space
  1

  0
ENDBLK
  5
1D
330
1B
100
AcDbEntity
  8
0
100
AcDbBlockEnd
  0
BLOCK
  5
75
330
74
100
AcDbEntity
  8
0
100
AcDbBlockBegin
  2
_ARCHTICK
 70
0
 10
0.0
 20
0.0
 30
0.0
  3
_ARCHTICK
  1

  0
LWPOLYLINE
  5
77
330
74
100
AcDbEntity
  8
0
  6
BYBLOCK
 62
0
100
AcDbPolyline
 90
2
 70
0
 43
0.15
 10
-0.5
 20
-0.5
 10
0.5
 20
0.5
  0
ENDBLK
  5
76
330
74
100
AcDbEntity
  8
0
100
AcDbBlockEnd
  0
BLOCK
  5
79
330
78
100
AcDbEntity
  8
0
100
AcDbBlockBegin
  2
_CLOSEDFILLED
 70
0
 10
0.0
 20
0.0
 30
0.0
  3
_CLOSEDFILLED
  1

  0
SOLID
  5
7B
330
78
100
AcDbEntity
  8
0
  6
BYBLOCK
 62
0
100
AcDbTrace
 10
-1.0
 20
0.16439898372402537
 30
0.0
 11
0.0
 21
0.0
 31
0.0
 12
-1.0
 22
-0.16439898372402537
 32
0.0
 13
-1.0
 23
-0.16439898372402537
 33
0.0
  0
ENDBLK
  5
7A
330
78
100
AcDbEntity
  8
0
100
AcDbBlockEnd
  0
BLOCK
  5
85
330
84
100
AcDbEntity
  8
0
100
AcDbBlockBegin
  2
_CLOSEDBLANK
 70
0
 10
0.0
 20
0.0
 30
0.0
  3
_CLOSEDBLANK
  1

  0
LWPOLYLINE
  5
87
330
84
100
AcDbEntity
  8
0
  6
BYBLOCK
 62
0
100
AcDbPolyline
 90
3
 70
1
 10
-1.0
 20
0.16439898372402537
 10
0.0
 20
0.0
 10
-1.0
 20
-0.16439898372402537
  0
ENDBLK
  5
86
330
84
100
AcDbEntity
  8
0
100
AcDbBlockEnd
  0
BLOCK
  5
B3
330
B2
100
AcDbEntity
  8
0
100
AcDbBlockBegin
  2
*D1
 70
1
 10
0.0
 20
0.0
 30
0.0
  3
*D1
  1

  0
LINE
  5
B5
330
B2
100
AcDbEntity
  8
0
 62
2
100
AcDbLine
 10
-0.15
 20
-3.9499999999999997
 30
0.0
 11
-0.15
 21
-4.46
 31
0.0
  0
LINE
  5
B6
330
B2
100
AcDbEntity
  8
0
 62
2
100
AcDbLine
 10
9.6
 20
-3.9499999999999997
 30
0.0
 11
9.6
 21
-4.46
 31
0.0
  0
INSERT
  5
B7
330
B2
100
AcDbEntity
  8
COTAS
 62
2
100
AcDbBlockReference
  2
_CLOSEDFILLED
 10
-0.15
 20
-4.4
 30
0.0
 41
0.08
 42
0.08
 50
180.0
  0
INSERT
  5
B9
330
B2
100
AcDbEntity
  8
COTAS
 62
2
100
AcDbBlockReference
  2
_CLOSEDFILLED
 10
9.6
 20
-4.4
 30
0.0
 41
0.08
 42
0.08
  0
LINE
  5
BB
330
B2
100
AcDbEntity
  8
0
 62
2
100
AcDbLine
 10
-0.06999999999999999
 20
-4.4
 30
0.0
 11
9.52
 21
-4.4
 31
0.0
  0
MTEXT
  5
BC
330
B2
100
AcDbEntity
  8
COTAS
 62
2
100
AcDbMText
 10
4.725
 20
-4.3100000000000005
 30
0.0
 40
0.12
 71
5
  1
9,75
  7
ZION
  0
POINT
  5
BD
330
B2
100
AcDbEntity
  8
Defpoints
100
AcDbPoint
 10
-0.15
 20
-4.4
 30
0.0
  0
POINT
  5
BE
330
B2
100
AcDbEntity
  8
Defpoints
100
AcDbPoint
 10
-0.15
 20
-3.9
 30
0.0
  0
POINT
  5
BF
330
B2
100
AcDbEntity
  8
Defpoints
100
AcDbPoint
 10
9.6
 20
-3.9
 30
0.0
  0
ENDBLK
  5
B4
330
B2
100
AcDbEntity
  8
0
100
AcDbBlockEnd
  0
BLOCK
  5
C2
330
C1
100
AcDbEntity
  8
0
100
AcDbBlockBegin
  2
*D2
 70
1
 10
0.0
 20
0.0
 30
0.0
  3
*D2
  1

  0
LINE
  5
C4
330
C1
100
AcDbEntity
  8
0
 62
2
100
AcDbLine
 10
10.25
 20
-3.0
 30
0.0
 11
10.86
 21
-3.0
 31
0.0
  0
LINE
  5
C5
330
C1
100
AcDbEntity
  8
0
 62
2
100
AcDbLine
 10
10.25
 20
3.0
 30
0.0
 11
10.86
 21
3.0
 31
0.0
  0
INSERT
  5
C6
330
C1
100
AcDbEntity
  8
COTAS
 62
2
100
AcDbBlockReference
  2
_CLOSEDFILLED
 10
10.799999999999999
 20
-3.0
 30
0.0
 41
0.08
 42
0.08
 50
270.0
  0
INSERT
  5
C8
330
C1
100
AcDbEntity
  8
COTAS
 62
2
100
AcDbBlockReference
  2
_CLOSEDFILLED
 10
10.799999999999999
 20
3.0
 30
0.0
 41
0.08
 42
0.08
 50
90.0
  0
LINE
  5
CA
330
C1
100
AcDbEntity
  8
0
 62
2
100
AcDbLine
 10
10.799999999999999
 20
-2.92
 30
0.0
 11
10.799999999999999
 21
2.92
 31
0.0
  0
MTEXT
  5
CB
330
C1
100
AcDbEntity
  8
COTAS
 62
2
100
AcDbMText
 10
10.709999999999999
 20
0.0
 30
0.0
 40
0.12
 71
5
  1
6,00
  7
ZION
 50
90.0
  0
POINT
  5
CC
330
C1
100
AcDbEntity
  8
Defpoints
100
AcDbPoint
 10
10.799999999999999
 20
-3.0
 30
0.0
  0
POINT
  5
CD
330
C1
100
AcDbEntity
  8
Defpoints
100
AcDbPoint
 10
10.2
 20
-3.0
 30
0.0
  0
POINT
  5
CE
330
C1
100
AcDbEntity
  8
Defpoints
100
AcDbPoint
 10
10.2
 20
3.0
 30
0.0
  0
ENDBLK
  5
C3
330
C1
100
AcDbEntity
  8
0
100
AcDbBlockEnd
  0
ENDSEC
  0
SECTION
  2
ENTITIES
  0
LWPOLYLINE
  5
9B
330
17
100
AcDbEntity
  8
COBERTURA
100
AcDbPolyline
 90
240
 70
1
 10
0.5
 20
-2.484931905878817
 10
0.5764705882352941
 20
-2.5529026920495985
 10
0.6529411764705882
 20
-2.6110911051113495
 10
0.7294117647058823
 20
-2.661383174323169
 10
0.8058823529411765
 20
-2.705152198511852
 10
0.8823529411764706
 20
-2.7434347117139395
 10
0.9588235294117646
 20
-2.7770362021510016
 10
1.0352941176470587
 20
-2.8065979489875037
 10
1.111764705882353
 20
-2.8326410675503793
 10
1.1882352941176468
 20
-2.8555965516509194
 10
1.2647058823529411
 20
-2.87582636743163
 10
1.3411764705882352
 20
-2.8936386341239584
 10
1.4176470588235293
 20
-2.909298783025016
 10
1.4941176470588236
 20
-2.9230379112091596
 10
1.5705882352941176
 20
-2.9350591344530605
 10
1.6470588235294117
 20
-2.9455424845236147
 10
1.7235294117647058
 20
-2.9546487283498344
 10
1.7999999999999998
 20
-2.9625223756546553
 10
1.876470588235294
 20
-2.9692940666304883
 10
1.9529411764705882
 20
-2.9750824795890147
 10
2.0294117647058822
 20
-2.9799958623328338
 10
2.105882352941176
 20
-2.9841332652645027
 10
2.1823529411764704
 20
-2.9875855356988783
 10
2.2588235294117647
 20
-2.9904361193085407
 10
2.3352941176470585
 20
-2.992761704644777
 10
2.411764705882353
 20
-2.994632739232442
 10
2.488235294117647
 20
-2.9961138401345346
 10
2.564705882352941
 20
-2.9972641176248493
 10
2.6411764705882352
 20
-2.9981374273378014
 10
2.717647058823529
 20
-2.9987825637234913
 10
2.7941176470588234
 20
-2.9992434056315984
 10
2.870588235294117
 20
-2.999559023236657
 10
2.9470588235294115
 20
-2.9997637541920907
 10
3.023529411764706
 20
-2.9998872557796235
 10
3.0999999999999996
 20
-2.999954538842851
 10
3.176470588235294
 20
-2.9999859884126447
 10
3.252941176470588
 20
-2.99999737511359
 10
3.329411764705882
 20
-2.999999860660283
 10
3.4058823529411764
 20
-2.99999999914596
 10
3.48235294117647
 20
-2.9999976565126496
 10
3.5588235294117645
 20
-2.999983189838209
 10
3.6352941176470583
 20
-2.9999453404497185
 10
3.7117647058823526
 20
-2.9998728477107908
 10
3.788235294117647
 20
-2.9997544468430846
 10
3.8647058823529408
 20
-2.999578865900379
 10
3.941176470588235
 20
-2.9993348218922247
 10
4.017647058823529
 20
-2.999011016052389
 10
4.094117647058823
 20
-2.998596128245021
 10
4.170588235294117
 20
-2.998078810498705
 10
4.247058823529411
 20
-2.9974476796553877
 10
4.323529411764706
 20
-2.996691309117388
 10
4.3999999999999995
 20
-2.9957982196714874
 10
4.476470588235294
 20
-2.99475686936428
 10
4.552941176470588
 20
-2.9935556423975385
 10
4.629411764705882
 20
-2.9921828370063355
 10
4.705882352941176
 20
-2.9906266522758713
 10
4.7823529411764705
 20
-2.9888751738454307
 10
4.858823529411764
 20
-2.986916358439494
 10
4.935294117647058
 20
-2.9847380171566407
 10
5.011764705882353
 20
-2.9823277974364184
 10
5.088235294117647
 20
-2.9796731636126426
 10
5.164705882352941
 20
-2.976761375948474
 10
5.241176470588234
 20
-2.9735794680338867
 10
5.317647058823529
 20
-2.970114222409549
 10
5.394117647058823
 20
-2.9663521442624265
 10
5.470588235294117
 20
-2.9622794330172084
 10
5.547058823529412
 20
-2.957881951623614
 10
5.623529411764705
 20
-2.953145193312211
 10
5.699999999999999
 20
-2.9480542455601184
 10
5.776470588235293
 20
-2.9425937509720765
 10
5.852941176470588
 20
-2.9367478647411613
 10
5.929411764705882
 20
-2.930500208305902
 10
6.005882352941176
 20
-2.9238338187655524
 10
6.08235294117647
 20
-2.9167310935514346
 10
6.158823529411764
 20
-2.9091737297779137
 10
6.235294117647058
 20
-2.9011426576096113
 10
6.311764705882353
 20
-2.8926179668795013
 10
6.388235294117647
 20
-2.88357882607239
 10
6.46470588235294
 20
-2.8740033926463195
 10
6.541176470588234
 20
-2.8638687134959104
 10
6.617647058823529
 20
-2.8531506141608203
 10
6.694117647058823
 20
-2.841823575142122
 10
6.770588235294117
 20
-2.829860593400395
 10
6.847058823529411
 20
-2.8172330267602277
 10
6.923529411764705
 20
-2.803910418522091
 10
6.999999999999999
 20
-2.7898602990654684
 10
7.076470588235294
 20
-2.775047960592907
 10
7.152941176470588
 20
-2.7594362003820443
 10
7.2294117647058815
 20
-2.742985026941391
 10
7.305882352941175
 20
-2.725651322252289
 10
7.38235294117647
 20
-2.707388451753576
 10
7.458823529411764
 20
-2.688145811792679
 10
7.535294117647058
 20
-2.667868301799913
 10
7.6117647058823525
 20
-2.6464957052683156
 10
7.688235294117646
 20
-2.6239619595008836
 10
7.76470588235294
 20
-2.6001942886885083
 10
7.841176470588234
 20
-2.5751121677377804
 10
7.917647058823529
 20
-2.5486260747111187
 10
7.994117647058823
 20
-2.520635976807957
 10
8.070588235294117
 20
-2.4910294770891936
 10
8.147058823529411
 20
-2.459679524515723
 10
8.223529411764705
 20
-2.426441555128867
 10
8.299999999999999
 20
-2.3911498823822352
 10
8.376470588235293
 20
-2.353613081893754
 10
8.452941176470588
 20
-2.31360800752388
 10
8.529411764705882
 20
-2.2708719106096766
 10
8.605882352941176
 20
-2.225091876335507
 10
8.68235294117647
 20
-2.1758903769105546
 10
8.758823529411764
 20
-2.122805053729304
 10
8.835294117647058
 20
-2.065259656865152
 10
8.911764705882351
 20
-2.0025209421011736
 10
8.988235294117645
 20
-1.933632300825034
 10
9.064705882352941
 20
-1.8573068087370608
 10
9.141176470588235
 20
-1.7717448650848096
 10
9.217647058823529
 20
-1.6742999580294056
 10
9.294117647058822
 20
-1.5608042921045109
 10
9.370588235294116
 20
-1.4240112015946522
 10
9.44705882352941
 20
-1.2491660993813607
 10
9.523529411764706
 20
-0.9955736464356002
 10
9.6
 20
-0.0
 10
9.6
 20
0.0
 10
9.523529411764706
 20
0.9955736464356002
 10
9.447058823529412
 20
1.249166099381355
 10
9.370588235294118
 20
1.4240112015946482
 10
9.294117647058822
 20
1.5608042921045109
 10
9.217647058823529
 20
1.6742999580294056
 10
9.141176470588235
 20
1.7717448650848096
 10
9.064705882352941
 20
1.8573068087370608
 10
8.988235294117647
 20
1.9336323008250327
 10
8.911764705882353
 20
2.0025209421011727
 10
8.83529411764706
 20
2.06525965686515
 10
8.758823529411764
 20
2.122805053729304
 10
8.68235294117647
 20
2.1758903769105546
 10
8.605882352941176
 20
2.225091876335507
 10
8.529411764705882
 20
2.2708719106096766
 10
8.452941176470588
 20
2.31360800752388
 10
8.376470588235295
 20
2.3536130818937533
 10
8.3
 20
2.3911498823822344
 10
8.223529411764705
 20
2.426441555128867
 10
8.147058823529411
 20
2.459679524515723
 10
8.070588235294117
 20
2.4910294770891936
 10
7.9941176470588236
 20
2.520635976807957
 10
7.91764705882353
 20
2.5486260747111187
 10
7.841176470588235
 20
2.57511216773778
 10
7.764705882352941
 20
2.600194288688508
 10
7.688235294117646
 20
2.6239619595008836
 10
7.6117647058823525
 20
2.6464957052683156
 10
7.535294117647059
 20
2.667868301799913
 10
7.458823529411765
 20
2.688145811792679
 10
7.382352941176471
 20
2.7073884517535753
 10
7.305882352941176
 20
2.725651322252289
 10
7.229411764705882
 20
2.7429850269413905
 10
7.152941176470588
 20
2.7594362003820443
 10
7.076470588235294
 20
2.775047960592907
 10
7.0
 20
2.7898602990654684
 10
6.923529411764706
 20
2.803910418522091
 10
6.847058823529412
 20
2.8172330267602277
 10
6.770588235294118
 20
2.8298605934003946
 10
6.694117647058823
 20
2.841823575142122
 10
6.617647058823529
 20
2.8531506141608203
 10
6.541176470588235
 20
2.8638687134959104
 10
6.464705882352941
 20
2.8740033926463195
 10
6.3882352941176475
 20
2.88357882607239
 10
6.311764705882353
 20
2.8926179668795013
 10
6.235294117647059
 20
2.901142657609611
 10
6.158823529411764
 20
2.9091737297779137
 10
6.08235294117647
 20
2.9167310935514346
 10
6.0058823529411764
 20
2.9238338187655524
 10
5.929411764705883
 20
2.9305002083059017
 10
5.852941176470589
 20
2.9367478647411613
 10
5.776470588235294
 20
2.9425937509720765
 10
5.7
 20
2.9480542455601184
 10
5.623529411764705
 20
2.953145193312211
 10
5.547058823529412
 20
2.957881951623614
 10
5.470588235294118
 20
2.9622794330172084
 10
5.394117647058824
 20
2.966352144262426
 10
5.317647058823529
 20
2.970114222409549
 10
5.241176470588235
 20
2.9735794680338867
 10
5.1647058823529415
 20
2.976761375948474
 10
5.088235294117647
 20
2.9796731636126426
 10
5.011764705882353
 20
2.9823277974364184
 10
4.935294117647059
 20
2.9847380171566407
 10
4.858823529411765
 20
2.9869163584394935
 10
4.7823529411764705
 20
2.9888751738454307
 10
4.705882352941177
 20
2.9906266522758713
 10
4.629411764705883
 20
2.9921828370063355
 10
4.552941176470588
 20
2.9935556423975385
 10
4.476470588235294
 20
2.99475686936428
 10
4.4
 20
2.9957982196714874
 10
4.3235294117647065
 20
2.9966913091173875
 10
4.247058823529412
 20
2.9974476796553877
 10
4.170588235294118
 20
2.998078810498705
 10
4.094117647058824
 20
2.998596128245021
 10
4.017647058823529
 20
2.999011016052389
 10
3.9411764705882355
 20
2.9993348218922247
 10
3.8647058823529417
 20
2.999578865900379
 10
3.788235294117647
 20
2.9997544468430846
 10
3.711764705882353
 20
2.9998728477107908
 10
3.6352941176470592
 20
2.9999453404497185
 10
3.5588235294117654
 20
2.999983189838209
 10
3.4823529411764707
 20
2.9999976565126496
 10
3.405882352941177
 20
2.99999999914596
 10
3.329411764705883
 20
2.999999860660283
 10
3.2529411764705882
 20
2.99999737511359
 10
3.1764705882352944
 20
2.9999859884126447
 10
3.1000000000000005
 20
2.999954538842851
 10
3.023529411764706
 20
2.9998872557796235
 10
2.947058823529412
 20
2.9997637541920907
 10
2.870588235294118
 20
2.999559023236657
 10
2.7941176470588243
 20
2.9992434056315984
 10
2.7176470588235295
 20
2.9987825637234913
 10
2.6411764705882357
 20
2.9981374273378014
 10
2.564705882352942
 20
2.9972641176248493
 10
2.488235294117647
 20
2.9961138401345346
 10
2.4117647058823533
 20
2.994632739232442
 10
2.3352941176470594
 20
2.992761704644777
 10
2.2588235294117656
 20
2.9904361193085407
 10
2.182352941176471
 20
2.9875855356988783
 10
2.105882352941177
 20
2.9841332652645027
 10
2.029411764705883
 20
2.9799958623328338
 10
1.9529411764705884
 20
2.9750824795890147
 10
1.8764705882352946
 20
2.9692940666304883
 10
1.8000000000000007
 20
2.9625223756546557
 10
1.723529411764706
 20
2.9546487283498344
 10
1.6470588235294121
 20
2.9455424845236147
 10
1.5705882352941174
 20
2.9350591344530605
 10
1.4941176470588236
 20
2.9230379112091596
 10
1.4176470588235297
 20
2.909298783025016
 10
1.3411764705882359
 20
2.8936386341239584
 10
1.264705882352942
 20
2.87582636743163
 10
1.1882352941176482
 20
2.85559655165092
 10
1.1117647058823543
 20
2.8326410675503797
 10
1.0352941176470587
 20
2.8065979489875037
 10
0.9588235294117649
 20
2.777036202151002
 10
0.882352941176471
 20
2.74343471171394
 10
0.8058823529411772
 20
2.7051521985118523
 10
0.7294117647058833
 20
2.661383174323169
 10
0.6529411764705895
 20
2.611091105111351
 10
0.5764705882352938
 20
2.552902692049598
 10
0.5
 20
2.484931905878817
  0
LWPOLYLINE
  5
9C
330
17
100
AcDbEntity
  8
COBERTURA
100
AcDbPolyline
 90
81
 70
0
 10
0.45
 20
2.3730840916416054
 10
0.4285516427123808
 20
2.3949598755941746
 10
0.40692816452512653
 20
2.4120140729844475
 10
0.3851730983061238
 20
2.4242123499224055
 10
0.36333024183921536
 20
2.431530148565236
 10
0.3414435696495264
 20
2.4339527365577296
 10
0.3195571444729709
 20
2.4314752366917824
 10
0.29771502854817067
 20
2.4241026367253045
 10
0.2759611949093751
 20
2.411849779340751
 10
0.2543394388589689
 20
2.3947413322635054
 10
0.2328932897977944
 20
2.3728117386002645
 10
0.21166592359079198
 20
2.346105147497409
 10
0.1907000756443873
 20
2.3146753252589587
 10
0.17003795487061923
 20
2.278585547103051
 10
0.14972115871121794
 20
2.237908469774865
 10
0.12979058939270915
 20
2.1927259852724403
 10
0.11028637158114007
 20
2.1431290559798852
 10
0.09124777160220843
 20
2.0892175315398793
 10
0.0727131183894213
 20
2.0310999478341474
 10
0.05471972631943206
 20
1.968893308476604
 10
0.03730382008990624
 20
1.9027228492590775
 10
0.020500461791153834
 20
1.8327217860238172
 10
0.00434348031834747
 20
1.7590310464703982
 10
-0.011134596733561875
 20
1.6817989864369365
 10
-0.02590260855512444
 20
1.6011810912268094
 10
-0.03993082385602659
 20
1.5173396625821833
 10
-0.05319100072078681
 20
1.4304434919345295
 10
-0.06565644346600935
 20
1.3406675205899534
 10
-0.07730205638472815
 20
1.2481924875334645
 10
-0.08810439426964284
 20
1.1532045655612249
 10
-0.09804170961353348
 20
1.0558949864733267
 10
-0.10709399639182454
 20
0.9564596560816778
 10
-0.11524303033916078
 20
0.8550987598080543
 10
-0.12247240563890366
 20
0.7520163596663528
 10
-0.12876756795168626
 20
0.6474199834403989
 10
-0.134115843716534
 20
0.5415202068843897
 10
-0.13850646566555996
 20
0.4345302297870975
 10
-0.14193059450086837
 20
0.3266654467533025
 10
-0.144381336690025
 20
0.21814301356658428
 10
-0.1458537583442719
 20
0.10918141000645408
 10
-0.1463448951515403
 20
1.2299288078842396e-15
 10
-0.1458537583442719
 20
-0.1091814100064527
 10
-0.144381336690025
 20
-0.2181430135665829
 10
-0.14193059450086848
 20
-0.32666544675330117
 10
-0.13850646566556007
 20
-0.4345302297870961
 10
-0.134115843716534
 20
-0.5415202068843885
 10
-0.12876756795168626
 20
-0.6474199834403975
 10
-0.12247240563890377
 20
-0.7520163596663516
 10
-0.11524303033916089
 20
-0.8550987598080529
 10
-0.10709399639182465
 20
-0.9564596560816756
 10
-0.09804170961353348
 20
-1.0558949864733265
 10
-0.08810439426964306
 20
-1.1532045655612235
 10
-0.07730205638472826
 20
-1.248192487533464
 10
-0.06565644346600946
 20
-1.3406675205899525
 10
-0.05319100072078692
 20
-1.4304434919345288
 10
-0.03993082385602664
 20
-1.5173396625821831
 10
-0.025902608555124496
 20
-1.6011810912268094
 10
-0.011134596733561875
 20
-1.6817989864369363
 10
0.004343480318347415
 20
-1.7590310464703975
 10
0.020500461791153668
 20
-1.8327217860238167
 10
0.037303820089906126
 20
-1.902722849259077
 10
0.054719726319431894
 20
-1.968893308476604
 10
0.07271311838942107
 20
-2.0310999478341465
 10
0.09124777160220832
 20
-2.0892175315398793
 10
0.11028637158113985
 20
-2.143129055979885
 10
0.12979058939270904
 20
-2.1927259852724394
 10
0.14972115871121783
 20
-2.2379084697748644
 10
0.17003795487061912
 20
-2.278585547103051
 10
0.19070007564438723
 20
-2.3146753252589582
 10
0.21166592359079195
 20
-2.346105147497409
 10
0.23289328979779436
 20
-2.3728117386002645
 10
0.2543394388589687
 20
-2.3947413322635054
 10
0.2759611949093749
 20
-2.4118497793407507
 10
0.29771502854817034
 20
-2.424102636725304
 10
0.31955714447297096
 20
-2.4314752366917824
 10
0.34144356964952627
 20
-2.4339527365577296
 10
0.3633302418392153
 20
-2.431530148565236
 10
0.38517309830612356
 20
-2.424212349922406
 10
0.4069281645251263
 20
-2.4120140729844475
 10
0.4285516427123806
 20
-2.394959875594175
 10
0.4499999999999997
 20
-2.3730840916416063
  0
LWPOLYLINE
  5
9D
330
17
100
AcDbEntity
  8
COBERTURA_OCULTA
100
AcDbPolyline
 90
61
 70
0
 10
0.45
 20
2.3730840916416054
 10
0.4213611311718341
 20
2.401182235877011
 10
0.3924367088565064
 20
2.4206875220229427
 10
0.36333024183921536
 20
2.431530148565236
 10
0.33414589036937004
 20
2.433671314137714
 10
0.3049880934132708
 20
2.427103356376547
 10
0.2759611949093751
 20
2.411849779340751
 10
0.24716907036362937
 20
2.387965169400684
 10
0.21871475512113137
 20
2.355534999895551
 10
0.1907000756443873
 20
2.3146753252589587
 10
0.16322528511766982
 20
2.265532365707137
 10
0.13638870468150155
 20
2.2082819839760393
 10
0.11028637158114007
 20
2.1431290559798852
 10
0.08501169548819781
 20
2.0703067376432944
 10
0.06065512422528474
 20
1.9900756305307228
 10
0.03730382008990624
 20
1.9027228492590775
 10
0.015041347935925264
 20
1.8085609940308642
 10
-0.006052623871183049
 20
1.7079270319647508
 10
-0.02590260855512444
 20
1.6011810912268094
 10
-0.0444375710653645
 20
1.4887051722777664
 10
-0.06159118228278676
 20
1.370901780848161
 10
-0.07730205638472804
 20
1.2481924875334651
 10
-0.09151397051996019
 20
1.1210164191637693
 10
-0.1041760660074888
 20
0.9898286873468276
 10
-0.11524303033916078
 20
0.8550987598080543
 10
-0.12467525933476792
 20
0.7173087803557978
 10
-0.13243899886935623
 20
0.5769518434840522
 10
-0.13850646566555996
 20
0.4345302297870975
 10
-0.14285594671869267
 20
0.29055360850081474
 10
-0.14547187699878877
 20
0.14553721360304722
 10
-0.1463448951515403
 20
6.894827170008322e-16
 10
-0.14547187699878888
 20
-0.14553721360304586
 10
-0.14285594671869267
 20
-0.2905536085008139
 10
-0.13850646566556007
 20
-0.4345302297870961
 10
-0.13243899886935623
 20
-0.5769518434840504
 10
-0.12467525933476803
 20
-0.7173087803557969
 10
-0.11524303033916089
 20
-0.8550987598080529
 10
-0.1041760660074888
 20
-0.9898286873468263
 10
-0.0915139705199603
 20
-1.1210164191637686
 10
-0.07730205638472826
 20
-1.248192487533464
 10
-0.06159118228278687
 20
-1.3709017808481598
 10
-0.044437571065364556
 20
-1.4887051722777662
 10
-0.025902608555124607
 20
-1.6011810912268085
 10
-0.006052623871183382
 20
-1.7079270319647495
 10
0.015041347935925153
 20
-1.808560994030864
 10
0.037303820089906126
 20
-1.902722849259077
 10
0.06065512422528463
 20
-1.9900756305307221
 10
0.08501169548819781
 20
-2.070306737643295
 10
0.11028637158113985
 20
-2.143129055979885
 10
0.13638870468150133
 20
-2.2082819839760384
 10
0.16322528511766976
 20
-2.2655323657071365
 10
0.19070007564438723
 20
-2.3146753252589582
 10
0.21871475512113125
 20
-2.3555349998955504
 10
0.24716907036362942
 20
-2.387965169400684
 10
0.2759611949093749
 20
-2.4118497793407507
 10
0.3049880934132706
 20
-2.427103356376547
 10
0.33414589036937004
 20
-2.433671314137714
 10
0.3633302418392153
 20
-2.431530148565236
 10
0.3924367088565063
 20
-2.4206875220229427
 10
0.4213611311718337
 20
-2.4011822358770116
 10
0.44999999999999984
 20
-2.373084091641606
  0
LWPOLYLINE
  5
9E
330
17
100
AcDbEntity
  8
COBERTURA_OCULTA
100
AcDbPolyline
 90
61
 70
0
 10
1.65
 20
2.874356020243489
 10
1.6343746938030315
 20
2.9077515854871807
 10
1.6185969124491904
 20
2.930779091454165
 10
1.602722914173584
 20
2.9433564298419124
 10
1.5868093002883399
 20
2.9454387541131206
 10
1.5709128133614594
 20
2.937018639403304
 10
1.5550901348919985
 20
2.918126108995354
 10
1.5393976832030036
 20
2.8888285272666594
 10
1.5238914122728406
 20
2.849230359490506
 10
1.5086266122222223
 20
2.799472799348226
 10
1.4936577121683272
 20
2.739733265480254
 10
1.4790380861489651
 20
2.670224768871227
 10
1.4648198628088007
 20
2.5911951533248163
 10
1.451053739526226
 20
2.502926211736499
 10
1.4377888016436466
 20
2.405732681315342
 10
1.4250723474457425
 20
2.299961121337506
 10
1.412949719509772
 20
2.185988677433007
 10
1.4014641430292687
 20
2.0642217368118847
 10
1.3906565716876114
 20
1.935094479224777
 10
1.3805655416310332
 20
1.7990673288246894
 10
1.3712270340617494
 20
1.6566253124501014
 10
1.3626743469411533
 20
1.5082763301832052
 10
1.3549379762605407
 20
1.3545493443498962
 10
1.3480455073027133
 20
1.195992493418915
 10
1.342021516282185
 20
1.033171137525352
 10
1.3368874827147077
 20
0.8666658425875083
 10
1.3326617128285787
 20
0.6970703102050724
 10
1.3293592742908191
 20
0.5249892607198994
 10
1.326991942480965
 20
0.3510362769876793
 10
1.3255681585040462
 20
0.17583161654887666
 10
1.325092999092457
 20
1.8038540447556645e-16
 10
1.3255681585040462
 20
-0.1758316165488763
 10
1.326991942480965
 20
-0.3510362769876789
 10
1.3293592742908191
 20
-0.5249892607198989
 10
1.3326617128285787
 20
-0.6970703102050719
 10
1.3368874827147077
 20
-0.866665842587508
 10
1.342021516282185
 20
-1.0331711375253518
 10
1.3480455073027133
 20
-1.1959924934189146
 10
1.3549379762605405
 20
-1.3545493443498957
 10
1.3626743469411533
 20
-1.508276330183205
 10
1.3712270340617494
 20
-1.656625312450101
 10
1.3805655416310332
 20
-1.7990673288246888
 10
1.3906565716876114
 20
-1.9350944792247764
 10
1.4014641430292687
 20
-2.0642217368118847
 10
1.412949719509772
 20
-2.185988677433007
 10
1.4250723474457425
 20
-2.2999611213375055
 10
1.4377888016436466
 20
-2.4057326813153415
 10
1.451053739526226
 20
-2.502926211736498
 10
1.4648198628088007
 20
-2.591195153324816
 10
1.4790380861489651
 20
-2.6702247688712264
 10
1.4936577121683272
 20
-2.7397332654802535
 10
1.5086266122222223
 20
-2.7994727993482256
 10
1.5238914122728404
 20
-2.849230359490506
 10
1.5393976832030034
 20
-2.8888285272666594
 10
1.5550901348919985
 20
-2.918126108995354
 10
1.5709128133614592
 20
-2.9370186394033038
 10
1.5868093002883399
 20
-2.9454387541131206
 10
1.6027229141735837
 20
-2.943356429841913
 10
1.6185969124491901
 20
-2.930779091454165
 10
1.6343746938030315
 20
-2.9077515854871807
 10
1.65
 20
-2.8743560202434892
  0
LWPOLYLINE
  5
9F
330
17
100
AcDbEntity
  8
COBERTURA_OCULTA
100
AcDbPolyline
 90
61
 70
0
 10
2.85
 20
2.927641914845135
 10
2.847753534870038
 20
2.9613466014275933
 10
2.8454853761747363
 20
2.984510439291311
 10
2.8432035973755623
 20
2.9970509772600065
 10
2.8409163204144456
 20
2.998923577561958
 10
2.838631686803905
 20
2.9901215747171834
 10
2.836357828647509
 20
2.9706762992630695
 10
2.834102839693832
 20
2.9406569662340045
 10
2.831874746526933
 20
2.9001704287919736
 10
2.8296814799959034
 20
2.8493607978850566
 10
2.8275308469851828
 20
2.788408929287645
 10
2.825430502626124
 20
2.7175317798482554
 10
2.823387923048721
 20
2.636981635236351
 10
2.8214103787704827
 20
2.5470452119369997
 10
2.819504908817191
 20
2.448042636689789
 10
2.8176782956676356
 20
2.34032630700467
 10
2.8159370411115323
 20
2.224279636810698
 10
2.8142873431065425
 20
2.1003156917025056
 10
2.812735073716779
 20
1.968875718642313
 10
2.8112857582113193
 20
1.83042757535098
 10
2.8099445553971347
 20
1.6854640649786428
 10
2.8087162392564253
 20
1.5345011819826333
 10
2.807605181953737
 20
1.378076275456445
 10
2.8066153382733363
 20
1.2167461364473497
 10
2.8057502315422402
 20
1.051085016070784
 10
2.8050129410890134
 20
0.8816825814760194
 10
2.8044060912829636
 20
0.7091418169387854
 10
2.803931842192755
 20
0.5340768775518798
 10
2.803591881897694
 20
0.3571109031534918
 10
2.8033874204790448
 20
0.178873800274519
 10
2.803319185712774
 20
1.8366556493950146e-16
 10
2.8033874204790448
 20
-0.17887380027451863
 10
2.803591881897694
 20
-0.3571109031534914
 10
2.803931842192755
 20
-0.53407687755188
 10
2.8044060912829636
 20
-0.7091418169387844
 10
2.8050129410890134
 20
-0.8816825814760184
 10
2.8057502315422402
 20
-1.0510850160707825
 10
2.8066153382733363
 20
-1.21674613644735
 10
2.807605181953737
 20
-1.3780762754564448
 10
2.8087162392564253
 20
-1.5345011819826315
 10
2.8099445553971347
 20
-1.6854640649786434
 10
2.8112857582113193
 20
-1.8304275753509798
 10
2.812735073716779
 20
-1.9688757186423116
 10
2.8142873431065425
 20
-2.1003156917025048
 10
2.8159370411115323
 20
-2.224279636810698
 10
2.8176782956676356
 20
-2.3403263070046694
 10
2.819504908817191
 20
-2.4480426366897885
 10
2.8214103787704827
 20
-2.5470452119369997
 10
2.823387923048721
 20
-2.6369816352363507
 10
2.825430502626124
 20
-2.717531779848255
 10
2.8275308469851828
 20
-2.7884089292876446
 10
2.8296814799959034
 20
-2.8493607978850566
 10
2.831874746526933
 20
-2.9001704287919736
 10
2.834102839693832
 20
-2.940656966234004
 10
2.836357828647509
 20
-2.9706762992630695
 10
2.838631686803905
 20
-2.9901215747171834
 10
2.8409163204144456
 20
-2.998923577561958
 10
2.8432035973755623
 20
-2.997050977260006
 10
2.8454853761747363
 20
-2.984510439291311
 10
2.8477535348700376
 20
-2.9613466014275938
 10
2.85
 20
-2.927641914845135
  0
LWPOLYLINE
  5
A0
330
17
100
AcDbEntity
  8
COBERTURA_OCULTA
100
AcDbPolyline
 90
61
 70
0
 10
4.05
 20
2.926404007498842
 10
4.05
 20
2.9602815755656144
 10
4.05
 20
2.9836110271474396
 10
4.05
 20
2.9963092344179496
 10
4.05
 20
2.9983309509483775
 10
4.05
 20
2.9896689729302617
 10
4.05
 20
2.970354164844157
 10
4.05
 20
2.9404553494828867
 10
4.05
 20
2.9000790627212134
 10
4.05
 20
2.849369173905724
 10
4.05
 20
2.7885063732175754
 10
4.05
 20
2.717707527834727
 10
4.05
 20
2.6372249091877964
 10
4.05
 20
2.5473452940629886
 10
4.05
 20
2.4483889427550607
 10
4.05
 20
2.34070845791139
 10
4.05
 20
2.2246875281333103
 10
4.05
 20
2.1007395608115553
 10
4.05
 20
1.9693062090672924
 10
4.05
 20
1.830855798047578
 10
4.05
 20
1.6858816561826804
 10
4.05
 20
1.534900357351353
 10
4.05
 20
1.3784498802176086
 10
4.05
 20
1.217087691297659
 10
4.05
 20
1.0513887585874655
 10
4.05
 20
0.881943502828788
 10
4.05
 20
0.7093556937137804
 10
4.05
 20
0.5342402985244218
 10
4.05
 20
0.35722129087255233
 10
4.05
 20
0.178929427348415
 10
4.05
 20
1.8362643481919396e-16
 10
4.05
 20
-0.17892942734841466
 10
4.05
 20
-0.3572212908725526
 10
4.05
 20
-0.5342402985244215
 10
4.05
 20
-0.70935569371378
 10
4.05
 20
-0.8819435028287876
 10
4.05
 20
-1.0513887585874653
 10
4.05
 20
-1.2170876912976585
 10
4.05
 20
-1.3784498802176084
 10
4.05
 20
-1.5349003573513529
 10
4.05
 20
-1.6858816561826788
 10
4.05
 20
-1.8308557980475784
 10
4.05
 20
-1.969306209067292
 10
4.05
 20
-2.1007395608115544
 10
4.05
 20
-2.2246875281333107
 10
4.05
 20
-2.34070845791139
 10
4.05
 20
-2.4483889427550602
 10
4.05
 20
-2.5473452940629886
 10
4.05
 20
-2.6372249091877964
 10
4.05
 20
-2.7177075278347265
 10
4.05
 20
-2.7885063732175754
 10
4.05
 20
-2.849369173905724
 10
4.05
 20
-2.9000790627212134
 10
4.05
 20
-2.940455349482887
 10
4.05
 20
-2.970354164844157
 10
4.05
 20
-2.9896689729302617
 10
4.05
 20
-2.9983309509483775
 10
4.05
 20
-2.9963092344179496
 10
4.05
 20
-2.9836110271474396
 10
4.05
 20
-2.9602815755656144
 10
4.05
 20
-2.926404007498842
  0
LWPOLYLINE
  5
A1
330
17
100
AcDbEntity
  8
COBERTURA_OCULTA
100
AcDbPolyline
 90
61
 70
0
 10
5.25
 20
2.895807115550346
 10
5.25
 20
2.9309988578967743
 10
5.25
 20
2.9556485736920544
 10
5.25
 20
2.9696676044375003
 10
5.25
 20
2.973005527392776
 10
5.25
 20
2.965650336933133
 10
5.25
 20
2.94762848773047
 10
5.25
 20
2.919004799602877
 10
5.25
 20
2.8798822243749242
 10
5.25
 20
2.8304014755872164
 10
5.25
 20
2.770740522387058
 10
5.25
 20
2.70111394942057
 10
5.25
 20
2.6217721850285556
 10
5.25
 20
2.5330006005220884
 10
5.25
 20
2.435118483777496
 10
5.25
 20
2.3284778908424375
 10
5.25
 20
2.2134623796835498
 10
5.25
 20
2.0904856306300372
 10
5.25
 20
1.9599899584750977
 10
5.25
 20
1.822444721586771
 10
5.25
 20
1.6783446337502073
 10
5.25
 20
1.528207984813218
 10
5.25
 20
1.372574776534975
 10
5.25
 20
1.212004780342713
 10
5.25
 20
1.047075523982176
 10
5.25
 20
0.8783802143032828
 10
5.25
 20
0.7065256036522184
 10
5.25
 20
0.5321298075439503
 10
5.25
 20
0.3558200814644469
 10
5.25
 20
0.17823056479883537
 10
5.25
 20
1.8205564693892163e-16
 10
5.25
 20
-0.178230564798835
 10
5.25
 20
-0.35582008146444655
 10
5.25
 20
-0.53212980754395
 10
5.25
 20
-0.7065256036522181
 10
5.25
 20
-0.8783802143032818
 10
5.25
 20
-1.0470755239821752
 10
5.25
 20
-1.2120047803427132
 10
5.25
 20
-1.3725747765349745
 10
5.25
 20
-1.5282079848132173
 10
5.25
 20
-1.6783446337502068
 10
5.25
 20
-1.8224447215867703
 10
5.25
 20
-1.9599899584750973
 10
5.25
 20
-2.0904856306300372
 10
5.25
 20
-2.2134623796835493
 10
5.25
 20
-2.3284778908424366
 10
5.25
 20
-2.435118483777496
 10
5.25
 20
-2.533000600522088
 10
5.25
 20
-2.6217721850285542
 10
5.25
 20
-2.70111394942057
 10
5.25
 20
-2.7707405223870576
 10
5.25
 20
-2.8304014755872164
 10
5.25
 20
-2.8798822243749242
 10
5.25
 20
-2.9190047996028765
 10
5.25
 20
-2.9476284877304697
 10
5.25
 20
-2.965650336933133
 10
5.25
 20
-2.973005527392776
 10
5.25
 20
-2.9696676044375003
 10
5.25
 20
-2.9556485736920544
 10
5.25
 20
-2.9309988578967743
 10
5.25
 20
-2.895807115550346
  0
LWPOLYLINE
  5
A2
330
17
100
AcDbEntity
  8
COBERTURA_OCULTA
100
AcDbPolyline
 90
61
 70
0
 10
6.45
 20
2.7875214735074767
 10
6.45
 20
2.825272365333818
 10
6.45
 20
2.852635805749048
 10
6.45
 20
2.869511189795131
 10
6.45
 20
2.8758364731063724
 10
6.45
 20
2.8715884000229415
 10
6.45
 20
2.8567825890930836
 10
6.45
 20
2.8314734756496622
 10
6.45
 20
2.7957541116721525
 10
6.45
 20
2.7497558236699224
 10
6.45
 20
2.693647729844629
 10
6.45
 20
2.6276361183069454
 10
6.45
 20
2.5519636886336734
 10
6.45
 20
2.4669086595537526
 10
6.45
 20
2.3727837460438623
 10
6.45
 20
2.2699350095944473
 10
6.45
 20
2.1587405858733
 10
6.45
 20
2.0396092944646007
 10
6.45
 20
1.912979135794869
 10
6.45
 20
1.779315680772065
 10
6.45
 20
1.6391103590585192
 10
6.45
 20
1.492878652271068
 10
6.45
 20
1.3411581987512924
 10
6.45
 20
1.184506816873926
 10
6.45
 20
1.0235004541609494
 10
6.45
 20
0.8587310697417119
 10
6.45
 20
0.6908044579444703
 10
6.45
 20
0.5203380210211548
 10
6.45
 20
0.34795849919422783
 10
6.45
 20
0.17429966637137279
 10
6.45
 20
1.7609732291014378e-16
 10
6.45
 20
-0.17429966637137242
 10
6.45
 20
-0.3479584991942288
 10
6.45
 20
-0.5203380210211545
 10
6.45
 20
-0.6908044579444712
 10
6.45
 20
-0.8587310697417128
 10
6.45
 20
-1.0235004541609491
 10
6.45
 20
-1.1845068168739257
 10
6.45
 20
-1.3411581987512922
 10
6.45
 20
-1.4928786522710675
 10
6.45
 20
-1.6391103590585205
 10
6.45
 20
-1.7793156807720651
 10
6.45
 20
-1.9129791357948687
 10
6.45
 20
-2.039609294464601
 10
6.45
 20
-2.1587405858733
 10
6.45
 20
-2.2699350095944473
 10
6.45
 20
-2.372783746043862
 10
6.45
 20
-2.466908659553753
 10
6.45
 20
-2.5519636886336734
 10
6.45
 20
-2.627636118306945
 10
6.45
 20
-2.6936477298446295
 10
6.45
 20
-2.749755823669922
 10
6.45
 20
-2.7957541116721525
 10
6.45
 20
-2.831473475649662
 10
6.45
 20
-2.8567825890930836
 10
6.45
 20
-2.8715884000229415
 10
6.45
 20
-2.8758364731063724
 10
6.45
 20
-2.869511189795131
 10
6.45
 20
-2.852635805749048
 10
6.45
 20
-2.825272365333818
 10
6.45
 20
-2.7875214735074767
  0
LWPOLYLINE
  5
A3
330
17
100
AcDbEntity
  8
COBERTURA_OCULTA
100
AcDbPolyline
 90
61
 70
0
 10
7.65
 20
2.523972691255164
 10
7.65
 20
2.5661499255411306
 10
7.65
 20
2.5984384719219356
 10
7.65
 20
2.620713906117105
 10
7.65
 20
2.6328903894877844
 10
7.65
 20
2.6349209998169045
 10
7.65
 20
2.6267979121244824
 10
7.65
 20
2.608552428821269
 10
7.65
 20
2.580254859084553
 10
7.65
 20
2.542014247920947
 10
7.65
 20
2.4939779559602164
 10
7.65
 20
2.4363310915994165
 10
7.65
 20
2.3692957976855817
 10
7.65
 20
2.2931303954857376
 10
7.65
 20
2.2081283892429644
 10
7.65
 20
2.114617335154458
 10
7.65
 20
2.012957579130005
 10
7.65
 20
1.9035408681949184
 10
7.65
 20
1.7867888408884267
 10
7.65
 20
1.66315140247477
 10
7.65
 20
1.5331049912281491
 10
7.65
 20
1.3971507424724228
 10
7.65
 20
1.2558125574504386
 10
7.65
 20
1.109635084464641
 10
7.65
 20
0.9591816200686473
 10
7.65
 20
0.8050319383975749
 10
7.65
 20
0.6477800570018225
 10
7.65
 20
0.48803194779368825
 10
7.65
 20
0.3264032019277162
 10
7.65
 20
0.16351665761318715
 10
7.65
 20
7.465419292865386e-16
 10
7.65
 20
-0.16351665761318568
 10
7.65
 20
-0.3264032019277141
 10
7.65
 20
-0.48803194779368675
 10
7.65
 20
-0.6477800570018212
 10
7.65
 20
-0.805031938397574
 10
7.65
 20
-0.9591816200686458
 10
7.65
 20
-1.1096350844646397
 10
7.65
 20
-1.2558125574504369
 10
7.65
 20
-1.397150742472421
 10
7.65
 20
-1.5331049912281494
 10
7.65
 20
-1.6631514024747678
 10
7.65
 20
-1.786788840888426
 10
7.65
 20
-1.903540868194917
 10
7.65
 20
-2.0129575791300036
 10
7.65
 20
-2.114617335154457
 10
7.65
 20
-2.2081283892429626
 10
7.65
 20
-2.293130395485737
 10
7.65
 20
-2.3692957976855813
 10
7.65
 20
-2.436331091599416
 10
7.65
 20
-2.4939779559602155
 10
7.65
 20
-2.5420142479209464
 10
7.65
 20
-2.580254859084553
 10
7.65
 20
-2.608552428821269
 10
7.65
 20
-2.6267979121244824
 10
7.65
 20
-2.6349209998169045
 10
7.65
 20
-2.6328903894877844
 10
7.65
 20
-2.6207139061171056
 10
7.65
 20
-2.598438471921936
 10
7.65
 20
-2.5661499255411315
 10
7.65
 20
-2.523972691255164
  0
LWPOLYLINE
  5
A4
330
17
100
AcDbEntity
  8
COBERTURA_OCULTA
100
AcDbPolyline
 90
61
 70
0
 10
8.75
 20
1.9593664060486347
 10
8.75
 20
2.009881281873129
 10
8.75
 20
2.0517073654684497
 10
8.75
 20
2.0846638411051335
 10
8.75
 20
2.1086082367018695
 10
8.75
 20
2.1234370397376607
 10
8.75
 20
2.1290861447403344
 10
8.75
 20
2.125531130416906
 10
8.75
 20
2.1127873652277445
 10
8.75
 20
2.0909099409481433
 10
8.75
 20
2.0599934345045057
 10
8.75
 20
2.0201714991147415
 10
8.75
 20
1.971616286500391
 10
8.75
 20
1.914537702668269
 10
8.75
 20
1.8491825004789177
 10
8.75
 20
1.7758332129247285
 10
8.75
 20
1.6948069317292096
 10
8.75
 20
1.606453936547562
 10
8.75
 20
1.511156180694583
 10
8.75
 20
1.4093256399461451
 10
8.75
 20
1.301402531552455
 10
8.75
 20
1.1878534111623547
 10
8.75
 20
1.0691691558857375
 10
8.75
 20
0.9458628422133755
 10
8.75
 20
0.8184675279679904
 10
8.75
 20
0.6875339478752764
 10
8.75
 20
0.5536281327170046
 10
8.75
 20
0.4173289623587082
 10
8.75
 20
0.2792256632302926
 10
8.75
 20
0.13991526107806068
 10
8.75
 20
-3.423927526602747e-16
 10
8.75
 20
-0.13991526107806182
 10
8.75
 20
-0.2792256632302933
 10
8.75
 20
-0.4173289623587093
 10
8.75
 20
-0.5536281327170052
 10
8.75
 20
-0.6875339478752777
 10
8.75
 20
-0.8184675279679914
 10
8.75
 20
-0.945862842213376
 10
8.75
 20
-1.0691691558857375
 10
8.75
 20
-1.187853411162355
 10
8.75
 20
-1.3014025315524553
 10
8.75
 20
-1.4093256399461458
 10
8.75
 20
-1.5111561806945832
 10
8.75
 20
-1.6064539365475627
 10
8.75
 20
-1.6948069317292096
 10
8.75
 20
-1.7758332129247287
 10
8.75
 20
-1.8491825004789177
 10
8.75
 20
-1.9145377026682693
 10
8.75
 20
-1.9716162865003914
 10
8.75
 20
-2.020171499114741
 10
8.75
 20
-2.0599934345045057
 10
8.75
 20
-2.0909099409481433
 10
8.75
 20
-2.1127873652277445
 10
8.75
 20
-2.125531130416906
 10
8.75
 20
-2.1290861447403344
 10
8.75
 20
-2.1234370397376607
 10
8.75
 20
-2.1086082367018695
 10
8.75
 20
-2.0846638411051335
 10
8.75
 20
-2.0517073654684497
 10
8.75
 20
-2.009881281873129
 10
8.75
 20
-1.9593664060486347
  0
LWPOLYLINE
  5
A5
330
17
100
AcDbEntity
  8
ESQUADRIAS
100
AcDbPolyline
 90
4
 70
1
 10
1.6346153846153846
 20
-0.36225
 10
6.6
 20
-0.36225
 10
6.6
 20
0.36225
 10
1.6346153846153846
 20
0.36225
  0
LWPOLYLINE
  5
A6
330
17
100
AcDbEntity
  8
ESTRUTURA
100
AcDbPolyline
 90
60
 70
0
 10
0.9
 20
2.763634731948139
 10
1.0423728813559323
 20
2.8200305617115013
 10
1.1847457627118645
 20
2.864608475802867
 10
1.3271186440677967
 20
2.8998715663538563
 10
1.4694915254237289
 20
2.927665888880721
 10
1.611864406779661
 20
2.949409426158323
 10
1.7542372881355934
 20
2.966227424579807
 10
1.8966101694915256
 20
2.979036355647612
 10
2.038983050847458
 20
2.988597877837607
 10
2.18135593220339
 20
2.9955543541523437
 10
2.323728813559322
 20
3.0004525319169475
 10
2.4661016949152543
 20
3.0037593551696076
 10
2.6084745762711865
 20
3.005872410828256
 10
2.7508474576271187
 20
3.007126659206793
 10
2.893220338983051
 20
3.0077985888470975
 10
3.035593220338983
 20
3.0081086158147565
 10
3.1779661016949152
 20
3.0082223348291715
 10
3.3203389830508474
 20
3.0082510752035243
 10
3.4627118644067796
 20
3.0082459198417806
 10
3.6050847457627118
 20
3.0081468042738533
 10
3.747457627118644
 20
3.007876255929406
 10
3.889830508474576
 20
3.0073625430184605
 10
4.032203389830508
 20
3.006533440549314
 10
4.1745762711864405
 20
3.005316128433919
 10
4.3169491525423735
 20
3.0036370485524304
 10
4.459322033898306
 20
3.001421719607361
 10
4.601694915254238
 20
2.998594507896437
 10
4.74406779661017
 20
2.995078351266858
 10
4.886440677966102
 20
2.9907944324527342
 10
5.028813559322034
 20
2.9856617967009926
 10
5.171186440677967
 20
2.9795969070027275
 10
5.313559322033899
 20
2.9725131282899935
 10
5.455932203389831
 20
2.9643201295279686
 10
5.598305084745763
 20
2.9549231895872263
 10
5.740677966101695
 20
2.9442223889262156
 10
5.8830508474576275
 20
2.932111664183308
 10
6.02542372881356
 20
2.9184776964007106
 10
6.167796610169492
 20
2.9031985952615558
 10
6.310169491525424
 20
2.8861423306832403
 10
6.452542372881356
 20
2.867164848323771
 10
6.594915254237288
 20
2.8461077854957395
 10
6.737288135593221
 20
2.822795676390709
 10
6.879661016949153
 20
2.797032497013968
 10
7.022033898305085
 20
2.7685973456523105
 10
7.164406779661017
 20
2.737238976003232
 10
7.306779661016949
 20
2.702668784483244
 10
7.4491525423728815
 20
2.6645516798434277
 10
7.591525423728814
 20
2.6224939971351224
 10
7.733898305084747
 20
2.576027199093542
 10
7.876271186440679
 20
2.5245854288591096
 10
8.018644067796611
 20
2.467473840067591
 10
8.161016949152543
 20
2.403822649945801
 10
8.303389830508475
 20
2.332518258378415
 10
8.445762711864408
 20
2.2520958706717544
 10
8.58813559322034
 20
2.1605639703419204
 10
8.730508474576272
 20
2.0550999354478074
 10
8.872881355932204
 20
1.9314807034813362
 10
9.015254237288136
 20
1.7829046326138962
 10
9.157627118644069
 20
1.5971783949643175
 10
9.3
 20
1.3483179148263054
  0
LWPOLYLINE
  5
A7
330
17
100
AcDbEntity
  8
ESTRUTURA
100
AcDbPolyline
 90
60
 70
0
 10
0.9
 20
-2.763634731948139
 10
1.0423728813559323
 20
-2.8200305617115013
 10
1.1847457627118645
 20
-2.864608475802867
 10
1.3271186440677967
 20
-2.8998715663538563
 10
1.4694915254237289
 20
-2.927665888880721
 10
1.611864406779661
 20
-2.949409426158323
 10
1.7542372881355934
 20
-2.966227424579807
 10
1.8966101694915256
 20
-2.979036355647612
 10
2.038983050847458
 20
-2.988597877837607
 10
2.18135593220339
 20
-2.9955543541523437
 10
2.323728813559322
 20
-3.0004525319169475
 10
2.4661016949152543
 20
-3.0037593551696076
 10
2.6084745762711865
 20
-3.005872410828256
 10
2.7508474576271187
 20
-3.007126659206793
 10
2.893220338983051
 20
-3.0077985888470975
 10
3.035593220338983
 20
-3.0081086158147565
 10
3.1779661016949152
 20
-3.0082223348291715
 10
3.3203389830508474
 20
-3.0082510752035243
 10
3.4627118644067796
 20
-3.0082459198417806
 10
3.6050847457627118
 20
-3.0081468042738533
 10
3.747457627118644
 20
-3.007876255929406
 10
3.889830508474576
 20
-3.0073625430184605
 10
4.032203389830508
 20
-3.006533440549314
 10
4.1745762711864405
 20
-3.005316128433919
 10
4.3169491525423735
 20
-3.0036370485524304
 10
4.459322033898306
 20
-3.001421719607361
 10
4.601694915254238
 20
-2.998594507896437
 10
4.74406779661017
 20
-2.995078351266858
 10
4.886440677966102
 20
-2.9907944324527342
 10
5.028813559322034
 20
-2.9856617967009926
 10
5.171186440677967
 20
-2.9795969070027275
 10
5.313559322033899
 20
-2.9725131282899935
 10
5.455932203389831
 20
-2.9643201295279686
 10
5.598305084745763
 20
-2.9549231895872263
 10
5.740677966101695
 20
-2.9442223889262156
 10
5.8830508474576275
 20
-2.932111664183308
 10
6.02542372881356
 20
-2.9184776964007106
 10
6.167796610169492
 20
-2.9031985952615558
 10
6.310169491525424
 20
-2.8861423306832403
 10
6.452542372881356
 20
-2.867164848323771
 10
6.594915254237288
 20
-2.8461077854957395
 10
6.737288135593221
 20
-2.822795676390709
 10
6.879661016949153
 20
-2.797032497013968
 10
7.022033898305085
 20
-2.7685973456523105
 10
7.164406779661017
 20
-2.737238976003232
 10
7.306779661016949
 20
-2.702668784483244
 10
7.4491525423728815
 20
-2.6645516798434277
 10
7.591525423728814
 20
-2.6224939971351224
 10
7.733898305084747
 20
-2.576027199093542
 10
7.876271186440679
 20
-2.5245854288591096
 10
8.018644067796611
 20
-2.467473840067591
 10
8.161016949152543
 20
-2.403822649945801
 10
8.303389830508475
 20
-2.332518258378415
 10
8.445762711864408
 20
-2.2520958706717544
 10
8.58813559322034
 20
-2.1605639703419204
 10
8.730508474576272
 20
-2.0550999354478074
 10
8.872881355932204
 20
-1.9314807034813362
 10
9.015254237288136
 20
-1.7829046326138962
 10
9.157627118644069
 20
-1.5971783949643175
 10
9.3
 20
-1.3483179148263054
  0
CIRCLE
  5
A8
330
17
100
AcDbEntity
  8
ESTRUTURA
100
AcDbCircle
 10
0.95
 20
-2.75
 30
0.0
 40
0.06
  0
TEXT
  5
A9
330
17
100
AcDbEntity
  8
TEXTO
100
AcDbText
 10
0.95
 20
-2.45
 30
0.0
 40
0.1
  1
TQ Ø75
  7
ZION
 72
1
 11
0.95
 21
-2.45
 31
0.0
100
AcDbText
 73
2
  0
CIRCLE
  5
AA
330
17
100
AcDbEntity
  8
ESTRUTURA
100
AcDbCircle
 10
0.95
 20
2.75
 30
0.0
 40
0.06
  0
TEXT
  5
AB
330
17
100
AcDbEntity
  8
TEXTO
100
AcDbText
 10
0.95
 20
3.05
 30
0.0
 40
0.1
  1
TQ Ø75
  7
ZION
 72
1
 11
0.95
 21
3.05
 31
0.0
100
AcDbText
 73
2
  0
CIRCLE
  5
AC
330
17
100
AcDbEntity
  8
ESTRUTURA
100
AcDbCircle
 10
9.25
 20
-1.2
 30
0.0
 40
0.06
  0
TEXT
  5
AD
330
17
100
AcDbEntity
  8
TEXTO
100
AcDbText
 10
9.25
 20
-0.8999999999999999
 30
0.0
 40
0.1
  1
TQ Ø75
  7
ZION
 72
1
 11
9.25
 21
-0.8999999999999999
 31
0.0
100
AcDbText
 73
2
  0
CIRCLE
  5
AE
330
17
100
AcDbEntity
  8
ESTRUTURA
100
AcDbCircle
 10
9.25
 20
1.2
 30
0.0
 40
0.06
  0
TEXT
  5
AF
330
17
100
AcDbEntity
  8
TEXTO
100
AcDbText
 10
9.25
 20
1.5
 30
0.0
 40
0.1
  1
TQ Ø75
  7
ZION
 72
1
 11
9.25
 21
1.5
 31
0.0
100
AcDbText
 73
2
  0
LWPOLYLINE
  5
B0
330
17
100
AcDbEntity
  8
DECK
100
AcDbPolyline
 90
4
 70
1
 10
-3.7
 20
-3.25
 10
0.9
 20
-3.25
 10
0.9
 20
3.25
 10
-3.7
 20
3.25
  0
DIMENSION
  5
B1
330
17
100
AcDbEntity
  8
COTAS
100
AcDbDimension
280
0
  2
*D1
  3
ZION_M
 10
-0.15
 20
-4.4
 30
0.0
 11
4.725
 21
-4.3100000000000005
 31
0.0
 70
32
 71
5
  1
9,75
100
AcDbAlignedDimension
 13
-0.15
 23
-3.9
 33
0.0
 14
9.6
 24
-3.9
 34
0.0
 50
0.0
100
AcDbRotatedDimension
  0
DIMENSION
  5
C0
330
17
100
AcDbEntity
  8
COTAS
100
AcDbDimension
280
0
  2
*D2
  3
ZION_M
 10
10.799999999999999
 20
-3.0
 30
0.0
 11
10.709999999999999
 21
0.0
 31
0.0
 70
32
 71
5
  1
6,00
100
AcDbAlignedDimension
 13
10.2
 23
-3.0
 33
0.0
 14
10.2
 24
3.0
 34
0.0
 50
90.0
100
AcDbRotatedDimension
  0
CIRCLE
  5
CF
330
17
100
AcDbEntity
  8
TEXTO
100
AcDbCircle
 10
-4.300000000000001
 20
5.6
 30
0.0
 40
0.32549999999999996
  0
HATCH
  5
D0
330
17
100
AcDbEntity
  8
TEXTO
 62
7
100
AcDbHatch
 10
0.0
 20
0.0
 30
0.0
210
0.0
220
0.0
230
1.0
  2
SOLID
 70
1
 71
0
 91
1
 92
3
 72
0
 73
1
 93
10
 10
-4.461
 20
5.74
 10
-4.139
 20
5.74
 10
-4.139
 20
5.6805
 10
-4.363
 20
5.5195
 10
-4.139
 20
5.5195
 10
-4.139
 20
5.46
 10
-4.461
 20
5.46
 10
-4.461
 20
5.5195
 10
-4.237
 20
5.6805
 10
-4.461
 20
5.6805
 97
0
 75
0
 76
1
 98
0
  0
LWPOLYLINE
  5
D1
330
17
100
AcDbEntity
  8
TEXTO
100
AcDbPolyline
 90
10
 70
1
 10
-4.461
 20
5.74
 10
-4.139
 20
5.74
 10
-4.139
 20
5.6805
 10
-4.363
 20
5.5195
 10
-4.139
 20
5.5195
 10
-4.139
 20
5.46
 10
-4.461
 20
5.46
 10
-4.461
 20
5.5195
 10
-4.237
 20
5.6805
 10
-4.461
 20
5.6805
  0
TEXT
  5
D2
330
17
100
AcDbEntity
  8
TEXTO
100
AcDbText
 10
-3.7
 20
5.6
 30
0.0
 40
0.35
  1
ZION CASULO · PLANTA DE COBERTURA · calha oculta no rodapé, TQ Ø75, Espinha de Luz · 1:50
  7
ZION
 11
-3.7
 21
5.6
 31
0.0
100
AcDbText
 73
2
  0
TEXT
  5
D3
330
17
100
AcDbEntity
  8
TEXTO
100
AcDbText
 10
-3.7
 20
5.279999999999999
 30
0.0
 40
0.13
  1
ZION GLAMPING COLLECTION · ZION HOTEL GROUP INTERNATIONAL
  7
ZION
 11
-3.7
 21
5.279999999999999
 31
0.0
100
AcDbText
 73
2
  0
ENDSEC
  0
SECTION
  2
OBJECTS
  0
DICTIONARY
  5
A
330
0
100
AcDbDictionary
281
1
  3
ACAD_COLOR
350
B
  3
ACAD_GROUP
350
C
  3
ACAD_LAYOUT
350
D
  3
ACAD_MATERIAL
350
E
  3
ACAD_MLEADERSTYLE
350
F
  3
ACAD_MLINESTYLE
350
10
  3
ACAD_PLOTSETTINGS
350
11
  3
ACAD_PLOTSTYLENAME
350
12
  3
ACAD_SCALELIST
350
14
  3
ACAD_TABLESTYLE
350
15
  3
ACAD_VISUALSTYLE
350
16
  3
EZDXF_META
350
2D
  0
DICTIONARY
  5
B
330
A
100
AcDbDictionary
281
1
  0
DICTIONARY
  5
C
330
A
100
AcDbDictionary
281
1
  0
DICTIONARY
  5
D
330
A
100
AcDbDictionary
281
1
  3
Model
350
1A
  3
Layout1
350
1E
  0
DICTIONARY
  5
E
330
A
100
AcDbDictionary
281
1
  3
ByBlock
350
1F
  3
ByLayer
350
20
  3
Global
350
21
  0
DICTIONARY
  5
F
330
A
100
AcDbDictionary
281
1
  3
Standard
350
2C
  0
DICTIONARY
  5
10
330
A
100
AcDbDictionary
281
1
  3
Standard
350
22
  0
DICTIONARY
  5
11
330
A
100
AcDbDictionary
281
1
  0
ACDBDICTIONARYWDFLT
  5
12
330
A
100
AcDbDictionary
281
1
  3
Normal
350
13
100
AcDbDictionaryWithDefault
340
13
  0
ACDBPLACEHOLDER
  5
13
330
12
  0
DICTIONARY
  5
14
330
A
100
AcDbDictionary
281
1
  0
DICTIONARY
  5
15
330
A
100
AcDbDictionary
281
1
  0
DICTIONARY
  5
16
330
A
100
AcDbDictionary
281
1
  3
2dWireframe
350
5A
  3
Basic
350
5B
  3
Brighten
350
5C
  3
ColorChange
350
5D
  3
Conceptual
350
5E
  3
Dim
350
5F
  3
EdgeColorOff
350
60
  3
Facepattern
350
61
  3
Flat
350
62
  3
FlatWithEdges
350
63
  3
Gouraud
350
64
  3
GouraudWithEdges
350
65
  3
Hidden
350
66
  3
JitterOff
350
67
  3
Linepattern
350
68
  3
Modeling
350
69
  3
OverhangOff
350
6A
  3
Realistic
350
6B
  3
Shaded
350
6C
  3
Shaded with edges
350
6D
  3
Shades of Gray
350
6E
  3
Sketchy
350
6F
  3
Thicken
350
70
  3
Wireframe
350
71
  3
X-Ray
350
72
  0
LAYOUT
  5
1A
330
D
100
AcDbPlotSettings
  1

  4
A3
  6

 40
7.5
 41
20.0
 42
7.5
 43
20.0
 44
420.0
 45
297.0
 46
0.0
 47
0.0
 48
0.0
 49
0.0
140
0.0
141
0.0
142
1.0
143
1.0
 70
1024
 72
1
 73
0
 74
5
  7

 75
16
 76
0
 77
2
 78
300
147
1.0
148
0.0
149
0.0
100
AcDbLayout
  1
Model
 70
1
 71
0
 10
0.0
 20
0.0
 11
420.0
 21
297.0
 12
0.0
 22
0.0
 32
0.0
 14
1e+20
 24
1e+20
 34
1e+20
 15
-1e+20
 25
-1e+20
 35
-1e+20
146
0.0
 13
0.0
 23
0.0
 33
0.0
 16
1.0
 26
0.0
 36
0.0
 17
0.0
 27
1.0
 37
0.0
 76
1
330
17
  0
LAYOUT
  5
1E
330
D
100
AcDbPlotSettings
  1

  4
A3
  6

 40
7.5
 41
20.0
 42
7.5
 43
20.0
 44
420.0
 45
297.0
 46
0.0
 47
0.0
 48
0.0
 49
0.0
140
0.0
141
0.0
142
1.0
143
1.0
 70
0
 72
1
 73
0
 74
5
  7

 75
16
 76
0
 77
2
 78
300
147
1.0
148
0.0
149
0.0
100
AcDbLayout
  1
Layout1
 70
1
 71
1
 10
0.0
 20
0.0
 11
420.0
 21
297.0
 12
0.0
 22
0.0
 32
0.0
 14
1e+20
 24
1e+20
 34
1e+20
 15
-1e+20
 25
-1e+20
 35
-1e+20
146
0.0
 13
0.0
 23
0.0
 33
0.0
 16
1.0
 26
0.0
 36
0.0
 17
0.0
 27
1.0
 37
0.0
 76
1
330
1B
  0
MATERIAL
  5
1F
102
{ACAD_REACTORS
330
E
102
}
330
E
100
AcDbMaterial
  1
ByBlock
  2

 70
0
 40
1.0
 71
1
 41
1.0
 91
-1023410177
 42
1.0
 72
1
  3

 73
1
 74
1
 75
1
 44
0.5
 73
0
 45
1.0
 46
1.0
 77
1
  4

 78
1
 79
1
170
1
 48
1.0
171
1
  6

172
1
173
1
174
1
140
1.0
141
1.0
175
1
  7

176
1
177
1
178
1
143
1.0
179
1
  8

270
1
271
1
272
1
145
1.0
146
1.0
273
1
  9

274
1
275
1
276
1
 42
1.0
 72
1
  3

 73
1
 74
1
 75
1
 94
63
  0
MATERIAL
  5
20
102
{ACAD_REACTORS
330
E
102
}
330
E
100
AcDbMaterial
  1
ByLayer
  2

 70
0
 40
1.0
 71
1
 41
1.0
 91
-1023410177
 42
1.0
 72
1
  3

 73
1
 74
1
 75
1
 44
0.5
 73
0
 45
1.0
 46
1.0
 77
1
  4

 78
1
 79
1
170
1
 48
1.0
171
1
  6

172
1
173
1
174
1
140
1.0
141
1.0
175
1
  7

176
1
177
1
178
1
143
1.0
179
1
  8

270
1
271
1
272
1
145
1.0
146
1.0
273
1
  9

274
1
275
1
276
1
 42
1.0
 72
1
  3

 73
1
 74
1
 75
1
 94
63
  0
MATERIAL
  5
21
102
{ACAD_REACTORS
330
E
102
}
330
E
100
AcDbMaterial
  1
Global
  2

 70
0
 40
1.0
 71
1
 41
1.0
 91
-1023410177
 42
1.0
 72
1
  3

 73
1
 74
1
 75
1
 44
0.5
 73
0
 45
1.0
 46
1.0
 77
1
  4

 78
1
 79
1
170
1
 48
1.0
171
1
  6

172
1
173
1
174
1
140
1.0
141
1.0
175
1
  7

176
1
177
1
178
1
143
1.0
179
1
  8

270
1
271
1
272
1
145
1.0
146
1.0
273
1
  9

274
1
275
1
276
1
 42
1.0
 72
1
  3

 73
1
 74
1
 75
1
 94
63
  0
MLINESTYLE
  5
22
102
{ACAD_REACTORS
330
10
102
}
330
10
100
AcDbMlineStyle
  2
Standard
 70
0
  3

 62
256
 51
90.0
 52
90.0
 71
2
 49
0.5
 62
256
  6
BYLAYER
 49
-0.5
 62
256
  6
BYLAYER
  0
MLEADERSTYLE
  5
2C
102
{ACAD_REACTORS
330
F
102
}
330
F
100
AcDbMLeaderStyle
179
2
170
2
171
1
172
0
 90
2
 40
0.0
 41
0.0
173
1
 91
-1056964608
 92
-2
290
1
 42
2.0
291
1
 43
8.0
  3
Standard
 44
4.0
300

342
29
174
1
175
1
176
0
178
1
 93
-1056964608
 45
4.0
292
0
297
0
 46
4.0
 94
-1056964608
 47
1.0
 49
1.0
140
1.0
294
1
141
0.0
177
0
142
1.0
295
0
296
0
143
3.75
271
0
272
9
273
9
  0
DICTIONARY
  5
2D
330
A
100
AcDbDictionary
280
1
281
1
  3
CREATED_BY_EZDXF
350
2E
  3
WRITTEN_BY_EZDXF
350
D6
  0
DICTIONARYVAR
  5
2E
330
2D
100
DictionaryVariables
280
0
  1
1.4.4 @ 2026-09-16T02:05:08.843590+00:00
  0
VISUALSTYLE
  5
5A
102
{ACAD_REACTORS
330
16
102
}
330
16
100
AcDbVisualStyle
  2
2dWireframe
 70
4
 90
0
 40
0.6
 62
7
290
0
291
0
  0
VISUALSTYLE
  5
5B
102
{ACAD_REACTORS
330
16
102
}
330
16
100
AcDbVisualStyle
  2
Basic
 70
7
 90
1
 40
0.6
 62
7
290
0
291
1
  0
VISUALSTYLE
  5
5C
102
{ACAD_REACTORS
330
16
102
}
330
16
100
AcDbVisualStyle
  2
Brighten
 70
12
 90
2
 40
0.6
 62
7
290
0
291
1
  0
VISUALSTYLE
  5
5D
102
{ACAD_REACTORS
330
16
102
}
330
16
100
AcDbVisualStyle
  2
ColorChange
 70
16
 90
2
 40
0.6
 62
8
290
0
291
1
  0
VISUALSTYLE
  5
5E
102
{ACAD_REACTORS
330
16
102
}
330
16
100
AcDbVisualStyle
  2
Conceptual
 70
9
 90
3
 40
0.6
 62
7
290
0
291
0
  0
VISUALSTYLE
  5
5F
102
{ACAD_REACTORS
330
16
102
}
330
16
100
AcDbVisualStyle
  2
Dim
 70
11
 90
2
 40
0.6
 62
7
290
0
291
1
  0
VISUALSTYLE
  5
60
102
{ACAD_REACTORS
330
16
102
}
330
16
100
AcDbVisualStyle
  2
EdgeColorOff
 70
22
 90
2
 40
0.6
 62
7
290
0
291
1
  0
VISUALSTYLE
  5
61
102
{ACAD_REACTORS
330
16
102
}
330
16
100
AcDbVisualStyle
  2
Facepattern
 70
15
 90
2
 40
0.6
 62
7
290
0
291
1
  0
VISUALSTYLE
  5
62
102
{ACAD_REACTORS
330
16
102
}
330
16
100
AcDbVisualStyle
  2
Flat
 70
0
 90
2
 40
0.6
 62
7
290
0
291
1
  0
VISUALSTYLE
  5
63
102
{ACAD_REACTORS
330
16
102
}
330
16
100
AcDbVisualStyle
  2
FlatWithEdges
 70
1
 90
2
 40
0.6
 62
7
290
0
291
1
  0
VISUALSTYLE
  5
64
102
{ACAD_REACTORS
330
16
102
}
330
16
100
AcDbVisualStyle
  2
Gouraud
 70
2
 90
2
 40
0.6
 62
7
290
0
291
1
  0
VISUALSTYLE
  5
65
102
{ACAD_REACTORS
330
16
102
}
330
16
100
AcDbVisualStyle
  2
GouraudWithEdges
 70
3
 90
2
 40
0.6
 62
7
290
0
291
1
  0
VISUALSTYLE
  5
66
102
{ACAD_REACTORS
330
16
102
}
330
16
100
AcDbVisualStyle
  2
Hidden
 70
6
 90
1
 40
0.6
 62
7
290
0
291
0
  0
VISUALSTYLE
  5
67
102
{ACAD_REACTORS
330
16
102
}
330
16
100
AcDbVisualStyle
  2
JitterOff
 70
20
 90
2
 40
0.6
 62
7
290
0
291
1
  0
VISUALSTYLE
  5
68
102
{ACAD_REACTORS
330
16
102
}
330
16
100
AcDbVisualStyle
  2
Linepattern
 70
14
 90
2
 40
0.6
 62
7
290
0
291
1
  0
VISUALSTYLE
  5
69
102
{ACAD_REACTORS
330
16
102
}
330
16
100
AcDbVisualStyle
  2
Modeling
 70
10
 90
2
 40
0.6
 62
7
290
0
291
0
  0
VISUALSTYLE
  5
6A
102
{ACAD_REACTORS
330
16
102
}
330
16
100
AcDbVisualStyle
  2
OverhangOff
 70
21
 90
2
 40
0.6
 62
7
290
0
291
1
  0
VISUALSTYLE
  5
6B
102
{ACAD_REACTORS
330
16
102
}
330
16
100
AcDbVisualStyle
  2
Realistic
 70
8
 90
2
 40
0.6
 62
7
290
0
291
0
  0
VISUALSTYLE
  5
6C
102
{ACAD_REACTORS
330
16
102
}
330
16
100
AcDbVisualStyle
  2
Shaded
 70
27
 90
2
 40
0.6
 62
7
290
0
291
0
  0
VISUALSTYLE
  5
6D
102
{ACAD_REACTORS
330
16
102
}
330
16
100
AcDbVisualStyle
  2
Shaded with edges
 70
26
 90
2
 40
0.6
 62
7
290
0
291
0
  0
VISUALSTYLE
  5
6E
102
{ACAD_REACTORS
330
16
102
}
330
16
100
AcDbVisualStyle
  2
Shades of Gray
 70
23
 90
2
 40
0.6
 62
7
290
0
291
0
  0
VISUALSTYLE
  5
6F
102
{ACAD_REACTORS
330
16
102
}
330
16
100
AcDbVisualStyle
  2
Sketchy
 70
24
 90
1
 40
0.6
 62
7
290
0
291
0
  0
VISUALSTYLE
  5
70
102
{ACAD_REACTORS
330
16
102
}
330
16
100
AcDbVisualStyle
  2
Thicken
 70
13
 90
2
 40
0.6
 62
7
290
0
291
1
  0
VISUALSTYLE
  5
71
102
{ACAD_REACTORS
330
16
102
}
330
16
100
AcDbVisualStyle
  2
Wireframe
 70
5
 90
0
 40
0.6
 62
7
290
0
291
0
  0
VISUALSTYLE
  5
72
102
{ACAD_REACTORS
330
16
102
}
330
16
100
AcDbVisualStyle
  2
X-Ray
 70
25
 90
2
 40
0.5
 62
7
290
0
291
0
  0
DICTIONARYVAR
  5
D6
330
2D
100
DictionaryVariables
280
0
  1
1.4.4 @ 2026-09-16T02:05:08.855236+00:00
  0
ENDSEC
  0
EOF
