  0
SECTION
  2
HEADER
  9
$ACADVER
  1
AC1024
  9
$ACADMAINTVER
 70
6
  9
$DWGCODEPAGE
  3
ANSI_1252
  9
$LASTSAVEDBY
  1
ezdxf
  9
$INSBASE
 10
0.0
 20
0.0
 30
0.0
  9
$EXTMIN
 10
1e+20
 20
1e+20
 30
1e+20
  9
$EXTMAX
 10
-1e+20
 20
-1e+20
 30
-1e+20
  9
$LIMMIN
 10
0.0
 20
0.0
  9
$LIMMAX
 10
420.0
 20
297.0
  9
$ORTHOMODE
 70
0
  9
$REGENMODE
 70
1
  9
$FILLMODE
 70
1
  9
$QTEXTMODE
 70
0
  9
$MIRRTEXT
 70
1
  9
$LTSCALE
 40
1.0
  9
$ATTMODE
 70
1
  9
$TEXTSIZE
 40
2.5
  9
$TRACEWID
 40
1.0
  9
$TEXTSTYLE
  7
OpenSans
  9
$CLAYER
  8
0
  9
$CELTYPE
  6
ByLayer
  9
$CECOLOR
 62
256
  9
$CELTSCALE
 40
1.0
  9
$DISPSILH
 70
0
  9
$DIMSCALE
 40
1.0
  9
$DIMASZ
 40
0.175
  9
$DIMEXO
 40
0.125
  9
$DIMDLI
 40
3.75
  9
$DIMRND
 40
0.0
  9
$DIMDLE
 40
0.0
  9
$DIMEXE
 40
0.375
  9
$DIMTP
 40
0.0
  9
$DIMTM
 40
0.0
  9
$DIMTXT
 40
0.25
  9
$DIMCEN
 40
2.5
  9
$DIMTSZ
 40
0.0
  9
$DIMTOL
 70
0
  9
$DIMLIM
 70
0
  9
$DIMTIH
 70
0
  9
$DIMTOH
 70
0
  9
$DIMSE1
 70
0
  9
$DIMSE2
 70
0
  9
$DIMTAD
 70
1
  9
$DIMZIN
 70
12
  9
$DIMBLK
  1
ARCHTICK
  9
$DIMASO
 70
1
  9
$DIMSHO
 70
1
  9
$DIMPOST
  1

  9
$DIMAPOST
  1

  9
$DIMALT
 70
0
  9
$DIMALTD
 70
3
  9
$DIMALTF
 40
0.03937007874
  9
$DIMLFAC
 40
100.0
  9
$DIMTOFL
 70
1
  9
$DIMTVP
 40
0.0
  9
$DIMTIX
 70
0
  9
$DIMSOXD
 70
0
  9
$DIMSAH
 70
0
  9
$DIMBLK1
  1

  9
$DIMBLK2
  1

  9
$DIMSTYLE
  2
EZDXF
  9
$DIMCLRD
 70
0
  9
$DIMCLRE
 70
0
  9
$DIMCLRT
 70
0
  9
$DIMTFAC
 40
0.5
  9
$DIMGAP
 40
0.1
  9
$DIMJUST
 70
0
  9
$DIMSD1
 70
0
  9
$DIMSD2
 70
0
  9
$DIMTOLJ
 70
0
  9
$DIMTZIN
 70
8
  9
$DIMALTZ
 70
0
  9
$DIMALTTZ
 70
0
  9
$DIMUPT
 70
1
  9
$DIMDEC
 70
2
  9
$DIMTDEC
 70
2
  9
$DIMALTU
 70
2
  9
$DIMALTTD
 70
3
  9
$DIMTXSTY
  7
OpenSansCondensed-Light
  9
$DIMAUNIT
 70
0
  9
$DIMADEC
 70
2
  9
$DIMALTRND
 40
0.0
  9
$DIMAZIN
 70
3
  9
$DIMDSEP
 70
46
  9
$DIMATFIT
 70
3
  9
$DIMFRAC
 70
0
  9
$DIMLDRBLK
  1

  9
$DIMLUNIT
 70
2
  9
$DIMLWD
 70
-2
  9
$DIMLWE
 70
-2
  9
$DIMTMOVE
 70
2
  9
$DIMFXL
 40
1.0
  9
$DIMFXLON
 70
0
  9
$DIMJOGANG
 40
0.785398163397
  9
$DIMTFILL
 70
0
  9
$DIMTFILLCLR
 70
0
  9
$DIMARCSYM
 70
0
  9
$DIMLTYPE
  6

  9
$DIMLTEX1
  6

  9
$DIMLTEX2
  6

  9
$DIMTXTDIRECTION
 70
0
  9
$LUNITS
 70
2
  9
$LUPREC
 70
4
  9
$SKETCHINC
 40
1.0
  9
$FILLETRAD
 40
10.0
  9
$AUNITS
 70
0
  9
$AUPREC
 70
2
  9
$MENU
  1
.
  9
$ELEVATION
 40
0.0
  9
$PELEVATION
 40
0.0
  9
$THICKNESS
 40
0.0
  9
$LIMCHECK
 70
0
  9
$CHAMFERA
 40
0.0
  9
$CHAMFERB
 40
0.0
  9
$CHAMFERC
 40
0.0
  9
$CHAMFERD
 40
0.0
  9
$SKPOLY
 70
0
  9
$TDCREATE
 40
2461301.6927314815
  9
$TDUCREATE
 40
2458532.153996898
  9
$TDUPDATE
 40
2461301.6927314815
  9
$TDUUPDATE
 40
2458532.1544311
  9
$TDINDWG
 40
0.0
  9
$TDUSRTIMER
 40
0.0
  9
$USRTIMER
 70
1
  9
$ANGBASE
 50
0.0
  9
$ANGDIR
 70
0
  9
$PDMODE
 70
0
  9
$PDSIZE
 40
0.0
  9
$PLINEWID
 40
0.0
  9
$SPLFRAME
 70
0
  9
$SPLINETYPE
 70
6
  9
$SPLINESEGS
 70
8
  9
$HANDSEED
  5
108
  9
$SURFTAB1
 70
6
  9
$SURFTAB2
 70
6
  9
$SURFTYPE
 70
6
  9
$SURFU
 70
6
  9
$SURFV
 70
6
  9
$UCSBASE
  2

  9
$UCSNAME
  2

  9
$UCSORG
 10
0.0
 20
0.0
 30
0.0
  9
$UCSXDIR
 10
1.0
 20
0.0
 30
0.0
  9
$UCSYDIR
 10
0.0
 20
1.0
 30
0.0
  9
$UCSORTHOREF
  2

  9
$UCSORTHOVIEW
 70
0
  9
$UCSORGTOP
 10
0.0
 20
0.0
 30
0.0
  9
$UCSORGBOTTOM
 10
0.0
 20
0.0
 30
0.0
  9
$UCSORGLEFT
 10
0.0
 20
0.0
 30
0.0
  9
$UCSORGRIGHT
 10
0.0
 20
0.0
 30
0.0
  9
$UCSORGFRONT
 10
0.0
 20
0.0
 30
0.0
  9
$UCSORGBACK
 10
0.0
 20
0.0
 30
0.0
  9
$PUCSBASE
  2

  9
$PUCSNAME
  2

  9
$PUCSORG
 10
0.0
 20
0.0
 30
0.0
  9
$PUCSXDIR
 10
1.0
 20
0.0
 30
0.0
  9
$PUCSYDIR
 10
0.0
 20
1.0
 30
0.0
  9
$PUCSORTHOREF
  2

  9
$PUCSORTHOVIEW
 70
0
  9
$PUCSORGTOP
 10
0.0
 20
0.0
 30
0.0
  9
$PUCSORGBOTTOM
 10
0.0
 20
0.0
 30
0.0
  9
$PUCSORGLEFT
 10
0.0
 20
0.0
 30
0.0
  9
$PUCSORGRIGHT
 10
0.0
 20
0.0
 30
0.0
  9
$PUCSORGFRONT
 10
0.0
 20
0.0
 30
0.0
  9
$PUCSORGBACK
 10
0.0
 20
0.0
 30
0.0
  9
$USERI1
 70
0
  9
$USERI2
 70
0
  9
$USERI3
 70
0
  9
$USERI4
 70
0
  9
$USERI5
 70
0
  9
$USERR1
 40
0.0
  9
$USERR2
 40
0.0
  9
$USERR3
 40
0.0
  9
$USERR4
 40
0.0
  9
$USERR5
 40
0.0
  9
$WORLDVIEW
 70
1
  9
$SHADEDGE
 70
3
  9
$SHADEDIF
 70
70
  9
$TILEMODE
 70
1
  9
$MAXACTVP
 70
64
  9
$PINSBASE
 10
0.0
 20
0.0
 30
0.0
  9
$PLIMCHECK
 70
0
  9
$PEXTMIN
 10
1e+20
 20
1e+20
 30
1e+20
  9
$PEXTMAX
 10
-1e+20
 20
-1e+20
 30
-1e+20
  9
$PLIMMIN
 10
0.0
 20
0.0
  9
$PLIMMAX
 10
420.0
 20
297.0
  9
$UNITMODE
 70
0
  9
$VISRETAIN
 70
1
  9
$PLINEGEN
 70
0
  9
$PSLTSCALE
 70
1
  9
$TREEDEPTH
 70
3020
  9
$CMLSTYLE
  2
Standard
  9
$CMLJUST
 70
0
  9
$CMLSCALE
 40
20.0
  9
$PROXYGRAPHICS
 70
1
  9
$MEASUREMENT
 70
1
  9
$CELWEIGHT
370
-1
  9
$ENDCAPS
280
0
  9
$JOINSTYLE
280
0
  9
$LWDISPLAY
290
0
  9
$INSUNITS
 70
6
  9
$HYPERLINKBASE
  1

  9
$STYLESHEET
  1

  9
$XEDIT
290
1
  9
$CEPSNTYPE
380
0
  9
$PSTYLEMODE
290
1
  9
$FINGERPRINTGUID
  2
{934CDE08-2DB5-4706-9852-2EC027E440A8}
  9
$VERSIONGUID
  2
{D13AA32B-CAB5-4598-AE7F-88E87F22C4A8}
  9
$EXTNAMES
290
1
  9
$PSVPSCALE
 40
0.0
  9
$OLESTARTUP
290
0
  9
$SORTENTS
280
127
  9
$INDEXCTL
280
0
  9
$HIDETEXT
280
1
  9
$XCLIPFRAME
280
1
  9
$HALOGAP
280
0
  9
$OBSCOLOR
 70
257
  9
$OBSLTYPE
280
0
  9
$INTERSECTIONDISPLAY
280
0
  9
$INTERSECTIONCOLOR
 70
257
  9
$DIMASSOC
280
2
  9
$PROJECTNAME
  1

  9
$CAMERADISPLAY
290
0
  9
$LENSLENGTH
 40
50.0
  9
$CAMERAHEIGHT
 40
0.0
  9
$STEPSPERSEC
 40
24.0
  9
$STEPSIZE
 40
100.0
  9
$3DDWFPREC
 40
2.0
  9
$PSOLWIDTH
 40
0.005
  9
$PSOLHEIGHT
 40
0.08
  9
$LOFTANG1
 40
1.570796326795
  9
$LOFTANG2
 40
1.570796326795
  9
$LOFTMAG1
 40
0.0
  9
$LOFTMAG2
 40
0.0
  9
$LOFTPARAM
 70
7
  9
$LOFTNORMALS
280
1
  9
$LATITUDE
 40
37.795
  9
$LONGITUDE
 40
-122.394
  9
$NORTHDIRECTION
 40
0.0
  9
$TIMEZONE
 70
-8000
  9
$LIGHTGLYPHDISPLAY
280
1
  9
$TILEMODELIGHTSYNCH
280
1
  9
$CMATERIAL
347
20
  9
$SOLIDHIST
280
0
  9
$SHOWHIST
280
1
  9
$DWFFRAME
280
2
  9
$DGNFRAME
280
2
  9
$REALWORLDSCALE
290
1
  9
$INTERFERECOLOR
 62
256
  9
$CSHADOW
280
0
  9
$SHADOWPLANELOCATION
 40
0.0
  0
ENDSEC
  0
SECTION
  2
CLASSES
  0
CLASS
  1
ACDBDICTIONARYWDFLT
  2
AcDbDictionaryWithDefault
  3
ObjectDBX Classes
 90
0
 91
0
280
0
281
0
  0
CLASS
  1
SUN
  2
AcDbSun
  3
SCENEOE
 90
1153
 91
0
280
0
281
0
  0
CLASS
  1
VISUALSTYLE
  2
AcDbVisualStyle
  3
ObjectDBX Classes
 90
4095
 91
0
280
0
281
0
  0
CLASS
  1
MATERIAL
  2
AcDbMaterial
  3
ObjectDBX Classes
 90
1153
 91
0
280
0
281
0
  0
CLASS
  1
SCALE
  2
AcDbScale
  3
ObjectDBX Classes
 90
1153
 91
0
280
0
281
0
  0
CLASS
  1
TABLESTYLE
  2
AcDbTableStyle
  3
ObjectDBX Classes
 90
4095
 91
0
280
0
281
0
  0
CLASS
  1
MLEADERSTYLE
  2
AcDbMLeaderStyle
  3
ACDB_MLEADERSTYLE_CLASS
 90
4095
 91
0
280
0
281
0
  0
CLASS
  1
DICTIONARYVAR
  2
AcDbDictionaryVar
  3
ObjectDBX Classes
 90
0
 91
0
280
0
281
0
  0
CLASS
  1
CELLSTYLEMAP
  2
AcDbCellStyleMap
  3
ObjectDBX Classes
 90
1152
 91
0
280
0
281
0
  0
CLASS
  1
MENTALRAYRENDERSETTINGS
  2
AcDbMentalRayRenderSettings
  3
SCENEOE
 90
1024
 91
0
280
0
281
0
  0
CLASS
  1
ACDBDETAILVIEWSTYLE
  2
AcDbDetailViewStyle
  3
ObjectDBX Classes
 90
1025
 91
0
280
0
281
0
  0
CLASS
  1
ACDBSECTIONVIEWSTYLE
  2
AcDbSectionViewStyle
  3
ObjectDBX Classes
 90
1025
 91
0
280
0
281
0
  0
CLASS
  1
RASTERVARIABLES
  2
AcDbRasterVariables
  3
ISM
 90
0
 91
0
280
0
281
0
  0
CLASS
  1
ACDBPLACEHOLDER
  2
AcDbPlaceHolder
  3
ObjectDBX Classes
 90
0
 91
0
280
0
281
0
  0
CLASS
  1
LAYOUT
  2
AcDbLayout
  3
ObjectDBX Classes
 90
0
 91
0
280
0
281
0
  0
ENDSEC
  0
SECTION
  2
TABLES
  0
TABLE
  2
VPORT
  5
8
330
0
100
AcDbSymbolTable
 70
1
  0
VPORT
  5
23
330
8
100
AcDbSymbolTableRecord
100
AcDbViewportTableRecord
  2
*Active
 70
0
 10
0.0
 20
0.0
 11
1.0
 21
1.0
 12
0.0
 22
0.0
 13
0.0
 23
0.0
 14
0.5
 24
0.5
 15
0.5
 25
0.5
 16
0.0
 26
0.0
 36
1.0
 17
0.0
 27
0.0
 37
0.0
 40
1000.0
 41
1.34
 42
50.0
 43
0.0
 44
0.0
 50
0.0
 51
0.0
 71
0
 72
1000
 73
1
 74
3
 75
0
 76
0
 77
0
 78
0
281
0
 65
0
146
0.0
  0
ENDTAB
  0
TABLE
  2
LTYPE
  5
2
330
0
100
AcDbSymbolTable
 70
21
  0
LTYPE
  5
24
330
2
100
AcDbSymbolTableRecord
100
AcDbLinetypeTableRecord
  2
ByBlock
 70
0
  3

 72
65
 73
0
 40
0.0
  0
LTYPE
  5
25
330
2
100
AcDbSymbolTableRecord
100
AcDbLinetypeTableRecord
  2
ByLayer
 70
0
  3

 72
65
 73
0
 40
0.0
  0
LTYPE
  5
26
330
2
100
AcDbSymbolTableRecord
100
AcDbLinetypeTableRecord
  2
Continuous
 70
0
  3

 72
65
 73
0
 40
0.0
  0
LTYPE
  5
2F
330
2
100
AcDbSymbolTableRecord
100
AcDbLinetypeTableRecord
  2
CENTER
 70
0
  3
Center ____ _ ____ _ ____ _ ____ _ ____ _ ____
 72
65
 73
4
 40
5.08
 49
3.175
 74
0
 49
-0.635
 74
0
 49
0.635
 74
0
 49
-0.635
 74
0
  0
LTYPE
  5
30
330
2
100
AcDbSymbolTableRecord
100
AcDbLinetypeTableRecord
  2
CENTERX2
 70
0
  3
Center (2x) ________  __  ________  __  ________
 72
65
 73
4
 40
8.89
 49
6.35
 74
0
 49
-0.635
 74
0
 49
1.27
 74
0
 49
-0.635
 74
0
  0
LTYPE
  5
31
330
2
100
AcDbSymbolTableRecord
100
AcDbLinetypeTableRecord
  2
CENTER2
 70
0
  3
Center (.5x) ____ _ ____ _ ____ _ ____ _ ____
 72
65
 73
4
 40
2.54
 49
1.587
 74
0
 49
-0.318
 74
0
 49
0.318
 74
0
 49
-0.318
 74
0
  0
LTYPE
  5
32
330
2
100
AcDbSymbolTableRecord
100
AcDbLinetypeTableRecord
  2
DASHED
 70
0
  3
Dashed __ __ __ __ __ __ __ __ __ __ __ __ __ _
 72
65
 73
2
 40
1.524
 49
1.27
 74
0
 49
-0.254
 74
0
  0
LTYPE
  5
33
330
2
100
AcDbSymbolTableRecord
100
AcDbLinetypeTableRecord
  2
DASHEDX2
 70
0
  3
Dashed (2x) ____  ____  ____  ____  ____  ____
 72
65
 73
2
 40
3.048
 49
2.54
 74
0
 49
-0.508
 74
0
  0
LTYPE
  5
34
330
2
100
AcDbSymbolTableRecord
100
AcDbLinetypeTableRecord
  2
DASHED2
 70
0
  3
Dashed (.5x) _ _ _ _ _ _ _ _ _ _ _ _ _ _
 72
65
 73
2
 40
0.762
 49
0.635
 74
0
 49
-0.127
 74
0
  0
LTYPE
  5
35
330
2
100
AcDbSymbolTableRecord
100
AcDbLinetypeTableRecord
  2
PHANTOM
 70
0
  3
Phantom ______  __  __  ______  __  __  ______
 72
65
 73
6
 40
6.35
 49
3.175
 74
0
 49
-0.635
 74
0
 49
0.635
 74
0
 49
-0.635
 74
0
 49
0.635
 74
0
 49
-0.635
 74
0
  0
LTYPE
  5
36
330
2
100
AcDbSymbolTableRecord
100
AcDbLinetypeTableRecord
  2
PHANTOMX2
 70
0
  3
Phantom (2x)____________    ____    ____    ____________
 72
65
 73
6
 40
10.795
 49
6.35
 74
0
 49
-0.635
 74
0
 49
1.27
 74
0
 49
-0.635
 74
0
 49
1.27
 74
0
 49
-0.635
 74
0
  0
LTYPE
  5
37
330
2
100
AcDbSymbolTableRecord
100
AcDbLinetypeTableRecord
  2
PHANTOM2
 70
0
  3
Phantom (.5x) ___ _ _ ___ _ _ ___ _ _ ___ _ _ ___
 72
65
 73
6
 40
3.175
 49
1.587
 74
0
 49
-0.318
 74
0
 49
0.318
 74
0
 49
-0.318
 74
0
 49
0.318
 74
0
 49
-0.318
 74
0
  0
LTYPE
  5
38
330
2
100
AcDbSymbolTableRecord
100
AcDbLinetypeTableRecord
  2
DASHDOT
 70
0
  3
Dash dot __ . __ . __ . __ . __ . __ . __ . __
 72
65
 73
4
 40
3.556
 49
2.54
 74
0
 49
-0.508
 74
0
 49
0.0
 74
0
 49
-0.508
 74
0
  0
LTYPE
  5
39
330
2
100
AcDbSymbolTableRecord
100
AcDbLinetypeTableRecord
  2
DASHDOTX2
 70
0
  3
Dash dot (2x) ____  .  ____  .  ____  .  ____
 72
65
 73
4
 40
6.096
 49
5.08
 74
0
 49
-0.508
 74
0
 49
0.0
 74
0
 49
-0.508
 74
0
  0
LTYPE
  5
3A
330
2
100
AcDbSymbolTableRecord
100
AcDbLinetypeTableRecord
  2
DASHDOT2
 70
0
  3
Dash dot (.5x) _ . _ . _ . _ . _ . _ . _ . _
 72
65
 73
4
 40
1.778
 49
1.27
 74
0
 49
-0.254
 74
0
 49
0.0
 74
0
 49
-0.254
 74
0
  0
LTYPE
  5
3B
330
2
100
AcDbSymbolTableRecord
100
AcDbLinetypeTableRecord
  2
DOT
 70
0
  3
Dot .  .  .  .  .  .  .  .  .  .  .  .  .  .  .  .
 72
65
 73
2
 40
0.508
 49
0.0
 74
0
 49
-0.508
 74
0
  0
LTYPE
  5
3C
330
2
100
AcDbSymbolTableRecord
100
AcDbLinetypeTableRecord
  2
DOTX2
 70
0
  3
Dot (2x) .    .    .    .    .    .    .    . 
 72
65
 73
2
 40
1.016
 49
0.0
 74
0
 49
-1.016
 74
0
  0
LTYPE
  5
3D
330
2
100
AcDbSymbolTableRecord
100
AcDbLinetypeTableRecord
  2
DOT2
 70
0
  3
Dot (.5) . . . . . . . . . . . . . . . . . . . 
 72
65
 73
2
 40
0.254
 49
0.0
 74
0
 49
-0.254
 74
0
  0
LTYPE
  5
3E
330
2
100
AcDbSymbolTableRecord
100
AcDbLinetypeTableRecord
  2
DIVIDE
 70
0
  3
Divide __ . . __ . . __ . . __ . . __ . . __
 72
65
 73
6
 40
4.064
 49
2.54
 74
0
 49
-0.508
 74
0
 49
0.0
 74
0
 49
-0.508
 74
0
 49
0.0
 74
0
 49
-0.508
 74
0
  0
LTYPE
  5
3F
330
2
100
AcDbSymbolTableRecord
100
AcDbLinetypeTableRecord
  2
DIVIDEX2
 70
0
  3
Divide (2x) ____  . .  ____  . .  ____  . .  ____
 72
65
 73
6
 40
6.604
 49
5.08
 74
0
 49
-0.508
 74
0
 49
0.0
 74
0
 49
-0.508
 74
0
 49
0.0
 74
0
 49
-0.508
 74
0
  0
LTYPE
  5
40
330
2
100
AcDbSymbolTableRecord
100
AcDbLinetypeTableRecord
  2
DIVIDE2
 70
0
  3
Divide(.5x) _ . _ . _ . _ . _ . _ . _ . _
 72
65
 73
6
 40
2.032
 49
1.27
 74
0
 49
-0.254
 74
0
 49
0.0
 74
0
 49
-0.254
 74
0
 49
0.0
 74
0
 49
-0.254
 74
0
  0
ENDTAB
  0
TABLE
  2
LAYER
  5
1
330
0
100
AcDbSymbolTable
 70
17
  0
LAYER
  5
27
330
1
100
AcDbSymbolTableRecord
100
AcDbLayerTableRecord
  2
0
 70
0
 62
7
  6
Continuous
370
-3
390
13
347
21
  0
LAYER
  5
28
330
1
100
AcDbSymbolTableRecord
100
AcDbLayerTableRecord
  2
Defpoints
 70
0
 62
7
  6
Continuous
290
0
370
-3
390
13
347
21
  0
LAYER
  5
8A
330
1
100
AcDbSymbolTableRecord
100
AcDbLayerTableRecord
  2
EIXOS
 70
0
 62
8
  6
CENTER
370
-3
390
13
347
21
  0
LAYER
  5
8B
330
1
100
AcDbSymbolTableRecord
100
AcDbLayerTableRecord
  2
PAREDES
 70
0
 62
7
  6
CONTINUOUS
370
-3
390
13
347
21
  0
LAYER
  5
8C
330
1
100
AcDbSymbolTableRecord
100
AcDbLayerTableRecord
  2
ESQUADRIAS
 70
0
 62
4
  6
CONTINUOUS
370
-3
390
13
347
21
  0
LAYER
  5
8D
330
1
100
AcDbSymbolTableRecord
100
AcDbLayerTableRecord
  2
MOBILIARIO
 70
0
 62
9
  6
CONTINUOUS
370
-3
390
13
347
21
  0
LAYER
  5
8E
330
1
100
AcDbSymbolTableRecord
100
AcDbLayerTableRecord
  2
ESTRUTURA
 70
0
 62
1
  6
CONTINUOUS
370
-3
390
13
347
21
  0
LAYER
  5
8F
330
1
100
AcDbSymbolTableRecord
100
AcDbLayerTableRecord
  2
COBERTURA
 70
0
 62
3
  6
CONTINUOUS
370
-3
390
13
347
21
  0
LAYER
  5
90
330
1
100
AcDbSymbolTableRecord
100
AcDbLayerTableRecord
  2
COBERTURA_OCULTA
 70
0
 62
3
  6
CONTINUOUS
370
-3
390
13
347
21
  0
LAYER
  5
91
330
1
100
AcDbSymbolTableRecord
100
AcDbLayerTableRecord
  2
DECK
 70
0
 62
32
  6
CONTINUOUS
370
-3
390
13
347
21
  0
LAYER
  5
92
330
1
100
AcDbSymbolTableRecord
100
AcDbLayerTableRecord
  2
FUNDACAO
 70
0
 62
5
  6
CONTINUOUS
370
-3
390
13
347
21
  0
LAYER
  5
93
330
1
100
AcDbSymbolTableRecord
100
AcDbLayerTableRecord
  2
COTAS
 70
0
 62
2
  6
CONTINUOUS
370
-3
390
13
347
21
  0
LAYER
  5
94
330
1
100
AcDbSymbolTableRecord
100
AcDbLayerTableRecord
  2
TEXTO
 70
0
 62
7
  6
CONTINUOUS
370
-3
390
13
347
21
  0
LAYER
  5
95
330
1
100
AcDbSymbolTableRecord
100
AcDbLayerTableRecord
  2
HACHURA
 70
0
 62
8
  6
CONTINUOUS
370
-3
390
13
347
21
  0
LAYER
  5
96
330
1
100
AcDbSymbolTableRecord
100
AcDbLayerTableRecord
  2
MEMBRANA_3D
 70
0
 62
3
  6
CONTINUOUS
370
-3
390
13
347
21
  0
LAYER
  5
97
330
1
100
AcDbSymbolTableRecord
100
AcDbLayerTableRecord
  2
VIDRO_3D
 70
0
 62
4
  6
CONTINUOUS
370
-3
390
13
347
21
  0
LAYER
  5
98
330
1
100
AcDbSymbolTableRecord
100
AcDbLayerTableRecord
  2
ACO_3D
 70
0
 62
1
  6
CONTINUOUS
370
-3
390
13
347
21
  0
ENDTAB
  0
TABLE
  2
STYLE
  5
5
330
0
100
AcDbSymbolTable
 70
27
  0
STYLE
  5
29
330
5
100
AcDbSymbolTableRecord
100
AcDbTextStyleTableRecord
  2
Standard
 70
0
 40
0.0
 41
1.0
 50
0.0
 71
0
 42
2.5
  3
txt
  4

  0
STYLE
  5
41
330
5
100
AcDbSymbolTableRecord
100
AcDbTextStyleTableRecord
  2
OpenSans-Light
 70
0
 40
0.0
 41
1.0
 50
0.0
 71
0
 42
2.5
  3
OpenSans-Light.ttf
  4

  0
STYLE
  5
42
330
5
100
AcDbSymbolTableRecord
100
AcDbTextStyleTableRecord
  2
OpenSans-Light-Italic
 70
0
 40
0.0
 41
1.0
 50
0.0
 71
0
 42
2.5
  3
OpenSans-LightItalic.ttf
  4

  0
STYLE
  5
43
330
5
100
AcDbSymbolTableRecord
100
AcDbTextStyleTableRecord
  2
OpenSans
 70
0
 40
0.0
 41
1.0
 50
0.0
 71
0
 42
2.5
  3
OpenSans-Regular.ttf
  4

  0
STYLE
  5
44
330
5
100
AcDbSymbolTableRecord
100
AcDbTextStyleTableRecord
  2
OpenSans-Italic
 70
0
 40
0.0
 41
1.0
 50
0.0
 71
0
 42
2.5
  3
OpenSans-Italic.ttf
  4

  0
STYLE
  5
45
330
5
100
AcDbSymbolTableRecord
100
AcDbTextStyleTableRecord
  2
OpenSans-SemiBold
 70
0
 40
0.0
 41
1.0
 50
0.0
 71
0
 42
2.5
  3
OpenSans-SemiBold.ttf
  4

  0
STYLE
  5
46
330
5
100
AcDbSymbolTableRecord
100
AcDbTextStyleTableRecord
  2
OpenSans-SemiBoldItalic
 70
0
 40
0.0
 41
1.0
 50
0.0
 71
0
 42
2.5
  3
OpenSans-SemiBoldItalic.ttf
  4

  0
STYLE
  5
47
330
5
100
AcDbSymbolTableRecord
100
AcDbTextStyleTableRecord
  2
OpenSans-Bold
 70
0
 40
0.0
 41
1.0
 50
0.0
 71
0
 42
2.5
  3
OpenSans-Bold.ttf
  4

  0
STYLE
  5
48
330
5
100
AcDbSymbolTableRecord
100
AcDbTextStyleTableRecord
  2
OpenSans-BoldItalic
 70
0
 40
0.0
 41
1.0
 50
0.0
 71
0
 42
2.5
  3
OpenSans-BoldItalic.ttf
  4

  0
STYLE
  5
49
330
5
100
AcDbSymbolTableRecord
100
AcDbTextStyleTableRecord
  2
OpenSans-ExtraBold
 70
0
 40
0.0
 41
1.0
 50
0.0
 71
0
 42
2.5
  3
OpenSans-ExtraBold.ttf
  4

  0
STYLE
  5
4A
330
5
100
AcDbSymbolTableRecord
100
AcDbTextStyleTableRecord
  2
OpenSans-ExtraBoldItalic
 70
0
 40
0.0
 41
1.0
 50
0.0
 71
0
 42
2.5
  3
OpenSans-ExtraBoldItalic.ttf
  4

  0
STYLE
  5
4B
330
5
100
AcDbSymbolTableRecord
100
AcDbTextStyleTableRecord
  2
OpenSansCondensed-Bold
 70
0
 40
0.0
 41
1.0
 50
0.0
 71
0
 42
2.5
  3
OpenSansCondensed-Bold.ttf
  4

  0
STYLE
  5
4C
330
5
100
AcDbSymbolTableRecord
100
AcDbTextStyleTableRecord
  2
OpenSansCondensed-Light
 70
0
 40
0.0
 41
1.0
 50
0.0
 71
0
 42
2.5
  3
OpenSansCondensed-Light.ttf
  4

  0
STYLE
  5
4D
330
5
100
AcDbSymbolTableRecord
100
AcDbTextStyleTableRecord
  2
OpenSansCondensed-Italic
 70
0
 40
0.0
 41
1.0
 50
0.0
 71
0
 42
2.5
  3
OpenSansCondensed-LightItalic.ttf
  4

  0
STYLE
  5
4E
330
5
100
AcDbSymbolTableRecord
100
AcDbTextStyleTableRecord
  2
LiberationSans
 70
0
 40
0.0
 41
1.0
 50
0.0
 71
0
 42
2.5
  3
LiberationSans-Regular.ttf
  4

  0
STYLE
  5
4F
330
5
100
AcDbSymbolTableRecord
100
AcDbTextStyleTableRecord
  2
LiberationSans-Bold
 70
0
 40
0.0
 41
1.0
 50
0.0
 71
0
 42
2.5
  3
LiberationSans-Bold.ttf
  4

  0
STYLE
  5
50
330
5
100
AcDbSymbolTableRecord
100
AcDbTextStyleTableRecord
  2
LiberationSans-BoldItalic
 70
0
 40
0.0
 41
1.0
 50
0.0
 71
0
 42
2.5
  3
LiberationSans-BoldItalic.ttf
  4

  0
STYLE
  5
51
330
5
100
AcDbSymbolTableRecord
100
AcDbTextStyleTableRecord
  2
LiberationSans-Italic
 70
0
 40
0.0
 41
1.0
 50
0.0
 71
0
 42
2.5
  3
LiberationSans-Italic.ttf
  4

  0
STYLE
  5
52
330
5
100
AcDbSymbolTableRecord
100
AcDbTextStyleTableRecord
  2
LiberationSerif
 70
0
 40
0.0
 41
1.0
 50
0.0
 71
0
 42
2.5
  3
LiberationSerif-Regular.ttf
  4

  0
STYLE
  5
53
330
5
100
AcDbSymbolTableRecord
100
AcDbTextStyleTableRecord
  2
LiberationSerif-Bold
 70
0
 40
0.0
 41
1.0
 50
0.0
 71
0
 42
2.5
  3
LiberationSerif-Bold.ttf
  4

  0
STYLE
  5
54
330
5
100
AcDbSymbolTableRecord
100
AcDbTextStyleTableRecord
  2
LiberationSerif-BoldItalic
 70
0
 40
0.0
 41
1.0
 50
0.0
 71
0
 42
2.5
  3
LiberationSerif-BoldItalic.ttf
  4

  0
STYLE
  5
55
330
5
100
AcDbSymbolTableRecord
100
AcDbTextStyleTableRecord
  2
LiberationSerif-Italic
 70
0
 40
0.0
 41
1.0
 50
0.0
 71
0
 42
2.5
  3
LiberationSerif-Italic.ttf
  4

  0
STYLE
  5
56
330
5
100
AcDbSymbolTableRecord
100
AcDbTextStyleTableRecord
  2
LiberationMono
 70
0
 40
0.0
 41
1.0
 50
0.0
 71
0
 42
2.5
  3
LiberationMono-Regular.ttf
  4

  0
STYLE
  5
57
330
5
100
AcDbSymbolTableRecord
100
AcDbTextStyleTableRecord
  2
LiberationMono-Bold
 70
0
 40
0.0
 41
1.0
 50
0.0
 71
0
 42
2.5
  3
LiberationMono-Bold.ttf
  4

  0
STYLE
  5
58
330
5
100
AcDbSymbolTableRecord
100
AcDbTextStyleTableRecord
  2
LiberationMono-BoldItalic
 70
0
 40
0.0
 41
1.0
 50
0.0
 71
0
 42
2.5
  3
LiberationMono-BoldItalic.ttf
  4

  0
STYLE
  5
59
330
5
100
AcDbSymbolTableRecord
100
AcDbTextStyleTableRecord
  2
LiberationMono-Italic
 70
0
 40
0.0
 41
1.0
 50
0.0
 71
0
 42
2.5
  3
LiberationMono-Italic.ttf
  4

  0
STYLE
  5
99
330
5
100
AcDbSymbolTableRecord
100
AcDbTextStyleTableRecord
  2
ZION
 70
0
 40
0.0
 41
1.0
 50
0.0
 71
0
 42
2.5
  3
arial.ttf
  4

  0
ENDTAB
  0
TABLE
  2
VIEW
  5
7
330
0
100
AcDbSymbolTable
 70
0
  0
ENDTAB
  0
TABLE
  2
UCS
  5
6
330
0
100
AcDbSymbolTable
 70
0
  0
ENDTAB
  0
TABLE
  2
APPID
  5
3
330
0
100
AcDbSymbolTable
 70
3
  0
APPID
  5
2A
330
3
100
AcDbSymbolTableRecord
100
AcDbRegAppTableRecord
  2
ACAD
 70
0
  0
APPID
  5
105
330
3
100
AcDbSymbolTableRecord
100
AcDbRegAppTableRecord
  2
HATCHBACKGROUNDCOLOR
 70
0
  0
APPID
  5
106
330
3
100
AcDbSymbolTableRecord
100
AcDbRegAppTableRecord
  2
EZDXF
 70
0
  0
ENDTAB
  0
TABLE
  2
DIMSTYLE
  5
4
330
0
100
AcDbSymbolTable
 70
13
100
AcDbDimStyleTable
  0
DIMSTYLE
105
2B
330
4
100
AcDbSymbolTableRecord
100
AcDbDimStyleTableRecord
  2
Standard
 70
0
 40
1.0
 41
2.5
 42
0.625
 43
3.75
 44
1.25
 45
0.0
 46
0.0
 47
0.0
 48
0.0
 49
2.5
140
2.5
141
2.5
142
0.0
143
0.03937007874
144
1.0
145
0.0
146
1.0
147
0.625
148
0.0
 69
0
 70
0
 71
0
 72
0
 73
0
 74
0
 75
0
 76
0
 77
1
 78
8
 79
3
170
0
171
3
172
1
173
0
174
0
175
0
176
0
177
0
178
0
179
2
271
2
272
2
273
2
274
3
275
0
276
0
277
2
278
44
279
0
280
0
281
0
282
0
283
0
284
8
285
0
286
0
288
0
289
3
290
0
371
-2
372
-2
  0
DIMSTYLE
105
73
330
4
100
AcDbSymbolTableRecord
100
AcDbDimStyleTableRecord
  2
EZDXF
 70
0
 40
1.0
 41
0.175
 42
0.125
 43
3.75
 44
0.375
 45
0.0
 46
0.0
 47
0.0
 48
0.0
 49
2.5
140
0.25
141
2.5
142
0.0
143
0.03937007874
144
100.0
145
0.0
146
0.5
147
0.1
148
0.0
 69
0
 70
0
 71
0
 72
0
 73
0
 74
0
 75
0
 76
0
 77
1
 78
12
 79
3
170
0
171
3
172
1
173
0
174
0
175
0
176
0
177
0
178
0
179
2
271
2
272
2
273
2
274
3
275
0
276
0
277
2
278
46
279
2
280
0
281
0
282
0
283
0
284
8
285
0
286
0
288
1
289
3
290
0
340
4C
342
74
371
-2
372
-2
  0
DIMSTYLE
105
7C
330
4
100
AcDbSymbolTableRecord
100
AcDbDimStyleTableRecord
  2
EZ_M_100_H25_CM
 70
0
 40
1.0
 41
0.25
 42
0.125
 43
3.75
 44
0.375
 45
0.0
 46
0.0
 47
0.0
 48
0.0
 49
2.5
140
0.25
141
2.5
142
0.125
143
0.03937007874
144
100.0
145
0.0
146
0.5
147
0.1
148
0.0
 69
0
 70
0
 71
0
 72
0
 73
0
 74
0
 75
0
 76
0
 77
1
 78
12
 79
3
170
0
171
3
172
1
173
0
174
0
175
0
176
0
177
0
178
0
179
2
271
2
272
2
273
2
274
3
275
0
276
0
277
2
278
46
279
2
280
0
281
0
282
0
283
0
284
8
285
0
286
0
288
1
289
3
290
0
340
4C
371
-2
372
-2
  0
DIMSTYLE
105
7D
330
4
100
AcDbSymbolTableRecord
100
AcDbDimStyleTableRecord
  2
EZ_M_50_H25_CM
 70
0
 40
1.0
 41
0.125
 42
0.0625
 43
3.75
 44
0.1875
 45
0.0
 46
0.0
 47
0.0
 48
0.0
 49
2.5
140
0.125
141
2.5
142
0.0625
143
0.03937007874
144
100.0
145
0.0
146
0.5
147
0.05
148
0.0
 69
0
 70
0
 71
0
 72
0
 73
0
 74
0
 75
0
 76
0
 77
1
 78
12
 79
3
170
0
171
3
172
1
173
0
174
0
175
0
176
0
177
0
178
0
179
2
271
2
272
2
273
2
274
3
275
0
276
0
277
2
278
46
279
2
280
0
281
0
282
0
283
0
284
8
285
0
286
0
288
1
289
3
290
0
340
4C
371
-2
372
-2
  0
DIMSTYLE
105
7E
330
4
100
AcDbSymbolTableRecord
100
AcDbDimStyleTableRecord
  2
EZ_M_25_H25_CM
 70
0
 40
1.0
 41
0.0625
 42
0.03125
 43
3.75
 44
0.09375
 45
0.0
 46
0.0
 47
0.0
 48
0.0
 49
2.5
140
0.0625
141
2.5
142
0.03125
143
0.03937007874
144
100.0
145
0.0
146
0.5
147
0.025
148
0.0
 69
0
 70
0
 71
0
 72
0
 73
0
 74
0
 75
0
 76
0
 77
1
 78
12
 79
3
170
0
171
3
172
1
173
0
174
0
175
0
176
0
177
0
178
0
179
2
271
2
272
2
273
2
274
3
275
0
276
0
277
2
278
46
279
2
280
0
281
0
282
0
283
0
284
8
285
0
286
0
288
1
289
3
290
0
340
4C
371
-2
372
-2
  0
DIMSTYLE
105
7F
330
4
100
AcDbSymbolTableRecord
100
AcDbDimStyleTableRecord
  2
EZ_M_20_H25_CM
 70
0
 40
1.0
 41
0.05
 42
0.025
 43
3.75
 44
0.07500000000000001
 45
0.0
 46
0.0
 47
0.0
 48
0.0
 49
2.5
140
0.05
141
2.5
142
0.025
143
0.03937007874
144
100.0
145
0.0
146
0.5
147
0.020000000000000004
148
0.0
 69
0
 70
0
 71
0
 72
0
 73
0
 74
0
 75
0
 76
0
 77
1
 78
12
 79
3
170
0
171
3
172
1
173
0
174
0
175
0
176
0
177
0
178
0
179
2
271
2
272
2
273
2
274
3
275
0
276
0
277
2
278
46
279
2
280
0
281
0
282
0
283
0
284
8
285
0
286
0
288
1
289
3
290
0
340
4C
371
-2
372
-2
  0
DIMSTYLE
105
80
330
4
100
AcDbSymbolTableRecord
100
AcDbDimStyleTableRecord
  2
EZ_M_10_H25_CM
 70
0
 40
1.0
 41
0.025
 42
0.0125
 43
3.75
 44
0.037500000000000006
 45
0.0
 46
0.0
 47
0.0
 48
0.0
 49
2.5
140
0.025
141
2.5
142
0.0125
143
0.03937007874
144
100.0
145
0.0
146
0.5
147
0.010000000000000002
148
0.0
 69
0
 70
0
 71
0
 72
0
 73
0
 74
0
 75
0
 76
0
 77
1
 78
12
 79
3
170
0
171
3
172
1
173
0
174
0
175
0
176
0
177
0
178
0
179
2
271
2
272
2
273
2
274
3
275
0
276
0
277
2
278
46
279
2
280
0
281
0
282
0
283
0
284
8
285
0
286
0
288
1
289
3
290
0
340
4C
371
-2
372
-2
  0
DIMSTYLE
105
81
330
4
100
AcDbSymbolTableRecord
100
AcDbDimStyleTableRecord
  2
EZ_M_5_H25_CM
 70
0
 40
1.0
 41
0.0125
 42
0.00625
 43
3.75
 44
0.018750000000000003
 45
0.0
 46
0.0
 47
0.0
 48
0.0
 49
2.5
140
0.0125
141
2.5
142
0.00625
143
0.03937007874
144
100.0
145
0.0
146
0.5
147
0.005000000000000001
148
0.0
 69
0
 70
0
 71
0
 72
0
 73
0
 74
0
 75
0
 76
0
 77
1
 78
12
 79
3
170
0
171
3
172
1
173
0
174
0
175
0
176
0
177
0
178
0
179
2
271
2
272
2
273
2
274
3
275
0
276
0
277
2
278
46
279
2
280
0
281
0
282
0
283
0
284
8
285
0
286
0
288
1
289
3
290
0
340
4C
371
-2
372
-2
  0
DIMSTYLE
105
82
330
4
100
AcDbSymbolTableRecord
100
AcDbDimStyleTableRecord
  2
EZ_M_1_H25_CM
 70
0
 40
1.0
 41
0.0025
 42
0.00125
 43
3.75
 44
0.00375
 45
0.0
 46
0.0
 47
0.0
 48
0.0
 49
2.5
140
0.0025
141
2.5
142
0.00125
143
0.03937007874
144
100.0
145
0.0
146
0.5
147
0.001
148
0.0
 69
0
 70
0
 71
0
 72
0
 73
0
 74
0
 75
0
 76
0
 77
1
 78
12
 79
3
170
0
171
3
172
1
173
0
174
0
175
0
176
0
177
0
178
0
179
2
271
2
272
2
273
2
274
3
275
0
276
0
277
2
278
46
279
2
280
0
281
0
282
0
283
0
284
8
285
0
286
0
288
1
289
3
290
0
340
4C
371
-2
372
-2
  0
DIMSTYLE
105
83
330
4
100
AcDbSymbolTableRecord
100
AcDbDimStyleTableRecord
  2
EZ_RADIUS
 70
0
 40
1.0
 41
0.25
 42
0.125
 43
3.75
 44
0.375
 45
0.0
 46
0.0
 47
0.0
 48
0.0
 49
2.5
140
0.25
141
0.0
142
0.0
143
0.03937007874
144
100.0
145
0.0
146
0.5
147
0.1
148
0.0
 69
0
 70
0
 71
0
 72
0
 73
0
 74
0
 75
0
 76
0
 77
1
 78
12
 79
3
170
0
171
3
172
0
173
0
174
0
175
0
176
0
177
0
178
0
179
2
271
2
272
2
273
2
274
3
275
0
276
0
277
2
278
46
279
1
280
0
281
0
282
0
283
0
284
8
285
0
286
0
288
1
289
3
290
0
340
4C
342
84
371
-2
372
-2
  0
DIMSTYLE
105
88
330
4
100
AcDbSymbolTableRecord
100
AcDbDimStyleTableRecord
  2
EZ_RADIUS_INSIDE
 70
0
 40
1.0
 41
0.25
 42
0.125
 43
3.75
 44
0.375
 45
0.0
 46
0.0
 47
0.0
 48
0.0
 49
2.5
140
0.25
141
0.0
142
0.0
143
0.03937007874
144
100.0
145
0.0
146
0.5
147
0.1
148
0.0
 69
0
 70
0
 71
0
 72
0
 73
0
 74
0
 75
0
 76
0
 77
0
 78
12
 79
3
170
0
171
3
172
0
173
0
174
1
175
0
176
0
177
0
178
0
179
2
271
2
272
2
273
2
274
3
275
0
276
0
277
2
278
46
279
0
280
0
281
0
282
0
283
0
284
8
285
0
286
0
288
1
289
0
290
0
340
4C
342
84
371
-2
372
-2
  0
DIMSTYLE
105
89
330
4
100
AcDbSymbolTableRecord
100
AcDbDimStyleTableRecord
  2
EZ_CURVED
 70
0
 40
1.0
 41
0.25
 42
0.125
 43
3.75
 44
0.375
 45
0.0
 46
0.0
 47
0.0
 48
0.0
 49
2.5
140
0.25
141
2.5
142
0.0
143
0.03937007874
144
100.0
145
0.0
146
0.5
147
0.1
148
0.0
 69
0
 70
0
 71
0
 72
0
 73
0
 74
0
 75
0
 76
0
 77
1
 78
12
 79
2
 90
2
170
0
171
3
172
1
173
0
174
0
175
0
176
0
177
0
178
0
179
2
271
2
272
2
273
2
274
3
275
0
276
0
277
2
278
46
279
2
280
0
281
0
282
0
283
0
284
8
285
0
286
0
288
1
289
3
290
0
340
4C
371
-2
372
-2
  0
DIMSTYLE
105
9A
330
4
100
AcDbSymbolTableRecord
100
AcDbDimStyleTableRecord
  2
ZION_M
 70
0
 40
1.0
 41
0.08
 42
0.05
 43
3.75
 44
0.06
 45
0.0
 46
0.0
 47
0.0
 48
0.0
 49
2.5
140
0.12
141
2.5
142
0.0
143
0.03937007874
144
1.0
145
0.0
146
1.0
147
0.03
148
0.0
 69
0
 70
0
 71
0
 72
0
 73
0
 74
0
 75
0
 76
0
 77
1
 78
8
 79
3
170
0
171
3
172
1
173
0
174
0
175
0
176
2
177
2
178
2
179
2
271
2
272
2
273
2
274
3
275
0
276
0
277
2
278
44
279
0
280
0
281
0
282
0
283
0
284
8
285
0
286
0
288
0
289
3
290
0
340
99
371
-2
372
-2
  0
ENDTAB
  0
TABLE
  2
BLOCK_RECORD
  5
9
330
0
100
AcDbSymbolTable
 70
9
  0
BLOCK_RECORD
  5
17
330
9
100
AcDbSymbolTableRecord
100
AcDbBlockTableRecord
  2
*Model_Space
340
1A
 70
0
280
1
281
0
  0
BLOCK_RECORD
  5
1B
330
9
100
AcDbSymbolTableRecord
100
AcDbBlockTableRecord
  2
*Paper_Space
340
1E
 70
0
280
1
281
0
  0
BLOCK_RECORD
  5
74
330
9
100
AcDbSymbolTableRecord
100
AcDbBlockTableRecord
  2
_ARCHTICK
340
0
 70
0
280
1
281
0
  0
BLOCK_RECORD
  5
78
330
9
100
AcDbSymbolTableRecord
100
AcDbBlockTableRecord
  2
_CLOSEDFILLED
340
0
 70
0
280
1
281
0
  0
BLOCK_RECORD
  5
84
330
9
100
AcDbSymbolTableRecord
100
AcDbBlockTableRecord
  2
_CLOSEDBLANK
340
0
 70
0
280
1
281
0
  0
BLOCK_RECORD
  5
B3
330
9
100
AcDbSymbolTableRecord
100
AcDbBlockTableRecord
  2
*D1
340
0
 70
0
280
1
281
0
  0
BLOCK_RECORD
  5
C2
330
9
100
AcDbSymbolTableRecord
100
AcDbBlockTableRecord
  2
*D2
340
0
 70
0
280
1
281
0
  0
BLOCK_RECORD
  5
D1
330
9
100
AcDbSymbolTableRecord
100
AcDbBlockTableRecord
  2
*D3
340
0
 70
0
280
1
281
0
  0
BLOCK_RECORD
  5
E0
330
9
100
AcDbSymbolTableRecord
100
AcDbBlockTableRecord
  2
*D4
340
0
 70
0
280
1
281
0
  0
ENDTAB
  0
ENDSEC
  0
SECTION
  2
BLOCKS
  0
BLOCK
  5
18
330
17
100
AcDbEntity
  8
0
100
AcDbBlockBegin
  2
*Model_Space
 70
0
 10
0.0
 20
0.0
 30
0.0
  3
*Model_Space
  1

  0
ENDBLK
  5
19
330
17
100
AcDbEntity
  8
0
100
AcDbBlockEnd
  0
BLOCK
  5
1C
330
1B
100
AcDbEntity
  8
0
100
AcDbBlockBegin
  2
*Paper_Space
 70
0
 10
0.0
 20
0.0
 30
0.0
  3
*Paper_Space
  1

  0
ENDBLK
  5
1D
330
1B
100
AcDbEntity
  8
0
100
AcDbBlockEnd
  0
BLOCK
  5
75
330
74
100
AcDbEntity
  8
0
100
AcDbBlockBegin
  2
_ARCHTICK
 70
0
 10
0.0
 20
0.0
 30
0.0
  3
_ARCHTICK
  1

  0
LWPOLYLINE
  5
77
330
74
100
AcDbEntity
  8
0
  6
BYBLOCK
 62
0
100
AcDbPolyline
 90
2
 70
0
 43
0.15
 10
-0.5
 20
-0.5
 10
0.5
 20
0.5
  0
ENDBLK
  5
76
330
74
100
AcDbEntity
  8
0
100
AcDbBlockEnd
  0
BLOCK
  5
79
330
78
100
AcDbEntity
  8
0
100
AcDbBlockBegin
  2
_CLOSEDFILLED
 70
0
 10
0.0
 20
0.0
 30
0.0
  3
_CLOSEDFILLED
  1

  0
SOLID
  5
7B
330
78
100
AcDbEntity
  8
0
  6
BYBLOCK
 62
0
100
AcDbTrace
 10
-1.0
 20
0.16439898372402537
 30
0.0
 11
0.0
 21
0.0
 31
0.0
 12
-1.0
 22
-0.16439898372402537
 32
0.0
 13
-1.0
 23
-0.16439898372402537
 33
0.0
  0
ENDBLK
  5
7A
330
78
100
AcDbEntity
  8
0
100
AcDbBlockEnd
  0
BLOCK
  5
85
330
84
100
AcDbEntity
  8
0
100
AcDbBlockBegin
  2
_CLOSEDBLANK
 70
0
 10
0.0
 20
0.0
 30
0.0
  3
_CLOSEDBLANK
  1

  0
LWPOLYLINE
  5
87
330
84
100
AcDbEntity
  8
0
  6
BYBLOCK
 62
0
100
AcDbPolyline
 90
3
 70
1
 10
-1.0
 20
0.16439898372402537
 10
0.0
 20
0.0
 10
-1.0
 20
-0.16439898372402537
  0
ENDBLK
  5
86
330
84
100
AcDbEntity
  8
0
100
AcDbBlockEnd
  0
BLOCK
  5
B4
330
B3
100
AcDbEntity
  8
0
100
AcDbBlockBegin
  2
*D1
 70
1
 10
0.0
 20
0.0
 30
0.0
  3
*D1
  1

  0
LINE
  5
B6
330
B3
100
AcDbEntity
  8
0
 62
2
100
AcDbLine
 10
0.45
 20
-2.3499999999999996
 30
0.0
 11
0.45
 21
-2.86
 31
0.0
  0
LINE
  5
B7
330
B3
100
AcDbEntity
  8
0
 62
2
100
AcDbLine
 10
9.6
 20
-2.3499999999999996
 30
0.0
 11
9.6
 21
-2.86
 31
0.0
  0
INSERT
  5
B8
330
B3
100
AcDbEntity
  8
COTAS
 62
2
100
AcDbBlockReference
  2
_CLOSEDFILLED
 10
0.45
 20
-2.8
 30
0.0
 41
0.08
 42
0.08
 50
180.0
  0
INSERT
  5
BA
330
B3
100
AcDbEntity
  8
COTAS
 62
2
100
AcDbBlockReference
  2
_CLOSEDFILLED
 10
9.6
 20
-2.8
 30
0.0
 41
0.08
 42
0.08
  0
LINE
  5
BC
330
B3
100
AcDbEntity
  8
0
 62
2
100
AcDbLine
 10
0.53
 20
-2.8
 30
0.0
 11
9.52
 21
-2.8
 31
0.0
  0
MTEXT
  5
BD
330
B3
100
AcDbEntity
  8
COTAS
 62
2
100
AcDbMText
 10
5.025
 20
-2.71
 30
0.0
 40
0.12
 71
5
  1
9,60
  7
ZION
  0
POINT
  5
BE
330
B3
100
AcDbEntity
  8
Defpoints
100
AcDbPoint
 10
0.45
 20
-2.8
 30
0.0
  0
POINT
  5
BF
330
B3
100
AcDbEntity
  8
Defpoints
100
AcDbPoint
 10
0.45
 20
-2.3
 30
0.0
  0
POINT
  5
C0
330
B3
100
AcDbEntity
  8
Defpoints
100
AcDbPoint
 10
9.6
 20
-2.3
 30
0.0
  0
ENDBLK
  5
B5
330
B3
100
AcDbEntity
  8
0
100
AcDbBlockEnd
  0
BLOCK
  5
C3
330
C2
100
AcDbEntity
  8
0
100
AcDbBlockBegin
  2
*D2
 70
1
 10
0.0
 20
0.0
 30
0.0
  3
*D2
  1

  0
LINE
  5
C5
330
C2
100
AcDbEntity
  8
0
 62
2
100
AcDbLine
 10
-3.7
 20
-2.3499999999999996
 30
0.0
 11
-3.7
 21
-2.86
 31
0.0
  0
LINE
  5
C6
330
C2
100
AcDbEntity
  8
0
 62
2
100
AcDbLine
 10
0.9
 20
-2.3499999999999996
 30
0.0
 11
0.9
 21
-2.86
 31
0.0
  0
INSERT
  5
C7
330
C2
100
AcDbEntity
  8
COTAS
 62
2
100
AcDbBlockReference
  2
_CLOSEDFILLED
 10
-3.7
 20
-2.8
 30
0.0
 41
0.08
 42
0.08
 50
180.0
  0
INSERT
  5
C9
330
C2
100
AcDbEntity
  8
COTAS
 62
2
100
AcDbBlockReference
  2
_CLOSEDFILLED
 10
0.9
 20
-2.8
 30
0.0
 41
0.08
 42
0.08
  0
LINE
  5
CB
330
C2
100
AcDbEntity
  8
0
 62
2
100
AcDbLine
 10
-3.62
 20
-2.8
 30
0.0
 11
0.8200000000000001
 21
-2.8
 31
0.0
  0
MTEXT
  5
CC
330
C2
100
AcDbEntity
  8
COTAS
 62
2
100
AcDbMText
 10
-1.4
 20
-2.71
 30
0.0
 40
0.12
 71
5
  1
4,60
  7
ZION
  0
POINT
  5
CD
330
C2
100
AcDbEntity
  8
Defpoints
100
AcDbPoint
 10
-3.7
 20
-2.8
 30
0.0
  0
POINT
  5
CE
330
C2
100
AcDbEntity
  8
Defpoints
100
AcDbPoint
 10
-3.7
 20
-2.3
 30
0.0
  0
POINT
  5
CF
330
C2
100
AcDbEntity
  8
Defpoints
100
AcDbPoint
 10
0.9
 20
-2.3
 30
0.0
  0
ENDBLK
  5
C4
330
C2
100
AcDbEntity
  8
0
100
AcDbBlockEnd
  0
BLOCK
  5
D2
330
D1
100
AcDbEntity
  8
0
100
AcDbBlockBegin
  2
*D3
 70
1
 10
0.0
 20
0.0
 30
0.0
  3
*D3
  1

  0
LINE
  5
D4
330
D1
100
AcDbEntity
  8
0
 62
2
100
AcDbLine
 10
10.55
 20
0.0
 30
0.0
 11
11.16
 21
0.0
 31
0.0
  0
LINE
  5
D5
330
D1
100
AcDbEntity
  8
0
 62
2
100
AcDbLine
 10
10.55
 20
4.2
 30
0.0
 11
11.16
 21
4.2
 31
0.0
  0
INSERT
  5
D6
330
D1
100
AcDbEntity
  8
COTAS
 62
2
100
AcDbBlockReference
  2
_CLOSEDFILLED
 10
11.1
 20
0.0
 30
0.0
 41
0.08
 42
0.08
 50
270.0
  0
INSERT
  5
D8
330
D1
100
AcDbEntity
  8
COTAS
 62
2
100
AcDbBlockReference
  2
_CLOSEDFILLED
 10
11.1
 20
4.2
 30
0.0
 41
0.08
 42
0.08
 50
90.0
  0
LINE
  5
DA
330
D1
100
AcDbEntity
  8
0
 62
2
100
AcDbLine
 10
11.1
 20
0.08
 30
0.0
 11
11.1
 21
4.12
 31
0.0
  0
MTEXT
  5
DB
330
D1
100
AcDbEntity
  8
COTAS
 62
2
100
AcDbMText
 10
11.01
 20
2.1
 30
0.0
 40
0.12
 71
5
  1
4,20
  7
ZION
 50
90.0
  0
POINT
  5
DC
330
D1
100
AcDbEntity
  8
Defpoints
100
AcDbPoint
 10
11.1
 20
0.0
 30
0.0
  0
POINT
  5
DD
330
D1
100
AcDbEntity
  8
Defpoints
100
AcDbPoint
 10
10.5
 20
0.0
 30
0.0
  0
POINT
  5
DE
330
D1
100
AcDbEntity
  8
Defpoints
100
AcDbPoint
 10
10.5
 20
4.2
 30
0.0
  0
ENDBLK
  5
D3
330
D1
100
AcDbEntity
  8
0
100
AcDbBlockEnd
  0
BLOCK
  5
E1
330
E0
100
AcDbEntity
  8
0
100
AcDbBlockBegin
  2
*D4
 70
1
 10
0.0
 20
0.0
 30
0.0
  3
*D4
  1

  0
LINE
  5
E3
330
E0
100
AcDbEntity
  8
0
 62
2
100
AcDbLine
 10
-2.55
 20
4.85
 30
0.0
 11
-2.55
 21
5.359999999999999
 31
0.0
  0
LINE
  5
E4
330
E0
100
AcDbEntity
  8
0
 62
2
100
AcDbLine
 10
0.45
 20
4.85
 30
0.0
 11
0.45
 21
5.359999999999999
 31
0.0
  0
INSERT
  5
E5
330
E0
100
AcDbEntity
  8
COTAS
 62
2
100
AcDbBlockReference
  2
_CLOSEDFILLED
 10
-2.55
 20
5.3
 30
0.0
 41
0.08
 42
0.08
 50
180.0
  0
INSERT
  5
E7
330
E0
100
AcDbEntity
  8
COTAS
 62
2
100
AcDbBlockReference
  2
_CLOSEDFILLED
 10
0.45
 20
5.3
 30
0.0
 41
0.08
 42
0.08
  0
LINE
  5
E9
330
E0
100
AcDbEntity
  8
0
 62
2
100
AcDbLine
 10
-2.4699999999999998
 20
5.3
 30
0.0
 11
0.37
 21
5.3
 31
0.0
  0
MTEXT
  5
EA
330
E0
100
AcDbEntity
  8
COTAS
 62
2
100
AcDbMText
 10
-1.0499999999999998
 20
5.39
 30
0.0
 40
0.12
 71
5
  1
3,00 (bico)
  7
ZION
  0
POINT
  5
EB
330
E0
100
AcDbEntity
  8
Defpoints
100
AcDbPoint
 10
-2.55
 20
5.3
 30
0.0
  0
POINT
  5
EC
330
E0
100
AcDbEntity
  8
Defpoints
100
AcDbPoint
 10
-2.55
 20
4.8
 30
0.0
  0
POINT
  5
ED
330
E0
100
AcDbEntity
  8
Defpoints
100
AcDbPoint
 10
0.45
 20
4.8
 30
0.0
  0
ENDBLK
  5
E2
330
E0
100
AcDbEntity
  8
0
100
AcDbBlockEnd
  0
ENDSEC
  0
SECTION
  2
ENTITIES
  0
LWPOLYLINE
  5
9B
330
17
100
AcDbEntity
  8
COBERTURA
100
AcDbPolyline
 90
320
 70
1
 10
-0.1463448951515403
 20
4.124718858131488
 10
-0.07600970102670579
 20
4.127627306445792
 10
-0.005647975685093787
 20
4.130478459314537
 10
0.06473973083220885
 20
4.133272316737723
 10
0.13515286848411578
 20
4.13600887871535
 10
0.20559088722954033
 20
4.13868814524742
 10
0.2760532370273966
 20
4.14131011633393
 10
0.3465393678365978
 20
4.143874791974881
 10
0.4170487296160572
 20
4.146382172170274
 10
0.48758077232468894
 20
4.148832256920107
 10
0.5581349459214056
 20
4.151225046224383
 10
0.6287107003651218
 20
4.153560540083099
 10
0.6993074856147503
 20
4.155838738496257
 10
0.7699247516292052
 20
4.158059641463856
 10
0.8405619483673996
 20
4.160223248985897
 10
0.911218525788247
 20
4.1623295610623785
 10
0.9818939338506613
 20
4.164378577693302
 10
1.052587622513556
 20
4.166370298878666
 10
1.1232990417358444
 20
4.168304724618472
 10
1.1940276414764397
 20
4.170181854912719
 10
1.2647728716942563
 20
4.172001689761407
 10
1.3355341823482072
 20
4.1737642291645365
 10
1.406311023397206
 20
4.175469473122108
 10
1.4771028448001662
 20
4.1771174216341205
 10
1.5479090965160016
 20
4.178708074700573
 10
1.6187292285036252
 20
4.180241432321468
 10
1.6895626907219512
 20
4.181717494496804
 10
1.7604089331298929
 20
4.183136261226581
 10
1.8312674056863631
 20
4.184497732510801
 10
1.9021375583502766
 20
4.18580190834946
 10
1.9730188410805458
 20
4.187048788742562
 10
2.043910703836085
 20
4.188238373690104
 10
2.1148125965758076
 20
4.189370663192088
 10
2.1857239692586266
 20
4.190445657248513
 10
2.2566442718434563
 20
4.19146335585938
 10
2.3275729542892094
 20
4.192423759024687
 10
2.3985094665548004
 20
4.193326866744436
 10
2.4694532585991418
 20
4.194172679018626
 10
2.5404037803811477
 20
4.194961195847258
 10
2.6113604818597325
 20
4.195692417230331
 10
2.682322812993808
 20
4.1963663431678455
 10
2.753290223742289
 20
4.196982973659801
 10
2.824262164064088
 20
4.197542308706198
 10
2.895238083918119
 20
4.198044348307036
 10
2.9662174332632967
 20
4.1984890924623155
 10
3.037199662058533
 20
4.198876541172036
 10
3.097169811320755
 20
4.199206694436198
 10
3.1547169811320757
 20
4.199479552254802
 10
3.2122641509433967
 20
4.199695114627846
 10
3.2698113207547173
 20
4.199853381555332
 10
3.327358490566038
 20
4.19995435303726
 10
3.384905660377359
 20
4.199998029073628
 10
3.4424528301886794
 20
4.199927328067909
 10
3.5000000000000004
 20
4.199596747965774
 10
3.557547169811321
 20
4.198998987144254
 10
3.6150943396226416
 20
4.1981338909520325
 10
3.6726415094339626
 20
4.197001235361942
 10
3.730188679245283
 20
4.195600726680455
 10
3.787735849056604
 20
4.193932001166006
 10
3.845283018867925
 20
4.191994624554992
 10
3.9028301886792454
 20
4.189788091494011
 10
3.9603773584905664
 20
4.187311824876584
 10
4.0179245283018865
 20
4.184565175082336
 10
4.0754716981132075
 20
4.181547419116249
 10
4.1330188679245285
 20
4.1782577596453265
 10
4.190566037735849
 20
4.174695323929619
 10
4.24811320754717
 20
4.170859162644229
 10
4.305660377358491
 20
4.166748248588514
 10
4.363207547169812
 20
4.162361475278315
 10
4.420754716981132
 20
4.157697655416603
 10
4.478301886792453
 20
4.15275551923749
 10
4.535849056603774
 20
4.147533712718053
 10
4.593396226415095
 20
4.142030795651904
 10
4.650943396226415
 20
4.136245239577887
 10
4.708490566037736
 20
4.130175425556672
 10
4.766037735849057
 20
4.123819641787369
 10
4.823584905660377
 20
4.117176081055593
 10
4.881132075471698
 20
4.110242838003643
 10
4.938679245283019
 20
4.103017906212653
 10
4.99622641509434
 20
4.095499175085643
 10
5.05377358490566
 20
4.087684426519486
 10
5.111320754716981
 20
4.079571331352671
 10
5.1688679245283025
 20
4.071157445574659
 10
5.226415094339623
 20
4.062440206281318
 10
5.283962264150944
 20
4.053416927359531
 10
5.341509433962265
 20
4.044084794882593
 10
5.399056603773585
 20
4.0344408621962895
 10
5.456603773584906
 20
4.0244820446737375
 10
5.514150943396227
 20
4.014205114115033
 10
5.571698113207548
 20
4.003606692765516
 10
5.629245283018868
 20
3.992683246923958
 10
5.686792452830189
 20
3.9814310801092785
 10
5.74433962264151
 20
3.969846325751305
 10
5.80188679245283
 20
3.9579249393677514
 10
5.859433962264151
 20
3.945662690185788
 10
5.916981132075472
 20
3.9330551521624173
 10
5.974528301886793
 20
3.9200976943531542
 10
6.032075471698113
 20
3.9067854705732836
 10
6.089622641509434
 20
3.8931134082901027
 10
6.147169811320755
 20
3.8790761966779486
 10
6.2047169811320755
 20
3.8646682737604063
 10
6.2622641509433965
 20
3.8498838125557358
 10
6.3198113207547175
 20
3.834716706132127
 10
6.377358490566038
 20
3.819160551468703
 10
6.434905660377359
 20
3.8032086320061143
 10
6.49245283018868
 20
3.7868538987567795
 10
6.550000000000001
 20
3.7700889498291996
 10
6.607547169811321
 20
3.7529060082028622
 10
6.665094339622642
 20
3.735296897569806
 10
6.722641509433963
 20
3.7172530160354382
 10
6.780188679245283
 20
3.698765307444192
 10
6.837735849056604
 20
3.679824230064476
 10
6.895283018867925
 20
3.6604197223313566
 10
6.952830188679245
 20
3.6405411653036346
 10
7.010377358490566
 20
3.620177341443389
 10
7.067924528301887
 20
3.5993163892693425
 10
7.125471698113208
 20
3.5779457533689825
 10
7.183018867924528
 20
3.556052129176365
 10
7.240566037735849
 20
3.5336214018305085
 10
7.29811320754717
 20
3.5106385783203953
 10
7.3556603773584905
 20
3.487087711993219
 10
7.413207547169812
 20
3.462951818348148
 10
7.470754716981133
 20
3.4382127808529237
 10
7.528301886792453
 20
3.412851245297991
 10
7.585849056603774
 20
3.386846500933616
 10
7.643396226415095
 20
3.360176346308299
 10
7.700943396226416
 20
3.332816937326949
 10
7.758490566037736
 20
3.3047426145561785
 10
7.816037735849057
 20
3.275925706197085
 10
7.873584905660378
 20
3.246336302391102
 10
7.931132075471698
 20
3.2159419955797195
 10
7.988679245283019
 20
3.184707580447966
 10
8.04622641509434
 20
3.1525947054691286
 10
8.10377358490566
 20
3.1195614661321747
 10
8.16132075471698
 20
3.0855619274339774
 10
8.218867924528302
 20
3.050545559962154
 10
8.276415094339622
 20
3.014456569610335
 10
8.333962264150943
 20
2.977233095271769
 10
8.391509433962264
 20
2.9388062411973777
 10
8.449056603773585
 20
2.8990989002755208
 10
8.506603773584905
 20
2.858024310099864
 10
8.564150943396227
 20
2.815484263540463
 10
8.621698113207547
 20
2.7713668668581373
 10
8.679245283018867
 20
2.725543696869069
 10
8.736792452830189
 20
2.6778661473184866
 10
8.794339622641509
 20
2.6281606620051323
 10
8.851886792452829
 20
2.5762224089105272
 10
8.909433962264151
 20
2.5218067216969344
 10
8.966981132075471
 20
2.464617260911984
 10
9.024528301886791
 20
2.4042892107652434
 10
9.082075471698113
 20
2.3403646977730643
 10
9.139622641509433
 20
2.2722555110845364
 10
9.197169811320753
 20
2.199184035854699
 10
9.254716981132075
 20
2.1200844414610627
 10
9.312264150943395
 20
2.0334254937419436
 10
9.369811320754716
 20
1.9368621144771754
 10
9.427358490566037
 20
1.8264553713411265
 10
9.484905660377358
 20
1.6945424930792572
 10
9.54245283018868
 20
1.5213885466250459
 10
9.6
 20
1.1
 10
9.6
 20
0.0
 10
9.54245283018868
 20
0.0
 10
9.484905660377358
 20
0.0
 10
9.427358490566037
 20
0.0
 10
9.369811320754716
 20
0.0
 10
9.312264150943395
 20
0.0
 10
9.254716981132075
 20
0.0
 10
9.197169811320753
 20
0.0
 10
9.139622641509433
 20
0.0
 10
9.082075471698113
 20
0.0
 10
9.024528301886791
 20
0.0
 10
8.966981132075471
 20
0.0
 10
8.909433962264151
 20
0.0
 10
8.851886792452829
 20
0.0
 10
8.794339622641509
 20
0.0
 10
8.736792452830189
 20
0.0
 10
8.679245283018867
 20
0.0
 10
8.621698113207547
 20
0.0
 10
8.564150943396227
 20
0.0
 10
8.506603773584905
 20
0.0
 10
8.449056603773585
 20
0.0
 10
8.391509433962264
 20
0.0
 10
8.333962264150943
 20
0.0
 10
8.276415094339622
 20
0.0
 10
8.218867924528302
 20
0.0
 10
8.16132075471698
 20
0.0
 10
8.10377358490566
 20
0.0
 10
8.04622641509434
 20
0.0
 10
7.988679245283019
 20
0.0
 10
7.931132075471698
 20
0.0
 10
7.873584905660378
 20
0.0
 10
7.816037735849057
 20
0.0
 10
7.758490566037736
 20
0.0
 10
7.700943396226416
 20
0.0
 10
7.643396226415095
 20
0.0
 10
7.585849056603774
 20
0.0
 10
7.528301886792453
 20
0.0
 10
7.470754716981133
 20
0.0
 10
7.413207547169812
 20
0.0
 10
7.3556603773584905
 20
0.0
 10
7.29811320754717
 20
0.0
 10
7.240566037735849
 20
0.0
 10
7.183018867924528
 20
0.0
 10
7.125471698113208
 20
0.0
 10
7.067924528301887
 20
0.0
 10
7.010377358490566
 20
0.0
 10
6.952830188679245
 20
0.0
 10
6.895283018867925
 20
0.0
 10
6.837735849056604
 20
0.0
 10
6.780188679245283
 20
0.0
 10
6.722641509433963
 20
0.0
 10
6.665094339622642
 20
0.0
 10
6.607547169811321
 20
0.0
 10
6.550000000000001
 20
0.0
 10
6.49245283018868
 20
0.0
 10
6.434905660377359
 20
0.0
 10
6.377358490566038
 20
0.0
 10
6.3198113207547175
 20
0.0
 10
6.2622641509433965
 20
0.0
 10
6.2047169811320755
 20
0.0
 10
6.147169811320755
 20
0.0
 10
6.089622641509434
 20
0.0
 10
6.032075471698113
 20
0.0
 10
5.974528301886793
 20
0.0
 10
5.916981132075472
 20
0.0
 10
5.859433962264151
 20
0.0
 10
5.80188679245283
 20
0.0
 10
5.74433962264151
 20
0.0
 10
5.686792452830189
 20
0.0
 10
5.629245283018868
 20
0.0
 10
5.571698113207548
 20
0.0
 10
5.514150943396227
 20
0.0
 10
5.456603773584906
 20
0.0
 10
5.399056603773585
 20
0.0
 10
5.341509433962265
 20
0.0
 10
5.283962264150944
 20
0.0
 10
5.226415094339623
 20
0.0
 10
5.1688679245283025
 20
0.0
 10
5.111320754716981
 20
0.0
 10
5.05377358490566
 20
0.0
 10
4.99622641509434
 20
0.0
 10
4.938679245283019
 20
0.0
 10
4.881132075471698
 20
0.0
 10
4.823584905660377
 20
0.0
 10
4.766037735849057
 20
0.0
 10
4.708490566037736
 20
0.0
 10
4.650943396226415
 20
0.0
 10
4.593396226415095
 20
0.0
 10
4.535849056603774
 20
0.0
 10
4.478301886792453
 20
0.0
 10
4.420754716981132
 20
0.0
 10
4.363207547169812
 20
0.0
 10
4.305660377358491
 20
0.0
 10
4.24811320754717
 20
0.0
 10
4.190566037735849
 20
0.0
 10
4.1330188679245285
 20
0.0
 10
4.0754716981132075
 20
0.0
 10
4.0179245283018865
 20
0.0
 10
3.9603773584905664
 20
0.0
 10
3.9028301886792454
 20
0.0
 10
3.845283018867925
 20
0.0
 10
3.787735849056604
 20
0.0
 10
3.730188679245283
 20
0.0
 10
3.6726415094339626
 20
0.0
 10
3.6150943396226416
 20
0.0
 10
3.557547169811321
 20
0.0
 10
3.5000000000000004
 20
0.0
 10
3.4424528301886794
 20
0.0
 10
3.384905660377359
 20
0.0
 10
3.327358490566038
 20
0.0
 10
3.2698113207547173
 20
0.0
 10
3.2122641509433967
 20
0.0
 10
3.1547169811320757
 20
0.0
 10
3.097169811320755
 20
0.0
 10
3.039622641509434
 20
0.0
 10
2.9820754716981135
 20
0.0
 10
2.9245283018867925
 20
0.0
 10
2.866981132075472
 20
0.0
 10
2.8094339622641513
 20
0.0
 10
2.7518867924528303
 20
0.0
 10
2.6943396226415097
 20
0.0
 10
2.6367924528301887
 20
0.0
 10
2.579245283018868
 20
0.0
 10
2.5216981132075476
 20
0.0
 10
2.4641509433962265
 20
0.0
 10
2.406603773584906
 20
0.0
 10
2.349056603773585
 20
0.0
 10
2.2915094339622644
 20
0.0
 10
2.2339622641509433
 20
0.0
 10
2.1764150943396228
 20
0.0
 10
2.118867924528302
 20
0.0
 10
2.061320754716981
 20
0.0
 10
2.0037735849056606
 20
0.0
 10
1.9462264150943396
 20
0.0
 10
1.8886792452830188
 20
0.0
 10
1.8311320754716982
 20
0.0
 10
1.7735849056603774
 20
0.0
 10
1.7160377358490566
 20
0.0
 10
1.6584905660377358
 20
0.0
 10
1.600943396226415
 20
0.0
 10
1.5433962264150942
 20
0.0
 10
1.4858490566037736
 20
0.0
 10
1.4283018867924528
 20
0.0
 10
1.370754716981132
 20
0.0
 10
1.3132075471698113
 20
0.0
 10
1.2556603773584907
 20
0.0
 10
1.1981132075471699
 20
0.0
 10
1.140566037735849
 20
0.0
 10
1.0830188679245283
 20
0.0
 10
1.0254716981132075
 20
0.0
 10
0.9679245283018869
 20
0.0
 10
0.9103773584905661
 20
0.0
 10
0.8528301886792453
 20
0.0
 10
0.7952830188679245
 20
0.0
 10
0.7377358490566037
 20
0.0
 10
0.680188679245283
 20
0.0
 10
0.6226415094339623
 20
0.0
 10
0.5650943396226416
 20
0.0
 10
0.5075471698113208
 20
0.0
 10
0.45
 20
0.0
  0
LWPOLYLINE
  5
9C
330
17
100
AcDbEntity
  8
COBERTURA
100
AcDbPolyline
 90
17
 70
0
 10
-0.1463448951515403
 20
4.124718858131488
 10
-0.2963448951515403
 20
4.129406358131488
 10
-0.4463448951515403
 20
4.137977110278736
 10
-0.5963448951515402
 20
4.149075822612925
 10
-0.7463448951515403
 20
4.162218858131488
 10
-0.8963448951515403
 20
4.1771267013541395
 10
-1.0463448951515402
 20
4.193610757147265
 10
-1.1963448951515403
 20
4.211532573025795
 10
-1.3463448951515402
 20
4.23078487530947
 10
-1.4963448951515401
 20
4.2512813581314886
 10
-1.6463448951515403
 20
4.272950623451881
 10
-1.7963448951515402
 20
4.295732323884189
 10
-1.94634489515154
 20
4.319574573982987
 10
-2.09634489515154
 20
4.344432138980075
 10
-2.2463448951515406
 20
4.370265124138528
 10
-2.3963448951515405
 20
4.3970379996616975
 10
-2.5463448951515404
 20
4.424718858131488
  0
LWPOLYLINE
  5
9D
330
17
100
AcDbEntity
  8
COBERTURA
100
AcDbPolyline
 90
25
 70
0
 10
-2.5463448951515404
 20
4.424718858131488
 10
-2.4605149134010116
 20
4.405000155298243
 10
-2.373008068571947
 20
4.377731825641517
 10
-2.283798920656562
 20
4.342946697409424
 10
-2.192861575907087
 20
4.300695805134719
 10
-2.1001691950569197
 20
4.251048356172674
 10
-2.005693390877639
 20
4.194091670172836
 10
-1.9094034849241452
 20
4.129931095295612
 10
-1.8112655823253065
 20
4.05868990624501
 10
-1.711241407519819
 20
3.9805091909375303
 10
-1.6092868201924568
 20
3.8955477351150742
 10
-1.505349894809819
 20
3.8039819178438
 10
-1.39936839133603
 20
3.706005636300896
 10
-1.2912663551801276
 20
3.601830286710484
 10
-1.1809494358156303
 20
3.491684841851008
 10
-1.0682982567872252
 20
3.375816088156079
 10
-0.9531587049868739
 20
3.254489124824177
 10
-0.8353271167396372
 20
3.1279882997727264
 10
-0.7145265115713963
 20
2.996618899282377
 10
-0.5903659397341245
 20
2.8607102099803403
 10
-0.4622647945900615
 20
2.7206212834703156
 10
-0.3292941855130261
 20
2.5767526662898375
 10
-0.18977886775703978
 20
2.4295738099420614
 10
-0.03991828458107971
 20
2.2797064599801415
 10
0.1422606838465103
 20
2.1285302700616375
  0
LWPOLYLINE
  5
9E
330
17
100
AcDbEntity
  8
ESTRUTURA
100
AcDbPolyline
 90
18
 70
0
 10
1.3317102372759604
 20
4.088507785467128
 10
-0.13405573852503433
 20
4.039718858131488
 10
-0.2840557385250343
 20
4.044406358131488
 10
-0.4340557385250343
 20
4.052977110278736
 10
-0.5840557385250342
 20
4.064075822612925
 10
-0.7340557385250344
 20
4.077218858131488
 10
-0.8840557385250343
 20
4.09212670135414
 10
-1.0340557385250342
 20
4.108610757147265
 10
-1.1840557385250343
 20
4.126532573025795
 10
-1.3340557385250342
 20
4.14578487530947
 10
-1.4840557385250341
 20
4.166281358131489
 10
-1.6340557385250343
 20
4.187950623451881
 10
-1.7840557385250342
 20
4.210732323884189
 10
-1.934055738525034
 20
4.234574573982987
 10
-2.0840557385250342
 20
4.259432138980075
 10
-2.2340557385250346
 20
4.285265124138528
 10
-2.3840557385250345
 20
4.3120379996616975
 10
-2.5340557385250344
 20
4.339718858131488
  0
LWPOLYLINE
  5
9F
330
17
100
AcDbEntity
  8
ESTRUTURA
100
AcDbPolyline
 90
2
 70
0
 10
-1.5740557385250342
 20
4.1791462585949555
 10
0.010197224049238118
 20
3.0419692003261036
  0
LWPOLYLINE
  5
A0
330
17
100
AcDbEntity
  8
ESTRUTURA
100
AcDbPolyline
 90
2
 70
0
 10
-1.5740557385250342
 20
4.1791462585949555
 10
0.010197224049237952
 20
3.0419692003261045
  0
LWPOLYLINE
  5
A1
330
17
100
AcDbEntity
  8
ESTRUTURA
100
AcDbPolyline
 90
2
 70
0
 10
0.45
 20
0.0
 10
-0.1471084337349396
 20
4.13
  0
LWPOLYLINE
  5
A2
330
17
100
AcDbEntity
  8
ESQUADRIAS
100
AcDbPolyline
 90
48
 70
1
 10
2.692397413130791
 20
1.5042015773674844
 10
2.675810657323996
 20
1.555722123388001
 10
2.648119428243478
 20
1.6031929198258263
 10
2.6150045248510145
 20
1.6464648883107897
 10
2.5783689659072175
 20
1.6860029522872386
 10
2.5389471722920276
 20
1.7223762468689379
 10
2.496873230231147
 20
1.7560928332612653
 10
2.451918500702434
 20
1.7875260257069545
 10
2.4036121807055975
 20
1.8168560515297434
 10
2.3513243705060844
 20
1.843981321441491
 10
2.294374175261881
 20
1.8683395828853502
 10
2.2322701508671687
 20
1.8884761845465565
 10
2.165475063164307
 20
1.900050142619015
 10
2.0997473934523385
 20
1.8876884923800112
 10
2.0394731006456586
 20
1.8668502042962203
 10
1.9847269710705358
 20
1.8418839036975654
 10
1.9348873039090935
 20
1.8142378100208645
 10
1.889222764444616
 20
1.7844653412298606
 10
1.8470941494040574
 20
1.7526606883821647
 10
1.808046398675327
 20
1.7186391960217349
 10
1.7718836264005062
 20
1.6820269157053036
 10
1.7387843467975939
 20
1.6423197330170225
 10
1.7095323413402261
 20
1.5989582040803603
 10
1.6860698931254976
 20
1.5514952364470314
 10
1.674060096572568
 20
1.5001201548320102
 10
1.6932439969441588
 20
1.4487444521267827
 10
1.7230762770287997
 20
1.4011009148692182
 10
1.7578210083545158
 20
1.357388025295859
 10
1.7955952767227517
 20
1.3171946083208188
 10
1.8356973747554102
 20
1.279992558531744
 10
1.8780175496698766
 20
1.245302575130851
 10
1.922792946402905
 20
1.2127720153330932
 10
1.9704850931735232
 20
1.1822391178893614
 10
2.0216983153163217
 20
1.1538303143240076
 10
2.0770784131580764
 20
1.1281540292232421
 10
2.1370919786592246
 20
1.1067644911144354
 10
2.201320192939169
 20
1.0942814962215943
 10
2.264427614785856
 20
1.1070115012554667
 10
2.3225290954303444
 20
1.1286583175444078
 10
2.375616601606099
 20
1.154606038614777
 10
2.424294876286855
 20
1.1833025140490945
 10
2.4692637680744056
 20
1.2141412242058423
 10
2.511138790452895
 20
1.2469980142924117
 10
2.550367033476775
 20
1.282037292162188
 10
2.587154228016103
 20
1.319614266459182
 10
2.62134793031712
 20
1.3602095673903203
 10
2.6521993570075235
 20
1.404348692301407
 10
2.6777887987469042
 20
1.4524294569346248
  0
LWPOLYLINE
  5
A3
330
17
100
AcDbEntity
  8
ESQUADRIAS
100
AcDbPolyline
 90
48
 70
1
 10
5.12
 20
1.4785206808661966
 10
5.105604044216546
 20
1.5288078658263022
 10
5.081014086485988
 20
1.5756265705515857
 10
5.051490115192803
 20
1.6186632008041655
 10
5.0187959180078865
 20
1.6582996161222536
 10
4.983615711009546
 20
1.6950528886555447
 10
4.946081446725295
 20
1.7294016297367767
 10
4.905992338671414
 20
1.7617076596878352
 10
4.862924422537889
 20
1.792154376484964
 10
4.816302650871595
 20
1.8206551845964627
 10
4.765489876400359
 20
1.8466709480152466
 10
4.709981410332027
 20
1.8687715065690698
 10
4.65
 20
1.8826363415527738
 10
4.590018589667974
 20
1.872846321508991
 10
4.534510123599642
 20
1.854376722028508
 10
4.483697349128406
 20
1.8315090402215553
 10
4.437075577462112
 20
1.8057068150074898
 10
4.394007661328587
 20
1.7775547841380273
 10
4.353918553274705
 20
1.7471776150153413
 10
4.316384288990456
 20
1.7144145486008346
 10
4.281204081992114
 20
1.6789066839262285
 10
4.248509884807198
 20
1.640154462570484
 10
4.218985913514013
 20
1.5975898424085897
 10
4.194395955783455
 20
1.550737330548769
 10
4.180000000000001
 20
1.4996994776459722
 10
4.194395955783455
 20
1.4480837089089036
 10
4.218985913514013
 20
1.4000514621021918
 10
4.248509884807198
 20
1.3559141597159643
 10
4.281204081992114
 20
1.315295759036554
 10
4.316384288990455
 20
1.277681035619298
 10
4.353918553274705
 20
1.242594001443175
 10
4.394007661328587
 20
1.20968055126465
 10
4.437075577462112
 20
1.1787742628310474
 10
4.483697349128406
 20
1.1499931990735694
 10
4.534510123599642
 20
1.1239306360055703
 10
4.590018589667974
 20
1.1021101770616004
 10
4.65
 20
1.08906846309911
 10
4.709981410332027
 20
1.1008323674606741
 10
4.765489876400359
 20
1.1213215399242968
 10
4.816302650871595
 20
1.1459789298697964
 10
4.862924422537889
 20
1.1732699535337565
 10
4.905992338671414
 20
1.202591279708842
 10
4.946081446725295
 20
1.2338128740029761
 10
4.983615711009545
 20
1.2670872709502956
 10
5.018795918007886
 20
1.3027551150328651
 10
5.051490115192803
 20
1.3412853954262571
 10
5.081014086485988
 20
1.3832069268460567
 10
5.105604044216546
 20
1.4289655768026421
  0
LWPOLYLINE
  5
A4
330
17
100
AcDbEntity
  8
ESQUADRIAS
100
AcDbPolyline
 90
48
 70
1
 10
8.6
 20
1.7319566562170698
 10
8.587748122737485
 20
1.7617128183685333
 10
8.56682049913701
 20
1.7928912110186195
 10
8.541693715057704
 20
1.823774054439964
 10
8.51386886638969
 20
1.854000412855164
 10
8.483928264688974
 20
1.8835951438149794
 10
8.451984209978974
 20
1.9127301986846426
 10
8.417865820145883
 20
1.9416179651094478
 10
8.38121227450033
 20
1.9704422065734395
 10
8.341534170954548
 20
1.9992815856556019
 10
8.298289256510943
 20
2.0279762872321285
 10
8.251048008793214
 20
2.0558204593374327
 10
8.2
 20
2.0802794102451063
 10
8.148951991206784
 20
2.0914249245147403
 10
8.101710743489056
 20
2.0959993870277347
 10
8.058465829045451
 20
2.096325384887799
 10
8.018787725499669
 20
2.093408850661412
 10
7.982134179854116
 20
2.0877950261538256
 10
7.948015790021024
 20
2.079737285287525
 10
7.916071735311025
 20
2.0692708734142666
 10
7.886131133610309
 20
2.0562477719643564
 10
7.858306284942294
 20
2.04035065453331
 10
7.833179500862989
 20
2.021098185902024
 10
7.812251877262514
 20
1.9978521779866836
 10
7.799999999999999
 20
1.9696743753273425
 10
7.812251877262514
 20
1.9353233497240747
 10
7.833179500862989
 20
1.9012193755790197
 10
7.858306284942294
 20
1.86863332905003
 10
7.886131133610309
 20
1.8376930249642314
 10
7.916071735311025
 20
1.8082186980854207
 10
7.948015790021024
 20
1.779943869716675
 10
7.982134179854115
 20
1.7526110965071247
 10
8.018787725499669
 20
1.7260322494585232
 10
8.058465829045451
 20
1.7001564874314863
 10
8.101710743489056
 20
1.6751919114467089
 10
8.148951991206784
 20
1.6518930059271728
 10
8.2
 20
1.6328513676852072
 10
8.251048008793214
 20
1.6279547164736592
 10
8.298289256510943
 20
1.628435261830842
 10
8.341534170954548
 20
1.631668738154475
 10
8.38121227450033
 20
1.6366927976762464
 10
8.417865820145883
 20
1.6430586310003195
 10
8.451984209978974
 20
1.6505890513258468
 10
8.483928264688974
 20
1.6592837577315003
 10
8.51386886638969
 20
1.6692846674213961
 10
8.541693715057704
 20
1.6808783166387877
 10
8.566820499137009
 20
1.6945348770549225
 10
8.587748122737485
 20
1.7110167357821222
  0
LWPOLYLINE
  5
A5
330
17
100
AcDbEntity
  8
ESQUADRIAS
100
AcDbPolyline
 90
30
 70
0
 10
1.6326626441886791
 20
4.180536332179932
 10
1.8321887641061327
 20
4.1845150566346705
 10
2.0318074673175417
 20
4.188039345975503
 10
2.2315064674751905
 20
4.191109200202428
 10
2.431273478231364
 20
4.1937246193154465
 10
2.631096213238346
 20
4.195885603314558
 10
2.830962386148421
 20
4.197592152199762
 10
3.0308597106138753
 20
4.19884426597106
 10
3.1965517241379304
 20
4.19964194462845
 10
3.3586206896551722
 20
4.199985188171933
 10
3.520689655172413
 20
4.199412605927709
 10
3.682758620689655
 20
4.196774433278346
 10
3.844827586206896
 20
4.1920110130200605
 10
4.006896551724138
 20
4.185112501008081
 10
4.168965517241379
 20
4.1760645325355945
 10
4.33103448275862
 20
4.16484807094554
 10
4.493103448275861
 20
4.151439203530337
 10
4.655172413793103
 20
4.135808879510237
 10
4.817241379310344
 20
4.117922583200674
 10
4.979310344827585
 20
4.097739933463233
 10
5.141379310344827
 20
4.075214198066376
 10
5.303448275862069
 20
4.05029170850603
 10
5.46551724137931
 20
4.0229111569445966
 10
5.6275862068965505
 20
3.9930027519363094
 10
5.7896551724137915
 20
3.9604872031244964
 10
5.951724137931034
 20
3.9252744965710904
 10
6.113793103448275
 20
3.887262411026121
 10
6.275862068965516
 20
3.846334710131186
 10
6.437931034482757
 20
3.8023589246122786
 10
6.6
 20
3.7551836094703512
  0
LWPOLYLINE
  5
A6
330
17
100
AcDbEntity
  8
DECK
100
AcDbPolyline
 90
4
 70
1
 10
-3.7
 20
-0.2
 10
9.6
 20
-0.2
 10
9.6
 20
0.0
 10
-3.7
 20
0.0
  0
LWPOLYLINE
  5
A7
330
17
100
AcDbEntity
  8
TEXTO
100
AcDbPolyline
 90
2
 70
0
 10
-4.5
 20
-0.6
 10
11.0
 20
-0.6
  0
LWPOLYLINE
  5
A8
330
17
100
AcDbEntity
  8
FUNDACAO
100
AcDbPolyline
 90
2
 70
0
 10
-3.3
 20
-0.2
 10
-3.3
 20
-2.0
  0
LWPOLYLINE
  5
A9
330
17
100
AcDbEntity
  8
FUNDACAO
100
AcDbPolyline
 90
2
 70
0
 10
-1.1
 20
-0.2
 10
-1.1
 20
-2.0
  0
LWPOLYLINE
  5
AA
330
17
100
AcDbEntity
  8
FUNDACAO
100
AcDbPolyline
 90
2
 70
0
 10
0.9
 20
-0.2
 10
0.9
 20
-2.0
  0
LWPOLYLINE
  5
AB
330
17
100
AcDbEntity
  8
FUNDACAO
100
AcDbPolyline
 90
2
 70
0
 10
2.1
 20
-0.2
 10
2.1
 20
-2.0
  0
LWPOLYLINE
  5
AC
330
17
100
AcDbEntity
  8
FUNDACAO
100
AcDbPolyline
 90
2
 70
0
 10
3.3
 20
-0.2
 10
3.3
 20
-2.0
  0
LWPOLYLINE
  5
AD
330
17
100
AcDbEntity
  8
FUNDACAO
100
AcDbPolyline
 90
2
 70
0
 10
4.5
 20
-0.2
 10
4.5
 20
-2.0
  0
LWPOLYLINE
  5
AE
330
17
100
AcDbEntity
  8
FUNDACAO
100
AcDbPolyline
 90
2
 70
0
 10
5.7
 20
-0.2
 10
5.7
 20
-2.0
  0
LWPOLYLINE
  5
AF
330
17
100
AcDbEntity
  8
FUNDACAO
100
AcDbPolyline
 90
2
 70
0
 10
6.9
 20
-0.2
 10
6.9
 20
-2.0
  0
LWPOLYLINE
  5
B0
330
17
100
AcDbEntity
  8
FUNDACAO
100
AcDbPolyline
 90
2
 70
0
 10
8.1
 20
-0.2
 10
8.1
 20
-2.0
  0
LWPOLYLINE
  5
B1
330
17
100
AcDbEntity
  8
FUNDACAO
100
AcDbPolyline
 90
2
 70
0
 10
9.0
 20
-0.2
 10
9.0
 20
-2.0
  0
DIMENSION
  5
B2
330
17
100
AcDbEntity
  8
COTAS
100
AcDbDimension
280
0
  2
*D1
  3
ZION_M
 10
0.45
 20
-2.8
 30
0.0
 11
5.025
 21
-2.71
 31
0.0
 70
32
 71
5
  1
9,60
100
AcDbAlignedDimension
 13
0.45
 23
-2.3
 33
0.0
 14
9.6
 24
-2.3
 34
0.0
 50
0.0
100
AcDbRotatedDimension
  0
DIMENSION
  5
C1
330
17
100
AcDbEntity
  8
COTAS
100
AcDbDimension
280
0
  2
*D2
  3
ZION_M
 10
-3.7
 20
-2.8
 30
0.0
 11
-1.4
 21
-2.71
 31
0.0
 70
32
 71
5
  1
4,60
100
AcDbAlignedDimension
 13
-3.7
 23
-2.3
 33
0.0
 14
0.9
 24
-2.3
 34
0.0
 50
0.0
100
AcDbRotatedDimension
  0
DIMENSION
  5
D0
330
17
100
AcDbEntity
  8
COTAS
100
AcDbDimension
280
0
  2
*D3
  3
ZION_M
 10
11.1
 20
0.0
 30
0.0
 11
11.01
 21
2.1
 31
0.0
 70
32
 71
5
  1
4,20
100
AcDbAlignedDimension
 13
10.5
 23
0.0
 33
0.0
 14
10.5
 24
4.2
 34
0.0
 50
90.0
100
AcDbRotatedDimension
  0
DIMENSION
  5
DF
330
17
100
AcDbEntity
  8
COTAS
100
AcDbDimension
280
0
  2
*D4
  3
ZION_M
 10
-2.55
 20
5.3
 30
0.0
 11
-1.0499999999999998
 21
5.39
 31
0.0
 70
32
 71
5
  1
3,00 (bico)
100
AcDbAlignedDimension
 13
-2.55
 23
4.8
 33
0.0
 14
0.45
 24
4.8
 34
0.0
 50
0.0
100
AcDbRotatedDimension
  0
HATCH
  5
EE
330
17
100
AcDbEntity
  8
TEXTO
 62
7
100
AcDbHatch
 10
0.0
 20
0.0
 30
0.0
210
0.0
220
0.0
230
1.0
  2
SOLID
 70
1
 71
0
 91
1
 92
3
 72
0
 73
1
 93
6
 10
-4.65
 20
5.95
 10
-3.95
 20
5.95
 10
-3.95
 20
5.8625
 10
-3.9962000000000004
 20
5.8625
 10
-4.1313
 20
5.7715
 10
-4.65
 20
5.7715
 97
0
 75
0
 76
1
 98
0
  0
LWPOLYLINE
  5
EF
330
17
100
AcDbEntity
  8
TEXTO
100
AcDbPolyline
 90
6
 70
1
 10
-4.65
 20
5.95
 10
-3.95
 20
5.95
 10
-3.95
 20
5.8625
 10
-3.9962000000000004
 20
5.8625
 10
-4.1313
 20
5.7715
 10
-4.65
 20
5.7715
  0
HATCH
  5
F0
330
17
100
AcDbEntity
  8
TEXTO
 62
7
100
AcDbHatch
 10
0.0
 20
0.0
 30
0.0
210
0.0
220
0.0
230
1.0
  2
SOLID
 70
1
 71
0
 91
1
 92
3
 72
0
 73
1
 93
6
 10
-4.1313
 20
5.7715
 10
-3.95
 20
5.7715
 10
-3.95
 20
5.5111
 10
-4.304200000000001
 20
5.5111
 10
-4.4316
 20
5.425
 10
-4.65
 20
5.425
 97
0
 75
0
 76
1
 98
0
  0
LWPOLYLINE
  5
F1
330
17
100
AcDbEntity
  8
TEXTO
100
AcDbPolyline
 90
6
 70
1
 10
-4.1313
 20
5.7715
 10
-3.95
 20
5.7715
 10
-3.95
 20
5.5111
 10
-4.304200000000001
 20
5.5111
 10
-4.4316
 20
5.425
 10
-4.65
 20
5.425
  0
HATCH
  5
F2
330
17
100
AcDbEntity
  8
TEXTO
 62
7
100
AcDbHatch
 10
0.0
 20
0.0
 30
0.0
210
0.0
220
0.0
230
1.0
  2
SOLID
 70
1
 71
0
 91
1
 92
3
 72
0
 73
1
 93
5
 10
-4.65
 20
5.3361
 10
-4.128500000000001
 20
5.3361
 10
-3.95
 20
5.4677
 10
-3.95
 20
5.25
 10
-4.65
 20
5.25
 97
0
 75
0
 76
1
 98
0
  0
LWPOLYLINE
  5
F3
330
17
100
AcDbEntity
  8
TEXTO
100
AcDbPolyline
 90
5
 70
1
 10
-4.65
 20
5.3361
 10
-4.128500000000001
 20
5.3361
 10
-3.95
 20
5.4677
 10
-3.95
 20
5.25
 10
-4.65
 20
5.25
  0
HATCH
  5
F4
330
17
100
AcDbEntity
  8
TEXTO
 62
7
100
AcDbHatch
 10
0.0
 20
0.0
 30
0.0
210
0.0
220
0.0
230
1.0
  2
SOLID
 70
1
 71
0
 91
1
 92
3
 72
0
 73
1
 93
10
 10
-6.203125000000001
 20
5.55
 10
-5.950000000000001
 20
5.55
 10
-5.950000000000001
 20
5.503125
 10
-6.24375
 20
5.296875
 10
-5.953125000000001
 20
5.296875
 10
-5.953125000000001
 20
5.253125
 10
-6.300000000000001
 20
5.253125
 10
-6.300000000000001
 20
5.30625
 10
-6.018750000000001
 20
5.503125
 10
-6.203125000000001
 20
5.503125
 97
0
 75
0
 76
1
 98
0
  0
LWPOLYLINE
  5
F5
330
17
100
AcDbEntity
  8
TEXTO
100
AcDbPolyline
 90
10
 70
1
 10
-6.203125000000001
 20
5.55
 10
-5.950000000000001
 20
5.55
 10
-5.950000000000001
 20
5.503125
 10
-6.24375
 20
5.296875
 10
-5.953125000000001
 20
5.296875
 10
-5.953125000000001
 20
5.253125
 10
-6.300000000000001
 20
5.253125
 10
-6.300000000000001
 20
5.30625
 10
-6.018750000000001
 20
5.503125
 10
-6.203125000000001
 20
5.503125
  0
HATCH
  5
F6
330
17
100
AcDbEntity
  8
TEXTO
 62
7
100
AcDbHatch
 10
0.0
 20
0.0
 30
0.0
210
0.0
220
0.0
230
1.0
  2
SOLID
 70
1
 71
0
 91
1
 92
3
 72
0
 73
1
 93
4
 10
-5.9
 20
5.55
 10
-5.853125
 20
5.55
 10
-5.853125
 20
5.253125
 10
-5.9
 20
5.253125
 97
0
 75
0
 76
1
 98
0
  0
LWPOLYLINE
  5
F7
330
17
100
AcDbEntity
  8
TEXTO
100
AcDbPolyline
 90
4
 70
1
 10
-5.9
 20
5.55
 10
-5.853125
 20
5.55
 10
-5.853125
 20
5.253125
 10
-5.9
 20
5.253125
  0
HATCH
  5
F8
330
17
100
AcDbEntity
  8
TEXTO
 62
7
100
AcDbHatch
 10
0.0
 20
0.0
 30
0.0
210
0.0
220
0.0
230
1.0
  2
SOLID
 70
1
 71
0
 91
1
 92
3
 72
0
 73
1
 93
4
 10
-5.471875000000001
 20
5.55
 10
-5.4281250000000005
 20
5.55
 10
-5.4281250000000005
 20
5.253125
 10
-5.471875000000001
 20
5.253125
 97
0
 75
0
 76
1
 98
0
  0
LWPOLYLINE
  5
F9
330
17
100
AcDbEntity
  8
TEXTO
100
AcDbPolyline
 90
4
 70
1
 10
-5.471875000000001
 20
5.55
 10
-5.4281250000000005
 20
5.55
 10
-5.4281250000000005
 20
5.253125
 10
-5.471875000000001
 20
5.253125
  0
HATCH
  5
FA
330
17
100
AcDbEntity
  8
TEXTO
 62
7
100
AcDbHatch
 10
0.0
 20
0.0
 30
0.0
210
0.0
220
0.0
230
1.0
  2
SOLID
 70
1
 71
0
 91
1
 92
3
 72
0
 73
1
 93
4
 10
-5.4593750000000005
 20
5.55
 10
-5.393750000000001
 20
5.55
 10
-5.106250000000001
 20
5.253125
 10
-5.1781250000000005
 20
5.253125
 97
0
 75
0
 76
1
 98
0
  0
LWPOLYLINE
  5
FB
330
17
100
AcDbEntity
  8
TEXTO
100
AcDbPolyline
 90
4
 70
1
 10
-5.4593750000000005
 20
5.55
 10
-5.393750000000001
 20
5.55
 10
-5.106250000000001
 20
5.253125
 10
-5.1781250000000005
 20
5.253125
  0
HATCH
  5
FC
330
17
100
AcDbEntity
  8
TEXTO
 62
7
100
AcDbHatch
 10
0.0
 20
0.0
 30
0.0
210
0.0
220
0.0
230
1.0
  2
SOLID
 70
1
 71
0
 91
1
 92
3
 72
0
 73
1
 93
4
 10
-5.143750000000001
 20
5.465625
 10
-5.096875000000001
 20
5.465625
 10
-5.096875000000001
 20
5.253125
 10
-5.143750000000001
 20
5.253125
 97
0
 75
0
 76
1
 98
0
  0
LWPOLYLINE
  5
FD
330
17
100
AcDbEntity
  8
TEXTO
100
AcDbPolyline
 90
4
 70
1
 10
-5.143750000000001
 20
5.465625
 10
-5.096875000000001
 20
5.465625
 10
-5.096875000000001
 20
5.253125
 10
-5.143750000000001
 20
5.253125
  0
HATCH
  5
FE
330
17
100
AcDbEntity
  8
TEXTO
 62
7
100
AcDbHatch
 10
0.0
 20
0.0
 30
0.0
210
0.0
220
0.0
230
1.0
  2
SOLID
 70
1
 71
0
 91
2
 92
1
 93
1
 72
2
 10
-5.6625000000000005
 20
5.4015625
 40
0.1484375
 50
0
 51
360
 73
1
 97
0
 92
1
 93
1
 72
2
 10
-5.6625000000000005
 20
5.4015625
 40
0.09999999999999999
 50
0
 51
360
 73
1
 97
0
 75
0
 76
1
 98
0
  0
CIRCLE
  5
FF
330
17
100
AcDbEntity
  8
TEXTO
100
AcDbCircle
 10
-5.6625000000000005
 20
5.4015625
 30
0.0
 40
0.1484375
  0
CIRCLE
  5
100
330
17
100
AcDbEntity
  8
TEXTO
100
AcDbCircle
 10
-5.6625000000000005
 20
5.4015625
 30
0.0
 40
0.09999999999999999
  0
TEXT
  5
101
330
17
100
AcDbEntity
  8
TEXTO
100
AcDbText
 10
-5.2
 20
5.3999999999999995
 30
0.0
 40
0.09
  1
HOTEL GROUP
  7
ZION
 11
-5.2
 21
5.3999999999999995
 31
0.0
100
AcDbText
 73
2
  0
TEXT
  5
102
330
17
100
AcDbEntity
  8
TEXTO
100
AcDbText
 10
-5.2
 20
5.279999999999999
 30
0.0
 40
0.09
  1
INTERNATIONAL
  7
ZION
 11
-5.2
 21
5.279999999999999
 31
0.0
100
AcDbText
 73
2
  0
TEXT
  5
103
330
17
100
AcDbEntity
  8
TEXTO
100
AcDbText
 10
-3.7
 20
5.6
 30
0.0
 40
0.35
  1
ZION CASULO · FACHADA LATERAL DIREITA (olhar para +y) · 1:50
  7
ZION
 11
-3.7
 21
5.6
 31
0.0
100
AcDbText
 73
2
  0
TEXT
  5
104
330
17
100
AcDbEntity
  8
TEXTO
100
AcDbText
 10
-3.7
 20
5.279999999999999
 30
0.0
 40
0.13
  1
ZION GLAMPING COLLECTION · ZION HOTEL GROUP INTERNATIONAL
  7
ZION
 11
-3.7
 21
5.279999999999999
 31
0.0
100
AcDbText
 73
2
  0
ENDSEC
  0
SECTION
  2
OBJECTS
  0
DICTIONARY
  5
A
330
0
100
AcDbDictionary
281
1
  3
ACAD_COLOR
350
B
  3
ACAD_GROUP
350
C
  3
ACAD_LAYOUT
350
D
  3
ACAD_MATERIAL
350
E
  3
ACAD_MLEADERSTYLE
350
F
  3
ACAD_MLINESTYLE
350
10
  3
ACAD_PLOTSETTINGS
350
11
  3
ACAD_PLOTSTYLENAME
350
12
  3
ACAD_SCALELIST
350
14
  3
ACAD_TABLESTYLE
350
15
  3
ACAD_VISUALSTYLE
350
16
  3
EZDXF_META
350
2D
  0
DICTIONARY
  5
B
330
A
100
AcDbDictionary
281
1
  0
DICTIONARY
  5
C
330
A
100
AcDbDictionary
281
1
  0
DICTIONARY
  5
D
330
A
100
AcDbDictionary
281
1
  3
Model
350
1A
  3
Layout1
350
1E
  0
DICTIONARY
  5
E
330
A
100
AcDbDictionary
281
1
  3
ByBlock
350
1F
  3
ByLayer
350
20
  3
Global
350
21
  0
DICTIONARY
  5
F
330
A
100
AcDbDictionary
281
1
  3
Standard
350
2C
  0
DICTIONARY
  5
10
330
A
100
AcDbDictionary
281
1
  3
Standard
350
22
  0
DICTIONARY
  5
11
330
A
100
AcDbDictionary
281
1
  0
ACDBDICTIONARYWDFLT
  5
12
330
A
100
AcDbDictionary
281
1
  3
Normal
350
13
100
AcDbDictionaryWithDefault
340
13
  0
ACDBPLACEHOLDER
  5
13
330
12
  0
DICTIONARY
  5
14
330
A
100
AcDbDictionary
281
1
  0
DICTIONARY
  5
15
330
A
100
AcDbDictionary
281
1
  0
DICTIONARY
  5
16
330
A
100
AcDbDictionary
281
1
  3
2dWireframe
350
5A
  3
Basic
350
5B
  3
Brighten
350
5C
  3
ColorChange
350
5D
  3
Conceptual
350
5E
  3
Dim
350
5F
  3
EdgeColorOff
350
60
  3
Facepattern
350
61
  3
Flat
350
62
  3
FlatWithEdges
350
63
  3
Gouraud
350
64
  3
GouraudWithEdges
350
65
  3
Hidden
350
66
  3
JitterOff
350
67
  3
Linepattern
350
68
  3
Modeling
350
69
  3
OverhangOff
350
6A
  3
Realistic
350
6B
  3
Shaded
350
6C
  3
Shaded with edges
350
6D
  3
Shades of Gray
350
6E
  3
Sketchy
350
6F
  3
Thicken
350
70
  3
Wireframe
350
71
  3
X-Ray
350
72
  0
LAYOUT
  5
1A
330
D
100
AcDbPlotSettings
  1

  4
A3
  6

 40
7.5
 41
20.0
 42
7.5
 43
20.0
 44
420.0
 45
297.0
 46
0.0
 47
0.0
 48
0.0
 49
0.0
140
0.0
141
0.0
142
1.0
143
1.0
 70
1024
 72
1
 73
0
 74
5
  7

 75
16
 76
0
 77
2
 78
300
147
1.0
148
0.0
149
0.0
100
AcDbLayout
  1
Model
 70
1
 71
0
 10
0.0
 20
0.0
 11
420.0
 21
297.0
 12
0.0
 22
0.0
 32
0.0
 14
1e+20
 24
1e+20
 34
1e+20
 15
-1e+20
 25
-1e+20
 35
-1e+20
146
0.0
 13
0.0
 23
0.0
 33
0.0
 16
1.0
 26
0.0
 36
0.0
 17
0.0
 27
1.0
 37
0.0
 76
1
330
17
  0
LAYOUT
  5
1E
330
D
100
AcDbPlotSettings
  1

  4
A3
  6

 40
7.5
 41
20.0
 42
7.5
 43
20.0
 44
420.0
 45
297.0
 46
0.0
 47
0.0
 48
0.0
 49
0.0
140
0.0
141
0.0
142
1.0
143
1.0
 70
0
 72
1
 73
0
 74
5
  7

 75
16
 76
0
 77
2
 78
300
147
1.0
148
0.0
149
0.0
100
AcDbLayout
  1
Layout1
 70
1
 71
1
 10
0.0
 20
0.0
 11
420.0
 21
297.0
 12
0.0
 22
0.0
 32
0.0
 14
1e+20
 24
1e+20
 34
1e+20
 15
-1e+20
 25
-1e+20
 35
-1e+20
146
0.0
 13
0.0
 23
0.0
 33
0.0
 16
1.0
 26
0.0
 36
0.0
 17
0.0
 27
1.0
 37
0.0
 76
1
330
1B
  0
MATERIAL
  5
1F
102
{ACAD_REACTORS
330
E
102
}
330
E
100
AcDbMaterial
  1
ByBlock
  2

 70
0
 40
1.0
 71
1
 41
1.0
 91
-1023410177
 42
1.0
 72
1
  3

 73
1
 74
1
 75
1
 44
0.5
 73
0
 45
1.0
 46
1.0
 77
1
  4

 78
1
 79
1
170
1
 48
1.0
171
1
  6

172
1
173
1
174
1
140
1.0
141
1.0
175
1
  7

176
1
177
1
178
1
143
1.0
179
1
  8

270
1
271
1
272
1
145
1.0
146
1.0
273
1
  9

274
1
275
1
276
1
 42
1.0
 72
1
  3

 73
1
 74
1
 75
1
 94
63
  0
MATERIAL
  5
20
102
{ACAD_REACTORS
330
E
102
}
330
E
100
AcDbMaterial
  1
ByLayer
  2

 70
0
 40
1.0
 71
1
 41
1.0
 91
-1023410177
 42
1.0
 72
1
  3

 73
1
 74
1
 75
1
 44
0.5
 73
0
 45
1.0
 46
1.0
 77
1
  4

 78
1
 79
1
170
1
 48
1.0
171
1
  6

172
1
173
1
174
1
140
1.0
141
1.0
175
1
  7

176
1
177
1
178
1
143
1.0
179
1
  8

270
1
271
1
272
1
145
1.0
146
1.0
273
1
  9

274
1
275
1
276
1
 42
1.0
 72
1
  3

 73
1
 74
1
 75
1
 94
63
  0
MATERIAL
  5
21
102
{ACAD_REACTORS
330
E
102
}
330
E
100
AcDbMaterial
  1
Global
  2

 70
0
 40
1.0
 71
1
 41
1.0
 91
-1023410177
 42
1.0
 72
1
  3

 73
1
 74
1
 75
1
 44
0.5
 73
0
 45
1.0
 46
1.0
 77
1
  4

 78
1
 79
1
170
1
 48
1.0
171
1
  6

172
1
173
1
174
1
140
1.0
141
1.0
175
1
  7

176
1
177
1
178
1
143
1.0
179
1
  8

270
1
271
1
272
1
145
1.0
146
1.0
273
1
  9

274
1
275
1
276
1
 42
1.0
 72
1
  3

 73
1
 74
1
 75
1
 94
63
  0
MLINESTYLE
  5
22
102
{ACAD_REACTORS
330
10
102
}
330
10
100
AcDbMlineStyle
  2
Standard
 70
0
  3

 62
256
 51
90.0
 52
90.0
 71
2
 49
0.5
 62
256
  6
BYLAYER
 49
-0.5
 62
256
  6
BYLAYER
  0
MLEADERSTYLE
  5
2C
102
{ACAD_REACTORS
330
F
102
}
330
F
100
AcDbMLeaderStyle
179
2
170
2
171
1
172
0
 90
2
 40
0.0
 41
0.0
173
1
 91
-1056964608
 92
-2
290
1
 42
2.0
291
1
 43
8.0
  3
Standard
 44
4.0
300

342
29
174
1
175
1
176
0
178
1
 93
-1056964608
 45
4.0
292
0
297
0
 46
4.0
 94
-1056964608
 47
1.0
 49
1.0
140
1.0
294
1
141
0.0
177
0
142
1.0
295
0
296
0
143
3.75
271
0
272
9
273
9
  0
DICTIONARY
  5
2D
330
A
100
AcDbDictionary
280
1
281
1
  3
CREATED_BY_EZDXF
350
2E
  3
WRITTEN_BY_EZDXF
350
107
  0
DICTIONARYVAR
  5
2E
330
2D
100
DictionaryVariables
280
0
  1
1.4.4 @ 2026-09-17T16:37:32.563310+00:00
  0
VISUALSTYLE
  5
5A
102
{ACAD_REACTORS
330
16
102
}
330
16
100
AcDbVisualStyle
  2
2dWireframe
 70
4
 90
0
 40
0.6
 62
7
290
0
291
0
  0
VISUALSTYLE
  5
5B
102
{ACAD_REACTORS
330
16
102
}
330
16
100
AcDbVisualStyle
  2
Basic
 70
7
 90
1
 40
0.6
 62
7
290
0
291
1
  0
VISUALSTYLE
  5
5C
102
{ACAD_REACTORS
330
16
102
}
330
16
100
AcDbVisualStyle
  2
Brighten
 70
12
 90
2
 40
0.6
 62
7
290
0
291
1
  0
VISUALSTYLE
  5
5D
102
{ACAD_REACTORS
330
16
102
}
330
16
100
AcDbVisualStyle
  2
ColorChange
 70
16
 90
2
 40
0.6
 62
8
290
0
291
1
  0
VISUALSTYLE
  5
5E
102
{ACAD_REACTORS
330
16
102
}
330
16
100
AcDbVisualStyle
  2
Conceptual
 70
9
 90
3
 40
0.6
 62
7
290
0
291
0
  0
VISUALSTYLE
  5
5F
102
{ACAD_REACTORS
330
16
102
}
330
16
100
AcDbVisualStyle
  2
Dim
 70
11
 90
2
 40
0.6
 62
7
290
0
291
1
  0
VISUALSTYLE
  5
60
102
{ACAD_REACTORS
330
16
102
}
330
16
100
AcDbVisualStyle
  2
EdgeColorOff
 70
22
 90
2
 40
0.6
 62
7
290
0
291
1
  0
VISUALSTYLE
  5
61
102
{ACAD_REACTORS
330
16
102
}
330
16
100
AcDbVisualStyle
  2
Facepattern
 70
15
 90
2
 40
0.6
 62
7
290
0
291
1
  0
VISUALSTYLE
  5
62
102
{ACAD_REACTORS
330
16
102
}
330
16
100
AcDbVisualStyle
  2
Flat
 70
0
 90
2
 40
0.6
 62
7
290
0
291
1
  0
VISUALSTYLE
  5
63
102
{ACAD_REACTORS
330
16
102
}
330
16
100
AcDbVisualStyle
  2
FlatWithEdges
 70
1
 90
2
 40
0.6
 62
7
290
0
291
1
  0
VISUALSTYLE
  5
64
102
{ACAD_REACTORS
330
16
102
}
330
16
100
AcDbVisualStyle
  2
Gouraud
 70
2
 90
2
 40
0.6
 62
7
290
0
291
1
  0
VISUALSTYLE
  5
65
102
{ACAD_REACTORS
330
16
102
}
330
16
100
AcDbVisualStyle
  2
GouraudWithEdges
 70
3
 90
2
 40
0.6
 62
7
290
0
291
1
  0
VISUALSTYLE
  5
66
102
{ACAD_REACTORS
330
16
102
}
330
16
100
AcDbVisualStyle
  2
Hidden
 70
6
 90
1
 40
0.6
 62
7
290
0
291
0
  0
VISUALSTYLE
  5
67
102
{ACAD_REACTORS
330
16
102
}
330
16
100
AcDbVisualStyle
  2
JitterOff
 70
20
 90
2
 40
0.6
 62
7
290
0
291
1
  0
VISUALSTYLE
  5
68
102
{ACAD_REACTORS
330
16
102
}
330
16
100
AcDbVisualStyle
  2
Linepattern
 70
14
 90
2
 40
0.6
 62
7
290
0
291
1
  0
VISUALSTYLE
  5
69
102
{ACAD_REACTORS
330
16
102
}
330
16
100
AcDbVisualStyle
  2
Modeling
 70
10
 90
2
 40
0.6
 62
7
290
0
291
0
  0
VISUALSTYLE
  5
6A
102
{ACAD_REACTORS
330
16
102
}
330
16
100
AcDbVisualStyle
  2
OverhangOff
 70
21
 90
2
 40
0.6
 62
7
290
0
291
1
  0
VISUALSTYLE
  5
6B
102
{ACAD_REACTORS
330
16
102
}
330
16
100
AcDbVisualStyle
  2
Realistic
 70
8
 90
2
 40
0.6
 62
7
290
0
291
0
  0
VISUALSTYLE
  5
6C
102
{ACAD_REACTORS
330
16
102
}
330
16
100
AcDbVisualStyle
  2
Shaded
 70
27
 90
2
 40
0.6
 62
7
290
0
291
0
  0
VISUALSTYLE
  5
6D
102
{ACAD_REACTORS
330
16
102
}
330
16
100
AcDbVisualStyle
  2
Shaded with edges
 70
26
 90
2
 40
0.6
 62
7
290
0
291
0
  0
VISUALSTYLE
  5
6E
102
{ACAD_REACTORS
330
16
102
}
330
16
100
AcDbVisualStyle
  2
Shades of Gray
 70
23
 90
2
 40
0.6
 62
7
290
0
291
0
  0
VISUALSTYLE
  5
6F
102
{ACAD_REACTORS
330
16
102
}
330
16
100
AcDbVisualStyle
  2
Sketchy
 70
24
 90
1
 40
0.6
 62
7
290
0
291
0
  0
VISUALSTYLE
  5
70
102
{ACAD_REACTORS
330
16
102
}
330
16
100
AcDbVisualStyle
  2
Thicken
 70
13
 90
2
 40
0.6
 62
7
290
0
291
1
  0
VISUALSTYLE
  5
71
102
{ACAD_REACTORS
330
16
102
}
330
16
100
AcDbVisualStyle
  2
Wireframe
 70
5
 90
0
 40
0.6
 62
7
290
0
291
0
  0
VISUALSTYLE
  5
72
102
{ACAD_REACTORS
330
16
102
}
330
16
100
AcDbVisualStyle
  2
X-Ray
 70
25
 90
2
 40
0.5
 62
7
290
0
291
0
  0
DICTIONARYVAR
  5
107
330
2D
100
DictionaryVariables
280
0
  1
1.4.4 @ 2026-09-17T16:37:32.572968+00:00
  0
ENDSEC
  0
EOF
