  0
SECTION
  2
HEADER
  9
$ACADVER
  1
AC1024
  9
$ACADMAINTVER
 70
6
  9
$DWGCODEPAGE
  3
ANSI_1252
  9
$LASTSAVEDBY
  1
ezdxf
  9
$INSBASE
 10
0.0
 20
0.0
 30
0.0
  9
$EXTMIN
 10
1e+20
 20
1e+20
 30
1e+20
  9
$EXTMAX
 10
-1e+20
 20
-1e+20
 30
-1e+20
  9
$LIMMIN
 10
0.0
 20
0.0
  9
$LIMMAX
 10
420.0
 20
297.0
  9
$ORTHOMODE
 70
0
  9
$REGENMODE
 70
1
  9
$FILLMODE
 70
1
  9
$QTEXTMODE
 70
0
  9
$MIRRTEXT
 70
1
  9
$LTSCALE
 40
1.0
  9
$ATTMODE
 70
1
  9
$TEXTSIZE
 40
2.5
  9
$TRACEWID
 40
1.0
  9
$TEXTSTYLE
  7
OpenSans
  9
$CLAYER
  8
0
  9
$CELTYPE
  6
ByLayer
  9
$CECOLOR
 62
256
  9
$CELTSCALE
 40
1.0
  9
$DISPSILH
 70
0
  9
$DIMSCALE
 40
1.0
  9
$DIMASZ
 40
0.175
  9
$DIMEXO
 40
0.125
  9
$DIMDLI
 40
3.75
  9
$DIMRND
 40
0.0
  9
$DIMDLE
 40
0.0
  9
$DIMEXE
 40
0.375
  9
$DIMTP
 40
0.0
  9
$DIMTM
 40
0.0
  9
$DIMTXT
 40
0.25
  9
$DIMCEN
 40
2.5
  9
$DIMTSZ
 40
0.0
  9
$DIMTOL
 70
0
  9
$DIMLIM
 70
0
  9
$DIMTIH
 70
0
  9
$DIMTOH
 70
0
  9
$DIMSE1
 70
0
  9
$DIMSE2
 70
0
  9
$DIMTAD
 70
1
  9
$DIMZIN
 70
12
  9
$DIMBLK
  1
ARCHTICK
  9
$DIMASO
 70
1
  9
$DIMSHO
 70
1
  9
$DIMPOST
  1

  9
$DIMAPOST
  1

  9
$DIMALT
 70
0
  9
$DIMALTD
 70
3
  9
$DIMALTF
 40
0.03937007874
  9
$DIMLFAC
 40
100.0
  9
$DIMTOFL
 70
1
  9
$DIMTVP
 40
0.0
  9
$DIMTIX
 70
0
  9
$DIMSOXD
 70
0
  9
$DIMSAH
 70
0
  9
$DIMBLK1
  1

  9
$DIMBLK2
  1

  9
$DIMSTYLE
  2
EZDXF
  9
$DIMCLRD
 70
0
  9
$DIMCLRE
 70
0
  9
$DIMCLRT
 70
0
  9
$DIMTFAC
 40
0.5
  9
$DIMGAP
 40
0.1
  9
$DIMJUST
 70
0
  9
$DIMSD1
 70
0
  9
$DIMSD2
 70
0
  9
$DIMTOLJ
 70
0
  9
$DIMTZIN
 70
8
  9
$DIMALTZ
 70
0
  9
$DIMALTTZ
 70
0
  9
$DIMUPT
 70
1
  9
$DIMDEC
 70
2
  9
$DIMTDEC
 70
2
  9
$DIMALTU
 70
2
  9
$DIMALTTD
 70
3
  9
$DIMTXSTY
  7
OpenSansCondensed-Light
  9
$DIMAUNIT
 70
0
  9
$DIMADEC
 70
2
  9
$DIMALTRND
 40
0.0
  9
$DIMAZIN
 70
3
  9
$DIMDSEP
 70
46
  9
$DIMATFIT
 70
3
  9
$DIMFRAC
 70
0
  9
$DIMLDRBLK
  1

  9
$DIMLUNIT
 70
2
  9
$DIMLWD
 70
-2
  9
$DIMLWE
 70
-2
  9
$DIMTMOVE
 70
2
  9
$DIMFXL
 40
1.0
  9
$DIMFXLON
 70
0
  9
$DIMJOGANG
 40
0.785398163397
  9
$DIMTFILL
 70
0
  9
$DIMTFILLCLR
 70
0
  9
$DIMARCSYM
 70
0
  9
$DIMLTYPE
  6

  9
$DIMLTEX1
  6

  9
$DIMLTEX2
  6

  9
$DIMTXTDIRECTION
 70
0
  9
$LUNITS
 70
2
  9
$LUPREC
 70
4
  9
$SKETCHINC
 40
1.0
  9
$FILLETRAD
 40
10.0
  9
$AUNITS
 70
0
  9
$AUPREC
 70
2
  9
$MENU
  1
.
  9
$ELEVATION
 40
0.0
  9
$PELEVATION
 40
0.0
  9
$THICKNESS
 40
0.0
  9
$LIMCHECK
 70
0
  9
$CHAMFERA
 40
0.0
  9
$CHAMFERB
 40
0.0
  9
$CHAMFERC
 40
0.0
  9
$CHAMFERD
 40
0.0
  9
$SKPOLY
 70
0
  9
$TDCREATE
 40
2461301.653773148
  9
$TDUCREATE
 40
2458532.153996898
  9
$TDUPDATE
 40
2461301.653773148
  9
$TDUUPDATE
 40
2458532.1544311
  9
$TDINDWG
 40
0.0
  9
$TDUSRTIMER
 40
0.0
  9
$USRTIMER
 70
1
  9
$ANGBASE
 50
0.0
  9
$ANGDIR
 70
0
  9
$PDMODE
 70
0
  9
$PDSIZE
 40
0.0
  9
$PLINEWID
 40
0.0
  9
$SPLFRAME
 70
0
  9
$SPLINETYPE
 70
6
  9
$SPLINESEGS
 70
8
  9
$HANDSEED
  5
15A
  9
$SURFTAB1
 70
6
  9
$SURFTAB2
 70
6
  9
$SURFTYPE
 70
6
  9
$SURFU
 70
6
  9
$SURFV
 70
6
  9
$UCSBASE
  2

  9
$UCSNAME
  2

  9
$UCSORG
 10
0.0
 20
0.0
 30
0.0
  9
$UCSXDIR
 10
1.0
 20
0.0
 30
0.0
  9
$UCSYDIR
 10
0.0
 20
1.0
 30
0.0
  9
$UCSORTHOREF
  2

  9
$UCSORTHOVIEW
 70
0
  9
$UCSORGTOP
 10
0.0
 20
0.0
 30
0.0
  9
$UCSORGBOTTOM
 10
0.0
 20
0.0
 30
0.0
  9
$UCSORGLEFT
 10
0.0
 20
0.0
 30
0.0
  9
$UCSORGRIGHT
 10
0.0
 20
0.0
 30
0.0
  9
$UCSORGFRONT
 10
0.0
 20
0.0
 30
0.0
  9
$UCSORGBACK
 10
0.0
 20
0.0
 30
0.0
  9
$PUCSBASE
  2

  9
$PUCSNAME
  2

  9
$PUCSORG
 10
0.0
 20
0.0
 30
0.0
  9
$PUCSXDIR
 10
1.0
 20
0.0
 30
0.0
  9
$PUCSYDIR
 10
0.0
 20
1.0
 30
0.0
  9
$PUCSORTHOREF
  2

  9
$PUCSORTHOVIEW
 70
0
  9
$PUCSORGTOP
 10
0.0
 20
0.0
 30
0.0
  9
$PUCSORGBOTTOM
 10
0.0
 20
0.0
 30
0.0
  9
$PUCSORGLEFT
 10
0.0
 20
0.0
 30
0.0
  9
$PUCSORGRIGHT
 10
0.0
 20
0.0
 30
0.0
  9
$PUCSORGFRONT
 10
0.0
 20
0.0
 30
0.0
  9
$PUCSORGBACK
 10
0.0
 20
0.0
 30
0.0
  9
$USERI1
 70
0
  9
$USERI2
 70
0
  9
$USERI3
 70
0
  9
$USERI4
 70
0
  9
$USERI5
 70
0
  9
$USERR1
 40
0.0
  9
$USERR2
 40
0.0
  9
$USERR3
 40
0.0
  9
$USERR4
 40
0.0
  9
$USERR5
 40
0.0
  9
$WORLDVIEW
 70
1
  9
$SHADEDGE
 70
3
  9
$SHADEDIF
 70
70
  9
$TILEMODE
 70
1
  9
$MAXACTVP
 70
64
  9
$PINSBASE
 10
0.0
 20
0.0
 30
0.0
  9
$PLIMCHECK
 70
0
  9
$PEXTMIN
 10
1e+20
 20
1e+20
 30
1e+20
  9
$PEXTMAX
 10
-1e+20
 20
-1e+20
 30
-1e+20
  9
$PLIMMIN
 10
0.0
 20
0.0
  9
$PLIMMAX
 10
420.0
 20
297.0
  9
$UNITMODE
 70
0
  9
$VISRETAIN
 70
1
  9
$PLINEGEN
 70
0
  9
$PSLTSCALE
 70
1
  9
$TREEDEPTH
 70
3020
  9
$CMLSTYLE
  2
Standard
  9
$CMLJUST
 70
0
  9
$CMLSCALE
 40
20.0
  9
$PROXYGRAPHICS
 70
1
  9
$MEASUREMENT
 70
1
  9
$CELWEIGHT
370
-1
  9
$ENDCAPS
280
0
  9
$JOINSTYLE
280
0
  9
$LWDISPLAY
290
0
  9
$INSUNITS
 70
6
  9
$HYPERLINKBASE
  1

  9
$STYLESHEET
  1

  9
$XEDIT
290
1
  9
$CEPSNTYPE
380
0
  9
$PSTYLEMODE
290
1
  9
$FINGERPRINTGUID
  2
{A1965184-0182-4E64-A9C0-40D5D643728D}
  9
$VERSIONGUID
  2
{9451159E-B8C6-460D-A3BB-A06837A1AC25}
  9
$EXTNAMES
290
1
  9
$PSVPSCALE
 40
0.0
  9
$OLESTARTUP
290
0
  9
$SORTENTS
280
127
  9
$INDEXCTL
280
0
  9
$HIDETEXT
280
1
  9
$XCLIPFRAME
280
1
  9
$HALOGAP
280
0
  9
$OBSCOLOR
 70
257
  9
$OBSLTYPE
280
0
  9
$INTERSECTIONDISPLAY
280
0
  9
$INTERSECTIONCOLOR
 70
257
  9
$DIMASSOC
280
2
  9
$PROJECTNAME
  1

  9
$CAMERADISPLAY
290
0
  9
$LENSLENGTH
 40
50.0
  9
$CAMERAHEIGHT
 40
0.0
  9
$STEPSPERSEC
 40
24.0
  9
$STEPSIZE
 40
100.0
  9
$3DDWFPREC
 40
2.0
  9
$PSOLWIDTH
 40
0.005
  9
$PSOLHEIGHT
 40
0.08
  9
$LOFTANG1
 40
1.570796326795
  9
$LOFTANG2
 40
1.570796326795
  9
$LOFTMAG1
 40
0.0
  9
$LOFTMAG2
 40
0.0
  9
$LOFTPARAM
 70
7
  9
$LOFTNORMALS
280
1
  9
$LATITUDE
 40
37.795
  9
$LONGITUDE
 40
-122.394
  9
$NORTHDIRECTION
 40
0.0
  9
$TIMEZONE
 70
-8000
  9
$LIGHTGLYPHDISPLAY
280
1
  9
$TILEMODELIGHTSYNCH
280
1
  9
$CMATERIAL
347
20
  9
$SOLIDHIST
280
0
  9
$SHOWHIST
280
1
  9
$DWFFRAME
280
2
  9
$DGNFRAME
280
2
  9
$REALWORLDSCALE
290
1
  9
$INTERFERECOLOR
 62
256
  9
$CSHADOW
280
0
  9
$SHADOWPLANELOCATION
 40
0.0
  0
ENDSEC
  0
SECTION
  2
CLASSES
  0
CLASS
  1
ACDBDICTIONARYWDFLT
  2
AcDbDictionaryWithDefault
  3
ObjectDBX Classes
 90
0
 91
0
280
0
281
0
  0
CLASS
  1
SUN
  2
AcDbSun
  3
SCENEOE
 90
1153
 91
0
280
0
281
0
  0
CLASS
  1
VISUALSTYLE
  2
AcDbVisualStyle
  3
ObjectDBX Classes
 90
4095
 91
0
280
0
281
0
  0
CLASS
  1
MATERIAL
  2
AcDbMaterial
  3
ObjectDBX Classes
 90
1153
 91
0
280
0
281
0
  0
CLASS
  1
SCALE
  2
AcDbScale
  3
ObjectDBX Classes
 90
1153
 91
0
280
0
281
0
  0
CLASS
  1
TABLESTYLE
  2
AcDbTableStyle
  3
ObjectDBX Classes
 90
4095
 91
0
280
0
281
0
  0
CLASS
  1
MLEADERSTYLE
  2
AcDbMLeaderStyle
  3
ACDB_MLEADERSTYLE_CLASS
 90
4095
 91
0
280
0
281
0
  0
CLASS
  1
DICTIONARYVAR
  2
AcDbDictionaryVar
  3
ObjectDBX Classes
 90
0
 91
0
280
0
281
0
  0
CLASS
  1
CELLSTYLEMAP
  2
AcDbCellStyleMap
  3
ObjectDBX Classes
 90
1152
 91
0
280
0
281
0
  0
CLASS
  1
MENTALRAYRENDERSETTINGS
  2
AcDbMentalRayRenderSettings
  3
SCENEOE
 90
1024
 91
0
280
0
281
0
  0
CLASS
  1
ACDBDETAILVIEWSTYLE
  2
AcDbDetailViewStyle
  3
ObjectDBX Classes
 90
1025
 91
0
280
0
281
0
  0
CLASS
  1
ACDBSECTIONVIEWSTYLE
  2
AcDbSectionViewStyle
  3
ObjectDBX Classes
 90
1025
 91
0
280
0
281
0
  0
CLASS
  1
RASTERVARIABLES
  2
AcDbRasterVariables
  3
ISM
 90
0
 91
0
280
0
281
0
  0
CLASS
  1
ACDBPLACEHOLDER
  2
AcDbPlaceHolder
  3
ObjectDBX Classes
 90
0
 91
0
280
0
281
0
  0
CLASS
  1
LAYOUT
  2
AcDbLayout
  3
ObjectDBX Classes
 90
0
 91
0
280
0
281
0
  0
ENDSEC
  0
SECTION
  2
TABLES
  0
TABLE
  2
VPORT
  5
8
330
0
100
AcDbSymbolTable
 70
1
  0
VPORT
  5
23
330
8
100
AcDbSymbolTableRecord
100
AcDbViewportTableRecord
  2
*Active
 70
0
 10
0.0
 20
0.0
 11
1.0
 21
1.0
 12
0.0
 22
0.0
 13
0.0
 23
0.0
 14
0.5
 24
0.5
 15
0.5
 25
0.5
 16
0.0
 26
0.0
 36
1.0
 17
0.0
 27
0.0
 37
0.0
 40
1000.0
 41
1.34
 42
50.0
 43
0.0
 44
0.0
 50
0.0
 51
0.0
 71
0
 72
1000
 73
1
 74
3
 75
0
 76
0
 77
0
 78
0
281
0
 65
0
146
0.0
  0
ENDTAB
  0
TABLE
  2
LTYPE
  5
2
330
0
100
AcDbSymbolTable
 70
21
  0
LTYPE
  5
24
330
2
100
AcDbSymbolTableRecord
100
AcDbLinetypeTableRecord
  2
ByBlock
 70
0
  3

 72
65
 73
0
 40
0.0
  0
LTYPE
  5
25
330
2
100
AcDbSymbolTableRecord
100
AcDbLinetypeTableRecord
  2
ByLayer
 70
0
  3

 72
65
 73
0
 40
0.0
  0
LTYPE
  5
26
330
2
100
AcDbSymbolTableRecord
100
AcDbLinetypeTableRecord
  2
Continuous
 70
0
  3

 72
65
 73
0
 40
0.0
  0
LTYPE
  5
2F
330
2
100
AcDbSymbolTableRecord
100
AcDbLinetypeTableRecord
  2
CENTER
 70
0
  3
Center ____ _ ____ _ ____ _ ____ _ ____ _ ____
 72
65
 73
4
 40
5.08
 49
3.175
 74
0
 49
-0.635
 74
0
 49
0.635
 74
0
 49
-0.635
 74
0
  0
LTYPE
  5
30
330
2
100
AcDbSymbolTableRecord
100
AcDbLinetypeTableRecord
  2
CENTERX2
 70
0
  3
Center (2x) ________  __  ________  __  ________
 72
65
 73
4
 40
8.89
 49
6.35
 74
0
 49
-0.635
 74
0
 49
1.27
 74
0
 49
-0.635
 74
0
  0
LTYPE
  5
31
330
2
100
AcDbSymbolTableRecord
100
AcDbLinetypeTableRecord
  2
CENTER2
 70
0
  3
Center (.5x) ____ _ ____ _ ____ _ ____ _ ____
 72
65
 73
4
 40
2.54
 49
1.587
 74
0
 49
-0.318
 74
0
 49
0.318
 74
0
 49
-0.318
 74
0
  0
LTYPE
  5
32
330
2
100
AcDbSymbolTableRecord
100
AcDbLinetypeTableRecord
  2
DASHED
 70
0
  3
Dashed __ __ __ __ __ __ __ __ __ __ __ __ __ _
 72
65
 73
2
 40
1.524
 49
1.27
 74
0
 49
-0.254
 74
0
  0
LTYPE
  5
33
330
2
100
AcDbSymbolTableRecord
100
AcDbLinetypeTableRecord
  2
DASHEDX2
 70
0
  3
Dashed (2x) ____  ____  ____  ____  ____  ____
 72
65
 73
2
 40
3.048
 49
2.54
 74
0
 49
-0.508
 74
0
  0
LTYPE
  5
34
330
2
100
AcDbSymbolTableRecord
100
AcDbLinetypeTableRecord
  2
DASHED2
 70
0
  3
Dashed (.5x) _ _ _ _ _ _ _ _ _ _ _ _ _ _
 72
65
 73
2
 40
0.762
 49
0.635
 74
0
 49
-0.127
 74
0
  0
LTYPE
  5
35
330
2
100
AcDbSymbolTableRecord
100
AcDbLinetypeTableRecord
  2
PHANTOM
 70
0
  3
Phantom ______  __  __  ______  __  __  ______
 72
65
 73
6
 40
6.35
 49
3.175
 74
0
 49
-0.635
 74
0
 49
0.635
 74
0
 49
-0.635
 74
0
 49
0.635
 74
0
 49
-0.635
 74
0
  0
LTYPE
  5
36
330
2
100
AcDbSymbolTableRecord
100
AcDbLinetypeTableRecord
  2
PHANTOMX2
 70
0
  3
Phantom (2x)____________    ____    ____    ____________
 72
65
 73
6
 40
10.795
 49
6.35
 74
0
 49
-0.635
 74
0
 49
1.27
 74
0
 49
-0.635
 74
0
 49
1.27
 74
0
 49
-0.635
 74
0
  0
LTYPE
  5
37
330
2
100
AcDbSymbolTableRecord
100
AcDbLinetypeTableRecord
  2
PHANTOM2
 70
0
  3
Phantom (.5x) ___ _ _ ___ _ _ ___ _ _ ___ _ _ ___
 72
65
 73
6
 40
3.175
 49
1.587
 74
0
 49
-0.318
 74
0
 49
0.318
 74
0
 49
-0.318
 74
0
 49
0.318
 74
0
 49
-0.318
 74
0
  0
LTYPE
  5
38
330
2
100
AcDbSymbolTableRecord
100
AcDbLinetypeTableRecord
  2
DASHDOT
 70
0
  3
Dash dot __ . __ . __ . __ . __ . __ . __ . __
 72
65
 73
4
 40
3.556
 49
2.54
 74
0
 49
-0.508
 74
0
 49
0.0
 74
0
 49
-0.508
 74
0
  0
LTYPE
  5
39
330
2
100
AcDbSymbolTableRecord
100
AcDbLinetypeTableRecord
  2
DASHDOTX2
 70
0
  3
Dash dot (2x) ____  .  ____  .  ____  .  ____
 72
65
 73
4
 40
6.096
 49
5.08
 74
0
 49
-0.508
 74
0
 49
0.0
 74
0
 49
-0.508
 74
0
  0
LTYPE
  5
3A
330
2
100
AcDbSymbolTableRecord
100
AcDbLinetypeTableRecord
  2
DASHDOT2
 70
0
  3
Dash dot (.5x) _ . _ . _ . _ . _ . _ . _ . _
 72
65
 73
4
 40
1.778
 49
1.27
 74
0
 49
-0.254
 74
0
 49
0.0
 74
0
 49
-0.254
 74
0
  0
LTYPE
  5
3B
330
2
100
AcDbSymbolTableRecord
100
AcDbLinetypeTableRecord
  2
DOT
 70
0
  3
Dot .  .  .  .  .  .  .  .  .  .  .  .  .  .  .  .
 72
65
 73
2
 40
0.508
 49
0.0
 74
0
 49
-0.508
 74
0
  0
LTYPE
  5
3C
330
2
100
AcDbSymbolTableRecord
100
AcDbLinetypeTableRecord
  2
DOTX2
 70
0
  3
Dot (2x) .    .    .    .    .    .    .    . 
 72
65
 73
2
 40
1.016
 49
0.0
 74
0
 49
-1.016
 74
0
  0
LTYPE
  5
3D
330
2
100
AcDbSymbolTableRecord
100
AcDbLinetypeTableRecord
  2
DOT2
 70
0
  3
Dot (.5) . . . . . . . . . . . . . . . . . . . 
 72
65
 73
2
 40
0.254
 49
0.0
 74
0
 49
-0.254
 74
0
  0
LTYPE
  5
3E
330
2
100
AcDbSymbolTableRecord
100
AcDbLinetypeTableRecord
  2
DIVIDE
 70
0
  3
Divide __ . . __ . . __ . . __ . . __ . . __
 72
65
 73
6
 40
4.064
 49
2.54
 74
0
 49
-0.508
 74
0
 49
0.0
 74
0
 49
-0.508
 74
0
 49
0.0
 74
0
 49
-0.508
 74
0
  0
LTYPE
  5
3F
330
2
100
AcDbSymbolTableRecord
100
AcDbLinetypeTableRecord
  2
DIVIDEX2
 70
0
  3
Divide (2x) ____  . .  ____  . .  ____  . .  ____
 72
65
 73
6
 40
6.604
 49
5.08
 74
0
 49
-0.508
 74
0
 49
0.0
 74
0
 49
-0.508
 74
0
 49
0.0
 74
0
 49
-0.508
 74
0
  0
LTYPE
  5
40
330
2
100
AcDbSymbolTableRecord
100
AcDbLinetypeTableRecord
  2
DIVIDE2
 70
0
  3
Divide(.5x) _ . _ . _ . _ . _ . _ . _ . _
 72
65
 73
6
 40
2.032
 49
1.27
 74
0
 49
-0.254
 74
0
 49
0.0
 74
0
 49
-0.254
 74
0
 49
0.0
 74
0
 49
-0.254
 74
0
  0
ENDTAB
  0
TABLE
  2
LAYER
  5
1
330
0
100
AcDbSymbolTable
 70
17
  0
LAYER
  5
27
330
1
100
AcDbSymbolTableRecord
100
AcDbLayerTableRecord
  2
0
 70
0
 62
7
  6
Continuous
370
-3
390
13
347
21
  0
LAYER
  5
28
330
1
100
AcDbSymbolTableRecord
100
AcDbLayerTableRecord
  2
Defpoints
 70
0
 62
7
  6
Continuous
290
0
370
-3
390
13
347
21
  0
LAYER
  5
8A
330
1
100
AcDbSymbolTableRecord
100
AcDbLayerTableRecord
  2
EIXOS
 70
0
 62
8
  6
CENTER
370
-3
390
13
347
21
  0
LAYER
  5
8B
330
1
100
AcDbSymbolTableRecord
100
AcDbLayerTableRecord
  2
PAREDES
 70
0
 62
7
  6
CONTINUOUS
370
-3
390
13
347
21
  0
LAYER
  5
8C
330
1
100
AcDbSymbolTableRecord
100
AcDbLayerTableRecord
  2
ESQUADRIAS
 70
0
 62
4
  6
CONTINUOUS
370
-3
390
13
347
21
  0
LAYER
  5
8D
330
1
100
AcDbSymbolTableRecord
100
AcDbLayerTableRecord
  2
MOBILIARIO
 70
0
 62
9
  6
CONTINUOUS
370
-3
390
13
347
21
  0
LAYER
  5
8E
330
1
100
AcDbSymbolTableRecord
100
AcDbLayerTableRecord
  2
ESTRUTURA
 70
0
 62
1
  6
CONTINUOUS
370
-3
390
13
347
21
  0
LAYER
  5
8F
330
1
100
AcDbSymbolTableRecord
100
AcDbLayerTableRecord
  2
COBERTURA
 70
0
 62
3
  6
CONTINUOUS
370
-3
390
13
347
21
  0
LAYER
  5
90
330
1
100
AcDbSymbolTableRecord
100
AcDbLayerTableRecord
  2
COBERTURA_OCULTA
 70
0
 62
3
  6
CONTINUOUS
370
-3
390
13
347
21
  0
LAYER
  5
91
330
1
100
AcDbSymbolTableRecord
100
AcDbLayerTableRecord
  2
DECK
 70
0
 62
32
  6
CONTINUOUS
370
-3
390
13
347
21
  0
LAYER
  5
92
330
1
100
AcDbSymbolTableRecord
100
AcDbLayerTableRecord
  2
FUNDACAO
 70
0
 62
5
  6
CONTINUOUS
370
-3
390
13
347
21
  0
LAYER
  5
93
330
1
100
AcDbSymbolTableRecord
100
AcDbLayerTableRecord
  2
COTAS
 70
0
 62
2
  6
CONTINUOUS
370
-3
390
13
347
21
  0
LAYER
  5
94
330
1
100
AcDbSymbolTableRecord
100
AcDbLayerTableRecord
  2
TEXTO
 70
0
 62
7
  6
CONTINUOUS
370
-3
390
13
347
21
  0
LAYER
  5
95
330
1
100
AcDbSymbolTableRecord
100
AcDbLayerTableRecord
  2
HACHURA
 70
0
 62
8
  6
CONTINUOUS
370
-3
390
13
347
21
  0
LAYER
  5
96
330
1
100
AcDbSymbolTableRecord
100
AcDbLayerTableRecord
  2
MEMBRANA_3D
 70
0
 62
3
  6
CONTINUOUS
370
-3
390
13
347
21
  0
LAYER
  5
97
330
1
100
AcDbSymbolTableRecord
100
AcDbLayerTableRecord
  2
VIDRO_3D
 70
0
 62
4
  6
CONTINUOUS
370
-3
390
13
347
21
  0
LAYER
  5
98
330
1
100
AcDbSymbolTableRecord
100
AcDbLayerTableRecord
  2
ACO_3D
 70
0
 62
1
  6
CONTINUOUS
370
-3
390
13
347
21
  0
ENDTAB
  0
TABLE
  2
STYLE
  5
5
330
0
100
AcDbSymbolTable
 70
27
  0
STYLE
  5
29
330
5
100
AcDbSymbolTableRecord
100
AcDbTextStyleTableRecord
  2
Standard
 70
0
 40
0.0
 41
1.0
 50
0.0
 71
0
 42
2.5
  3
txt
  4

  0
STYLE
  5
41
330
5
100
AcDbSymbolTableRecord
100
AcDbTextStyleTableRecord
  2
OpenSans-Light
 70
0
 40
0.0
 41
1.0
 50
0.0
 71
0
 42
2.5
  3
OpenSans-Light.ttf
  4

  0
STYLE
  5
42
330
5
100
AcDbSymbolTableRecord
100
AcDbTextStyleTableRecord
  2
OpenSans-Light-Italic
 70
0
 40
0.0
 41
1.0
 50
0.0
 71
0
 42
2.5
  3
OpenSans-LightItalic.ttf
  4

  0
STYLE
  5
43
330
5
100
AcDbSymbolTableRecord
100
AcDbTextStyleTableRecord
  2
OpenSans
 70
0
 40
0.0
 41
1.0
 50
0.0
 71
0
 42
2.5
  3
OpenSans-Regular.ttf
  4

  0
STYLE
  5
44
330
5
100
AcDbSymbolTableRecord
100
AcDbTextStyleTableRecord
  2
OpenSans-Italic
 70
0
 40
0.0
 41
1.0
 50
0.0
 71
0
 42
2.5
  3
OpenSans-Italic.ttf
  4

  0
STYLE
  5
45
330
5
100
AcDbSymbolTableRecord
100
AcDbTextStyleTableRecord
  2
OpenSans-SemiBold
 70
0
 40
0.0
 41
1.0
 50
0.0
 71
0
 42
2.5
  3
OpenSans-SemiBold.ttf
  4

  0
STYLE
  5
46
330
5
100
AcDbSymbolTableRecord
100
AcDbTextStyleTableRecord
  2
OpenSans-SemiBoldItalic
 70
0
 40
0.0
 41
1.0
 50
0.0
 71
0
 42
2.5
  3
OpenSans-SemiBoldItalic.ttf
  4

  0
STYLE
  5
47
330
5
100
AcDbSymbolTableRecord
100
AcDbTextStyleTableRecord
  2
OpenSans-Bold
 70
0
 40
0.0
 41
1.0
 50
0.0
 71
0
 42
2.5
  3
OpenSans-Bold.ttf
  4

  0
STYLE
  5
48
330
5
100
AcDbSymbolTableRecord
100
AcDbTextStyleTableRecord
  2
OpenSans-BoldItalic
 70
0
 40
0.0
 41
1.0
 50
0.0
 71
0
 42
2.5
  3
OpenSans-BoldItalic.ttf
  4

  0
STYLE
  5
49
330
5
100
AcDbSymbolTableRecord
100
AcDbTextStyleTableRecord
  2
OpenSans-ExtraBold
 70
0
 40
0.0
 41
1.0
 50
0.0
 71
0
 42
2.5
  3
OpenSans-ExtraBold.ttf
  4

  0
STYLE
  5
4A
330
5
100
AcDbSymbolTableRecord
100
AcDbTextStyleTableRecord
  2
OpenSans-ExtraBoldItalic
 70
0
 40
0.0
 41
1.0
 50
0.0
 71
0
 42
2.5
  3
OpenSans-ExtraBoldItalic.ttf
  4

  0
STYLE
  5
4B
330
5
100
AcDbSymbolTableRecord
100
AcDbTextStyleTableRecord
  2
OpenSansCondensed-Bold
 70
0
 40
0.0
 41
1.0
 50
0.0
 71
0
 42
2.5
  3
OpenSansCondensed-Bold.ttf
  4

  0
STYLE
  5
4C
330
5
100
AcDbSymbolTableRecord
100
AcDbTextStyleTableRecord
  2
OpenSansCondensed-Light
 70
0
 40
0.0
 41
1.0
 50
0.0
 71
0
 42
2.5
  3
OpenSansCondensed-Light.ttf
  4

  0
STYLE
  5
4D
330
5
100
AcDbSymbolTableRecord
100
AcDbTextStyleTableRecord
  2
OpenSansCondensed-Italic
 70
0
 40
0.0
 41
1.0
 50
0.0
 71
0
 42
2.5
  3
OpenSansCondensed-LightItalic.ttf
  4

  0
STYLE
  5
4E
330
5
100
AcDbSymbolTableRecord
100
AcDbTextStyleTableRecord
  2
LiberationSans
 70
0
 40
0.0
 41
1.0
 50
0.0
 71
0
 42
2.5
  3
LiberationSans-Regular.ttf
  4

  0
STYLE
  5
4F
330
5
100
AcDbSymbolTableRecord
100
AcDbTextStyleTableRecord
  2
LiberationSans-Bold
 70
0
 40
0.0
 41
1.0
 50
0.0
 71
0
 42
2.5
  3
LiberationSans-Bold.ttf
  4

  0
STYLE
  5
50
330
5
100
AcDbSymbolTableRecord
100
AcDbTextStyleTableRecord
  2
LiberationSans-BoldItalic
 70
0
 40
0.0
 41
1.0
 50
0.0
 71
0
 42
2.5
  3
LiberationSans-BoldItalic.ttf
  4

  0
STYLE
  5
51
330
5
100
AcDbSymbolTableRecord
100
AcDbTextStyleTableRecord
  2
LiberationSans-Italic
 70
0
 40
0.0
 41
1.0
 50
0.0
 71
0
 42
2.5
  3
LiberationSans-Italic.ttf
  4

  0
STYLE
  5
52
330
5
100
AcDbSymbolTableRecord
100
AcDbTextStyleTableRecord
  2
LiberationSerif
 70
0
 40
0.0
 41
1.0
 50
0.0
 71
0
 42
2.5
  3
LiberationSerif-Regular.ttf
  4

  0
STYLE
  5
53
330
5
100
AcDbSymbolTableRecord
100
AcDbTextStyleTableRecord
  2
LiberationSerif-Bold
 70
0
 40
0.0
 41
1.0
 50
0.0
 71
0
 42
2.5
  3
LiberationSerif-Bold.ttf
  4

  0
STYLE
  5
54
330
5
100
AcDbSymbolTableRecord
100
AcDbTextStyleTableRecord
  2
LiberationSerif-BoldItalic
 70
0
 40
0.0
 41
1.0
 50
0.0
 71
0
 42
2.5
  3
LiberationSerif-BoldItalic.ttf
  4

  0
STYLE
  5
55
330
5
100
AcDbSymbolTableRecord
100
AcDbTextStyleTableRecord
  2
LiberationSerif-Italic
 70
0
 40
0.0
 41
1.0
 50
0.0
 71
0
 42
2.5
  3
LiberationSerif-Italic.ttf
  4

  0
STYLE
  5
56
330
5
100
AcDbSymbolTableRecord
100
AcDbTextStyleTableRecord
  2
LiberationMono
 70
0
 40
0.0
 41
1.0
 50
0.0
 71
0
 42
2.5
  3
LiberationMono-Regular.ttf
  4

  0
STYLE
  5
57
330
5
100
AcDbSymbolTableRecord
100
AcDbTextStyleTableRecord
  2
LiberationMono-Bold
 70
0
 40
0.0
 41
1.0
 50
0.0
 71
0
 42
2.5
  3
LiberationMono-Bold.ttf
  4

  0
STYLE
  5
58
330
5
100
AcDbSymbolTableRecord
100
AcDbTextStyleTableRecord
  2
LiberationMono-BoldItalic
 70
0
 40
0.0
 41
1.0
 50
0.0
 71
0
 42
2.5
  3
LiberationMono-BoldItalic.ttf
  4

  0
STYLE
  5
59
330
5
100
AcDbSymbolTableRecord
100
AcDbTextStyleTableRecord
  2
LiberationMono-Italic
 70
0
 40
0.0
 41
1.0
 50
0.0
 71
0
 42
2.5
  3
LiberationMono-Italic.ttf
  4

  0
STYLE
  5
99
330
5
100
AcDbSymbolTableRecord
100
AcDbTextStyleTableRecord
  2
ZION
 70
0
 40
0.0
 41
1.0
 50
0.0
 71
0
 42
2.5
  3
arial.ttf
  4

  0
ENDTAB
  0
TABLE
  2
VIEW
  5
7
330
0
100
AcDbSymbolTable
 70
0
  0
ENDTAB
  0
TABLE
  2
UCS
  5
6
330
0
100
AcDbSymbolTable
 70
0
  0
ENDTAB
  0
TABLE
  2
APPID
  5
3
330
0
100
AcDbSymbolTable
 70
3
  0
APPID
  5
2A
330
3
100
AcDbSymbolTableRecord
100
AcDbRegAppTableRecord
  2
ACAD
 70
0
  0
APPID
  5
157
330
3
100
AcDbSymbolTableRecord
100
AcDbRegAppTableRecord
  2
HATCHBACKGROUNDCOLOR
 70
0
  0
APPID
  5
158
330
3
100
AcDbSymbolTableRecord
100
AcDbRegAppTableRecord
  2
EZDXF
 70
0
  0
ENDTAB
  0
TABLE
  2
DIMSTYLE
  5
4
330
0
100
AcDbSymbolTable
 70
13
100
AcDbDimStyleTable
  0
DIMSTYLE
105
2B
330
4
100
AcDbSymbolTableRecord
100
AcDbDimStyleTableRecord
  2
Standard
 70
0
 40
1.0
 41
2.5
 42
0.625
 43
3.75
 44
1.25
 45
0.0
 46
0.0
 47
0.0
 48
0.0
 49
2.5
140
2.5
141
2.5
142
0.0
143
0.03937007874
144
1.0
145
0.0
146
1.0
147
0.625
148
0.0
 69
0
 70
0
 71
0
 72
0
 73
0
 74
0
 75
0
 76
0
 77
1
 78
8
 79
3
170
0
171
3
172
1
173
0
174
0
175
0
176
0
177
0
178
0
179
2
271
2
272
2
273
2
274
3
275
0
276
0
277
2
278
44
279
0
280
0
281
0
282
0
283
0
284
8
285
0
286
0
288
0
289
3
290
0
371
-2
372
-2
  0
DIMSTYLE
105
73
330
4
100
AcDbSymbolTableRecord
100
AcDbDimStyleTableRecord
  2
EZDXF
 70
0
 40
1.0
 41
0.175
 42
0.125
 43
3.75
 44
0.375
 45
0.0
 46
0.0
 47
0.0
 48
0.0
 49
2.5
140
0.25
141
2.5
142
0.0
143
0.03937007874
144
100.0
145
0.0
146
0.5
147
0.1
148
0.0
 69
0
 70
0
 71
0
 72
0
 73
0
 74
0
 75
0
 76
0
 77
1
 78
12
 79
3
170
0
171
3
172
1
173
0
174
0
175
0
176
0
177
0
178
0
179
2
271
2
272
2
273
2
274
3
275
0
276
0
277
2
278
46
279
2
280
0
281
0
282
0
283
0
284
8
285
0
286
0
288
1
289
3
290
0
340
4C
342
74
371
-2
372
-2
  0
DIMSTYLE
105
7C
330
4
100
AcDbSymbolTableRecord
100
AcDbDimStyleTableRecord
  2
EZ_M_100_H25_CM
 70
0
 40
1.0
 41
0.25
 42
0.125
 43
3.75
 44
0.375
 45
0.0
 46
0.0
 47
0.0
 48
0.0
 49
2.5
140
0.25
141
2.5
142
0.125
143
0.03937007874
144
100.0
145
0.0
146
0.5
147
0.1
148
0.0
 69
0
 70
0
 71
0
 72
0
 73
0
 74
0
 75
0
 76
0
 77
1
 78
12
 79
3
170
0
171
3
172
1
173
0
174
0
175
0
176
0
177
0
178
0
179
2
271
2
272
2
273
2
274
3
275
0
276
0
277
2
278
46
279
2
280
0
281
0
282
0
283
0
284
8
285
0
286
0
288
1
289
3
290
0
340
4C
371
-2
372
-2
  0
DIMSTYLE
105
7D
330
4
100
AcDbSymbolTableRecord
100
AcDbDimStyleTableRecord
  2
EZ_M_50_H25_CM
 70
0
 40
1.0
 41
0.125
 42
0.0625
 43
3.75
 44
0.1875
 45
0.0
 46
0.0
 47
0.0
 48
0.0
 49
2.5
140
0.125
141
2.5
142
0.0625
143
0.03937007874
144
100.0
145
0.0
146
0.5
147
0.05
148
0.0
 69
0
 70
0
 71
0
 72
0
 73
0
 74
0
 75
0
 76
0
 77
1
 78
12
 79
3
170
0
171
3
172
1
173
0
174
0
175
0
176
0
177
0
178
0
179
2
271
2
272
2
273
2
274
3
275
0
276
0
277
2
278
46
279
2
280
0
281
0
282
0
283
0
284
8
285
0
286
0
288
1
289
3
290
0
340
4C
371
-2
372
-2
  0
DIMSTYLE
105
7E
330
4
100
AcDbSymbolTableRecord
100
AcDbDimStyleTableRecord
  2
EZ_M_25_H25_CM
 70
0
 40
1.0
 41
0.0625
 42
0.03125
 43
3.75
 44
0.09375
 45
0.0
 46
0.0
 47
0.0
 48
0.0
 49
2.5
140
0.0625
141
2.5
142
0.03125
143
0.03937007874
144
100.0
145
0.0
146
0.5
147
0.025
148
0.0
 69
0
 70
0
 71
0
 72
0
 73
0
 74
0
 75
0
 76
0
 77
1
 78
12
 79
3
170
0
171
3
172
1
173
0
174
0
175
0
176
0
177
0
178
0
179
2
271
2
272
2
273
2
274
3
275
0
276
0
277
2
278
46
279
2
280
0
281
0
282
0
283
0
284
8
285
0
286
0
288
1
289
3
290
0
340
4C
371
-2
372
-2
  0
DIMSTYLE
105
7F
330
4
100
AcDbSymbolTableRecord
100
AcDbDimStyleTableRecord
  2
EZ_M_20_H25_CM
 70
0
 40
1.0
 41
0.05
 42
0.025
 43
3.75
 44
0.07500000000000001
 45
0.0
 46
0.0
 47
0.0
 48
0.0
 49
2.5
140
0.05
141
2.5
142
0.025
143
0.03937007874
144
100.0
145
0.0
146
0.5
147
0.020000000000000004
148
0.0
 69
0
 70
0
 71
0
 72
0
 73
0
 74
0
 75
0
 76
0
 77
1
 78
12
 79
3
170
0
171
3
172
1
173
0
174
0
175
0
176
0
177
0
178
0
179
2
271
2
272
2
273
2
274
3
275
0
276
0
277
2
278
46
279
2
280
0
281
0
282
0
283
0
284
8
285
0
286
0
288
1
289
3
290
0
340
4C
371
-2
372
-2
  0
DIMSTYLE
105
80
330
4
100
AcDbSymbolTableRecord
100
AcDbDimStyleTableRecord
  2
EZ_M_10_H25_CM
 70
0
 40
1.0
 41
0.025
 42
0.0125
 43
3.75
 44
0.037500000000000006
 45
0.0
 46
0.0
 47
0.0
 48
0.0
 49
2.5
140
0.025
141
2.5
142
0.0125
143
0.03937007874
144
100.0
145
0.0
146
0.5
147
0.010000000000000002
148
0.0
 69
0
 70
0
 71
0
 72
0
 73
0
 74
0
 75
0
 76
0
 77
1
 78
12
 79
3
170
0
171
3
172
1
173
0
174
0
175
0
176
0
177
0
178
0
179
2
271
2
272
2
273
2
274
3
275
0
276
0
277
2
278
46
279
2
280
0
281
0
282
0
283
0
284
8
285
0
286
0
288
1
289
3
290
0
340
4C
371
-2
372
-2
  0
DIMSTYLE
105
81
330
4
100
AcDbSymbolTableRecord
100
AcDbDimStyleTableRecord
  2
EZ_M_5_H25_CM
 70
0
 40
1.0
 41
0.0125
 42
0.00625
 43
3.75
 44
0.018750000000000003
 45
0.0
 46
0.0
 47
0.0
 48
0.0
 49
2.5
140
0.0125
141
2.5
142
0.00625
143
0.03937007874
144
100.0
145
0.0
146
0.5
147
0.005000000000000001
148
0.0
 69
0
 70
0
 71
0
 72
0
 73
0
 74
0
 75
0
 76
0
 77
1
 78
12
 79
3
170
0
171
3
172
1
173
0
174
0
175
0
176
0
177
0
178
0
179
2
271
2
272
2
273
2
274
3
275
0
276
0
277
2
278
46
279
2
280
0
281
0
282
0
283
0
284
8
285
0
286
0
288
1
289
3
290
0
340
4C
371
-2
372
-2
  0
DIMSTYLE
105
82
330
4
100
AcDbSymbolTableRecord
100
AcDbDimStyleTableRecord
  2
EZ_M_1_H25_CM
 70
0
 40
1.0
 41
0.0025
 42
0.00125
 43
3.75
 44
0.00375
 45
0.0
 46
0.0
 47
0.0
 48
0.0
 49
2.5
140
0.0025
141
2.5
142
0.00125
143
0.03937007874
144
100.0
145
0.0
146
0.5
147
0.001
148
0.0
 69
0
 70
0
 71
0
 72
0
 73
0
 74
0
 75
0
 76
0
 77
1
 78
12
 79
3
170
0
171
3
172
1
173
0
174
0
175
0
176
0
177
0
178
0
179
2
271
2
272
2
273
2
274
3
275
0
276
0
277
2
278
46
279
2
280
0
281
0
282
0
283
0
284
8
285
0
286
0
288
1
289
3
290
0
340
4C
371
-2
372
-2
  0
DIMSTYLE
105
83
330
4
100
AcDbSymbolTableRecord
100
AcDbDimStyleTableRecord
  2
EZ_RADIUS
 70
0
 40
1.0
 41
0.25
 42
0.125
 43
3.75
 44
0.375
 45
0.0
 46
0.0
 47
0.0
 48
0.0
 49
2.5
140
0.25
141
0.0
142
0.0
143
0.03937007874
144
100.0
145
0.0
146
0.5
147
0.1
148
0.0
 69
0
 70
0
 71
0
 72
0
 73
0
 74
0
 75
0
 76
0
 77
1
 78
12
 79
3
170
0
171
3
172
0
173
0
174
0
175
0
176
0
177
0
178
0
179
2
271
2
272
2
273
2
274
3
275
0
276
0
277
2
278
46
279
1
280
0
281
0
282
0
283
0
284
8
285
0
286
0
288
1
289
3
290
0
340
4C
342
84
371
-2
372
-2
  0
DIMSTYLE
105
88
330
4
100
AcDbSymbolTableRecord
100
AcDbDimStyleTableRecord
  2
EZ_RADIUS_INSIDE
 70
0
 40
1.0
 41
0.25
 42
0.125
 43
3.75
 44
0.375
 45
0.0
 46
0.0
 47
0.0
 48
0.0
 49
2.5
140
0.25
141
0.0
142
0.0
143
0.03937007874
144
100.0
145
0.0
146
0.5
147
0.1
148
0.0
 69
0
 70
0
 71
0
 72
0
 73
0
 74
0
 75
0
 76
0
 77
0
 78
12
 79
3
170
0
171
3
172
0
173
0
174
1
175
0
176
0
177
0
178
0
179
2
271
2
272
2
273
2
274
3
275
0
276
0
277
2
278
46
279
0
280
0
281
0
282
0
283
0
284
8
285
0
286
0
288
1
289
0
290
0
340
4C
342
84
371
-2
372
-2
  0
DIMSTYLE
105
89
330
4
100
AcDbSymbolTableRecord
100
AcDbDimStyleTableRecord
  2
EZ_CURVED
 70
0
 40
1.0
 41
0.25
 42
0.125
 43
3.75
 44
0.375
 45
0.0
 46
0.0
 47
0.0
 48
0.0
 49
2.5
140
0.25
141
2.5
142
0.0
143
0.03937007874
144
100.0
145
0.0
146
0.5
147
0.1
148
0.0
 69
0
 70
0
 71
0
 72
0
 73
0
 74
0
 75
0
 76
0
 77
1
 78
12
 79
2
 90
2
170
0
171
3
172
1
173
0
174
0
175
0
176
0
177
0
178
0
179
2
271
2
272
2
273
2
274
3
275
0
276
0
277
2
278
46
279
2
280
0
281
0
282
0
283
0
284
8
285
0
286
0
288
1
289
3
290
0
340
4C
371
-2
372
-2
  0
DIMSTYLE
105
9A
330
4
100
AcDbSymbolTableRecord
100
AcDbDimStyleTableRecord
  2
ZION_M
 70
0
 40
1.0
 41
0.08
 42
0.05
 43
3.75
 44
0.06
 45
0.0
 46
0.0
 47
0.0
 48
0.0
 49
2.5
140
0.12
141
2.5
142
0.0
143
0.03937007874
144
1.0
145
0.0
146
1.0
147
0.03
148
0.0
 69
0
 70
0
 71
0
 72
0
 73
0
 74
0
 75
0
 76
0
 77
1
 78
8
 79
3
170
0
171
3
172
1
173
0
174
0
175
0
176
2
177
2
178
2
179
2
271
2
272
2
273
2
274
3
275
0
276
0
277
2
278
44
279
0
280
0
281
0
282
0
283
0
284
8
285
0
286
0
288
0
289
3
290
0
340
99
371
-2
372
-2
  0
ENDTAB
  0
TABLE
  2
BLOCK_RECORD
  5
9
330
0
100
AcDbSymbolTable
 70
5
  0
BLOCK_RECORD
  5
17
330
9
100
AcDbSymbolTableRecord
100
AcDbBlockTableRecord
  2
*Model_Space
340
1A
 70
0
280
1
281
0
  0
BLOCK_RECORD
  5
1B
330
9
100
AcDbSymbolTableRecord
100
AcDbBlockTableRecord
  2
*Paper_Space
340
1E
 70
0
280
1
281
0
  0
BLOCK_RECORD
  5
74
330
9
100
AcDbSymbolTableRecord
100
AcDbBlockTableRecord
  2
_ARCHTICK
340
0
 70
0
280
1
281
0
  0
BLOCK_RECORD
  5
78
330
9
100
AcDbSymbolTableRecord
100
AcDbBlockTableRecord
  2
_CLOSEDFILLED
340
0
 70
0
280
1
281
0
  0
BLOCK_RECORD
  5
84
330
9
100
AcDbSymbolTableRecord
100
AcDbBlockTableRecord
  2
_CLOSEDBLANK
340
0
 70
0
280
1
281
0
  0
ENDTAB
  0
ENDSEC
  0
SECTION
  2
BLOCKS
  0
BLOCK
  5
18
330
17
100
AcDbEntity
  8
0
100
AcDbBlockBegin
  2
*Model_Space
 70
0
 10
0.0
 20
0.0
 30
0.0
  3
*Model_Space
  1

  0
ENDBLK
  5
19
330
17
100
AcDbEntity
  8
0
100
AcDbBlockEnd
  0
BLOCK
  5
1C
330
1B
100
AcDbEntity
  8
0
100
AcDbBlockBegin
  2
*Paper_Space
 70
0
 10
0.0
 20
0.0
 30
0.0
  3
*Paper_Space
  1

  0
ENDBLK
  5
1D
330
1B
100
AcDbEntity
  8
0
100
AcDbBlockEnd
  0
BLOCK
  5
75
330
74
100
AcDbEntity
  8
0
100
AcDbBlockBegin
  2
_ARCHTICK
 70
0
 10
0.0
 20
0.0
 30
0.0
  3
_ARCHTICK
  1

  0
LWPOLYLINE
  5
77
330
74
100
AcDbEntity
  8
0
  6
BYBLOCK
 62
0
100
AcDbPolyline
 90
2
 70
0
 43
0.15
 10
-0.5
 20
-0.5
 10
0.5
 20
0.5
  0
ENDBLK
  5
76
330
74
100
AcDbEntity
  8
0
100
AcDbBlockEnd
  0
BLOCK
  5
79
330
78
100
AcDbEntity
  8
0
100
AcDbBlockBegin
  2
_CLOSEDFILLED
 70
0
 10
0.0
 20
0.0
 30
0.0
  3
_CLOSEDFILLED
  1

  0
SOLID
  5
7B
330
78
100
AcDbEntity
  8
0
  6
BYBLOCK
 62
0
100
AcDbTrace
 10
-1.0
 20
0.16439898372402537
 30
0.0
 11
0.0
 21
0.0
 31
0.0
 12
-1.0
 22
-0.16439898372402537
 32
0.0
 13
-1.0
 23
-0.16439898372402537
 33
0.0
  0
ENDBLK
  5
7A
330
78
100
AcDbEntity
  8
0
100
AcDbBlockEnd
  0
BLOCK
  5
85
330
84
100
AcDbEntity
  8
0
100
AcDbBlockBegin
  2
_CLOSEDBLANK
 70
0
 10
0.0
 20
0.0
 30
0.0
  3
_CLOSEDBLANK
  1

  0
LWPOLYLINE
  5
87
330
84
100
AcDbEntity
  8
0
  6
BYBLOCK
 62
0
100
AcDbPolyline
 90
3
 70
1
 10
-1.0
 20
0.16439898372402537
 10
0.0
 20
0.0
 10
-1.0
 20
-0.16439898372402537
  0
ENDBLK
  5
86
330
84
100
AcDbEntity
  8
0
100
AcDbBlockEnd
  0
ENDSEC
  0
SECTION
  2
ENTITIES
  0
LWPOLYLINE
  5
9B
330
17
100
AcDbEntity
  8
PAREDES
100
AcDbPolyline
 90
242
 70
1
 10
0.9
 20
-2.683634731948139
 10
0.9708333333333333
 20
-2.7133618239838704
 10
1.0416666666666667
 20
-2.7397824079124473
 10
1.1125
 20
-2.76329009372623
 10
1.1833333333333333
 20
-2.784215481313594
 10
1.2541666666666667
 20
-2.802839896931568
 10
1.325
 20
-2.819405528612597
 10
1.3958333333333335
 20
-2.83412304143473
 10
1.4666666666666668
 20
-2.8471773904753506
 10
1.5375
 20
-2.858732319670315
 10
1.6083333333333334
 20
-2.8689338857712876
 10
1.6791666666666667
 20
-2.8779132475835394
 10
1.75
 20
-2.8857888935037668
 10
1.8208333333333333
 20
-2.8926684339591633
 10
1.8916666666666666
 20
-2.8986500527231267
 10
1.9625
 20
-2.903823687800297
 10
2.033333333333333
 20
-2.9082719957286303
 10
2.1041666666666665
 20
-2.912071140806653
 10
2.175
 20
-2.9152914416126863
 10
2.2458333333333336
 20
-2.917997900341363
 10
2.316666666666667
 20
-2.920250635314675
 10
2.3875
 20
-2.922105233086887
 10
2.4583333333333335
 20
-2.92361303353725
 10
2.529166666666667
 20
-2.9248213590008607
 10
2.6
 20
-2.925773696656599
 10
2.6708333333333334
 20
-2.926509841945631
 10
2.7416666666666667
 20
-2.9270660096395007
 10
2.8125
 20
-2.9274749182411584
 10
2.8833333333333333
 20
-2.9277658526300803
 10
2.9541666666666666
 20
-2.9279647092112477
 10
3.025
 20
-2.928094027264246
 10
3.095833333333333
 20
-2.9281730096877006
 10
3.1666666666666665
 20
-2.9282175358763003
 10
3.2375
 20
-2.92824016903816
 10
3.308333333333333
 20
-2.92825015984858
 10
3.3791666666666664
 20
-2.928253447934855
 10
3.4499999999999997
 20
-2.92824885072168
 10
3.520833333333333
 20
-2.928221585873937
 10
3.591666666666667
 20
-2.928162349506481
 10
3.6625
 20
-2.92806235335393
 10
3.7333333333333334
 20
-2.927912783235499
 10
3.8041666666666667
 20
-2.9277047976054824
 10
3.875
 20
-2.927429525493939
 10
3.9458333333333333
 20
-2.9270780638359817
 10
4.016666666666667
 20
-2.926641474186465
 10
4.0875
 20
-2.9261107788151426
 10
4.158333333333333
 20
-2.925476956175289
 10
4.229166666666667
 20
-2.9247309357365214
 10
4.3
 20
-2.9238635921700165
 10
4.370833333333334
 20
-2.9228657388714456
 10
4.441666666666666
 20
-2.921728120803831
 10
4.5125
 20
-2.920441406639019
 10
4.583333333333333
 20
-2.9189961801726336
 10
4.654166666666667
 20
-2.917382930983089
 10
4.7250000000000005
 20
-2.915592044300588
 10
4.795833333333333
 20
-2.9136137900467927
 10
4.866666666666667
 20
-2.9114383110001616
 10
4.9375
 20
-2.9090556100355576
 10
5.008333333333334
 20
-2.906455536379702
 10
5.079166666666667
 20
-2.9036277708162133
 10
5.15
 20
-2.9005618097652466
 10
5.220833333333334
 20
-2.897246948153011
 10
5.291666666666667
 20
-2.893672260975566
 10
5.362500000000001
 20
-2.889826583449066
 10
5.433333333333334
 20
-2.885698489624922
 10
5.504166666666667
 20
-2.8812762693328535
 10
5.575
 20
-2.8765479032973196
 10
5.645833333333334
 20
-2.8715010362530187
 10
5.716666666666667
 20
-2.8661229478626145
 10
5.7875000000000005
 20
-2.860400521214195
 10
5.858333333333333
 20
-2.8543202086466852
 10
5.929166666666667
 20
-2.8478679946178103
 10
6.0
 20
-2.8410293552906656
 10
6.070833333333334
 20
-2.833789214470427
 10
6.141666666666667
 20
-2.82613189547137
 10
6.2125
 20
-2.8180410684347086
 10
6.283333333333334
 20
-2.809499692548463
 10
6.354166666666667
 20
-2.800489952539612
 10
6.425000000000001
 20
-2.790993188714042
 10
6.495833333333334
 20
-2.7809898197084784
 10
6.566666666666667
 20
-2.7704592569872695
 10
6.6375
 20
-2.7593798099615303
 10
6.708333333333334
 20
-2.7477285804234737
 10
6.779166666666667
 20
-2.7354813447684867
 10
6.8500000000000005
 20
-2.7226124222135777
 10
6.920833333333333
 20
-2.7090945269032374
 10
6.991666666666667
 20
-2.6948986014097898
 10
7.0625
 20
-2.6799936286689126
 10
7.133333333333334
 20
-2.66434641882151
 10
7.204166666666667
 20
-2.647921366734059
 10
7.275
 20
-2.6306801751065865
 10
7.345833333333334
 20
-2.6125815370057692
 10
7.416666666666667
 20
-2.593580770321402
 10
7.487500000000001
 20
-2.5736293949596805
 10
7.558333333333334
 20
-2.5526746414521693
 10
7.629166666666667
 20
-2.5306588769344343
 10
7.7
 20
-2.507518930941971
 10
7.770833333333334
 20
-2.483185298920265
 10
7.841666666666667
 20
-2.457581195385171
 10
7.9125000000000005
 20
-2.430621420785391
 10
7.983333333333333
 20
-2.4022109955789386
 10
8.054166666666667
 20
-2.372243500784029
 10
8.125
 20
-2.3405990447555944
 10
8.195833333333333
 20
-2.3071417488712074
 10
8.266666666666666
 20
-2.271716606703824
 10
8.3375
 20
-2.234145516746748
 10
8.408333333333333
 20
-2.1942222093927737
 10
8.479166666666666
 20
-2.1517056710600055
 10
8.55
 20
-2.106311489664734
 10
8.620833333333334
 20
-2.0577002679912626
 10
8.691666666666666
 20
-2.0054618082338833
 10
8.7625
 20
-1.9490930411667984
 10
8.833333333333334
 20
-1.8879664286905244
 10
8.904166666666667
 20
-1.8212833572196088
 10
8.975
 20
-1.7480029182740227
 10
9.045833333333334
 20
-1.666728341333912
 10
9.116666666666667
 20
-1.5755161481363786
 10
9.1875
 20
-1.4715334476417132
 10
9.258333333333333
 20
-1.350386572680458
 10
9.329166666666667
 20
-1.2046376734340356
 10
9.4
 20
-1.0198774240368957
 10
9.4
 20
1.0198774240368957
 10
9.329166666666667
 20
1.2046376734340356
 10
9.258333333333333
 20
1.350386572680458
 10
9.1875
 20
1.4715334476417132
 10
9.116666666666667
 20
1.5755161481363786
 10
9.045833333333334
 20
1.666728341333912
 10
8.975
 20
1.7480029182740227
 10
8.904166666666667
 20
1.8212833572196088
 10
8.833333333333334
 20
1.8879664286905244
 10
8.7625
 20
1.9490930411667984
 10
8.691666666666666
 20
2.0054618082338833
 10
8.620833333333334
 20
2.0577002679912626
 10
8.55
 20
2.106311489664734
 10
8.479166666666666
 20
2.1517056710600055
 10
8.408333333333333
 20
2.1942222093927737
 10
8.3375
 20
2.234145516746748
 10
8.266666666666666
 20
2.271716606703824
 10
8.195833333333333
 20
2.3071417488712074
 10
8.125
 20
2.3405990447555944
 10
8.054166666666667
 20
2.372243500784029
 10
7.983333333333333
 20
2.4022109955789386
 10
7.9125000000000005
 20
2.430621420785391
 10
7.841666666666667
 20
2.457581195385171
 10
7.770833333333334
 20
2.483185298920265
 10
7.7
 20
2.507518930941971
 10
7.629166666666667
 20
2.5306588769344343
 10
7.558333333333334
 20
2.5526746414521693
 10
7.487500000000001
 20
2.5736293949596805
 10
7.416666666666667
 20
2.593580770321402
 10
7.345833333333334
 20
2.6125815370057692
 10
7.275
 20
2.6306801751065865
 10
7.204166666666667
 20
2.647921366734059
 10
7.133333333333334
 20
2.66434641882151
 10
7.0625
 20
2.6799936286689126
 10
6.991666666666667
 20
2.6948986014097898
 10
6.920833333333333
 20
2.7090945269032374
 10
6.8500000000000005
 20
2.7226124222135777
 10
6.779166666666667
 20
2.7354813447684867
 10
6.708333333333334
 20
2.7477285804234737
 10
6.6375
 20
2.7593798099615303
 10
6.566666666666667
 20
2.7704592569872695
 10
6.495833333333334
 20
2.7809898197084784
 10
6.425000000000001
 20
2.790993188714042
 10
6.354166666666667
 20
2.800489952539612
 10
6.283333333333334
 20
2.809499692548463
 10
6.2125
 20
2.8180410684347086
 10
6.141666666666667
 20
2.82613189547137
 10
6.070833333333334
 20
2.833789214470427
 10
6.0
 20
2.8410293552906656
 10
5.929166666666667
 20
2.8478679946178103
 10
5.858333333333333
 20
2.8543202086466852
 10
5.7875000000000005
 20
2.860400521214195
 10
5.716666666666667
 20
2.8661229478626145
 10
5.645833333333334
 20
2.8715010362530187
 10
5.575
 20
2.8765479032973196
 10
5.504166666666667
 20
2.8812762693328535
 10
5.433333333333334
 20
2.885698489624922
 10
5.362500000000001
 20
2.889826583449066
 10
5.291666666666667
 20
2.893672260975566
 10
5.220833333333334
 20
2.897246948153011
 10
5.15
 20
2.9005618097652466
 10
5.079166666666667
 20
2.9036277708162133
 10
5.008333333333334
 20
2.906455536379702
 10
4.9375
 20
2.9090556100355576
 10
4.866666666666667
 20
2.9114383110001616
 10
4.795833333333333
 20
2.9136137900467927
 10
4.7250000000000005
 20
2.915592044300588
 10
4.654166666666667
 20
2.917382930983089
 10
4.583333333333333
 20
2.9189961801726336
 10
4.5125
 20
2.920441406639019
 10
4.441666666666666
 20
2.921728120803831
 10
4.370833333333334
 20
2.9228657388714456
 10
4.3
 20
2.9238635921700165
 10
4.229166666666667
 20
2.9247309357365214
 10
4.158333333333333
 20
2.925476956175289
 10
4.0875
 20
2.9261107788151426
 10
4.016666666666667
 20
2.926641474186465
 10
3.9458333333333333
 20
2.9270780638359817
 10
3.875
 20
2.927429525493939
 10
3.8041666666666667
 20
2.9277047976054824
 10
3.7333333333333334
 20
2.927912783235499
 10
3.6625
 20
2.92806235335393
 10
3.591666666666667
 20
2.928162349506481
 10
3.520833333333333
 20
2.928221585873937
 10
3.4499999999999997
 20
2.92824885072168
 10
3.3791666666666664
 20
2.928253447934855
 10
3.308333333333333
 20
2.92825015984858
 10
3.2375
 20
2.92824016903816
 10
3.1666666666666665
 20
2.9282175358763003
 10
3.095833333333333
 20
2.9281730096877006
 10
3.025
 20
2.928094027264246
 10
2.9541666666666666
 20
2.9279647092112477
 10
2.8833333333333333
 20
2.9277658526300803
 10
2.8125
 20
2.9274749182411584
 10
2.7416666666666667
 20
2.9270660096395007
 10
2.6708333333333334
 20
2.926509841945631
 10
2.6
 20
2.925773696656599
 10
2.529166666666667
 20
2.9248213590008607
 10
2.4583333333333335
 20
2.92361303353725
 10
2.3875
 20
2.922105233086887
 10
2.316666666666667
 20
2.920250635314675
 10
2.2458333333333336
 20
2.917997900341363
 10
2.175
 20
2.9152914416126863
 10
2.1041666666666665
 20
2.912071140806653
 10
2.033333333333333
 20
2.9082719957286303
 10
1.9625
 20
2.903823687800297
 10
1.8916666666666666
 20
2.8986500527231267
 10
1.8208333333333333
 20
2.8926684339591633
 10
1.75
 20
2.8857888935037668
 10
1.6791666666666667
 20
2.8779132475835394
 10
1.6083333333333334
 20
2.8689338857712876
 10
1.5375
 20
2.858732319670315
 10
1.4666666666666668
 20
2.8471773904753506
 10
1.3958333333333335
 20
2.83412304143473
 10
1.325
 20
2.819405528612597
 10
1.2541666666666667
 20
2.802839896931568
 10
1.1833333333333333
 20
2.784215481313594
 10
1.1125
 20
2.76329009372623
 10
1.0416666666666667
 20
2.7397824079124473
 10
0.9708333333333333
 20
2.7133618239838704
 10
0.9
 20
2.683634731948139
  0
LWPOLYLINE
  5
9C
330
17
100
AcDbEntity
  8
DECK
100
AcDbPolyline
 90
4
 70
1
 10
-3.7
 20
-3.25
 10
0.9
 20
-3.25
 10
0.9
 20
3.25
 10
-3.7
 20
3.25
  0
LWPOLYLINE
  5
9D
330
17
100
AcDbEntity
  8
ESTRUTURA
100
AcDbPolyline
 90
61
 70
0
 10
0.45
 20
2.3730840916416054
 10
0.4213611311718341
 20
2.401182235877011
 10
0.3924367088565064
 20
2.4206875220229427
 10
0.36333024183921536
 20
2.431530148565236
 10
0.33414589036937004
 20
2.433671314137714
 10
0.3049880934132708
 20
2.427103356376547
 10
0.2759611949093751
 20
2.411849779340751
 10
0.24716907036362937
 20
2.387965169400684
 10
0.21871475512113137
 20
2.355534999895551
 10
0.1907000756443873
 20
2.3146753252589587
 10
0.16322528511766982
 20
2.265532365707137
 10
0.13638870468150155
 20
2.2082819839760393
 10
0.11028637158114007
 20
2.1431290559798852
 10
0.08501169548819781
 20
2.0703067376432944
 10
0.06065512422528474
 20
1.9900756305307228
 10
0.03730382008990624
 20
1.9027228492590775
 10
0.015041347935925264
 20
1.8085609940308642
 10
-0.006052623871183049
 20
1.7079270319647508
 10
-0.02590260855512444
 20
1.6011810912268094
 10
-0.0444375710653645
 20
1.4887051722777664
 10
-0.06159118228278676
 20
1.370901780848161
 10
-0.07730205638472804
 20
1.2481924875334651
 10
-0.09151397051996019
 20
1.1210164191637693
 10
-0.1041760660074888
 20
0.9898286873468276
 10
-0.11524303033916078
 20
0.8550987598080543
 10
-0.12467525933476792
 20
0.7173087803557978
 10
-0.13243899886935623
 20
0.5769518434840522
 10
-0.13850646566555996
 20
0.4345302297870975
 10
-0.14285594671869267
 20
0.29055360850081474
 10
-0.14547187699878877
 20
0.14553721360304722
 10
-0.1463448951515403
 20
6.894827170008322e-16
 10
-0.14547187699878888
 20
-0.14553721360304586
 10
-0.14285594671869267
 20
-0.2905536085008139
 10
-0.13850646566556007
 20
-0.4345302297870961
 10
-0.13243899886935623
 20
-0.5769518434840504
 10
-0.12467525933476803
 20
-0.7173087803557969
 10
-0.11524303033916089
 20
-0.8550987598080529
 10
-0.1041760660074888
 20
-0.9898286873468263
 10
-0.0915139705199603
 20
-1.1210164191637686
 10
-0.07730205638472826
 20
-1.248192487533464
 10
-0.06159118228278687
 20
-1.3709017808481598
 10
-0.044437571065364556
 20
-1.4887051722777662
 10
-0.025902608555124607
 20
-1.6011810912268085
 10
-0.006052623871183382
 20
-1.7079270319647495
 10
0.015041347935925153
 20
-1.808560994030864
 10
0.037303820089906126
 20
-1.902722849259077
 10
0.06065512422528463
 20
-1.9900756305307221
 10
0.08501169548819781
 20
-2.070306737643295
 10
0.11028637158113985
 20
-2.143129055979885
 10
0.13638870468150133
 20
-2.2082819839760384
 10
0.16322528511766976
 20
-2.2655323657071365
 10
0.19070007564438723
 20
-2.3146753252589582
 10
0.21871475512113125
 20
-2.3555349998955504
 10
0.24716907036362942
 20
-2.387965169400684
 10
0.2759611949093749
 20
-2.4118497793407507
 10
0.3049880934132706
 20
-2.427103356376547
 10
0.33414589036937004
 20
-2.433671314137714
 10
0.3633302418392153
 20
-2.431530148565236
 10
0.3924367088565063
 20
-2.4206875220229427
 10
0.4213611311718337
 20
-2.4011822358770116
 10
0.44999999999999984
 20
-2.373084091641606
  0
TEXT
  5
9E
330
17
100
AcDbEntity
  8
TEXTO
100
AcDbText
 10
0.45
 20
3.9
 30
0.0
 40
0.14
  1
A0
  7
ZION
 72
1
 11
0.45
 21
3.9
 31
0.0
100
AcDbText
 73
2
  0
LWPOLYLINE
  5
9F
330
17
100
AcDbEntity
  8
ESTRUTURA
100
AcDbPolyline
 90
61
 70
0
 10
1.65
 20
2.874356020243489
 10
1.6343746938030315
 20
2.9077515854871807
 10
1.6185969124491904
 20
2.930779091454165
 10
1.602722914173584
 20
2.9433564298419124
 10
1.5868093002883399
 20
2.9454387541131206
 10
1.5709128133614594
 20
2.937018639403304
 10
1.5550901348919985
 20
2.918126108995354
 10
1.5393976832030036
 20
2.8888285272666594
 10
1.5238914122728406
 20
2.849230359490506
 10
1.5086266122222223
 20
2.799472799348226
 10
1.4936577121683272
 20
2.739733265480254
 10
1.4790380861489651
 20
2.670224768871227
 10
1.4648198628088007
 20
2.5911951533248163
 10
1.451053739526226
 20
2.502926211736499
 10
1.4377888016436466
 20
2.405732681315342
 10
1.4250723474457425
 20
2.299961121337506
 10
1.412949719509772
 20
2.185988677433007
 10
1.4014641430292687
 20
2.0642217368118847
 10
1.3906565716876114
 20
1.935094479224777
 10
1.3805655416310332
 20
1.7990673288246894
 10
1.3712270340617494
 20
1.6566253124501014
 10
1.3626743469411533
 20
1.5082763301832052
 10
1.3549379762605407
 20
1.3545493443498962
 10
1.3480455073027133
 20
1.195992493418915
 10
1.342021516282185
 20
1.033171137525352
 10
1.3368874827147077
 20
0.8666658425875083
 10
1.3326617128285787
 20
0.6970703102050724
 10
1.3293592742908191
 20
0.5249892607198994
 10
1.326991942480965
 20
0.3510362769876793
 10
1.3255681585040462
 20
0.17583161654887666
 10
1.325092999092457
 20
1.8038540447556645e-16
 10
1.3255681585040462
 20
-0.1758316165488763
 10
1.326991942480965
 20
-0.3510362769876789
 10
1.3293592742908191
 20
-0.5249892607198989
 10
1.3326617128285787
 20
-0.6970703102050719
 10
1.3368874827147077
 20
-0.866665842587508
 10
1.342021516282185
 20
-1.0331711375253518
 10
1.3480455073027133
 20
-1.1959924934189146
 10
1.3549379762605405
 20
-1.3545493443498957
 10
1.3626743469411533
 20
-1.508276330183205
 10
1.3712270340617494
 20
-1.656625312450101
 10
1.3805655416310332
 20
-1.7990673288246888
 10
1.3906565716876114
 20
-1.9350944792247764
 10
1.4014641430292687
 20
-2.0642217368118847
 10
1.412949719509772
 20
-2.185988677433007
 10
1.4250723474457425
 20
-2.2999611213375055
 10
1.4377888016436466
 20
-2.4057326813153415
 10
1.451053739526226
 20
-2.502926211736498
 10
1.4648198628088007
 20
-2.591195153324816
 10
1.4790380861489651
 20
-2.6702247688712264
 10
1.4936577121683272
 20
-2.7397332654802535
 10
1.5086266122222223
 20
-2.7994727993482256
 10
1.5238914122728404
 20
-2.849230359490506
 10
1.5393976832030034
 20
-2.8888285272666594
 10
1.5550901348919985
 20
-2.918126108995354
 10
1.5709128133614592
 20
-2.9370186394033038
 10
1.5868093002883399
 20
-2.9454387541131206
 10
1.6027229141735837
 20
-2.943356429841913
 10
1.6185969124491901
 20
-2.930779091454165
 10
1.6343746938030315
 20
-2.9077515854871807
 10
1.65
 20
-2.8743560202434892
  0
TEXT
  5
A0
330
17
100
AcDbEntity
  8
TEXTO
100
AcDbText
 10
1.65
 20
3.9
 30
0.0
 40
0.14
  1
B02
  7
ZION
 72
1
 11
1.65
 21
3.9
 31
0.0
100
AcDbText
 73
2
  0
LWPOLYLINE
  5
A1
330
17
100
AcDbEntity
  8
ESTRUTURA
100
AcDbPolyline
 90
61
 70
0
 10
2.85
 20
2.927641914845135
 10
2.847753534870038
 20
2.9613466014275933
 10
2.8454853761747363
 20
2.984510439291311
 10
2.8432035973755623
 20
2.9970509772600065
 10
2.8409163204144456
 20
2.998923577561958
 10
2.838631686803905
 20
2.9901215747171834
 10
2.836357828647509
 20
2.9706762992630695
 10
2.834102839693832
 20
2.9406569662340045
 10
2.831874746526933
 20
2.9001704287919736
 10
2.8296814799959034
 20
2.8493607978850566
 10
2.8275308469851828
 20
2.788408929287645
 10
2.825430502626124
 20
2.7175317798482554
 10
2.823387923048721
 20
2.636981635236351
 10
2.8214103787704827
 20
2.5470452119369997
 10
2.819504908817191
 20
2.448042636689789
 10
2.8176782956676356
 20
2.34032630700467
 10
2.8159370411115323
 20
2.224279636810698
 10
2.8142873431065425
 20
2.1003156917025056
 10
2.812735073716779
 20
1.968875718642313
 10
2.8112857582113193
 20
1.83042757535098
 10
2.8099445553971347
 20
1.6854640649786428
 10
2.8087162392564253
 20
1.5345011819826333
 10
2.807605181953737
 20
1.378076275456445
 10
2.8066153382733363
 20
1.2167461364473497
 10
2.8057502315422402
 20
1.051085016070784
 10
2.8050129410890134
 20
0.8816825814760194
 10
2.8044060912829636
 20
0.7091418169387854
 10
2.803931842192755
 20
0.5340768775518798
 10
2.803591881897694
 20
0.3571109031534918
 10
2.8033874204790448
 20
0.178873800274519
 10
2.803319185712774
 20
1.8366556493950146e-16
 10
2.8033874204790448
 20
-0.17887380027451863
 10
2.803591881897694
 20
-0.3571109031534914
 10
2.803931842192755
 20
-0.53407687755188
 10
2.8044060912829636
 20
-0.7091418169387844
 10
2.8050129410890134
 20
-0.8816825814760184
 10
2.8057502315422402
 20
-1.0510850160707825
 10
2.8066153382733363
 20
-1.21674613644735
 10
2.807605181953737
 20
-1.3780762754564448
 10
2.8087162392564253
 20
-1.5345011819826315
 10
2.8099445553971347
 20
-1.6854640649786434
 10
2.8112857582113193
 20
-1.8304275753509798
 10
2.812735073716779
 20
-1.9688757186423116
 10
2.8142873431065425
 20
-2.1003156917025048
 10
2.8159370411115323
 20
-2.224279636810698
 10
2.8176782956676356
 20
-2.3403263070046694
 10
2.819504908817191
 20
-2.4480426366897885
 10
2.8214103787704827
 20
-2.5470452119369997
 10
2.823387923048721
 20
-2.6369816352363507
 10
2.825430502626124
 20
-2.717531779848255
 10
2.8275308469851828
 20
-2.7884089292876446
 10
2.8296814799959034
 20
-2.8493607978850566
 10
2.831874746526933
 20
-2.9001704287919736
 10
2.834102839693832
 20
-2.940656966234004
 10
2.836357828647509
 20
-2.9706762992630695
 10
2.838631686803905
 20
-2.9901215747171834
 10
2.8409163204144456
 20
-2.998923577561958
 10
2.8432035973755623
 20
-2.997050977260006
 10
2.8454853761747363
 20
-2.984510439291311
 10
2.8477535348700376
 20
-2.9613466014275938
 10
2.85
 20
-2.927641914845135
  0
TEXT
  5
A2
330
17
100
AcDbEntity
  8
TEXTO
100
AcDbText
 10
2.85
 20
3.9
 30
0.0
 40
0.14
  1
B03
  7
ZION
 72
1
 11
2.85
 21
3.9
 31
0.0
100
AcDbText
 73
2
  0
LWPOLYLINE
  5
A3
330
17
100
AcDbEntity
  8
ESTRUTURA
100
AcDbPolyline
 90
61
 70
0
 10
4.05
 20
2.926404007498842
 10
4.05
 20
2.9602815755656144
 10
4.05
 20
2.9836110271474396
 10
4.05
 20
2.9963092344179496
 10
4.05
 20
2.9983309509483775
 10
4.05
 20
2.9896689729302617
 10
4.05
 20
2.970354164844157
 10
4.05
 20
2.9404553494828867
 10
4.05
 20
2.9000790627212134
 10
4.05
 20
2.849369173905724
 10
4.05
 20
2.7885063732175754
 10
4.05
 20
2.717707527834727
 10
4.05
 20
2.6372249091877964
 10
4.05
 20
2.5473452940629886
 10
4.05
 20
2.4483889427550607
 10
4.05
 20
2.34070845791139
 10
4.05
 20
2.2246875281333103
 10
4.05
 20
2.1007395608115553
 10
4.05
 20
1.9693062090672924
 10
4.05
 20
1.830855798047578
 10
4.05
 20
1.6858816561826804
 10
4.05
 20
1.534900357351353
 10
4.05
 20
1.3784498802176086
 10
4.05
 20
1.217087691297659
 10
4.05
 20
1.0513887585874655
 10
4.05
 20
0.881943502828788
 10
4.05
 20
0.7093556937137804
 10
4.05
 20
0.5342402985244218
 10
4.05
 20
0.35722129087255233
 10
4.05
 20
0.178929427348415
 10
4.05
 20
1.8362643481919396e-16
 10
4.05
 20
-0.17892942734841466
 10
4.05
 20
-0.3572212908725526
 10
4.05
 20
-0.5342402985244215
 10
4.05
 20
-0.70935569371378
 10
4.05
 20
-0.8819435028287876
 10
4.05
 20
-1.0513887585874653
 10
4.05
 20
-1.2170876912976585
 10
4.05
 20
-1.3784498802176084
 10
4.05
 20
-1.5349003573513529
 10
4.05
 20
-1.6858816561826788
 10
4.05
 20
-1.8308557980475784
 10
4.05
 20
-1.969306209067292
 10
4.05
 20
-2.1007395608115544
 10
4.05
 20
-2.2246875281333107
 10
4.05
 20
-2.34070845791139
 10
4.05
 20
-2.4483889427550602
 10
4.05
 20
-2.5473452940629886
 10
4.05
 20
-2.6372249091877964
 10
4.05
 20
-2.7177075278347265
 10
4.05
 20
-2.7885063732175754
 10
4.05
 20
-2.849369173905724
 10
4.05
 20
-2.9000790627212134
 10
4.05
 20
-2.940455349482887
 10
4.05
 20
-2.970354164844157
 10
4.05
 20
-2.9896689729302617
 10
4.05
 20
-2.9983309509483775
 10
4.05
 20
-2.9963092344179496
 10
4.05
 20
-2.9836110271474396
 10
4.05
 20
-2.9602815755656144
 10
4.05
 20
-2.926404007498842
  0
TEXT
  5
A4
330
17
100
AcDbEntity
  8
TEXTO
100
AcDbText
 10
4.05
 20
3.9
 30
0.0
 40
0.14
  1
B04
  7
ZION
 72
1
 11
4.05
 21
3.9
 31
0.0
100
AcDbText
 73
2
  0
LWPOLYLINE
  5
A5
330
17
100
AcDbEntity
  8
ESTRUTURA
100
AcDbPolyline
 90
61
 70
0
 10
5.25
 20
2.895807115550346
 10
5.25
 20
2.9309988578967743
 10
5.25
 20
2.9556485736920544
 10
5.25
 20
2.9696676044375003
 10
5.25
 20
2.973005527392776
 10
5.25
 20
2.965650336933133
 10
5.25
 20
2.94762848773047
 10
5.25
 20
2.919004799602877
 10
5.25
 20
2.8798822243749242
 10
5.25
 20
2.8304014755872164
 10
5.25
 20
2.770740522387058
 10
5.25
 20
2.70111394942057
 10
5.25
 20
2.6217721850285556
 10
5.25
 20
2.5330006005220884
 10
5.25
 20
2.435118483777496
 10
5.25
 20
2.3284778908424375
 10
5.25
 20
2.2134623796835498
 10
5.25
 20
2.0904856306300372
 10
5.25
 20
1.9599899584750977
 10
5.25
 20
1.822444721586771
 10
5.25
 20
1.6783446337502073
 10
5.25
 20
1.528207984813218
 10
5.25
 20
1.372574776534975
 10
5.25
 20
1.212004780342713
 10
5.25
 20
1.047075523982176
 10
5.25
 20
0.8783802143032828
 10
5.25
 20
0.7065256036522184
 10
5.25
 20
0.5321298075439503
 10
5.25
 20
0.3558200814644469
 10
5.25
 20
0.17823056479883537
 10
5.25
 20
1.8205564693892163e-16
 10
5.25
 20
-0.178230564798835
 10
5.25
 20
-0.35582008146444655
 10
5.25
 20
-0.53212980754395
 10
5.25
 20
-0.7065256036522181
 10
5.25
 20
-0.8783802143032818
 10
5.25
 20
-1.0470755239821752
 10
5.25
 20
-1.2120047803427132
 10
5.25
 20
-1.3725747765349745
 10
5.25
 20
-1.5282079848132173
 10
5.25
 20
-1.6783446337502068
 10
5.25
 20
-1.8224447215867703
 10
5.25
 20
-1.9599899584750973
 10
5.25
 20
-2.0904856306300372
 10
5.25
 20
-2.2134623796835493
 10
5.25
 20
-2.3284778908424366
 10
5.25
 20
-2.435118483777496
 10
5.25
 20
-2.533000600522088
 10
5.25
 20
-2.6217721850285542
 10
5.25
 20
-2.70111394942057
 10
5.25
 20
-2.7707405223870576
 10
5.25
 20
-2.8304014755872164
 10
5.25
 20
-2.8798822243749242
 10
5.25
 20
-2.9190047996028765
 10
5.25
 20
-2.9476284877304697
 10
5.25
 20
-2.965650336933133
 10
5.25
 20
-2.973005527392776
 10
5.25
 20
-2.9696676044375003
 10
5.25
 20
-2.9556485736920544
 10
5.25
 20
-2.9309988578967743
 10
5.25
 20
-2.895807115550346
  0
TEXT
  5
A6
330
17
100
AcDbEntity
  8
TEXTO
100
AcDbText
 10
5.25
 20
3.9
 30
0.0
 40
0.14
  1
B05
  7
ZION
 72
1
 11
5.25
 21
3.9
 31
0.0
100
AcDbText
 73
2
  0
LWPOLYLINE
  5
A7
330
17
100
AcDbEntity
  8
ESTRUTURA
100
AcDbPolyline
 90
61
 70
0
 10
6.45
 20
2.7875214735074767
 10
6.45
 20
2.825272365333818
 10
6.45
 20
2.852635805749048
 10
6.45
 20
2.869511189795131
 10
6.45
 20
2.8758364731063724
 10
6.45
 20
2.8715884000229415
 10
6.45
 20
2.8567825890930836
 10
6.45
 20
2.8314734756496622
 10
6.45
 20
2.7957541116721525
 10
6.45
 20
2.7497558236699224
 10
6.45
 20
2.693647729844629
 10
6.45
 20
2.6276361183069454
 10
6.45
 20
2.5519636886336734
 10
6.45
 20
2.4669086595537526
 10
6.45
 20
2.3727837460438623
 10
6.45
 20
2.2699350095944473
 10
6.45
 20
2.1587405858733
 10
6.45
 20
2.0396092944646007
 10
6.45
 20
1.912979135794869
 10
6.45
 20
1.779315680772065
 10
6.45
 20
1.6391103590585192
 10
6.45
 20
1.492878652271068
 10
6.45
 20
1.3411581987512924
 10
6.45
 20
1.184506816873926
 10
6.45
 20
1.0235004541609494
 10
6.45
 20
0.8587310697417119
 10
6.45
 20
0.6908044579444703
 10
6.45
 20
0.5203380210211548
 10
6.45
 20
0.34795849919422783
 10
6.45
 20
0.17429966637137279
 10
6.45
 20
1.7609732291014378e-16
 10
6.45
 20
-0.17429966637137242
 10
6.45
 20
-0.3479584991942288
 10
6.45
 20
-0.5203380210211545
 10
6.45
 20
-0.6908044579444712
 10
6.45
 20
-0.8587310697417128
 10
6.45
 20
-1.0235004541609491
 10
6.45
 20
-1.1845068168739257
 10
6.45
 20
-1.3411581987512922
 10
6.45
 20
-1.4928786522710675
 10
6.45
 20
-1.6391103590585205
 10
6.45
 20
-1.7793156807720651
 10
6.45
 20
-1.9129791357948687
 10
6.45
 20
-2.039609294464601
 10
6.45
 20
-2.1587405858733
 10
6.45
 20
-2.2699350095944473
 10
6.45
 20
-2.372783746043862
 10
6.45
 20
-2.466908659553753
 10
6.45
 20
-2.5519636886336734
 10
6.45
 20
-2.627636118306945
 10
6.45
 20
-2.6936477298446295
 10
6.45
 20
-2.749755823669922
 10
6.45
 20
-2.7957541116721525
 10
6.45
 20
-2.831473475649662
 10
6.45
 20
-2.8567825890930836
 10
6.45
 20
-2.8715884000229415
 10
6.45
 20
-2.8758364731063724
 10
6.45
 20
-2.869511189795131
 10
6.45
 20
-2.852635805749048
 10
6.45
 20
-2.825272365333818
 10
6.45
 20
-2.7875214735074767
  0
TEXT
  5
A8
330
17
100
AcDbEntity
  8
TEXTO
100
AcDbText
 10
6.45
 20
3.9
 30
0.0
 40
0.14
  1
B06
  7
ZION
 72
1
 11
6.45
 21
3.9
 31
0.0
100
AcDbText
 73
2
  0
LWPOLYLINE
  5
A9
330
17
100
AcDbEntity
  8
ESTRUTURA
100
AcDbPolyline
 90
61
 70
0
 10
7.65
 20
2.523972691255164
 10
7.65
 20
2.5661499255411306
 10
7.65
 20
2.5984384719219356
 10
7.65
 20
2.620713906117105
 10
7.65
 20
2.6328903894877844
 10
7.65
 20
2.6349209998169045
 10
7.65
 20
2.6267979121244824
 10
7.65
 20
2.608552428821269
 10
7.65
 20
2.580254859084553
 10
7.65
 20
2.542014247920947
 10
7.65
 20
2.4939779559602164
 10
7.65
 20
2.4363310915994165
 10
7.65
 20
2.3692957976855817
 10
7.65
 20
2.2931303954857376
 10
7.65
 20
2.2081283892429644
 10
7.65
 20
2.114617335154458
 10
7.65
 20
2.012957579130005
 10
7.65
 20
1.9035408681949184
 10
7.65
 20
1.7867888408884267
 10
7.65
 20
1.66315140247477
 10
7.65
 20
1.5331049912281491
 10
7.65
 20
1.3971507424724228
 10
7.65
 20
1.2558125574504386
 10
7.65
 20
1.109635084464641
 10
7.65
 20
0.9591816200686473
 10
7.65
 20
0.8050319383975749
 10
7.65
 20
0.6477800570018225
 10
7.65
 20
0.48803194779368825
 10
7.65
 20
0.3264032019277162
 10
7.65
 20
0.16351665761318715
 10
7.65
 20
7.465419292865386e-16
 10
7.65
 20
-0.16351665761318568
 10
7.65
 20
-0.3264032019277141
 10
7.65
 20
-0.48803194779368675
 10
7.65
 20
-0.6477800570018212
 10
7.65
 20
-0.805031938397574
 10
7.65
 20
-0.9591816200686458
 10
7.65
 20
-1.1096350844646397
 10
7.65
 20
-1.2558125574504369
 10
7.65
 20
-1.397150742472421
 10
7.65
 20
-1.5331049912281494
 10
7.65
 20
-1.6631514024747678
 10
7.65
 20
-1.786788840888426
 10
7.65
 20
-1.903540868194917
 10
7.65
 20
-2.0129575791300036
 10
7.65
 20
-2.114617335154457
 10
7.65
 20
-2.2081283892429626
 10
7.65
 20
-2.293130395485737
 10
7.65
 20
-2.3692957976855813
 10
7.65
 20
-2.436331091599416
 10
7.65
 20
-2.4939779559602155
 10
7.65
 20
-2.5420142479209464
 10
7.65
 20
-2.580254859084553
 10
7.65
 20
-2.608552428821269
 10
7.65
 20
-2.6267979121244824
 10
7.65
 20
-2.6349209998169045
 10
7.65
 20
-2.6328903894877844
 10
7.65
 20
-2.6207139061171056
 10
7.65
 20
-2.598438471921936
 10
7.65
 20
-2.5661499255411315
 10
7.65
 20
-2.523972691255164
  0
TEXT
  5
AA
330
17
100
AcDbEntity
  8
TEXTO
100
AcDbText
 10
7.65
 20
3.9
 30
0.0
 40
0.14
  1
B07
  7
ZION
 72
1
 11
7.65
 21
3.9
 31
0.0
100
AcDbText
 73
2
  0
LWPOLYLINE
  5
AB
330
17
100
AcDbEntity
  8
ESTRUTURA
100
AcDbPolyline
 90
61
 70
0
 10
8.75
 20
1.9593664060486347
 10
8.75
 20
2.009881281873129
 10
8.75
 20
2.0517073654684497
 10
8.75
 20
2.0846638411051335
 10
8.75
 20
2.1086082367018695
 10
8.75
 20
2.1234370397376607
 10
8.75
 20
2.1290861447403344
 10
8.75
 20
2.125531130416906
 10
8.75
 20
2.1127873652277445
 10
8.75
 20
2.0909099409481433
 10
8.75
 20
2.0599934345045057
 10
8.75
 20
2.0201714991147415
 10
8.75
 20
1.971616286500391
 10
8.75
 20
1.914537702668269
 10
8.75
 20
1.8491825004789177
 10
8.75
 20
1.7758332129247285
 10
8.75
 20
1.6948069317292096
 10
8.75
 20
1.606453936547562
 10
8.75
 20
1.511156180694583
 10
8.75
 20
1.4093256399461451
 10
8.75
 20
1.301402531552455
 10
8.75
 20
1.1878534111623547
 10
8.75
 20
1.0691691558857375
 10
8.75
 20
0.9458628422133755
 10
8.75
 20
0.8184675279679904
 10
8.75
 20
0.6875339478752764
 10
8.75
 20
0.5536281327170046
 10
8.75
 20
0.4173289623587082
 10
8.75
 20
0.2792256632302926
 10
8.75
 20
0.13991526107806068
 10
8.75
 20
-3.423927526602747e-16
 10
8.75
 20
-0.13991526107806182
 10
8.75
 20
-0.2792256632302933
 10
8.75
 20
-0.4173289623587093
 10
8.75
 20
-0.5536281327170052
 10
8.75
 20
-0.6875339478752777
 10
8.75
 20
-0.8184675279679914
 10
8.75
 20
-0.945862842213376
 10
8.75
 20
-1.0691691558857375
 10
8.75
 20
-1.187853411162355
 10
8.75
 20
-1.3014025315524553
 10
8.75
 20
-1.4093256399461458
 10
8.75
 20
-1.5111561806945832
 10
8.75
 20
-1.6064539365475627
 10
8.75
 20
-1.6948069317292096
 10
8.75
 20
-1.7758332129247287
 10
8.75
 20
-1.8491825004789177
 10
8.75
 20
-1.9145377026682693
 10
8.75
 20
-1.9716162865003914
 10
8.75
 20
-2.020171499114741
 10
8.75
 20
-2.0599934345045057
 10
8.75
 20
-2.0909099409481433
 10
8.75
 20
-2.1127873652277445
 10
8.75
 20
-2.125531130416906
 10
8.75
 20
-2.1290861447403344
 10
8.75
 20
-2.1234370397376607
 10
8.75
 20
-2.1086082367018695
 10
8.75
 20
-2.0846638411051335
 10
8.75
 20
-2.0517073654684497
 10
8.75
 20
-2.009881281873129
 10
8.75
 20
-1.9593664060486347
  0
TEXT
  5
AC
330
17
100
AcDbEntity
  8
TEXTO
100
AcDbText
 10
8.75
 20
3.9
 30
0.0
 40
0.14
  1
B08
  7
ZION
 72
1
 11
8.75
 21
3.9
 31
0.0
100
AcDbText
 73
2
  0
LWPOLYLINE
  5
AD
330
17
100
AcDbEntity
  8
ESTRUTURA
100
AcDbPolyline
 90
41
 70
0
 10
0.2759611949093751
 20
2.4118497793407507
 10
0.5089052748619478
 20
2.5980680000072396
 10
0.741963199078414
 20
2.720488535185937
 10
0.975125420521282
 20
2.8045531309004517
 10
1.2083823981671642
 20
2.8630180699896544
 10
1.4417245963564072
 20
2.9034433602500758
 10
1.6751424841758942
 20
2.930823953021871
 10
1.9086265348708487
 20
2.948719449424231
 10
2.142167225281775
 20
2.9598018996875917
 10
2.3757550353029364
 20
2.9661408807787097
 10
2.6093804473589968
 20
2.969356082733545
 10
2.8430339458966327
 20
2.9706977707222113
 10
3.075
 20
2.971086514989034
 10
3.29375
 20
2.971130320834423
 10
3.5125
 20
2.971133962949687
 10
3.73125
 20
2.9710728708810357
 10
3.95
 20
2.9706997666727912
 10
4.16875
 20
2.9697538306842812
 10
4.3875
 20
2.96797307048784
 10
4.60625
 20
2.9650928536713566
 10
4.825
 20
2.960843934153767
 10
5.04375
 20
2.954949918024419
 10
5.2625
 20
2.9471240831521
 10
5.48125
 20
2.9370654229566497
 10
5.7
 20
2.9244537237416885
 10
5.91875
 20
2.9089433986471755
 10
6.1375
 20
2.890155676252831
 10
6.35625
 20
2.8676685561483706
 10
6.575
 20
2.8410036603079094
 10
6.79375
 20
2.809608663610458
 10
7.0125
 20
2.7728332642281677
 10
7.23125
 20
2.7298954405674474
 10
7.45
 20
2.679832618945282
 10
7.66875
 20
2.6214284905493432
 10
7.8875
 20
2.5530987062247954
 10
8.10625
 20
2.4727031840621994
 10
8.325
 20
2.3772181282677995
 10
8.54375
 20
2.2621151303720217
 10
8.7625
 20
2.1200520462146066
 10
8.98125
 20
1.9376512431129027
 10
9.2
 20
1.685350506553773
  0
LWPOLYLINE
  5
AE
330
17
100
AcDbEntity
  8
ESTRUTURA
100
AcDbPolyline
 90
41
 70
0
 10
0.08006409433151357
 20
2.0548444072088268
 10
0.329022171414509
 20
2.2131028601580667
 10
0.5782127391292416
 20
2.3170043482733313
 10
0.8276163230914446
 20
2.3882447285157946
 10
1.0772134551379553
 20
2.437702407154713
 10
1.326984672653158
 20
2.4718239296037186
 10
1.5769105179299931
 20
2.4948677630411358
 10
1.826971537561178
 20
2.5098678184331495
 10
2.077148281856609
 20
2.5191007769276754
 10
2.327421304283193
 20
2.524329379241784
 10
2.577771160923593
 20
2.5269327261140466
 10
2.8281784099505556
 20
2.5279750638747993
 10
3.075
 20
2.5282398184741086
 10
3.29375
 20
2.5282443313469796
 10
3.5125
 20
2.528263998501797
 10
3.73125
 20
2.528369488053704
 10
3.95
 20
2.5283664894225564
 10
4.16875
 20
2.528036477651646
 10
4.3875
 20
2.527161564724591
 10
4.60625
 20
2.525523275465244
 10
4.825
 20
2.522900947642846
 10
5.04375
 20
2.5190697161617255
 10
5.2625
 20
2.513798018134625
 10
5.48125
 20
2.506844523520333
 10
5.7
 20
2.4979543512650073
 10
5.91875
 20
2.4868543676483776
 10
6.1375
 20
2.473247272223074
 10
6.35625
 20
2.4568040415655097
 10
6.575
 20
2.437154095494085
 10
6.79375
 20
2.4138722286179064
 10
7.0125
 20
2.3864608302583306
 10
7.23125
 20
2.35432504632279
 10
7.45
 20
2.3167370239816027
 10
7.66875
 20
2.2727826255833268
 10
7.8875
 20
2.221278707062818
 10
8.10625
 20
2.1606382167768676
 10
8.325
 20
2.0886363396426777
 10
8.54375
 20
2.001972031553116
 10
8.7625
 20
1.8953547410381737
 10
8.98125
 20
1.7592937405605034
 10
9.2
 20
1.573311042125729
  0
LWPOLYLINE
  5
AF
330
17
100
AcDbEntity
  8
ESTRUTURA
100
AcDbPolyline
 90
41
 70
0
 10
-0.06805192675872179
 20
1.3223825572895729
 10
0.19303266492690313
 20
1.424085615926931
 10
0.4544347383810877
 20
1.4908066227076542
 10
0.7161277209219699
 20
1.536515064488358
 10
0.9780850427008787
 20
1.5682154079718111
 10
1.2402801363953595
 20
1.5900583044637706
 10
1.5026864369180113
 20
1.6047853017360814
 10
1.7652773811391445
 20
1.6143492881986112
 10
2.0280264076214114
 20
1.6202154599986047
 10
2.290906956364695
 20
1.623518036648029
 10
2.553892468559644
 20
1.6251442237436284
 10
2.8169563863483353
 20
1.6257785640465376
 10
3.075
 20
1.6259249067999366
 10
3.29375
 20
1.625915942090808
 10
3.5125
 20
1.6259345910152945
 10
3.73125
 20
1.6260594709634384
 10
3.95
 20
1.6261714633178206
 10
4.16875
 20
1.6261312892614355
 10
4.3875
 20
1.6258006816227306
 10
4.60625
 20
1.6250416079986671
 10
4.825
 20
1.6237152728453514
 10
5.04375
 20
1.6216808750098834
 10
5.2625
 20
1.618794083848729
 10
5.48125
 20
1.6149051784246833
 10
5.7
 20
1.609856768271574
 10
5.91875
 20
1.6034809775213383
 10
6.1375
 20
1.595595921343983
 10
6.35625
 20
1.5860012256730784
 10
6.575
 20
1.5744722230090182
 10
6.79375
 20
1.5607522727668905
 10
7.0125
 20
1.544542358052107
 10
7.23125
 20
1.5254866168195387
 10
7.45
 20
1.503151610164843
 10
7.66875
 20
1.47699558186435
 10
7.8875
 20
1.4463210073120907
 10
8.10625
 20
1.4101977201007019
 10
8.325
 20
1.3673307021870826
 10
8.54375
 20
1.3158146477217112
 10
8.7625
 20
1.252629408695562
 10
8.98125
 20
1.1724414611976801
 10
9.2
 20
1.0640383409946734
  0
LWPOLYLINE
  5
B0
330
17
100
AcDbEntity
  8
ESTRUTURA
100
AcDbPolyline
 90
41
 70
0
 10
-0.1463448951515403
 20
6.894827170008322e-16
 10
0.12115481569036746
 20
-4.216632761125574e-16
 10
0.3890156218307152
 20
1.6813392374619472e-16
 10
0.6572073121090756
 20
1.733408539400897e-16
 10
0.9256996753650215
 20
1.7696504483157654e-16
 10
1.1944625004381255
 20
1.7947346374351547e-16
 10
1.4634655761679602
 20
-4.75812417155948e-16
 10
1.732678691394099
 20
8.433148758686798e-16
 10
2.0020716349561143
 20
-4.805543055634973e-16
 10
2.2716141956935787
 20
1.8337758811549028e-16
 10
2.541276162446065
 20
1.835807416934511e-16
 10
2.811027324053146
 20
1.836669708671785e-16
 10
3.075
 20
-4.82426725312592e-16
 10
3.29375
 20
1.8369697607530486e-16
 10
3.5125
 20
-4.8243583417038e-16
 10
3.73125
 20
1.8368768097635094e-16
 10
3.95
 20
1.8365426408137225e-16
 10
4.16875
 20
-4.821300512044709e-16
 10
4.3875
 20
1.8344927598608442e-16
 10
4.60625
 20
-4.812495911782072e-16
 10
4.825
 20
8.463774356201714e-16
 10
5.04375
 20
-4.79421228687664e-16
 10
5.2625
 20
-4.780373346083597e-16
 10
5.48125
 20
1.813509721278933e-16
 10
5.7
 20
1.805162597768982e-16
 10
5.91875
 20
8.303969041005543e-16
 10
6.1375
 20
-4.681772286195445e-16
 10
6.35625
 20
1.7680370258990422e-16
 10
6.575
 20
1.7507559537477789e-16
 10
6.79375
 20
1.7304917025177662e-16
 10
7.0125
 20
1.7068466510115555e-16
 10
7.23125
 20
1.6793452253283604e-16
 10
7.45
 20
1.6474057997685071e-16
 10
7.66875
 20
1.6102990154128617e-16
 10
7.8875
 20
1.5670834496983693e-16
 10
8.10625
 20
1.5165014637275818e-16
 10
8.325
 20
6.739542070084738e-16
 10
8.54375
 20
6.409227037069762e-16
 10
8.7625
 20
1.2982148058542422e-16
 10
8.98125
 20
-3.1200976239213713e-16
 10
9.2
 20
1.0397412563929982e-16
  0
LWPOLYLINE
  5
B1
330
17
100
AcDbEntity
  8
ESTRUTURA
100
AcDbPolyline
 90
41
 70
0
 10
-0.06805192675872179
 20
-1.322382557289573
 10
0.19303266492690335
 20
-1.424085615926933
 10
0.4544347383810877
 20
-1.490806622707654
 10
0.7161277209219699
 20
-1.5365150644883578
 10
0.9780850427008787
 20
-1.5682154079718114
 10
1.2402801363953593
 20
-1.5900583044637704
 10
1.5026864369180113
 20
-1.6047853017360825
 10
1.7652773811391445
 20
-1.614349288198611
 10
2.0280264076214114
 20
-1.6202154599986047
 10
2.290906956364695
 20
-1.623518036648029
 10
2.553892468559644
 20
-1.6251442237436282
 10
2.8169563863483353
 20
-1.6257785640465376
 10
3.075
 20
-1.6259249067999366
 10
3.29375
 20
-1.6259159420908087
 10
3.5125
 20
-1.6259345910152951
 10
3.73125
 20
-1.6260594709634377
 10
3.95
 20
-1.6261714633178208
 10
4.16875
 20
-1.6261312892614368
 10
4.3875
 20
-1.6258006816227315
 10
4.60625
 20
-1.6250416079986671
 10
4.825
 20
-1.6237152728453508
 10
5.04375
 20
-1.6216808750098841
 10
5.2625
 20
-1.6187940838487298
 10
5.48125
 20
-1.6149051784246828
 10
5.7
 20
-1.609856768271574
 10
5.91875
 20
-1.6034809775213372
 10
6.1375
 20
-1.5955959213439836
 10
6.35625
 20
-1.586001225673078
 10
6.575
 20
-1.5744722230090176
 10
6.79375
 20
-1.56075227276689
 10
7.0125
 20
-1.544542358052108
 10
7.23125
 20
-1.5254866168195385
 10
7.45
 20
-1.5031516101648437
 10
7.66875
 20
-1.4769955818643505
 10
7.8875
 20
-1.4463210073120907
 10
8.10625
 20
-1.4101977201007017
 10
8.325
 20
-1.3673307021870826
 10
8.54375
 20
-1.3158146477217105
 10
8.7625
 20
-1.2526294086955623
 10
8.98125
 20
-1.1724414611976812
 10
9.2
 20
-1.0640383409946736
  0
LWPOLYLINE
  5
B2
330
17
100
AcDbEntity
  8
ESTRUTURA
100
AcDbPolyline
 90
41
 70
0
 10
0.0800640943315134
 20
-2.0548444072088263
 10
0.32902217141450923
 20
-2.2131028601580676
 10
0.5782127391292416
 20
-2.317004348273331
 10
0.8276163230914446
 20
-2.388244728515794
 10
1.0772134551379553
 20
-2.4377024071547133
 10
1.326984672653158
 20
-2.471823929603718
 10
1.5769105179299934
 20
-2.494867763041136
 10
1.826971537561178
 20
-2.5098678184331487
 10
2.077148281856609
 20
-2.519100776927675
 10
2.327421304283193
 20
-2.524329379241784
 10
2.577771160923593
 20
-2.5269327261140466
 10
2.8281784099505556
 20
-2.5279750638747993
 10
3.075
 20
-2.5282398184741086
 10
3.29375
 20
-2.528244331346979
 10
3.5125
 20
-2.5282639985017976
 10
3.73125
 20
-2.528369488053704
 10
3.95
 20
-2.528366489422557
 10
4.16875
 20
-2.528036477651646
 10
4.3875
 20
-2.5271615647245915
 10
4.60625
 20
-2.5255232754652446
 10
4.825
 20
-2.522900947642845
 10
5.04375
 20
-2.519069716161726
 10
5.2625
 20
-2.5137980181346253
 10
5.48125
 20
-2.5068445235203325
 10
5.7
 20
-2.4979543512650073
 10
5.91875
 20
-2.486854367648377
 10
6.1375
 20
-2.473247272223074
 10
6.35625
 20
-2.4568040415655097
 10
6.575
 20
-2.4371540954940847
 10
6.79375
 20
-2.4138722286179064
 10
7.0125
 20
-2.386460830258331
 10
7.23125
 20
-2.3543250463227894
 10
7.45
 20
-2.3167370239816027
 10
7.66875
 20
-2.2727826255833263
 10
7.8875
 20
-2.2212787070628184
 10
8.10625
 20
-2.1606382167768676
 10
8.325
 20
-2.0886363396426773
 10
8.54375
 20
-2.001972031553115
 10
8.7625
 20
-1.8953547410381737
 10
8.98125
 20
-1.7592937405605038
 10
9.2
 20
-1.573311042125729
  0
LWPOLYLINE
  5
B3
330
17
100
AcDbEntity
  8
ESTRUTURA
100
AcDbPolyline
 90
41
 70
0
 10
0.2759611949093749
 20
-2.4118497793407507
 10
0.5089052748619481
 20
-2.59806800000724
 10
0.7419631990784141
 20
-2.720488535185937
 10
0.975125420521282
 20
-2.804553130900452
 10
1.2083823981671642
 20
-2.8630180699896544
 10
1.4417245963564074
 20
-2.903443360250076
 10
1.6751424841758942
 20
-2.930823953021871
 10
1.9086265348708487
 20
-2.9487194494242304
 10
2.142167225281775
 20
-2.959801899687592
 10
2.3757550353029364
 20
-2.9661408807787097
 10
2.6093804473589968
 20
-2.969356082733545
 10
2.8430339458966327
 20
-2.9706977707222113
 10
3.075
 20
-2.971086514989034
 10
3.29375
 20
-2.971130320834423
 10
3.5125
 20
-2.971133962949687
 10
3.73125
 20
-2.9710728708810357
 10
3.95
 20
-2.970699766672791
 10
4.16875
 20
-2.9697538306842812
 10
4.3875
 20
-2.96797307048784
 10
4.60625
 20
-2.965092853671357
 10
4.825
 20
-2.960843934153767
 10
5.04375
 20
-2.954949918024419
 10
5.2625
 20
-2.9471240831521
 10
5.48125
 20
-2.9370654229566497
 10
5.7
 20
-2.9244537237416885
 10
5.91875
 20
-2.908943398647175
 10
6.1375
 20
-2.890155676252831
 10
6.35625
 20
-2.8676685561483706
 10
6.575
 20
-2.8410036603079094
 10
6.79375
 20
-2.809608663610458
 10
7.0125
 20
-2.7728332642281677
 10
7.23125
 20
-2.7298954405674474
 10
7.45
 20
-2.679832618945282
 10
7.66875
 20
-2.6214284905493432
 10
7.8875
 20
-2.5530987062247954
 10
8.10625
 20
-2.4727031840621994
 10
8.325
 20
-2.3772181282677995
 10
8.54375
 20
-2.2621151303720217
 10
8.7625
 20
-2.1200520462146066
 10
8.98125
 20
-1.9376512431129027
 10
9.2
 20
-1.6853505065537728
  0
LWPOLYLINE
  5
B4
330
17
100
AcDbEntity
  8
ESTRUTURA
100
AcDbPolyline
 90
60
 70
0
 10
0.9
 20
-2.6336347319481392
 10
1.0432203389830508
 20
-2.690327965245188
 10
1.1864406779661016
 20
-2.735078866123468
 10
1.3296610169491525
 20
-2.770428639092647
 10
1.4728813559322034
 20
-2.7982489559102994
 10
1.6161016949152542
 20
-2.819976090504971
 10
1.759322033898305
 20
-2.836748991158132
 10
1.902542372881356
 20
-2.8494947692714794
 10
2.045762711864407
 20
-2.8589835410931066
 10
2.1889830508474577
 20
-2.8658644555949424
 10
2.3322033898305086
 20
-2.870689662599697
 10
2.4754237288135594
 20
-2.87393027531763
 10
2.61864406779661
 20
-2.8759868795627086
 10
2.7618644067796607
 20
-2.8771962737402603
 10
2.9050847457627116
 20
-2.8778356030712207
 10
3.0483050847457624
 20
-2.8781247253403954
 10
3.1915254237288133
 20
-2.8782274278934
 10
3.334745762711864
 20
-2.878251956877883
 10
3.477966101694915
 20
-2.878241344991997
 10
3.621186440677966
 20
-2.8781261351489427
 10
3.7644067796610168
 20
-2.8778292584753595
 10
3.9076271186440676
 20
-2.8772776402334452
 10
4.0508474576271185
 20
-2.8763976903100414
 10
4.194067796610169
 20
-2.8751151931366223
 10
4.33728813559322
 20
-2.8733551549619243
 10
4.480508474576271
 20
-2.8710416071727236
 10
4.623728813559322
 20
-2.8680973636014815
 10
4.766949152542373
 20
-2.8644437288250586
 10
4.910169491525424
 20
-2.8600001533136883
 10
5.053389830508475
 20
-2.8546838298882826
 10
5.196610169491525
 20
-2.8484092242243233
 10
5.339830508474576
 20
-2.841087530016569
 10
5.483050847457627
 20
-2.832626036774049
 10
5.626271186440678
 20
-2.822927394890537
 10
5.769491525423729
 20
-2.8118887584141308
 10
5.91271186440678
 20
-2.7994007805206254
 10
6.055932203389831
 20
-2.785346429661322
 10
6.1991525423728815
 20
-2.769599585119893
 10
6.342372881355932
 20
-2.7520233584401064
 10
6.485593220338983
 20
-2.7324680706742903
 10
6.628813559322034
 20
-2.710768792894253
 10
6.772033898305085
 20
-2.686742326294554
 10
6.915254237288136
 20
-2.6601834545663996
 10
7.058474576271187
 20
-2.630860238976665
 10
7.2016949152542376
 20
-2.5985080362523267
 10
7.344915254237288
 20
-2.5628217857036204
 10
7.488135593220339
 20
-2.523445909944988
 10
7.63135593220339
 20
-2.4799608606922625
 10
7.77457627118644
 20
-2.431864843486036
 10
7.917796610169491
 20
-2.378548439300091
 10
8.061016949152542
 20
-2.3192584560137917
 10
8.204237288135593
 20
-2.2530448954972595
 10
8.347457627118644
 20
-2.1786803902231004
 10
8.490677966101694
 20
-2.0945325908351355
 10
8.633898305084745
 20
-1.9983514066797363
 10
8.777118644067796
 20
-1.8868907186404507
 10
8.920338983050847
 20
-1.7551771796450126
 10
9.063559322033898
 20
-1.5949267993692908
 10
9.206779661016949
 20
-1.3904982322817983
 10
9.35
 20
-1.1053052846362446
  0
LWPOLYLINE
  5
B5
330
17
100
AcDbEntity
  8
ESTRUTURA
100
AcDbPolyline
 90
60
 70
0
 10
0.9
 20
2.6336347319481392
 10
1.0432203389830508
 20
2.690327965245188
 10
1.1864406779661016
 20
2.735078866123468
 10
1.3296610169491525
 20
2.770428639092647
 10
1.4728813559322034
 20
2.7982489559102994
 10
1.6161016949152542
 20
2.819976090504971
 10
1.759322033898305
 20
2.836748991158132
 10
1.902542372881356
 20
2.8494947692714794
 10
2.045762711864407
 20
2.8589835410931066
 10
2.1889830508474577
 20
2.8658644555949424
 10
2.3322033898305086
 20
2.870689662599697
 10
2.4754237288135594
 20
2.87393027531763
 10
2.61864406779661
 20
2.8759868795627086
 10
2.7618644067796607
 20
2.8771962737402603
 10
2.9050847457627116
 20
2.8778356030712207
 10
3.0483050847457624
 20
2.8781247253403954
 10
3.1915254237288133
 20
2.8782274278934
 10
3.334745762711864
 20
2.878251956877883
 10
3.477966101694915
 20
2.878241344991997
 10
3.621186440677966
 20
2.8781261351489427
 10
3.7644067796610168
 20
2.8778292584753595
 10
3.9076271186440676
 20
2.8772776402334452
 10
4.0508474576271185
 20
2.8763976903100414
 10
4.194067796610169
 20
2.8751151931366223
 10
4.33728813559322
 20
2.8733551549619243
 10
4.480508474576271
 20
2.8710416071727236
 10
4.623728813559322
 20
2.8680973636014815
 10
4.766949152542373
 20
2.8644437288250586
 10
4.910169491525424
 20
2.8600001533136883
 10
5.053389830508475
 20
2.8546838298882826
 10
5.196610169491525
 20
2.8484092242243233
 10
5.339830508474576
 20
2.841087530016569
 10
5.483050847457627
 20
2.832626036774049
 10
5.626271186440678
 20
2.822927394890537
 10
5.769491525423729
 20
2.8118887584141308
 10
5.91271186440678
 20
2.7994007805206254
 10
6.055932203389831
 20
2.785346429661322
 10
6.1991525423728815
 20
2.769599585119893
 10
6.342372881355932
 20
2.7520233584401064
 10
6.485593220338983
 20
2.7324680706742903
 10
6.628813559322034
 20
2.710768792894253
 10
6.772033898305085
 20
2.686742326294554
 10
6.915254237288136
 20
2.6601834545663996
 10
7.058474576271187
 20
2.630860238976665
 10
7.2016949152542376
 20
2.5985080362523267
 10
7.344915254237288
 20
2.5628217857036204
 10
7.488135593220339
 20
2.523445909944988
 10
7.63135593220339
 20
2.4799608606922625
 10
7.77457627118644
 20
2.431864843486036
 10
7.917796610169491
 20
2.378548439300091
 10
8.061016949152542
 20
2.3192584560137917
 10
8.204237288135593
 20
2.2530448954972595
 10
8.347457627118644
 20
2.1786803902231004
 10
8.490677966101694
 20
2.0945325908351355
 10
8.633898305084745
 20
1.9983514066797363
 10
8.777118644067796
 20
1.8868907186404507
 10
8.920338983050847
 20
1.7551771796450126
 10
9.063559322033898
 20
1.5949267993692908
 10
9.206779661016949
 20
1.3904982322817983
 10
9.35
 20
1.1053052846362446
  0
LWPOLYLINE
  5
B6
330
17
100
AcDbEntity
  8
ESTRUTURA
100
AcDbPolyline
 90
2
 70
0
 10
-3.7
 20
-2.6
 10
9.4
 20
-2.6
  0
LWPOLYLINE
  5
B7
330
17
100
AcDbEntity
  8
ESTRUTURA
100
AcDbPolyline
 90
2
 70
0
 10
-3.7
 20
-1.3
 10
9.4
 20
-1.3
  0
LWPOLYLINE
  5
B8
330
17
100
AcDbEntity
  8
ESTRUTURA
100
AcDbPolyline
 90
2
 70
0
 10
-3.7
 20
0.0
 10
9.4
 20
0.0
  0
LWPOLYLINE
  5
B9
330
17
100
AcDbEntity
  8
ESTRUTURA
100
AcDbPolyline
 90
2
 70
0
 10
-3.7
 20
1.3
 10
9.4
 20
1.3
  0
LWPOLYLINE
  5
BA
330
17
100
AcDbEntity
  8
ESTRUTURA
100
AcDbPolyline
 90
2
 70
0
 10
-3.7
 20
2.6
 10
9.4
 20
2.6
  0
CIRCLE
  5
BB
330
17
100
AcDbEntity
  8
FUNDACAO
100
AcDbCircle
 10
-3.3
 20
-2.6
 30
0.0
 40
0.15
  0
CIRCLE
  5
BC
330
17
100
AcDbEntity
  8
FUNDACAO
100
AcDbCircle
 10
-3.3
 20
-2.6
 30
0.0
 40
0.04
  0
TEXT
  5
BD
330
17
100
AcDbEntity
  8
TEXTO
100
AcDbText
 10
-3.0799999999999996
 20
-2.4
 30
0.0
 40
0.08
  1
F01
  7
ZION
 72
1
 11
-3.0799999999999996
 21
-2.4
 31
0.0
100
AcDbText
 73
2
  0
CIRCLE
  5
BE
330
17
100
AcDbEntity
  8
FUNDACAO
100
AcDbCircle
 10
-3.3
 20
-1.3
 30
0.0
 40
0.15
  0
CIRCLE
  5
BF
330
17
100
AcDbEntity
  8
FUNDACAO
100
AcDbCircle
 10
-3.3
 20
-1.3
 30
0.0
 40
0.04
  0
TEXT
  5
C0
330
17
100
AcDbEntity
  8
TEXTO
100
AcDbText
 10
-3.0799999999999996
 20
-1.1
 30
0.0
 40
0.08
  1
F02
  7
ZION
 72
1
 11
-3.0799999999999996
 21
-1.1
 31
0.0
100
AcDbText
 73
2
  0
CIRCLE
  5
C1
330
17
100
AcDbEntity
  8
FUNDACAO
100
AcDbCircle
 10
-3.3
 20
0.0
 30
0.0
 40
0.15
  0
CIRCLE
  5
C2
330
17
100
AcDbEntity
  8
FUNDACAO
100
AcDbCircle
 10
-3.3
 20
0.0
 30
0.0
 40
0.04
  0
TEXT
  5
C3
330
17
100
AcDbEntity
  8
TEXTO
100
AcDbText
 10
-3.0799999999999996
 20
0.2
 30
0.0
 40
0.08
  1
F03
  7
ZION
 72
1
 11
-3.0799999999999996
 21
0.2
 31
0.0
100
AcDbText
 73
2
  0
CIRCLE
  5
C4
330
17
100
AcDbEntity
  8
FUNDACAO
100
AcDbCircle
 10
-3.3
 20
1.3
 30
0.0
 40
0.15
  0
CIRCLE
  5
C5
330
17
100
AcDbEntity
  8
FUNDACAO
100
AcDbCircle
 10
-3.3
 20
1.3
 30
0.0
 40
0.04
  0
TEXT
  5
C6
330
17
100
AcDbEntity
  8
TEXTO
100
AcDbText
 10
-3.0799999999999996
 20
1.5
 30
0.0
 40
0.08
  1
F04
  7
ZION
 72
1
 11
-3.0799999999999996
 21
1.5
 31
0.0
100
AcDbText
 73
2
  0
CIRCLE
  5
C7
330
17
100
AcDbEntity
  8
FUNDACAO
100
AcDbCircle
 10
-3.3
 20
2.6
 30
0.0
 40
0.15
  0
CIRCLE
  5
C8
330
17
100
AcDbEntity
  8
FUNDACAO
100
AcDbCircle
 10
-3.3
 20
2.6
 30
0.0
 40
0.04
  0
TEXT
  5
C9
330
17
100
AcDbEntity
  8
TEXTO
100
AcDbText
 10
-3.0799999999999996
 20
2.8000000000000003
 30
0.0
 40
0.08
  1
F05
  7
ZION
 72
1
 11
-3.0799999999999996
 21
2.8000000000000003
 31
0.0
100
AcDbText
 73
2
  0
CIRCLE
  5
CA
330
17
100
AcDbEntity
  8
FUNDACAO
100
AcDbCircle
 10
-1.1
 20
-2.6
 30
0.0
 40
0.15
  0
CIRCLE
  5
CB
330
17
100
AcDbEntity
  8
FUNDACAO
100
AcDbCircle
 10
-1.1
 20
-2.6
 30
0.0
 40
0.04
  0
TEXT
  5
CC
330
17
100
AcDbEntity
  8
TEXTO
100
AcDbText
 10
-0.8800000000000001
 20
-2.4
 30
0.0
 40
0.08
  1
F06
  7
ZION
 72
1
 11
-0.8800000000000001
 21
-2.4
 31
0.0
100
AcDbText
 73
2
  0
CIRCLE
  5
CD
330
17
100
AcDbEntity
  8
FUNDACAO
100
AcDbCircle
 10
-1.1
 20
-1.3
 30
0.0
 40
0.15
  0
CIRCLE
  5
CE
330
17
100
AcDbEntity
  8
FUNDACAO
100
AcDbCircle
 10
-1.1
 20
-1.3
 30
0.0
 40
0.04
  0
TEXT
  5
CF
330
17
100
AcDbEntity
  8
TEXTO
100
AcDbText
 10
-0.8800000000000001
 20
-1.1
 30
0.0
 40
0.08
  1
F07
  7
ZION
 72
1
 11
-0.8800000000000001
 21
-1.1
 31
0.0
100
AcDbText
 73
2
  0
CIRCLE
  5
D0
330
17
100
AcDbEntity
  8
FUNDACAO
100
AcDbCircle
 10
-1.1
 20
0.0
 30
0.0
 40
0.15
  0
CIRCLE
  5
D1
330
17
100
AcDbEntity
  8
FUNDACAO
100
AcDbCircle
 10
-1.1
 20
0.0
 30
0.0
 40
0.04
  0
TEXT
  5
D2
330
17
100
AcDbEntity
  8
TEXTO
100
AcDbText
 10
-0.8800000000000001
 20
0.2
 30
0.0
 40
0.08
  1
F08
  7
ZION
 72
1
 11
-0.8800000000000001
 21
0.2
 31
0.0
100
AcDbText
 73
2
  0
CIRCLE
  5
D3
330
17
100
AcDbEntity
  8
FUNDACAO
100
AcDbCircle
 10
-1.1
 20
1.3
 30
0.0
 40
0.15
  0
CIRCLE
  5
D4
330
17
100
AcDbEntity
  8
FUNDACAO
100
AcDbCircle
 10
-1.1
 20
1.3
 30
0.0
 40
0.04
  0
TEXT
  5
D5
330
17
100
AcDbEntity
  8
TEXTO
100
AcDbText
 10
-0.8800000000000001
 20
1.5
 30
0.0
 40
0.08
  1
F09
  7
ZION
 72
1
 11
-0.8800000000000001
 21
1.5
 31
0.0
100
AcDbText
 73
2
  0
CIRCLE
  5
D6
330
17
100
AcDbEntity
  8
FUNDACAO
100
AcDbCircle
 10
-1.1
 20
2.6
 30
0.0
 40
0.15
  0
CIRCLE
  5
D7
330
17
100
AcDbEntity
  8
FUNDACAO
100
AcDbCircle
 10
-1.1
 20
2.6
 30
0.0
 40
0.04
  0
TEXT
  5
D8
330
17
100
AcDbEntity
  8
TEXTO
100
AcDbText
 10
-0.8800000000000001
 20
2.8000000000000003
 30
0.0
 40
0.08
  1
F10
  7
ZION
 72
1
 11
-0.8800000000000001
 21
2.8000000000000003
 31
0.0
100
AcDbText
 73
2
  0
CIRCLE
  5
D9
330
17
100
AcDbEntity
  8
FUNDACAO
100
AcDbCircle
 10
0.9
 20
-1.3
 30
0.0
 40
0.15
  0
CIRCLE
  5
DA
330
17
100
AcDbEntity
  8
FUNDACAO
100
AcDbCircle
 10
0.9
 20
-1.3
 30
0.0
 40
0.04
  0
TEXT
  5
DB
330
17
100
AcDbEntity
  8
TEXTO
100
AcDbText
 10
1.12
 20
-1.1
 30
0.0
 40
0.08
  1
F11
  7
ZION
 72
1
 11
1.12
 21
-1.1
 31
0.0
100
AcDbText
 73
2
  0
CIRCLE
  5
DC
330
17
100
AcDbEntity
  8
FUNDACAO
100
AcDbCircle
 10
0.9
 20
0.0
 30
0.0
 40
0.15
  0
CIRCLE
  5
DD
330
17
100
AcDbEntity
  8
FUNDACAO
100
AcDbCircle
 10
0.9
 20
0.0
 30
0.0
 40
0.04
  0
TEXT
  5
DE
330
17
100
AcDbEntity
  8
TEXTO
100
AcDbText
 10
1.12
 20
0.2
 30
0.0
 40
0.08
  1
F12
  7
ZION
 72
1
 11
1.12
 21
0.2
 31
0.0
100
AcDbText
 73
2
  0
CIRCLE
  5
DF
330
17
100
AcDbEntity
  8
FUNDACAO
100
AcDbCircle
 10
0.9
 20
1.3
 30
0.0
 40
0.15
  0
CIRCLE
  5
E0
330
17
100
AcDbEntity
  8
FUNDACAO
100
AcDbCircle
 10
0.9
 20
1.3
 30
0.0
 40
0.04
  0
TEXT
  5
E1
330
17
100
AcDbEntity
  8
TEXTO
100
AcDbText
 10
1.12
 20
1.5
 30
0.0
 40
0.08
  1
F13
  7
ZION
 72
1
 11
1.12
 21
1.5
 31
0.0
100
AcDbText
 73
2
  0
CIRCLE
  5
E2
330
17
100
AcDbEntity
  8
FUNDACAO
100
AcDbCircle
 10
2.1
 20
-2.6
 30
0.0
 40
0.15
  0
CIRCLE
  5
E3
330
17
100
AcDbEntity
  8
FUNDACAO
100
AcDbCircle
 10
2.1
 20
-2.6
 30
0.0
 40
0.04
  0
TEXT
  5
E4
330
17
100
AcDbEntity
  8
TEXTO
100
AcDbText
 10
2.3200000000000003
 20
-2.4
 30
0.0
 40
0.08
  1
F14
  7
ZION
 72
1
 11
2.3200000000000003
 21
-2.4
 31
0.0
100
AcDbText
 73
2
  0
CIRCLE
  5
E5
330
17
100
AcDbEntity
  8
FUNDACAO
100
AcDbCircle
 10
2.1
 20
-1.3
 30
0.0
 40
0.15
  0
CIRCLE
  5
E6
330
17
100
AcDbEntity
  8
FUNDACAO
100
AcDbCircle
 10
2.1
 20
-1.3
 30
0.0
 40
0.04
  0
TEXT
  5
E7
330
17
100
AcDbEntity
  8
TEXTO
100
AcDbText
 10
2.3200000000000003
 20
-1.1
 30
0.0
 40
0.08
  1
F15
  7
ZION
 72
1
 11
2.3200000000000003
 21
-1.1
 31
0.0
100
AcDbText
 73
2
  0
CIRCLE
  5
E8
330
17
100
AcDbEntity
  8
FUNDACAO
100
AcDbCircle
 10
2.1
 20
0.0
 30
0.0
 40
0.15
  0
CIRCLE
  5
E9
330
17
100
AcDbEntity
  8
FUNDACAO
100
AcDbCircle
 10
2.1
 20
0.0
 30
0.0
 40
0.04
  0
TEXT
  5
EA
330
17
100
AcDbEntity
  8
TEXTO
100
AcDbText
 10
2.3200000000000003
 20
0.2
 30
0.0
 40
0.08
  1
F16
  7
ZION
 72
1
 11
2.3200000000000003
 21
0.2
 31
0.0
100
AcDbText
 73
2
  0
CIRCLE
  5
EB
330
17
100
AcDbEntity
  8
FUNDACAO
100
AcDbCircle
 10
2.1
 20
1.3
 30
0.0
 40
0.15
  0
CIRCLE
  5
EC
330
17
100
AcDbEntity
  8
FUNDACAO
100
AcDbCircle
 10
2.1
 20
1.3
 30
0.0
 40
0.04
  0
TEXT
  5
ED
330
17
100
AcDbEntity
  8
TEXTO
100
AcDbText
 10
2.3200000000000003
 20
1.5
 30
0.0
 40
0.08
  1
F17
  7
ZION
 72
1
 11
2.3200000000000003
 21
1.5
 31
0.0
100
AcDbText
 73
2
  0
CIRCLE
  5
EE
330
17
100
AcDbEntity
  8
FUNDACAO
100
AcDbCircle
 10
2.1
 20
2.6
 30
0.0
 40
0.15
  0
CIRCLE
  5
EF
330
17
100
AcDbEntity
  8
FUNDACAO
100
AcDbCircle
 10
2.1
 20
2.6
 30
0.0
 40
0.04
  0
TEXT
  5
F0
330
17
100
AcDbEntity
  8
TEXTO
100
AcDbText
 10
2.3200000000000003
 20
2.8000000000000003
 30
0.0
 40
0.08
  1
F18
  7
ZION
 72
1
 11
2.3200000000000003
 21
2.8000000000000003
 31
0.0
100
AcDbText
 73
2
  0
CIRCLE
  5
F1
330
17
100
AcDbEntity
  8
FUNDACAO
100
AcDbCircle
 10
3.3
 20
-2.6
 30
0.0
 40
0.15
  0
CIRCLE
  5
F2
330
17
100
AcDbEntity
  8
FUNDACAO
100
AcDbCircle
 10
3.3
 20
-2.6
 30
0.0
 40
0.04
  0
TEXT
  5
F3
330
17
100
AcDbEntity
  8
TEXTO
100
AcDbText
 10
3.52
 20
-2.4
 30
0.0
 40
0.08
  1
F19
  7
ZION
 72
1
 11
3.52
 21
-2.4
 31
0.0
100
AcDbText
 73
2
  0
CIRCLE
  5
F4
330
17
100
AcDbEntity
  8
FUNDACAO
100
AcDbCircle
 10
3.3
 20
-1.3
 30
0.0
 40
0.15
  0
CIRCLE
  5
F5
330
17
100
AcDbEntity
  8
FUNDACAO
100
AcDbCircle
 10
3.3
 20
-1.3
 30
0.0
 40
0.04
  0
TEXT
  5
F6
330
17
100
AcDbEntity
  8
TEXTO
100
AcDbText
 10
3.52
 20
-1.1
 30
0.0
 40
0.08
  1
F20
  7
ZION
 72
1
 11
3.52
 21
-1.1
 31
0.0
100
AcDbText
 73
2
  0
CIRCLE
  5
F7
330
17
100
AcDbEntity
  8
FUNDACAO
100
AcDbCircle
 10
3.3
 20
0.0
 30
0.0
 40
0.15
  0
CIRCLE
  5
F8
330
17
100
AcDbEntity
  8
FUNDACAO
100
AcDbCircle
 10
3.3
 20
0.0
 30
0.0
 40
0.04
  0
TEXT
  5
F9
330
17
100
AcDbEntity
  8
TEXTO
100
AcDbText
 10
3.52
 20
0.2
 30
0.0
 40
0.08
  1
F21
  7
ZION
 72
1
 11
3.52
 21
0.2
 31
0.0
100
AcDbText
 73
2
  0
CIRCLE
  5
FA
330
17
100
AcDbEntity
  8
FUNDACAO
100
AcDbCircle
 10
3.3
 20
1.3
 30
0.0
 40
0.15
  0
CIRCLE
  5
FB
330
17
100
AcDbEntity
  8
FUNDACAO
100
AcDbCircle
 10
3.3
 20
1.3
 30
0.0
 40
0.04
  0
TEXT
  5
FC
330
17
100
AcDbEntity
  8
TEXTO
100
AcDbText
 10
3.52
 20
1.5
 30
0.0
 40
0.08
  1
F22
  7
ZION
 72
1
 11
3.52
 21
1.5
 31
0.0
100
AcDbText
 73
2
  0
CIRCLE
  5
FD
330
17
100
AcDbEntity
  8
FUNDACAO
100
AcDbCircle
 10
3.3
 20
2.6
 30
0.0
 40
0.15
  0
CIRCLE
  5
FE
330
17
100
AcDbEntity
  8
FUNDACAO
100
AcDbCircle
 10
3.3
 20
2.6
 30
0.0
 40
0.04
  0
TEXT
  5
FF
330
17
100
AcDbEntity
  8
TEXTO
100
AcDbText
 10
3.52
 20
2.8000000000000003
 30
0.0
 40
0.08
  1
F23
  7
ZION
 72
1
 11
3.52
 21
2.8000000000000003
 31
0.0
100
AcDbText
 73
2
  0
CIRCLE
  5
100
330
17
100
AcDbEntity
  8
FUNDACAO
100
AcDbCircle
 10
4.5
 20
-2.6
 30
0.0
 40
0.15
  0
CIRCLE
  5
101
330
17
100
AcDbEntity
  8
FUNDACAO
100
AcDbCircle
 10
4.5
 20
-2.6
 30
0.0
 40
0.04
  0
TEXT
  5
102
330
17
100
AcDbEntity
  8
TEXTO
100
AcDbText
 10
4.72
 20
-2.4
 30
0.0
 40
0.08
  1
F24
  7
ZION
 72
1
 11
4.72
 21
-2.4
 31
0.0
100
AcDbText
 73
2
  0
CIRCLE
  5
103
330
17
100
AcDbEntity
  8
FUNDACAO
100
AcDbCircle
 10
4.5
 20
-1.3
 30
0.0
 40
0.15
  0
CIRCLE
  5
104
330
17
100
AcDbEntity
  8
FUNDACAO
100
AcDbCircle
 10
4.5
 20
-1.3
 30
0.0
 40
0.04
  0
TEXT
  5
105
330
17
100
AcDbEntity
  8
TEXTO
100
AcDbText
 10
4.72
 20
-1.1
 30
0.0
 40
0.08
  1
F25
  7
ZION
 72
1
 11
4.72
 21
-1.1
 31
0.0
100
AcDbText
 73
2
  0
CIRCLE
  5
106
330
17
100
AcDbEntity
  8
FUNDACAO
100
AcDbCircle
 10
4.5
 20
0.0
 30
0.0
 40
0.15
  0
CIRCLE
  5
107
330
17
100
AcDbEntity
  8
FUNDACAO
100
AcDbCircle
 10
4.5
 20
0.0
 30
0.0
 40
0.04
  0
TEXT
  5
108
330
17
100
AcDbEntity
  8
TEXTO
100
AcDbText
 10
4.72
 20
0.2
 30
0.0
 40
0.08
  1
F26
  7
ZION
 72
1
 11
4.72
 21
0.2
 31
0.0
100
AcDbText
 73
2
  0
CIRCLE
  5
109
330
17
100
AcDbEntity
  8
FUNDACAO
100
AcDbCircle
 10
4.5
 20
1.3
 30
0.0
 40
0.15
  0
CIRCLE
  5
10A
330
17
100
AcDbEntity
  8
FUNDACAO
100
AcDbCircle
 10
4.5
 20
1.3
 30
0.0
 40
0.04
  0
TEXT
  5
10B
330
17
100
AcDbEntity
  8
TEXTO
100
AcDbText
 10
4.72
 20
1.5
 30
0.0
 40
0.08
  1
F27
  7
ZION
 72
1
 11
4.72
 21
1.5
 31
0.0
100
AcDbText
 73
2
  0
CIRCLE
  5
10C
330
17
100
AcDbEntity
  8
FUNDACAO
100
AcDbCircle
 10
4.5
 20
2.6
 30
0.0
 40
0.15
  0
CIRCLE
  5
10D
330
17
100
AcDbEntity
  8
FUNDACAO
100
AcDbCircle
 10
4.5
 20
2.6
 30
0.0
 40
0.04
  0
TEXT
  5
10E
330
17
100
AcDbEntity
  8
TEXTO
100
AcDbText
 10
4.72
 20
2.8000000000000003
 30
0.0
 40
0.08
  1
F28
  7
ZION
 72
1
 11
4.72
 21
2.8000000000000003
 31
0.0
100
AcDbText
 73
2
  0
CIRCLE
  5
10F
330
17
100
AcDbEntity
  8
FUNDACAO
100
AcDbCircle
 10
5.7
 20
-2.6
 30
0.0
 40
0.15
  0
CIRCLE
  5
110
330
17
100
AcDbEntity
  8
FUNDACAO
100
AcDbCircle
 10
5.7
 20
-2.6
 30
0.0
 40
0.04
  0
TEXT
  5
111
330
17
100
AcDbEntity
  8
TEXTO
100
AcDbText
 10
5.92
 20
-2.4
 30
0.0
 40
0.08
  1
F29
  7
ZION
 72
1
 11
5.92
 21
-2.4
 31
0.0
100
AcDbText
 73
2
  0
CIRCLE
  5
112
330
17
100
AcDbEntity
  8
FUNDACAO
100
AcDbCircle
 10
5.7
 20
-1.3
 30
0.0
 40
0.15
  0
CIRCLE
  5
113
330
17
100
AcDbEntity
  8
FUNDACAO
100
AcDbCircle
 10
5.7
 20
-1.3
 30
0.0
 40
0.04
  0
TEXT
  5
114
330
17
100
AcDbEntity
  8
TEXTO
100
AcDbText
 10
5.92
 20
-1.1
 30
0.0
 40
0.08
  1
F30
  7
ZION
 72
1
 11
5.92
 21
-1.1
 31
0.0
100
AcDbText
 73
2
  0
CIRCLE
  5
115
330
17
100
AcDbEntity
  8
FUNDACAO
100
AcDbCircle
 10
5.7
 20
0.0
 30
0.0
 40
0.15
  0
CIRCLE
  5
116
330
17
100
AcDbEntity
  8
FUNDACAO
100
AcDbCircle
 10
5.7
 20
0.0
 30
0.0
 40
0.04
  0
TEXT
  5
117
330
17
100
AcDbEntity
  8
TEXTO
100
AcDbText
 10
5.92
 20
0.2
 30
0.0
 40
0.08
  1
F31
  7
ZION
 72
1
 11
5.92
 21
0.2
 31
0.0
100
AcDbText
 73
2
  0
CIRCLE
  5
118
330
17
100
AcDbEntity
  8
FUNDACAO
100
AcDbCircle
 10
5.7
 20
1.3
 30
0.0
 40
0.15
  0
CIRCLE
  5
119
330
17
100
AcDbEntity
  8
FUNDACAO
100
AcDbCircle
 10
5.7
 20
1.3
 30
0.0
 40
0.04
  0
TEXT
  5
11A
330
17
100
AcDbEntity
  8
TEXTO
100
AcDbText
 10
5.92
 20
1.5
 30
0.0
 40
0.08
  1
F32
  7
ZION
 72
1
 11
5.92
 21
1.5
 31
0.0
100
AcDbText
 73
2
  0
CIRCLE
  5
11B
330
17
100
AcDbEntity
  8
FUNDACAO
100
AcDbCircle
 10
5.7
 20
2.6
 30
0.0
 40
0.15
  0
CIRCLE
  5
11C
330
17
100
AcDbEntity
  8
FUNDACAO
100
AcDbCircle
 10
5.7
 20
2.6
 30
0.0
 40
0.04
  0
TEXT
  5
11D
330
17
100
AcDbEntity
  8
TEXTO
100
AcDbText
 10
5.92
 20
2.8000000000000003
 30
0.0
 40
0.08
  1
F33
  7
ZION
 72
1
 11
5.92
 21
2.8000000000000003
 31
0.0
100
AcDbText
 73
2
  0
CIRCLE
  5
11E
330
17
100
AcDbEntity
  8
FUNDACAO
100
AcDbCircle
 10
6.9
 20
-2.6
 30
0.0
 40
0.15
  0
CIRCLE
  5
11F
330
17
100
AcDbEntity
  8
FUNDACAO
100
AcDbCircle
 10
6.9
 20
-2.6
 30
0.0
 40
0.04
  0
TEXT
  5
120
330
17
100
AcDbEntity
  8
TEXTO
100
AcDbText
 10
7.12
 20
-2.4
 30
0.0
 40
0.08
  1
F34
  7
ZION
 72
1
 11
7.12
 21
-2.4
 31
0.0
100
AcDbText
 73
2
  0
CIRCLE
  5
121
330
17
100
AcDbEntity
  8
FUNDACAO
100
AcDbCircle
 10
6.9
 20
-1.3
 30
0.0
 40
0.15
  0
CIRCLE
  5
122
330
17
100
AcDbEntity
  8
FUNDACAO
100
AcDbCircle
 10
6.9
 20
-1.3
 30
0.0
 40
0.04
  0
TEXT
  5
123
330
17
100
AcDbEntity
  8
TEXTO
100
AcDbText
 10
7.12
 20
-1.1
 30
0.0
 40
0.08
  1
F35
  7
ZION
 72
1
 11
7.12
 21
-1.1
 31
0.0
100
AcDbText
 73
2
  0
CIRCLE
  5
124
330
17
100
AcDbEntity
  8
FUNDACAO
100
AcDbCircle
 10
6.9
 20
0.0
 30
0.0
 40
0.15
  0
CIRCLE
  5
125
330
17
100
AcDbEntity
  8
FUNDACAO
100
AcDbCircle
 10
6.9
 20
0.0
 30
0.0
 40
0.04
  0
TEXT
  5
126
330
17
100
AcDbEntity
  8
TEXTO
100
AcDbText
 10
7.12
 20
0.2
 30
0.0
 40
0.08
  1
F36
  7
ZION
 72
1
 11
7.12
 21
0.2
 31
0.0
100
AcDbText
 73
2
  0
CIRCLE
  5
127
330
17
100
AcDbEntity
  8
FUNDACAO
100
AcDbCircle
 10
6.9
 20
1.3
 30
0.0
 40
0.15
  0
CIRCLE
  5
128
330
17
100
AcDbEntity
  8
FUNDACAO
100
AcDbCircle
 10
6.9
 20
1.3
 30
0.0
 40
0.04
  0
TEXT
  5
129
330
17
100
AcDbEntity
  8
TEXTO
100
AcDbText
 10
7.12
 20
1.5
 30
0.0
 40
0.08
  1
F37
  7
ZION
 72
1
 11
7.12
 21
1.5
 31
0.0
100
AcDbText
 73
2
  0
CIRCLE
  5
12A
330
17
100
AcDbEntity
  8
FUNDACAO
100
AcDbCircle
 10
6.9
 20
2.6
 30
0.0
 40
0.15
  0
CIRCLE
  5
12B
330
17
100
AcDbEntity
  8
FUNDACAO
100
AcDbCircle
 10
6.9
 20
2.6
 30
0.0
 40
0.04
  0
TEXT
  5
12C
330
17
100
AcDbEntity
  8
TEXTO
100
AcDbText
 10
7.12
 20
2.8000000000000003
 30
0.0
 40
0.08
  1
F38
  7
ZION
 72
1
 11
7.12
 21
2.8000000000000003
 31
0.0
100
AcDbText
 73
2
  0
CIRCLE
  5
12D
330
17
100
AcDbEntity
  8
FUNDACAO
100
AcDbCircle
 10
8.1
 20
-1.3
 30
0.0
 40
0.15
  0
CIRCLE
  5
12E
330
17
100
AcDbEntity
  8
FUNDACAO
100
AcDbCircle
 10
8.1
 20
-1.3
 30
0.0
 40
0.04
  0
TEXT
  5
12F
330
17
100
AcDbEntity
  8
TEXTO
100
AcDbText
 10
8.32
 20
-1.1
 30
0.0
 40
0.08
  1
F39
  7
ZION
 72
1
 11
8.32
 21
-1.1
 31
0.0
100
AcDbText
 73
2
  0
CIRCLE
  5
130
330
17
100
AcDbEntity
  8
FUNDACAO
100
AcDbCircle
 10
8.1
 20
0.0
 30
0.0
 40
0.15
  0
CIRCLE
  5
131
330
17
100
AcDbEntity
  8
FUNDACAO
100
AcDbCircle
 10
8.1
 20
0.0
 30
0.0
 40
0.04
  0
TEXT
  5
132
330
17
100
AcDbEntity
  8
TEXTO
100
AcDbText
 10
8.32
 20
0.2
 30
0.0
 40
0.08
  1
F40
  7
ZION
 72
1
 11
8.32
 21
0.2
 31
0.0
100
AcDbText
 73
2
  0
CIRCLE
  5
133
330
17
100
AcDbEntity
  8
FUNDACAO
100
AcDbCircle
 10
8.1
 20
1.3
 30
0.0
 40
0.15
  0
CIRCLE
  5
134
330
17
100
AcDbEntity
  8
FUNDACAO
100
AcDbCircle
 10
8.1
 20
1.3
 30
0.0
 40
0.04
  0
TEXT
  5
135
330
17
100
AcDbEntity
  8
TEXTO
100
AcDbText
 10
8.32
 20
1.5
 30
0.0
 40
0.08
  1
F41
  7
ZION
 72
1
 11
8.32
 21
1.5
 31
0.0
100
AcDbText
 73
2
  0
CIRCLE
  5
136
330
17
100
AcDbEntity
  8
FUNDACAO
100
AcDbCircle
 10
9.0
 20
-1.3
 30
0.0
 40
0.15
  0
CIRCLE
  5
137
330
17
100
AcDbEntity
  8
FUNDACAO
100
AcDbCircle
 10
9.0
 20
-1.3
 30
0.0
 40
0.04
  0
TEXT
  5
138
330
17
100
AcDbEntity
  8
TEXTO
100
AcDbText
 10
9.22
 20
-1.1
 30
0.0
 40
0.08
  1
F42
  7
ZION
 72
1
 11
9.22
 21
-1.1
 31
0.0
100
AcDbText
 73
2
  0
CIRCLE
  5
139
330
17
100
AcDbEntity
  8
FUNDACAO
100
AcDbCircle
 10
9.0
 20
0.0
 30
0.0
 40
0.15
  0
CIRCLE
  5
13A
330
17
100
AcDbEntity
  8
FUNDACAO
100
AcDbCircle
 10
9.0
 20
0.0
 30
0.0
 40
0.04
  0
TEXT
  5
13B
330
17
100
AcDbEntity
  8
TEXTO
100
AcDbText
 10
9.22
 20
0.2
 30
0.0
 40
0.08
  1
F43
  7
ZION
 72
1
 11
9.22
 21
0.2
 31
0.0
100
AcDbText
 73
2
  0
CIRCLE
  5
13C
330
17
100
AcDbEntity
  8
FUNDACAO
100
AcDbCircle
 10
9.0
 20
1.3
 30
0.0
 40
0.15
  0
CIRCLE
  5
13D
330
17
100
AcDbEntity
  8
FUNDACAO
100
AcDbCircle
 10
9.0
 20
1.3
 30
0.0
 40
0.04
  0
TEXT
  5
13E
330
17
100
AcDbEntity
  8
TEXTO
100
AcDbText
 10
9.22
 20
1.5
 30
0.0
 40
0.08
  1
F44
  7
ZION
 72
1
 11
9.22
 21
1.5
 31
0.0
100
AcDbText
 73
2
  0
TEXT
  5
13F
330
17
100
AcDbEntity
  8
TEXTO
100
AcDbText
 10
3.0
 20
-4.3
 30
0.0
 40
0.16
  1
44 estacas helicoidais Ø76 · hélice Ø300 · malha 1,20 x 1,30 m (pré-dimensionamento)
  7
ZION
 72
1
 11
3.0
 21
-4.3
 31
0.0
100
AcDbText
 73
2
  0
HATCH
  5
140
330
17
100
AcDbEntity
  8
TEXTO
 62
7
100
AcDbHatch
 10
0.0
 20
0.0
 30
0.0
210
0.0
220
0.0
230
1.0
  2
SOLID
 70
1
 71
0
 91
1
 92
3
 72
0
 73
1
 93
6
 10
-4.65
 20
5.95
 10
-3.95
 20
5.95
 10
-3.95
 20
5.8625
 10
-3.9962000000000004
 20
5.8625
 10
-4.1313
 20
5.7715
 10
-4.65
 20
5.7715
 97
0
 75
0
 76
1
 98
0
  0
LWPOLYLINE
  5
141
330
17
100
AcDbEntity
  8
TEXTO
100
AcDbPolyline
 90
6
 70
1
 10
-4.65
 20
5.95
 10
-3.95
 20
5.95
 10
-3.95
 20
5.8625
 10
-3.9962000000000004
 20
5.8625
 10
-4.1313
 20
5.7715
 10
-4.65
 20
5.7715
  0
HATCH
  5
142
330
17
100
AcDbEntity
  8
TEXTO
 62
7
100
AcDbHatch
 10
0.0
 20
0.0
 30
0.0
210
0.0
220
0.0
230
1.0
  2
SOLID
 70
1
 71
0
 91
1
 92
3
 72
0
 73
1
 93
6
 10
-4.1313
 20
5.7715
 10
-3.95
 20
5.7715
 10
-3.95
 20
5.5111
 10
-4.304200000000001
 20
5.5111
 10
-4.4316
 20
5.425
 10
-4.65
 20
5.425
 97
0
 75
0
 76
1
 98
0
  0
LWPOLYLINE
  5
143
330
17
100
AcDbEntity
  8
TEXTO
100
AcDbPolyline
 90
6
 70
1
 10
-4.1313
 20
5.7715
 10
-3.95
 20
5.7715
 10
-3.95
 20
5.5111
 10
-4.304200000000001
 20
5.5111
 10
-4.4316
 20
5.425
 10
-4.65
 20
5.425
  0
HATCH
  5
144
330
17
100
AcDbEntity
  8
TEXTO
 62
7
100
AcDbHatch
 10
0.0
 20
0.0
 30
0.0
210
0.0
220
0.0
230
1.0
  2
SOLID
 70
1
 71
0
 91
1
 92
3
 72
0
 73
1
 93
5
 10
-4.65
 20
5.3361
 10
-4.128500000000001
 20
5.3361
 10
-3.95
 20
5.4677
 10
-3.95
 20
5.25
 10
-4.65
 20
5.25
 97
0
 75
0
 76
1
 98
0
  0
LWPOLYLINE
  5
145
330
17
100
AcDbEntity
  8
TEXTO
100
AcDbPolyline
 90
5
 70
1
 10
-4.65
 20
5.3361
 10
-4.128500000000001
 20
5.3361
 10
-3.95
 20
5.4677
 10
-3.95
 20
5.25
 10
-4.65
 20
5.25
  0
HATCH
  5
146
330
17
100
AcDbEntity
  8
TEXTO
 62
7
100
AcDbHatch
 10
0.0
 20
0.0
 30
0.0
210
0.0
220
0.0
230
1.0
  2
SOLID
 70
1
 71
0
 91
1
 92
3
 72
0
 73
1
 93
10
 10
-6.203125000000001
 20
5.55
 10
-5.950000000000001
 20
5.55
 10
-5.950000000000001
 20
5.503125
 10
-6.24375
 20
5.296875
 10
-5.953125000000001
 20
5.296875
 10
-5.953125000000001
 20
5.253125
 10
-6.300000000000001
 20
5.253125
 10
-6.300000000000001
 20
5.30625
 10
-6.018750000000001
 20
5.503125
 10
-6.203125000000001
 20
5.503125
 97
0
 75
0
 76
1
 98
0
  0
LWPOLYLINE
  5
147
330
17
100
AcDbEntity
  8
TEXTO
100
AcDbPolyline
 90
10
 70
1
 10
-6.203125000000001
 20
5.55
 10
-5.950000000000001
 20
5.55
 10
-5.950000000000001
 20
5.503125
 10
-6.24375
 20
5.296875
 10
-5.953125000000001
 20
5.296875
 10
-5.953125000000001
 20
5.253125
 10
-6.300000000000001
 20
5.253125
 10
-6.300000000000001
 20
5.30625
 10
-6.018750000000001
 20
5.503125
 10
-6.203125000000001
 20
5.503125
  0
HATCH
  5
148
330
17
100
AcDbEntity
  8
TEXTO
 62
7
100
AcDbHatch
 10
0.0
 20
0.0
 30
0.0
210
0.0
220
0.0
230
1.0
  2
SOLID
 70
1
 71
0
 91
1
 92
3
 72
0
 73
1
 93
4
 10
-5.9
 20
5.55
 10
-5.853125
 20
5.55
 10
-5.853125
 20
5.253125
 10
-5.9
 20
5.253125
 97
0
 75
0
 76
1
 98
0
  0
LWPOLYLINE
  5
149
330
17
100
AcDbEntity
  8
TEXTO
100
AcDbPolyline
 90
4
 70
1
 10
-5.9
 20
5.55
 10
-5.853125
 20
5.55
 10
-5.853125
 20
5.253125
 10
-5.9
 20
5.253125
  0
HATCH
  5
14A
330
17
100
AcDbEntity
  8
TEXTO
 62
7
100
AcDbHatch
 10
0.0
 20
0.0
 30
0.0
210
0.0
220
0.0
230
1.0
  2
SOLID
 70
1
 71
0
 91
1
 92
3
 72
0
 73
1
 93
4
 10
-5.471875000000001
 20
5.55
 10
-5.4281250000000005
 20
5.55
 10
-5.4281250000000005
 20
5.253125
 10
-5.471875000000001
 20
5.253125
 97
0
 75
0
 76
1
 98
0
  0
LWPOLYLINE
  5
14B
330
17
100
AcDbEntity
  8
TEXTO
100
AcDbPolyline
 90
4
 70
1
 10
-5.471875000000001
 20
5.55
 10
-5.4281250000000005
 20
5.55
 10
-5.4281250000000005
 20
5.253125
 10
-5.471875000000001
 20
5.253125
  0
HATCH
  5
14C
330
17
100
AcDbEntity
  8
TEXTO
 62
7
100
AcDbHatch
 10
0.0
 20
0.0
 30
0.0
210
0.0
220
0.0
230
1.0
  2
SOLID
 70
1
 71
0
 91
1
 92
3
 72
0
 73
1
 93
4
 10
-5.4593750000000005
 20
5.55
 10
-5.393750000000001
 20
5.55
 10
-5.106250000000001
 20
5.253125
 10
-5.1781250000000005
 20
5.253125
 97
0
 75
0
 76
1
 98
0
  0
LWPOLYLINE
  5
14D
330
17
100
AcDbEntity
  8
TEXTO
100
AcDbPolyline
 90
4
 70
1
 10
-5.4593750000000005
 20
5.55
 10
-5.393750000000001
 20
5.55
 10
-5.106250000000001
 20
5.253125
 10
-5.1781250000000005
 20
5.253125
  0
HATCH
  5
14E
330
17
100
AcDbEntity
  8
TEXTO
 62
7
100
AcDbHatch
 10
0.0
 20
0.0
 30
0.0
210
0.0
220
0.0
230
1.0
  2
SOLID
 70
1
 71
0
 91
1
 92
3
 72
0
 73
1
 93
4
 10
-5.143750000000001
 20
5.465625
 10
-5.096875000000001
 20
5.465625
 10
-5.096875000000001
 20
5.253125
 10
-5.143750000000001
 20
5.253125
 97
0
 75
0
 76
1
 98
0
  0
LWPOLYLINE
  5
14F
330
17
100
AcDbEntity
  8
TEXTO
100
AcDbPolyline
 90
4
 70
1
 10
-5.143750000000001
 20
5.465625
 10
-5.096875000000001
 20
5.465625
 10
-5.096875000000001
 20
5.253125
 10
-5.143750000000001
 20
5.253125
  0
HATCH
  5
150
330
17
100
AcDbEntity
  8
TEXTO
 62
7
100
AcDbHatch
 10
0.0
 20
0.0
 30
0.0
210
0.0
220
0.0
230
1.0
  2
SOLID
 70
1
 71
0
 91
2
 92
1
 93
1
 72
2
 10
-5.6625000000000005
 20
5.4015625
 40
0.1484375
 50
0
 51
360
 73
1
 97
0
 92
1
 93
1
 72
2
 10
-5.6625000000000005
 20
5.4015625
 40
0.09999999999999999
 50
0
 51
360
 73
1
 97
0
 75
0
 76
1
 98
0
  0
CIRCLE
  5
151
330
17
100
AcDbEntity
  8
TEXTO
100
AcDbCircle
 10
-5.6625000000000005
 20
5.4015625
 30
0.0
 40
0.1484375
  0
CIRCLE
  5
152
330
17
100
AcDbEntity
  8
TEXTO
100
AcDbCircle
 10
-5.6625000000000005
 20
5.4015625
 30
0.0
 40
0.09999999999999999
  0
TEXT
  5
153
330
17
100
AcDbEntity
  8
TEXTO
100
AcDbText
 10
-5.2
 20
5.3999999999999995
 30
0.0
 40
0.09
  1
HOTEL GROUP
  7
ZION
 11
-5.2
 21
5.3999999999999995
 31
0.0
100
AcDbText
 73
2
  0
TEXT
  5
154
330
17
100
AcDbEntity
  8
TEXTO
100
AcDbText
 10
-5.2
 20
5.279999999999999
 30
0.0
 40
0.09
  1
INTERNATIONAL
  7
ZION
 11
-5.2
 21
5.279999999999999
 31
0.0
100
AcDbText
 73
2
  0
TEXT
  5
155
330
17
100
AcDbEntity
  8
TEXTO
100
AcDbText
 10
-3.7
 20
5.6
 30
0.0
 40
0.35
  1
ZION CASULO · PLANTA ESTRUTURAL (arcos, terças, trilhos, vigas de piso, estacas) · 1:50
  7
ZION
 11
-3.7
 21
5.6
 31
0.0
100
AcDbText
 73
2
  0
TEXT
  5
156
330
17
100
AcDbEntity
  8
TEXTO
100
AcDbText
 10
-3.7
 20
5.279999999999999
 30
0.0
 40
0.13
  1
ZION GLAMPING COLLECTION · ZION HOTEL GROUP INTERNATIONAL
  7
ZION
 11
-3.7
 21
5.279999999999999
 31
0.0
100
AcDbText
 73
2
  0
ENDSEC
  0
SECTION
  2
OBJECTS
  0
DICTIONARY
  5
A
330
0
100
AcDbDictionary
281
1
  3
ACAD_COLOR
350
B
  3
ACAD_GROUP
350
C
  3
ACAD_LAYOUT
350
D
  3
ACAD_MATERIAL
350
E
  3
ACAD_MLEADERSTYLE
350
F
  3
ACAD_MLINESTYLE
350
10
  3
ACAD_PLOTSETTINGS
350
11
  3
ACAD_PLOTSTYLENAME
350
12
  3
ACAD_SCALELIST
350
14
  3
ACAD_TABLESTYLE
350
15
  3
ACAD_VISUALSTYLE
350
16
  3
EZDXF_META
350
2D
  0
DICTIONARY
  5
B
330
A
100
AcDbDictionary
281
1
  0
DICTIONARY
  5
C
330
A
100
AcDbDictionary
281
1
  0
DICTIONARY
  5
D
330
A
100
AcDbDictionary
281
1
  3
Model
350
1A
  3
Layout1
350
1E
  0
DICTIONARY
  5
E
330
A
100
AcDbDictionary
281
1
  3
ByBlock
350
1F
  3
ByLayer
350
20
  3
Global
350
21
  0
DICTIONARY
  5
F
330
A
100
AcDbDictionary
281
1
  3
Standard
350
2C
  0
DICTIONARY
  5
10
330
A
100
AcDbDictionary
281
1
  3
Standard
350
22
  0
DICTIONARY
  5
11
330
A
100
AcDbDictionary
281
1
  0
ACDBDICTIONARYWDFLT
  5
12
330
A
100
AcDbDictionary
281
1
  3
Normal
350
13
100
AcDbDictionaryWithDefault
340
13
  0
ACDBPLACEHOLDER
  5
13
330
12
  0
DICTIONARY
  5
14
330
A
100
AcDbDictionary
281
1
  0
DICTIONARY
  5
15
330
A
100
AcDbDictionary
281
1
  0
DICTIONARY
  5
16
330
A
100
AcDbDictionary
281
1
  3
2dWireframe
350
5A
  3
Basic
350
5B
  3
Brighten
350
5C
  3
ColorChange
350
5D
  3
Conceptual
350
5E
  3
Dim
350
5F
  3
EdgeColorOff
350
60
  3
Facepattern
350
61
  3
Flat
350
62
  3
FlatWithEdges
350
63
  3
Gouraud
350
64
  3
GouraudWithEdges
350
65
  3
Hidden
350
66
  3
JitterOff
350
67
  3
Linepattern
350
68
  3
Modeling
350
69
  3
OverhangOff
350
6A
  3
Realistic
350
6B
  3
Shaded
350
6C
  3
Shaded with edges
350
6D
  3
Shades of Gray
350
6E
  3
Sketchy
350
6F
  3
Thicken
350
70
  3
Wireframe
350
71
  3
X-Ray
350
72
  0
LAYOUT
  5
1A
330
D
100
AcDbPlotSettings
  1

  4
A3
  6

 40
7.5
 41
20.0
 42
7.5
 43
20.0
 44
420.0
 45
297.0
 46
0.0
 47
0.0
 48
0.0
 49
0.0
140
0.0
141
0.0
142
1.0
143
1.0
 70
1024
 72
1
 73
0
 74
5
  7

 75
16
 76
0
 77
2
 78
300
147
1.0
148
0.0
149
0.0
100
AcDbLayout
  1
Model
 70
1
 71
0
 10
0.0
 20
0.0
 11
420.0
 21
297.0
 12
0.0
 22
0.0
 32
0.0
 14
1e+20
 24
1e+20
 34
1e+20
 15
-1e+20
 25
-1e+20
 35
-1e+20
146
0.0
 13
0.0
 23
0.0
 33
0.0
 16
1.0
 26
0.0
 36
0.0
 17
0.0
 27
1.0
 37
0.0
 76
1
330
17
  0
LAYOUT
  5
1E
330
D
100
AcDbPlotSettings
  1

  4
A3
  6

 40
7.5
 41
20.0
 42
7.5
 43
20.0
 44
420.0
 45
297.0
 46
0.0
 47
0.0
 48
0.0
 49
0.0
140
0.0
141
0.0
142
1.0
143
1.0
 70
0
 72
1
 73
0
 74
5
  7

 75
16
 76
0
 77
2
 78
300
147
1.0
148
0.0
149
0.0
100
AcDbLayout
  1
Layout1
 70
1
 71
1
 10
0.0
 20
0.0
 11
420.0
 21
297.0
 12
0.0
 22
0.0
 32
0.0
 14
1e+20
 24
1e+20
 34
1e+20
 15
-1e+20
 25
-1e+20
 35
-1e+20
146
0.0
 13
0.0
 23
0.0
 33
0.0
 16
1.0
 26
0.0
 36
0.0
 17
0.0
 27
1.0
 37
0.0
 76
1
330
1B
  0
MATERIAL
  5
1F
102
{ACAD_REACTORS
330
E
102
}
330
E
100
AcDbMaterial
  1
ByBlock
  2

 70
0
 40
1.0
 71
1
 41
1.0
 91
-1023410177
 42
1.0
 72
1
  3

 73
1
 74
1
 75
1
 44
0.5
 73
0
 45
1.0
 46
1.0
 77
1
  4

 78
1
 79
1
170
1
 48
1.0
171
1
  6

172
1
173
1
174
1
140
1.0
141
1.0
175
1
  7

176
1
177
1
178
1
143
1.0
179
1
  8

270
1
271
1
272
1
145
1.0
146
1.0
273
1
  9

274
1
275
1
276
1
 42
1.0
 72
1
  3

 73
1
 74
1
 75
1
 94
63
  0
MATERIAL
  5
20
102
{ACAD_REACTORS
330
E
102
}
330
E
100
AcDbMaterial
  1
ByLayer
  2

 70
0
 40
1.0
 71
1
 41
1.0
 91
-1023410177
 42
1.0
 72
1
  3

 73
1
 74
1
 75
1
 44
0.5
 73
0
 45
1.0
 46
1.0
 77
1
  4

 78
1
 79
1
170
1
 48
1.0
171
1
  6

172
1
173
1
174
1
140
1.0
141
1.0
175
1
  7

176
1
177
1
178
1
143
1.0
179
1
  8

270
1
271
1
272
1
145
1.0
146
1.0
273
1
  9

274
1
275
1
276
1
 42
1.0
 72
1
  3

 73
1
 74
1
 75
1
 94
63
  0
MATERIAL
  5
21
102
{ACAD_REACTORS
330
E
102
}
330
E
100
AcDbMaterial
  1
Global
  2

 70
0
 40
1.0
 71
1
 41
1.0
 91
-1023410177
 42
1.0
 72
1
  3

 73
1
 74
1
 75
1
 44
0.5
 73
0
 45
1.0
 46
1.0
 77
1
  4

 78
1
 79
1
170
1
 48
1.0
171
1
  6

172
1
173
1
174
1
140
1.0
141
1.0
175
1
  7

176
1
177
1
178
1
143
1.0
179
1
  8

270
1
271
1
272
1
145
1.0
146
1.0
273
1
  9

274
1
275
1
276
1
 42
1.0
 72
1
  3

 73
1
 74
1
 75
1
 94
63
  0
MLINESTYLE
  5
22
102
{ACAD_REACTORS
330
10
102
}
330
10
100
AcDbMlineStyle
  2
Standard
 70
0
  3

 62
256
 51
90.0
 52
90.0
 71
2
 49
0.5
 62
256
  6
BYLAYER
 49
-0.5
 62
256
  6
BYLAYER
  0
MLEADERSTYLE
  5
2C
102
{ACAD_REACTORS
330
F
102
}
330
F
100
AcDbMLeaderStyle
179
2
170
2
171
1
172
0
 90
2
 40
0.0
 41
0.0
173
1
 91
-1056964608
 92
-2
290
1
 42
2.0
291
1
 43
8.0
  3
Standard
 44
4.0
300

342
29
174
1
175
1
176
0
178
1
 93
-1056964608
 45
4.0
292
0
297
0
 46
4.0
 94
-1056964608
 47
1.0
 49
1.0
140
1.0
294
1
141
0.0
177
0
142
1.0
295
0
296
0
143
3.75
271
0
272
9
273
9
  0
DICTIONARY
  5
2D
330
A
100
AcDbDictionary
280
1
281
1
  3
CREATED_BY_EZDXF
350
2E
  3
WRITTEN_BY_EZDXF
350
159
  0
DICTIONARYVAR
  5
2E
330
2D
100
DictionaryVariables
280
0
  1
1.4.4 @ 2026-09-17T15:41:26.734242+00:00
  0
VISUALSTYLE
  5
5A
102
{ACAD_REACTORS
330
16
102
}
330
16
100
AcDbVisualStyle
  2
2dWireframe
 70
4
 90
0
 40
0.6
 62
7
290
0
291
0
  0
VISUALSTYLE
  5
5B
102
{ACAD_REACTORS
330
16
102
}
330
16
100
AcDbVisualStyle
  2
Basic
 70
7
 90
1
 40
0.6
 62
7
290
0
291
1
  0
VISUALSTYLE
  5
5C
102
{ACAD_REACTORS
330
16
102
}
330
16
100
AcDbVisualStyle
  2
Brighten
 70
12
 90
2
 40
0.6
 62
7
290
0
291
1
  0
VISUALSTYLE
  5
5D
102
{ACAD_REACTORS
330
16
102
}
330
16
100
AcDbVisualStyle
  2
ColorChange
 70
16
 90
2
 40
0.6
 62
8
290
0
291
1
  0
VISUALSTYLE
  5
5E
102
{ACAD_REACTORS
330
16
102
}
330
16
100
AcDbVisualStyle
  2
Conceptual
 70
9
 90
3
 40
0.6
 62
7
290
0
291
0
  0
VISUALSTYLE
  5
5F
102
{ACAD_REACTORS
330
16
102
}
330
16
100
AcDbVisualStyle
  2
Dim
 70
11
 90
2
 40
0.6
 62
7
290
0
291
1
  0
VISUALSTYLE
  5
60
102
{ACAD_REACTORS
330
16
102
}
330
16
100
AcDbVisualStyle
  2
EdgeColorOff
 70
22
 90
2
 40
0.6
 62
7
290
0
291
1
  0
VISUALSTYLE
  5
61
102
{ACAD_REACTORS
330
16
102
}
330
16
100
AcDbVisualStyle
  2
Facepattern
 70
15
 90
2
 40
0.6
 62
7
290
0
291
1
  0
VISUALSTYLE
  5
62
102
{ACAD_REACTORS
330
16
102
}
330
16
100
AcDbVisualStyle
  2
Flat
 70
0
 90
2
 40
0.6
 62
7
290
0
291
1
  0
VISUALSTYLE
  5
63
102
{ACAD_REACTORS
330
16
102
}
330
16
100
AcDbVisualStyle
  2
FlatWithEdges
 70
1
 90
2
 40
0.6
 62
7
290
0
291
1
  0
VISUALSTYLE
  5
64
102
{ACAD_REACTORS
330
16
102
}
330
16
100
AcDbVisualStyle
  2
Gouraud
 70
2
 90
2
 40
0.6
 62
7
290
0
291
1
  0
VISUALSTYLE
  5
65
102
{ACAD_REACTORS
330
16
102
}
330
16
100
AcDbVisualStyle
  2
GouraudWithEdges
 70
3
 90
2
 40
0.6
 62
7
290
0
291
1
  0
VISUALSTYLE
  5
66
102
{ACAD_REACTORS
330
16
102
}
330
16
100
AcDbVisualStyle
  2
Hidden
 70
6
 90
1
 40
0.6
 62
7
290
0
291
0
  0
VISUALSTYLE
  5
67
102
{ACAD_REACTORS
330
16
102
}
330
16
100
AcDbVisualStyle
  2
JitterOff
 70
20
 90
2
 40
0.6
 62
7
290
0
291
1
  0
VISUALSTYLE
  5
68
102
{ACAD_REACTORS
330
16
102
}
330
16
100
AcDbVisualStyle
  2
Linepattern
 70
14
 90
2
 40
0.6
 62
7
290
0
291
1
  0
VISUALSTYLE
  5
69
102
{ACAD_REACTORS
330
16
102
}
330
16
100
AcDbVisualStyle
  2
Modeling
 70
10
 90
2
 40
0.6
 62
7
290
0
291
0
  0
VISUALSTYLE
  5
6A
102
{ACAD_REACTORS
330
16
102
}
330
16
100
AcDbVisualStyle
  2
OverhangOff
 70
21
 90
2
 40
0.6
 62
7
290
0
291
1
  0
VISUALSTYLE
  5
6B
102
{ACAD_REACTORS
330
16
102
}
330
16
100
AcDbVisualStyle
  2
Realistic
 70
8
 90
2
 40
0.6
 62
7
290
0
291
0
  0
VISUALSTYLE
  5
6C
102
{ACAD_REACTORS
330
16
102
}
330
16
100
AcDbVisualStyle
  2
Shaded
 70
27
 90
2
 40
0.6
 62
7
290
0
291
0
  0
VISUALSTYLE
  5
6D
102
{ACAD_REACTORS
330
16
102
}
330
16
100
AcDbVisualStyle
  2
Shaded with edges
 70
26
 90
2
 40
0.6
 62
7
290
0
291
0
  0
VISUALSTYLE
  5
6E
102
{ACAD_REACTORS
330
16
102
}
330
16
100
AcDbVisualStyle
  2
Shades of Gray
 70
23
 90
2
 40
0.6
 62
7
290
0
291
0
  0
VISUALSTYLE
  5
6F
102
{ACAD_REACTORS
330
16
102
}
330
16
100
AcDbVisualStyle
  2
Sketchy
 70
24
 90
1
 40
0.6
 62
7
290
0
291
0
  0
VISUALSTYLE
  5
70
102
{ACAD_REACTORS
330
16
102
}
330
16
100
AcDbVisualStyle
  2
Thicken
 70
13
 90
2
 40
0.6
 62
7
290
0
291
1
  0
VISUALSTYLE
  5
71
102
{ACAD_REACTORS
330
16
102
}
330
16
100
AcDbVisualStyle
  2
Wireframe
 70
5
 90
0
 40
0.6
 62
7
290
0
291
0
  0
VISUALSTYLE
  5
72
102
{ACAD_REACTORS
330
16
102
}
330
16
100
AcDbVisualStyle
  2
X-Ray
 70
25
 90
2
 40
0.5
 62
7
290
0
291
0
  0
DICTIONARYVAR
  5
159
330
2D
100
DictionaryVariables
280
0
  1
1.4.4 @ 2026-09-17T15:41:26.746890+00:00
  0
ENDSEC
  0
EOF
