<svg xmlns="http://www.w3.org/2000/svg" viewBox="0 0 1600 1000" width="1600" height="1000" font-family="'DM Sans','Aventa',Helvetica,Arial,sans-serif"><defs><pattern id="soil" width="10" height="10" patternUnits="userSpaceOnUse"><circle cx="2" cy="2" r="0.8" fill="#8B714E"/><circle cx="7" cy="6" r="0.8" fill="#8B714E"/></pattern></defs><rect width="1600" height="1000" fill="#FEF5F0"/><text x="40.00" y="46.00" fill="#1B2117" text-anchor="start" style="font-family:'DM Sans','Aventa',Helvetica,Arial,sans-serif;font-size:22px;font-weight:700;letter-spacing:0.28em;">ZION COCOON · ELEVAÇÃO LATERAL DIREITA</text>
<text x="40.00" y="68.00" fill="#8B714E" text-anchor="start" style="font-family:'DM Sans','Aventa',Helvetica,Arial,sans-serif;font-size:12px;font-weight:400;letter-spacing:0.08em;">Vista do lado das Janelas Olho (olhar para +y) · comprimento 9,75 m com lábio · deck 4,60 m</text>
<line x1="40" y1="82" x2="1560" y2="82" stroke="#1B2117" stroke-width="0.6" opacity="0.5"/>
<polygon points="70.00,780.00 1570.00,780.00 1570.00,722.00 70.00,722.00" fill="url(#soil)" stroke="none" stroke-width="1.0" opacity="1.0" stroke-linejoin="round" stroke-linecap="round" />
<line x1="70.00" y1="722.00" x2="1570.00" y2="722.00" stroke="#1B2117" stroke-width="1.0" opacity="1.0" stroke-linecap="round"/>
<polygon points="136.00,780.00 144.00,780.00 144.00,740.00 136.00,740.00" fill="#3A3B3A" stroke="none" stroke-width="1.0" opacity="1.0" stroke-linejoin="round" stroke-linecap="round" />
<polygon points="356.00,780.00 364.00,780.00 364.00,740.00 356.00,740.00" fill="#3A3B3A" stroke="none" stroke-width="1.0" opacity="1.0" stroke-linejoin="round" stroke-linecap="round" />
<polygon points="556.00,780.00 564.00,780.00 564.00,740.00 556.00,740.00" fill="#3A3B3A" stroke="none" stroke-width="1.0" opacity="1.0" stroke-linejoin="round" stroke-linecap="round" />
<polygon points="676.00,780.00 684.00,780.00 684.00,740.00 676.00,740.00" fill="#3A3B3A" stroke="none" stroke-width="1.0" opacity="1.0" stroke-linejoin="round" stroke-linecap="round" />
<polygon points="796.00,780.00 804.00,780.00 804.00,740.00 796.00,740.00" fill="#3A3B3A" stroke="none" stroke-width="1.0" opacity="1.0" stroke-linejoin="round" stroke-linecap="round" />
<polygon points="916.00,780.00 924.00,780.00 924.00,740.00 916.00,740.00" fill="#3A3B3A" stroke="none" stroke-width="1.0" opacity="1.0" stroke-linejoin="round" stroke-linecap="round" />
<polygon points="1036.00,780.00 1044.00,780.00 1044.00,740.00 1036.00,740.00" fill="#3A3B3A" stroke="none" stroke-width="1.0" opacity="1.0" stroke-linejoin="round" stroke-linecap="round" />
<polygon points="1156.00,780.00 1164.00,780.00 1164.00,740.00 1156.00,740.00" fill="#3A3B3A" stroke="none" stroke-width="1.0" opacity="1.0" stroke-linejoin="round" stroke-linecap="round" />
<polygon points="1276.00,780.00 1284.00,780.00 1284.00,740.00 1276.00,740.00" fill="#3A3B3A" stroke="none" stroke-width="1.0" opacity="1.0" stroke-linejoin="round" stroke-linecap="round" />
<polygon points="1366.00,780.00 1374.00,780.00 1374.00,740.00 1366.00,740.00" fill="#3A3B3A" stroke="none" stroke-width="1.0" opacity="1.0" stroke-linejoin="round" stroke-linecap="round" />
<polygon points="100.00,740.00 1430.00,740.00 1430.00,725.00 100.00,725.00" fill="#B99A73" stroke="#1B2117" stroke-width="0.9" opacity="1.0" stroke-linejoin="round" stroke-linecap="round" />
<polygon points="100.00,725.00 1430.00,725.00 1430.00,720.00 100.00,720.00" fill="#1B2117" stroke="none" stroke-width="1.0" opacity="1.0" stroke-linejoin="round" stroke-linecap="round" />
<polygon points="70.00,750.00 100.00,750.00 100.00,735.00 70.00,735.00" fill="#B99A73" stroke="#1B2117" stroke-width="0.7" opacity="1.0" stroke-linejoin="round" stroke-linecap="round" />
<polygon points="40.00,745.00 70.00,745.00 70.00,730.00 40.00,730.00" fill="#B99A73" stroke="#1B2117" stroke-width="0.7" opacity="1.0" stroke-linejoin="round" stroke-linecap="round" />
<polygon points="10.00,740.00 40.00,740.00 40.00,725.00 10.00,725.00" fill="#B99A73" stroke="#1B2117" stroke-width="0.7" opacity="1.0" stroke-linejoin="round" stroke-linecap="round" />
<polygon points="461.48,307.28 468.43,306.99 475.39,306.72 482.34,306.44 489.31,306.18 496.27,305.92 503.24,305.66 510.20,305.41 517.17,305.17 524.15,304.93 531.12,304.70 538.10,304.47 545.08,304.25 552.06,304.04 559.04,303.83 566.02,303.62 573.01,303.43 580.00,303.23 586.99,303.05 593.98,302.86 600.97,302.69 607.97,302.52 614.96,302.35 621.96,302.19 628.96,302.04 635.96,301.89 642.96,301.75 649.96,301.61 656.97,301.48 663.97,301.35 670.98,301.23 677.98,301.12 684.99,301.01 692.00,300.91 699.01,300.81 706.02,300.72 713.03,300.63 720.04,300.55 727.06,300.47 734.07,300.40 741.08,300.34 748.10,300.28 755.11,300.23 762.13,300.18 769.14,300.14 775.94,300.10 781.62,300.07 787.31,300.04 793.00,300.03 798.69,300.01 804.38,300.00 810.06,300.00 815.75,300.01 821.44,300.05 827.12,300.12 832.81,300.21 838.50,300.33 844.19,300.47 849.88,300.64 855.56,300.84 861.25,301.06 866.94,301.31 872.62,301.59 878.31,301.89 884.00,302.22 889.69,302.57 895.38,302.95 901.06,303.36 906.75,303.80 912.44,304.26 918.12,304.75 923.81,305.27 929.50,305.81 935.19,306.39 940.88,306.99 946.56,307.61 952.25,308.27 957.94,308.95 963.62,309.67 969.31,310.41 975.00,311.18 980.69,311.98 986.37,312.81 992.06,313.67 997.75,314.56 1003.44,315.47 1009.12,316.42 1014.81,317.40 1020.50,318.41 1026.19,319.46 1031.88,320.53 1037.56,321.64 1043.25,322.77 1048.94,323.95 1054.62,325.15 1060.31,326.39 1066.00,327.66 1071.69,328.97 1077.38,330.31 1083.06,331.69 1088.75,333.10 1094.44,334.55 1100.12,336.03 1105.81,337.56 1111.50,339.12 1117.19,340.73 1122.88,342.37 1128.56,344.05 1134.25,345.77 1139.94,347.54 1145.62,349.35 1151.31,351.20 1157.00,353.10 1162.69,355.04 1168.38,357.03 1174.06,359.07 1179.75,361.16 1185.44,363.30 1191.12,365.49 1196.81,367.73 1202.50,370.03 1208.19,372.38 1213.88,374.80 1219.56,377.27 1225.25,379.80 1230.94,382.40 1236.62,385.06 1242.31,387.79 1248.00,390.59 1253.69,393.47 1259.38,396.42 1265.06,399.45 1270.75,402.57 1276.44,405.77 1282.12,409.07 1287.81,412.46 1293.50,415.95 1299.19,419.54 1304.88,423.25 1310.56,427.08 1316.25,431.04 1321.94,435.13 1327.62,439.37 1333.31,443.76 1339.00,448.32 1344.69,453.07 1350.38,458.02 1356.06,463.19 1361.75,468.60 1367.44,474.29 1373.12,480.30 1378.81,486.66 1384.50,493.43 1390.19,500.70 1395.88,508.57 1401.56,517.19 1407.25,526.79 1412.94,537.77 1418.62,550.89 1424.31,568.11 1430.00,610.00 1430.00,680.00 1424.31,720.00 1418.62,720.00 1412.94,720.00 1407.25,720.00 1401.56,720.00 1395.88,720.00 1390.19,720.00 1384.50,720.00 1378.81,720.00 1373.12,720.00 1367.44,720.00 1361.75,720.00 1356.06,720.00 1350.38,720.00 1344.69,720.00 1339.00,720.00 1333.31,720.00 1327.62,720.00 1321.94,720.00 1316.25,720.00 1310.56,720.00 1304.88,720.00 1299.19,720.00 1293.50,720.00 1287.81,720.00 1282.12,720.00 1276.44,720.00 1270.75,720.00 1265.06,720.00 1259.38,720.00 1253.69,720.00 1248.00,720.00 1242.31,720.00 1236.62,720.00 1230.94,720.00 1225.25,720.00 1219.56,720.00 1213.88,720.00 1208.19,720.00 1202.50,720.00 1196.81,720.00 1191.12,720.00 1185.44,720.00 1179.75,720.00 1174.06,720.00 1168.38,720.00 1162.69,720.00 1157.00,720.00 1151.31,720.00 1145.62,720.00 1139.94,720.00 1134.25,720.00 1128.56,720.00 1122.88,720.00 1117.19,720.00 1111.50,720.00 1105.81,720.00 1100.12,720.00 1094.44,720.00 1088.75,720.00 1083.06,720.00 1077.38,720.00 1071.69,720.00 1066.00,720.00 1060.31,720.00 1054.62,720.00 1048.94,720.00 1043.25,720.00 1037.56,720.00 1031.88,720.00 1026.19,720.00 1020.50,720.00 1014.81,720.00 1009.12,720.00 1003.44,720.00 997.75,720.00 992.06,720.00 986.37,720.00 980.69,720.00 975.00,720.00 969.31,720.00 963.62,720.00 957.94,720.00 952.25,720.00 946.56,720.00 940.88,720.00 935.19,720.00 929.50,720.00 923.81,720.00 918.12,720.00 912.44,720.00 906.75,720.00 901.06,720.00 895.38,720.00 889.69,720.00 884.00,720.00 878.31,720.00 872.62,720.00 866.94,720.00 861.25,720.00 855.56,720.00 849.88,720.00 844.19,720.00 838.50,720.00 832.81,720.00 827.12,720.00 821.44,720.00 815.75,720.00 810.06,720.00 804.38,720.00 798.69,720.00 793.00,720.00 787.31,720.00 781.62,720.00 775.94,720.00 770.25,720.00 764.56,720.00 758.88,720.00 753.19,720.00 747.50,720.00 741.81,720.00 736.12,720.00 730.44,720.00 724.75,720.00 719.06,720.00 713.38,720.00 707.69,720.00 702.00,720.00 696.31,720.00 690.62,720.00 684.94,720.00 679.25,720.00 673.56,720.00 667.88,720.00 662.19,720.00 656.50,720.00 650.81,720.00 645.12,720.00 639.44,720.00 633.75,720.00 628.06,720.00 622.38,720.00 616.69,720.00 611.00,720.00 605.31,720.00 599.62,720.00 593.94,720.00 588.25,720.00 582.56,720.00 576.88,720.00 571.19,720.00 565.50,720.00 559.81,720.00 554.12,720.00 548.44,720.00 542.75,720.00 537.06,720.00 531.38,720.00 525.69,720.00 520.00,720.00" fill="#EDE6D6" stroke="#1B2117" stroke-width="1.8" opacity="1.0" stroke-linejoin="round" stroke-linecap="round" />
<line x1="635.00" y1="720.00" x2="602.51" y2="302.65" stroke="#8B714E" stroke-width="0.6" stroke-dasharray="4 4" opacity="0.6" stroke-linecap="round"/>
<line x1="755.00" y1="720.00" x2="750.33" y2="300.26" stroke="#8B714E" stroke-width="0.6" stroke-dasharray="4 4" opacity="0.6" stroke-linecap="round"/>
<line x1="875.00" y1="720.00" x2="875.00" y2="301.71" stroke="#8B714E" stroke-width="0.6" stroke-dasharray="4 4" opacity="0.6" stroke-linecap="round"/>
<line x1="995.00" y1="720.00" x2="995.00" y2="314.12" stroke="#8B714E" stroke-width="0.6" stroke-dasharray="4 4" opacity="0.6" stroke-linecap="round"/>
<line x1="1115.00" y1="720.00" x2="1115.00" y2="340.10" stroke="#8B714E" stroke-width="0.6" stroke-dasharray="4 4" opacity="0.6" stroke-linecap="round"/>
<line x1="1235.00" y1="720.00" x2="1235.00" y2="384.29" stroke="#8B714E" stroke-width="0.6" stroke-dasharray="4 4" opacity="0.6" stroke-linecap="round"/>
<line x1="1345.00" y1="720.00" x2="1345.00" y2="453.34" stroke="#8B714E" stroke-width="0.6" stroke-dasharray="4 4" opacity="0.6" stroke-linecap="round"/>
<line x1="515.00" y1="720.00" x2="455.29" y2="307.00" stroke="#1B2117" stroke-width="2.0" opacity="1.0" stroke-linecap="round"/>
<line x1="560.00" y1="720.00" x2="510.38" y2="305.00" stroke="#BFD0D6" stroke-width="5" opacity="1.0" stroke-linecap="round"/>
<line x1="560.00" y1="720.00" x2="510.38" y2="305.00" stroke="#1B2117" stroke-width="0.9" opacity="1.0" stroke-linecap="round"/>
<polyline points="633.27,301.95 652.55,301.56 671.85,301.22 691.15,300.92 710.46,300.66 729.78,300.44 749.10,300.27 768.42,300.14 785.33,300.05 801.00,300.01 816.67,300.02 832.33,300.20 848.00,300.58 863.67,301.16 879.33,301.94 895.00,302.93 910.67,304.11 926.33,305.51 942.00,307.11 957.67,308.92 973.33,310.95 989.00,313.20 1004.67,315.68 1020.33,318.38 1036.00,321.33 1051.67,324.52 1067.33,327.96 1083.00,331.67 1098.67,335.65 1114.33,339.92 1130.00,344.48" fill="none" stroke="#BFD0D6" stroke-width="6" opacity="1.0" stroke-linejoin="round" stroke-linecap="round" />
<polyline points="633.27,301.95 652.55,301.56 671.85,301.22 691.15,300.92 710.46,300.66 729.78,300.44 749.10,300.27 768.42,300.14 785.33,300.05 801.00,300.01 816.67,300.02 832.33,300.20 848.00,300.58 863.67,301.16 879.33,301.94 895.00,302.93 910.67,304.11 926.33,305.51 942.00,307.11 957.67,308.92 973.33,310.95 989.00,313.20 1004.67,315.68 1020.33,318.38 1036.00,321.33 1051.67,324.52 1067.33,327.96 1083.00,331.67 1098.67,335.65 1114.33,339.92 1130.00,344.48" fill="none" stroke="#1B2117" stroke-width="0.8" opacity="1.0" stroke-linejoin="round" stroke-linecap="round" />
<polygon points="780.00,569.51 777.55,563.06 773.22,557.13 767.72,551.73 761.60,546.79 754.99,542.26 747.91,538.07 740.33,534.16 732.16,530.52 723.30,527.16 713.63,524.15 703.06,521.67 691.67,520.26 680.40,521.81 670.05,524.41 660.64,527.53 652.06,530.98 644.21,534.69 636.96,538.66 630.24,542.90 624.01,547.47 618.30,552.43 613.26,557.84 609.20,563.76 607.09,570.17 610.28,576.58 615.29,582.52 621.14,587.97 627.50,592.99 634.25,597.63 641.37,601.97 648.91,606.04 656.94,609.86 665.57,613.41 674.90,616.63 685.02,619.31 695.87,620.87 706.58,619.28 716.47,616.57 725.54,613.31 733.87,609.71 741.58,605.85 748.78,601.73 755.54,597.33 761.91,592.62 767.85,587.54 773.24,582.01 777.55,575.99" fill="#BFD0D6" stroke="#1B2117" stroke-width="1.0" opacity="1.0" stroke-linejoin="round" stroke-linecap="round" />
<polygon points="791.00,569.50 788.21,561.77 783.45,554.65 777.74,548.18 771.05,542.28 763.53,536.86 755.48,531.85 746.84,527.19 737.52,522.86 727.41,518.86 716.37,515.28 704.29,512.34 691.27,510.67 678.39,512.51 666.57,515.60 655.84,519.31 646.07,523.41 637.12,527.83 628.88,532.56 621.25,537.63 614.19,543.08 607.74,549.01 602.05,555.48 597.50,562.57 595.18,570.26 598.89,577.93 604.66,585.06 611.36,591.61 618.63,597.64 626.34,603.23 634.46,608.44 643.05,613.34 652.18,617.93 661.97,622.21 672.55,626.09 684.02,629.32 696.30,631.21 708.42,629.30 719.61,626.04 729.87,622.13 739.31,617.81 748.05,613.16 756.23,608.21 763.92,602.93 771.16,597.27 777.74,591.15 783.45,584.51 788.21,577.28" fill="none" stroke="#B99A73" stroke-width="3" opacity="1.0" stroke-linejoin="round" stroke-linecap="round" />
<polygon points="1040.00,574.32 1037.55,568.17 1033.36,562.39 1028.34,557.04 1022.77,552.09 1016.79,547.46 1010.40,543.12 1003.57,539.01 996.24,535.11 988.31,531.43 979.66,528.05 970.21,525.13 960.00,523.21 949.79,524.22 940.34,526.33 931.69,529.02 923.76,532.11 916.43,535.51 909.60,539.22 903.21,543.24 897.23,547.61 891.66,552.41 886.64,557.70 882.45,563.55 880.00,569.93 882.45,576.39 886.64,582.42 891.66,587.96 897.23,593.06 903.21,597.79 909.60,602.19 916.43,606.33 923.76,610.20 931.69,613.81 940.34,617.08 949.79,619.81 960.00,621.44 970.21,620.00 979.66,617.48 988.31,614.46 996.24,611.13 1003.57,607.56 1010.40,603.77 1016.79,599.75 1022.77,595.45 1028.34,590.81 1033.36,585.78 1037.55,580.29" fill="#BFD0D6" stroke="#1B2117" stroke-width="1.0" opacity="1.0" stroke-linejoin="round" stroke-linecap="round" />
<polygon points="1051.00,574.81 1048.21,567.48 1043.45,560.60 1037.74,554.22 1031.41,548.31 1024.59,542.80 1017.33,537.61 1009.56,532.71 1001.23,528.05 992.20,523.67 982.36,519.62 971.61,516.14 960.00,513.85 948.39,515.03 937.64,517.53 927.80,520.73 918.77,524.41 910.44,528.48 902.67,532.91 895.41,537.73 888.59,542.98 882.26,548.75 876.55,555.10 871.79,562.13 869.00,569.80 871.79,577.57 876.55,584.81 882.26,591.47 888.59,597.59 895.41,603.27 902.67,608.55 910.44,613.51 918.77,618.16 927.80,622.47 937.64,626.37 948.39,629.61 960.00,631.53 971.61,629.75 982.36,626.67 992.20,623.00 1001.23,618.97 1009.56,614.65 1017.33,610.08 1024.59,605.24 1031.41,600.07 1037.74,594.51 1043.45,588.49 1048.21,581.93" fill="none" stroke="#B99A73" stroke-width="3" opacity="1.0" stroke-linejoin="round" stroke-linecap="round" />
<polygon points="1315.00,541.52 1313.32,537.93 1310.44,534.15 1306.98,530.40 1303.16,526.72 1299.04,523.11 1294.65,519.56 1289.96,516.04 1284.92,512.52 1279.46,509.01 1273.51,505.52 1267.02,502.13 1260.00,499.17 1252.98,497.82 1246.49,497.28 1240.54,497.27 1235.08,497.67 1230.04,498.39 1225.35,499.42 1220.96,500.75 1216.84,502.39 1213.02,504.39 1209.56,506.80 1206.68,509.70 1205.00,513.19 1206.68,517.38 1209.56,521.52 1213.02,525.47 1216.84,529.21 1220.96,532.76 1225.35,536.17 1230.04,539.45 1235.08,542.64 1240.54,545.73 1246.49,548.71 1252.98,551.47 1260.00,553.71 1267.02,554.21 1273.51,554.08 1279.46,553.62 1284.92,552.96 1289.96,552.16 1294.65,551.22 1299.04,550.16 1303.16,548.96 1306.98,547.57 1310.44,545.96 1313.32,544.01" fill="#BFD0D6" stroke="#1B2117" stroke-width="1.0" opacity="1.0" stroke-linejoin="round" stroke-linecap="round" />
<polygon points="1326.00,545.35 1323.98,541.01 1320.53,536.40 1316.38,531.80 1311.79,527.28 1306.85,522.83 1301.58,518.44 1295.95,514.08 1289.90,509.73 1283.35,505.38 1276.22,501.05 1268.42,496.85 1260.00,493.17 1251.58,491.47 1243.78,490.79 1236.65,490.77 1230.10,491.26 1224.05,492.19 1218.42,493.50 1213.15,495.20 1208.21,497.30 1203.62,499.86 1199.47,502.94 1196.02,506.63 1194.00,511.06 1196.02,516.30 1199.47,521.46 1203.62,526.37 1208.21,531.00 1213.15,535.38 1218.42,539.57 1224.05,543.59 1230.10,547.48 1236.65,551.23 1243.78,554.81 1251.58,558.10 1260.00,560.70 1268.42,561.15 1276.22,560.81 1283.35,560.11 1289.90,559.19 1295.95,558.12 1301.58,556.93 1306.85,555.60 1311.79,554.13 1316.38,552.48 1320.53,550.56 1323.98,548.28" fill="none" stroke="#B99A73" stroke-width="3" opacity="1.0" stroke-linejoin="round" stroke-linecap="round" />
<polygon points="1465.00,720.00 1540.00,720.00 1540.00,658.00 1465.00,658.00" fill="#E5E1D8" stroke="#1B2117" stroke-width="0.8" opacity="1.0" stroke-linejoin="round" stroke-linecap="round" />
<line x1="1470.00" y1="720.00" x2="1470.00" y2="590.00" stroke="#B99A73" stroke-width="2.2" opacity="1.0" stroke-linecap="round"/>
<line x1="1482.00" y1="720.00" x2="1482.00" y2="590.00" stroke="#B99A73" stroke-width="2.2" opacity="1.0" stroke-linecap="round"/>
<line x1="1494.00" y1="720.00" x2="1494.00" y2="590.00" stroke="#B99A73" stroke-width="2.2" opacity="1.0" stroke-linecap="round"/>
<line x1="1506.00" y1="720.00" x2="1506.00" y2="590.00" stroke="#B99A73" stroke-width="2.2" opacity="1.0" stroke-linecap="round"/>
<line x1="1518.00" y1="720.00" x2="1518.00" y2="590.00" stroke="#B99A73" stroke-width="2.2" opacity="1.0" stroke-linecap="round"/>
<line x1="1530.00" y1="720.00" x2="1530.00" y2="590.00" stroke="#B99A73" stroke-width="2.2" opacity="1.0" stroke-linecap="round"/>
<line x1="810.00" y1="300.00" x2="670.00" y2="235.00" stroke="#1B2117" stroke-width="0.7" opacity="1.0" stroke-linecap="round"/>
<circle cx="810.00" cy="300.00" r="2.2" fill="#1B2117" stroke="#1B2117" stroke-width="1.0"/>
<text x="670.00" y="232.00" fill="#1B2117" text-anchor="start" style="font-family:'DM Sans','Aventa',Helvetica,Arial,sans-serif;font-size:12px;font-weight:400;letter-spacing:0em;">Cumeeira 4,20 m · Espinha de Luz 1,90 a 6,60</text>
<line x1="475.00" y1="370.00" x2="320.00" y2="290.00" stroke="#1B2117" stroke-width="0.7" opacity="1.0" stroke-linecap="round"/>
<circle cx="475.00" cy="370.00" r="2.2" fill="#1B2117" stroke="#1B2117" stroke-width="1.0"/>
<text x="320.00" y="287.00" fill="#1B2117" text-anchor="end" style="font-family:'DM Sans','Aventa',Helvetica,Arial,sans-serif;font-size:12px;font-weight:400;letter-spacing:0em;">Lábio frontal: anel inclinado 8°, avanço 0,60 m</text>
<line x1="960.00" y1="570.00" x2="810.00" y2="835.00" stroke="#1B2117" stroke-width="0.7" opacity="1.0" stroke-linecap="round"/>
<circle cx="960.00" cy="570.00" r="2.2" fill="#1B2117" stroke="#1B2117" stroke-width="1.0"/>
<text x="810.00" y="832.00" fill="#1B2117" text-anchor="end" style="font-family:'DM Sans','Aventa',Helvetica,Arial,sans-serif;font-size:12px;font-weight:400;letter-spacing:0em;">Janela Olho 1,60 x 0,95 com requadro de madeira 220 mm</text>
<line x1="1260.00" y1="520.00" x2="1230.00" y2="330.00" stroke="#1B2117" stroke-width="0.7" opacity="1.0" stroke-linecap="round"/>
<circle cx="1260.00" cy="520.00" r="2.2" fill="#1B2117" stroke="#1B2117" stroke-width="1.0"/>
<text x="1230.00" y="327.00" fill="#1B2117" text-anchor="end" style="font-family:'DM Sans','Aventa',Helvetica,Arial,sans-serif;font-size:12px;font-weight:400;letter-spacing:0em;">Olho do banho 1,10 x 0,60 (alto)</text>
<line x1="1425.00" y1="605.00" x2="1340.00" y2="260.00" stroke="#1B2117" stroke-width="0.7" opacity="1.0" stroke-linecap="round"/>
<circle cx="1425.00" cy="605.00" r="2.2" fill="#1B2117" stroke="#1B2117" stroke-width="1.0"/>
<text x="1340.00" y="257.00" fill="#1B2117" text-anchor="end" style="font-family:'DM Sans','Aventa',Helvetica,Arial,sans-serif;font-size:12px;font-weight:400;letter-spacing:0em;">Cauda: fecha em ponta a 1,10 m</text>
<line x1="1510.00" y1="640.00" x2="1450.00" y2="440.00" stroke="#1B2117" stroke-width="0.7" opacity="1.0" stroke-linecap="round"/>
<circle cx="1510.00" cy="640.00" r="2.2" fill="#1B2117" stroke="#1B2117" stroke-width="1.0"/>
<text x="1450.00" y="437.00" fill="#1B2117" text-anchor="end" style="font-family:'DM Sans','Aventa',Helvetica,Arial,sans-serif;font-size:12px;font-weight:400;letter-spacing:0em;">Painel ripado da condensadora</text>
<line x1="1110.00" y1="685.00" x2="1160.00" y2="820.00" stroke="#1B2117" stroke-width="0.7" opacity="1.0" stroke-linecap="round"/>
<circle cx="1110.00" cy="685.00" r="2.2" fill="#1B2117" stroke="#1B2117" stroke-width="1.0"/>
<text x="1160.00" y="817.00" fill="#1B2117" text-anchor="start" style="font-family:'DM Sans','Aventa',Helvetica,Arial,sans-serif;font-size:12px;font-weight:400;letter-spacing:0em;">Calha oculta no rodapé da concha, queda Ø75 nas extremidades</text>
<line x1="515.00" y1="815.00" x2="515.00" y2="858.00" stroke="#8B714E" stroke-width="0.7" opacity="1.0" stroke-linecap="round"/>
<line x1="1430.00" y1="815.00" x2="1430.00" y2="858.00" stroke="#8B714E" stroke-width="0.7" opacity="1.0" stroke-linecap="round"/>
<line x1="515.00" y1="850.00" x2="1430.00" y2="850.00" stroke="#8B714E" stroke-width="0.8" opacity="1.0" stroke-linecap="round"/>
<line x1="511.0" y1="854.0" x2="519.0" y2="846.0" stroke="#8B714E" stroke-width="1.1"/>
<line x1="1426.0" y1="854.0" x2="1434.0" y2="846.0" stroke="#8B714E" stroke-width="1.1"/>
<text x="972.50" y="846.00" fill="#8B714E" text-anchor="middle" style="font-family:'DM Sans','Aventa',Helvetica,Arial,sans-serif;font-size:13px;font-weight:400;letter-spacing:0em;">9,60 (piso)</text>
<line x1="455.00" y1="815.00" x2="455.00" y2="918.00" stroke="#8B714E" stroke-width="0.7" opacity="1.0" stroke-linecap="round"/>
<line x1="1430.00" y1="815.00" x2="1430.00" y2="918.00" stroke="#8B714E" stroke-width="0.7" opacity="1.0" stroke-linecap="round"/>
<line x1="455.00" y1="910.00" x2="1430.00" y2="910.00" stroke="#8B714E" stroke-width="0.8" opacity="1.0" stroke-linecap="round"/>
<line x1="451.0" y1="914.0" x2="459.0" y2="906.0" stroke="#8B714E" stroke-width="1.1"/>
<line x1="1426.0" y1="914.0" x2="1434.0" y2="906.0" stroke="#8B714E" stroke-width="1.1"/>
<text x="942.50" y="906.00" fill="#8B714E" text-anchor="middle" style="font-family:'DM Sans','Aventa',Helvetica,Arial,sans-serif;font-size:13px;font-weight:400;letter-spacing:0em;">9,75 (concha com lábio)</text>
<line x1="100.00" y1="815.00" x2="100.00" y2="858.00" stroke="#8B714E" stroke-width="0.7" opacity="1.0" stroke-linecap="round"/>
<line x1="560.00" y1="815.00" x2="560.00" y2="858.00" stroke="#8B714E" stroke-width="0.7" opacity="1.0" stroke-linecap="round"/>
<line x1="100.00" y1="850.00" x2="560.00" y2="850.00" stroke="#8B714E" stroke-width="0.8" opacity="1.0" stroke-linecap="round"/>
<line x1="96.0" y1="854.0" x2="104.0" y2="846.0" stroke="#8B714E" stroke-width="1.1"/>
<line x1="556.0" y1="854.0" x2="564.0" y2="846.0" stroke="#8B714E" stroke-width="1.1"/>
<text x="330.00" y="846.00" fill="#8B714E" text-anchor="middle" style="font-family:'DM Sans','Aventa',Helvetica,Arial,sans-serif;font-size:13px;font-weight:400;letter-spacing:0em;">4,60 (deck)</text>
<line x1="1550.00" y1="720.00" x2="1608.00" y2="720.00" stroke="#8B714E" stroke-width="0.7" opacity="1.0" stroke-linecap="round"/>
<line x1="1550.00" y1="300.00" x2="1608.00" y2="300.00" stroke="#8B714E" stroke-width="0.7" opacity="1.0" stroke-linecap="round"/>
<line x1="1600.00" y1="720.00" x2="1600.00" y2="300.00" stroke="#8B714E" stroke-width="0.8" opacity="1.0" stroke-linecap="round"/>
<line x1="1596.0" y1="724.0" x2="1604.0" y2="716.0" stroke="#8B714E" stroke-width="1.1"/>
<line x1="1596.0" y1="304.0" x2="1604.0" y2="296.0" stroke="#8B714E" stroke-width="1.1"/>
<text x="1600.00" y="506.00" fill="#8B714E" text-anchor="middle" style="font-family:'DM Sans','Aventa',Helvetica,Arial,sans-serif;font-size:13px;font-weight:400;letter-spacing:0em;" transform="rotate(-90 1600.00 510.00)">4,20</text>
<line x1="50.00" y1="780.00" x2="2.00" y2="780.00" stroke="#8B714E" stroke-width="0.7" opacity="1.0" stroke-linecap="round"/>
<line x1="50.00" y1="720.00" x2="2.00" y2="720.00" stroke="#8B714E" stroke-width="0.7" opacity="1.0" stroke-linecap="round"/>
<line x1="10.00" y1="780.00" x2="10.00" y2="720.00" stroke="#8B714E" stroke-width="0.8" opacity="1.0" stroke-linecap="round"/>
<line x1="6.0" y1="784.0" x2="14.0" y2="776.0" stroke="#8B714E" stroke-width="1.1"/>
<line x1="6.0" y1="724.0" x2="14.0" y2="716.0" stroke="#8B714E" stroke-width="1.1"/>
<text x="10.00" y="746.00" fill="#8B714E" text-anchor="middle" style="font-family:'DM Sans','Aventa',Helvetica,Arial,sans-serif;font-size:13px;font-weight:400;letter-spacing:0em;" transform="rotate(-90 10.00 750.00)">0,60</text>
<rect x="30.0" y="958.0" width="100.0" height="12.0" fill="#1B2117" stroke="#1B2117" stroke-width="0.7"/>
<rect x="130.0" y="958.0" width="100.0" height="12.0" fill="#FEF5F0" stroke="#1B2117" stroke-width="0.7"/>
<rect x="230.0" y="958.0" width="100.0" height="12.0" fill="#1B2117" stroke="#1B2117" stroke-width="0.7"/>
<rect x="330.0" y="958.0" width="100.0" height="12.0" fill="#FEF5F0" stroke="#1B2117" stroke-width="0.7"/>
<rect x="430.0" y="958.0" width="100.0" height="12.0" fill="#1B2117" stroke="#1B2117" stroke-width="0.7"/>
<text x="30.00" y="984.00" fill="#1B2117" text-anchor="middle" style="font-family:'DM Sans','Aventa',Helvetica,Arial,sans-serif;font-size:10px;font-weight:400;letter-spacing:0em;">0</text>
<text x="130.00" y="984.00" fill="#1B2117" text-anchor="middle" style="font-family:'DM Sans','Aventa',Helvetica,Arial,sans-serif;font-size:10px;font-weight:400;letter-spacing:0em;">1</text>
<text x="230.00" y="984.00" fill="#1B2117" text-anchor="middle" style="font-family:'DM Sans','Aventa',Helvetica,Arial,sans-serif;font-size:10px;font-weight:400;letter-spacing:0em;">2</text>
<text x="330.00" y="984.00" fill="#1B2117" text-anchor="middle" style="font-family:'DM Sans','Aventa',Helvetica,Arial,sans-serif;font-size:10px;font-weight:400;letter-spacing:0em;">3</text>
<text x="430.00" y="984.00" fill="#1B2117" text-anchor="middle" style="font-family:'DM Sans','Aventa',Helvetica,Arial,sans-serif;font-size:10px;font-weight:400;letter-spacing:0em;">4</text>
<text x="530.00" y="984.00" fill="#1B2117" text-anchor="middle" style="font-family:'DM Sans','Aventa',Helvetica,Arial,sans-serif;font-size:10px;font-weight:400;letter-spacing:0em;">5</text>
<text x="544.00" y="968.00" fill="#1B2117" text-anchor="start" style="font-family:'DM Sans','Aventa',Helvetica,Arial,sans-serif;font-size:10px;font-weight:400;letter-spacing:0em;">m</text>
<rect x="1010" y="880" width="560" height="96" fill="#FEF5F0" stroke="#1B2117" stroke-width="1.2"/>
<line x1="1210" y1="880" x2="1210" y2="976" stroke="#1B2117" stroke-width="0.8"/>
<line x1="1010" y1="926" x2="1570" y2="926" stroke="#1B2117" stroke-width="0.8"/>
<text x="1110.00" y="904.00" fill="#1B2117" text-anchor="middle" style="font-family:'DM Sans','Aventa',Helvetica,Arial,sans-serif;font-size:20px;font-weight:800;letter-spacing:0.35em;">ZION</text>
<text x="1110.00" y="918.00" fill="#8B714E" text-anchor="middle" style="font-family:'DM Sans','Aventa',Helvetica,Arial,sans-serif;font-size:8.5px;font-weight:400;letter-spacing:0.3em;">GLAMPING COLLECTION</text>
<text x="1110.00" y="948.00" fill="#1B2117" text-anchor="middle" style="font-family:'DM Sans','Aventa',Helvetica,Arial,sans-serif;font-size:12px;font-weight:700;letter-spacing:0.2em;">ZION COCOON</text>
<text x="1110.00" y="964.00" fill="#8B714E" text-anchor="middle" style="font-family:'DM Sans','Aventa',Helvetica,Arial,sans-serif;font-size:7.5px;font-weight:400;letter-spacing:0.2em;">ZION HOTEL GROUP INTERNATIONAL</text>
<text x="1224.00" y="902.00" fill="#1B2117" text-anchor="start" style="font-family:'DM Sans','Aventa',Helvetica,Arial,sans-serif;font-size:14px;font-weight:700;letter-spacing:0.12em;">ELEVAÇÃO LATERAL</text>
<text x="1224.00" y="918.00" fill="#8B714E" text-anchor="start" style="font-family:'DM Sans','Aventa',Helvetica,Arial,sans-serif;font-size:10px;font-weight:400;letter-spacing:0em;">Concha assimétrica: frente cheia, cauda afilada, 6 Janelas Olho</text>
<text x="1224.00" y="946.00" fill="#1B2117" text-anchor="start" style="font-family:'DM Sans','Aventa',Helvetica,Arial,sans-serif;font-size:10px;font-weight:400;letter-spacing:0.15em;">ESCALA 1:50 (A1)</text>
<text x="1224.00" y="964.00" fill="#8B714E" text-anchor="start" style="font-family:'DM Sans','Aventa',Helvetica,Arial,sans-serif;font-size:8px;font-weight:400;letter-spacing:0.1em;">PROJETO CONCEITUAL · ESTUDO PRELIMINAR</text>
<text x="1556.00" y="946.00" fill="#1B2117" text-anchor="end" style="font-family:'DM Sans','Aventa',Helvetica,Arial,sans-serif;font-size:10px;font-weight:600;letter-spacing:0.15em;">FOLHA 05/27</text>
<text x="1556.00" y="964.00" fill="#8B714E" text-anchor="end" style="font-family:'DM Sans','Aventa',Helvetica,Arial,sans-serif;font-size:8px;font-weight:400;letter-spacing:0.15em;">SET 2026</text></svg>