<svg xmlns="http://www.w3.org/2000/svg" viewBox="0 0 1600 1000" width="1600" height="1000" font-family="'DM Sans','Aventa',Helvetica,Arial,sans-serif"><defs></defs><rect width="1600" height="1000" fill="#FEF5F0"/><g transform="translate(40.00,22.00) scale(0.4400)"><polygon points="0,0 100,0 100,12.5 93.4,12.5 74.1,25.5 0,25.5" fill="#1B2117"/><polygon points="74.1,25.5 100,25.5 100,62.7 49.4,62.7 31.2,75 0,75" fill="#1B2117"/><polygon points="0,87.7 74.5,87.7 100,68.9 100,100 0,100" fill="#1B2117"/></g>
<text x="100.00" y="46.00" fill="#1B2117" text-anchor="start" style="font-family:'DM Sans','Aventa',Helvetica,Arial,sans-serif;font-size:22px;font-weight:700;letter-spacing:0.28em;">ZION LODGE 38 · PADRÃO DE CORTE G1</text>
<text x="100.00" y="68.00" fill="#8B714E" text-anchor="start" style="font-family:'DM Sans','Aventa',Helvetica,Arial,sans-serif;font-size:12px;font-weight:400;letter-spacing:0.08em;">Gomo G1 · do anel da lanterna (r 0.75) ao beiral, entre os caibros R1 e R2 · LONA EXTERNA · geometria de forma final (sem compensação) · metros</text>
<line x1="40" y1="82" x2="1560" y2="82" stroke="#1B2117" stroke-width="0.6" opacity="0.5"/>
<line x1="281.4" y1="780.0" x2="281.4" y2="130.0" stroke="#DED6BF" stroke-width="0.5"/>
<text x="281.44" y="792.00" fill="#8B714E" text-anchor="middle" style="font-family:'DM Sans','Aventa',Helvetica,Arial,sans-serif;font-size:7.5px;font-weight:400;letter-spacing:0em;">0,0</text>
<line x1="350.3" y1="780.0" x2="350.3" y2="130.0" stroke="#DED6BF" stroke-width="0.5"/>
<text x="350.31" y="792.00" fill="#8B714E" text-anchor="middle" style="font-family:'DM Sans','Aventa',Helvetica,Arial,sans-serif;font-size:7.5px;font-weight:400;letter-spacing:0em;">0,5</text>
<line x1="419.2" y1="780.0" x2="419.2" y2="130.0" stroke="#DED6BF" stroke-width="0.5"/>
<text x="419.18" y="792.00" fill="#8B714E" text-anchor="middle" style="font-family:'DM Sans','Aventa',Helvetica,Arial,sans-serif;font-size:7.5px;font-weight:400;letter-spacing:0em;">1,0</text>
<line x1="488.0" y1="780.0" x2="488.0" y2="130.0" stroke="#DED6BF" stroke-width="0.5"/>
<text x="488.04" y="792.00" fill="#8B714E" text-anchor="middle" style="font-family:'DM Sans','Aventa',Helvetica,Arial,sans-serif;font-size:7.5px;font-weight:400;letter-spacing:0em;">1,5</text>
<line x1="556.9" y1="780.0" x2="556.9" y2="130.0" stroke="#DED6BF" stroke-width="0.5"/>
<text x="556.91" y="792.00" fill="#8B714E" text-anchor="middle" style="font-family:'DM Sans','Aventa',Helvetica,Arial,sans-serif;font-size:7.5px;font-weight:400;letter-spacing:0em;">2,0</text>
<line x1="625.8" y1="780.0" x2="625.8" y2="130.0" stroke="#DED6BF" stroke-width="0.5"/>
<text x="625.78" y="792.00" fill="#8B714E" text-anchor="middle" style="font-family:'DM Sans','Aventa',Helvetica,Arial,sans-serif;font-size:7.5px;font-weight:400;letter-spacing:0em;">2,5</text>
<line x1="694.6" y1="780.0" x2="694.6" y2="130.0" stroke="#DED6BF" stroke-width="0.5"/>
<text x="694.64" y="792.00" fill="#8B714E" text-anchor="middle" style="font-family:'DM Sans','Aventa',Helvetica,Arial,sans-serif;font-size:7.5px;font-weight:400;letter-spacing:0em;">3,0</text>
<line x1="281.4" y1="780.0" x2="748.6" y2="780.0" stroke="#DED6BF" stroke-width="0.5"/>
<text x="275.44" y="783.00" fill="#8B714E" text-anchor="end" style="font-family:'DM Sans','Aventa',Helvetica,Arial,sans-serif;font-size:7.5px;font-weight:400;letter-spacing:0em;">0,0</text>
<line x1="281.4" y1="711.1" x2="748.6" y2="711.1" stroke="#DED6BF" stroke-width="0.5"/>
<text x="275.44" y="714.13" fill="#8B714E" text-anchor="end" style="font-family:'DM Sans','Aventa',Helvetica,Arial,sans-serif;font-size:7.5px;font-weight:400;letter-spacing:0em;">0,5</text>
<line x1="281.4" y1="642.3" x2="748.6" y2="642.3" stroke="#DED6BF" stroke-width="0.5"/>
<text x="275.44" y="645.27" fill="#8B714E" text-anchor="end" style="font-family:'DM Sans','Aventa',Helvetica,Arial,sans-serif;font-size:7.5px;font-weight:400;letter-spacing:0em;">1,0</text>
<line x1="281.4" y1="573.4" x2="748.6" y2="573.4" stroke="#DED6BF" stroke-width="0.5"/>
<text x="275.44" y="576.40" fill="#8B714E" text-anchor="end" style="font-family:'DM Sans','Aventa',Helvetica,Arial,sans-serif;font-size:7.5px;font-weight:400;letter-spacing:0em;">1,5</text>
<line x1="281.4" y1="504.5" x2="748.6" y2="504.5" stroke="#DED6BF" stroke-width="0.5"/>
<text x="275.44" y="507.53" fill="#8B714E" text-anchor="end" style="font-family:'DM Sans','Aventa',Helvetica,Arial,sans-serif;font-size:7.5px;font-weight:400;letter-spacing:0em;">2,0</text>
<line x1="281.4" y1="435.7" x2="748.6" y2="435.7" stroke="#DED6BF" stroke-width="0.5"/>
<text x="275.44" y="438.66" fill="#8B714E" text-anchor="end" style="font-family:'DM Sans','Aventa',Helvetica,Arial,sans-serif;font-size:7.5px;font-weight:400;letter-spacing:0em;">2,5</text>
<line x1="281.4" y1="366.8" x2="748.6" y2="366.8" stroke="#DED6BF" stroke-width="0.5"/>
<text x="275.44" y="369.80" fill="#8B714E" text-anchor="end" style="font-family:'DM Sans','Aventa',Helvetica,Arial,sans-serif;font-size:7.5px;font-weight:400;letter-spacing:0em;">3,0</text>
<line x1="281.4" y1="297.9" x2="748.6" y2="297.9" stroke="#DED6BF" stroke-width="0.5"/>
<text x="275.44" y="300.93" fill="#8B714E" text-anchor="end" style="font-family:'DM Sans','Aventa',Helvetica,Arial,sans-serif;font-size:7.5px;font-weight:400;letter-spacing:0em;">3,5</text>
<line x1="281.4" y1="229.1" x2="748.6" y2="229.1" stroke="#DED6BF" stroke-width="0.5"/>
<text x="275.44" y="232.06" fill="#8B714E" text-anchor="end" style="font-family:'DM Sans','Aventa',Helvetica,Arial,sans-serif;font-size:7.5px;font-weight:400;letter-spacing:0em;">4,0</text>
<line x1="281.4" y1="160.2" x2="748.6" y2="160.2" stroke="#DED6BF" stroke-width="0.5"/>
<text x="275.44" y="163.19" fill="#8B714E" text-anchor="end" style="font-family:'DM Sans','Aventa',Helvetica,Arial,sans-serif;font-size:7.5px;font-weight:400;letter-spacing:0em;">4,5</text>
<polygon points="285.4,753.9 284.7,740.1 284.2,726.0 283.8,711.7 283.4,697.2 283.0,682.6 282.7,667.9 282.5,653.0 282.3,638.1 282.1,623.0 281.9,607.9 281.8,592.7 281.6,577.4 281.6,562.1 281.5,546.7 281.5,531.2 281.4,515.6 281.4,500.0 281.5,484.3 281.5,468.6 281.6,452.8 281.7,436.9 281.8,421.0 281.9,405.1 282.1,389.1 282.2,373.0 282.4,356.9 282.6,340.8 282.8,324.6 283.0,308.3 283.3,292.1 283.5,275.7 283.8,259.4 284.1,242.9 284.4,226.5 284.7,210.0 285.0,193.5 285.3,176.9 285.7,160.3 286.1,143.6 285.4,130.0 748.6,291.8 739.5,302.1 729.5,315.3 719.4,328.5 709.3,341.7 699.3,354.9 689.3,368.0 679.3,381.0 669.3,394.0 659.3,407.0 649.3,419.9 639.3,432.8 629.4,445.7 619.5,458.5 609.6,471.2 599.7,483.9 589.8,496.6 580.0,509.2 570.1,521.8 560.3,534.3 550.5,546.7 540.7,559.1 531.0,571.5 521.2,583.8 511.5,596.0 501.8,608.1 492.1,620.2 482.5,632.3 472.8,644.2 463.2,656.1 453.7,667.9 444.1,679.7 434.6,691.3 425.1,702.8 415.7,714.3 406.3,725.6 396.9,736.9 387.6,747.9 378.3,758.9 369.1,769.6 360.0,780.0" fill="#F3EDE0" stroke="#1B2117" stroke-width="1.2" stroke-linejoin="round"/>
<polyline points="285.4,753.9 284.7,740.1 284.2,726.0 283.8,711.7 283.4,697.2 283.0,682.6 282.7,667.9 282.5,653.0 282.3,638.1 282.1,623.0 281.9,607.9 281.8,592.7 281.6,577.4 281.6,562.1 281.5,546.7 281.5,531.2 281.4,515.6 281.4,500.0 281.5,484.3 281.5,468.6 281.6,452.8 281.7,436.9 281.8,421.0 281.9,405.1 282.1,389.1 282.2,373.0 282.4,356.9 282.6,340.8 282.8,324.6 283.0,308.3 283.3,292.1 283.5,275.7 283.8,259.4 284.1,242.9 284.4,226.5 284.7,210.0 285.0,193.5 285.3,176.9 285.7,160.3 286.1,143.6 285.4,130.0" fill="none" stroke="#C2734A" stroke-width="1.6" stroke-linecap="round" stroke-linejoin="round"/>
<polyline points="360.0,780.0 369.1,769.6 378.3,758.9 387.6,747.9 396.9,736.9 406.3,725.6 415.7,714.3 425.1,702.8 434.6,691.3 444.1,679.7 453.7,667.9 463.2,656.1 472.8,644.2 482.5,632.3 492.1,620.2 501.8,608.1 511.5,596.0 521.2,583.8 531.0,571.5 540.7,559.1 550.5,546.7 560.3,534.3 570.1,521.8 580.0,509.2 589.8,496.6 599.7,483.9 609.6,471.2 619.5,458.5 629.4,445.7 639.3,432.8 649.3,419.9 659.3,407.0 669.3,394.0 679.3,381.0 689.3,368.0 699.3,354.9 709.3,341.7 719.4,328.5 729.5,315.3 739.5,302.1 748.6,291.8" fill="none" stroke="#C2734A" stroke-width="1.6" stroke-linecap="round" stroke-linejoin="round"/>
<polyline points="285.4,753.9 360.0,780.0" fill="none" stroke="#8B714E" stroke-width="3.0" stroke-linecap="round" stroke-linejoin="round"/>
<polyline points="285.4,130.0 314.3,140.1 343.3,150.2 372.2,160.3 401.2,170.5 430.1,180.6 459.1,190.7 488.0,200.8 517.0,210.9 545.9,221.0 574.9,231.1 603.8,241.3 632.8,251.4 661.7,261.5 690.7,271.6 719.6,281.7 748.6,291.8" fill="none" stroke="#3A3B3A" stroke-width="3.0" stroke-linecap="round" stroke-linejoin="round"/>
<polyline points="285.4,753.9 284.7,740.1 284.2,726.0 283.8,711.7 283.4,697.2 283.0,682.6 282.7,667.9 282.5,653.0 282.3,638.1 282.1,623.0 281.9,607.9 281.8,592.7 281.6,577.4 281.6,562.1 281.5,546.7 281.5,531.2 281.4,515.6 281.4,500.0 281.5,484.3 281.5,468.6 281.6,452.8 281.7,436.9 281.8,421.0 281.9,405.1 282.1,389.1 282.2,373.0 282.4,356.9 282.6,340.8 282.8,324.6 283.0,308.3 283.3,292.1 283.5,275.7 283.8,259.4 284.1,242.9 284.4,226.5 284.7,210.0 285.0,193.5 285.3,176.9 285.7,160.3 286.1,143.6 285.4,130.0" fill="none" stroke="#3A3B3A" stroke-width="1.0" stroke-dasharray="6 3"/>
<text x="286.59" y="448.78" fill="#3A3B3A" text-anchor="start" style="font-family:'DM Sans','Aventa',Helvetica,Arial,sans-serif;font-size:7.5px;font-weight:400;letter-spacing:0em;">caibro Ø76,1 sob a costura (presilhas @400)</text>
<line x1="281.4" y1="806.0" x2="748.6" y2="806.0" stroke="#8B714E" stroke-width="0.8"/>
<text x="515.00" y="818.00" fill="#8B714E" text-anchor="middle" style="font-family:'DM Sans','Aventa',Helvetica,Arial,sans-serif;font-size:9px;font-weight:400;letter-spacing:0em;">largura máx, 3,391 m</text>
<line x1="774.6" y1="780.0" x2="774.6" y2="130.0" stroke="#8B714E" stroke-width="0.8"/>
<text x="780.56" y="455.00" fill="#8B714E" text-anchor="start" style="font-family:'DM Sans','Aventa',Helvetica,Arial,sans-serif;font-size:9px;font-weight:400;letter-spacing:0em;" transform="rotate(90 780.56 455.00)">altura máx, 4,719 m</text>
<text x="281.37" y="747.92" fill="#1B2117" text-anchor="end" style="font-family:'DM Sans','Aventa',Helvetica,Arial,sans-serif;font-size:8px;font-weight:700;letter-spacing:0em;">L0</text>
<text x="364.01" y="774.00" fill="#1B2117" text-anchor="start" style="font-family:'DM Sans','Aventa',Helvetica,Arial,sans-serif;font-size:8px;font-weight:700;letter-spacing:0em;">R0</text>
<text x="281.37" y="124.00" fill="#1B2117" text-anchor="end" style="font-family:'DM Sans','Aventa',Helvetica,Arial,sans-serif;font-size:8px;font-weight:700;letter-spacing:0em;">L1</text>
<text x="752.56" y="285.83" fill="#1B2117" text-anchor="start" style="font-family:'DM Sans','Aventa',Helvetica,Arial,sans-serif;font-size:8px;font-weight:700;letter-spacing:0em;">R1</text>
<text x="1010.00" y="118.00" fill="#1B2117" text-anchor="start" style="font-family:'DM Sans','Aventa',Helvetica,Arial,sans-serif;font-size:9.5px;font-weight:700;letter-spacing:0.18em;">TABELA DE ESTAÇÕES (ao longo da borda L, a cada 0,50 m)</text>
<text x="1010.00" y="138.00" fill="#8B714E" text-anchor="start" style="font-family:'DM Sans','Aventa',Helvetica,Arial,sans-serif;font-size:7.5px;font-weight:400;letter-spacing:0.12em;">s (m)</text>
<text x="1060.00" y="138.00" fill="#8B714E" text-anchor="start" style="font-family:'DM Sans','Aventa',Helvetica,Arial,sans-serif;font-size:7.5px;font-weight:400;letter-spacing:0.12em;">xL</text>
<text x="1120.00" y="138.00" fill="#8B714E" text-anchor="start" style="font-family:'DM Sans','Aventa',Helvetica,Arial,sans-serif;font-size:7.5px;font-weight:400;letter-spacing:0.12em;">yL</text>
<text x="1180.00" y="138.00" fill="#8B714E" text-anchor="start" style="font-family:'DM Sans','Aventa',Helvetica,Arial,sans-serif;font-size:7.5px;font-weight:400;letter-spacing:0.12em;">xR</text>
<text x="1240.00" y="138.00" fill="#8B714E" text-anchor="start" style="font-family:'DM Sans','Aventa',Helvetica,Arial,sans-serif;font-size:7.5px;font-weight:400;letter-spacing:0.12em;">yR</text>
<text x="1300.00" y="138.00" fill="#8B714E" text-anchor="start" style="font-family:'DM Sans','Aventa',Helvetica,Arial,sans-serif;font-size:7.5px;font-weight:400;letter-spacing:0.12em;">largura</text>
<line x1="1010" y1="144" x2="1430" y2="144" stroke="#1B2117" stroke-width="0.6"/>
<text x="1010.00" y="158.00" fill="#1B2117" text-anchor="start" style="font-family:'DM Sans','Aventa',Helvetica,Arial,sans-serif;font-size:7.8px;font-weight:400;letter-spacing:0em;">0,000</text>
<text x="1060.00" y="158.00" fill="#1B2117" text-anchor="start" style="font-family:'DM Sans','Aventa',Helvetica,Arial,sans-serif;font-size:7.8px;font-weight:400;letter-spacing:0em;">0,029</text>
<text x="1120.00" y="158.00" fill="#1B2117" text-anchor="start" style="font-family:'DM Sans','Aventa',Helvetica,Arial,sans-serif;font-size:7.8px;font-weight:400;letter-spacing:0em;">0,189</text>
<text x="1180.00" y="158.00" fill="#1B2117" text-anchor="start" style="font-family:'DM Sans','Aventa',Helvetica,Arial,sans-serif;font-size:7.8px;font-weight:400;letter-spacing:0em;">0,570</text>
<text x="1240.00" y="158.00" fill="#1B2117" text-anchor="start" style="font-family:'DM Sans','Aventa',Helvetica,Arial,sans-serif;font-size:7.8px;font-weight:400;letter-spacing:0em;">0,000</text>
<text x="1300.00" y="158.00" fill="#1B2117" text-anchor="start" style="font-family:'DM Sans','Aventa',Helvetica,Arial,sans-serif;font-size:7.8px;font-weight:400;letter-spacing:0em;">0,574</text>
<text x="1010.00" y="170.50" fill="#1B2117" text-anchor="start" style="font-family:'DM Sans','Aventa',Helvetica,Arial,sans-serif;font-size:7.8px;font-weight:400;letter-spacing:0em;">0,500</text>
<text x="1060.00" y="170.50" fill="#1B2117" text-anchor="start" style="font-family:'DM Sans','Aventa',Helvetica,Arial,sans-serif;font-size:7.8px;font-weight:400;letter-spacing:0em;">0,012</text>
<text x="1120.00" y="170.50" fill="#1B2117" text-anchor="start" style="font-family:'DM Sans','Aventa',Helvetica,Arial,sans-serif;font-size:7.8px;font-weight:400;letter-spacing:0em;">0,689</text>
<text x="1180.00" y="170.50" fill="#1B2117" text-anchor="start" style="font-family:'DM Sans','Aventa',Helvetica,Arial,sans-serif;font-size:7.8px;font-weight:400;letter-spacing:0em;">0,895</text>
<text x="1240.00" y="170.50" fill="#1B2117" text-anchor="start" style="font-family:'DM Sans','Aventa',Helvetica,Arial,sans-serif;font-size:7.8px;font-weight:400;letter-spacing:0em;">0,381</text>
<text x="1300.00" y="170.50" fill="#1B2117" text-anchor="start" style="font-family:'DM Sans','Aventa',Helvetica,Arial,sans-serif;font-size:7.8px;font-weight:400;letter-spacing:0em;">0,935</text>
<text x="1010.00" y="183.00" fill="#1B2117" text-anchor="start" style="font-family:'DM Sans','Aventa',Helvetica,Arial,sans-serif;font-size:7.8px;font-weight:400;letter-spacing:0em;">1,000</text>
<text x="1060.00" y="183.00" fill="#1B2117" text-anchor="start" style="font-family:'DM Sans','Aventa',Helvetica,Arial,sans-serif;font-size:7.8px;font-weight:400;letter-spacing:0em;">0,004</text>
<text x="1120.00" y="183.00" fill="#1B2117" text-anchor="start" style="font-family:'DM Sans','Aventa',Helvetica,Arial,sans-serif;font-size:7.8px;font-weight:400;letter-spacing:0em;">1,189</text>
<text x="1180.00" y="183.00" fill="#1B2117" text-anchor="start" style="font-family:'DM Sans','Aventa',Helvetica,Arial,sans-serif;font-size:7.8px;font-weight:400;letter-spacing:0em;">1,212</text>
<text x="1240.00" y="183.00" fill="#1B2117" text-anchor="start" style="font-family:'DM Sans','Aventa',Helvetica,Arial,sans-serif;font-size:7.8px;font-weight:400;letter-spacing:0em;">0,767</text>
<text x="1300.00" y="183.00" fill="#1B2117" text-anchor="start" style="font-family:'DM Sans','Aventa',Helvetica,Arial,sans-serif;font-size:7.8px;font-weight:400;letter-spacing:0em;">1,280</text>
<text x="1010.00" y="195.50" fill="#1B2117" text-anchor="start" style="font-family:'DM Sans','Aventa',Helvetica,Arial,sans-serif;font-size:7.8px;font-weight:400;letter-spacing:0em;">1,500</text>
<text x="1060.00" y="195.50" fill="#1B2117" text-anchor="start" style="font-family:'DM Sans','Aventa',Helvetica,Arial,sans-serif;font-size:7.8px;font-weight:400;letter-spacing:0em;">0,000</text>
<text x="1120.00" y="195.50" fill="#1B2117" text-anchor="start" style="font-family:'DM Sans','Aventa',Helvetica,Arial,sans-serif;font-size:7.8px;font-weight:400;letter-spacing:0em;">1,689</text>
<text x="1180.00" y="195.50" fill="#1B2117" text-anchor="start" style="font-family:'DM Sans','Aventa',Helvetica,Arial,sans-serif;font-size:7.8px;font-weight:400;letter-spacing:0em;">1,526</text>
<text x="1240.00" y="195.50" fill="#1B2117" text-anchor="start" style="font-family:'DM Sans','Aventa',Helvetica,Arial,sans-serif;font-size:7.8px;font-weight:400;letter-spacing:0em;">1,156</text>
<text x="1300.00" y="195.50" fill="#1B2117" text-anchor="start" style="font-family:'DM Sans','Aventa',Helvetica,Arial,sans-serif;font-size:7.8px;font-weight:400;letter-spacing:0em;">1,616</text>
<text x="1010.00" y="208.00" fill="#1B2117" text-anchor="start" style="font-family:'DM Sans','Aventa',Helvetica,Arial,sans-serif;font-size:7.8px;font-weight:400;letter-spacing:0em;">2,000</text>
<text x="1060.00" y="208.00" fill="#1B2117" text-anchor="start" style="font-family:'DM Sans','Aventa',Helvetica,Arial,sans-serif;font-size:7.8px;font-weight:400;letter-spacing:0em;">0,000</text>
<text x="1120.00" y="208.00" fill="#1B2117" text-anchor="start" style="font-family:'DM Sans','Aventa',Helvetica,Arial,sans-serif;font-size:7.8px;font-weight:400;letter-spacing:0em;">2,189</text>
<text x="1180.00" y="208.00" fill="#1B2117" text-anchor="start" style="font-family:'DM Sans','Aventa',Helvetica,Arial,sans-serif;font-size:7.8px;font-weight:400;letter-spacing:0em;">1,838</text>
<text x="1240.00" y="208.00" fill="#1B2117" text-anchor="start" style="font-family:'DM Sans','Aventa',Helvetica,Arial,sans-serif;font-size:7.8px;font-weight:400;letter-spacing:0em;">1,547</text>
<text x="1300.00" y="208.00" fill="#1B2117" text-anchor="start" style="font-family:'DM Sans','Aventa',Helvetica,Arial,sans-serif;font-size:7.8px;font-weight:400;letter-spacing:0em;">1,946</text>
<text x="1010.00" y="220.50" fill="#1B2117" text-anchor="start" style="font-family:'DM Sans','Aventa',Helvetica,Arial,sans-serif;font-size:7.8px;font-weight:400;letter-spacing:0em;">2,500</text>
<text x="1060.00" y="220.50" fill="#1B2117" text-anchor="start" style="font-family:'DM Sans','Aventa',Helvetica,Arial,sans-serif;font-size:7.8px;font-weight:400;letter-spacing:0em;">0,003</text>
<text x="1120.00" y="220.50" fill="#1B2117" text-anchor="start" style="font-family:'DM Sans','Aventa',Helvetica,Arial,sans-serif;font-size:7.8px;font-weight:400;letter-spacing:0em;">2,689</text>
<text x="1180.00" y="220.50" fill="#1B2117" text-anchor="start" style="font-family:'DM Sans','Aventa',Helvetica,Arial,sans-serif;font-size:7.8px;font-weight:400;letter-spacing:0em;">2,147</text>
<text x="1240.00" y="220.50" fill="#1B2117" text-anchor="start" style="font-family:'DM Sans','Aventa',Helvetica,Arial,sans-serif;font-size:7.8px;font-weight:400;letter-spacing:0em;">1,940</text>
<text x="1300.00" y="220.50" fill="#1B2117" text-anchor="start" style="font-family:'DM Sans','Aventa',Helvetica,Arial,sans-serif;font-size:7.8px;font-weight:400;letter-spacing:0em;">2,271</text>
<text x="1010.00" y="233.00" fill="#1B2117" text-anchor="start" style="font-family:'DM Sans','Aventa',Helvetica,Arial,sans-serif;font-size:7.8px;font-weight:400;letter-spacing:0em;">3,000</text>
<text x="1060.00" y="233.00" fill="#1B2117" text-anchor="start" style="font-family:'DM Sans','Aventa',Helvetica,Arial,sans-serif;font-size:7.8px;font-weight:400;letter-spacing:0em;">0,008</text>
<text x="1120.00" y="233.00" fill="#1B2117" text-anchor="start" style="font-family:'DM Sans','Aventa',Helvetica,Arial,sans-serif;font-size:7.8px;font-weight:400;letter-spacing:0em;">3,189</text>
<text x="1180.00" y="233.00" fill="#1B2117" text-anchor="start" style="font-family:'DM Sans','Aventa',Helvetica,Arial,sans-serif;font-size:7.8px;font-weight:400;letter-spacing:0em;">2,454</text>
<text x="1240.00" y="233.00" fill="#1B2117" text-anchor="start" style="font-family:'DM Sans','Aventa',Helvetica,Arial,sans-serif;font-size:7.8px;font-weight:400;letter-spacing:0em;">2,334</text>
<text x="1300.00" y="233.00" fill="#1B2117" text-anchor="start" style="font-family:'DM Sans','Aventa',Helvetica,Arial,sans-serif;font-size:7.8px;font-weight:400;letter-spacing:0em;">2,591</text>
<text x="1010.00" y="245.50" fill="#1B2117" text-anchor="start" style="font-family:'DM Sans','Aventa',Helvetica,Arial,sans-serif;font-size:7.8px;font-weight:400;letter-spacing:0em;">3,500</text>
<text x="1060.00" y="245.50" fill="#1B2117" text-anchor="start" style="font-family:'DM Sans','Aventa',Helvetica,Arial,sans-serif;font-size:7.8px;font-weight:400;letter-spacing:0em;">0,015</text>
<text x="1120.00" y="245.50" fill="#1B2117" text-anchor="start" style="font-family:'DM Sans','Aventa',Helvetica,Arial,sans-serif;font-size:7.8px;font-weight:400;letter-spacing:0em;">3,689</text>
<text x="1180.00" y="245.50" fill="#1B2117" text-anchor="start" style="font-family:'DM Sans','Aventa',Helvetica,Arial,sans-serif;font-size:7.8px;font-weight:400;letter-spacing:0em;">2,760</text>
<text x="1240.00" y="245.50" fill="#1B2117" text-anchor="start" style="font-family:'DM Sans','Aventa',Helvetica,Arial,sans-serif;font-size:7.8px;font-weight:400;letter-spacing:0em;">2,730</text>
<text x="1300.00" y="245.50" fill="#1B2117" text-anchor="start" style="font-family:'DM Sans','Aventa',Helvetica,Arial,sans-serif;font-size:7.8px;font-weight:400;letter-spacing:0em;">2,907</text>
<text x="1010.00" y="258.00" fill="#1B2117" text-anchor="start" style="font-family:'DM Sans','Aventa',Helvetica,Arial,sans-serif;font-size:7.8px;font-weight:400;letter-spacing:0em;">4,000</text>
<text x="1060.00" y="258.00" fill="#1B2117" text-anchor="start" style="font-family:'DM Sans','Aventa',Helvetica,Arial,sans-serif;font-size:7.8px;font-weight:400;letter-spacing:0em;">0,024</text>
<text x="1120.00" y="258.00" fill="#1B2117" text-anchor="start" style="font-family:'DM Sans','Aventa',Helvetica,Arial,sans-serif;font-size:7.8px;font-weight:400;letter-spacing:0em;">4,189</text>
<text x="1180.00" y="258.00" fill="#1B2117" text-anchor="start" style="font-family:'DM Sans','Aventa',Helvetica,Arial,sans-serif;font-size:7.8px;font-weight:400;letter-spacing:0em;">3,064</text>
<text x="1240.00" y="258.00" fill="#1B2117" text-anchor="start" style="font-family:'DM Sans','Aventa',Helvetica,Arial,sans-serif;font-size:7.8px;font-weight:400;letter-spacing:0em;">3,127</text>
<text x="1300.00" y="258.00" fill="#1B2117" text-anchor="start" style="font-family:'DM Sans','Aventa',Helvetica,Arial,sans-serif;font-size:7.8px;font-weight:400;letter-spacing:0em;">3,220</text>
<text x="1010.00" y="270.50" fill="#1B2117" text-anchor="start" style="font-family:'DM Sans','Aventa',Helvetica,Arial,sans-serif;font-size:7.8px;font-weight:400;letter-spacing:0em;">4,500</text>
<text x="1060.00" y="270.50" fill="#1B2117" text-anchor="start" style="font-family:'DM Sans','Aventa',Helvetica,Arial,sans-serif;font-size:7.8px;font-weight:400;letter-spacing:0em;">0,030</text>
<text x="1120.00" y="270.50" fill="#1B2117" text-anchor="start" style="font-family:'DM Sans','Aventa',Helvetica,Arial,sans-serif;font-size:7.8px;font-weight:400;letter-spacing:0em;">4,689</text>
<text x="1180.00" y="270.50" fill="#1B2117" text-anchor="start" style="font-family:'DM Sans','Aventa',Helvetica,Arial,sans-serif;font-size:7.8px;font-weight:400;letter-spacing:0em;">3,371</text>
<text x="1240.00" y="270.50" fill="#1B2117" text-anchor="start" style="font-family:'DM Sans','Aventa',Helvetica,Arial,sans-serif;font-size:7.8px;font-weight:400;letter-spacing:0em;">3,521</text>
<text x="1300.00" y="270.50" fill="#1B2117" text-anchor="start" style="font-family:'DM Sans','Aventa',Helvetica,Arial,sans-serif;font-size:7.8px;font-weight:400;letter-spacing:0em;">3,539</text>
<text x="1010.00" y="291.00" fill="#1B2117" text-anchor="start" style="font-family:'DM Sans','Aventa',Helvetica,Arial,sans-serif;font-size:9.5px;font-weight:700;letter-spacing:0.18em;">DADOS DO PAINEL</text>
<text x="1010.00" y="307.00" fill="#8B714E" text-anchor="start" style="font-family:'DM Sans','Aventa',Helvetica,Arial,sans-serif;font-size:7px;font-weight:400;letter-spacing:0.14em;">QUANTIDADE</text>
<text x="1010.00" y="317.00" fill="#1B2117" text-anchor="start" style="font-family:'DM Sans','Aventa',Helvetica,Arial,sans-serif;font-size:8.2px;font-weight:400;letter-spacing:0em;">8 (códigos: G1, G2, G3, G4, G5, G6, G7, G8)</text>
<text x="1010.00" y="331.00" fill="#8B714E" text-anchor="start" style="font-family:'DM Sans','Aventa',Helvetica,Arial,sans-serif;font-size:7px;font-weight:400;letter-spacing:0.14em;">ÁREA DE FORMA FINAL</text>
<text x="1010.00" y="341.00" fill="#1B2117" text-anchor="start" style="font-family:'DM Sans','Aventa',Helvetica,Arial,sans-serif;font-size:8.2px;font-weight:400;letter-spacing:0em;">9,00 m²</text>
<text x="1010.00" y="355.00" fill="#8B714E" text-anchor="start" style="font-family:'DM Sans','Aventa',Helvetica,Arial,sans-serif;font-size:7px;font-weight:400;letter-spacing:0.14em;">COMPRIMENTO L / R</text>
<text x="1010.00" y="365.00" fill="#1B2117" text-anchor="start" style="font-family:'DM Sans','Aventa',Helvetica,Arial,sans-serif;font-size:8.2px;font-weight:400;letter-spacing:0em;">4,53 / 4,53 m</text>
<text x="1010.00" y="379.00" fill="#8B714E" text-anchor="start" style="font-family:'DM Sans','Aventa',Helvetica,Arial,sans-serif;font-size:7px;font-weight:400;letter-spacing:0.14em;">CAIXA (LARG. X ALT.)</text>
<text x="1010.00" y="389.00" fill="#1B2117" text-anchor="start" style="font-family:'DM Sans','Aventa',Helvetica,Arial,sans-serif;font-size:8.2px;font-weight:400;letter-spacing:0em;">3,39 x 4,72 m</text>
<text x="1010.00" y="403.00" fill="#8B714E" text-anchor="start" style="font-family:'DM Sans','Aventa',Helvetica,Arial,sans-serif;font-size:7px;font-weight:400;letter-spacing:0.14em;">MATERIAL</text>
<text x="1010.00" y="413.00" fill="#1B2117" text-anchor="start" style="font-family:'DM Sans','Aventa',Helvetica,Arial,sans-serif;font-size:8.2px;font-weight:400;letter-spacing:0em;">PVDF tipo II 1050 g/m², creme Zion; 8 gomos soldados em fábrica numa peça</text>
<text x="1010.00" y="424.00" fill="#1B2117" text-anchor="start" style="font-family:'DM Sans','Aventa',Helvetica,Arial,sans-serif;font-size:8.2px;font-weight:400;letter-spacing:0em;">única (≈ 73 m²) com abertura central Ø1,50</text>
<text x="1010.00" y="444.00" fill="#1B2117" text-anchor="start" style="font-family:'DM Sans','Aventa',Helvetica,Arial,sans-serif;font-size:9.5px;font-weight:700;letter-spacing:0.18em;">BORDAS E RECORTES</text>
<line x1="1010" y1="455.0" x2="1036" y2="455.0" stroke="#C2734A" stroke-width="1.6"/>
<text x="1044.00" y="458.00" fill="#1B2117" text-anchor="start" style="font-family:'DM Sans','Aventa',Helvetica,Arial,sans-serif;font-size:7.8px;font-weight:400;letter-spacing:0em;">SOLDA HF · emenda de fábrica, sobreposição 40 mm</text>
<line x1="1010" y1="467.5" x2="1036" y2="467.5" stroke="#8B714E" stroke-width="3.0"/>
<text x="1044.00" y="470.50" fill="#1B2117" text-anchor="start" style="font-family:'DM Sans','Aventa',Helvetica,Arial,sans-serif;font-size:7.8px;font-weight:400;letter-spacing:0em;">CLAMP · barra de alumínio 40 x 6 parafusada (M8 @150) sobre EPDM</text>
<line x1="1010" y1="480.0" x2="1036" y2="480.0" stroke="#3A3B3A" stroke-width="3.0"/>
<text x="1044.00" y="483.00" fill="#1B2117" text-anchor="start" style="font-family:'DM Sans','Aventa',Helvetica,Arial,sans-serif;font-size:7.8px;font-weight:400;letter-spacing:0em;">BOLSA DE CABO · cabo inox Ø12 com esticador, chapa de canto</text>
<text x="60.00" y="830.00" fill="#1B2117" text-anchor="start" style="font-family:'DM Sans','Aventa',Helvetica,Arial,sans-serif;font-size:9.5px;font-weight:700;letter-spacing:0.18em;">NOTAS</text>
<text x="60.00" y="844.00" fill="#1B2117" text-anchor="start" style="font-family:'DM Sans','Aventa',Helvetica,Arial,sans-serif;font-size:8px;font-weight:400;letter-spacing:0em;">· Padrão = geometria de forma final da superfície entre as costuras; o confeccionista aplica a compensação do tecido (ensaio biaxial; típico 0,5 a 1,5</text>
<text x="60.00" y="854.50" fill="#1B2117" text-anchor="start" style="font-family:'DM Sans','Aventa',Helvetica,Arial,sans-serif;font-size:8px;font-weight:400;letter-spacing:0em;">% no urdume e 2 a 4 % na trama) e as sobras de bolsa/keder.</text>
<text x="60.00" y="866.00" fill="#1B2117" text-anchor="start" style="font-family:'DM Sans','Aventa',Helvetica,Arial,sans-serif;font-size:8px;font-weight:400;letter-spacing:0em;">· Origem (0; 0) no canto inferior esquerdo da caixa; eixo x horizontal, y vertical; L0 → L1 é a borda esquerda (costura de referência), R0 → R1 a</text>
<text x="60.00" y="876.50" fill="#1B2117" text-anchor="start" style="font-family:'DM Sans','Aventa',Helvetica,Arial,sans-serif;font-size:8px;font-weight:400;letter-spacing:0em;">direita; estações medidas ao longo de L.</text>
<text x="60.00" y="888.00" fill="#1B2117" text-anchor="start" style="font-family:'DM Sans','Aventa',Helvetica,Arial,sans-serif;font-size:8px;font-weight:400;letter-spacing:0em;">· Marcar em cada painel: código, modelo, orientação (L/R, base), linhas de presilha e centros dos recortes; etiqueta de tecido cosida no verso.</text>
<text x="60.00" y="899.50" fill="#1B2117" text-anchor="start" style="font-family:'DM Sans','Aventa',Helvetica,Arial,sans-serif;font-size:8px;font-weight:400;letter-spacing:0em;">· Todos os gomos são iguais (octógono regular): confeccionar 1 gabarito e 8 peças; borda com bolsa de cabo Ø10 e pingadeira no perfil de beiral I01.</text>
<rect x="1010" y="880" width="560" height="96" fill="#FEF5F0" stroke="#1B2117" stroke-width="1.2"/>
<line x1="1210" y1="880" x2="1210" y2="976" stroke="#1B2117" stroke-width="0.8"/>
<line x1="1010" y1="926" x2="1570" y2="926" stroke="#1B2117" stroke-width="0.8"/>
<g transform="translate(1024.00,889.00) scale(0.2800)"><polygon points="0,0 100,0 100,12.5 93.4,12.5 74.1,25.5 0,25.5" fill="#1B2117"/><polygon points="74.1,25.5 100,25.5 100,62.7 49.4,62.7 31.2,75 0,75" fill="#1B2117"/><polygon points="0,87.7 74.5,87.7 100,68.9 100,100 0,100" fill="#1B2117"/></g>
<g transform="translate(1064.00,891.00) scale(0.1188) translate(-104,-439)"><polygon points="135,481 216,481 216,496 122,562 215,562 215,576 104,576 104,559 194,496 135,496" fill="#1B2117"/><rect x="232" y="481" width="15" height="95" fill="#1B2117"/><circle cx="308" cy="528.5" r="39.75" fill="none" stroke="#1B2117" stroke-width="15.5"/><polygon points="369,481 383,481 383,576 369,576" fill="#1B2117"/><polygon points="373,481 394,481 486,576 463,576" fill="#1B2117"/><polygon points="474,508 489,508 489,576 474,576" fill="#1B2117"/><rect x="542" y="439" width="2.2" height="201" fill="#1B2117"/><text x="597" y="516" fill="#1B2117" style="font-family:'DM Sans','Aventa',Helvetica,Arial,sans-serif;font-weight:300;font-size:48px;letter-spacing:0.02em" textLength="339" lengthAdjust="spacingAndGlyphs">HOTEL GROUP</text><text x="597" y="576" fill="#1B2117" style="font-family:'DM Sans','Aventa',Helvetica,Arial,sans-serif;font-weight:300;font-size:48px;letter-spacing:0.02em" textLength="378" lengthAdjust="spacingAndGlyphs">INTERNATIONAL</text></g>
<text x="1110.00" y="948.00" fill="#1B2117" text-anchor="middle" style="font-family:'DM Sans','Aventa',Helvetica,Arial,sans-serif;font-size:12px;font-weight:700;letter-spacing:0.2em;">ZION LODGE 38</text>
<text x="1110.00" y="964.00" fill="#8B714E" text-anchor="middle" style="font-family:'DM Sans','Aventa',Helvetica,Arial,sans-serif;font-size:7.5px;font-weight:400;letter-spacing:0.2em;">ZION GLAMPING COLLECTION</text>
<text x="1224.00" y="902.00" fill="#1B2117" text-anchor="start" style="font-family:'DM Sans','Aventa',Helvetica,Arial,sans-serif;font-size:14px;font-weight:700;letter-spacing:0.12em;">PADRÃO DE CORTE G1</text>
<text x="1224.00" y="918.00" fill="#8B714E" text-anchor="start" style="font-family:'DM Sans','Aventa',Helvetica,Arial,sans-serif;font-size:10px;font-weight:400;letter-spacing:0em;">Lona Externa</text>
<text x="1224.00" y="946.00" fill="#1B2117" text-anchor="start" style="font-family:'DM Sans','Aventa',Helvetica,Arial,sans-serif;font-size:10px;font-weight:400;letter-spacing:0.15em;">ESCALA ver malha (m)</text>
<text x="1224.00" y="964.00" fill="#8B714E" text-anchor="start" style="font-family:'DM Sans','Aventa',Helvetica,Arial,sans-serif;font-size:8px;font-weight:400;letter-spacing:0.1em;">PROJETO CONCEITUAL · ESTUDO PRELIMINAR</text>
<text x="1556.00" y="946.00" fill="#1B2117" text-anchor="end" style="font-family:'DM Sans','Aventa',Helvetica,Arial,sans-serif;font-size:10px;font-weight:600;letter-spacing:0.15em;">FOLHA LN-11</text>
<text x="1556.00" y="964.00" fill="#8B714E" text-anchor="end" style="font-family:'DM Sans','Aventa',Helvetica,Arial,sans-serif;font-size:8px;font-weight:400;letter-spacing:0.15em;">SET 2026</text></svg>