  0
SECTION
  2
HEADER
  9
$ACADVER
  1
AC1024
  9
$ACADMAINTVER
 70
6
  9
$DWGCODEPAGE
  3
ANSI_1252
  9
$LASTSAVEDBY
  1
ezdxf
  9
$INSBASE
 10
0.0
 20
0.0
 30
0.0
  9
$EXTMIN
 10
1e+20
 20
1e+20
 30
1e+20
  9
$EXTMAX
 10
-1e+20
 20
-1e+20
 30
-1e+20
  9
$LIMMIN
 10
0.0
 20
0.0
  9
$LIMMAX
 10
420.0
 20
297.0
  9
$ORTHOMODE
 70
0
  9
$REGENMODE
 70
1
  9
$FILLMODE
 70
1
  9
$QTEXTMODE
 70
0
  9
$MIRRTEXT
 70
1
  9
$LTSCALE
 40
1.0
  9
$ATTMODE
 70
1
  9
$TEXTSIZE
 40
2.5
  9
$TRACEWID
 40
1.0
  9
$TEXTSTYLE
  7
Standard
  9
$CLAYER
  8
0
  9
$CELTYPE
  6
ByLayer
  9
$CECOLOR
 62
256
  9
$CELTSCALE
 40
1.0
  9
$DISPSILH
 70
0
  9
$DIMSCALE
 40
1.0
  9
$DIMASZ
 40
2.5
  9
$DIMEXO
 40
0.625
  9
$DIMDLI
 40
3.75
  9
$DIMRND
 40
0.0
  9
$DIMDLE
 40
0.0
  9
$DIMEXE
 40
1.25
  9
$DIMTP
 40
0.0
  9
$DIMTM
 40
0.0
  9
$DIMTXT
 40
2.5
  9
$DIMCEN
 40
2.5
  9
$DIMTSZ
 40
0.0
  9
$DIMTOL
 70
0
  9
$DIMLIM
 70
0
  9
$DIMTIH
 70
0
  9
$DIMTOH
 70
0
  9
$DIMSE1
 70
0
  9
$DIMSE2
 70
0
  9
$DIMTAD
 70
1
  9
$DIMZIN
 70
8
  9
$DIMBLK
  1

  9
$DIMASO
 70
1
  9
$DIMSHO
 70
1
  9
$DIMPOST
  1

  9
$DIMAPOST
  1

  9
$DIMALT
 70
0
  9
$DIMALTD
 70
3
  9
$DIMALTF
 40
0.03937007874
  9
$DIMLFAC
 40
1.0
  9
$DIMTOFL
 70
1
  9
$DIMTVP
 40
0.0
  9
$DIMTIX
 70
0
  9
$DIMSOXD
 70
0
  9
$DIMSAH
 70
0
  9
$DIMBLK1
  1

  9
$DIMBLK2
  1

  9
$DIMSTYLE
  2
ISO-25
  9
$DIMCLRD
 70
0
  9
$DIMCLRE
 70
0
  9
$DIMCLRT
 70
0
  9
$DIMTFAC
 40
1.0
  9
$DIMGAP
 40
0.625
  9
$DIMJUST
 70
0
  9
$DIMSD1
 70
0
  9
$DIMSD2
 70
0
  9
$DIMTOLJ
 70
0
  9
$DIMTZIN
 70
8
  9
$DIMALTZ
 70
0
  9
$DIMALTTZ
 70
0
  9
$DIMUPT
 70
0
  9
$DIMDEC
 70
2
  9
$DIMTDEC
 70
2
  9
$DIMALTU
 70
2
  9
$DIMALTTD
 70
3
  9
$DIMTXSTY
  7
Standard
  9
$DIMAUNIT
 70
0
  9
$DIMADEC
 70
0
  9
$DIMALTRND
 40
0.0
  9
$DIMAZIN
 70
0
  9
$DIMDSEP
 70
44
  9
$DIMATFIT
 70
3
  9
$DIMFRAC
 70
0
  9
$DIMLDRBLK
  1

  9
$DIMLUNIT
 70
2
  9
$DIMLWD
 70
-2
  9
$DIMLWE
 70
-2
  9
$DIMTMOVE
 70
0
  9
$DIMFXL
 40
1.0
  9
$DIMFXLON
 70
0
  9
$DIMJOGANG
 40
0.785398163397
  9
$DIMTFILL
 70
0
  9
$DIMTFILLCLR
 70
0
  9
$DIMARCSYM
 70
0
  9
$DIMLTYPE
  6

  9
$DIMLTEX1
  6

  9
$DIMLTEX2
  6

  9
$DIMTXTDIRECTION
 70
0
  9
$LUNITS
 70
2
  9
$LUPREC
 70
4
  9
$SKETCHINC
 40
1.0
  9
$FILLETRAD
 40
10.0
  9
$AUNITS
 70
0
  9
$AUPREC
 70
2
  9
$MENU
  1
.
  9
$ELEVATION
 40
0.0
  9
$PELEVATION
 40
0.0
  9
$THICKNESS
 40
0.0
  9
$LIMCHECK
 70
0
  9
$CHAMFERA
 40
0.0
  9
$CHAMFERB
 40
0.0
  9
$CHAMFERC
 40
0.0
  9
$CHAMFERD
 40
0.0
  9
$SKPOLY
 70
0
  9
$TDCREATE
 40
2461301.701770833
  9
$TDUCREATE
 40
2458532.153996898
  9
$TDUPDATE
 40
2461301.701770833
  9
$TDUUPDATE
 40
2458532.1544311
  9
$TDINDWG
 40
0.0
  9
$TDUSRTIMER
 40
0.0
  9
$USRTIMER
 70
1
  9
$ANGBASE
 50
0.0
  9
$ANGDIR
 70
0
  9
$PDMODE
 70
0
  9
$PDSIZE
 40
0.0
  9
$PLINEWID
 40
0.0
  9
$SPLFRAME
 70
0
  9
$SPLINETYPE
 70
6
  9
$SPLINESEGS
 70
8
  9
$HANDSEED
  5
49
  9
$SURFTAB1
 70
6
  9
$SURFTAB2
 70
6
  9
$SURFTYPE
 70
6
  9
$SURFU
 70
6
  9
$SURFV
 70
6
  9
$UCSBASE
  2

  9
$UCSNAME
  2

  9
$UCSORG
 10
0.0
 20
0.0
 30
0.0
  9
$UCSXDIR
 10
1.0
 20
0.0
 30
0.0
  9
$UCSYDIR
 10
0.0
 20
1.0
 30
0.0
  9
$UCSORTHOREF
  2

  9
$UCSORTHOVIEW
 70
0
  9
$UCSORGTOP
 10
0.0
 20
0.0
 30
0.0
  9
$UCSORGBOTTOM
 10
0.0
 20
0.0
 30
0.0
  9
$UCSORGLEFT
 10
0.0
 20
0.0
 30
0.0
  9
$UCSORGRIGHT
 10
0.0
 20
0.0
 30
0.0
  9
$UCSORGFRONT
 10
0.0
 20
0.0
 30
0.0
  9
$UCSORGBACK
 10
0.0
 20
0.0
 30
0.0
  9
$PUCSBASE
  2

  9
$PUCSNAME
  2

  9
$PUCSORG
 10
0.0
 20
0.0
 30
0.0
  9
$PUCSXDIR
 10
1.0
 20
0.0
 30
0.0
  9
$PUCSYDIR
 10
0.0
 20
1.0
 30
0.0
  9
$PUCSORTHOREF
  2

  9
$PUCSORTHOVIEW
 70
0
  9
$PUCSORGTOP
 10
0.0
 20
0.0
 30
0.0
  9
$PUCSORGBOTTOM
 10
0.0
 20
0.0
 30
0.0
  9
$PUCSORGLEFT
 10
0.0
 20
0.0
 30
0.0
  9
$PUCSORGRIGHT
 10
0.0
 20
0.0
 30
0.0
  9
$PUCSORGFRONT
 10
0.0
 20
0.0
 30
0.0
  9
$PUCSORGBACK
 10
0.0
 20
0.0
 30
0.0
  9
$USERI1
 70
0
  9
$USERI2
 70
0
  9
$USERI3
 70
0
  9
$USERI4
 70
0
  9
$USERI5
 70
0
  9
$USERR1
 40
0.0
  9
$USERR2
 40
0.0
  9
$USERR3
 40
0.0
  9
$USERR4
 40
0.0
  9
$USERR5
 40
0.0
  9
$WORLDVIEW
 70
1
  9
$SHADEDGE
 70
3
  9
$SHADEDIF
 70
70
  9
$TILEMODE
 70
1
  9
$MAXACTVP
 70
64
  9
$PINSBASE
 10
0.0
 20
0.0
 30
0.0
  9
$PLIMCHECK
 70
0
  9
$PEXTMIN
 10
1e+20
 20
1e+20
 30
1e+20
  9
$PEXTMAX
 10
-1e+20
 20
-1e+20
 30
-1e+20
  9
$PLIMMIN
 10
0.0
 20
0.0
  9
$PLIMMAX
 10
420.0
 20
297.0
  9
$UNITMODE
 70
0
  9
$VISRETAIN
 70
1
  9
$PLINEGEN
 70
0
  9
$PSLTSCALE
 70
1
  9
$TREEDEPTH
 70
3020
  9
$CMLSTYLE
  2
Standard
  9
$CMLJUST
 70
0
  9
$CMLSCALE
 40
20.0
  9
$PROXYGRAPHICS
 70
1
  9
$MEASUREMENT
 70
1
  9
$CELWEIGHT
370
-1
  9
$ENDCAPS
280
0
  9
$JOINSTYLE
280
0
  9
$LWDISPLAY
290
0
  9
$INSUNITS
 70
6
  9
$HYPERLINKBASE
  1

  9
$STYLESHEET
  1

  9
$XEDIT
290
1
  9
$CEPSNTYPE
380
0
  9
$PSTYLEMODE
290
1
  9
$FINGERPRINTGUID
  2
{BA7CE979-AD54-4421-A663-BEB4D6BCBA4F}
  9
$VERSIONGUID
  2
{2208F8A4-389D-4D92-BBC7-9E4C50D9EB10}
  9
$EXTNAMES
290
1
  9
$PSVPSCALE
 40
0.0
  9
$OLESTARTUP
290
0
  9
$SORTENTS
280
127
  9
$INDEXCTL
280
0
  9
$HIDETEXT
280
1
  9
$XCLIPFRAME
280
1
  9
$HALOGAP
280
0
  9
$OBSCOLOR
 70
257
  9
$OBSLTYPE
280
0
  9
$INTERSECTIONDISPLAY
280
0
  9
$INTERSECTIONCOLOR
 70
257
  9
$DIMASSOC
280
2
  9
$PROJECTNAME
  1

  9
$CAMERADISPLAY
290
0
  9
$LENSLENGTH
 40
50.0
  9
$CAMERAHEIGHT
 40
0.0
  9
$STEPSPERSEC
 40
24.0
  9
$STEPSIZE
 40
100.0
  9
$3DDWFPREC
 40
2.0
  9
$PSOLWIDTH
 40
0.005
  9
$PSOLHEIGHT
 40
0.08
  9
$LOFTANG1
 40
1.570796326795
  9
$LOFTANG2
 40
1.570796326795
  9
$LOFTMAG1
 40
0.0
  9
$LOFTMAG2
 40
0.0
  9
$LOFTPARAM
 70
7
  9
$LOFTNORMALS
280
1
  9
$LATITUDE
 40
37.795
  9
$LONGITUDE
 40
-122.394
  9
$NORTHDIRECTION
 40
0.0
  9
$TIMEZONE
 70
-8000
  9
$LIGHTGLYPHDISPLAY
280
1
  9
$TILEMODELIGHTSYNCH
280
1
  9
$CMATERIAL
347
20
  9
$SOLIDHIST
280
0
  9
$SHOWHIST
280
1
  9
$DWFFRAME
280
2
  9
$DGNFRAME
280
2
  9
$REALWORLDSCALE
290
1
  9
$INTERFERECOLOR
 62
256
  9
$CSHADOW
280
0
  9
$SHADOWPLANELOCATION
 40
0.0
  0
ENDSEC
  0
SECTION
  2
CLASSES
  0
CLASS
  1
ACDBDICTIONARYWDFLT
  2
AcDbDictionaryWithDefault
  3
ObjectDBX Classes
 90
0
 91
0
280
0
281
0
  0
CLASS
  1
SUN
  2
AcDbSun
  3
SCENEOE
 90
1153
 91
0
280
0
281
0
  0
CLASS
  1
VISUALSTYLE
  2
AcDbVisualStyle
  3
ObjectDBX Classes
 90
4095
 91
0
280
0
281
0
  0
CLASS
  1
MATERIAL
  2
AcDbMaterial
  3
ObjectDBX Classes
 90
1153
 91
0
280
0
281
0
  0
CLASS
  1
SCALE
  2
AcDbScale
  3
ObjectDBX Classes
 90
1153
 91
0
280
0
281
0
  0
CLASS
  1
TABLESTYLE
  2
AcDbTableStyle
  3
ObjectDBX Classes
 90
4095
 91
0
280
0
281
0
  0
CLASS
  1
MLEADERSTYLE
  2
AcDbMLeaderStyle
  3
ACDB_MLEADERSTYLE_CLASS
 90
4095
 91
0
280
0
281
0
  0
CLASS
  1
DICTIONARYVAR
  2
AcDbDictionaryVar
  3
ObjectDBX Classes
 90
0
 91
0
280
0
281
0
  0
CLASS
  1
CELLSTYLEMAP
  2
AcDbCellStyleMap
  3
ObjectDBX Classes
 90
1152
 91
0
280
0
281
0
  0
CLASS
  1
MENTALRAYRENDERSETTINGS
  2
AcDbMentalRayRenderSettings
  3
SCENEOE
 90
1024
 91
0
280
0
281
0
  0
CLASS
  1
ACDBDETAILVIEWSTYLE
  2
AcDbDetailViewStyle
  3
ObjectDBX Classes
 90
1025
 91
0
280
0
281
0
  0
CLASS
  1
ACDBSECTIONVIEWSTYLE
  2
AcDbSectionViewStyle
  3
ObjectDBX Classes
 90
1025
 91
0
280
0
281
0
  0
CLASS
  1
RASTERVARIABLES
  2
AcDbRasterVariables
  3
ISM
 90
0
 91
0
280
0
281
0
  0
CLASS
  1
ACDBPLACEHOLDER
  2
AcDbPlaceHolder
  3
ObjectDBX Classes
 90
0
 91
0
280
0
281
0
  0
CLASS
  1
LAYOUT
  2
AcDbLayout
  3
ObjectDBX Classes
 90
0
 91
0
280
0
281
0
  0
ENDSEC
  0
SECTION
  2
TABLES
  0
TABLE
  2
VPORT
  5
8
330
0
100
AcDbSymbolTable
 70
1
  0
VPORT
  5
23
330
8
100
AcDbSymbolTableRecord
100
AcDbViewportTableRecord
  2
*Active
 70
0
 10
0.0
 20
0.0
 11
1.0
 21
1.0
 12
0.0
 22
0.0
 13
0.0
 23
0.0
 14
0.5
 24
0.5
 15
0.5
 25
0.5
 16
0.0
 26
0.0
 36
1.0
 17
0.0
 27
0.0
 37
0.0
 40
1000.0
 41
1.34
 42
50.0
 43
0.0
 44
0.0
 50
0.0
 51
0.0
 71
0
 72
1000
 73
1
 74
3
 75
0
 76
0
 77
0
 78
0
281
0
 65
0
146
0.0
  0
ENDTAB
  0
TABLE
  2
LTYPE
  5
2
330
0
100
AcDbSymbolTable
 70
3
  0
LTYPE
  5
24
330
2
100
AcDbSymbolTableRecord
100
AcDbLinetypeTableRecord
  2
ByBlock
 70
0
  3

 72
65
 73
0
 40
0.0
  0
LTYPE
  5
25
330
2
100
AcDbSymbolTableRecord
100
AcDbLinetypeTableRecord
  2
ByLayer
 70
0
  3

 72
65
 73
0
 40
0.0
  0
LTYPE
  5
26
330
2
100
AcDbSymbolTableRecord
100
AcDbLinetypeTableRecord
  2
Continuous
 70
0
  3

 72
65
 73
0
 40
0.0
  0
ENDTAB
  0
TABLE
  2
LAYER
  5
1
330
0
100
AcDbSymbolTable
 70
10
  0
LAYER
  5
27
330
1
100
AcDbSymbolTableRecord
100
AcDbLayerTableRecord
  2
0
 70
0
 62
7
  6
Continuous
370
-3
390
13
347
21
  0
LAYER
  5
28
330
1
100
AcDbSymbolTableRecord
100
AcDbLayerTableRecord
  2
Defpoints
 70
0
 62
7
  6
Continuous
290
0
370
-3
390
13
347
21
  0
LAYER
  5
2F
330
1
100
AcDbSymbolTableRecord
100
AcDbLayerTableRecord
  2
CONTORNO
 70
0
 62
7
  6
Continuous
370
-3
390
13
347
21
  0
LAYER
  5
30
330
1
100
AcDbSymbolTableRecord
100
AcDbLayerTableRecord
  2
KEDER
 70
0
 62
5
  6
Continuous
370
-3
390
13
347
21
  0
LAYER
  5
31
330
1
100
AcDbSymbolTableRecord
100
AcDbLayerTableRecord
  2
BOLSA
 70
0
 62
30
  6
Continuous
370
-3
390
13
347
21
  0
LAYER
  5
32
330
1
100
AcDbSymbolTableRecord
100
AcDbLayerTableRecord
  2
CLAMP
 70
0
 62
1
  6
Continuous
370
-3
390
13
347
21
  0
LAYER
  5
33
330
1
100
AcDbSymbolTableRecord
100
AcDbLayerTableRecord
  2
RECORTE
 70
0
 62
3
  6
Continuous
370
-3
390
13
347
21
  0
LAYER
  5
34
330
1
100
AcDbSymbolTableRecord
100
AcDbLayerTableRecord
  2
LINHA
 70
0
 62
8
  6
Continuous
370
-3
390
13
347
21
  0
LAYER
  5
35
330
1
100
AcDbSymbolTableRecord
100
AcDbLayerTableRecord
  2
TEXTO
 70
0
 62
2
  6
Continuous
370
-3
390
13
347
21
  0
LAYER
  5
36
330
1
100
AcDbSymbolTableRecord
100
AcDbLayerTableRecord
  2
MALHA
 70
0
 62
253
  6
Continuous
370
-3
390
13
347
21
  0
ENDTAB
  0
TABLE
  2
STYLE
  5
5
330
0
100
AcDbSymbolTable
 70
1
  0
STYLE
  5
29
330
5
100
AcDbSymbolTableRecord
100
AcDbTextStyleTableRecord
  2
Standard
 70
0
 40
0.0
 41
1.0
 50
0.0
 71
0
 42
2.5
  3
txt
  4

  0
ENDTAB
  0
TABLE
  2
VIEW
  5
7
330
0
100
AcDbSymbolTable
 70
0
  0
ENDTAB
  0
TABLE
  2
UCS
  5
6
330
0
100
AcDbSymbolTable
 70
0
  0
ENDTAB
  0
TABLE
  2
APPID
  5
3
330
0
100
AcDbSymbolTable
 70
3
  0
APPID
  5
2A
330
3
100
AcDbSymbolTableRecord
100
AcDbRegAppTableRecord
  2
ACAD
 70
0
  0
APPID
  5
46
330
3
100
AcDbSymbolTableRecord
100
AcDbRegAppTableRecord
  2
HATCHBACKGROUNDCOLOR
 70
0
  0
APPID
  5
47
330
3
100
AcDbSymbolTableRecord
100
AcDbRegAppTableRecord
  2
EZDXF
 70
0
  0
ENDTAB
  0
TABLE
  2
DIMSTYLE
  5
4
330
0
100
AcDbSymbolTable
 70
1
100
AcDbDimStyleTable
  0
DIMSTYLE
105
2B
330
4
100
AcDbSymbolTableRecord
100
AcDbDimStyleTableRecord
  2
Standard
 70
0
 40
1.0
 41
2.5
 42
0.625
 43
3.75
 44
1.25
 45
0.0
 46
0.0
 47
0.0
 48
0.0
 49
2.5
140
2.5
141
2.5
142
0.0
143
0.03937007874
144
1.0
145
0.0
146
1.0
147
0.625
148
0.0
 69
0
 70
0
 71
0
 72
0
 73
0
 74
0
 75
0
 76
0
 77
1
 78
8
 79
3
170
0
171
3
172
1
173
0
174
0
175
0
176
0
177
0
178
0
179
2
271
2
272
2
273
2
274
3
275
0
276
0
277
2
278
44
279
0
280
0
281
0
282
0
283
0
284
8
285
0
286
0
288
0
289
3
290
0
371
-2
372
-2
  0
ENDTAB
  0
TABLE
  2
BLOCK_RECORD
  5
9
330
0
100
AcDbSymbolTable
 70
2
  0
BLOCK_RECORD
  5
17
330
9
100
AcDbSymbolTableRecord
100
AcDbBlockTableRecord
  2
*Model_Space
340
1A
 70
0
280
1
281
0
  0
BLOCK_RECORD
  5
1B
330
9
100
AcDbSymbolTableRecord
100
AcDbBlockTableRecord
  2
*Paper_Space
340
1E
 70
0
280
1
281
0
  0
ENDTAB
  0
ENDSEC
  0
SECTION
  2
BLOCKS
  0
BLOCK
  5
18
330
17
100
AcDbEntity
  8
0
100
AcDbBlockBegin
  2
*Model_Space
 70
0
 10
0.0
 20
0.0
 30
0.0
  3
*Model_Space
  1

  0
ENDBLK
  5
19
330
17
100
AcDbEntity
  8
0
100
AcDbBlockEnd
  0
BLOCK
  5
1C
330
1B
100
AcDbEntity
  8
0
100
AcDbBlockBegin
  2
*Paper_Space
 70
0
 10
0.0
 20
0.0
 30
0.0
  3
*Paper_Space
  1

  0
ENDBLK
  5
1D
330
1B
100
AcDbEntity
  8
0
100
AcDbBlockEnd
  0
ENDSEC
  0
SECTION
  2
ENTITIES
  0
LWPOLYLINE
  5
37
330
17
100
AcDbEntity
  8
CONTORNO
100
AcDbPolyline
 90
82
 70
1
 10
0.028550463998484377
 20
0.18933240621760986
 10
0.02397636973362458
 20
0.2894877094278349
 10
0.020228443160575336
 20
0.3920076484006664
 10
0.016987612861063234
 20
0.49597898518943384
 10
0.01415001697762519
 20
0.6011044490766262
 10
0.011656248940729474
 20
0.7072140081180752
 10
0.009466432269461644
 20
0.8141935288832535
 10
0.007551398289287581
 20
0.9219595255476299
 10
0.005888613490044714
 20
1.0304475032822298
 10
0.004459995676941886
 20
1.139605707697607
 10
0.003250621420769484
 20
1.2493914253413263
 10
0.002247904983147475
 20
1.3597686336390737
 10
0.0014410481211457604
 20
1.4707064261397054
 10
0.0008206556311005642
 20
1.5821779121347093
 10
0.0003784574691812481
 20
1.6941594213189
 10
0.0001071022262685295
 20
1.8066299126795595
 10
0.0
 20
1.9195705247688848
 10
5.1200441632204274e-05
 20
2.032964226652867
 10
0.00025529646171817966
 20
2.1467955423001794
 10
0.0006073470478412668
 20
2.261050329673101
 10
0.0011028145802230993
 20
2.375715601313863
 10
0.0017375133234688311
 20
2.490779376919067
 10
0.0025075666579268407
 20
2.6062305609283802
 10
0.003409371233369818
 20
2.722058839926147
 10
0.0044395666691421365
 20
2.838254595917912
 10
0.005595009744943424
 20
2.9548088324599697
 10
0.006872752262073956
 20
3.0717131112943865
 10
0.00827002193085069
 20
3.1889594976454574
 10
0.009784205772907062
 20
3.306540512714201
 10
0.011412835628799689
 20
3.4244490921986044
 10
0.013153575440006948
 20
3.5426785498924893
 10
0.015004210035783228
 20
3.6612225455915444
 10
0.016962635203740195
 20
3.780075056673586
 10
0.019026848861428913
 20
3.8992303528301
 10
0.021194943177028414
 20
4.018682973514275
 10
0.023465097512050948
 20
4.138427707741807
 10
0.0258355720791843
 20
4.258459575938528
 10
0.028304702224864364
 20
4.378773813576129
 10
0.030870893259753895
 20
4.4993658563761105
 10
0.033532615771559415
 20
4.620231326894225
 10
0.0285504639984846
 20
4.71921869847666
 10
3.391441896242134
 20
3.544275691895476
 10
3.3258993199023177
 20
3.4699285853221298
 10
3.252712869277623
 20
3.3737033798131044
 10
3.1796219501298424
 20
3.277751602022213
 10
3.106628091871274
 20
3.182077629393701
 10
3.033732889191249
 20
3.0866860262060687
 10
2.960938006743337
 20
2.9915815569876254
 10
2.8882451843148482
 20
2.8967692013125395
 10
2.815656242544269
 20
2.8022541701651154
 10
2.743173089263421
 20
2.7080419240921634
 10
2.6707977265547553
 20
2.6141381934021966
 10
2.5985322586306587
 20
2.520549000717401
 10
2.526378900661875
 20
2.427280686242087
 10
2.454339988706929
 20
2.334339936182433
 10
2.382417990925262
 20
2.241733814840451
 10
2.310615520295242
 20
2.1494698010151247
 10
2.2389353491065505
 20
2.0575558294821557
 10
2.167380425557888
 20
1.96600033849948
 10
2.095953892869555
 20
1.874812324510803
 10
2.0246591114222072
 20
1.784001405510579
 10
1.9534996845660715
 20
1.693577894914465
 10
1.8824794889207992
 20
1.603552888282792
 10
1.8116027102217858
 20
1.5139383659189598
 10
1.7408738860888102
 20
1.4247473152807368
 10
1.6702979575342878
 20
1.3359938784058438
 10
1.5998803316476666
 20
1.2476935313256077
 10
1.5296269587776894
 20
1.1598633049740377
 10
1.4595444288267183
 20
1.0725220607989363
 10
1.3896400932038735
 20
0.9856908398130222
 10
1.3199222219529851
 20
0.8993933123214797
 10
1.2504002102777174
 20
0.8136563690328216
 10
1.1810848564209997
 20
0.728510916398192
 10
1.1119887461212132
 20
0.6439929769919046
 10
1.0431268028075662
 20
0.5601452642663941
 10
0.97451710867485
 20
0.4770195326111074
 10
0.9061821972332276
 20
0.3946802768550185
 10
0.8381512371572333
 20
0.31321098282265897
 10
0.7704641049277815
 20
0.23272578394455584
 10
0.7031802071144032
 20
0.15339471216487785
 10
0.6364034055745625
 20
0.0755150382011357
 10
0.5704527717265322
 20
0.0
  0
LWPOLYLINE
  5
38
330
17
100
AcDbEntity
  8
LINHA
100
AcDbPolyline
 90
41
 70
0
 10
0.028550463998484377
 20
0.18933240621760986
 10
0.02397636973362458
 20
0.2894877094278349
 10
0.020228443160575336
 20
0.3920076484006664
 10
0.016987612861063234
 20
0.49597898518943384
 10
0.01415001697762519
 20
0.6011044490766262
 10
0.011656248940729474
 20
0.7072140081180752
 10
0.009466432269461644
 20
0.8141935288832535
 10
0.007551398289287581
 20
0.9219595255476299
 10
0.005888613490044714
 20
1.0304475032822298
 10
0.004459995676941886
 20
1.139605707697607
 10
0.003250621420769484
 20
1.2493914253413263
 10
0.002247904983147475
 20
1.3597686336390737
 10
0.0014410481211457604
 20
1.4707064261397054
 10
0.0008206556311005642
 20
1.5821779121347093
 10
0.0003784574691812481
 20
1.6941594213189
 10
0.0001071022262685295
 20
1.8066299126795595
 10
0.0
 20
1.9195705247688848
 10
5.1200441632204274e-05
 20
2.032964226652867
 10
0.00025529646171817966
 20
2.1467955423001794
 10
0.0006073470478412668
 20
2.261050329673101
 10
0.0011028145802230993
 20
2.375715601313863
 10
0.0017375133234688311
 20
2.490779376919067
 10
0.0025075666579268407
 20
2.6062305609283802
 10
0.003409371233369818
 20
2.722058839926147
 10
0.0044395666691421365
 20
2.838254595917912
 10
0.005595009744943424
 20
2.9548088324599697
 10
0.006872752262073956
 20
3.0717131112943865
 10
0.00827002193085069
 20
3.1889594976454574
 10
0.009784205772907062
 20
3.306540512714201
 10
0.011412835628799689
 20
3.4244490921986044
 10
0.013153575440006948
 20
3.5426785498924893
 10
0.015004210035783228
 20
3.6612225455915444
 10
0.016962635203740195
 20
3.780075056673586
 10
0.019026848861428913
 20
3.8992303528301
 10
0.021194943177028414
 20
4.018682973514275
 10
0.023465097512050948
 20
4.138427707741807
 10
0.0258355720791843
 20
4.258459575938528
 10
0.028304702224864364
 20
4.378773813576129
 10
0.030870893259753895
 20
4.4993658563761105
 10
0.033532615771559415
 20
4.620231326894225
 10
0.0285504639984846
 20
4.71921869847666
  0
LWPOLYLINE
  5
39
330
17
100
AcDbEntity
  8
LINHA
100
AcDbPolyline
 90
41
 70
0
 10
0.5704527717265322
 20
0.0
 10
0.6364034055745625
 20
0.0755150382011357
 10
0.7031802071144032
 20
0.15339471216487785
 10
0.7704641049277815
 20
0.23272578394455584
 10
0.8381512371572333
 20
0.31321098282265897
 10
0.9061821972332276
 20
0.3946802768550185
 10
0.97451710867485
 20
0.4770195326111074
 10
1.0431268028075662
 20
0.5601452642663941
 10
1.1119887461212132
 20
0.6439929769919046
 10
1.1810848564209997
 20
0.728510916398192
 10
1.2504002102777174
 20
0.8136563690328216
 10
1.3199222219529851
 20
0.8993933123214797
 10
1.3896400932038735
 20
0.9856908398130222
 10
1.4595444288267183
 20
1.0725220607989363
 10
1.5296269587776894
 20
1.1598633049740377
 10
1.5998803316476666
 20
1.2476935313256077
 10
1.6702979575342878
 20
1.3359938784058438
 10
1.7408738860888102
 20
1.4247473152807368
 10
1.8116027102217858
 20
1.5139383659189598
 10
1.8824794889207992
 20
1.603552888282792
 10
1.9534996845660715
 20
1.693577894914465
 10
2.0246591114222072
 20
1.784001405510579
 10
2.095953892869555
 20
1.874812324510803
 10
2.167380425557888
 20
1.96600033849948
 10
2.2389353491065505
 20
2.0575558294821557
 10
2.310615520295242
 20
2.1494698010151247
 10
2.382417990925262
 20
2.241733814840451
 10
2.454339988706929
 20
2.334339936182433
 10
2.526378900661875
 20
2.427280686242087
 10
2.5985322586306587
 20
2.520549000717401
 10
2.6707977265547553
 20
2.6141381934021966
 10
2.743173089263421
 20
2.7080419240921634
 10
2.815656242544269
 20
2.8022541701651154
 10
2.8882451843148482
 20
2.8967692013125395
 10
2.960938006743337
 20
2.9915815569876254
 10
3.033732889191249
 20
3.0866860262060687
 10
3.106628091871274
 20
3.182077629393701
 10
3.1796219501298424
 20
3.277751602022213
 10
3.252712869277623
 20
3.3737033798131044
 10
3.3258993199023177
 20
3.4699285853221298
 10
3.391441896242134
 20
3.544275691895476
  0
LWPOLYLINE
  5
3A
330
17
100
AcDbEntity
  8
CLAMP
100
AcDbPolyline
 90
2
 70
0
 10
0.028550463998484377
 20
0.18933240621760986
 10
0.5704527717265322
 20
0.0
  0
LWPOLYLINE
  5
3B
330
17
100
AcDbEntity
  8
BOLSA
100
AcDbPolyline
 90
17
 70
0
 10
0.0285504639984846
 20
4.71921869847666
 10
0.2387311785137127
 20
4.645784760565336
 10
0.4489118930289408
 20
4.572350822654013
 10
0.6590926075441689
 20
4.498916884742688
 10
0.869273322059397
 20
4.425482946831364
 10
1.079454036574625
 20
4.35204900892004
 10
1.2896347510898531
 20
4.278615071008716
 10
1.4998154656050813
 20
4.205181133097392
 10
1.7099961801203094
 20
4.131747195186068
 10
1.9201768946355375
 20
4.058313257274744
 10
2.1303576091507654
 20
3.98487931936342
 10
2.3405383236659936
 20
3.911445381452096
 10
2.5507190381812217
 20
3.838011443540772
 10
2.76089975269645
 20
3.7645775056294477
 10
2.971080467211678
 20
3.691143567718124
 10
3.181261181726906
 20
3.6177096298068
 10
3.391441896242134
 20
3.544275691895476
  0
LWPOLYLINE
  5
3C
330
17
100
AcDbEntity
  8
LINHA
100
AcDbPolyline
 90
41
 70
0
 10
0.028550463998484377
 20
0.18933240621760986
 10
0.02397636973362458
 20
0.2894877094278349
 10
0.020228443160575336
 20
0.3920076484006664
 10
0.016987612861063234
 20
0.49597898518943384
 10
0.01415001697762519
 20
0.6011044490766262
 10
0.011656248940729474
 20
0.7072140081180752
 10
0.009466432269461644
 20
0.8141935288832535
 10
0.007551398289287581
 20
0.9219595255476299
 10
0.005888613490044714
 20
1.0304475032822298
 10
0.004459995676941886
 20
1.139605707697607
 10
0.003250621420769484
 20
1.2493914253413263
 10
0.002247904983147475
 20
1.3597686336390737
 10
0.0014410481211457604
 20
1.4707064261397054
 10
0.0008206556311005642
 20
1.5821779121347093
 10
0.0003784574691812481
 20
1.6941594213189
 10
0.0001071022262685295
 20
1.8066299126795595
 10
0.0
 20
1.9195705247688848
 10
5.1200441632204274e-05
 20
2.032964226652867
 10
0.00025529646171817966
 20
2.1467955423001794
 10
0.0006073470478412668
 20
2.261050329673101
 10
0.0011028145802230993
 20
2.375715601313863
 10
0.0017375133234688311
 20
2.490779376919067
 10
0.0025075666579268407
 20
2.6062305609283802
 10
0.003409371233369818
 20
2.722058839926147
 10
0.0044395666691421365
 20
2.838254595917912
 10
0.005595009744943424
 20
2.9548088324599697
 10
0.006872752262073956
 20
3.0717131112943865
 10
0.00827002193085069
 20
3.1889594976454574
 10
0.009784205772907062
 20
3.306540512714201
 10
0.011412835628799689
 20
3.4244490921986044
 10
0.013153575440006948
 20
3.5426785498924893
 10
0.015004210035783228
 20
3.6612225455915444
 10
0.016962635203740195
 20
3.780075056673586
 10
0.019026848861428913
 20
3.8992303528301
 10
0.021194943177028414
 20
4.018682973514275
 10
0.023465097512050948
 20
4.138427707741807
 10
0.0258355720791843
 20
4.258459575938528
 10
0.028304702224864364
 20
4.378773813576129
 10
0.030870893259753895
 20
4.4993658563761105
 10
0.033532615771559415
 20
4.620231326894225
 10
0.0285504639984846
 20
4.71921869847666
  0
TEXT
  5
3D
330
17
100
AcDbEntity
  8
TEXTO
100
AcDbText
 10
0.0
 20
-0.35
 30
0.0
 40
0.12
  1
G1 · x8 · 9.00 m2
 11
0.0
 21
-0.35
 31
0.0
100
AcDbText
  0
TEXT
  5
3E
330
17
100
AcDbEntity
  8
TEXTO
100
AcDbText
 10
0.0
 20
-0.55
 30
0.0
 40
0.06
  1
ZION LODGE 38 · LONA EXTERNA · PVDF tipo II 1050 g/m², creme Zion; 8 gomos soldados em fábr
 11
0.0
 21
-0.55
 31
0.0
100
AcDbText
  0
LWPOLYLINE
  5
3F
330
17
100
AcDbEntity
  8
CONTORNO
100
AcDbPolyline
 90
82
 70
1
 10
4.008296060842731
 20
0.2055893193416743
 10
4.005976758966107
 20
0.2717401549586086
 10
4.003952079735954
 20
0.33871750498993103
 10
4.002156443050771
 20
0.40633739546135605
 10
4.000554364022058
 20
0.4745002794704686
 10
3.9991226099310198
 20
0.5431409815217587
 10
3.9978444301324307
 20
0.6122125104898191
 10
3.9967070055953884
 20
0.6816789047337262
 10
3.9957001171891875
 20
0.7515114961964577
 10
3.99481537170914
 20
0.8216867391501421
 10
3.9940457167255228
 20
0.8921848491861732
 10
3.9933851187831517
 20
0.9629889004580896
 10
3.992828340341905
 20
1.034084199925629
 10
3.992370779600203
 20
1.1054578380063687
 10
3.9920083520881593
 20
1.177098356405179
 10
3.9917374009877102
 20
1.2489954965323773
 10
3.991554627795462
 20
1.3211400049899882
 10
3.991457037754551
 20
1.393523480489973
 10
3.9914418962421343
 20
1.4661382515066546
 10
3.991506693437759
 20
1.5389772771597543
 10
3.9916491153551856
 20
1.6120340659490229
 10
3.9918670198364428
 20
1.6853026084096006
 10
3.9921584164664963
 20
1.758777320765987
 10
3.992521449622255
 20
1.8324529973788615
 10
3.992954384054146
 20
1.906324770296618
 10
3.993455592533938
 20
1.9803880746034057
 10
3.9940235452032864
 20
2.054638618538263
 10
3.9946568003335288
 20
2.1290723575732606
 10
3.995353996265245
 20
2.203685471801304
 10
3.9961138443408997
 20
2.2784743461098342
 10
3.9969351226787158
 20
2.3534355527144912
 10
3.9978166706634033
 20
2.4285658357037545
 10
3.998757384051088
 20
2.5038620973066683
 10
3.9997562106032225
 20
2.579321385644487
 10
4.0008121461782435
 20
2.6549408837664945
 10
4.001924231221153
 20
2.7307178998021002
 10
4.003091547600452
 20
2.8066498580873844
 10
4.004313215749502
 20
2.8827342911456912
 10
4.005588392075717
 20
2.9589688324195262
 10
4.006916266606187
 20
3.0353512096657465
 10
4.008296060842731
 20
3.1118792389382985
 10
6.423421400071973
 20
2.2509739641950337
 10
6.376082131096366
 20
2.1908288338075215
 10
6.328794781826833
 20
2.1308293554463416
 10
6.281560130761552
 20
2.0709777130575464
 10
6.234378987873438
 20
2.011276178884279
 10
6.187252196755076
 20
1.9517271194840344
 10
6.140180636973102
 20
1.8923330023334684
 10
6.093165226659017
 20
1.8330964030965007
 10
6.0462069253678195
 20
1.7740200136437219
 10
5.999306737241071
 20
1.7151066509258484
 10
5.95246571451732
 20
1.6563592668216247
 10
5.905684961440439
 20
1.597780959102008
 10
5.858965638625721
 20
1.5393749836785173
 10
5.81230896795494
 20
1.4811447683355141
 10
5.765716238085634
 20
1.4230939281855564
 10
5.719188810677221
 20
1.3652262831357387
 10
5.672728127458367
 20
1.3075458777139906
 10
5.626335718287411
 20
1.2500570036812735
 10
5.580013210392588
 20
1.1927642259534386
 10
5.53376233902347
 20
1.135672412482092
 10
5.48758495980315
 20
1.0787867689065538
 10
5.441483063146659
 20
1.0221128790023248
 10
5.39545879121197
 20
0.9656567522342654
 10
5.3495144579853235
 20
0.9094248801026235
 10
5.30365257328717
 20
0.8534243034876783
 10
5.257875871740355
 20
0.7976626939151072
 10
5.21218734810174
 20
0.7421484526729487
 10
5.166590300874719
 20
0.6868908331591781
 10
5.121088386877358
 20
0.6319000939634785
 10
5.07568569057954
 20
0.577187693380979
 10
5.030386813782847
 20
0.5227665409941025
 10
4.985196994027401
 20
0.46865132984311075
 10
4.940122264768385
 20
0.4148589857744659
 10
4.895169678435521
 20
0.361409293196774
 10
4.8503476282335
 20
0.30832579783790653
 10
4.805666333293025
 20
0.2556371677548859
 10
4.761138612644999
 20
0.20337936458863554
 10
4.716781216934647
 20
0.15159937946456267
 10
4.672617378880767
 20
0.10036238787817735
 10
4.628682583371857
 20
0.04976793673189467
 10
4.585042410509416
 20
0.0
  0
LWPOLYLINE
  5
40
330
17
100
AcDbEntity
  8
KEDER
100
AcDbPolyline
 90
41
 70
0
 10
4.008296060842731
 20
0.2055893193416743
 10
4.005976758966107
 20
0.2717401549586086
 10
4.003952079735954
 20
0.33871750498993103
 10
4.002156443050771
 20
0.40633739546135605
 10
4.000554364022058
 20
0.4745002794704686
 10
3.9991226099310198
 20
0.5431409815217587
 10
3.9978444301324307
 20
0.6122125104898191
 10
3.9967070055953884
 20
0.6816789047337262
 10
3.9957001171891875
 20
0.7515114961964577
 10
3.99481537170914
 20
0.8216867391501421
 10
3.9940457167255228
 20
0.8921848491861732
 10
3.9933851187831517
 20
0.9629889004580896
 10
3.992828340341905
 20
1.034084199925629
 10
3.992370779600203
 20
1.1054578380063687
 10
3.9920083520881593
 20
1.177098356405179
 10
3.9917374009877102
 20
1.2489954965323773
 10
3.991554627795462
 20
1.3211400049899882
 10
3.991457037754551
 20
1.393523480489973
 10
3.9914418962421343
 20
1.4661382515066546
 10
3.991506693437759
 20
1.5389772771597543
 10
3.9916491153551856
 20
1.6120340659490229
 10
3.9918670198364428
 20
1.6853026084096006
 10
3.9921584164664963
 20
1.758777320765987
 10
3.992521449622255
 20
1.8324529973788615
 10
3.992954384054146
 20
1.906324770296618
 10
3.993455592533938
 20
1.9803880746034057
 10
3.9940235452032864
 20
2.054638618538263
 10
3.9946568003335288
 20
2.1290723575732606
 10
3.995353996265245
 20
2.203685471801304
 10
3.9961138443408997
 20
2.2784743461098342
 10
3.9969351226787158
 20
2.3534355527144912
 10
3.9978166706634033
 20
2.4285658357037545
 10
3.998757384051088
 20
2.5038620973066683
 10
3.9997562106032225
 20
2.579321385644487
 10
4.0008121461782435
 20
2.6549408837664945
 10
4.001924231221153
 20
2.7307178998021002
 10
4.003091547600452
 20
2.8066498580873844
 10
4.004313215749502
 20
2.8827342911456912
 10
4.005588392075717
 20
2.9589688324195262
 10
4.006916266606187
 20
3.0353512096657465
 10
4.008296060842731
 20
3.1118792389382985
  0
LWPOLYLINE
  5
41
330
17
100
AcDbEntity
  8
KEDER
100
AcDbPolyline
 90
41
 70
0
 10
4.585042410509416
 20
0.0
 10
4.628682583371857
 20
0.04976793673189467
 10
4.672617378880767
 20
0.10036238787817735
 10
4.716781216934647
 20
0.15159937946456267
 10
4.761138612644999
 20
0.20337936458863554
 10
4.805666333293025
 20
0.2556371677548859
 10
4.8503476282335
 20
0.30832579783790653
 10
4.895169678435521
 20
0.361409293196774
 10
4.940122264768385
 20
0.4148589857744659
 10
4.985196994027401
 20
0.46865132984311075
 10
5.030386813782847
 20
0.5227665409941025
 10
5.07568569057954
 20
0.577187693380979
 10
5.121088386877358
 20
0.6319000939634785
 10
5.166590300874719
 20
0.6868908331591781
 10
5.21218734810174
 20
0.7421484526729487
 10
5.257875871740355
 20
0.7976626939151072
 10
5.30365257328717
 20
0.8534243034876783
 10
5.3495144579853235
 20
0.9094248801026235
 10
5.39545879121197
 20
0.9656567522342654
 10
5.441483063146659
 20
1.0221128790023248
 10
5.48758495980315
 20
1.0787867689065538
 10
5.53376233902347
 20
1.135672412482092
 10
5.580013210392588
 20
1.1927642259534386
 10
5.626335718287411
 20
1.2500570036812735
 10
5.672728127458367
 20
1.3075458777139906
 10
5.719188810677221
 20
1.3652262831357387
 10
5.765716238085634
 20
1.4230939281855564
 10
5.81230896795494
 20
1.4811447683355141
 10
5.858965638625721
 20
1.5393749836785173
 10
5.905684961440439
 20
1.597780959102008
 10
5.95246571451732
 20
1.6563592668216247
 10
5.999306737241071
 20
1.7151066509258484
 10
6.0462069253678195
 20
1.7740200136437219
 10
6.093165226659017
 20
1.8330964030965007
 10
6.140180636973102
 20
1.8923330023334684
 10
6.187252196755076
 20
1.9517271194840344
 10
6.234378987873438
 20
2.011276178884279
 10
6.281560130761552
 20
2.0709777130575464
 10
6.328794781826833
 20
2.1308293554463416
 10
6.376082131096366
 20
2.1908288338075215
 10
6.423421400071973
 20
2.2509739641950337
  0
LWPOLYLINE
  5
42
330
17
100
AcDbEntity
  8
KEDER
100
AcDbPolyline
 90
2
 70
0
 10
4.008296060842731
 20
0.2055893193416743
 10
4.585042410509416
 20
0.0
  0
LWPOLYLINE
  5
43
330
17
100
AcDbEntity
  8
KEDER
100
AcDbPolyline
 90
2
 70
0
 10
4.008296060842731
 20
3.1118792389382985
 10
6.423421400071973
 20
2.2509739641950337
  0
TEXT
  5
44
330
17
100
AcDbEntity
  8
TEXTO
100
AcDbText
 10
3.9914418962421343
 20
-0.35
 30
0.0
 40
0.12
  1
F1 · x8 · 4.41 m2
 11
3.9914418962421343
 21
-0.35
 31
0.0
100
AcDbText
  0
TEXT
  5
45
330
17
100
AcDbEntity
  8
TEXTO
100
AcDbText
 10
3.9914418962421343
 20
-0.55
 30
0.0
 40
0.06
  1
ZION LODGE 38 · FORRO / REVESTIMENTO INTERNO · Trevira CS 210 g/m² tensionado, creme; harpão nos trilhos do
 11
3.9914418962421343
 21
-0.55
 31
0.0
100
AcDbText
  0
ENDSEC
  0
SECTION
  2
OBJECTS
  0
DICTIONARY
  5
A
330
0
100
AcDbDictionary
281
1
  3
ACAD_COLOR
350
B
  3
ACAD_GROUP
350
C
  3
ACAD_LAYOUT
350
D
  3
ACAD_MATERIAL
350
E
  3
ACAD_MLEADERSTYLE
350
F
  3
ACAD_MLINESTYLE
350
10
  3
ACAD_PLOTSETTINGS
350
11
  3
ACAD_PLOTSTYLENAME
350
12
  3
ACAD_SCALELIST
350
14
  3
ACAD_TABLESTYLE
350
15
  3
ACAD_VISUALSTYLE
350
16
  3
EZDXF_META
350
2D
  0
DICTIONARY
  5
B
330
A
100
AcDbDictionary
281
1
  0
DICTIONARY
  5
C
330
A
100
AcDbDictionary
281
1
  0
DICTIONARY
  5
D
330
A
100
AcDbDictionary
281
1
  3
Model
350
1A
  3
Layout1
350
1E
  0
DICTIONARY
  5
E
330
A
100
AcDbDictionary
281
1
  3
ByBlock
350
1F
  3
ByLayer
350
20
  3
Global
350
21
  0
DICTIONARY
  5
F
330
A
100
AcDbDictionary
281
1
  3
Standard
350
2C
  0
DICTIONARY
  5
10
330
A
100
AcDbDictionary
281
1
  3
Standard
350
22
  0
DICTIONARY
  5
11
330
A
100
AcDbDictionary
281
1
  0
ACDBDICTIONARYWDFLT
  5
12
330
A
100
AcDbDictionary
281
1
  3
Normal
350
13
100
AcDbDictionaryWithDefault
340
13
  0
ACDBPLACEHOLDER
  5
13
330
12
  0
DICTIONARY
  5
14
330
A
100
AcDbDictionary
281
1
  0
DICTIONARY
  5
15
330
A
100
AcDbDictionary
281
1
  0
DICTIONARY
  5
16
330
A
100
AcDbDictionary
281
1
  0
LAYOUT
  5
1A
330
D
100
AcDbPlotSettings
  1

  4
A3
  6

 40
7.5
 41
20.0
 42
7.5
 43
20.0
 44
420.0
 45
297.0
 46
0.0
 47
0.0
 48
0.0
 49
0.0
140
0.0
141
0.0
142
1.0
143
1.0
 70
1024
 72
1
 73
0
 74
5
  7

 75
16
 76
0
 77
2
 78
300
147
1.0
148
0.0
149
0.0
100
AcDbLayout
  1
Model
 70
1
 71
0
 10
0.0
 20
0.0
 11
420.0
 21
297.0
 12
0.0
 22
0.0
 32
0.0
 14
1e+20
 24
1e+20
 34
1e+20
 15
-1e+20
 25
-1e+20
 35
-1e+20
146
0.0
 13
0.0
 23
0.0
 33
0.0
 16
1.0
 26
0.0
 36
0.0
 17
0.0
 27
1.0
 37
0.0
 76
1
330
17
  0
LAYOUT
  5
1E
330
D
100
AcDbPlotSettings
  1

  4
A3
  6

 40
7.5
 41
20.0
 42
7.5
 43
20.0
 44
420.0
 45
297.0
 46
0.0
 47
0.0
 48
0.0
 49
0.0
140
0.0
141
0.0
142
1.0
143
1.0
 70
0
 72
1
 73
0
 74
5
  7

 75
16
 76
0
 77
2
 78
300
147
1.0
148
0.0
149
0.0
100
AcDbLayout
  1
Layout1
 70
1
 71
1
 10
0.0
 20
0.0
 11
420.0
 21
297.0
 12
0.0
 22
0.0
 32
0.0
 14
1e+20
 24
1e+20
 34
1e+20
 15
-1e+20
 25
-1e+20
 35
-1e+20
146
0.0
 13
0.0
 23
0.0
 33
0.0
 16
1.0
 26
0.0
 36
0.0
 17
0.0
 27
1.0
 37
0.0
 76
1
330
1B
  0
MATERIAL
  5
1F
102
{ACAD_REACTORS
330
E
102
}
330
E
100
AcDbMaterial
  1
ByBlock
  2

 70
0
 40
1.0
 71
1
 41
1.0
 91
-1023410177
 42
1.0
 72
1
  3

 73
1
 74
1
 75
1
 44
0.5
 73
0
 45
1.0
 46
1.0
 77
1
  4

 78
1
 79
1
170
1
 48
1.0
171
1
  6

172
1
173
1
174
1
140
1.0
141
1.0
175
1
  7

176
1
177
1
178
1
143
1.0
179
1
  8

270
1
271
1
272
1
145
1.0
146
1.0
273
1
  9

274
1
275
1
276
1
 42
1.0
 72
1
  3

 73
1
 74
1
 75
1
 94
63
  0
MATERIAL
  5
20
102
{ACAD_REACTORS
330
E
102
}
330
E
100
AcDbMaterial
  1
ByLayer
  2

 70
0
 40
1.0
 71
1
 41
1.0
 91
-1023410177
 42
1.0
 72
1
  3

 73
1
 74
1
 75
1
 44
0.5
 73
0
 45
1.0
 46
1.0
 77
1
  4

 78
1
 79
1
170
1
 48
1.0
171
1
  6

172
1
173
1
174
1
140
1.0
141
1.0
175
1
  7

176
1
177
1
178
1
143
1.0
179
1
  8

270
1
271
1
272
1
145
1.0
146
1.0
273
1
  9

274
1
275
1
276
1
 42
1.0
 72
1
  3

 73
1
 74
1
 75
1
 94
63
  0
MATERIAL
  5
21
102
{ACAD_REACTORS
330
E
102
}
330
E
100
AcDbMaterial
  1
Global
  2

 70
0
 40
1.0
 71
1
 41
1.0
 91
-1023410177
 42
1.0
 72
1
  3

 73
1
 74
1
 75
1
 44
0.5
 73
0
 45
1.0
 46
1.0
 77
1
  4

 78
1
 79
1
170
1
 48
1.0
171
1
  6

172
1
173
1
174
1
140
1.0
141
1.0
175
1
  7

176
1
177
1
178
1
143
1.0
179
1
  8

270
1
271
1
272
1
145
1.0
146
1.0
273
1
  9

274
1
275
1
276
1
 42
1.0
 72
1
  3

 73
1
 74
1
 75
1
 94
63
  0
MLINESTYLE
  5
22
102
{ACAD_REACTORS
330
10
102
}
330
10
100
AcDbMlineStyle
  2
Standard
 70
0
  3

 62
256
 51
90.0
 52
90.0
 71
2
 49
0.5
 62
256
  6
BYLAYER
 49
-0.5
 62
256
  6
BYLAYER
  0
MLEADERSTYLE
  5
2C
102
{ACAD_REACTORS
330
F
102
}
330
F
100
AcDbMLeaderStyle
179
2
170
2
171
1
172
0
 90
2
 40
0.0
 41
0.0
173
1
 91
-1056964608
 92
-2
290
1
 42
2.0
291
1
 43
8.0
  3
Standard
 44
4.0
300

342
29
174
1
175
1
176
0
178
1
 93
-1056964608
 45
4.0
292
0
297
0
 46
4.0
 94
-1056964608
 47
1.0
 49
1.0
140
1.0
294
1
141
0.0
177
0
142
1.0
295
0
296
0
143
3.75
271
0
272
9
273
9
  0
DICTIONARY
  5
2D
330
A
100
AcDbDictionary
280
1
281
1
  3
CREATED_BY_EZDXF
350
2E
  3
WRITTEN_BY_EZDXF
350
48
  0
DICTIONARYVAR
  5
2E
330
2D
100
DictionaryVariables
280
0
  1
1.4.4 @ 2026-09-17T16:50:33.418400+00:00
  0
DICTIONARYVAR
  5
48
330
2D
100
DictionaryVariables
280
0
  1
1.4.4 @ 2026-09-17T16:50:33.421300+00:00
  0
ENDSEC
  0
EOF
