  0
SECTION
  2
HEADER
  9
$ACADVER
  1
AC1024
  9
$ACADMAINTVER
 70
6
  9
$DWGCODEPAGE
  3
ANSI_1252
  9
$LASTSAVEDBY
  1
ezdxf
  9
$INSBASE
 10
0.0
 20
0.0
 30
0.0
  9
$EXTMIN
 10
1e+20
 20
1e+20
 30
1e+20
  9
$EXTMAX
 10
-1e+20
 20
-1e+20
 30
-1e+20
  9
$LIMMIN
 10
0.0
 20
0.0
  9
$LIMMAX
 10
420.0
 20
297.0
  9
$ORTHOMODE
 70
0
  9
$REGENMODE
 70
1
  9
$FILLMODE
 70
1
  9
$QTEXTMODE
 70
0
  9
$MIRRTEXT
 70
1
  9
$LTSCALE
 40
1.0
  9
$ATTMODE
 70
1
  9
$TEXTSIZE
 40
2.5
  9
$TRACEWID
 40
1.0
  9
$TEXTSTYLE
  7
Standard
  9
$CLAYER
  8
0
  9
$CELTYPE
  6
ByLayer
  9
$CECOLOR
 62
256
  9
$CELTSCALE
 40
1.0
  9
$DISPSILH
 70
0
  9
$DIMSCALE
 40
1.0
  9
$DIMASZ
 40
2.5
  9
$DIMEXO
 40
0.625
  9
$DIMDLI
 40
3.75
  9
$DIMRND
 40
0.0
  9
$DIMDLE
 40
0.0
  9
$DIMEXE
 40
1.25
  9
$DIMTP
 40
0.0
  9
$DIMTM
 40
0.0
  9
$DIMTXT
 40
2.5
  9
$DIMCEN
 40
2.5
  9
$DIMTSZ
 40
0.0
  9
$DIMTOL
 70
0
  9
$DIMLIM
 70
0
  9
$DIMTIH
 70
0
  9
$DIMTOH
 70
0
  9
$DIMSE1
 70
0
  9
$DIMSE2
 70
0
  9
$DIMTAD
 70
1
  9
$DIMZIN
 70
8
  9
$DIMBLK
  1

  9
$DIMASO
 70
1
  9
$DIMSHO
 70
1
  9
$DIMPOST
  1

  9
$DIMAPOST
  1

  9
$DIMALT
 70
0
  9
$DIMALTD
 70
3
  9
$DIMALTF
 40
0.03937007874
  9
$DIMLFAC
 40
1.0
  9
$DIMTOFL
 70
1
  9
$DIMTVP
 40
0.0
  9
$DIMTIX
 70
0
  9
$DIMSOXD
 70
0
  9
$DIMSAH
 70
0
  9
$DIMBLK1
  1

  9
$DIMBLK2
  1

  9
$DIMSTYLE
  2
ISO-25
  9
$DIMCLRD
 70
0
  9
$DIMCLRE
 70
0
  9
$DIMCLRT
 70
0
  9
$DIMTFAC
 40
1.0
  9
$DIMGAP
 40
0.625
  9
$DIMJUST
 70
0
  9
$DIMSD1
 70
0
  9
$DIMSD2
 70
0
  9
$DIMTOLJ
 70
0
  9
$DIMTZIN
 70
8
  9
$DIMALTZ
 70
0
  9
$DIMALTTZ
 70
0
  9
$DIMUPT
 70
0
  9
$DIMDEC
 70
2
  9
$DIMTDEC
 70
2
  9
$DIMALTU
 70
2
  9
$DIMALTTD
 70
3
  9
$DIMTXSTY
  7
Standard
  9
$DIMAUNIT
 70
0
  9
$DIMADEC
 70
0
  9
$DIMALTRND
 40
0.0
  9
$DIMAZIN
 70
0
  9
$DIMDSEP
 70
44
  9
$DIMATFIT
 70
3
  9
$DIMFRAC
 70
0
  9
$DIMLDRBLK
  1

  9
$DIMLUNIT
 70
2
  9
$DIMLWD
 70
-2
  9
$DIMLWE
 70
-2
  9
$DIMTMOVE
 70
0
  9
$DIMFXL
 40
1.0
  9
$DIMFXLON
 70
0
  9
$DIMJOGANG
 40
0.785398163397
  9
$DIMTFILL
 70
0
  9
$DIMTFILLCLR
 70
0
  9
$DIMARCSYM
 70
0
  9
$DIMLTYPE
  6

  9
$DIMLTEX1
  6

  9
$DIMLTEX2
  6

  9
$DIMTXTDIRECTION
 70
0
  9
$LUNITS
 70
2
  9
$LUPREC
 70
4
  9
$SKETCHINC
 40
1.0
  9
$FILLETRAD
 40
10.0
  9
$AUNITS
 70
0
  9
$AUPREC
 70
2
  9
$MENU
  1
.
  9
$ELEVATION
 40
0.0
  9
$PELEVATION
 40
0.0
  9
$THICKNESS
 40
0.0
  9
$LIMCHECK
 70
0
  9
$CHAMFERA
 40
0.0
  9
$CHAMFERB
 40
0.0
  9
$CHAMFERC
 40
0.0
  9
$CHAMFERD
 40
0.0
  9
$SKPOLY
 70
0
  9
$TDCREATE
 40
2461301.701770833
  9
$TDUCREATE
 40
2458532.153996898
  9
$TDUPDATE
 40
2461301.701770833
  9
$TDUUPDATE
 40
2458532.1544311
  9
$TDINDWG
 40
0.0
  9
$TDUSRTIMER
 40
0.0
  9
$USRTIMER
 70
1
  9
$ANGBASE
 50
0.0
  9
$ANGDIR
 70
0
  9
$PDMODE
 70
0
  9
$PDSIZE
 40
0.0
  9
$PLINEWID
 40
0.0
  9
$SPLFRAME
 70
0
  9
$SPLINETYPE
 70
6
  9
$SPLINESEGS
 70
8
  9
$HANDSEED
  5
88
  9
$SURFTAB1
 70
6
  9
$SURFTAB2
 70
6
  9
$SURFTYPE
 70
6
  9
$SURFU
 70
6
  9
$SURFV
 70
6
  9
$UCSBASE
  2

  9
$UCSNAME
  2

  9
$UCSORG
 10
0.0
 20
0.0
 30
0.0
  9
$UCSXDIR
 10
1.0
 20
0.0
 30
0.0
  9
$UCSYDIR
 10
0.0
 20
1.0
 30
0.0
  9
$UCSORTHOREF
  2

  9
$UCSORTHOVIEW
 70
0
  9
$UCSORGTOP
 10
0.0
 20
0.0
 30
0.0
  9
$UCSORGBOTTOM
 10
0.0
 20
0.0
 30
0.0
  9
$UCSORGLEFT
 10
0.0
 20
0.0
 30
0.0
  9
$UCSORGRIGHT
 10
0.0
 20
0.0
 30
0.0
  9
$UCSORGFRONT
 10
0.0
 20
0.0
 30
0.0
  9
$UCSORGBACK
 10
0.0
 20
0.0
 30
0.0
  9
$PUCSBASE
  2

  9
$PUCSNAME
  2

  9
$PUCSORG
 10
0.0
 20
0.0
 30
0.0
  9
$PUCSXDIR
 10
1.0
 20
0.0
 30
0.0
  9
$PUCSYDIR
 10
0.0
 20
1.0
 30
0.0
  9
$PUCSORTHOREF
  2

  9
$PUCSORTHOVIEW
 70
0
  9
$PUCSORGTOP
 10
0.0
 20
0.0
 30
0.0
  9
$PUCSORGBOTTOM
 10
0.0
 20
0.0
 30
0.0
  9
$PUCSORGLEFT
 10
0.0
 20
0.0
 30
0.0
  9
$PUCSORGRIGHT
 10
0.0
 20
0.0
 30
0.0
  9
$PUCSORGFRONT
 10
0.0
 20
0.0
 30
0.0
  9
$PUCSORGBACK
 10
0.0
 20
0.0
 30
0.0
  9
$USERI1
 70
0
  9
$USERI2
 70
0
  9
$USERI3
 70
0
  9
$USERI4
 70
0
  9
$USERI5
 70
0
  9
$USERR1
 40
0.0
  9
$USERR2
 40
0.0
  9
$USERR3
 40
0.0
  9
$USERR4
 40
0.0
  9
$USERR5
 40
0.0
  9
$WORLDVIEW
 70
1
  9
$SHADEDGE
 70
3
  9
$SHADEDIF
 70
70
  9
$TILEMODE
 70
1
  9
$MAXACTVP
 70
64
  9
$PINSBASE
 10
0.0
 20
0.0
 30
0.0
  9
$PLIMCHECK
 70
0
  9
$PEXTMIN
 10
1e+20
 20
1e+20
 30
1e+20
  9
$PEXTMAX
 10
-1e+20
 20
-1e+20
 30
-1e+20
  9
$PLIMMIN
 10
0.0
 20
0.0
  9
$PLIMMAX
 10
420.0
 20
297.0
  9
$UNITMODE
 70
0
  9
$VISRETAIN
 70
1
  9
$PLINEGEN
 70
0
  9
$PSLTSCALE
 70
1
  9
$TREEDEPTH
 70
3020
  9
$CMLSTYLE
  2
Standard
  9
$CMLJUST
 70
0
  9
$CMLSCALE
 40
20.0
  9
$PROXYGRAPHICS
 70
1
  9
$MEASUREMENT
 70
1
  9
$CELWEIGHT
370
-1
  9
$ENDCAPS
280
0
  9
$JOINSTYLE
280
0
  9
$LWDISPLAY
290
0
  9
$INSUNITS
 70
6
  9
$HYPERLINKBASE
  1

  9
$STYLESHEET
  1

  9
$XEDIT
290
1
  9
$CEPSNTYPE
380
0
  9
$PSTYLEMODE
290
1
  9
$FINGERPRINTGUID
  2
{943E38C3-6B1F-4A9C-87AB-3217C2068634}
  9
$VERSIONGUID
  2
{98417452-CDCE-45DE-84C0-B9A3B7030113}
  9
$EXTNAMES
290
1
  9
$PSVPSCALE
 40
0.0
  9
$OLESTARTUP
290
0
  9
$SORTENTS
280
127
  9
$INDEXCTL
280
0
  9
$HIDETEXT
280
1
  9
$XCLIPFRAME
280
1
  9
$HALOGAP
280
0
  9
$OBSCOLOR
 70
257
  9
$OBSLTYPE
280
0
  9
$INTERSECTIONDISPLAY
280
0
  9
$INTERSECTIONCOLOR
 70
257
  9
$DIMASSOC
280
2
  9
$PROJECTNAME
  1

  9
$CAMERADISPLAY
290
0
  9
$LENSLENGTH
 40
50.0
  9
$CAMERAHEIGHT
 40
0.0
  9
$STEPSPERSEC
 40
24.0
  9
$STEPSIZE
 40
100.0
  9
$3DDWFPREC
 40
2.0
  9
$PSOLWIDTH
 40
0.005
  9
$PSOLHEIGHT
 40
0.08
  9
$LOFTANG1
 40
1.570796326795
  9
$LOFTANG2
 40
1.570796326795
  9
$LOFTMAG1
 40
0.0
  9
$LOFTMAG2
 40
0.0
  9
$LOFTPARAM
 70
7
  9
$LOFTNORMALS
280
1
  9
$LATITUDE
 40
37.795
  9
$LONGITUDE
 40
-122.394
  9
$NORTHDIRECTION
 40
0.0
  9
$TIMEZONE
 70
-8000
  9
$LIGHTGLYPHDISPLAY
280
1
  9
$TILEMODELIGHTSYNCH
280
1
  9
$CMATERIAL
347
20
  9
$SOLIDHIST
280
0
  9
$SHOWHIST
280
1
  9
$DWFFRAME
280
2
  9
$DGNFRAME
280
2
  9
$REALWORLDSCALE
290
1
  9
$INTERFERECOLOR
 62
256
  9
$CSHADOW
280
0
  9
$SHADOWPLANELOCATION
 40
0.0
  0
ENDSEC
  0
SECTION
  2
CLASSES
  0
CLASS
  1
ACDBDICTIONARYWDFLT
  2
AcDbDictionaryWithDefault
  3
ObjectDBX Classes
 90
0
 91
0
280
0
281
0
  0
CLASS
  1
SUN
  2
AcDbSun
  3
SCENEOE
 90
1153
 91
0
280
0
281
0
  0
CLASS
  1
VISUALSTYLE
  2
AcDbVisualStyle
  3
ObjectDBX Classes
 90
4095
 91
0
280
0
281
0
  0
CLASS
  1
MATERIAL
  2
AcDbMaterial
  3
ObjectDBX Classes
 90
1153
 91
0
280
0
281
0
  0
CLASS
  1
SCALE
  2
AcDbScale
  3
ObjectDBX Classes
 90
1153
 91
0
280
0
281
0
  0
CLASS
  1
TABLESTYLE
  2
AcDbTableStyle
  3
ObjectDBX Classes
 90
4095
 91
0
280
0
281
0
  0
CLASS
  1
MLEADERSTYLE
  2
AcDbMLeaderStyle
  3
ACDB_MLEADERSTYLE_CLASS
 90
4095
 91
0
280
0
281
0
  0
CLASS
  1
DICTIONARYVAR
  2
AcDbDictionaryVar
  3
ObjectDBX Classes
 90
0
 91
0
280
0
281
0
  0
CLASS
  1
CELLSTYLEMAP
  2
AcDbCellStyleMap
  3
ObjectDBX Classes
 90
1152
 91
0
280
0
281
0
  0
CLASS
  1
MENTALRAYRENDERSETTINGS
  2
AcDbMentalRayRenderSettings
  3
SCENEOE
 90
1024
 91
0
280
0
281
0
  0
CLASS
  1
ACDBDETAILVIEWSTYLE
  2
AcDbDetailViewStyle
  3
ObjectDBX Classes
 90
1025
 91
0
280
0
281
0
  0
CLASS
  1
ACDBSECTIONVIEWSTYLE
  2
AcDbSectionViewStyle
  3
ObjectDBX Classes
 90
1025
 91
0
280
0
281
0
  0
CLASS
  1
RASTERVARIABLES
  2
AcDbRasterVariables
  3
ISM
 90
0
 91
0
280
0
281
0
  0
CLASS
  1
ACDBPLACEHOLDER
  2
AcDbPlaceHolder
  3
ObjectDBX Classes
 90
0
 91
0
280
0
281
0
  0
CLASS
  1
LAYOUT
  2
AcDbLayout
  3
ObjectDBX Classes
 90
0
 91
0
280
0
281
0
  0
ENDSEC
  0
SECTION
  2
TABLES
  0
TABLE
  2
VPORT
  5
8
330
0
100
AcDbSymbolTable
 70
1
  0
VPORT
  5
23
330
8
100
AcDbSymbolTableRecord
100
AcDbViewportTableRecord
  2
*Active
 70
0
 10
0.0
 20
0.0
 11
1.0
 21
1.0
 12
0.0
 22
0.0
 13
0.0
 23
0.0
 14
0.5
 24
0.5
 15
0.5
 25
0.5
 16
0.0
 26
0.0
 36
1.0
 17
0.0
 27
0.0
 37
0.0
 40
1000.0
 41
1.34
 42
50.0
 43
0.0
 44
0.0
 50
0.0
 51
0.0
 71
0
 72
1000
 73
1
 74
3
 75
0
 76
0
 77
0
 78
0
281
0
 65
0
146
0.0
  0
ENDTAB
  0
TABLE
  2
LTYPE
  5
2
330
0
100
AcDbSymbolTable
 70
3
  0
LTYPE
  5
24
330
2
100
AcDbSymbolTableRecord
100
AcDbLinetypeTableRecord
  2
ByBlock
 70
0
  3

 72
65
 73
0
 40
0.0
  0
LTYPE
  5
25
330
2
100
AcDbSymbolTableRecord
100
AcDbLinetypeTableRecord
  2
ByLayer
 70
0
  3

 72
65
 73
0
 40
0.0
  0
LTYPE
  5
26
330
2
100
AcDbSymbolTableRecord
100
AcDbLinetypeTableRecord
  2
Continuous
 70
0
  3

 72
65
 73
0
 40
0.0
  0
ENDTAB
  0
TABLE
  2
LAYER
  5
1
330
0
100
AcDbSymbolTable
 70
10
  0
LAYER
  5
27
330
1
100
AcDbSymbolTableRecord
100
AcDbLayerTableRecord
  2
0
 70
0
 62
7
  6
Continuous
370
-3
390
13
347
21
  0
LAYER
  5
28
330
1
100
AcDbSymbolTableRecord
100
AcDbLayerTableRecord
  2
Defpoints
 70
0
 62
7
  6
Continuous
290
0
370
-3
390
13
347
21
  0
LAYER
  5
2F
330
1
100
AcDbSymbolTableRecord
100
AcDbLayerTableRecord
  2
CONTORNO
 70
0
 62
7
  6
Continuous
370
-3
390
13
347
21
  0
LAYER
  5
30
330
1
100
AcDbSymbolTableRecord
100
AcDbLayerTableRecord
  2
KEDER
 70
0
 62
5
  6
Continuous
370
-3
390
13
347
21
  0
LAYER
  5
31
330
1
100
AcDbSymbolTableRecord
100
AcDbLayerTableRecord
  2
BOLSA
 70
0
 62
30
  6
Continuous
370
-3
390
13
347
21
  0
LAYER
  5
32
330
1
100
AcDbSymbolTableRecord
100
AcDbLayerTableRecord
  2
CLAMP
 70
0
 62
1
  6
Continuous
370
-3
390
13
347
21
  0
LAYER
  5
33
330
1
100
AcDbSymbolTableRecord
100
AcDbLayerTableRecord
  2
RECORTE
 70
0
 62
3
  6
Continuous
370
-3
390
13
347
21
  0
LAYER
  5
34
330
1
100
AcDbSymbolTableRecord
100
AcDbLayerTableRecord
  2
LINHA
 70
0
 62
8
  6
Continuous
370
-3
390
13
347
21
  0
LAYER
  5
35
330
1
100
AcDbSymbolTableRecord
100
AcDbLayerTableRecord
  2
TEXTO
 70
0
 62
2
  6
Continuous
370
-3
390
13
347
21
  0
LAYER
  5
36
330
1
100
AcDbSymbolTableRecord
100
AcDbLayerTableRecord
  2
MALHA
 70
0
 62
253
  6
Continuous
370
-3
390
13
347
21
  0
ENDTAB
  0
TABLE
  2
STYLE
  5
5
330
0
100
AcDbSymbolTable
 70
1
  0
STYLE
  5
29
330
5
100
AcDbSymbolTableRecord
100
AcDbTextStyleTableRecord
  2
Standard
 70
0
 40
0.0
 41
1.0
 50
0.0
 71
0
 42
2.5
  3
txt
  4

  0
ENDTAB
  0
TABLE
  2
VIEW
  5
7
330
0
100
AcDbSymbolTable
 70
0
  0
ENDTAB
  0
TABLE
  2
UCS
  5
6
330
0
100
AcDbSymbolTable
 70
0
  0
ENDTAB
  0
TABLE
  2
APPID
  5
3
330
0
100
AcDbSymbolTable
 70
3
  0
APPID
  5
2A
330
3
100
AcDbSymbolTableRecord
100
AcDbRegAppTableRecord
  2
ACAD
 70
0
  0
APPID
  5
85
330
3
100
AcDbSymbolTableRecord
100
AcDbRegAppTableRecord
  2
HATCHBACKGROUNDCOLOR
 70
0
  0
APPID
  5
86
330
3
100
AcDbSymbolTableRecord
100
AcDbRegAppTableRecord
  2
EZDXF
 70
0
  0
ENDTAB
  0
TABLE
  2
DIMSTYLE
  5
4
330
0
100
AcDbSymbolTable
 70
1
100
AcDbDimStyleTable
  0
DIMSTYLE
105
2B
330
4
100
AcDbSymbolTableRecord
100
AcDbDimStyleTableRecord
  2
Standard
 70
0
 40
1.0
 41
2.5
 42
0.625
 43
3.75
 44
1.25
 45
0.0
 46
0.0
 47
0.0
 48
0.0
 49
2.5
140
2.5
141
2.5
142
0.0
143
0.03937007874
144
1.0
145
0.0
146
1.0
147
0.625
148
0.0
 69
0
 70
0
 71
0
 72
0
 73
0
 74
0
 75
0
 76
0
 77
1
 78
8
 79
3
170
0
171
3
172
1
173
0
174
0
175
0
176
0
177
0
178
0
179
2
271
2
272
2
273
2
274
3
275
0
276
0
277
2
278
44
279
0
280
0
281
0
282
0
283
0
284
8
285
0
286
0
288
0
289
3
290
0
371
-2
372
-2
  0
ENDTAB
  0
TABLE
  2
BLOCK_RECORD
  5
9
330
0
100
AcDbSymbolTable
 70
2
  0
BLOCK_RECORD
  5
17
330
9
100
AcDbSymbolTableRecord
100
AcDbBlockTableRecord
  2
*Model_Space
340
1A
 70
0
280
1
281
0
  0
BLOCK_RECORD
  5
1B
330
9
100
AcDbSymbolTableRecord
100
AcDbBlockTableRecord
  2
*Paper_Space
340
1E
 70
0
280
1
281
0
  0
ENDTAB
  0
ENDSEC
  0
SECTION
  2
BLOCKS
  0
BLOCK
  5
18
330
17
100
AcDbEntity
  8
0
100
AcDbBlockBegin
  2
*Model_Space
 70
0
 10
0.0
 20
0.0
 30
0.0
  3
*Model_Space
  1

  0
ENDBLK
  5
19
330
17
100
AcDbEntity
  8
0
100
AcDbBlockEnd
  0
BLOCK
  5
1C
330
1B
100
AcDbEntity
  8
0
100
AcDbBlockBegin
  2
*Paper_Space
 70
0
 10
0.0
 20
0.0
 30
0.0
  3
*Paper_Space
  1

  0
ENDBLK
  5
1D
330
1B
100
AcDbEntity
  8
0
100
AcDbBlockEnd
  0
ENDSEC
  0
SECTION
  2
ENTITIES
  0
LWPOLYLINE
  5
37
330
17
100
AcDbEntity
  8
CONTORNO
100
AcDbPolyline
 90
50
 70
1
 10
0.0
 20
0.06392598067789049
 10
0.00705366845381718
 20
0.13471166484681463
 10
0.013283475546141559
 20
0.20635244866243846
 10
0.01875395131744404
 20
0.27962760016037774
 10
0.023520412322396964
 20
0.3553601329868481
 10
0.027629720203356682
 20
0.4344547530059071
 10
0.031120978468101912
 20
0.5179619761255724
 10
0.03402622261294721
 20
0.6071931769957581
 10
0.0363711051514132
 20
0.7039441409382101
 10
0.038175551395269146
 20
0.8109850828369136
 10
0.0394543544713558
 20
0.9333607045280502
 10
0.04021767991263603
 20
1.0832731926336547
 10
0.04047145128214914
 20
1.3605929927750566
 10
0.04021767991263636
 20
1.6379127931408985
 10
0.03945435447135637
 20
1.787825281246503
 10
0.03817555139526976
 20
1.9102009029376394
 10
0.0363711051514137
 20
2.0172418448363434
 10
0.034026222612947826
 20
2.1139928087787956
 10
0.031120978468102606
 20
2.2032240096489812
 10
0.02762972020335744
 20
2.286731232768646
 10
0.02352041232239782
 20
2.365825852787706
 10
0.018753951317444895
 20
2.441558385614176
 10
0.01328347554614226
 20
2.514833537112115
 10
0.0070536684538177186
 20
2.586474320927738
 10
3.885780586188048e-16
 20
2.657260005096663
 10
0.602695718109003
 20
2.721185985774554
 10
0.610097134033097
 20
2.646910551164038
 10
0.6166340720418874
 20
2.5717378602983985
 10
0.6223742435216197
 20
2.4948502270493838
 10
0.6273756921457806
 20
2.4153840630095287
 10
0.6316875898464273
 20
2.332390060108469
 10
0.6353509679432281
 20
2.244765911763324
 10
0.638399441289803
 20
2.151135592253594
 10
0.6408599270744644
 20
2.0496147836298815
 10
0.6427533329314151
 20
1.9372966987799576
 10
0.6440951812920375
 20
1.8088879309117296
 10
0.6448961388523973
 20
1.6515847228080245
 10
0.6451624212085483
 20
1.3605929927695237
 10
0.6448961388523968
 20
1.0696012629665281
 10
0.6440951812920368
 20
0.9122980548628232
 10
0.6427533329314146
 20
0.7838892869945947
 10
0.6408599270744637
 20
0.6715712021446715
 10
0.6383994412898023
 20
0.5700503935209593
 10
0.6353509679432275
 20
0.4764200740112293
 10
0.6316875898464265
 20
0.3887959256660847
 10
0.6273756921457798
 20
0.3058019227650255
 10
0.6223742435216189
 20
0.2263357587251694
 10
0.6166340720418868
 20
0.14944812547615544
 10
0.6100971340330965
 20
0.07427543461051522
 10
0.6026957181090027
 20
0.0
  0
LWPOLYLINE
  5
38
330
17
100
AcDbEntity
  8
CLAMP
100
AcDbPolyline
 90
25
 70
0
 10
0.0
 20
0.06392598067789049
 10
0.00705366845381718
 20
0.13471166484681463
 10
0.013283475546141559
 20
0.20635244866243846
 10
0.01875395131744404
 20
0.27962760016037774
 10
0.023520412322396964
 20
0.3553601329868481
 10
0.027629720203356682
 20
0.4344547530059071
 10
0.031120978468101912
 20
0.5179619761255724
 10
0.03402622261294721
 20
0.6071931769957581
 10
0.0363711051514132
 20
0.7039441409382101
 10
0.038175551395269146
 20
0.8109850828369136
 10
0.0394543544713558
 20
0.9333607045280502
 10
0.04021767991263603
 20
1.0832731926336547
 10
0.04047145128214914
 20
1.3605929927750566
 10
0.04021767991263636
 20
1.6379127931408985
 10
0.03945435447135637
 20
1.787825281246503
 10
0.03817555139526976
 20
1.9102009029376394
 10
0.0363711051514137
 20
2.0172418448363434
 10
0.034026222612947826
 20
2.1139928087787956
 10
0.031120978468102606
 20
2.2032240096489812
 10
0.02762972020335744
 20
2.286731232768646
 10
0.02352041232239782
 20
2.365825852787706
 10
0.018753951317444895
 20
2.441558385614176
 10
0.01328347554614226
 20
2.514833537112115
 10
0.0070536684538177186
 20
2.586474320927738
 10
3.885780586188048e-16
 20
2.657260005096663
  0
LWPOLYLINE
  5
39
330
17
100
AcDbEntity
  8
CLAMP
100
AcDbPolyline
 90
25
 70
0
 10
0.6026957181090027
 20
0.0
 10
0.6100971340330965
 20
0.07427543461051522
 10
0.6166340720418868
 20
0.14944812547615544
 10
0.6223742435216189
 20
0.2263357587251694
 10
0.6273756921457798
 20
0.3058019227650255
 10
0.6316875898464265
 20
0.3887959256660847
 10
0.6353509679432275
 20
0.4764200740112293
 10
0.6383994412898023
 20
0.5700503935209593
 10
0.6408599270744637
 20
0.6715712021446715
 10
0.6427533329314146
 20
0.7838892869945947
 10
0.6440951812920368
 20
0.9122980548628232
 10
0.6448961388523968
 20
1.0696012629665281
 10
0.6451624212085483
 20
1.3605929927695237
 10
0.6448961388523973
 20
1.6515847228080245
 10
0.6440951812920375
 20
1.8088879309117296
 10
0.6427533329314151
 20
1.9372966987799576
 10
0.6408599270744644
 20
2.0496147836298815
 10
0.638399441289803
 20
2.151135592253594
 10
0.6353509679432281
 20
2.244765911763324
 10
0.6316875898464273
 20
2.332390060108469
 10
0.6273756921457806
 20
2.4153840630095287
 10
0.6223742435216197
 20
2.4948502270493838
 10
0.6166340720418874
 20
2.5717378602983985
 10
0.610097134033097
 20
2.646910551164038
 10
0.602695718109003
 20
2.721185985774554
  0
LWPOLYLINE
  5
3A
330
17
100
AcDbEntity
  8
CLAMP
100
AcDbPolyline
 90
2
 70
0
 10
0.0
 20
0.06392598067789049
 10
0.6026957181090027
 20
0.0
  0
LWPOLYLINE
  5
3B
330
17
100
AcDbEntity
  8
CLAMP
100
AcDbPolyline
 90
2
 70
0
 10
3.885780586188048e-16
 20
2.657260005096663
 10
0.6026957181090031
 20
2.721185985774554
  0
TEXT
  5
3C
330
17
100
AcDbEntity
  8
TEXTO
100
AcDbText
 10
0.0
 20
-0.35
 30
0.0
 40
0.12
  1
R1T · x4 · 1.61 m2
 11
0.0
 21
-0.35
 31
0.0
100
AcDbText
  0
TEXT
  5
3D
330
17
100
AcDbEntity
  8
TEXTO
100
AcDbText
 10
0.0
 20
-0.55
 30
0.0
 40
0.06
  1
ZION CÁPSULA · REVESTIMENTO EXTERNO · ACM 4 mm (alumínio composto) curvado a frio, creme Zion, fix
 11
0.0
 21
-0.55
 31
0.0
100
AcDbText
  0
LWPOLYLINE
  5
3E
330
17
100
AcDbEntity
  8
CONTORNO
100
AcDbPolyline
 90
50
 70
1
 10
1.2451624212085481
 20
1.3322676295501876e-16
 10
1.2451624212085481
 20
0.07464329269440338
 10
1.2451624212085481
 20
0.1500996708907618
 10
1.2451624212085481
 20
0.22720127732831671
 10
1.2451624212085484
 20
0.30682467662493956
 10
1.2451624212085484
 20
0.38993061491650727
 10
1.2451624212085484
 20
0.4776313088264875
 10
1.2451624212085486
 20
0.571311242223341
 10
1.2451624212085486
 20
0.6728618629693951
 10
1.2451624212085486
 20
0.7851959057618348
 10
1.2451624212085486
 20
0.913611684474809
 10
1.2451624212085486
 20
1.0709169317259133
 10
1.2451624212085486
 20
1.3619087833644647
 10
1.2451624212085486
 20
1.6529006352385214
 10
1.2451624212085488
 20
1.8102058824896257
 10
1.2451624212085488
 20
1.9386216612025995
 10
1.2451624212085488
 20
2.050955703995039
 10
1.2451624212085488
 20
2.1525063247410934
 10
1.2451624212085488
 20
2.246186258137947
 10
1.2451624212085488
 20
2.333886952047927
 10
1.2451624212085486
 20
2.4169928903394946
 10
1.2451624212085486
 20
2.496616289636117
 10
1.2451624212085484
 20
2.5737178960736724
 10
1.2451624212085484
 20
2.64917427427003
 10
1.2451624212085481
 20
2.723817566964434
 10
1.8451624212085478
 20
2.723817566964435
 10
1.8451624212085482
 20
2.649174274270031
 10
1.8451624212085482
 20
2.573717896073673
 10
1.8451624212085485
 20
2.4966162896361173
 10
1.8451624212085485
 20
2.416992890339495
 10
1.8451624212085487
 20
2.333886952047927
 10
1.8451624212085485
 20
2.246186258137947
 10
1.8451624212085487
 20
2.1525063247410934
 10
1.8451624212085487
 20
2.050955703995039
 10
1.8451624212085487
 20
1.938621661202599
 10
1.8451624212085487
 20
1.8102058824896254
 10
1.8451624212085485
 20
1.6529006352385212
 10
1.8451624212085487
 20
1.3619087833644645
 10
1.8451624212085485
 20
1.070916931725913
 10
1.8451624212085485
 20
0.9136116844748088
 10
1.8451624212085485
 20
0.7851959057618347
 10
1.8451624212085485
 20
0.672861862969395
 10
1.8451624212085485
 20
0.571311242223341
 10
1.8451624212085482
 20
0.4776313088264874
 10
1.8451624212085482
 20
0.38993061491650716
 10
1.8451624212085482
 20
0.30682467662493945
 10
1.8451624212085482
 20
0.22720127732831658
 10
1.845162421208548
 20
0.15009967089076165
 10
1.845162421208548
 20
0.07464329269440324
 10
1.845162421208548
 20
0.0
  0
LWPOLYLINE
  5
3F
330
17
100
AcDbEntity
  8
CLAMP
100
AcDbPolyline
 90
25
 70
0
 10
1.2451624212085481
 20
1.3322676295501876e-16
 10
1.2451624212085481
 20
0.07464329269440338
 10
1.2451624212085481
 20
0.1500996708907618
 10
1.2451624212085481
 20
0.22720127732831671
 10
1.2451624212085484
 20
0.30682467662493956
 10
1.2451624212085484
 20
0.38993061491650727
 10
1.2451624212085484
 20
0.4776313088264875
 10
1.2451624212085486
 20
0.571311242223341
 10
1.2451624212085486
 20
0.6728618629693951
 10
1.2451624212085486
 20
0.7851959057618348
 10
1.2451624212085486
 20
0.913611684474809
 10
1.2451624212085486
 20
1.0709169317259133
 10
1.2451624212085486
 20
1.3619087833644647
 10
1.2451624212085486
 20
1.6529006352385214
 10
1.2451624212085488
 20
1.8102058824896257
 10
1.2451624212085488
 20
1.9386216612025995
 10
1.2451624212085488
 20
2.050955703995039
 10
1.2451624212085488
 20
2.1525063247410934
 10
1.2451624212085488
 20
2.246186258137947
 10
1.2451624212085488
 20
2.333886952047927
 10
1.2451624212085486
 20
2.4169928903394946
 10
1.2451624212085486
 20
2.496616289636117
 10
1.2451624212085484
 20
2.5737178960736724
 10
1.2451624212085484
 20
2.64917427427003
 10
1.2451624212085481
 20
2.723817566964434
  0
LWPOLYLINE
  5
40
330
17
100
AcDbEntity
  8
CLAMP
100
AcDbPolyline
 90
25
 70
0
 10
1.845162421208548
 20
0.0
 10
1.845162421208548
 20
0.07464329269440324
 10
1.845162421208548
 20
0.15009967089076165
 10
1.8451624212085482
 20
0.22720127732831658
 10
1.8451624212085482
 20
0.30682467662493945
 10
1.8451624212085482
 20
0.38993061491650716
 10
1.8451624212085482
 20
0.4776313088264874
 10
1.8451624212085485
 20
0.571311242223341
 10
1.8451624212085485
 20
0.672861862969395
 10
1.8451624212085485
 20
0.7851959057618347
 10
1.8451624212085485
 20
0.9136116844748088
 10
1.8451624212085485
 20
1.070916931725913
 10
1.8451624212085487
 20
1.3619087833644645
 10
1.8451624212085485
 20
1.6529006352385212
 10
1.8451624212085487
 20
1.8102058824896254
 10
1.8451624212085487
 20
1.938621661202599
 10
1.8451624212085487
 20
2.050955703995039
 10
1.8451624212085487
 20
2.1525063247410934
 10
1.8451624212085485
 20
2.246186258137947
 10
1.8451624212085487
 20
2.333886952047927
 10
1.8451624212085485
 20
2.416992890339495
 10
1.8451624212085485
 20
2.4966162896361173
 10
1.8451624212085482
 20
2.573717896073673
 10
1.8451624212085482
 20
2.649174274270031
 10
1.8451624212085478
 20
2.723817566964435
  0
LWPOLYLINE
  5
41
330
17
100
AcDbEntity
  8
CLAMP
100
AcDbPolyline
 90
2
 70
0
 10
1.2451624212085481
 20
1.3322676295501876e-16
 10
1.845162421208548
 20
0.0
  0
LWPOLYLINE
  5
42
330
17
100
AcDbEntity
  8
CLAMP
100
AcDbPolyline
 90
2
 70
0
 10
1.2451624212085481
 20
2.723817566964434
 10
1.8451624212085478
 20
2.723817566964435
  0
TEXT
  5
43
330
17
100
AcDbEntity
  8
TEXTO
100
AcDbText
 10
1.2451624212085481
 20
-0.35
 30
0.0
 40
0.12
  1
R2T · x36 · 1.63 m2
 11
1.2451624212085481
 21
-0.35
 31
0.0
100
AcDbText
  0
TEXT
  5
44
330
17
100
AcDbEntity
  8
TEXTO
100
AcDbText
 10
1.2451624212085481
 20
-0.55
 30
0.0
 40
0.06
  1
ZION CÁPSULA · REVESTIMENTO EXTERNO · ACM 4 mm (alumínio composto) curvado a frio, creme Zion, fix
 11
1.2451624212085481
 21
-0.55
 31
0.0
100
AcDbText
  0
LWPOLYLINE
  5
45
330
17
100
AcDbEntity
  8
CONTORNO
100
AcDbPolyline
 90
50
 70
1
 10
2.445162421208549
 20
1.332267629550188e-16
 10
2.445162421208549
 20
0.07464329269440324
 10
2.445162421208549
 20
0.15009967089076168
 10
2.445162421208549
 20
0.2272012773283169
 10
2.445162421208549
 20
0.3068246766249396
 10
2.445162421208549
 20
0.3899306149165072
 10
2.445162421208549
 20
0.47763130882648747
 10
2.445162421208549
 20
0.5713112422233412
 10
2.445162421208549
 20
0.6728618629693953
 10
2.4451624212085497
 20
0.785195905761835
 10
2.445162421208549
 20
0.9136116844748088
 10
2.445162421208549
 20
1.070916931725913
 10
2.445162421208549
 20
1.3619087834822172
 10
2.445162421208549
 20
1.6529006352385214
 10
2.445162421208549
 20
1.8102058824896254
 10
2.445162421208549
 20
1.938621661202599
 10
2.4451624212085488
 20
2.0509557039950383
 10
2.4451624212085488
 20
2.152506324741093
 10
2.4451624212085488
 20
2.2461862581379464
 10
2.4451624212085488
 20
2.333886952047927
 10
2.4451624212085488
 20
2.4169928903394946
 10
2.4451624212085488
 20
2.4966162896361173
 10
2.4451624212085488
 20
2.5737178960736724
 10
2.4451624212085488
 20
2.649174274270031
 10
2.4451624212085488
 20
2.723817566964434
 10
3.045162421208549
 20
2.723817566964434
 10
3.045162421208549
 20
2.649174274270031
 10
3.045162421208549
 20
2.573717896073672
 10
3.045162421208549
 20
2.4966162896361173
 10
3.045162421208549
 20
2.4169928903394946
 10
3.045162421208549
 20
2.333886952047927
 10
3.045162421208549
 20
2.246186258137947
 10
3.045162421208549
 20
2.1525063247410934
 10
3.045162421208549
 20
2.050955703995039
 10
3.045162421208549
 20
1.9386216612025993
 10
3.0451624212085493
 20
1.8102058824896259
 10
3.0451624212085493
 20
1.6529006352385216
 10
3.0451624212085493
 20
1.3619087834822172
 10
3.0451624212085493
 20
1.0709169317259128
 10
3.0451624212085493
 20
0.9136116844748088
 10
3.0451624212085493
 20
0.785195905761835
 10
3.0451624212085493
 20
0.6728618629693952
 10
3.0451624212085493
 20
0.5713112422233411
 10
3.0451624212085493
 20
0.4776313088264874
 10
3.0451624212085493
 20
0.38993061491650716
 10
3.0451624212085493
 20
0.30682467662493956
 10
3.0451624212085493
 20
0.22720127732831677
 10
3.0451624212085493
 20
0.15009967089076154
 10
3.0451624212085493
 20
0.0746432926944031
 10
3.0451624212085493
 20
0.0
  0
LWPOLYLINE
  5
46
330
17
100
AcDbEntity
  8
CLAMP
100
AcDbPolyline
 90
25
 70
0
 10
2.445162421208549
 20
1.332267629550188e-16
 10
2.445162421208549
 20
0.07464329269440324
 10
2.445162421208549
 20
0.15009967089076168
 10
2.445162421208549
 20
0.2272012773283169
 10
2.445162421208549
 20
0.3068246766249396
 10
2.445162421208549
 20
0.3899306149165072
 10
2.445162421208549
 20
0.47763130882648747
 10
2.445162421208549
 20
0.5713112422233412
 10
2.445162421208549
 20
0.6728618629693953
 10
2.4451624212085497
 20
0.785195905761835
 10
2.445162421208549
 20
0.9136116844748088
 10
2.445162421208549
 20
1.070916931725913
 10
2.445162421208549
 20
1.3619087834822172
 10
2.445162421208549
 20
1.6529006352385214
 10
2.445162421208549
 20
1.8102058824896254
 10
2.445162421208549
 20
1.938621661202599
 10
2.4451624212085488
 20
2.0509557039950383
 10
2.4451624212085488
 20
2.152506324741093
 10
2.4451624212085488
 20
2.2461862581379464
 10
2.4451624212085488
 20
2.333886952047927
 10
2.4451624212085488
 20
2.4169928903394946
 10
2.4451624212085488
 20
2.4966162896361173
 10
2.4451624212085488
 20
2.5737178960736724
 10
2.4451624212085488
 20
2.649174274270031
 10
2.4451624212085488
 20
2.723817566964434
  0
LWPOLYLINE
  5
47
330
17
100
AcDbEntity
  8
CLAMP
100
AcDbPolyline
 90
25
 70
0
 10
3.0451624212085493
 20
0.0
 10
3.0451624212085493
 20
0.0746432926944031
 10
3.0451624212085493
 20
0.15009967089076154
 10
3.0451624212085493
 20
0.22720127732831677
 10
3.0451624212085493
 20
0.30682467662493956
 10
3.0451624212085493
 20
0.38993061491650716
 10
3.0451624212085493
 20
0.4776313088264874
 10
3.0451624212085493
 20
0.5713112422233411
 10
3.0451624212085493
 20
0.6728618629693952
 10
3.0451624212085493
 20
0.785195905761835
 10
3.0451624212085493
 20
0.9136116844748088
 10
3.0451624212085493
 20
1.0709169317259128
 10
3.0451624212085493
 20
1.3619087834822172
 10
3.0451624212085493
 20
1.6529006352385216
 10
3.0451624212085493
 20
1.8102058824896259
 10
3.045162421208549
 20
1.9386216612025993
 10
3.045162421208549
 20
2.050955703995039
 10
3.045162421208549
 20
2.1525063247410934
 10
3.045162421208549
 20
2.246186258137947
 10
3.045162421208549
 20
2.333886952047927
 10
3.045162421208549
 20
2.4169928903394946
 10
3.045162421208549
 20
2.4966162896361173
 10
3.045162421208549
 20
2.573717896073672
 10
3.045162421208549
 20
2.649174274270031
 10
3.045162421208549
 20
2.723817566964434
  0
LWPOLYLINE
  5
48
330
17
100
AcDbEntity
  8
CLAMP
100
AcDbPolyline
 90
2
 70
0
 10
2.445162421208549
 20
1.332267629550188e-16
 10
3.0451624212085493
 20
0.0
  0
LWPOLYLINE
  5
49
330
17
100
AcDbEntity
  8
CLAMP
100
AcDbPolyline
 90
2
 70
0
 10
2.4451624212085488
 20
2.723817566964434
 10
3.045162421208549
 20
2.723817566964434
  0
LWPOLYLINE
  5
4A
330
17
100
AcDbEntity
  8
RECORTE
100
AcDbPolyline
 90
36
 70
1
 10
2.9651624212085492
 20
1.3619087834822172
 10
2.960300902172456
 20
1.5163177152927816
 10
2.94586405986004
 20
1.6600008548236609
 10
2.9222905504195698
 20
1.7359401016607552
 10
2.8902966430066224
 20
1.804576595993178
 10
2.850854456308242
 20
1.853977606129684
 10
2.805162421208549
 20
1.893211106339933
 10
2.754608867072763
 20
1.922118837916812
 10
2.7007298380619673
 20
1.939672076642754
 10
2.645162421208549
 20
1.944887082033215
 10
2.5895950043551315
 20
1.939672076642754
 10
2.5357159753443357
 20
1.9221188379168117
 10
2.4851624212085497
 20
1.8932111063399328
 10
2.439470386108857
 20
1.8539776061296838
 10
2.4000281994104764
 20
1.8045765959931779
 10
2.368034291997529
 20
1.735940101660755
 10
2.344460782557059
 20
1.6600008548236607
 10
2.3300239402446428
 20
1.5163177152927814
 10
2.3251624212085495
 20
1.3619087834822172
 10
2.3300239402446428
 20
1.2074998516716535
 10
2.344460782557059
 20
1.0638167121407738
 10
2.368034291997529
 20
0.9878774653036795
 10
2.4000281994104764
 20
0.9192409709712565
 10
2.4394703861088574
 20
0.8698399608347507
 10
2.4851624212085497
 20
0.8306064606245016
 10
2.5357159753443357
 20
0.8016987290476221
 10
2.589595004355132
 20
0.7841454903216801
 10
2.64516242120855
 20
0.7789304849312193
 10
2.7007298380619673
 20
0.7841454903216801
 10
2.754608867072764
 20
0.8016987290476221
 10
2.8051624212085495
 20
0.8306064606245012
 10
2.850854456308242
 20
0.8698399608347507
 10
2.8902966430066224
 20
0.9192409709712565
 10
2.9222905504195698
 20
0.9878774653036796
 10
2.94586405986004
 20
1.0638167121407736
 10
2.960300902172456
 20
1.2074998516716535
  0
TEXT
  5
4B
330
17
100
AcDbEntity
  8
TEXTO
100
AcDbText
 10
2.6451624212085494
 20
1.3619087834822174
 30
0.0
 40
0.05
  1
Olho da suíte Ø0,64
 11
2.6451624212085494
 21
1.3619087834822174
 31
0.0
100
AcDbText
  0
TEXT
  5
4C
330
17
100
AcDbEntity
  8
TEXTO
100
AcDbText
 10
2.4451624212085488
 20
-0.35
 30
0.0
 40
0.12
  1
R5D · x1 · 1.63 m2
 11
2.4451624212085488
 21
-0.35
 31
0.0
100
AcDbText
  0
TEXT
  5
4D
330
17
100
AcDbEntity
  8
TEXTO
100
AcDbText
 10
2.4451624212085488
 20
-0.55
 30
0.0
 40
0.06
  1
ZION CÁPSULA · REVESTIMENTO EXTERNO · ACM 4 mm (alumínio composto) curvado a frio, creme Zion, fix
 11
2.4451624212085488
 21
-0.55
 31
0.0
100
AcDbText
  0
LWPOLYLINE
  5
4E
330
17
100
AcDbEntity
  8
CONTORNO
100
AcDbPolyline
 90
50
 70
1
 10
3.64516242120855
 20
0.0
 10
3.64516242120855
 20
0.07464329269440295
 10
3.64516242120855
 20
0.15009967089076132
 10
3.64516242120855
 20
0.22720127732831674
 10
3.64516242120855
 20
0.3068246766249394
 10
3.64516242120855
 20
0.3899306149165068
 10
3.64516242120855
 20
0.4776313088264872
 10
3.64516242120855
 20
0.5713112422233406
 10
3.64516242120855
 20
0.6728618629693947
 10
3.64516242120855
 20
0.7851959057618341
 10
3.64516242120855
 20
0.9136116844748084
 10
3.6451624212085494
 20
1.0709169317259126
 10
3.6451624212085494
 20
1.3619087833006172
 10
3.6451624212085494
 20
1.6529006352385205
 10
3.6451624212085494
 20
1.8102058824896248
 10
3.6451624212085494
 20
1.9386216612025986
 10
3.6451624212085494
 20
2.050955703995038
 10
3.6451624212085494
 20
2.152506324741093
 10
3.64516242120855
 20
2.2461862581379464
 10
3.64516242120855
 20
2.333886952047927
 10
3.64516242120855
 20
2.4169928903394946
 10
3.6451624212085503
 20
2.496616289636117
 10
3.64516242120855
 20
2.5737178960736724
 10
3.6451624212085503
 20
2.64917427427003
 10
3.6451624212085503
 20
2.7238175669644336
 10
4.245162421208551
 20
2.7238175669644327
 10
4.24516242120855
 20
2.6491742742700293
 10
4.24516242120855
 20
2.5737178960736715
 10
4.24516242120855
 20
2.496616289636116
 10
4.24516242120855
 20
2.4169928903394937
 10
4.24516242120855
 20
2.3338869520479255
 10
4.24516242120855
 20
2.2461862581379455
 10
4.24516242120855
 20
2.152506324741092
 10
4.24516242120855
 20
2.0509557039950375
 10
4.24516242120855
 20
1.9386216612025984
 10
4.2451624212085495
 20
1.8102058824896248
 10
4.2451624212085495
 20
1.6529006352385205
 10
4.2451624212085495
 20
1.3619087833006174
 10
4.24516242120855
 20
1.0709169317259128
 10
4.24516242120855
 20
0.9136116844748084
 10
4.24516242120855
 20
0.7851959057618341
 10
4.24516242120855
 20
0.6728618629693948
 10
4.24516242120855
 20
0.5713112422233407
 10
4.24516242120855
 20
0.4776313088264873
 10
4.24516242120855
 20
0.38993061491650693
 10
4.24516242120855
 20
0.3068246766249395
 10
4.24516242120855
 20
0.22720127732831688
 10
4.24516242120855
 20
0.15009967089076146
 10
4.24516242120855
 20
0.07464329269440308
 10
4.24516242120855
 20
1.332267629550189e-16
  0
LWPOLYLINE
  5
4F
330
17
100
AcDbEntity
  8
CLAMP
100
AcDbPolyline
 90
25
 70
0
 10
3.64516242120855
 20
0.0
 10
3.64516242120855
 20
0.07464329269440295
 10
3.64516242120855
 20
0.15009967089076132
 10
3.64516242120855
 20
0.22720127732831674
 10
3.64516242120855
 20
0.3068246766249394
 10
3.64516242120855
 20
0.3899306149165068
 10
3.64516242120855
 20
0.4776313088264872
 10
3.64516242120855
 20
0.5713112422233406
 10
3.64516242120855
 20
0.6728618629693947
 10
3.64516242120855
 20
0.7851959057618341
 10
3.64516242120855
 20
0.9136116844748084
 10
3.6451624212085494
 20
1.0709169317259126
 10
3.6451624212085494
 20
1.3619087833006172
 10
3.6451624212085494
 20
1.6529006352385205
 10
3.6451624212085494
 20
1.8102058824896248
 10
3.6451624212085494
 20
1.9386216612025986
 10
3.6451624212085494
 20
2.050955703995038
 10
3.6451624212085494
 20
2.152506324741093
 10
3.64516242120855
 20
2.2461862581379464
 10
3.64516242120855
 20
2.333886952047927
 10
3.64516242120855
 20
2.4169928903394946
 10
3.6451624212085503
 20
2.496616289636117
 10
3.64516242120855
 20
2.5737178960736724
 10
3.6451624212085503
 20
2.64917427427003
 10
3.6451624212085503
 20
2.7238175669644336
  0
LWPOLYLINE
  5
50
330
17
100
AcDbEntity
  8
CLAMP
100
AcDbPolyline
 90
25
 70
0
 10
4.24516242120855
 20
1.332267629550189e-16
 10
4.24516242120855
 20
0.07464329269440308
 10
4.24516242120855
 20
0.15009967089076146
 10
4.24516242120855
 20
0.22720127732831688
 10
4.24516242120855
 20
0.3068246766249395
 10
4.24516242120855
 20
0.38993061491650693
 10
4.24516242120855
 20
0.4776313088264873
 10
4.24516242120855
 20
0.5713112422233407
 10
4.24516242120855
 20
0.6728618629693948
 10
4.24516242120855
 20
0.7851959057618341
 10
4.24516242120855
 20
0.9136116844748084
 10
4.24516242120855
 20
1.0709169317259128
 10
4.2451624212085495
 20
1.3619087833006174
 10
4.2451624212085495
 20
1.6529006352385205
 10
4.2451624212085495
 20
1.8102058824896248
 10
4.24516242120855
 20
1.9386216612025984
 10
4.24516242120855
 20
2.0509557039950375
 10
4.24516242120855
 20
2.152506324741092
 10
4.24516242120855
 20
2.2461862581379455
 10
4.24516242120855
 20
2.3338869520479255
 10
4.24516242120855
 20
2.4169928903394937
 10
4.24516242120855
 20
2.496616289636116
 10
4.24516242120855
 20
2.5737178960736715
 10
4.24516242120855
 20
2.6491742742700293
 10
4.245162421208551
 20
2.7238175669644327
  0
LWPOLYLINE
  5
51
330
17
100
AcDbEntity
  8
CLAMP
100
AcDbPolyline
 90
2
 70
0
 10
3.64516242120855
 20
0.0
 10
4.24516242120855
 20
1.332267629550189e-16
  0
LWPOLYLINE
  5
52
330
17
100
AcDbEntity
  8
CLAMP
100
AcDbPolyline
 90
2
 70
0
 10
3.6451624212085503
 20
2.7238175669644336
 10
4.245162421208551
 20
2.7238175669644327
  0
LWPOLYLINE
  5
53
330
17
100
AcDbEntity
  8
RECORTE
100
AcDbPolyline
 90
36
 70
1
 10
4.10516242120855
 20
1.3619087833006174
 10
4.101212436991724
 20
1.2364515262828286
 10
4.089482502612886
 20
1.1148062245350903
 10
4.070329026192504
 20
1.0329420991174305
 10
4.044333976419484
 20
0.9771749474723362
 10
4.012287199727051
 20
0.9290357389204835
 10
3.97516242120855
 20
0.8943258571137985
 10
3.9340876584732243
 20
0.870838325207584
 10
3.890310947401952
 20
0.8564541370876892
 10
3.84516242120855
 20
0.8516103490313851
 10
3.800013895015148
 20
0.8564541370876892
 10
3.7562371839438766
 20
0.870838325207584
 10
3.71516242120855
 20
0.8943258571137985
 10
3.6780376426900494
 20
0.9290357389204835
 10
3.645990865997616
 20
0.9771749474723361
 10
3.6199958162245953
 20
1.0329420991174303
 10
3.6008423398042138
 20
1.11480622453509
 10
3.5891124054253756
 20
1.2364515262828284
 10
3.5851624212085498
 20
1.3619087833006172
 10
3.5891124054253756
 20
1.4873660404749942
 10
3.6008423398042138
 20
1.6090113423745631
 10
3.6199958162245953
 20
1.6908754678470028
 10
3.645990865997615
 20
1.746642619492097
 10
3.678037642690049
 20
1.7947818280439496
 10
3.7151624212085497
 20
1.8294917098506347
 10
3.756237183943876
 20
1.8529792417568491
 10
3.8000138950151476
 20
1.8673634298767436
 10
3.8451624212085496
 20
1.8722072179330478
 10
3.8903109474019515
 20
1.8673634298767436
 10
3.934087658473224
 20
1.8529792417568491
 10
3.9751624212085495
 20
1.8294917098506347
 10
4.01228719972705
 20
1.7947818280439496
 10
4.044333976419484
 20
1.746642619492097
 10
4.070329026192503
 20
1.6908754678470028
 10
4.089482502612886
 20
1.6090113423745631
 10
4.101212436991723
 20
1.4873660404749944
  0
TEXT
  5
54
330
17
100
AcDbEntity
  8
TEXTO
100
AcDbText
 10
3.8451624212085496
 20
1.3619087834576062
 30
0.0
 40
0.05
  1
Olho do banho Ø0,52
 11
3.8451624212085496
 21
1.3619087834576062
 31
0.0
100
AcDbText
  0
TEXT
  5
55
330
17
100
AcDbEntity
  8
TEXTO
100
AcDbText
 10
3.6451624212085494
 20
-0.35
 30
0.0
 40
0.12
  1
R10E · x1 · 1.63 m2
 11
3.6451624212085494
 21
-0.35
 31
0.0
100
AcDbText
  0
TEXT
  5
56
330
17
100
AcDbEntity
  8
TEXTO
100
AcDbText
 10
3.6451624212085494
 20
-0.55
 30
0.0
 40
0.06
  1
ZION CÁPSULA · REVESTIMENTO EXTERNO · ACM 4 mm (alumínio composto) curvado a frio, creme Zion, fix
 11
3.6451624212085494
 21
-0.55
 31
0.0
100
AcDbText
  0
LWPOLYLINE
  5
57
330
17
100
AcDbEntity
  8
CONTORNO
100
AcDbPolyline
 90
50
 70
1
 10
5.08762900306534
 20
0.0
 10
5.047198623655133
 20
0.06274556211405789
 10
5.0108923272173485
 20
0.12889325934898507
 10
4.978520729264056
 20
0.19886995090554552
 10
4.949924761287824
 20
0.2731811635928096
 10
4.924970979588698
 20
0.3524522538983818
 10
4.903548121119012
 20
0.4374962004629662
 10
4.885564473189404
 20
0.5294337788973733
 10
4.87094579557018
 20
0.6299266783409367
 10
4.859633644175905
 20
0.7416896972735276
 10
4.8515840165501825
 20
0.8698529358310279
 10
4.846766284955594
 20
1.0270843903018605
 10
4.845162421208551
 20
1.3180718218880265
 10
4.846766284955594
 20
1.6090592537097015
 10
4.8515840165501825
 20
1.7662907081805341
 10
4.859633644175905
 20
1.8944539467380341
 10
4.87094579557018
 20
2.0062169656706246
 10
4.885564473189404
 20
2.1067098651141887
 10
4.903548121119012
 20
2.198647443548596
 10
4.924970979588698
 20
2.28369139011318
 10
4.949924761287825
 20
2.3629624804187523
 10
4.978520729264056
 20
2.437273693106016
 10
5.0108923272173485
 20
2.5072503846625773
 10
5.047198623655133
 20
2.573398081897504
 10
5.08762900306534
 20
2.6361436440115624
 10
6.4652913654790884
 20
1.6775585233327381
 10
6.454264512856251
 20
1.6604454990113748
 10
6.4443624494588585
 20
1.6424045872170756
 10
6.435533523166207
 20
1.623319367733996
 10
6.427734350141337
 20
1.6030519647939212
 10
6.4209285353754915
 20
1.5814318206646156
 10
6.415085733340211
 20
1.5582372061467167
 10
6.410180930609354
 20
1.5331624444777516
 10
6.406193879139655
 20
1.5057543318661235
 10
6.403108639077812
 20
1.4752724428403194
 10
6.400913209334327
 20
1.4403176102650326
 10
6.3995992365978625
 20
1.397434805269971
 10
6.399161803919175
 20
1.3180718219736647
 10
6.3995992365978625
 20
1.2387088387415903
 10
6.400913209334327
 20
1.1958260337465287
 10
6.4031086390778125
 20
1.1608712011712414
 10
6.406193879139655
 20
1.1303893121454374
 10
6.4101809306093545
 20
1.1029811995338092
 10
6.415085733340212
 20
1.0779064378648442
 10
6.420928535375492
 20
1.0547118233469452
 10
6.427734350141337
 20
1.0330916792176397
 10
6.435533523166207
 20
1.0128242762775643
 10
6.444362449458859
 20
0.9937390567944854
 10
6.454264512856252
 20
0.9756981450001857
 10
6.465291365479089
 20
0.9585851206788226
  0
LWPOLYLINE
  5
58
330
17
100
AcDbEntity
  8
CLAMP
100
AcDbPolyline
 90
25
 70
0
 10
5.08762900306534
 20
0.0
 10
5.047198623655133
 20
0.06274556211405789
 10
5.0108923272173485
 20
0.12889325934898507
 10
4.978520729264056
 20
0.19886995090554552
 10
4.949924761287824
 20
0.2731811635928096
 10
4.924970979588698
 20
0.3524522538983818
 10
4.903548121119012
 20
0.4374962004629662
 10
4.885564473189404
 20
0.5294337788973733
 10
4.87094579557018
 20
0.6299266783409367
 10
4.859633644175905
 20
0.7416896972735276
 10
4.8515840165501825
 20
0.8698529358310279
 10
4.846766284955594
 20
1.0270843903018605
 10
4.845162421208551
 20
1.3180718218880265
 10
4.846766284955594
 20
1.6090592537097015
 10
4.8515840165501825
 20
1.7662907081805341
 10
4.859633644175905
 20
1.8944539467380341
 10
4.87094579557018
 20
2.0062169656706246
 10
4.885564473189404
 20
2.1067098651141887
 10
4.903548121119012
 20
2.198647443548596
 10
4.924970979588698
 20
2.28369139011318
 10
4.949924761287825
 20
2.3629624804187523
 10
4.978520729264056
 20
2.437273693106016
 10
5.0108923272173485
 20
2.5072503846625773
 10
5.047198623655133
 20
2.573398081897504
 10
5.08762900306534
 20
2.6361436440115624
  0
LWPOLYLINE
  5
59
330
17
100
AcDbEntity
  8
CLAMP
100
AcDbPolyline
 90
25
 70
0
 10
6.465291365479089
 20
0.9585851206788226
 10
6.454264512856252
 20
0.9756981450001857
 10
6.444362449458859
 20
0.9937390567944854
 10
6.435533523166207
 20
1.0128242762775643
 10
6.427734350141337
 20
1.0330916792176397
 10
6.420928535375492
 20
1.0547118233469452
 10
6.415085733340212
 20
1.0779064378648442
 10
6.4101809306093545
 20
1.1029811995338092
 10
6.406193879139655
 20
1.1303893121454374
 10
6.4031086390778125
 20
1.1608712011712414
 10
6.400913209334327
 20
1.1958260337465287
 10
6.3995992365978625
 20
1.2387088387415903
 10
6.399161803919175
 20
1.3180718219736647
 10
6.3995992365978625
 20
1.397434805269971
 10
6.400913209334327
 20
1.4403176102650326
 10
6.403108639077812
 20
1.4752724428403194
 10
6.406193879139655
 20
1.5057543318661235
 10
6.410180930609354
 20
1.5331624444777516
 10
6.415085733340211
 20
1.5582372061467167
 10
6.4209285353754915
 20
1.5814318206646156
 10
6.427734350141337
 20
1.6030519647939212
 10
6.435533523166207
 20
1.623319367733996
 10
6.4443624494588585
 20
1.6424045872170756
 10
6.454264512856251
 20
1.6604454990113748
 10
6.4652913654790884
 20
1.6775585233327381
  0
LWPOLYLINE
  5
5A
330
17
100
AcDbEntity
  8
CLAMP
100
AcDbPolyline
 90
2
 70
0
 10
5.08762900306534
 20
0.0
 10
6.465291365479089
 20
0.9585851206788226
  0
LWPOLYLINE
  5
5B
330
17
100
AcDbEntity
  8
CLAMP
100
AcDbPolyline
 90
2
 70
0
 10
5.08762900306534
 20
2.6361436440115624
 10
6.4652913654790884
 20
1.6775585233327381
  0
TEXT
  5
5C
330
17
100
AcDbEntity
  8
TEXTO
100
AcDbText
 10
4.845162421208551
 20
-0.35
 30
0.0
 40
0.12
  1
R12T · x4 · 2.77 m2
 11
4.845162421208551
 21
-0.35
 31
0.0
100
AcDbText
  0
TEXT
  5
5D
330
17
100
AcDbEntity
  8
TEXTO
100
AcDbText
 10
4.845162421208551
 20
-0.55
 30
0.0
 40
0.06
  1
ZION CÁPSULA · REVESTIMENTO EXTERNO · ACM 4 mm (alumínio composto) curvado a frio, creme Zion, fix
 11
4.845162421208551
 21
-0.55
 31
0.0
100
AcDbText
  0
LWPOLYLINE
  5
5E
330
17
100
AcDbEntity
  8
CONTORNO
100
AcDbPolyline
 90
50
 70
1
 10
7.065291365479089
 20
0.05834175565695647
 10
7.071175147971341
 20
0.12298638096699702
 10
7.076371264354929
 20
0.18839924439029243
 10
7.08093368368553
 20
0.2552934911484688
 10
7.084908669634482
 20
0.32442197404825873
 10
7.088335413088198
 20
0.3966118715152543
 10
7.09124661429814
 20
0.4728231964049103
 10
7.093669060318367
 20
0.5542537885647064
 10
7.095624198658168
 20
0.6425433233480329
 10
7.097128686643526
 20
0.7402204744195392
 10
7.098194889923902
 20
0.8518892361434006
 10
7.098831305206346
 20
0.9886846744440319
 10
7.099042883303813
 20
1.241739009574628
 10
7.098831305206346
 20
1.494793344910026
 10
7.098194889923902
 20
1.631588783210657
 10
7.097128686643526
 20
1.7432575449345182
 10
7.095624198658169
 20
1.8409346960060244
 10
7.093669060318368
 20
1.9292242307893517
 10
7.09124661429814
 20
2.0106548229491477
 10
7.088335413088198
 20
2.0868661478388035
 10
7.0849086696344825
 20
2.1590560453057996
 10
7.08093368368553
 20
2.228184528205589
 10
7.076371264354929
 20
2.2950787749637658
 10
7.071175147971341
 20
2.36049163838706
 10
7.065291365479089
 20
2.4251362636971017
 10
7.667535911983276
 20
2.4834780193540573
 10
7.673709766299961
 20
2.4156463992106567
 10
7.6791620524113275
 20
2.3470086666390695
 10
7.683949400059859
 20
2.276816518194908
 10
7.688120353726487
 20
2.2042799852556465
 10
7.691716036417299
 20
2.1285311093098573
 10
7.694770760513644
 20
2.0485625486484427
 10
7.697312633677482
 20
1.9631174096450998
 10
7.699364160785222
 20
1.8704751805759805
 10
7.7009428203728305
 20
1.7679825235856268
 10
7.702061587719121
 20
1.6508084663332552
 10
7.702729378420749
 20
1.5072689815941098
 10
7.702951387366878
 20
1.2417390095695795
 10
7.702729378420749
 20
0.9762090377599479
 10
7.702061587719121
 20
0.8326695530208023
 10
7.70094282037283
 20
0.7154954957684303
 10
7.699364160785221
 20
0.6130028387780765
 10
7.697312633677482
 20
0.520360609708958
 10
7.694770760513644
 20
0.4349154707056153
 10
7.691716036417299
 20
0.3549469100442005
 10
7.688120353726487
 20
0.27919803409841204
 10
7.683949400059859
 20
0.20666150115914894
 10
7.6791620524113275
 20
0.13646935271498822
 10
7.673709766299961
 20
0.06783162014340019
 10
7.667535911983276
 20
0.0
  0
LWPOLYLINE
  5
5F
330
17
100
AcDbEntity
  8
CLAMP
100
AcDbPolyline
 90
25
 70
0
 10
7.065291365479089
 20
0.05834175565695647
 10
7.071175147971341
 20
0.12298638096699702
 10
7.076371264354929
 20
0.18839924439029243
 10
7.08093368368553
 20
0.2552934911484688
 10
7.084908669634482
 20
0.32442197404825873
 10
7.088335413088198
 20
0.3966118715152543
 10
7.09124661429814
 20
0.4728231964049103
 10
7.093669060318367
 20
0.5542537885647064
 10
7.095624198658168
 20
0.6425433233480329
 10
7.097128686643526
 20
0.7402204744195392
 10
7.098194889923902
 20
0.8518892361434006
 10
7.098831305206346
 20
0.9886846744440319
 10
7.099042883303813
 20
1.241739009574628
 10
7.098831305206346
 20
1.494793344910026
 10
7.098194889923902
 20
1.631588783210657
 10
7.097128686643526
 20
1.7432575449345182
 10
7.095624198658169
 20
1.8409346960060244
 10
7.093669060318368
 20
1.9292242307893517
 10
7.09124661429814
 20
2.0106548229491477
 10
7.088335413088198
 20
2.0868661478388035
 10
7.0849086696344825
 20
2.1590560453057996
 10
7.08093368368553
 20
2.228184528205589
 10
7.076371264354929
 20
2.2950787749637658
 10
7.071175147971341
 20
2.36049163838706
 10
7.065291365479089
 20
2.4251362636971017
  0
LWPOLYLINE
  5
60
330
17
100
AcDbEntity
  8
CLAMP
100
AcDbPolyline
 90
25
 70
0
 10
7.667535911983276
 20
0.0
 10
7.673709766299961
 20
0.06783162014340019
 10
7.6791620524113275
 20
0.13646935271498822
 10
7.683949400059859
 20
0.20666150115914894
 10
7.688120353726487
 20
0.27919803409841204
 10
7.691716036417299
 20
0.3549469100442005
 10
7.694770760513644
 20
0.4349154707056153
 10
7.697312633677482
 20
0.520360609708958
 10
7.699364160785221
 20
0.6130028387780765
 10
7.70094282037283
 20
0.7154954957684303
 10
7.702061587719121
 20
0.8326695530208023
 10
7.702729378420749
 20
0.9762090377599479
 10
7.702951387366878
 20
1.2417390095695795
 10
7.702729378420749
 20
1.5072689815941098
 10
7.702061587719121
 20
1.6508084663332552
 10
7.7009428203728305
 20
1.7679825235856268
 10
7.699364160785222
 20
1.8704751805759805
 10
7.697312633677482
 20
1.9631174096450998
 10
7.694770760513644
 20
2.0485625486484427
 10
7.691716036417299
 20
2.1285311093098573
 10
7.688120353726487
 20
2.2042799852556465
 10
7.683949400059859
 20
2.276816518194908
 10
7.6791620524113275
 20
2.3470086666390695
 10
7.673709766299961
 20
2.4156463992106567
 10
7.667535911983276
 20
2.4834780193540573
  0
LWPOLYLINE
  5
61
330
17
100
AcDbEntity
  8
CLAMP
100
AcDbPolyline
 90
2
 70
0
 10
7.065291365479089
 20
0.05834175565695647
 10
7.667535911983276
 20
0.0
  0
LWPOLYLINE
  5
62
330
17
100
AcDbEntity
  8
CLAMP
100
AcDbPolyline
 90
2
 70
0
 10
7.065291365479089
 20
2.4251362636971017
 10
7.667535911983276
 20
2.4834780193540573
  0
TEXT
  5
63
330
17
100
AcDbEntity
  8
TEXTO
100
AcDbText
 10
7.065291365479089
 20
-0.35
 30
0.0
 40
0.12
  1
I1T · x4 · 1.47 m2
 11
7.065291365479089
 21
-0.35
 31
0.0
100
AcDbText
  0
TEXT
  5
64
330
17
100
AcDbEntity
  8
TEXTO
100
AcDbText
 10
7.065291365479089
 20
-0.55
 30
0.0
 40
0.06
  1
ZION CÁPSULA · FORRO / REVESTIMENTO INTERNO · Compensado naval 12 mm curvado (2 x 6 mm colados), acabament
 11
7.065291365479089
 21
-0.55
 31
0.0
100
AcDbText
  0
LWPOLYLINE
  5
65
330
17
100
AcDbEntity
  8
CONTORNO
100
AcDbPolyline
 90
50
 70
1
 10
8.302951387366878
 20
0.0
 10
8.302951387366878
 20
0.06811200458364278
 10
8.302951387366878
 20
0.13696594968781992
 10
8.302951387366878
 20
0.20732116556208896
 10
8.302951387366878
 20
0.2799775174202572
 10
8.302951387366878
 20
0.35581168611131264
 10
8.302951387366878
 20
0.43583856930416964
 10
8.302951387366878
 20
0.5213215085287985
 10
8.302951387366878
 20
0.6139864499595727
 10
8.302951387366878
 20
0.716491264007674
 10
8.302951387366878
 20
0.8336706620832629
 10
8.302951387366878
 20
0.9772117001998954
 10
8.302951387366878
 20
1.2427417648200736
 10
8.302951387366878
 20
1.50827182965515
 10
8.302951387366878
 20
1.6518128677717827
 10
8.302951387366878
 20
1.7689922658473711
 10
8.302951387366878
 20
1.8714970798954724
 10
8.302951387366878
 20
1.9641620213262472
 10
8.302951387366878
 20
2.049644960550876
 10
8.302951387366878
 20
2.129671843743733
 10
8.302951387366878
 20
2.205506012434789
 10
8.302951387366878
 20
2.2781623642929567
 10
8.302951387366878
 20
2.348517580167226
 10
8.302951387366878
 20
2.4173715252714025
 10
8.302951387366878
 20
2.485483529855046
 10
8.902951387366878
 20
2.485483529855046
 10
8.902951387366878
 20
2.4173715252714025
 10
8.902951387366878
 20
2.348517580167226
 10
8.902951387366878
 20
2.2781623642929563
 10
8.902951387366878
 20
2.2055060124347885
 10
8.902951387366878
 20
2.1296718437437328
 10
8.902951387366878
 20
2.049644960550876
 10
8.902951387366878
 20
1.9641620213262472
 10
8.902951387366878
 20
1.8714970798954722
 10
8.902951387366878
 20
1.7689922658473711
 10
8.902951387366878
 20
1.6518128677717827
 10
8.902951387366878
 20
1.50827182965515
 10
8.902951387366878
 20
1.2427417648200736
 10
8.902951387366878
 20
0.9772117001998956
 10
8.902951387366878
 20
0.833670662083263
 10
8.902951387366878
 20
0.7164912640076742
 10
8.902951387366878
 20
0.6139864499595729
 10
8.902951387366878
 20
0.5213215085287987
 10
8.902951387366878
 20
0.43583856930416975
 10
8.902951387366878
 20
0.35581168611131275
 10
8.902951387366878
 20
0.2799775174202574
 10
8.902951387366878
 20
0.20732116556208915
 10
8.902951387366878
 20
0.13696594968782008
 10
8.902951387366878
 20
0.06811200458364292
 10
8.902951387366878
 20
1.3322676295501876e-16
  0
LWPOLYLINE
  5
66
330
17
100
AcDbEntity
  8
CLAMP
100
AcDbPolyline
 90
25
 70
0
 10
8.302951387366878
 20
0.0
 10
8.302951387366878
 20
0.06811200458364278
 10
8.302951387366878
 20
0.13696594968781992
 10
8.302951387366878
 20
0.20732116556208896
 10
8.302951387366878
 20
0.2799775174202572
 10
8.302951387366878
 20
0.35581168611131264
 10
8.302951387366878
 20
0.43583856930416964
 10
8.302951387366878
 20
0.5213215085287985
 10
8.302951387366878
 20
0.6139864499595727
 10
8.302951387366878
 20
0.716491264007674
 10
8.302951387366878
 20
0.8336706620832629
 10
8.302951387366878
 20
0.9772117001998954
 10
8.302951387366878
 20
1.2427417648200736
 10
8.302951387366878
 20
1.50827182965515
 10
8.302951387366878
 20
1.6518128677717827
 10
8.302951387366878
 20
1.7689922658473711
 10
8.302951387366878
 20
1.8714970798954724
 10
8.302951387366878
 20
1.9641620213262472
 10
8.302951387366878
 20
2.049644960550876
 10
8.302951387366878
 20
2.129671843743733
 10
8.302951387366878
 20
2.205506012434789
 10
8.302951387366878
 20
2.2781623642929567
 10
8.302951387366878
 20
2.348517580167226
 10
8.302951387366878
 20
2.4173715252714025
 10
8.302951387366878
 20
2.485483529855046
  0
LWPOLYLINE
  5
67
330
17
100
AcDbEntity
  8
CLAMP
100
AcDbPolyline
 90
25
 70
0
 10
8.902951387366878
 20
1.3322676295501876e-16
 10
8.902951387366878
 20
0.06811200458364292
 10
8.902951387366878
 20
0.13696594968782008
 10
8.902951387366878
 20
0.20732116556208915
 10
8.902951387366878
 20
0.2799775174202574
 10
8.902951387366878
 20
0.35581168611131275
 10
8.902951387366878
 20
0.43583856930416975
 10
8.902951387366878
 20
0.5213215085287987
 10
8.902951387366878
 20
0.6139864499595729
 10
8.902951387366878
 20
0.7164912640076742
 10
8.902951387366878
 20
0.833670662083263
 10
8.902951387366878
 20
0.9772117001998956
 10
8.902951387366878
 20
1.2427417648200736
 10
8.902951387366878
 20
1.50827182965515
 10
8.902951387366878
 20
1.6518128677717827
 10
8.902951387366878
 20
1.7689922658473711
 10
8.902951387366878
 20
1.8714970798954722
 10
8.902951387366878
 20
1.9641620213262472
 10
8.902951387366878
 20
2.049644960550876
 10
8.902951387366878
 20
2.1296718437437328
 10
8.902951387366878
 20
2.2055060124347885
 10
8.902951387366878
 20
2.2781623642929563
 10
8.902951387366878
 20
2.348517580167226
 10
8.902951387366878
 20
2.4173715252714025
 10
8.902951387366878
 20
2.485483529855046
  0
LWPOLYLINE
  5
68
330
17
100
AcDbEntity
  8
CLAMP
100
AcDbPolyline
 90
2
 70
0
 10
8.302951387366878
 20
0.0
 10
8.902951387366878
 20
1.3322676295501876e-16
  0
LWPOLYLINE
  5
69
330
17
100
AcDbEntity
  8
CLAMP
100
AcDbPolyline
 90
2
 70
0
 10
8.302951387366878
 20
2.485483529855046
 10
8.902951387366878
 20
2.485483529855046
  0
TEXT
  5
6A
330
17
100
AcDbEntity
  8
TEXTO
100
AcDbText
 10
8.302951387366878
 20
-0.35
 30
0.0
 40
0.12
  1
I2T · x38 · 1.49 m2
 11
8.302951387366878
 21
-0.35
 31
0.0
100
AcDbText
  0
TEXT
  5
6B
330
17
100
AcDbEntity
  8
TEXTO
100
AcDbText
 10
8.302951387366878
 20
-0.55
 30
0.0
 40
0.06
  1
ZION CÁPSULA · FORRO / REVESTIMENTO INTERNO · Compensado naval 12 mm curvado (2 x 6 mm colados), acabament
 11
8.302951387366878
 21
-0.55
 31
0.0
100
AcDbText
  0
LWPOLYLINE
  5
6C
330
17
100
AcDbEntity
  8
CONTORNO
100
AcDbPolyline
 90
50
 70
1
 10
9.50295138736688
 20
0.0
 10
9.50295138736688
 20
0.06811200458364278
 10
9.50295138736688
 20
0.13696594968781978
 10
9.50295138736688
 20
0.20732116556208902
 10
9.50295138736688
 20
0.2799775174202573
 10
9.50295138736688
 20
0.3558116861113126
 10
9.50295138736688
 20
0.43583856930416975
 10
9.50295138736688
 20
0.5213215085287985
 10
9.50295138736688
 20
0.6139864499595731
 10
9.50295138736688
 20
0.7164912640076742
 10
9.50295138736688
 20
0.8336706620832628
 10
9.50295138736688
 20
0.9772117001998953
 10
9.50295138736688
 20
1.242741764927523
 10
9.50295138736688
 20
1.5082718296551505
 10
9.50295138736688
 20
1.651812867771783
 10
9.50295138736688
 20
1.7689922658473716
 10
9.50295138736688
 20
1.8714970798954726
 10
9.50295138736688
 20
1.9641620213262472
 10
9.50295138736688
 20
2.049644960550876
 10
9.50295138736688
 20
2.129671843743733
 10
9.50295138736688
 20
2.2055060124347885
 10
9.50295138736688
 20
2.2781623642929567
 10
9.50295138736688
 20
2.3485175801672256
 10
9.50295138736688
 20
2.4173715252714025
 10
9.50295138736688
 20
2.4854835298550455
 10
10.102951387366879
 20
2.4854835298550455
 10
10.102951387366879
 20
2.4173715252714025
 10
10.102951387366879
 20
2.3485175801672256
 10
10.102951387366879
 20
2.2781623642929563
 10
10.102951387366879
 20
2.205506012434788
 10
10.102951387366879
 20
2.129671843743733
 10
10.102951387366879
 20
2.049644960550876
 10
10.102951387366879
 20
1.9641620213262472
 10
10.102951387366879
 20
1.8714970798954724
 10
10.102951387366879
 20
1.7689922658473716
 10
10.102951387366879
 20
1.651812867771783
 10
10.102951387366879
 20
1.5082718296551505
 10
10.102951387366879
 20
1.242741764927523
 10
10.102951387366879
 20
0.9772117001998954
 10
10.102951387366879
 20
0.8336706620832629
 10
10.102951387366879
 20
0.7164912640076743
 10
10.102951387366879
 20
0.6139864499595732
 10
10.102951387366879
 20
0.5213215085287987
 10
10.102951387366879
 20
0.4358385693041698
 10
10.102951387366879
 20
0.35581168611131264
 10
10.102951387366879
 20
0.27997751742025734
 10
10.102951387366879
 20
0.20732116556208907
 10
10.102951387366879
 20
0.1369659496878198
 10
10.102951387366879
 20
0.06811200458364278
 10
10.102951387366879
 20
0.0
  0
LWPOLYLINE
  5
6D
330
17
100
AcDbEntity
  8
CLAMP
100
AcDbPolyline
 90
25
 70
0
 10
9.50295138736688
 20
0.0
 10
9.50295138736688
 20
0.06811200458364278
 10
9.50295138736688
 20
0.13696594968781978
 10
9.50295138736688
 20
0.20732116556208902
 10
9.50295138736688
 20
0.2799775174202573
 10
9.50295138736688
 20
0.3558116861113126
 10
9.50295138736688
 20
0.43583856930416975
 10
9.50295138736688
 20
0.5213215085287985
 10
9.50295138736688
 20
0.6139864499595731
 10
9.50295138736688
 20
0.7164912640076742
 10
9.50295138736688
 20
0.8336706620832628
 10
9.50295138736688
 20
0.9772117001998953
 10
9.50295138736688
 20
1.242741764927523
 10
9.50295138736688
 20
1.5082718296551505
 10
9.50295138736688
 20
1.651812867771783
 10
9.50295138736688
 20
1.7689922658473716
 10
9.50295138736688
 20
1.8714970798954726
 10
9.50295138736688
 20
1.9641620213262472
 10
9.50295138736688
 20
2.049644960550876
 10
9.50295138736688
 20
2.129671843743733
 10
9.50295138736688
 20
2.2055060124347885
 10
9.50295138736688
 20
2.2781623642929567
 10
9.50295138736688
 20
2.3485175801672256
 10
9.50295138736688
 20
2.4173715252714025
 10
9.50295138736688
 20
2.4854835298550455
  0
LWPOLYLINE
  5
6E
330
17
100
AcDbEntity
  8
CLAMP
100
AcDbPolyline
 90
25
 70
0
 10
10.102951387366879
 20
0.0
 10
10.102951387366879
 20
0.06811200458364278
 10
10.102951387366879
 20
0.1369659496878198
 10
10.102951387366879
 20
0.20732116556208907
 10
10.102951387366879
 20
0.27997751742025734
 10
10.102951387366879
 20
0.35581168611131264
 10
10.102951387366879
 20
0.4358385693041698
 10
10.102951387366879
 20
0.5213215085287987
 10
10.102951387366879
 20
0.6139864499595732
 10
10.102951387366879
 20
0.7164912640076743
 10
10.102951387366879
 20
0.8336706620832629
 10
10.102951387366879
 20
0.9772117001998954
 10
10.102951387366879
 20
1.242741764927523
 10
10.102951387366879
 20
1.5082718296551505
 10
10.102951387366879
 20
1.651812867771783
 10
10.102951387366879
 20
1.7689922658473716
 10
10.102951387366879
 20
1.8714970798954724
 10
10.102951387366879
 20
1.9641620213262472
 10
10.102951387366879
 20
2.049644960550876
 10
10.102951387366879
 20
2.129671843743733
 10
10.102951387366879
 20
2.205506012434788
 10
10.102951387366879
 20
2.2781623642929563
 10
10.102951387366879
 20
2.3485175801672256
 10
10.102951387366879
 20
2.4173715252714025
 10
10.102951387366879
 20
2.4854835298550455
  0
LWPOLYLINE
  5
6F
330
17
100
AcDbEntity
  8
CLAMP
100
AcDbPolyline
 90
2
 70
0
 10
9.50295138736688
 20
0.0
 10
10.102951387366879
 20
0.0
  0
LWPOLYLINE
  5
70
330
17
100
AcDbEntity
  8
CLAMP
100
AcDbPolyline
 90
2
 70
0
 10
9.50295138736688
 20
2.4854835298550455
 10
10.102951387366879
 20
2.4854835298550455
  0
LWPOLYLINE
  5
71
330
17
100
AcDbEntity
  8
RECORTE
100
AcDbPolyline
 90
36
 70
1
 10
10.022951387366879
 20
1.242741764927523
 10
10.018089868330787
 20
1.3836399152046628
 10
10.00365302601837
 20
1.5147507800265902
 10
9.9800795165779
 20
1.5840453427654386
 10
9.948085609164952
 20
1.6466761438437745
 10
9.908643422466572
 20
1.6917545655933361
 10
9.86295138736688
 20
1.7275551345351885
 10
9.812397833231094
 20
1.7539334395990906
 10
9.758518804220298
 20
1.769950769936513
 10
9.70295138736688
 20
1.7747094623553086
 10
9.647383970513463
 20
1.769950769936513
 10
9.593504941502665
 20
1.7539334395990906
 10
9.54295138736688
 20
1.7275551345351885
 10
9.497259352267188
 20
1.6917545655933361
 10
9.457817165568807
 20
1.6466761438437745
 10
9.425823258155859
 20
1.5840453427654386
 10
9.40224974871539
 20
1.5147507800265902
 10
9.387812906402973
 20
1.3836399152046628
 10
9.38295138736688
 20
1.242741764927523
 10
9.387812906402973
 20
1.1018436146503836
 10
9.40224974871539
 20
0.9707327498284557
 10
9.425823258155859
 20
0.9014381870896072
 10
9.457817165568807
 20
0.8388073860112712
 10
9.497259352267188
 20
0.7937289642617097
 10
9.54295138736688
 20
0.7579283953198575
 10
9.593504941502665
 20
0.7315500902559549
 10
9.647383970513461
 20
0.7155327599185328
 10
9.70295138736688
 20
0.7107740674997374
 10
9.758518804220298
 20
0.7155327599185328
 10
9.812397833231094
 20
0.731550090255955
 10
9.862951387366879
 20
0.7579283953198571
 10
9.908643422466572
 20
0.7937289642617098
 10
9.948085609164952
 20
0.8388073860112714
 10
9.9800795165779
 20
0.9014381870896075
 10
10.00365302601837
 20
0.9707327498284558
 10
10.018089868330787
 20
1.1018436146503836
  0
TEXT
  5
72
330
17
100
AcDbEntity
  8
TEXTO
100
AcDbText
 10
9.70295138736688
 20
1.2427417649275232
 30
0.0
 40
0.05
  1
Olho da suíte Ø0,64
 11
9.70295138736688
 21
1.2427417649275232
 31
0.0
100
AcDbText
  0
TEXT
  5
73
330
17
100
AcDbEntity
  8
TEXTO
100
AcDbText
 10
9.50295138736688
 20
-0.35
 30
0.0
 40
0.12
  1
I5D · x1 · 1.49 m2
 11
9.50295138736688
 21
-0.35
 31
0.0
100
AcDbText
  0
TEXT
  5
74
330
17
100
AcDbEntity
  8
TEXTO
100
AcDbText
 10
9.50295138736688
 20
-0.55
 30
0.0
 40
0.06
  1
ZION CÁPSULA · FORRO / REVESTIMENTO INTERNO · Compensado naval 12 mm curvado (2 x 6 mm colados), acabament
 11
9.50295138736688
 21
-0.55
 31
0.0
100
AcDbText
  0
LWPOLYLINE
  5
75
330
17
100
AcDbEntity
  8
CONTORNO
100
AcDbPolyline
 90
50
 70
1
 10
10.70295138736688
 20
0.0
 10
10.70295138736688
 20
0.06811200458364261
 10
10.70295138736688
 20
0.1369659496878196
 10
10.70295138736688
 20
0.20732116556208902
 10
10.70295138736688
 20
0.2799775174202574
 10
10.70295138736688
 20
0.3558116861113122
 10
10.70295138736688
 20
0.4358385693041694
 10
10.70295138736688
 20
0.5213215085287982
 10
10.70295138736688
 20
0.6139864499595726
 10
10.70295138736688
 20
0.7164912640076735
 10
10.70295138736688
 20
0.8336706620832626
 10
10.70295138736688
 20
0.9772117001998952
 10
10.70295138736688
 20
1.242741764761813
 10
10.70295138736688
 20
1.5082718296551498
 10
10.70295138736688
 20
1.6518128677717825
 10
10.70295138736688
 20
1.7689922658473711
 10
10.70295138736688
 20
1.871497079895472
 10
10.70295138736688
 20
1.964162021326247
 10
10.70295138736688
 20
2.0496449605508755
 10
10.70295138736688
 20
2.1296718437437328
 10
10.70295138736688
 20
2.2055060124347885
 10
10.70295138736688
 20
2.2781623642929563
 10
10.70295138736688
 20
2.348517580167226
 10
10.70295138736688
 20
2.4173715252714025
 10
10.70295138736688
 20
2.485483529855046
 10
11.302951387366882
 20
2.485483529855046
 10
11.302951387366882
 20
2.417371525271403
 10
11.302951387366882
 20
2.3485175801672264
 10
11.302951387366882
 20
2.2781623642929567
 10
11.302951387366882
 20
2.2055060124347885
 10
11.302951387366882
 20
2.129671843743733
 10
11.302951387366882
 20
2.049644960550876
 10
11.302951387366882
 20
1.9641620213262472
 10
11.302951387366882
 20
1.871497079895472
 10
11.302951387366882
 20
1.7689922658473711
 10
11.302951387366882
 20
1.6518128677717825
 10
11.302951387366882
 20
1.5082718296551498
 10
11.302951387366882
 20
1.242741764761813
 10
11.302951387366882
 20
0.9772117001998952
 10
11.302951387366882
 20
0.8336706620832625
 10
11.302951387366882
 20
0.7164912640076734
 10
11.302951387366882
 20
0.6139864499595725
 10
11.302951387366882
 20
0.5213215085287982
 10
11.302951387366882
 20
0.4358385693041694
 10
11.302951387366882
 20
0.3558116861113122
 10
11.302951387366882
 20
0.2799775174202574
 10
11.302951387366882
 20
0.20732116556208902
 10
11.302951387366882
 20
0.1369659496878196
 10
11.302951387366882
 20
0.0681120045836426
 10
11.302951387366882
 20
0.0
  0
LWPOLYLINE
  5
76
330
17
100
AcDbEntity
  8
CLAMP
100
AcDbPolyline
 90
25
 70
0
 10
10.70295138736688
 20
0.0
 10
10.70295138736688
 20
0.06811200458364261
 10
10.70295138736688
 20
0.1369659496878196
 10
10.70295138736688
 20
0.20732116556208902
 10
10.70295138736688
 20
0.2799775174202574
 10
10.70295138736688
 20
0.3558116861113122
 10
10.70295138736688
 20
0.4358385693041694
 10
10.70295138736688
 20
0.5213215085287982
 10
10.70295138736688
 20
0.6139864499595726
 10
10.70295138736688
 20
0.7164912640076735
 10
10.70295138736688
 20
0.8336706620832626
 10
10.70295138736688
 20
0.9772117001998952
 10
10.70295138736688
 20
1.242741764761813
 10
10.70295138736688
 20
1.5082718296551498
 10
10.70295138736688
 20
1.6518128677717825
 10
10.70295138736688
 20
1.7689922658473711
 10
10.70295138736688
 20
1.871497079895472
 10
10.70295138736688
 20
1.964162021326247
 10
10.70295138736688
 20
2.0496449605508755
 10
10.70295138736688
 20
2.1296718437437328
 10
10.70295138736688
 20
2.2055060124347885
 10
10.70295138736688
 20
2.2781623642929563
 10
10.70295138736688
 20
2.348517580167226
 10
10.70295138736688
 20
2.4173715252714025
 10
10.70295138736688
 20
2.485483529855046
  0
LWPOLYLINE
  5
77
330
17
100
AcDbEntity
  8
CLAMP
100
AcDbPolyline
 90
25
 70
0
 10
11.302951387366882
 20
0.0
 10
11.302951387366882
 20
0.0681120045836426
 10
11.302951387366882
 20
0.1369659496878196
 10
11.302951387366882
 20
0.20732116556208902
 10
11.302951387366882
 20
0.2799775174202574
 10
11.302951387366882
 20
0.3558116861113122
 10
11.302951387366882
 20
0.4358385693041694
 10
11.302951387366882
 20
0.5213215085287982
 10
11.302951387366882
 20
0.6139864499595725
 10
11.302951387366882
 20
0.7164912640076734
 10
11.302951387366882
 20
0.8336706620832625
 10
11.302951387366882
 20
0.9772117001998952
 10
11.302951387366882
 20
1.242741764761813
 10
11.302951387366882
 20
1.5082718296551498
 10
11.302951387366882
 20
1.6518128677717825
 10
11.302951387366882
 20
1.7689922658473711
 10
11.302951387366882
 20
1.871497079895472
 10
11.302951387366882
 20
1.9641620213262472
 10
11.302951387366882
 20
2.049644960550876
 10
11.302951387366882
 20
2.129671843743733
 10
11.302951387366882
 20
2.2055060124347885
 10
11.302951387366882
 20
2.2781623642929567
 10
11.302951387366882
 20
2.3485175801672264
 10
11.302951387366882
 20
2.417371525271403
 10
11.302951387366882
 20
2.485483529855046
  0
LWPOLYLINE
  5
78
330
17
100
AcDbEntity
  8
CLAMP
100
AcDbPolyline
 90
2
 70
0
 10
10.70295138736688
 20
0.0
 10
11.302951387366882
 20
0.0
  0
LWPOLYLINE
  5
79
330
17
100
AcDbEntity
  8
CLAMP
100
AcDbPolyline
 90
2
 70
0
 10
10.70295138736688
 20
2.485483529855046
 10
11.302951387366882
 20
2.485483529855046
  0
LWPOLYLINE
  5
7A
330
17
100
AcDbEntity
  8
RECORTE
100
AcDbPolyline
 90
36
 70
1
 10
11.162951387366881
 20
1.242741764761813
 10
11.159001403150056
 20
1.1282620177330809
 10
11.147271468771217
 20
1.0172606798882697
 10
11.128117992350836
 20
0.9425596654446551
 10
11.102122942577815
 20
0.8916721395685065
 10
11.070076165885382
 20
0.847745111764941
 10
11.03295138736688
 20
0.8160723446163409
 10
10.991876624631555
 20
0.7946399717519202
 10
10.948099913560283
 20
0.7815144000925163
 10
10.902951387366882
 20
0.7770944434911389
 10
10.857802861173479
 20
0.7815144000925163
 10
10.814026150102208
 20
0.7946399717519202
 10
10.77295138736688
 20
0.816072344616341
 10
10.735826608848381
 20
0.847745111764941
 10
10.703779832155947
 20
0.8916721395685067
 10
10.677784782382927
 20
0.9425596654446551
 10
10.658631305962546
 20
1.0172606798882697
 10
10.646901371583708
 20
1.1282620177330809
 10
10.642951387366882
 20
1.242741764761813
 10
10.646901371583708
 20
1.357221511933432
 10
10.658631305962546
 20
1.4682228499167886
 10
10.677784782382927
 20
1.54292386441039
 10
10.703779832155947
 20
1.5938113902865385
 10
10.735826608848381
 20
1.637738418090104
 10
10.77295138736688
 20
1.669411185238704
 10
10.814026150102208
 20
1.6908435581031247
 10
10.857802861173479
 20
1.7039691297625286
 10
10.902951387366882
 20
1.708389086363906
 10
10.948099913560283
 20
1.7039691297625286
 10
10.991876624631555
 20
1.6908435581031247
 10
11.03295138736688
 20
1.669411185238704
 10
11.070076165885382
 20
1.637738418090104
 10
11.102122942577815
 20
1.5938113902865385
 10
11.128117992350836
 20
1.54292386441039
 10
11.147271468771217
 20
1.4682228499167886
 10
11.159001403150056
 20
1.357221511933432
  0
TEXT
  5
7B
330
17
100
AcDbEntity
  8
TEXTO
100
AcDbText
 10
10.902951387366882
 20
1.2427417649050654
 30
0.0
 40
0.05
  1
Olho do banho Ø0,52
 11
10.902951387366882
 21
1.2427417649050654
 31
0.0
100
AcDbText
  0
TEXT
  5
7C
330
17
100
AcDbEntity
  8
TEXTO
100
AcDbText
 10
10.70295138736688
 20
-0.35
 30
0.0
 40
0.12
  1
I10E · x1 · 1.49 m2
 11
10.70295138736688
 21
-0.35
 31
0.0
100
AcDbText
  0
TEXT
  5
7D
330
17
100
AcDbEntity
  8
TEXTO
100
AcDbText
 10
10.70295138736688
 20
-0.55
 30
0.0
 40
0.06
  1
ZION CÁPSULA · FORRO / REVESTIMENTO INTERNO · Compensado naval 12 mm curvado (2 x 6 mm colados), acabament
 11
10.70295138736688
 21
-0.55
 31
0.0
100
AcDbText
  0
LWPOLYLINE
  5
7E
330
17
100
AcDbEntity
  8
CONTORNO
100
AcDbPolyline
 90
50
 70
1
 10
12.11592933250141
 20
0.0
 10
12.08029340705396
 20
0.058045895512998026
 10
12.048333057693362
 20
0.11903279431231077
 10
12.019869698770433
 20
0.18337324503764738
 10
11.994752736625006
 20
0.25155010091941377
 10
11.97285545958662
 20
0.3241540291834383
 10
11.954071999614358
 20
0.40194531188936644
 10
11.93831498153524
 20
0.48596346040345795
 10
11.925513634001582
 20
0.5777399109323998
 10
11.915612237751787
 20
0.679765394294844
 10
11.908568850882318
 20
0.7967329198511466
 10
11.904354290942003
 20
0.9402120720235443
 10
11.902951387366882
 20
1.2057384305621173
 10
11.904354290942003
 20
1.4712647893155917
 10
11.908568850882318
 20
1.6147439414879894
 10
11.915612237751787
 20
1.7317114670442917
 10
11.925513634001582
 20
1.8337369504067356
 10
11.93831498153524
 20
1.925513400935678
 10
11.954071999614358
 20
2.0095315494497696
 10
11.97285545958662
 20
2.0873228321556976
 10
11.994752736625006
 20
2.1599267604197223
 10
12.019869698770433
 20
2.2281036163014885
 10
12.048333057693362
 20
2.2924440670268256
 10
12.08029340705396
 20
2.353430965826138
 10
12.115929332501413
 20
2.4114768613391364
 10
13.440338243839788
 20
1.5345876814220385
 10
13.430619015286412
 20
1.5187564291676787
 10
13.421902251622187
 20
1.502123057064964
 10
13.414139245967217
 20
1.4845750479147921
 10
13.407288925887334
 20
1.4659807098684152
 10
13.401316732446013
 20
1.4461789462321246
 10
13.396193791531717
 20
1.4249624001038634
 10
13.391896272718673
 20
1.4020475584718142
 10
13.388404874055427
 20
1.3770167423134503
 10
13.385704398848429
 20
1.349190637655936
 10
13.383783407996791
 20
1.3172892881068465
 10
13.382633942371934
 20
1.278157242142042
 10
13.382251318929052
 20
1.2057384306402614
 10
13.382633942371932
 20
1.1333196191970927
 10
13.383783407996791
 20
1.094187573232288
 10
13.385704398848429
 20
1.0622862236831985
 10
13.388404874055427
 20
1.0344601190256844
 10
13.391896272718673
 20
1.0094293028673207
 10
13.396193791531717
 20
0.9865144612352713
 10
13.401316732446015
 20
0.9652979151070102
 10
13.407288925887334
 20
0.9454961514707196
 10
13.414139245967217
 20
0.9269018134243427
 10
13.421902251622189
 20
0.9093538042741709
 10
13.430619015286414
 20
0.8927204321714558
 10
13.440338243839788
 20
0.8768891799170963
  0
LWPOLYLINE
  5
7F
330
17
100
AcDbEntity
  8
CLAMP
100
AcDbPolyline
 90
25
 70
0
 10
12.11592933250141
 20
0.0
 10
12.08029340705396
 20
0.058045895512998026
 10
12.048333057693362
 20
0.11903279431231077
 10
12.019869698770433
 20
0.18337324503764738
 10
11.994752736625006
 20
0.25155010091941377
 10
11.97285545958662
 20
0.3241540291834383
 10
11.954071999614358
 20
0.40194531188936644
 10
11.93831498153524
 20
0.48596346040345795
 10
11.925513634001582
 20
0.5777399109323998
 10
11.915612237751787
 20
0.679765394294844
 10
11.908568850882318
 20
0.7967329198511466
 10
11.904354290942003
 20
0.9402120720235443
 10
11.902951387366882
 20
1.2057384305621173
 10
11.904354290942003
 20
1.4712647893155917
 10
11.908568850882318
 20
1.6147439414879894
 10
11.915612237751787
 20
1.7317114670442917
 10
11.925513634001582
 20
1.8337369504067356
 10
11.93831498153524
 20
1.925513400935678
 10
11.954071999614358
 20
2.0095315494497696
 10
11.97285545958662
 20
2.0873228321556976
 10
11.994752736625006
 20
2.1599267604197223
 10
12.019869698770433
 20
2.2281036163014885
 10
12.048333057693362
 20
2.2924440670268256
 10
12.08029340705396
 20
2.353430965826138
 10
12.115929332501413
 20
2.4114768613391364
  0
LWPOLYLINE
  5
80
330
17
100
AcDbEntity
  8
CLAMP
100
AcDbPolyline
 90
25
 70
0
 10
13.440338243839788
 20
0.8768891799170963
 10
13.430619015286414
 20
0.8927204321714558
 10
13.421902251622189
 20
0.9093538042741709
 10
13.414139245967217
 20
0.9269018134243427
 10
13.407288925887334
 20
0.9454961514707196
 10
13.401316732446015
 20
0.9652979151070102
 10
13.396193791531717
 20
0.9865144612352713
 10
13.391896272718673
 20
1.0094293028673207
 10
13.388404874055427
 20
1.0344601190256844
 10
13.385704398848429
 20
1.0622862236831985
 10
13.383783407996791
 20
1.094187573232288
 10
13.382633942371932
 20
1.1333196191970927
 10
13.382251318929052
 20
1.2057384306402614
 10
13.382633942371934
 20
1.278157242142042
 10
13.383783407996791
 20
1.3172892881068465
 10
13.385704398848429
 20
1.349190637655936
 10
13.388404874055427
 20
1.3770167423134503
 10
13.391896272718673
 20
1.4020475584718142
 10
13.396193791531717
 20
1.4249624001038634
 10
13.401316732446013
 20
1.4461789462321246
 10
13.407288925887334
 20
1.4659807098684152
 10
13.414139245967217
 20
1.4845750479147921
 10
13.421902251622187
 20
1.502123057064964
 10
13.430619015286412
 20
1.5187564291676787
 10
13.440338243839788
 20
1.5345876814220385
  0
LWPOLYLINE
  5
81
330
17
100
AcDbEntity
  8
CLAMP
100
AcDbPolyline
 90
2
 70
0
 10
12.11592933250141
 20
0.0
 10
13.440338243839788
 20
0.8768891799170963
  0
LWPOLYLINE
  5
82
330
17
100
AcDbEntity
  8
CLAMP
100
AcDbPolyline
 90
2
 70
0
 10
12.115929332501413
 20
2.4114768613391364
 10
13.440338243839788
 20
1.5345876814220385
  0
TEXT
  5
83
330
17
100
AcDbEntity
  8
TEXTO
100
AcDbText
 10
11.902951387366882
 20
-0.35
 30
0.0
 40
0.12
  1
I12T · x4 · 2.40 m2
 11
11.902951387366882
 21
-0.35
 31
0.0
100
AcDbText
  0
TEXT
  5
84
330
17
100
AcDbEntity
  8
TEXTO
100
AcDbText
 10
11.902951387366882
 20
-0.55
 30
0.0
 40
0.06
  1
ZION CÁPSULA · FORRO / REVESTIMENTO INTERNO · Compensado naval 12 mm curvado (2 x 6 mm colados), acabament
 11
11.902951387366882
 21
-0.55
 31
0.0
100
AcDbText
  0
ENDSEC
  0
SECTION
  2
OBJECTS
  0
DICTIONARY
  5
A
330
0
100
AcDbDictionary
281
1
  3
ACAD_COLOR
350
B
  3
ACAD_GROUP
350
C
  3
ACAD_LAYOUT
350
D
  3
ACAD_MATERIAL
350
E
  3
ACAD_MLEADERSTYLE
350
F
  3
ACAD_MLINESTYLE
350
10
  3
ACAD_PLOTSETTINGS
350
11
  3
ACAD_PLOTSTYLENAME
350
12
  3
ACAD_SCALELIST
350
14
  3
ACAD_TABLESTYLE
350
15
  3
ACAD_VISUALSTYLE
350
16
  3
EZDXF_META
350
2D
  0
DICTIONARY
  5
B
330
A
100
AcDbDictionary
281
1
  0
DICTIONARY
  5
C
330
A
100
AcDbDictionary
281
1
  0
DICTIONARY
  5
D
330
A
100
AcDbDictionary
281
1
  3
Model
350
1A
  3
Layout1
350
1E
  0
DICTIONARY
  5
E
330
A
100
AcDbDictionary
281
1
  3
ByBlock
350
1F
  3
ByLayer
350
20
  3
Global
350
21
  0
DICTIONARY
  5
F
330
A
100
AcDbDictionary
281
1
  3
Standard
350
2C
  0
DICTIONARY
  5
10
330
A
100
AcDbDictionary
281
1
  3
Standard
350
22
  0
DICTIONARY
  5
11
330
A
100
AcDbDictionary
281
1
  0
ACDBDICTIONARYWDFLT
  5
12
330
A
100
AcDbDictionary
281
1
  3
Normal
350
13
100
AcDbDictionaryWithDefault
340
13
  0
ACDBPLACEHOLDER
  5
13
330
12
  0
DICTIONARY
  5
14
330
A
100
AcDbDictionary
281
1
  0
DICTIONARY
  5
15
330
A
100
AcDbDictionary
281
1
  0
DICTIONARY
  5
16
330
A
100
AcDbDictionary
281
1
  0
LAYOUT
  5
1A
330
D
100
AcDbPlotSettings
  1

  4
A3
  6

 40
7.5
 41
20.0
 42
7.5
 43
20.0
 44
420.0
 45
297.0
 46
0.0
 47
0.0
 48
0.0
 49
0.0
140
0.0
141
0.0
142
1.0
143
1.0
 70
1024
 72
1
 73
0
 74
5
  7

 75
16
 76
0
 77
2
 78
300
147
1.0
148
0.0
149
0.0
100
AcDbLayout
  1
Model
 70
1
 71
0
 10
0.0
 20
0.0
 11
420.0
 21
297.0
 12
0.0
 22
0.0
 32
0.0
 14
1e+20
 24
1e+20
 34
1e+20
 15
-1e+20
 25
-1e+20
 35
-1e+20
146
0.0
 13
0.0
 23
0.0
 33
0.0
 16
1.0
 26
0.0
 36
0.0
 17
0.0
 27
1.0
 37
0.0
 76
1
330
17
  0
LAYOUT
  5
1E
330
D
100
AcDbPlotSettings
  1

  4
A3
  6

 40
7.5
 41
20.0
 42
7.5
 43
20.0
 44
420.0
 45
297.0
 46
0.0
 47
0.0
 48
0.0
 49
0.0
140
0.0
141
0.0
142
1.0
143
1.0
 70
0
 72
1
 73
0
 74
5
  7

 75
16
 76
0
 77
2
 78
300
147
1.0
148
0.0
149
0.0
100
AcDbLayout
  1
Layout1
 70
1
 71
1
 10
0.0
 20
0.0
 11
420.0
 21
297.0
 12
0.0
 22
0.0
 32
0.0
 14
1e+20
 24
1e+20
 34
1e+20
 15
-1e+20
 25
-1e+20
 35
-1e+20
146
0.0
 13
0.0
 23
0.0
 33
0.0
 16
1.0
 26
0.0
 36
0.0
 17
0.0
 27
1.0
 37
0.0
 76
1
330
1B
  0
MATERIAL
  5
1F
102
{ACAD_REACTORS
330
E
102
}
330
E
100
AcDbMaterial
  1
ByBlock
  2

 70
0
 40
1.0
 71
1
 41
1.0
 91
-1023410177
 42
1.0
 72
1
  3

 73
1
 74
1
 75
1
 44
0.5
 73
0
 45
1.0
 46
1.0
 77
1
  4

 78
1
 79
1
170
1
 48
1.0
171
1
  6

172
1
173
1
174
1
140
1.0
141
1.0
175
1
  7

176
1
177
1
178
1
143
1.0
179
1
  8

270
1
271
1
272
1
145
1.0
146
1.0
273
1
  9

274
1
275
1
276
1
 42
1.0
 72
1
  3

 73
1
 74
1
 75
1
 94
63
  0
MATERIAL
  5
20
102
{ACAD_REACTORS
330
E
102
}
330
E
100
AcDbMaterial
  1
ByLayer
  2

 70
0
 40
1.0
 71
1
 41
1.0
 91
-1023410177
 42
1.0
 72
1
  3

 73
1
 74
1
 75
1
 44
0.5
 73
0
 45
1.0
 46
1.0
 77
1
  4

 78
1
 79
1
170
1
 48
1.0
171
1
  6

172
1
173
1
174
1
140
1.0
141
1.0
175
1
  7

176
1
177
1
178
1
143
1.0
179
1
  8

270
1
271
1
272
1
145
1.0
146
1.0
273
1
  9

274
1
275
1
276
1
 42
1.0
 72
1
  3

 73
1
 74
1
 75
1
 94
63
  0
MATERIAL
  5
21
102
{ACAD_REACTORS
330
E
102
}
330
E
100
AcDbMaterial
  1
Global
  2

 70
0
 40
1.0
 71
1
 41
1.0
 91
-1023410177
 42
1.0
 72
1
  3

 73
1
 74
1
 75
1
 44
0.5
 73
0
 45
1.0
 46
1.0
 77
1
  4

 78
1
 79
1
170
1
 48
1.0
171
1
  6

172
1
173
1
174
1
140
1.0
141
1.0
175
1
  7

176
1
177
1
178
1
143
1.0
179
1
  8

270
1
271
1
272
1
145
1.0
146
1.0
273
1
  9

274
1
275
1
276
1
 42
1.0
 72
1
  3

 73
1
 74
1
 75
1
 94
63
  0
MLINESTYLE
  5
22
102
{ACAD_REACTORS
330
10
102
}
330
10
100
AcDbMlineStyle
  2
Standard
 70
0
  3

 62
256
 51
90.0
 52
90.0
 71
2
 49
0.5
 62
256
  6
BYLAYER
 49
-0.5
 62
256
  6
BYLAYER
  0
MLEADERSTYLE
  5
2C
102
{ACAD_REACTORS
330
F
102
}
330
F
100
AcDbMLeaderStyle
179
2
170
2
171
1
172
0
 90
2
 40
0.0
 41
0.0
173
1
 91
-1056964608
 92
-2
290
1
 42
2.0
291
1
 43
8.0
  3
Standard
 44
4.0
300

342
29
174
1
175
1
176
0
178
1
 93
-1056964608
 45
4.0
292
0
297
0
 46
4.0
 94
-1056964608
 47
1.0
 49
1.0
140
1.0
294
1
141
0.0
177
0
142
1.0
295
0
296
0
143
3.75
271
0
272
9
273
9
  0
DICTIONARY
  5
2D
330
A
100
AcDbDictionary
280
1
281
1
  3
CREATED_BY_EZDXF
350
2E
  3
WRITTEN_BY_EZDXF
350
87
  0
DICTIONARYVAR
  5
2E
330
2D
100
DictionaryVariables
280
0
  1
1.4.4 @ 2026-09-17T16:50:33.515501+00:00
  0
DICTIONARYVAR
  5
87
330
2D
100
DictionaryVariables
280
0
  1
1.4.4 @ 2026-09-17T16:50:33.522615+00:00
  0
ENDSEC
  0
EOF
